<svg id="thum-frames" xmlns="http://www.w3.org/2000/svg" viewBox="0 0 510 576"><defs><style>.cls-1,.cls-13,.cls-17,.cls-3,.cls-4{fill:none;}.cls-11,.cls-2{fill:#735436;}.cls-10,.cls-11,.cls-12,.cls-14,.cls-15,.cls-16,.cls-18,.cls-19,.cls-20,.cls-3,.cls-4,.cls-5,.cls-6,.cls-8{stroke:#000;}.cls-11,.cls-12,.cls-13,.cls-14,.cls-15,.cls-16,.cls-17,.cls-18,.cls-3,.cls-4,.cls-6,.cls-8{stroke-linecap:round;}.cls-10,.cls-11,.cls-12,.cls-13,.cls-14,.cls-18,.cls-3,.cls-5,.cls-6,.cls-8{stroke-miterlimit:10;}.cls-10,.cls-11,.cls-12,.cls-13,.cls-14,.cls-15,.cls-16,.cls-17,.cls-18,.cls-19,.cls-20,.cls-3,.cls-4,.cls-5,.cls-6,.cls-8{stroke-width:2px;}.cls-15,.cls-16,.cls-17,.cls-19,.cls-20,.cls-4{stroke-linejoin:round;}.cls-5,.cls-8,.cls-9{fill:#f7b363;}.cls-6,.cls-7{fill:#fff;}.cls-12{fill:#f15a24;}.cls-13{stroke:#588191;}.cls-14{fill:#2e6c92;}.cls-15{fill:#e6e6e6;}.cls-16{fill:#fcee95;}.cls-17{stroke:#fff;}.cls-18{fill:#4d4d4d;}.cls-19{fill:#cf702c;}</style></defs><title>principles</title><rect class="cls-1" width="510" height="576"/><path class="cls-2" d="M194.85,133.62L184,144.29a13.27,13.27,0,0,0-2-3.12c-1.17-1.22-3-1.1-5.86-.81a83.41,83.41,0,0,1-10.21.35,138.36,138.36,0,0,1-16.63-1.34,2.51,2.51,0,0,1-1.56-.79,1.65,1.65,0,0,1,.52-2.12,2.26,2.26,0,0,1,1-.24c-1.82,0-3.32,0-3.87-.08a1.85,1.85,0,0,1-1.45-.66,1.7,1.7,0,0,1,.49-2.17,3.21,3.21,0,0,1,1.78-.38H144a1.87,1.87,0,0,1-1.45-.68,1.68,1.68,0,0,1,.58-2.13,3.57,3.57,0,0,1,2.15-.39l3,0.08c-1.91-.09-2.77-0.88-2.77-1.78,0-1.48,2.05-1.68,2.79-1.66,5.65,0.16,11,.27,16.5.43h0c-3.22-.82-2.13-4-0.85-4.22s5.51,0.32,7.69.38,6,0,8.28,0a13.69,13.69,0,0,1,6.11,1.14C189.58,125.84,193.61,129.91,194.85,133.62Z"/><path class="cls-3" d="M194.85,133.65c-1.24-3.71-5.27-7.78-8.77-9.53A13.61,13.61,0,0,0,180,123c-2.25,0-6.09.06-8.27,0s-6.41-.64-7.69-0.38-2.36,3.39.85,4.22"/><path class="cls-3" d="M148.73,129.83c-2.18,0-3.16-.83-3.16-1.79,0-1.48,2.05-1.68,2.79-1.66,5.65,0.16,11,.26,16.5.42a11.38,11.38,0,0,1,6,.2,35.72,35.72,0,0,1,5-.33l1.14-1"/><path class="cls-3" d="M164.13,130.14c-7.68-.34-11.15-0.15-18.84-0.4a3.57,3.57,0,0,0-2.16.39,1.69,1.69,0,0,0-.58,2.13,1.9,1.9,0,0,0,1.45.68h2.63"/><path class="cls-3" d="M162.74,133c-7.35,0-8.94.14-16.1,0a3.76,3.76,0,0,0-2.16.37,1.71,1.71,0,0,0-.49,2.17,1.84,1.84,0,0,0,1.45.66c1.81,0.15,16.89.15,16.89,0.15"/><path class="cls-3" d="M151.1,136.27c-0.87,0-2.13-.16-2.76.21a1.66,1.66,0,0,0-.52,2.12,2.46,2.46,0,0,0,1.56.79A138.45,138.45,0,0,0,166,140.74a82.48,82.48,0,0,0,10.22-.35c2.88-.29,4.11-0.38,5.54.54a7.64,7.64,0,0,1,2.28,3.37"/><path class="cls-4" d="M168.69,135.09l2.16-4.11s5.65,4,10.58,1"/><line class="cls-3" x1="177.5" y1="127.14" x2="175.81" y2="126.68"/><path class="cls-5" d="M169.64,137.46c-0.35,1-5.07.61-10.23-1.64-5.31-2.32-3.29-4.89-3.29-4.89l12.38,4.2a1.83,1.83,0,0,1,1.15,2.32h0Z"/><path class="cls-6" d="M179.93,128.1l0.64,2.56s1.88-.14,1.89,1.1c0,1.76-2.21,1.45-2.21,1.45l-1.73,0-2-.77,0-3.51Z"/><path class="cls-6" d="M153.58,130.48s-3.42,1.11-2.95,2.53c0.58,1.74,4.47-.25,4.47-0.25"/><path class="cls-7" d="M169.61,135.27a51.15,51.15,0,0,1-6.87.48s-10,.33-10-12.31c0-6.6,6.64-10.87,11.79-11.34,3.1-.28,4.74.63,6.68,0.61s3.55-1.09,6.52-.44c4.55,1,9.12,5.44,8.87,13.13-0.06,1.76-1.63,3.19-7,3.23-1,0-2.82,1.42-2.82,1.42l0.25,1.67s1.68-.05,1.68.92a1.82,1.82,0,0,1-1.55,1.78c-1.47,0-1.38-.7-3.26-1.19C173.91,133.23,170.73,135.26,169.61,135.27Z"/><path class="cls-8" d="M182.94,114.25a1.68,1.68,0,1,0-2.83-1.8"/><path class="cls-9" d="M154.77,132.64c11-2.26,11-8.75,15.39-9.48s6.53,6.64,6.67,7.12l0-.22s1.82-1.41,2.83-1.42c5.37,0,6.94-1.48,7-3.24,0.26-7.69-4.32-12.12-8.87-13.13-3-.66-4.58.42-6.52,0.43s-3.58-.89-6.68-0.61c-5.15.47-11.64,4.74-11.79,11.34C152.66,128,153.51,130.86,154.77,132.64Z"/><path class="cls-3" d="M162.4,135.73s-10.51.19-9.63-12.29c0.46-6.58,6.64-10.87,11.79-11.34,3.1-.28,4.74.63,6.68,0.61s3.55-1.09,6.52-.44c4.55,1,9.12,5.44,8.87,13.13-0.06,1.76-1.63,3.19-7,3.23-1,0-2.82,1.42-2.82,1.42l0.25,1.67s1.71,0.54,1.68,1.51a1.19,1.19,0,0,1-1.55,1.19,2.81,2.81,0,0,1-2-.62,1.79,1.79,0,0,0-1.9,0C169.77,136.24,162.4,135.73,162.4,135.73Z"/><ellipse cx="180.37" cy="121.61" rx="0.99" ry="1.47" transform="translate(-0.88 1.32) rotate(-0.42)"/><path d="M184.11,124.89h-1c-0.69,0-1,.68-0.54,1.07l0.7,0.55a0.66,0.66,0,0,0,.83,0l0.59-.57C185.13,125.51,184.77,124.89,184.11,124.89Z"/><path class="cls-8" d="M178,115.47a1.68,1.68,0,1,0-3.13,1.22"/><path class="cls-10" d="M309.77,57.35s-5.51-10.68,3.62-17.46h1.4l-3.55,17.46h-1.47Z"/><path class="cls-11" d="M349.89,105.6c-0.3-2.18-3.24-17.51-3.54-19.69L316,92.14c0,3.65-.18,17.48,0,21.13l2.81,3.29Z"/><path class="cls-11" d="M314.78,36.22a65.07,65.07,0,0,0-4,14.27c-2.2,12.23-4.94,40.49,10.92,44.1,20.5,4.67,33.59-19.37,36.7-27.1,0.54-1.34,1.06-2.7,1.52-4.08L360.75,47,319.08,31.57l-4.3,4.65"/><path d="M359.77,63.82c-0.3.88-.62,1.75-1,2.62-0.65-6.36-9.05-.19-10.38-0.68a0.92,0.92,0,0,1-.75-1.25A51.77,51.77,0,0,1,349.45,57a2.19,2.19,0,0,0-.36-2.64c-2.39-3.13-2.69-3.92-4-7.63a44.07,44.07,0,0,1,4.08,2.16C353.59,51.62,357.52,54.32,359.77,63.82Z"/><path class="cls-6" d="M303.35,517.68c0.26-1.62,1.15-10.65-.06-15.06l23.52-1.86c0.11,8.08.13,16.09,1.08,24l-2.31,3.6H303.29Z"/><path class="cls-12" d="M264.91,533c2.14-.28,6.14-0.66,8-1.42,10.92-4.41,30.14-14,30.14-14,0.15,0.13,5.92,5.14,9.09,6.85a17.18,17.18,0,0,0,11,2.2,12.64,12.64,0,0,0,4.75-1.88l0.85-.28a26.63,26.63,0,0,1,1.18,15.31l-26.63,2.67-37.44-1.08"/><path class="cls-6" d="M335.17,506l-5.44,19,7.62,5.2,14.2-.9S351,513.58,353.4,506H335.17Z"/><path class="cls-3" d="M265.85,541.35l-7.11-.21-5.29-2.5a8.17,8.17,0,0,1,5.35-5.11c1.92-.52,4-0.3,5.93-0.55l0.18,0C265.73,534.52,267.34,538.28,265.85,541.35Z"/><line class="cls-13" x1="253.45" y1="538.64" x2="253.44" y2="538.64"/><path class="cls-6" d="M329.92,539.76a24.61,24.61,0,0,1-1.22,4A2.58,2.58,0,0,1,328,545a2.71,2.71,0,0,1-1.22.42c-7.48,1.26-15.14.64-22.74,0.69-2.64,0-5.28.12-7.91,0.38-2.44.25-4.85,0.65-7.29,0.9-8.21.82-16.48-.14-24.67-1.09l-8.34-1a3.53,3.53,0,0,1-1.65-.48,2.9,2.9,0,0,1-1-1.82,7.51,7.51,0,0,1,.33-4.35c0.32,0.05,10.21,1.55,18.34,2.12s19.61-1.35,26-1.06,23.51,0.21,27,.06A42,42,0,0,1,329.92,539.76Z"/><path class="cls-14" d="M365.09,307.14c3.27,33.15-5.71,66.77-1.1,99.76,1.84,30.53,1.33,68.28-2.66,101.87-8.88,2.11-21.53.54-29.18-4.43,2-13,4-26.13,4.36-39.32,0.24-8.3-.15-16.6-0.65-24.88-2.15-35.7-7.05-57.21-13.17-92.44-2.32,13.61-6.29,35.38-4.5,67.43,1.21,7,2,12.28,3.24,19.32,0.71,4.14,6.83,56.95,7.34,66l-0.58.36c-9.25.56-19.25,1.26-28.48,2.1l-0.35-.72c-3.26-26.7-9.59-53.39-12.85-80.09a855.8,855.8,0,0,1-6.06-121.73Z"/><polygon class="cls-15" points="299.12 508.58 329.92 506.79 329.74 499.99 328.19 500.06 299.37 502.21 298.35 503.07 299.12 508.58"/><path class="cls-15" d="M332.15,504.34l-0.69-.63-1.74,7a41.4,41.4,0,0,0,17.81,4.86c10.77,0.58,13.59-.71,13.59-0.71l1.11-6.28-0.91.19S342.48,511.76,332.15,504.34Z"/><path class="cls-16" d="M320,114.54c10.07-5.41,21-10.25,29.54-17.81,0,0,4.26,7.85,5.14,10.85,0,0,29.32,17.87,33.44,24s6.61,5.89,8.37,21,4.74,40.06,2.08,66.46c-2.06,20.42-10.88,53.81-16.38,71.17-0.4,1.26-4.71,4.81-5.05,5.83A35.81,35.81,0,0,1,375,301.5a37.92,37.92,0,0,1-9.86-1.24c-6.34-1.47-10.69,6.59-10.69,6.59-4.58,3-47.91,3.29-59,1.12s-16.8-4.69-17.13-5.06-0.71-87.55,5.28-127.86c-9.73,13.84-15.84,26.33-36.71,26.27-20.1,0-52.71-37.4-58.17-44.93-1-1.34,0-4.74,0-4.74l-5.61-6.44,11.54-11.92,5.6,4.09c11.59,10.53,32.69,30.32,36.63,32.32s8.71,2.83,12.81,1.17c4.57-1.85,7.44-6.32,10-10.52l23.53-38.43c7.95-10.83,20.58-10.74,26.21-11.12l5.44-10.54a53.34,53.34,0,0,0,5,14.27"/><path class="cls-4" d="M283.63,175.05c1.54-10.34,3.82-25,5.84-34.45"/><path class="cls-4" d="M309.44,110.41a33.17,33.17,0,0,1-1.08,10.82,44.11,44.11,0,0,0,10.44-7.46"/><path class="cls-4" d="M320,113.52c1,2.82,8,11.12,8,11.12,11.13-5.5,17.78-10.13,26.68-17"/><path class="cls-4" d="M319.54,113.27c-5.2,23.11-11.63,50.52-14.41,74-1.11,9.41-1.84,18.85-2.56,28.3-2.36,30.78-3.77,64.34-2.8,92.94"/><path class="cls-4" d="M350.72,162.08c-2.09,8.41-3.56,26.67-4.07,27.17S334.82,193,334.59,193s-8.73-6.59-9-7.25,2.09-17.11,3.18-24.62Z"/><path class="cls-3" d="M317.62,396.08c0.52,18.66-8.13,26.32-13.76,29.76"/><path class="cls-3" d="M318.13,414.74a28.68,28.68,0,0,1-5.92,13.37"/><path class="cls-3" d="M364.73,416.36a22.58,22.58,0,0,1-5,9.47"/><path class="cls-4" d="M249.91,171.56c1.14,2.85,3.31,4.15,6.1,5.43a36.48,36.48,0,0,0,8.89,2.37"/><path class="cls-4" d="M249,171.56a11,11,0,0,0,2.52,7.43,21.68,21.68,0,0,0,1.58,1.64"/><path class="cls-4" d="M247.31,171.82c-2.69,5.68-2.43,11.65.06,17.42"/><path class="cls-4" d="M285.59,162c-0.52-3.68-1.94-8.24-4.19-11.2"/><path class="cls-4" d="M369.1,183.09c-2.08-4-4-6.27-4.3-10.76"/><line class="cls-4" x1="201" y1="138.04" x2="190.41" y2="149.51"/><path class="cls-12" d="M334.38,526.16a37.76,37.76,0,0,0-3.84-1.18c-2.72-.73-2.22,5.32-3.74,7.62s-6.27,9.22-6.27,9.22c-7.21,6.64-4.61,14.09-4.61,14.09,1,2.34,3.93,3,6.45,3.2q3.26,0.31,6.53.47a44.83,44.83,0,0,0,12-.63,18.72,18.72,0,0,0,10.35-5.83,11.94,11.94,0,0,0,2.47-11.3c0.73-5.36.06-6.7-.91-12a0.89,0.89,0,0,0-.41-0.73,1.21,1.21,0,0,0-.89.21,2.5,2.5,0,0,1-2.73-.9,14.09,14.09,0,0,1-1.5-2.68,10.14,10.14,0,0,0-4.62-4.39,4.75,4.75,0,0,0-3-.51,6.19,6.19,0,0,0-2.54,1.54C335.87,523.48,335.69,525,334.38,526.16Z"/><path class="cls-3" d="M324.21,61.86l-8.38,7.86a3.43,3.43,0,0,0-1,1.25,1.18,1.18,0,0,0,.4,1.42,1.68,1.68,0,0,0,.77.15,35.43,35.43,0,0,0,6.52-.39"/><path class="cls-3" d="M319.17,80.15a8.18,8.18,0,0,0,6.45,2.13,11.72,11.72,0,0,0,6.31-2.8"/><path class="cls-11" d="M352.79,302.19s-5,6.45-6.41,9.32-3.86,4-4.29,4.55a1.85,1.85,0,0,0,0,2.28c0.59,1.08,3,1.72,4.81.5l1.46-1Z"/><path class="cls-11" d="M357.29,291.89s-6.31,14.61-7.05,16.53-2.42,4.43-2.54,5-0.78,8-.78,8-1.17,6.08,5,4.85a2.53,2.53,0,0,0,2.64,2.4,4,4,0,0,0,3.54-2s0.62,3.56,4.4,2.08c1.28-.5,1.65-2.8,1.65-2.8a2.3,2.3,0,0,0,3.56.72c1.71-1.15,1.59-5.27,1.83-6.95a40.21,40.21,0,0,1,1-4.19s2.4-6.95,3.11-9.82,0-12,0-12Z"/><path class="cls-3" d="M358.06,326.62s0.74-5.17,1.12-9.09"/><line class="cls-3" x1="365.11" y1="317.53" x2="364.11" y2="325.9"/><path class="cls-3" d="M351.89,326.26a73.45,73.45,0,0,1,.9-10"/><path class="cls-16" d="M369.21,158.74a425.24,425.24,0,0,0,2.7,63.77c-6.34,24.59-16.09,70.4-16.09,70.4a14.12,14.12,0,0,0,9.34,7.35A37.92,37.92,0,0,0,375,301.5,35.81,35.81,0,0,0,377.1,296c0.34-1,4.65-4.57,5.05-5.83,5.5-17.36,14.32-50.75,16.38-71.17,2.67-26.4-.31-51.37-2.08-66.46"/><path class="cls-4" d="M372.74,223.07a42.91,42.91,0,0,0,6.54-3,14.37,14.37,0,0,0,5.12-5,1.3,1.3,0,0,0,.05-1.61,1.17,1.17,0,0,0-.69-0.21,4.54,4.54,0,0,0-3.92,1.95"/><path class="cls-4" d="M371.65,225.42a10.44,10.44,0,0,0,5.2-.1"/><circle class="cls-17" cx="317.07" cy="142.38" r="0.81"/><circle class="cls-17" cx="311.68" cy="171.82" r="0.81"/><circle class="cls-17" cx="304.67" cy="268.99" r="0.81"/><circle class="cls-17" cx="305.49" cy="233.73" r="0.81"/><circle class="cls-17" cx="307.93" cy="202.09" r="0.81"/><path class="cls-6" d="M354.25,546.17a12.82,12.82,0,0,1-3,7A18.71,18.71,0,0,1,340.95,559a44.78,44.78,0,0,1-12,.63c-2.18-.12-4.36-0.27-6.53-0.48-2.52-.24-5.48-0.86-6.45-3.2a12.59,12.59,0,0,1,.17-7.37v0c0.18-.32,4-6.39,15.49-3.73,5,1.15,8.08,3.85,8.08,6.35,0,0,7.11-.58,9.42-2.12A44.74,44.74,0,0,1,354.25,546.17Z"/><path class="cls-3" d="M328.54,538.64s5.24-9.29,5.84-12.48"/><path class="cls-3" d="M348.83,528.38a64,64,0,0,1-6.54,13"/><path class="cls-3" d="M328.83,538.12a19.24,19.24,0,0,1,13.85,2.6"/><path class="cls-3" d="M343.93,538.64s-4.14-5-13.78-3"/><path class="cls-3" d="M331.46,533.15a14.91,14.91,0,0,1,13.8,3.09"/><path class="cls-3" d="M346.41,534s-4.65-4.9-13.52-3.84"/><path class="cls-3" d="M333.69,528.32s8.74-2.53,13.67,3.7"/><path class="cls-3" d="M278.06,534.11s17.5-6.9,25.26-11.6c1.82-1.1,4-1.45,5.27-.49"/><line class="cls-3" x1="277.3" y1="529.69" x2="280.25" y2="532.95"/><line class="cls-3" x1="280.91" y1="528.09" x2="284.31" y2="531.32"/><line class="cls-18" x1="285.45" y1="526.02" x2="288.83" y2="529.22"/><line class="cls-18" x1="290.24" y1="523.77" x2="293.45" y2="527.2"/><line class="cls-18" x1="294.62" y1="521.67" x2="297.72" y2="524.89"/><line class="cls-18" x1="298.79" y1="519.9" x2="301.29" y2="523.12"/><path class="cls-3" d="M316.1,548.53s2.87,6.08,23.57,2.62"/><path class="cls-3" d="M336.45,445.56s1.89,13.08,8,22.31"/><line class="cls-3" x1="322.69" y1="347.7" x2="319.96" y2="335.78"/><path class="cls-3" d="M325.2,121.74s-6.73,42-8.14,50.89-6,39.6-7.57,135.92"/><path class="cls-4" d="M357.91,283.23s3.66,7.72,16.34,8.66"/><line class="cls-4" x1="349.16" y1="170.61" x2="327.56" y2="169.49"/><ellipse cx="315.89" cy="57.85" rx="1.11" ry="2.24"/><ellipse cx="332.69" cy="61.86" rx="1.11" ry="2.24"/><path class="cls-19" d="M363.39,45.49c0.41,9.73-2.84,20.27-2.84,20.27C359.2,55.56,354,51.27,349.17,48.55c-7.47-4.2-29.79-11-33.83-11.2-3.53-.2-3.15,4.53-3.15,4.53s-11.66-7.59-11.73-9.29c-0.06-1.4-.85-3.39,15.21.51a38.2,38.2,0,0,1,11.25-11.54c11.9-3.63,29.55,4.29,34.49,14.7A24.21,24.21,0,0,1,363.39,45.49Z"/><ellipse cx="359.38" cy="42.48" rx="0.55" ry="1.13" transform="translate(-1.47 15.15) rotate(-2.41)"/><ellipse cx="361.79" cy="46.21" rx="0.55" ry="1.13" transform="translate(-1.62 15.26) rotate(-2.41)"/><path class="cls-3" d="M355.48,29.06s0.49,3.3-4.05,16.1"/><polygon class="cls-20" points="339.71 28.69 336.83 34.45 323.38 31.33 327.11 25.65 339.71 28.69"/><path class="cls-4" d="M357.43,55.77a2.82,2.82,0,0,0,1.13-3.1c-0.51-2.1-1.9-8.38-30.36-16.29-5-1.4-9.14-2.48-12.52-3.29"/><path class="cls-4" d="M345.07,46.69c1.33,3.71,1.63,4.5,4,7.63a2.2,2.2,0,0,1,.36,2.64,52,52,0,0,0-1.78,7.55,1.24,1.24,0,0,0,0,.76,1.22,1.22,0,0,0,.72.49c1.53,0.56,8.48-5.68,10.43.54"/><path class="cls-11" d="M351.23,78a2.88,2.88,0,0,0,5.59-1c0.08-1-.19-3.3.56-4.15s3.37-2.12,4.07-4.23c0.61-1.81.6-4.54-1.09-5.53s-5.36.11-6.46,2.75"/><path class="cls-4" d="M355.5,68.44s1.56-2.81,2.76-2.32,0.91,1.5.33,2.13"/><path class="cls-4" d="M351.23,75.22s0.82-2.26,2.67-1.13"/><path class="cls-3" d="M316,92.14q0,5.48.26,11"/><path class="cls-4" d="M330.3,53s5.81-.44,7,3.56"/><path class="cls-4" d="M313.56,50.29s5.81-.44,7,3.56"/><path class="cls-3" d="M253.44,540.73s14.79,2.27,21.71,2.43,18.33-1.32,21.54-1.22,23.84-.12,23.84-0.12"/><path class="cls-3" d="M315.52,551.38s4.06,4.89,15.94,3.61,19.07-3.07,22.55-7.32"/></svg>