<svg xmlns="http://www.w3.org/2000/svg" xmlns:xlink="http://www.w3.org/1999/xlink" viewBox="0 0 1525 968.81"><defs><style>.cls-1,.cls-7{fill:#fff;}.cls-2,.cls-6,.cls-7{stroke:#333;stroke-miterlimit:10;}.cls-3{fill:#3d3d3d;}.cls-4{fill:#d6d6d6;}.cls-5{fill:#8c8c8c;}.cls-6{fill:none;}</style><symbol id="New_Symbol" data-name="New Symbol" viewBox="0 0 4 4"><circle cx="2" cy="2" r="2"/></symbol></defs><title>hero-intro</title><g id="Layer_2" data-name="Layer 2"><g id="hero-intro"><rect class="cls-1" width="1525" height="920"/><use width="4" height="4" transform="translate(247.08 494.03)" xlink:href="#New_Symbol"/><use width="4" height="4" transform="translate(273.59 500.81)" xlink:href="#New_Symbol"/><use width="4" height="4" transform="translate(286.1 474.71)" xlink:href="#New_Symbol"/><use width="4" height="4" transform="translate(317.04 360.72)" xlink:href="#New_Symbol"/><use width="4" height="4" transform="translate(357.29 195.37)" xlink:href="#New_Symbol"/><use width="4" height="4" transform="translate(548.51 53.41)" xlink:href="#New_Symbol"/><use width="4" height="4" transform="translate(665.33 31.19)" xlink:href="#New_Symbol"/><use width="4" height="4" transform="translate(761.1 61.48)" xlink:href="#New_Symbol"/><use width="4" height="4" transform="translate(931.61 135.52)" xlink:href="#New_Symbol"/><use width="4" height="4" transform="translate(1088.96 214.2)" xlink:href="#New_Symbol"/><use width="4" height="4" transform="translate(1209.16 357.63)" xlink:href="#New_Symbol"/><use width="4" height="4" transform="translate(1288.5 539.91)" xlink:href="#New_Symbol"/><use width="4" height="4" transform="translate(1284.83 646.03)" xlink:href="#New_Symbol"/><use width="4" height="4" transform="translate(1108.41 779.55)" xlink:href="#New_Symbol"/><use width="4" height="4" transform="translate(802.19 833.47)" xlink:href="#New_Symbol"/><use width="4" height="4" transform="translate(540.67 675.59)" xlink:href="#New_Symbol"/><use width="4" height="4" transform="translate(543.47 556.32)" xlink:href="#New_Symbol"/><use width="4" height="4" transform="translate(547.18 435.5)" xlink:href="#New_Symbol"/><use width="4" height="4" transform="translate(454.84 340.47)" xlink:href="#New_Symbol"/><use width="4" height="4" transform="translate(292.67 283.89)" xlink:href="#New_Symbol"/><use width="4" height="4" transform="translate(204.82 251.85)" xlink:href="#New_Symbol"/><use width="4" height="4" transform="translate(122.83 214.54)" xlink:href="#New_Symbol"/><use width="4" height="4" transform="translate(107.55 310.8)" xlink:href="#New_Symbol"/><use width="4" height="4" transform="translate(74.83 507.84)" xlink:href="#New_Symbol"/><use width="4" height="4" transform="translate(111.97 722.52)" xlink:href="#New_Symbol"/><use width="4" height="4" transform="translate(167.9 824.84)" xlink:href="#New_Symbol"/><use width="4" height="4" transform="translate(446.94 877.75)" xlink:href="#New_Symbol"/><use width="4" height="4" transform="translate(686.08 891.78)" xlink:href="#New_Symbol"/><use width="4" height="4" transform="translate(920.11 851.41)" xlink:href="#New_Symbol"/><use width="4" height="4" transform="translate(1063.51 796)" xlink:href="#New_Symbol"/><use width="4" height="4" transform="translate(1325.66 732.9)" xlink:href="#New_Symbol"/><use width="4" height="4" transform="translate(1493.5 749.76)" xlink:href="#New_Symbol"/><use width="4" height="4" transform="translate(1508.35 622.86)" xlink:href="#New_Symbol"/><use width="4" height="4" transform="translate(1468.77 412.7)" xlink:href="#New_Symbol"/><use width="4" height="4" transform="translate(1374.37 206.7)" xlink:href="#New_Symbol"/><use width="4" height="4" transform="translate(1253.09 109.03)" xlink:href="#New_Symbol"/><use width="4" height="4" transform="translate(1194.06 74.18)" xlink:href="#New_Symbol"/><use width="4" height="4" transform="translate(1071.65 72.97)" xlink:href="#New_Symbol"/><use width="4" height="4" transform="translate(931.35 123.55)" xlink:href="#New_Symbol"/><use width="4" height="4" transform="translate(800.69 184.01)" xlink:href="#New_Symbol"/><use width="4" height="4" transform="translate(709.68 236.17)" xlink:href="#New_Symbol"/><use width="4" height="4" transform="translate(656.26 332.82)" xlink:href="#New_Symbol"/><use width="4" height="4" transform="translate(665.12 364.3)" xlink:href="#New_Symbol"/><use width="4" height="4" transform="translate(751.84 547.16)" xlink:href="#New_Symbol"/><use width="4" height="4" transform="translate(841.34 701.54)" xlink:href="#New_Symbol"/><use width="4" height="4" transform="translate(948.6 741.51)" xlink:href="#New_Symbol"/><use width="4" height="4" transform="translate(1079.99 705.66)" xlink:href="#New_Symbol"/><use width="4" height="4" transform="translate(1211.71 511.95)" xlink:href="#New_Symbol"/><use width="4" height="4" transform="translate(1215.47 368.36)" xlink:href="#New_Symbol"/><use width="4" height="4" transform="translate(1128.41 336.65)" xlink:href="#New_Symbol"/><use width="4" height="4" transform="translate(1059.97 280.55)" xlink:href="#New_Symbol"/><use width="4" height="4" transform="translate(912.95 186.86)" xlink:href="#New_Symbol"/><use width="4" height="4" transform="translate(846.17 148.64)" xlink:href="#New_Symbol"/><use width="4" height="4" transform="translate(665.24 134.9)" xlink:href="#New_Symbol"/><use width="4" height="4" transform="translate(547.57 129.06)" xlink:href="#New_Symbol"/><use width="4" height="4" transform="translate(381.55 125.02)" xlink:href="#New_Symbol"/><use width="4" height="4" transform="translate(273.76 101.02)" xlink:href="#New_Symbol"/><use width="4" height="4" transform="translate(177.43 83.16)" xlink:href="#New_Symbol"/><use width="4" height="4" transform="translate(109.23 60.02)" xlink:href="#New_Symbol"/><use width="4" height="4" transform="translate(98.3 92.54)" xlink:href="#New_Symbol"/><use width="4" height="4" transform="translate(12.65 242.12)" xlink:href="#New_Symbol"/><use width="4" height="4" transform="translate(48.7 424.12)" xlink:href="#New_Symbol"/><use width="4" height="4" transform="translate(69.61 586.08)" xlink:href="#New_Symbol"/><use width="4" height="4" transform="translate(75.9 763.46)" xlink:href="#New_Symbol"/><use width="4" height="4" transform="translate(98.45 947.94)" xlink:href="#New_Symbol"/><use width="4" height="4" transform="translate(95.79 964.81)" xlink:href="#New_Symbol"/><use width="4" height="4" transform="translate(169.17 958.81)" xlink:href="#New_Symbol"/><use width="4" height="4" transform="translate(286.15 846.57)" xlink:href="#New_Symbol"/><use width="4" height="4" transform="translate(319.92 727.25)" xlink:href="#New_Symbol"/><use width="4" height="4" transform="translate(375.43 637)" xlink:href="#New_Symbol"/><use width="4" height="4" transform="translate(668.55 682.95)" xlink:href="#New_Symbol"/><use width="4" height="4" transform="translate(911.65 784.87)" xlink:href="#New_Symbol"/><use width="4" height="4" transform="translate(1098.76 812.74)" xlink:href="#New_Symbol"/><use width="4" height="4" transform="translate(1256.21 866.09)" xlink:href="#New_Symbol"/><use width="4" height="4" transform="translate(1271.01 880.04)" xlink:href="#New_Symbol"/><use width="4" height="4" transform="translate(1324.69 868.24)" xlink:href="#New_Symbol"/><use width="4" height="4" transform="translate(1420.63 743.95)" xlink:href="#New_Symbol"/><use width="4" height="4" transform="translate(1392.74 660.17)" xlink:href="#New_Symbol"/><use width="4" height="4" transform="translate(1249.07 599.08)" xlink:href="#New_Symbol"/><use width="4" height="4" transform="translate(1157.12 618.32)" xlink:href="#New_Symbol"/><use width="4" height="4" transform="translate(921.14 583.07)" xlink:href="#New_Symbol"/><use width="4" height="4" transform="translate(901.73 592.84)" xlink:href="#New_Symbol"/><use width="4" height="4" transform="translate(496.79 637.42)" xlink:href="#New_Symbol"/><use width="4" height="4" transform="translate(343.86 661.34)" xlink:href="#New_Symbol"/><use width="4" height="4" transform="translate(239.66 597.38)" xlink:href="#New_Symbol"/><use width="4" height="4" transform="translate(224.73 580.22)" xlink:href="#New_Symbol"/><use width="4" height="4" transform="translate(200.84 576.53)" xlink:href="#New_Symbol"/><path class="cls-2" d="M968.76,466.24a1,1,0,0,0,0,2A1,1,0,0,0,968.76,466.24Z"/><path class="cls-2" d="M980.42,481.57h-.33a1,1,0,0,0,0,2h.33A1,1,0,0,0,980.42,481.57Z"/><path class="cls-2" d="M921.05,456.2c-3.11,2.53-7.94,3.84-11.69,5.18-3.29,1.17-6.48,2.27-9.71,3.62a182.2,182.2,0,0,0-18.72,9.37,235.48,235.48,0,0,1-25.75,12.83c-7.85,3.23-16.18,5.47-23.8,9.22-15.8,7.76-31.46,15.78-47.71,22.61-8.12,3.42-16.16,7.09-24.33,10.35-5.89,2.35-14,4.1-18.95,8.16-1,.82.43,2.23,1.41,1.41,3.06-2.52,8.08-3.71,11.7-5.14,3.24-1.28,6.55-2.46,9.73-3.89,8.62-3.89,17.45-7.33,26.14-11.11,15.63-6.81,30.49-15.3,46.1-22.07,8.09-3.51,16.65-5.84,24.7-9.5S875.94,479,883.89,475c6.62-3.29,13.23-6.68,20-9.55,6-2.52,13.46-3.7,18.56-7.85C923.46,456.8,922,455.39,921.05,456.2Z"/><path class="cls-2" d="M507.76,265.57a1,1,0,0,0,0,2A1,1,0,0,0,507.76,265.57Z"/><path class="cls-3" d="M1032.7,474.25a82,82,0,0,0,12.07-11.05,17.36,17.36,0,0,0-.92,2.33c-.52,1.8-.63,3.67-1.38,5.41s-2.34,5.8-4.12,6.45c-.66.24-2.24-.53-3.62-1.47a.94.94,0,0,0-.71-.87l-.58-.1A8.68,8.68,0,0,1,1032.7,474.25Z"/><path class="cls-3" d="M1020.47,491.68c-1.38,1-2.81,2-4.24,2.9,2.94-2.54,6.1-4.91,8.9-7.48,2.17-2,3.84-4.42,6-6.45a20.64,20.64,0,0,0,2.92-2.82,20.52,20.52,0,0,0,1.86.95,59,59,0,0,1-6.32,6.72C1026.72,487.87,1023.45,489.53,1020.47,491.68Z"/><path d="M1014.09,384.24a1,1,0,0,1,0,2A1,1,0,0,1,1014.09,384.24Z"/><path d="M1003.42,386.91a1,1,0,0,1,0,2h-.33a1,1,0,0,1,0-2Z"/><path class="cls-3" d="M997.73,403.56l-.51.18a.89.89,0,0,0-1.17.13l-.34.33a1,1,0,0,0-.12.19,6.71,6.71,0,0,1-1.89.47c2.6-3.21,5.62-8.5,1.87-11.2l-.16-.1c1.92-.5,3.84-1.13,5.74-1.54,2.52-.56,5.08-1.78,7.69-1.76a29.94,29.94,0,0,1,5.78,1c3.41,2.26.92,6.27-1.37,7.42a.94.94,0,0,0-.35.29l-1.56.54c-1.11.38-2.22.73-3.34,1.06a1,1,0,0,0-1.42-.55l-.66.33a.84.84,0,0,0-.49,1C1002.86,402.07,1000.27,402.77,997.73,403.56Z"/><path class="cls-3" d="M994.75,398.66a1,1,0,0,0,.44-.26c-.07,1.7-2.06,4.19-3.46,5.73a8,8,0,0,1-1.71-3.34c-.06-.24-.24-.57-.36-.89Z"/><path class="cls-3" d="M1007.73,338.4a67.59,67.59,0,0,0-13.9-1.26c.23-.86.47-1.71.68-2.56a15.13,15.13,0,0,1,.76-2.92c2.59.24,5.65-.05,7.65,1.56A37.75,37.75,0,0,1,1007.73,338.4Z"/><path class="cls-3" d="M993.77,396.84l-3.42.83c.37-.8.74-1.6,1.12-2.4Z"/><path d="M992.42,389.58a1,1,0,0,1,0,2h-.33a1,1,0,0,1,0-2Z"/><path class="cls-3" d="M962,329.82c10.43.63,20.87,2.22,31.26,2.09-.23.84-.45,1.85-.65,2.8a.93.93,0,0,0-.48-.13h-1.67a.93.93,0,0,0-.66.26,74.85,74.85,0,0,1-8.82-1.68c-4.23-.93-8.48-1.43-12.76-2.22C966.13,330.56,964.05,330.2,962,329.82Z"/><path class="cls-4" d="M948.17,430.08c8.42,19.67,13.58,41,30.33,55.17a89.7,89.7,0,0,1-17.66-3.44c-1.38-1-2.79-2.33-3.51-3a30.51,30.51,0,0,1-5.48-6.52,99.89,99.89,0,0,1-7.28-14,228.26,228.26,0,0,1-8.25-22.05c-1.4-4.63-2.85-9.22-4.26-13.84-.8-2.63-1.38-5.32-2-8l12.16-3A113.61,113.61,0,0,0,948.17,430.08Z"/><path d="M955.42,441.24c-.08-1.25,1.79-1.26,2-.09l.07,0a1,1,0,0,1-1.41,1.42A1.87,1.87,0,0,1,955.42,441.24Z"/><path class="cls-4" d="M953.24,477.49c.71.76,1.5,1.64,2.36,2.53a76.42,76.42,0,0,1-10.22-4.76,65.51,65.51,0,0,1-33.76-56.38l16.69-4c2.1,8.41,3.94,16.89,7,25.06a267,267,0,0,0,10.08,24.95C947.46,469.2,949.93,473.94,953.24,477.49Z"/><path d="M941.94,363.06a1,1,0,0,1-.79,1.81l-.27-.06a1,1,0,0,1-.69-.7,2.68,2.68,0,0,1-.07-.27A1,1,0,0,1,941.94,363.06Z"/><path d="M941.09,384.24a1,1,0,0,1,0,2h-.34a1,1,0,0,1,0-2Z"/><path class="cls-4" d="M939.48,397.1c.65,4.07,1.41,8.25,2.34,12.42l-12.13,2.95c-.42-1.9-.86-3.79-1.42-5.65a64.83,64.83,0,0,1-2.86-18.34c0-5.41,1.54-10.43,1.93-15.7a78.77,78.77,0,0,1,10.81-11.1c-.12,2.19-1.23,5.7-1.38,6.94a46.74,46.74,0,0,0-.21,8.93C937,384.1,938.44,390.63,939.48,397.1Z"/><path class="cls-5" d="M1003.42,388.91a1,1,0,0,0,0-2h-.33a1,1,0,0,0,0,2Zm10.67-4.67a1,1,0,0,0,0,2A1,1,0,0,0,1014.09,384.24Zm-73.9-20.13a1,1,0,0,0,.69.7l.27.06a1.06,1.06,0,1,0-1-1A2.68,2.68,0,0,0,940.19,364.11Zm.56,20.13a1,1,0,0,0,0,2h.34a1,1,0,0,0,0-2Zm77.34,12.67a1,1,0,0,0-.56.17,6.51,6.51,0,0,0-3.59-8.79c-2.92-1.27-7.38.22-10.24,1-3.71,1-7.82,2.47-11.61,3a1.06,1.06,0,0,0-.85.66c-2.5.64-4.58,2.91-4.16,5.57Q965.54,403.75,944,409c-1.15-5.14-2.09-10.32-2.92-15.51-1.13-7.06-2.9-14-2.61-21.25a63.49,63.49,0,0,1,1.25-9.51c.24-1.19.59-1.88.4-2.69,14.54-11.63,33.07-18.6,51.79-20.17a1,1,0,0,0,.46,0l.27-.05a1,1,0,0,0,.69-.68c29.88-.54,57.46,19.08,67.11,47.55,9.49,28-.33,59.34-21.27,79.49-12.37,11.91-27.11,18.13-44.2,19.28a103.3,103.3,0,0,1-12.93.07c-10.22-7.69-17.33-18.32-21.49-30.34-3.43-9.89-8.24-19.32-11.73-29.17a143.73,143.73,0,0,1-4.37-15.09q21.58-5.24,43.17-10.52c.74,2.38,1.51,4.3,2.84,5.38a1,1,0,0,0,1.69.83v0a7.53,7.53,0,0,0,3.73-.27c4-1.14,7.95-2.54,12-3.64,4.66-1.28,9.6-3.82,14.46-4.11a1,1,0,0,0,0-2h-.22a.92.92,0,0,0-.25,0,21.29,21.29,0,0,0-3.11.53A.93.93,0,0,0,1018.09,396.91Zm-26-5.33h.33a1,1,0,0,0,0-2h-.33A1,1,0,0,0,992.09,391.58Zm-34.7,49.57c-.18-1.17-2.05-1.16-2,.09a1.87,1.87,0,0,0,.63,1.38,1,1,0,0,0,1.41-1.42Z"/><path class="cls-4" d="M926.09,406.56c.62,2.11,1.18,4.23,1.72,6.37l-16.2,3.93a71.94,71.94,0,0,1,12.94-40.35,123.53,123.53,0,0,0-1.14,12.88A63,63,0,0,0,926.09,406.56Z"/><path d="M1044.77,463.2a82,82,0,0,1-12.07,11.05,8.68,8.68,0,0,0,.74.7l.58.1a.94.94,0,0,1,.71.87c1.38.94,3,1.71,3.62,1.47,1.78-.65,3.39-4.77,4.12-6.45s.86-3.61,1.38-5.41A17.36,17.36,0,0,1,1044.77,463.2Zm-37-124.8a37.75,37.75,0,0,0-4.81-5.18c-2-1.61-5.06-1.32-7.65-1.56a15.13,15.13,0,0,0-.76,2.92c-.21.85-.45,1.7-.68,2.56A67.59,67.59,0,0,1,1007.73,338.4ZM914.8,396.48a71.3,71.3,0,0,0-3.19,20.38l16.2-3.93c-.54-2.14-1.1-4.26-1.72-6.37a63,63,0,0,1-2.68-17.17,123.53,123.53,0,0,1,1.14-12.88A71.58,71.58,0,0,0,914.8,396.48Zm66.14-63.32a74.85,74.85,0,0,0,8.82,1.68.93.93,0,0,1,.66-.26h1.67a.93.93,0,0,1,.48.13c.2-1,.42-2,.65-2.8-10.39.13-20.83-1.46-31.26-2.09,2.09.38,4.17.74,6.22,1.12C972.46,331.73,976.71,332.23,980.94,333.16ZM944.57,458.3a99.89,99.89,0,0,0,7.28,14,30.51,30.51,0,0,0,5.48,6.52c.72.66,2.13,2,3.51,3a89.7,89.7,0,0,0,17.66,3.44c-16.75-14.18-21.91-35.5-30.33-55.17a113.61,113.61,0,0,1-5.9-18.63l-12.16,3c.57,2.69,1.15,5.38,2,8,1.41,4.62,2.86,9.21,4.26,13.84A228.26,228.26,0,0,0,944.57,458.3Zm-2.75-48.78c-.93-4.17-1.69-8.35-2.34-12.42-1-6.47-2.47-13-2.92-19.55a46.74,46.74,0,0,1,.21-8.93c.15-1.24,1.26-4.75,1.38-6.94a78.77,78.77,0,0,0-10.81,11.1c-.39,5.27-1.94,10.29-1.93,15.7a64.83,64.83,0,0,0,2.86,18.34c.56,1.86,1,3.75,1.42,5.65ZM1008,400.6c1.12-.33,2.23-.68,3.34-1.06l1.56-.54a.94.94,0,0,1,.35-.29c2.29-1.15,4.78-5.16,1.37-7.42a29.94,29.94,0,0,0-5.78-1c-2.61,0-5.17,1.2-7.69,1.76-1.9.41-3.82,1-5.74,1.54l.16.1c3.75,2.7.73,8-1.87,11.2a6.71,6.71,0,0,0,1.89-.47,1,1,0,0,1,.12-.19l.34-.33a.89.89,0,0,1,1.17-.13l.51-.18c2.54-.79,5.13-1.49,7.7-2.22a.84.84,0,0,1,.49-1l.66-.33A1,1,0,0,1,1008,400.6ZM944,409q21.55-5.25,43.1-10.53c-.42-2.66,1.66-4.93,4.16-5.57a1.06,1.06,0,0,1,.85-.66c3.79-.49,7.9-2,11.61-3,2.86-.77,7.32-2.26,10.24-1a6.51,6.51,0,0,1,3.59,8.79,1,1,0,0,1,.56-.17.93.93,0,0,1,.64.25,21.29,21.29,0,0,1,3.11-.53.92.92,0,0,1,.25,0h.22a1,1,0,0,1,0,2c-4.86.29-9.8,2.83-14.46,4.11-4,1.1-8,2.5-12,3.64a7.53,7.53,0,0,1-3.73.27v0a1,1,0,0,1-1.69-.83c-1.33-1.08-2.1-3-2.84-5.38q-21.57,5.28-43.17,10.52A143.73,143.73,0,0,0,948.8,426c3.49,9.85,8.3,19.28,11.73,29.17,4.16,12,11.27,22.65,21.49,30.34a103.3,103.3,0,0,0,12.93-.07c17.09-1.15,31.83-7.37,44.2-19.28,20.94-20.15,30.76-51.52,21.27-79.49-9.65-28.47-37.23-48.09-67.11-47.55a1,1,0,0,1-.69.68l-.27.05a1,1,0,0,1-.46,0c-18.72,1.57-37.25,8.54-51.79,20.17.19.81-.16,1.5-.4,2.69a63.49,63.49,0,0,0-1.25,9.51c-.29,7.21,1.48,14.19,2.61,21.25C941.89,398.68,942.83,403.86,944,409Zm72.25,85.58c1.43-.94,2.86-1.9,4.24-2.9,3-2.15,6.25-3.81,9.08-6.18a59,59,0,0,0,6.32-6.72,20.52,20.52,0,0,1-1.86-.95,20.64,20.64,0,0,1-2.92,2.82c-2.12,2-3.79,4.45-6,6.45C1022.33,489.67,1019.17,492,1016.23,494.58Zm-22.46-97.74-2.3-1.57c-.38.8-.75,1.6-1.12,2.4ZM935.26,439.9c-3-8.17-4.85-16.65-7-25.06l-16.69,4a65.51,65.51,0,0,0,33.76,56.38A76.42,76.42,0,0,0,955.6,480c-.86-.89-1.65-1.77-2.36-2.53-3.31-3.55-5.78-8.29-7.9-12.64A267,267,0,0,1,935.26,439.9Zm56.47-35.77c1.4-1.54,3.39-4,3.46-5.73a1,1,0,0,1-.44.26l-5.09,1.24c.12.32.3.65.36.89A8,8,0,0,0,991.73,404.13Zm-75.56-82c-8.92-1.84-18-2.8-27-4.14-32.28-4.8-64.87-8.21-97.28-12.06-7.19-.86-14.52-1.45-21.63-2.9-7.9-1.61-15.86-3.38-23.85-4.44-15.67-2.07-31.41-3.49-47.08-5.57-16-2.13-31.8-5.44-47.76-7.81s-32-4.58-47.94-6.78c-15.68-2.16-31.2-5.94-46.86-8.4-7.85-1.24-15.69-1.91-23.62-2.39-4.25-.26-8.56-1-12.83-.77-3.53.18-7,.67-10.55.7a1,1,0,0,1,0-2c4.45,0,8.89-.85,13.32-.69s9.12.7,13.67,1a198.39,198.39,0,0,1,23.19,2.7c17.64,3.16,35.27,6.64,53,9.16,15.9,2.25,31.87,4.28,47.69,7,16.71,2.91,33.42,5.93,50.3,7.65,15.25,1.55,30.84,2.71,45.84,6,15.5,3.4,31.33,5.26,47.09,7.1,32,3.75,63.86,8.21,95.8,12.12,7.69.94,15.15,2.33,22.78,3.7,7.87,1.41,15.82,2.37,23.45,4.82,2.11.67,4.29,1.24,6.49,1.76a.91.91,0,0,1,.71-.31c13.53-.18,27.16,2.57,40.66,2.33a.92.92,0,0,1,.25.05,1,1,0,0,1,1-.31c2.92.44,6.13-.24,8.67,1.56a14.71,14.71,0,0,1,2.79,3c1.15,1.42,2.54,2.57,3.68,4a1.07,1.07,0,0,1,.23.76c27.74,6.54,50.35,29.88,54.92,59,3.39,21.62-3.53,43.9-16.94,61a.91.91,0,0,1,0,.55c-.46,2.19-1.69,3.86-2.4,6-.51,1.53-.67,3.16-1.1,4.72a20.5,20.5,0,0,1-3.57,6.93c-1.26,1.63-2,2.52-3.43,2.34a.6.6,0,0,1-.09.15,61.83,61.83,0,0,1-13.61,11.95c-4.7,3-9.76,6.18-14.39,9.54-1.68,1.73-3.53,3.15-5.33,4.84-2.75,2.58-5.15,5.56-7.74,8.3-4.45,4.73-9.63,8.57-14.23,13.07-3.86,3.77-8.94,5.77-12.88,9.54-2,1.93-3.95,4-6,5.89s-4.19,3.28-5.69,5.58c-3.51,5.39-8.7,9.56-13,14.33-3.88,4.32-7.55,8.82-11.35,13.21-4.7,5.43-9.77,10.37-14.88,15.39-3.95,3.88-7.52,8.06-11.64,11.75-2.35,2.11-4.23,4.54-6.42,6.78s-4.92,4-7.23,6.17c-4.37,4.12-9,8.1-13.13,12.42-4.71,4.87-9.75,9.53-14,14.85a136.59,136.59,0,0,1-12,13.58c-9.62,9.38-18.93,19-28.5,28.48-8.94,8.83-17.74,17.66-26.48,26.68-4.25,4.37-8.17,9.19-12.65,13.3-1.5,1.37-2.29,3.3-3.69,4.76a5.88,5.88,0,0,1-3,1.8,1,1,0,0,1-1.45-1,6.33,6.33,0,0,1,.75-3.47,2.72,2.72,0,0,1,1.17,1.55c2-.83,3.46-3.7,4.86-5.23,1.7-1.86,3.48-3.64,5.21-5.47,4.78-5.07,9.94-9.78,14.68-14.87,9.61-10.32,19.83-20.07,29.65-30.23,8.77-9.07,18.59-17.22,26.64-27a261.2,261.2,0,0,1,25.26-26.6c17.38-15.86,34.64-32.39,49.9-50.39,4.23-5,8.54-9.85,13.15-14.49a52.79,52.79,0,0,0,6.38-7.34,15.13,15.13,0,0,1,2.67-3.16c4.39-3.88,8.4-8.63,13.12-12.11,1.88-1.39,4-2.35,6-3.62,2.29-1.49,3.43-3.49,5.28-5.3,2.12-2.07,5-3.51,7.21-5.47a85.79,85.79,0,0,0,6.15-6.21c2.3-2.49,4.5-5.15,7-7.44l1.11-1a.79.79,0,0,1,.32-.85c1.07-.85,2.19-1.66,3.32-2.45.25-.26.51-.52.75-.81,3.69-4.5,8.44-7.83,12.8-11.7A69.87,69.87,0,0,0,1028,481c1.06-1.18,3.17-2.6,4.22-4.11l-.48,0a.92.92,0,0,1-.87-1.35c-18.74,13.07-44.37,15.49-67,9.3a.92.92,0,0,1-1,.35,10.7,10.7,0,0,1-3.2-1.61,80.85,80.85,0,0,1-25.21-13.32c-16.05-12.78-24.29-31.55-24.76-50.92l-32.08,7.75L669.2,477.47,460.1,528c-1.25.3-1.78-1.63-.53-1.93l118.1-28.55L786.77,447q61.42-14.85,122.85-29.66a74.46,74.46,0,0,1,15.53-45.16,1,1,0,0,1,.76-1,80.31,80.31,0,0,1,11.86-12,1,1,0,0,1,.66-.56c14-11.27,31.6-18.22,49.5-20.42a1,1,0,0,1,.94-.92c1.06-.09,2.12-.15,3.17-.19,0-.18.09-.39.13-.61l-.08,0h-.48a.93.93,0,0,1-.74.33h-.45a1,1,0,0,1-.18,0,65,65,0,0,1-8.95-1.59c-4.53-.93-9.09-1.56-13.64-2.42a224.35,224.35,0,0,1-24.5-5.55C934.46,324.63,925.08,324,916.17,322.14Z"/><path class="cls-6" d="M957.46,441.2l-.07,0c-.18-1.17-2.05-1.16-2,.09a1.87,1.87,0,0,0,.63,1.38,1,1,0,0,0,1.41-1.42Z"/><path class="cls-6" d="M941.09,384.24h-.34a1,1,0,0,0,0,2h.34A1,1,0,0,0,941.09,384.24Z"/><path class="cls-6" d="M941.94,363.06a1,1,0,0,0-1.82.78,2.68,2.68,0,0,0,.07.27,1,1,0,0,0,.69.7l.27.06A1,1,0,0,0,941.94,363.06Z"/><path class="cls-6" d="M992.42,389.58h-.33a1,1,0,0,0,0,2h.33A1,1,0,0,0,992.42,389.58Z"/><path class="cls-6" d="M1003.42,386.91h-.33a1,1,0,0,0,0,2h.33A1,1,0,0,0,1003.42,386.91Z"/><path class="cls-6" d="M1014.09,384.24a1,1,0,0,0,0,2A1,1,0,0,0,1014.09,384.24Z"/><path class="cls-6" d="M1065.28,398c-4.57-29.13-27.18-52.47-54.92-59a1.07,1.07,0,0,0-.23-.76c-1.14-1.42-2.53-2.57-3.68-4a14.71,14.71,0,0,0-2.79-3c-2.54-1.8-5.75-1.12-8.67-1.56a1,1,0,0,0-1,.31.92.92,0,0,0-.25-.05c-13.5.24-27.13-2.51-40.66-2.33a.91.91,0,0,0-.71.31c-2.2-.52-4.38-1.09-6.49-1.76-7.63-2.45-15.58-3.41-23.45-4.82-7.63-1.37-15.09-2.76-22.78-3.7-31.94-3.91-63.83-8.37-95.8-12.12-15.76-1.84-31.59-3.7-47.09-7.1-15-3.28-30.59-4.44-45.84-6-16.88-1.72-33.59-4.74-50.3-7.65-15.82-2.76-31.79-4.79-47.69-7-17.74-2.52-35.37-6-53-9.16a198.39,198.39,0,0,0-23.19-2.7c-4.55-.26-9.11-.8-13.67-1s-8.87.66-13.32.69a1,1,0,0,0,0,2c3.56,0,7-.52,10.55-.7,4.27-.23,8.58.51,12.83.77,7.93.48,15.77,1.15,23.62,2.39,15.66,2.46,31.18,6.24,46.86,8.4,16,2.2,32,4.41,47.94,6.78s31.76,5.68,47.76,7.81c15.67,2.08,31.41,3.5,47.08,5.57,8,1.06,15.95,2.83,23.85,4.44,7.11,1.45,14.44,2,21.63,2.9,32.41,3.85,65,7.26,97.28,12.06,9,1.34,18.1,2.3,27,4.14s18.29,2.49,27,5.18a224.35,224.35,0,0,0,24.5,5.55c4.55.86,9.11,1.49,13.64,2.42a65,65,0,0,0,8.95,1.59,1,1,0,0,0,.18,0h.45a.93.93,0,0,0,.74-.33h.48l.08,0c0,.22-.09.43-.13.61-1.05,0-2.11.1-3.17.19a1,1,0,0,0-.94.92c-17.9,2.2-35.52,9.15-49.5,20.42a1,1,0,0,0-.66.56,80.31,80.31,0,0,0-11.86,12,1,1,0,0,0-.76,1,74.46,74.46,0,0,0-15.53,45.16Q848.21,432.2,786.77,447l-209.1,50.53-118.1,28.55c-1.25.3-.72,2.23.53,1.93l209.1-50.54,208.37-50.36,32.08-7.75c.47,19.37,8.71,38.14,24.76,50.92a80.85,80.85,0,0,0,25.21,13.32,10.7,10.7,0,0,0,3.2,1.61.92.92,0,0,0,1-.35c22.67,6.19,48.3,3.77,67-9.3a.92.92,0,0,0,.87,1.35l.48,0c-1,1.51-3.16,2.93-4.22,4.11a69.87,69.87,0,0,1-6.09,6.2c-4.36,3.87-9.11,7.2-12.8,11.7-.24.29-.5.55-.75.81-1.13.79-2.25,1.6-3.32,2.45a.79.79,0,0,0-.32.85l-1.11,1c-2.52,2.29-4.72,5-7,7.44a85.79,85.79,0,0,1-6.15,6.21c-2.25,2-5.09,3.4-7.21,5.47-1.85,1.81-3,3.81-5.28,5.3-1.95,1.27-4.08,2.23-6,3.62-4.72,3.48-8.73,8.23-13.12,12.11a15.13,15.13,0,0,0-2.67,3.16,52.79,52.79,0,0,1-6.38,7.34c-4.61,4.64-8.92,9.51-13.15,14.49-15.26,18-32.52,34.53-49.9,50.39a261.2,261.2,0,0,0-25.26,26.6c-8.05,9.75-17.87,17.9-26.64,27-9.82,10.16-20,19.91-29.65,30.23-4.74,5.09-9.9,9.8-14.68,14.87-1.73,1.83-3.51,3.61-5.21,5.47-1.4,1.53-2.9,4.4-4.86,5.23a2.72,2.72,0,0,0-1.17-1.55,6.33,6.33,0,0,0-.75,3.47,1,1,0,0,0,1.45,1,5.88,5.88,0,0,0,3-1.8c1.4-1.46,2.19-3.39,3.69-4.76,4.48-4.11,8.4-8.93,12.65-13.3,8.74-9,17.54-17.85,26.48-26.68,9.57-9.43,18.88-19.1,28.5-28.48a136.59,136.59,0,0,0,12-13.58c4.2-5.32,9.24-10,14-14.85,4.18-4.32,8.76-8.3,13.13-12.42,2.31-2.17,5-3.9,7.23-6.17s4.07-4.67,6.42-6.78c4.12-3.69,7.69-7.87,11.64-11.75,5.11-5,10.18-10,14.88-15.39,3.8-4.39,7.47-8.89,11.35-13.21,4.31-4.77,9.5-8.94,13-14.33,1.5-2.3,3.71-3.71,5.69-5.58s4-4,6-5.89c3.94-3.77,9-5.77,12.88-9.54,4.6-4.5,9.78-8.34,14.23-13.07,2.59-2.74,5-5.72,7.74-8.3,1.8-1.69,3.65-3.11,5.33-4.84,4.63-3.36,9.69-6.53,14.39-9.54a61.83,61.83,0,0,0,13.61-11.95.6.6,0,0,0,.09-.15c1.44.18,2.17-.71,3.43-2.34a20.5,20.5,0,0,0,3.57-6.93c.43-1.56.59-3.19,1.1-4.72.71-2.11,1.94-3.78,2.4-6a.91.91,0,0,0,0-.55C1061.75,441.87,1068.67,419.59,1065.28,398Z"/><path class="cls-6" d="M994.51,334.58a15.13,15.13,0,0,1,.76-2.92c2.59.24,5.65-.05,7.65,1.56a37.75,37.75,0,0,1,4.81,5.18,67.59,67.59,0,0,0-13.9-1.26C994.06,336.28,994.3,335.43,994.51,334.58Z"/><path class="cls-6" d="M992.09,334.58h-1.67a.93.93,0,0,0-.66.26,74.85,74.85,0,0,1-8.82-1.68c-4.23-.93-8.48-1.43-12.76-2.22-2-.38-4.13-.74-6.22-1.12,10.43.63,20.87,2.22,31.26,2.09-.23.84-.45,1.85-.65,2.8A.93.93,0,0,0,992.09,334.58Z"/><path class="cls-6" d="M927.34,372.78a78.77,78.77,0,0,1,10.81-11.1c-.12,2.19-1.23,5.7-1.38,6.94a46.74,46.74,0,0,0-.21,8.93c.45,6.55,1.88,13.08,2.92,19.55.65,4.07,1.41,8.25,2.34,12.42l-12.13,2.95c-.42-1.9-.86-3.79-1.42-5.65a64.83,64.83,0,0,1-2.86-18.34C925.4,383.07,927,378,927.34,372.78Z"/><path class="cls-6" d="M914.8,396.48a71.58,71.58,0,0,1,9.75-20,123.53,123.53,0,0,0-1.14,12.88,63,63,0,0,0,2.68,17.17c.62,2.11,1.18,4.23,1.72,6.37l-16.2,3.93A71.3,71.3,0,0,1,914.8,396.48Z"/><path class="cls-6" d="M945.38,475.26a65.51,65.51,0,0,1-33.76-56.38l16.69-4c2.1,8.41,3.94,16.89,7,25.06a267,267,0,0,0,10.08,24.95c2.12,4.35,4.59,9.09,7.9,12.64.71.76,1.5,1.64,2.36,2.53A76.42,76.42,0,0,1,945.38,475.26Z"/><path class="cls-6" d="M960.84,481.81c-1.38-1-2.79-2.33-3.51-3a30.51,30.51,0,0,1-5.48-6.52,99.89,99.89,0,0,1-7.28-14,228.26,228.26,0,0,1-8.25-22.05c-1.4-4.63-2.85-9.22-4.26-13.84-.8-2.63-1.38-5.32-2-8l12.16-3a113.61,113.61,0,0,0,5.9,18.63c8.42,19.67,13.58,41,30.33,55.17A89.7,89.7,0,0,1,960.84,481.81Z"/><path class="cls-6" d="M1029.55,485.5c-2.83,2.37-6.1,4-9.08,6.18-1.38,1-2.81,2-4.24,2.9,2.94-2.54,6.1-4.91,8.9-7.48,2.17-2,3.84-4.42,6-6.45a20.64,20.64,0,0,0,2.92-2.82,20.52,20.52,0,0,0,1.86.95A59,59,0,0,1,1029.55,485.5Z"/><path class="cls-6" d="M1043.85,465.53c-.52,1.8-.63,3.67-1.38,5.41s-2.34,5.8-4.12,6.45c-.66.24-2.24-.53-3.62-1.47a.94.94,0,0,0-.71-.87l-.58-.1a8.68,8.68,0,0,1-.74-.7,82,82,0,0,0,12.07-11.05A17.36,17.36,0,0,0,1043.85,465.53Z"/><path class="cls-6" d="M1039.15,466.18c-12.37,11.91-27.11,18.13-44.2,19.28a103.3,103.3,0,0,1-12.93.07c-10.22-7.69-17.33-18.32-21.49-30.34-3.43-9.89-8.24-19.32-11.73-29.17a143.73,143.73,0,0,1-4.37-15.09q21.58-5.24,43.17-10.52c.74,2.38,1.51,4.3,2.84,5.38a1,1,0,0,0,1.69.83v0a7.53,7.53,0,0,0,3.73-.27c4-1.14,7.95-2.54,12-3.64,4.66-1.28,9.6-3.82,14.46-4.11a1,1,0,0,0,0-2h-.22a.92.92,0,0,0-.25,0,21.29,21.29,0,0,0-3.11.53.93.93,0,0,0-.64-.25,1,1,0,0,0-.56.17,6.51,6.51,0,0,0-3.59-8.79c-2.92-1.27-7.38.22-10.24,1-3.71,1-7.82,2.47-11.61,3a1.06,1.06,0,0,0-.85.66c-2.5.64-4.58,2.91-4.16,5.57Q965.54,403.75,944,409c-1.15-5.14-2.09-10.32-2.92-15.51-1.13-7.06-2.9-14-2.61-21.25a63.49,63.49,0,0,1,1.25-9.51c.24-1.19.59-1.88.4-2.69,14.54-11.63,33.07-18.6,51.79-20.17a1,1,0,0,0,.46,0l.27-.05a1,1,0,0,0,.69-.68c29.88-.54,57.46,19.08,67.11,47.55C1069.91,414.66,1060.09,446,1039.15,466.18Z"/><path class="cls-6" d="M994.75,398.66a1,1,0,0,0,.44-.26c-.07,1.7-2.06,4.19-3.46,5.73a8,8,0,0,1-1.71-3.34c-.06-.24-.24-.57-.36-.89Z"/><path class="cls-6" d="M990.35,397.67c.37-.8.74-1.6,1.12-2.4l2.3,1.57Z"/><path class="cls-6" d="M995.57,393.66l-.16-.1c1.92-.5,3.84-1.13,5.74-1.54,2.52-.56,5.08-1.78,7.69-1.76a29.94,29.94,0,0,1,5.78,1c3.41,2.26.92,6.27-1.37,7.42a.94.94,0,0,0-.35.29l-1.56.54c-1.11.38-2.22.73-3.34,1.06a1,1,0,0,0-1.42-.55l-.66.33a.84.84,0,0,0-.49,1c-2.57.73-5.16,1.43-7.7,2.22l-.51.18a.89.89,0,0,0-1.17.13l-.34.33a1,1,0,0,0-.12.19,6.71,6.71,0,0,1-1.89.47C996.3,401.65,999.32,396.36,995.57,393.66Z"/><path class="cls-7" d="M781.37,727.46a.83.83,0,0,0,0-.27c.15-.75-.52-1.56-1.3-1.19a1.26,1.26,0,0,0-.34-.17c-.1-.76-1-1.37-1.65-.63-.86,1-1.54,2.25-2.5,3.22a1,1,0,0,0,.78,1.7l.09,0a14.68,14.68,0,0,0-1.38,3.74c-.3,1.25,1.62,1.78,1.93.53a11.29,11.29,0,0,1,1.65-4c.86-.59,1.71-1.21,2.52-1.84A.85.85,0,0,0,781.37,727.46Z"/></g></g></svg>