<svg id="thum-frames" xmlns="http://www.w3.org/2000/svg" viewBox="0 0 510 576"><defs><style>.cls-1,.cls-12,.cls-19,.cls-8{fill:none;}.cls-2{fill:#fcf376;}.cls-10,.cls-12,.cls-13,.cls-14,.cls-16,.cls-17,.cls-18,.cls-19,.cls-2,.cls-3,.cls-5,.cls-6,.cls-7,.cls-8,.cls-9{stroke:#000;stroke-width:2px;}.cls-10,.cls-12,.cls-13,.cls-14,.cls-16,.cls-17,.cls-18,.cls-2,.cls-5,.cls-6,.cls-7,.cls-8,.cls-9{stroke-linecap:round;}.cls-10,.cls-14,.cls-16,.cls-17,.cls-18,.cls-19,.cls-2,.cls-3,.cls-8{stroke-miterlimit:10;}.cls-3,.cls-4{fill:#ccc;}.cls-11,.cls-16,.cls-5{fill:#855b33;}.cls-12,.cls-13,.cls-5,.cls-6,.cls-7,.cls-9{stroke-linejoin:round;}.cls-14,.cls-6{fill:#333;}.cls-7{fill:#f2f2f2;}.cls-9{fill:#b3d9f5;}.cls-10{fill:#603813;}.cls-13,.cls-15{fill:#fff;}.cls-17{fill:#c7b299;}.cls-18{fill:#00a99d;}</style></defs><title>principles</title><rect class="cls-1" y="-0.97" width="510" height="576.03"/><path class="cls-2" d="M284.5,26.54c5.07-7.49,9.67-20.44,24.88-22.31s27.75,8,34.25,14.3v3.84L284.5,31.16V26.54Z"/><path class="cls-2" d="M288.45,56.44s-31.9-.31-34.5-10c-3-11.37,39-23.94,60.2-26,19.91-2,57.12-4.19,61.88,4.2,5.16,9.1-14.17,20.28-23.78,23.12Z"/><path class="cls-3" d="M286.83,45.4s-2.45,7.77-1.28,15.19,6.12,7.79,6.12,7.79"/><path class="cls-4" d="M333.46,31.16s12-.48,16.2,6.32a19.28,19.28,0,0,1,2.59,10.19l-7.58,2.93-1.67.22Z"/><path class="cls-5" d="M351.66,74.62c-3.8,7.91-7.76,16-14.3,21.89s-16.38,8.92-24.29,5.1c-4.57-2.21-7.89-6.35-10.68-10.59C294,78.34,288,60.54,286.83,45.4a8.6,8.6,0,0,1,1.66-4.47c2-4,6.82-7,11-8.84a41.26,41.26,0,0,1,13.2-2.89c6.94-.57,14.26-0.2,20.8,2,3.85,5.34,6,12,8.45,18.12A2.84,2.84,0,0,0,343,50.83c1,0.53,2.25-.37,2.51-1.46a5.57,5.57,0,0,0-.55-3.25l0.57-.28a13.92,13.92,0,0,1,4.61-.2,5.79,5.79,0,0,1,1.64.56,4.12,4.12,0,0,1,2,2c1.27,3.11-2.22,6.27-2,9.62,0.14,2.67,2.6,4.95,2.27,7.6a4,4,0,0,1-5.41,2.92Z"/><path class="cls-6" d="M270.27,556.75a41.09,41.09,0,0,0,0,6c0.28,1.34,3.71,7.34,13.76,6.56s19.77-6.42,25.3-9.58,22.21-11.41,26.49-14.23,12.72-8.5,13.93-10.57-0.21-8.79-.21-8.79Z"/><path class="cls-7" d="M279.07,540.15s-4.27,2.92-5.48,4.79-6.8,11.51,0,17.68,18.34,0.9,19.42.43,11.65-5.19,13.4-6.12c3.45-1.84,34.18-18.56,34.18-18.56,4.17-2.66,10.39-7.57,9-12.22s-4.91-4.49-4.91-4.49Z"/><path class="cls-5" d="M342.38,526.11c-1.08,6.31-7,10.61-13,13s-12.41,3.74-17.61,7.49c-3.27,2.36-5.85,5.57-9.13,7.92-3.83,2.73-8.54,3.77-13,5.29-13.24,4.5-13.31-3.71-13-4.67a3.68,3.68,0,0,1,1.45-2l-1.23.33c-1.14-.12-1.61-1.69-1.08-2.7a3.66,3.66,0,0,1,1.39-1.39,2.5,2.5,0,0,1-1.66-1.87,3.63,3.63,0,0,1,1.38-2.3l0-.36a2,2,0,0,1,.07-2.66,5.92,5.92,0,0,1,2.46-1.53l0.18-.26a3.16,3.16,0,0,1,.83-3.53,9.42,9.42,0,0,1,3.37-1.86c3.94-1.51,20.22-10.46,23.7-13.57,4.48-4,8.49-13,7.83-19l25.18-.3C336.74,509.37,343.76,518.05,342.38,526.11Z"/><path class="cls-8" d="M333.08,518s1.69,4.13,0,7"/><path class="cls-8" d="M340.55,502.13c-3.81,7.24,3.21,15.91,1.83,24-1.08,6.31-7,10.61-12.95,13s-12.42,3.74-17.61,7.49c-3.27,2.36-5.85,5.58-9.13,7.92-3.83,2.73-8.53,3.77-13,5.28-13.24,4.5-13.31-3.71-13-4.67,0.84-2.64,3.56-2.94,5.88-3.14a15.42,15.42,0,0,0,6.58-1.77"/><path class="cls-8" d="M315.37,502.44c0.66,6-3.35,15-7.84,19-3.47,3.12-19.75,12.07-23.69,13.58a9.34,9.34,0,0,0-3.37,1.86,3.18,3.18,0,0,0-.84,3.53"/><path class="cls-8" d="M285.62,538.19l-6.16,2.51a5.9,5.9,0,0,0-2.46,1.52,2,2,0,0,0-.06,2.66"/><path class="cls-8" d="M284.68,543c-1.72.72-6.15,1.15-7.6,2.33a3.59,3.59,0,0,0-1.51,2.18,1.41,1.41,0,0,0,1.61,1.61"/><path class="cls-8" d="M286.46,546.59c-2.65,1.25-5.3.91-8,2.16a5.34,5.34,0,0,0-2.67,2.06c-0.53,1-.06,2.59,1.08,2.7"/><path class="cls-7" d="M287.48,533.15c16.41,1.32,15.2,22,15.2,22l6.39-2.78s1.34-20.6-13.8-23.14Z"/><path class="cls-7" d="M325.7,543l7.05-3.71s-3.24-24.85-25.22-17.85L302.59,525S324.36,521.8,325.7,543Z"/><path class="cls-6" d="M305.43,555a18.24,18.24,0,0,0-1.09,6.18c0.06,3.26,6.21,9.81,16.75,10.67s23.73-1.9,31.18-6.72,20.72-16.39,22.44-17.67,10-7.94,10.17-9.26L384,530.65Z"/><path class="cls-7" d="M309.82,550s-4.39,2.56-4.39,4.94,1.06,9.61,12,12.2c16,3.79,33.42-5.75,34.83-6.93s21.06-15.69,23-17.22,10.51-8.28,8.79-12.4-4.89-3.81-4.89-3.81Z"/><path class="cls-5" d="M379.13,527.6c-0.13,5.14-3.66,9.61-7.72,12.76s-8.79,5.37-12.85,8.53c-2.72,2.12-5.1,4.64-7.89,6.67-5.55,4-12.32,5.93-18.93,7.74-3.1.84-9,2.15-9.34-.14a1.19,1.19,0,0,1-.08-0.4l-0.3.17c-3.14.42-4.37-.61-4.57-2a1.92,1.92,0,0,1,0-.78,2.3,2.3,0,0,1-2.87-2.7,2.26,2.26,0,0,1,.3-0.81l-0.07-.09c-2.88.78-3.43-1.17-3.59-1.58-0.5-1.18.58-2.91,1.58-3.41l0.9-.45c-2.61,1.3-4.46-1.07-4.62-2.9s1.27-3.46,2.91-4.29a27,27,0,0,1,5.27-1.51c3.67-1,7-3,10.19-5,10.87-6.92,21.08-16.38,24.52-28.8,0.85-3.06-.87-16.51,0-18.43l23.21-1a45.58,45.58,0,0,0,.92,27.33C377.47,520.18,379.23,523.77,379.13,527.6Z"/><path class="cls-8" d="M369.41,514.26a8.33,8.33,0,0,1,1.23,6"/><path class="cls-8" d="M313.77,551.12c-2.62,1.3-4.47-1.07-4.62-2.9s1.26-3.47,2.9-4.29a26.44,26.44,0,0,1,5.27-1.5c3.67-1,7-3,10.18-5,10.87-6.91,21.09-16.38,24.53-28.79,0.85-3.06-.88-16.51,0-18.43"/><path class="cls-8" d="M321.09,548.36a44.86,44.86,0,0,0-8.23,3.21c-1,.51-2.08,2.23-1.59,3.42,0.17,0.4.72,2.35,3.6,1.58"/><path class="cls-8" d="M323.5,552.34c-1.84.67-4.27,1.68-6.08,2.41-1.31.53-2.55,1.37-2.79,2.71a2.3,2.3,0,0,0,2.88,2.7"/><path class="cls-8" d="M326.6,555c-2.35,1.16-5,2.16-7.34,3.31a2.76,2.76,0,0,0-1.8,2.64c0.2,1.36,1.43,2.4,4.56,2"/><path class="cls-8" d="M330.1,558.24c-3.47.9-8.51,2.52-7.7,4.91,0.36,2.29,6.24,1,9.34.14,6.61-1.81,13.38-3.7,18.92-7.74,2.78-2,5.17-4.55,7.89-6.66,4.05-3.16,8.77-5.38,12.84-8.53s7.59-7.62,7.73-12.76c0.1-3.83-1.66-7.42-2.94-11a45.59,45.59,0,0,1-.93-27.33"/><path class="cls-7" d="M317.72,541.48s24-1.88,25,18V562l8-4.87s1-12-9.32-17.18-16.62-3.21-16.62-3.21Z"/><path class="cls-7" d="M342.53,524.72s22.92-2.67,23.87,17.24v3.54l7.28-5.41s0.94-14.65-9.4-19.82-15.94-3-15.94-3Z"/><path class="cls-9" d="M346.13,504.75c-3.15,3.3-5.73,4.91-13.86,5.49-7,.5-14.19-0.31-20.34-3.67-2-1.09-4.15-3.05-3.5-5.23l0.16-1.45a6.8,6.8,0,0,1-.31-3.07,2.33,2.33,0,0,1,2.09-2,77.56,77.56,0,0,1-1.55-15.47,42.53,42.53,0,0,0-1.29-14.74c-0.69-2.76-1.62-5.45-2.3-8.2-1.42-5.73-2.17-15.54-1.36-21.4h0c-3.62-12.2-3.32-25.59-4.56-38.43-1.28-13.13-4.64-23.38-5.71-36.52a68.65,68.65,0,0,0-4.3-19.57c-1.75-4.51-.44-10.77-2.21-15.27-2.16-5.48-1-12.53-1.35-18.41-0.78-12.48,1.28-28.66,0-41.1-0.61-6-.18-27.82-0.18-27.82s18.22,2.61,20.86,3.05c0,0,23.3,4.48,38.65,0s33.16-9.26,33.16-9.26h5.1l0.17,20.62c8.28,51.66-2.07,104.52,1.4,156.72,1,14.73,3,29.89-1.39,44-0.82,2.61-1.86,5.29-1.49,8a39.66,39.66,0,0,0,1.27,4.5c1.88,7.23-2.57,14.8-1.43,22.18,0.37,2.43,1.35,4.8,1.24,7.26s-0.1,8.41-2.56,8.25l-0.76.29c-2.81,2.92-9.4,1.87-13.43,2.3s-8.21.56-12.15,1A15.89,15.89,0,0,1,346.13,504.75Z"/><path class="cls-10" d="M312,253.51s15.68,1.61,24.12.93,11.25-2.12,11.25-2.12l-0.86-11.73a56.6,56.6,0,0,1-16.31,2.24c-9.6,0-17.77-.9-17.77-0.9Z"/><path class="cls-5" d="M158.86,72.76l9.41,12.78s-3.37,9.86-17.42,11.69l-5.17-8.7"/><path class="cls-11" d="M158.63,76.7l-6.58,11c-5.55,2.33-13.68-.56-17.5-2.58-6.9-3.68-9.76-6.67-16.57-10.54-5.66-3.22-11-7.79-16.55-11.12A2.46,2.46,0,0,1,100.2,60a2.1,2.1,0,0,1,.7-0.82c-2.65-1.72-7.15-3.76-7.54-5A3,3,0,0,1,95.27,51c-1.49-1.73-1.39-4.64.05-5.06,0.69-.41,2-0.31,3.65.12l0.45-.47c0.28-1.61,1.24-2.6,3.9-2.34s5.68,2,7.8,3.05c10.58,5.35,19.11,11.25,30.42,14.77-1-3.35-3.7-7.28-3.71-10.78,0-2.26-.36-8.07,3.71-8.07,1.72,0,2.24,1.31,2.67,2.17a11,11,0,0,1,.7,2.78c1,5.48,5.08,9.8,8.5,14.21S159.93,71.27,158.63,76.7Z"/><path class="cls-8" d="M152.05,87.67c-5.56,2.33-13.68-.55-17.5-2.58-6.9-3.68-9.76-6.67-16.57-10.53-5.66-3.22-11-7.78-16.55-11.13A2.46,2.46,0,0,1,100.2,60a2.24,2.24,0,0,1,2-1.24,12.17,12.17,0,0,1,3,1.3c4,2.12,7.39,4.24,11.36,6.36"/><path class="cls-8" d="M100.9,59.2c-2.64-1.72-7.15-3.76-7.54-5s1-3.62,3-3.26c1.63,0.3,5.34,2.32,6.79,3.13,5.46,3,10.47,5.4,16.55,8.81"/><path class="cls-8" d="M94.79,50.38c-1.49-1.73-.9-4,0.53-4.43,2.12-1.26,10.14,2.29,14.54,5.1a105.54,105.54,0,0,0,13.56,7.72"/><path class="cls-12" d="M99.42,45.62c0.29-1.62,1.25-2.6,3.9-2.34s5.69,2,7.8,3.05c10.57,5.34,19.11,11.25,30.42,14.77-1-3.35-3.7-7.28-3.71-10.78,0-2.26-.36-8.08,3.71-8.08,1.72,0,2.25,1.31,2.68,2.17a10.72,10.72,0,0,1,.7,2.78c1,5.48,5.08,9.8,8.5,14.21s6.52,9.87,5.21,15.29"/><path class="cls-12" d="M128.59,72.42c0-2.6,3.43-7.69,5.88-9.54,0.84,6.05,5.53,11.43,10.34,12.79"/><path class="cls-12" d="M141.54,61.1a16.89,16.89,0,0,1,2.56,1.24"/><path class="cls-13" d="M149.39,97.5c3.08,4.86,6.23,7.24,8.81,12.38,3.76,9,10.73,16.42,17.22,23.71,1.48,6.5,5,12.39,9.29,17.5s9.36,9.49,14.4,13.85c2.37,2,4.84,4.15,7.85,5l-0.21,0c7.82,2.66,16.6.12,23.55-4.34,2.79-1.79,5.41-3.89,8.45-5.2a68.27,68.27,0,0,1,6.8-2.14c4.67-1.45,22.69-7.73,27-10l4.71-21.19-7.52-27.94-5.61-1.82c-2.64,1.86-13,9.67-20.16,14.47a64.5,64.5,0,0,0-13,10.8c-4.08,4.15-12.6,7.89-12.6,7.89-5.19-6.67-8.29-7.09-15.89-10.78-5-8.51-14.46-12.06-20.41-19.94-1.57-2.08-3.48-6-6.07-6.17A25.72,25.72,0,0,0,168,82.91c-1.09,4-2.36,6.07-5.79,8.47a48.19,48.19,0,0,1-11.31,5.37Z"/><path class="cls-14" d="M386.68,186.26c0.16,18.86,3.64,48.47,2,68.14-2.65,5.09-8.21,7.86-13.42,10.28-8.42,3.92-17,7.85-26.21,9.07-3.87-46.36-7.18-103.81-9.37-150.28a14.34,14.34,0,0,1,.43-5.36,16.11,16.11,0,0,1,3.31-4.9,66.75,66.75,0,0,0,15.06-33.47h0c10.06,3.92,20.09,5.12,30.15,9,3.83,1.49,5.7,2.1,9.11,4.39a38.54,38.54,0,0,0-3.2,15.78S386.64,181.09,386.68,186.26Z"/><path class="cls-15" d="M416.55,121.18c-1.31,18.41-3.34,37.41-12.47,53.44a26.94,26.94,0,0,1-6.84,8.43c-2.91,2.19-6.72,3.41-10.26,2.52l-0.28-.07h0c-3.07-.85-5.53-3.11-7.85-5.3-3.2-3-6.47-6.14-8.25-10.16-4.22-9.57.77-25.84-1.29-36.09a142.07,142.07,0,0,1-2.72-31.66L388.24,96c1,2.95,3.12,9,4.08,12,0.56,1.71,1.12,3.41,1.78,5.08,0.28-2.57.44-4.06,0.44-4.06a38.49,38.49,0,0,1,3.2-15.78c7.37,2,9.1,7.34,14.74,14.27a19.25,19.25,0,0,1,3.67,6.21A20.61,20.61,0,0,1,416.55,121.18Z"/><path class="cls-8" d="M367.25,101.12a11.56,11.56,0,0,0,21.07-1.39"/><path class="cls-8" d="M388.23,96c1,2.95,3.12,9.05,4.09,12a52.74,52.74,0,0,0,3.47,8.78c1.17,2.17,2.66,4.19,3.43,6.53,0.84,2.55.77,5.28,1,8a31.93,31.93,0,0,0,3.38,11.48"/><path class="cls-8" d="M401.85,140.89c2.33,1.2,3.46,3.89,4,6.45a26.91,26.91,0,0,1,.35,9.75"/><path class="cls-8" d="M403,139.49a3.64,3.64,0,0,1,5.15-.86"/><path class="cls-8" d="M306.25,53.71a4.5,4.5,0,0,0-9,.62"/><path class="cls-8" d="M315.47,50a5.5,5.5,0,0,1,4.67-4.49,8,8,0,0,1,6.37,2.18"/><path class="cls-8" d="M298.56,62.59a3.31,3.31,0,0,0,4.68,1.69"/><path class="cls-8" d="M318,57.71a6,6,0,0,0,5.77,2"/><path class="cls-8" d="M310.4,60.58c-0.27,4.86-3.81,8.8-6.28,13C303.49,74.63,303,76.18,304,77s2,0.16,2.94-.37a63.24,63.24,0,0,0,7.84-5.38"/><path class="cls-8" d="M218.35,130.45c4.51,3.71,6.26,10.35,5.92,13.32"/><path class="cls-8" d="M221.28,130.35a12.47,12.47,0,0,1,9.67,2.92"/><path class="cls-14" d="M311.93,119.75l-6.28-13.2c-4-8.35-8-16.84-9.53-26l-3.38.28c-4.53,0-8.65,2.48-12.44,5-4.34,2.83-11.88,8.54-16.16,11.48,9,15,9.4,33.5,8.42,51,1.13,13.15,2.08,15.6,4.14,27.15,0.44,2.48,1.3,14.63.76,17.1-1.64,25.05-.16,44.27.1,70.24,0,2.5,12.15,8.35,12.15,8.35,7.95,4.6,21.31,9.61,22.72,3.24V125.57Z"/><path class="cls-8" d="M351.66,74.62l6.83,5.13c-5.8,14.35-12,22.61-20.72,29.11a19.39,19.39,0,0,1-5,3"/><path class="cls-8" d="M300.57,199.22h4.6"/><path class="cls-8" d="M300.15,220.9l3.34,0.43"/><path class="cls-8" d="M301,244.76h3.34"/><path class="cls-8" d="M309.33,496.51c1.32-.79,3-0.46,4.51-0.18,8.19,1.51,22.67,1.61,30.4-1.47"/><path class="cls-8" d="M345.91,493c11.3,0.63,26.13,2.2,36.75-1.71"/><path class="cls-8" d="M330.66,295.84c-0.76,5.87,1.51,17.59,1.51,17.59-1,11.88,3.84,23.36,6.32,35,2,9.23,2.44,18.7,2.92,28.13,0.66,13-.81,22-0.15,34.94,1.45,19.52,4.15,37.39,3.3,56.94-0.3,6.85-.31,18.26,1.36,24.59,0.19,0.72-1.33.44-1.47,1.12a20.78,20.78,0,0,0-.12,2.89c-0.28,4.11.69,4.42,1.8,7.69"/><path class="cls-8" d="M378.63,407.27a40,40,0,0,0-15.74-6.8c-0.65-.12-1.52-0.11-1.71.52a1.38,1.38,0,0,0,.58,1.26,30,30,0,0,0,14.46,7.81"/><path class="cls-8" d="M352.48,420.62a33.89,33.89,0,0,0,19,16.59"/><path class="cls-8" d="M339.81,441.68a46,46,0,0,1-14.11,25"/><path class="cls-8" d="M344.24,468.76c-2.34,4.92-4.81,10-9.09,13.39-1.68,1.32-3.68,2.45-4.58,4.39a1.2,1.2,0,0,0-.14.83,1.27,1.27,0,0,0,1.32.64,7.31,7.31,0,0,0,5.73-2.9"/><path class="cls-8" d="M304.34,434.81c5.73,12.5,12.75,15.14,16.49,18.33"/><path class="cls-8" d="M338,360.11a31.25,31.25,0,0,1-6.72,15.27"/><path class="cls-8" d="M362.69,270A22.25,22.25,0,0,0,379,275.66"/><path class="cls-8" d="M377.87,119.2a31.24,31.24,0,0,0,9.4,1.89c3.21,0,6.57-1.19,8.48-3.78"/><path class="cls-8" d="M369.61,135.24c2,4.15,2.45,10.38,7,11"/><path class="cls-8" d="M400.78,136.39A12.92,12.92,0,0,1,394.6,149"/><path class="cls-8" d="M160.56,111.66a24.42,24.42,0,0,0,10.05-1.16"/><path class="cls-8" d="M327,102.87a19.44,19.44,0,0,1,5.22,7.69"/><path class="cls-12" d="M306.92,109.22a26.73,26.73,0,0,0,10,6.69l0.12-1.26c0.56-3.25,2.47-9.62,5.23-11.42"/><path class="cls-8" d="M323.35,127.1c-1.73,8.94,1.05,18.07,1.62,27.16,0.48,7.64-.62,15.28-2,22.81"/><path class="cls-8" d="M328.42,125.24c-0.58,5.52,2.35,10.74,3.47,16.17a50.13,50.13,0,0,1,.76,8.33,102.81,102.81,0,0,1-.13,13.94,57.06,57.06,0,0,0-.66,8.48"/><path class="cls-8" d="M366.6,102.27a141.86,141.86,0,0,0,2.72,31.66c2.06,10.26-2.92,26.52,1.29,36.09,1.77,4,5.05,7.15,8.25,10.16,2.39,2.26,4.94,4.6,8.13,5.39,3.53,0.88,7.35-.34,10.26-2.53a27,27,0,0,0,6.83-8.43c9.14-16,11.16-35,12.47-53.44a20.52,20.52,0,0,0-.4-7.52,19.07,19.07,0,0,0-3.67-6.21c-5.63-6.94-7.36-12.31-14.73-14.28"/><path class="cls-8" d="M397.74,93.18a38.54,38.54,0,0,0-3.2,15.78"/><path class="cls-8" d="M308.6,499.89s1,3,6,4.3"/><path class="cls-8" d="M382.14,457.93c-1.83,4.75-6.74,10.57-8.16,12"/><path class="cls-8" d="M294.91,273.76s-2.36,8.93-8.76,5.14"/><path class="cls-8" d="M327.42,255a57,57,0,0,1,.36,9.13c-0.35,4.88-.15,15.16-0.15,15.16"/><circle cx="333.59" cy="261.05" r="1.94"/><circle cx="333.95" cy="271.72" r="1.94"/><path class="cls-8" d="M325.35,242.95s-4.37.74-4.37,6,5.66,5.69,9.22,5.69"/><polyline class="cls-12" points="336.11 242.82 336.11 255.38 340.77 254.73 340.77 242"/><path class="cls-16" d="M369.54,104.09c-0.4-5.57-4.73-12.92-4.55-18.93s-2.18-15.11-4.19-18-3.91-7.55-1.82-9.65,7.1,2.91,9.1,7.83c1.25,3.07,2.29,5.34,3.66,6.68l0.15,0.14s4.12-1,6.57-1.73c3.31-1,5.84-4.44,5.84-4.44l3.92-4.78c2-8.64,2.61-21.68,5.75-21.68,1.68,0,2,1.64,1.76,5.82s1.88,22.23-.7,27.36c-0.27.54-1.43,1.47-1.74,2.07a73.87,73.87,0,0,0-4.39,11.4c-1.06,2.85-.62,9.1-0.7,14.84C388.19,103,379.51,111.16,369.54,104.09Z"/><path class="cls-5" d="M384.94,68.3s-0.19-9.38.1-15c0.31-6-.17-12.33,2.52-13,1.61-.39,3.14.14,3.15,3.76,0,2.1.72,10.35,1.22,17.65,0.36,5.25.75,10,1,11.67,0.59,3.87-1.37,5.73-1.37,5.73"/><path class="cls-5" d="M383.58,71.47l0.31-.81s-0.4-6.59-.92-7.93c-1.08-2.78-6.06-13.62-3.44-14.91,3-1.49,8.47,11.33,9.08,13.23,0,0,2.56,17.14,1.77,19"/><path class="cls-5" d="M375.42,93.53s-0.3-10.08,3.9-14.67c2.88-3.15-7.29-22-2.59-22.43,1.69-.15,5.43,9,6.72,13.29a67.21,67.21,0,0,0,3,8,5.72,5.72,0,0,1,0,4.73"/><path class="cls-17" d="M371.75,72a4.61,4.61,0,0,0,2.94,1.37"/><path class="cls-17" d="M376.64,76.79a7,7,0,0,1,.85,4.93"/><path class="cls-18" d="M326.57,106.78a10,10,0,0,0-5,1,7.37,7.37,0,0,0-3.93,5.68,15.12,15.12,0,0,0,.93,7.07c0.77,2.27,2,4.63,4.14,5.64,2.36,1.09,5.3.19,7.14-1.65a12.73,12.73,0,0,0,3.18-7,10.3,10.3,0,0,0-.71-6.76,9.21,9.21,0,0,0-5.7-4"/><ellipse cx="320.9" cy="55.81" rx="1.4" ry="2.33"/><ellipse cx="301.27" cy="59.76" rx="1.4" ry="2.33"/><path class="cls-12" d="M337.36,96.51c7-7.89,7.31-21.52,7.31-21.52"/><path class="cls-8" d="M333.46,31.16s12-.48,16.2,6.32a19.24,19.24,0,0,1,2.59,9"/><circle cx="353.03" cy="199.17" r="2.84"/><circle cx="354.06" cy="222.7" r="2.84"/><circle cx="355.1" cy="246.22" r="2.84"/><circle cx="162.27" cy="105.01" r="1.71"/><path class="cls-8" d="M175.42,133.59c7,5.1,13.18,8.19,17.84,9.1"/><path class="cls-19" d="M388.5,222.7s-2.25,4.48-15.28,9"/><path d="M333.27,84.74a24.48,24.48,0,0,0-6.74,0h-0.06c-6.17.71-12.23,2.84-18.42,1.19a1.16,1.16,0,0,0-.61,2.23,19.26,19.26,0,0,0,5,.62c1,3.36,5.35,6.59,8.91,5.54a1.16,1.16,0,0,0-.61-2.23c-1.88.55-4.24-.94-5.43-2.67,2.18,0.87,4.42,1.92,6.77,1.21,2.14-.64,3.29-2.65,5.14-3.74l0.05,0a22.63,22.63,0,0,1,5.41.16C334.12,87.21,334.74,85,333.27,84.74ZM322.18,88a4.58,4.58,0,0,1-3.76.15c1.57-.26,3.14-0.57,4.71-0.83A6.52,6.52,0,0,1,322.18,88Z"/></svg>