<svg xmlns="http://www.w3.org/2000/svg" xmlns:xlink="http://www.w3.org/1999/xlink" viewBox="0 0 1525 920"><defs><style>.cls-1,.cls-11,.cls-21,.cls-24,.cls-31,.cls-4{fill:none;}.cls-2,.cls-20,.cls-29,.cls-33,.cls-35,.cls-37{fill:#fff;}.cls-10,.cls-11,.cls-13,.cls-14,.cls-16,.cls-17,.cls-19,.cls-21,.cls-22,.cls-23,.cls-24,.cls-25,.cls-26,.cls-27,.cls-28,.cls-29,.cls-3,.cls-30,.cls-31,.cls-32,.cls-33,.cls-34,.cls-35,.cls-4,.cls-5,.cls-6,.cls-7,.cls-8,.cls-9{stroke:#000;}.cls-11,.cls-13,.cls-14,.cls-17,.cls-19,.cls-23,.cls-24,.cls-3,.cls-33,.cls-34,.cls-9{stroke-linecap:round;}.cls-10,.cls-17,.cls-21,.cls-23,.cls-24,.cls-3,.cls-35{stroke-linejoin:round;}.cls-10,.cls-11,.cls-13,.cls-14,.cls-16,.cls-17,.cls-19,.cls-21,.cls-22,.cls-23,.cls-24,.cls-25,.cls-26,.cls-27,.cls-28,.cls-29,.cls-3,.cls-30,.cls-32,.cls-33,.cls-34,.cls-35,.cls-4,.cls-5,.cls-6,.cls-7,.cls-8,.cls-9{stroke-width:2px;}.cls-11,.cls-13,.cls-14,.cls-16,.cls-19,.cls-22,.cls-25,.cls-26,.cls-27,.cls-28,.cls-29,.cls-30,.cls-31,.cls-32,.cls-33,.cls-34,.cls-4,.cls-5,.cls-6,.cls-7,.cls-8,.cls-9{stroke-miterlimit:10;}.cls-5{fill:#e6e6e6;}.cls-34,.cls-6{fill:#f15a24;}.cls-7{fill:#003c63;}.cls-10,.cls-12,.cls-8{fill:#e1ee21;}.cls-15,.cls-9{fill:#d9ab77;}.cls-13,.cls-32{fill:#c69c6d;}.cls-14{fill:#753724;}.cls-16,.cls-18,.cls-19{fill:#0071bc;}.cls-17{fill:#42210b;}.cls-20{opacity:0.3;}.cls-22{fill:#999;}.cls-23{fill:#f7931e;}.cls-25{fill:#ccc;}.cls-26{fill:#666;}.cls-28{fill:#b3b3b3;}.cls-30{fill:#22b573;}.cls-31{stroke-width:4px;}.cls-36{font-size:16.85px;font-family:ArialNarrow, Arial Narrow;}.cls-37{opacity:0.4;}.cls-38{clip-path:url(#clip-path);}.cls-39{letter-spacing:-0.01em;}</style><clipPath id="clip-path"><rect class="cls-1" x="469.92" y="393.61" width="101.56" height="147.86"/></clipPath></defs><title>hero-break</title><g id="Layer_2" data-name="Layer 2"><g id="hero-frames"><rect class="cls-2" width="1525" height="920"/></g><g id="heros"><line class="cls-3" x1="46.82" y1="832.15" x2="1130.92" y2="832.15"/><rect class="cls-4" x="605.51" y="380.59" width="3" height="87.08" transform="translate(-8.26 12.07) rotate(-1.13)"/><circle class="cls-5" cx="607.02" cy="468.91" r="11.17"/><circle class="cls-6" cx="606.16" cy="380.6" r="7.38"/><path class="cls-7" d="M791.69,237.19c-1.41,1.43-4,2.74-8.57,2.9-10.1.35-60.92-.37-76.43-11.46a29.08,29.08,0,0,0-3.41-2.08c.66-1.29,9.91-1.89,17.25-2.15,8.3-.29,20.22,0,28.38-.22s14.53-.41,18.84.12,23.67,3.64,23.92,10.64A13,13,0,0,1,791.69,237.19Z"/><path class="cls-8" d="M616,199s.16,4.29-1.18,5.17-3.28-.15-4.22-1.46-.72-4.18-.78-5.79v-4.61H616Z"/><path class="cls-8" d="M616.91,203.22a4.12,4.12,0,0,0,3.64,2.39c1.53,0,2.09-1,2.74-2.39v-2l-6.38-3.8Z"/><path class="cls-8" d="M610.08,195.93a5.63,5.63,0,0,1-1.4,3c-1.12,1-3,1.22-3.89,0a7.7,7.7,0,0,1-1.23-4.18,31.89,31.89,0,0,1,1.57-12.36l21.64.13v8.53l-16.68,4.8"/><path class="cls-8" d="M610.08,195.93"/><path class="cls-9" d="M652.84,211.88l-18.14,8.23c-.6-1.48-2-4.66-3.4-8.23,0,0,12.16-.37,20.84-8.23A42.86,42.86,0,0,1,652.84,211.88Z"/><path class="cls-10" d="M652.13,203.65c-8.69,7.86-20.84,8.23-20.84,8.23a72.37,72.37,0,0,1-3.14-9.47,35.11,35.11,0,0,1-8.35-1.91,54,54,0,0,1-8.05-3.6c-5.65-3.09-9.28-7-8.85-9.34s4-2.64,7.09-1c7.56,3.95,13.64,4.46,14.94,3,2.12-2.37,1.16-6.72-4.48-6.72-10.06-.28-15.09-.36-25.17-.82-2.71-.12-5.52-1.79-5.52-4.93s6.66-3,8.79-3.06c10.7-.41,32.39.23,35.32,1.32C643.39,178.9,650,191.81,652.13,203.65Z"/><path class="cls-11" d="M650.48,196.93a60.67,60.67,0,0,1-10,5.49s-5.84,2.69,1,7"/><path class="cls-11" d="M645.24,185.52s-2,2.77-7,4.72"/><path class="cls-12" d="M622.77,388c-4.38-2.12-11.88-4.27-16.61-5.38a30.41,30.41,0,0,1-9-4.08,3.62,3.62,0,0,1-4.86,1.28c-3.13-2.2-6.38-5.48-5.64-9.24a18.61,18.61,0,0,0,.85-3.44c0-1.48-.95-3-.48-4.37.71-2.14,4.16-2.53,4.54-4.75.18-1.05-.45-2.21,0-3.17s2-1.14,3.17-1.49c1.93-.57,3.32-2.25,5.07-3.25,3.11-1.79,7-1.28,10.53-.71s4.4,1.22,7.68,3c6,3.22,12.71,9.82,18.89,12.67Z"/><path class="cls-11" d="M636.92,365c-6.18-2.85-12.89-9.46-18.89-12.67-3.27-1.75-4-2.38-7.68-3s-7.41-1.07-10.53.71c-1.75,1-3.14,2.68-5.07,3.25-1.16.34-2.64.4-3.17,1.49s.16,2.11,0,3.17c-.38,2.22-3.84,2.61-4.54,4.75-.47,1.41.49,2.89.48,4.37a18.61,18.61,0,0,1-.85,3.44c-.75,3.75,2.5,7,5.64,9.24,1.45,1,3.88,1.76,4.65.17"/><path class="cls-13" d="M785,833.64h-6.84c-1.51,0-7.46-.38-15-.71-1-.05-2.14-2.58-3.25-2.62-11.85-.46-26,3.17-34.42,3.33A238.84,238.84,0,0,1,695.6,832v-6.39c15.07,3.71,30.64,1.58,46.23.11,8.79-.83,10.11-.65,18.82.11,2,.17,22.3.1,23.9,0Z"/><path class="cls-14" d="M784.55,797.57v28.24h-5.67c-4.24-.18-16.24.18-18.23,0-8.71-.76-10-.94-18.82-.11-15.59,1.47-31.16,3.6-46.23-.11-1.15-5,.72-14.48,7.55-14.48a44.61,44.61,0,0,0,11.94-.49c10.47-2.2,17-14.31,25.09-13.05Z"/><path class="cls-11" d="M717.25,810s20.65.08,20.65,14.63"/><path class="cls-11" d="M729.24,812.57s14.91-9.59,17.57-15.09"/><path class="cls-11" d="M724.95,811.11s15.53-10.47,17.37-13.63"/><line class="cls-14" x1="731.1" y1="808.15" x2="723.61" y2="806.59"/><line class="cls-14" x1="734.85" y1="805.08" x2="727.35" y2="803.51"/><line class="cls-14" x1="738.6" y1="802" x2="731.1" y2="800.44"/><path class="cls-14" d="M784.34,805.08S762.48,805,762.48,826"/><path class="cls-13" d="M811.36,833.64h-6.84c-1.51,0-7.46-.38-15-.71-1-.05-2.14-2.58-3.25-2.62-11.85-.46-26,3.17-34.42,3.33A238.84,238.84,0,0,1,721.93,832v-6.39c15.07,3.71,30.64,1.58,46.23.11,8.79-.83,10.11-.65,18.82.11,2,.17,22.3.1,23.9,0Z"/><path class="cls-14" d="M810.88,797.57v28.24h-5.67c-4.24-.18-16.24.18-18.23,0-8.71-.76-10-.94-18.82-.11-15.59,1.47-31.16,3.6-46.23-.11-1.15-5,.72-14.48,7.55-14.48a44.61,44.61,0,0,0,11.94-.49c10.47-2.2,17-14.31,25.09-13.05Z"/><path class="cls-11" d="M743.59,810s20.65.08,20.65,14.63"/><path class="cls-11" d="M755.58,812.57s14.91-9.59,17.57-15.09"/><path class="cls-11" d="M751.28,811.11s15.53-10.47,17.37-13.63"/><line class="cls-14" x1="757.44" y1="808.15" x2="749.94" y2="806.59"/><line class="cls-14" x1="761.19" y1="805.08" x2="753.69" y2="803.51"/><line class="cls-14" x1="764.93" y1="802" x2="757.44" y2="800.44"/><path class="cls-14" d="M810.68,805.08S788.82,805,788.82,826"/><polygon class="cls-15" points="781.04 299.3 739.75 325.32 738.27 267 780.13 267 781.04 299.3"/><path class="cls-16" d="M726.27,354.27l-12.12-2.62-7-7.41c-44.73-27-64.87-76.29-75.21-121a6,6,0,0,1,3.2-6.72c4.37-2.13,10.27-5.1,14.9-7a5.73,5.73,0,0,1,7.34,2.9l13.27,28.47a61.22,61.22,0,0,1,2.61,6.17c.93,2.76,1.48,5.67,2.82,8.25a28.86,28.86,0,0,0,4.19,5.63c6.89,7.81,13.93,15.92,21.27,23.31,1.72.6,3,2.09,4.48,3.09a22.21,22.21,0,0,0,4.54,2c3.92,1.48,11.73,4.33,15.13,6.8"/><path class="cls-17" d="M725.84,369.06c-2,0-4.18,0-5.62-1.38-1.71-1.63-1.56-4.33-1.41-6.69a66.64,66.64,0,0,0-.42-12.79l-1.36-56a86.63,86.63,0,0,1-4.64-17.7,28.84,28.84,0,0,1-.35-7.8c.31-2.5,1.15-4.91,1.43-7.41.43-4-.62-8-1.23-12s1.18-16,2.52-19.8a29,29,0,0,1,2.13-4.36H734.6L743,356.65l-8.75,12.41Z"/><path class="cls-9" d="M778.82,261.22c-.68,12-5.17,23-16.85,32-3.55,2.73-10.71,5.4-15.16,5.92-29.56,3.45-29.21-42.42-29.92-68l5.09-8h45.18L781,240.81Z"/><path class="cls-17" d="M711.9,239.25c19.75,4,37-15.07,37-15.07l18.79.38L773,243.19a3.75,3.75,0,0,0,1.39,2.37,2.53,2.53,0,0,0,2.74-.37c.77-.6,1.27-3.86,1.75-4.71l-.28,15.84,4.07,83,45.26.83s.91-17.41-2.59-23.88-9.67-8.95-10.83-15.54a31.46,31.46,0,0,0-9.5-16.51c-3.67-3.08-6.43-12.41-6.13-15.33.63-6.25-1.88-12.43-2.82-18.64a23.52,23.52,0,0,0-1.18-5.13A38.19,38.19,0,0,0,792,240a30.69,30.69,0,0,1-4-12.51V221H716.89S711.28,229.47,711.9,239.25Z"/><path class="cls-9" d="M777.19,245.59a4.49,4.49,0,0,1,8.44,2.2c0,1.87-1.2,3.6-1.12,5.47a24.43,24.43,0,0,1-.71,5.91c-1.73,7.36-7.41,4.3-7.77,1.26"/><ellipse cx="749.23" cy="256.61" rx="1.75" ry="3.12"/><ellipse cx="729.29" cy="256.61" rx="1.75" ry="3.12"/><path class="cls-16" d="M739.74,299.3S724.42,310,726.27,328c0,0,2.22,1.35,7.14,1.26"/><path class="cls-11" d="M701.51,284.23s-9.69-2.41-17.36-1.41"/><path class="cls-11" d="M699,290.32s-9-2.93-26.5-.14"/><path class="cls-18" d="M721.93,614c.84-16,2.39-61.64,1.68-68.36-2.34-22.13,4.87-51.86,3.69-74.08-.9-16.92,1-31.91,1-48.86a67.31,67.31,0,0,1-13.16,3.79,65.3,65.3,0,0,1-20.83-.33c-24.41-3.85-52.14-18-71-34-.75-6.51-1.34-13.69,2.43-19,3-4.31,8.24-6.44,13.18-8.29,9.77,4.71,23.87,9.7,34.62,11.07a62.47,62.47,0,0,1,7.24,1,40.1,40.1,0,0,1,11.33,5.31q8.09-.07,16.18.18c7.09-2.66,13.58-11.49,18-17.51,1.4-15.47,8.9-42.8,13.42-60.12L741,324a15,15,0,0,1,1.73-4,17.24,17.24,0,0,1,4-4.08l28.41-23.06c4.72-3.83,10.45-11.36,14.41-16l10.08,11.7c4.48,3.34,8.05,12,12.86,19,14.34,20.82,19.34,39.8,18.67,64-.28,10-5.31,28.56-4.46,38.48.31,3.58.92,7.18.47,10.74-.7,5.51-3.87,10.38-5.32,15.73-3.31,12.17,1,40-6.42,50.23l-.06,11.47s1.65,35.9,1.78,49.06"/><path class="cls-11" d="M707.6,382.71c7.37-2.32,14.14-11.54,18.72-17.76"/><path class="cls-11" d="M770.12,482.65c11.67.89,24.63,1.39,33.65-6.06"/><path class="cls-18" d="M728.35,422.7c0,16.95-2,32-1.06,48.87,1.18,22.22-3,49.58-3.68,74.08-.2,6.75-1.39,24.57-1.91,40.55C721.48,593,723,643,723.89,648s3,66.33,4.45,70.33,5.14,51,5.14,51-.9,18-.75,21.29.62,8.71.62,8.71,14.47,3.48,18.47,6.74l9.08-8.49s43,28.25,50,28.25l1.18-11.59s-1.58-17.24-1.68-22.74-3-24.43-3-24.43c1.9-16.43-2-47.57-2-47.57,2.43-5-.88-21.5-1-25.5s3.06-76,4.6-84,7-49.47,8.09-62.59-1.78-49.06-1.78-49.06l.05-11.47c7.44-10.18,3.11-38.06,6.42-50.23,1.45-5.35,4.62-10.22,5.32-15.72.46-3.56-.16-7.16-.47-10.74-.86-9.92,4.18-28.53,4.46-38.48.67-24.19-4.33-43.18-18.67-64-4.82-7-8.38-15.65-12.86-19L789.51,277c-4,4.61-9.69,12.14-14.41,16L746.69,316a17.12,17.12,0,0,0-4,4.08,14.59,14.59,0,0,0-1.73,4l-1.21-19.22c-4.52,17.32-12,44.65-13.43,60.12Z"/><path class="cls-11" d="M722.11,383.15q-15-1-30-.86"/><path class="cls-11" d="M820,401.91a41.38,41.38,0,0,1-30.51,22.59"/><path class="cls-11" d="M763.65,327.11c1.63-1.59,3.75-3.32,5.92-2.65a17.06,17.06,0,0,1,2.3,1.22,5.29,5.29,0,0,0,6.7-2.15"/><path class="cls-11" d="M664.9,415.62a70.07,70.07,0,0,0-10.06-19.32"/><path class="cls-11" d="M791.67,290.18c2.31,8.8,7.17,11.8,8.11,20.3s1.26,14.75,5,19"/><line class="cls-19" x1="659.87" y1="217.8" x2="642.97" y2="225.72"/><path class="cls-11" d="M780.83,398a20.82,20.82,0,0,0,14.32,3.95"/><path class="cls-11" d="M697.32,387.79c-4.89-4.52-10.07-9.21-16.53-10.81a62.43,62.43,0,0,0-7.24-1c-10.75-1.37-24.85-6.37-34.62-11.07-4.94,1.84-10.15,4-13.18,8.29-3.77,5.36-3.18,12.53-2.43,19,18.89,15.94,46.62,30.14,71,34a65.47,65.47,0,0,0,20.83.33c8-1.33,15.55-4.67,23-8,24-10.71,48.28-21.58,69-37.75"/><path class="cls-11" d="M759.24,328.47c-10.13,5.7-17.33,15.33-24.23,24.69l-8.69,11.79c-4.59,6.22-11.35,15.44-18.72,17.76"/><path class="cls-11" d="M727,359.57c6-21.34,11.3-20.84,13.87-34.72"/><path class="cls-11" d="M731.08,485.32a29.19,29.19,0,0,1-.63,9.58"/><path class="cls-11" d="M737.25,486.66c-.39,2.55-.38,6.94-.77,9.48"/><path class="cls-11" d="M743.82,488.31v10.18"/><path class="cls-11" d="M751.82,490v8.67"/><path class="cls-11" d="M758.49,492.65c-.12,1.67-.41,6.37,0,8"/><path class="cls-11" d="M765.14,492.65l-.37,9"/><path class="cls-11" d="M769.82,493v9"/><path class="cls-11" d="M777.48,493.31v8"/><path class="cls-11" d="M784.15,493.31v8"/><path class="cls-11" d="M789.84,492.65a36.47,36.47,0,0,0,.32,8"/><path class="cls-11" d="M795.82,492v8.67"/><path class="cls-11" d="M801.82,490.65l.82,10"/><line class="cls-11" x1="808.51" y1="489.98" x2="808.66" y2="498.66"/><path class="cls-11" d="M760.89,797.57s-2.14-16.09-.53-25.09-.55-26.17-.55-26.17-4.19-35.83-6.15-51.33,0-59,0-59,1.8-54.42,1.63-58.49c-.18-4.39-3.48-47.18-3.48-47.18"/><path class="cls-11" d="M728.35,422.7c0,16.95-2,32-1.06,48.87,1.18,22.22-3,49.58-3.68,74.08-.2,6.75-1.39,24.57-1.91,40.55C721.48,593,723,643,723.89,648s3,66.33,4.45,70.33,5.14,51,5.14,51-.9,18-.75,21.29.62,8.71.62,8.71,14.47,3.48,18.47,6.74l9.08-8.49s43.14,28.25,50,28.25L812,815.13a14.34,14.34,0,0,0,.07-2c-.14-3.74-.62-16.79-.71-21.48-.1-5.5-4-24.56-4-24.56,1.9-16.43-2-47.57-2-47.57,2.43-5-.88-21.5-1-25.5s3.06-76,4.6-84,7-49.47,8.09-62.59-1.78-49.06-1.78-49.06l.05-11.47c7.44-10.18,3.11-38.06,6.42-50.23,1.45-5.35,4.62-10.22,5.32-15.72.46-3.56-.16-7.16-.47-10.74-.86-9.92,4.18-28.53,4.46-38.48.67-24.19-4.33-43.18-18.67-64-4.82-7-8.38-15.65-12.86-19L789.51,277c-4,4.61-9.69,12.14-14.41,16l-29.72,24.13a12.33,12.33,0,0,0-2.8,3.18A14.62,14.62,0,0,0,741,324l-1.21-19.22c-4.52,17.32-12,44.65-13.43,60.12"/><path class="cls-11" d="M733.48,769.31s1.09,7,4.55,10.54"/><path class="cls-11" d="M807.38,767s-3.53,11.18-8.65,15.43-6.87-.25-6.12-1.75,2.63-3.15,3.38-5.08"/><path class="cls-11" d="M794.32,807.4c7.41,5.17,13.46,8.58,17,8.83"/><path class="cls-11" d="M805.41,719.48a48.77,48.77,0,0,1-6.3,10.5"/><path class="cls-11" d="M789.75,524.61s-5.3,28.63,17.47,29.25"/><path class="cls-11" d="M728,493.31s36.73,16.17,87.3,5"/><path class="cls-11" d="M815.39,486.83c-40.74,13.82-88.29-3.11-88.29-3.11"/><path class="cls-11" d="M821.81,436.6c-2.16,6.21-9.81,14.88-12.4,16.71"/><path class="cls-11" d="M735.18,485.61c.3-4.62.05-28.37,1.3-38.62s.38-27.89.38-27.89"/><circle class="cls-11" cx="741.62" cy="470.79" r="1.88"/><circle class="cls-11" cx="743.5" cy="430.1" r="1.88"/><circle class="cls-11" cx="735.17" cy="348.85" r="1.88"/><path class="cls-4" d="M736.17,318.46s-8.86,6-9.9,9.52"/><path class="cls-16" d="M746.69,316c3.75.27,5.39,2.46,7,5.87a5.22,5.22,0,0,0,1.47,2.29c1.38.94,3.22,0,4.59-1,12.45-8.71,39.08-32.65,39.87-34.52,1.36-3.23-7-12.51-7.92-12.51-3.39,0-8.69.83-12.08.85l.54,11-33.44,28"/><path class="cls-16" d="M791.67,276.15c-2,3.67-11.54,11.87-11.54,11.87"/><path class="cls-11" d="M593,373.22c2.27,4.3,8.44,8.27,13.17,9.38s12.24,3.26,16.61,5.38"/><path class="cls-11" d="M592,376.48a6.31,6.31,0,0,0,3.7.63"/><path class="cls-11" d="M631.48,361.8s-7.84.35-13.14,10.18c-1.62,3,1.21,5.93,5.42,5.21"/><path class="cls-11" d="M616.91,351.75A26,26,0,0,0,604.48,364"/><path class="cls-9" d="M746.69,246.55s5.65-1,7,2.34"/><path class="cls-9" d="M729.29,247.65s-5.13.08-6.85,3.58"/><path class="cls-20" d="M768.23,257.11,778,244.56H766S769.4,244.56,768.23,257.11Z"/><path class="cls-20" d="M767.43,245.57c-.64-2.51-22.06-3.87-32.68-3.87s-16.91,2.71-19.32,3.87-4.19,18.18,5.15,22.05,10.79-6,10.79-6,1-5,3.22-5,2.74,11.93,12.72,11.93,20.13-3.61,20.13-3.61S769.23,252.61,767.43,245.57Z"/><path class="cls-4" d="M767.43,245.57c-.64-2.51-22.06-3.87-32.68-3.87s-16.91,2.71-19.32,3.87-4.3,18.62,5.15,22.05,10.79-6,10.79-6,1-5,3.22-5,2.74,11.93,12.72,11.93a67.92,67.92,0,0,0,18.82-3.18,2.35,2.35,0,0,0,1.51-2C768,259.74,768.83,251.05,767.43,245.57Z"/><path class="cls-11" d="M716.25,250.84s-.62,12.4,3.9,16.59"/><path class="cls-11" d="M765,247.89s1.21,17.39-1,18.09"/><path class="cls-2" d="M729.5,244.58s1.5-.17,3.78-.31,5.31-.2,8.35-.09c1.52,0,3,.13,4.45.26s2.74.26,3.87.43c2.26.31,3.74.64,3.74.64a.23.23,0,0,1,.18.27.23.23,0,0,1-.24.18l-3.77-.29L746,245.4l-4.42-.26c-1.51-.07-3-.11-4.43-.14s-2.73-.05-3.87,0h-3.78a.19.19,0,0,1-.2-.19A.2.2,0,0,1,729.5,244.58Z"/><path class="cls-2" d="M762.6,257.11a8.41,8.41,0,0,1,.12,1.54c0,.51,0,1-.08,1.53s-.12,1-.21,1.51c0,.25-.09.5-.15.75l-.09.38c0,.06,0,.13-.06.2l0,.11-.08.18.06-.14a1.7,1.7,0,0,1-.48.82,1.72,1.72,0,0,1-.8.4,3.12,3.12,0,0,1-.77.07,5.91,5.91,0,0,0-.68,0h0a.11.11,0,0,1-.08-.2,2.49,2.49,0,0,1,.71-.31,4.63,4.63,0,0,0,.62-.24,1,1,0,0,0,.59-.75l.06-.14h0l0-.08,0-.17.07-.36.15-.73.3-1.46.32-1.46c.12-.49.22-1,.33-1.47a.1.1,0,0,1,.11-.08A.1.1,0,0,1,762.6,257.11Z"/><path class="cls-2" d="M755.49,245.7a1.54,1.54,0,0,1,.32-.28,1.44,1.44,0,0,1,.67-.24.72.72,0,0,1,.64.2,1.32,1.32,0,0,1,.27.39,1,1,0,0,1-.06.91,1.31,1.31,0,0,1-.32.35.72.72,0,0,1-.66.11,1.44,1.44,0,0,1-.63-.33,1.54,1.54,0,0,1-.28-.32A.67.67,0,0,1,755.49,245.7Z"/><path class="cls-2" d="M758.5,245.87a2,2,0,0,1,.27-.09,2.21,2.21,0,0,1,.57,0,1,1,0,0,1,.55.13.74.74,0,0,1,.23.18.39.39,0,0,1-.05.55l0,0a.74.74,0,0,1-.27.1,1,1,0,0,1-.56,0,2.2,2.2,0,0,1-.54-.19,2,2,0,0,1-.24-.16.28.28,0,0,1,0-.4A.29.29,0,0,1,758.5,245.87Z"/><path class="cls-2" d="M724.41,265.06a1.67,1.67,0,0,1,.27-.37,1.26,1.26,0,0,1,.61-.37.66.66,0,0,1,.34,0,.75.75,0,0,1,.31.17,1.62,1.62,0,0,1,.32.43.59.59,0,0,1,0,.46,1.63,1.63,0,0,1-.26.47.76.76,0,0,1-.28.21.66.66,0,0,1-.34,0,1.26,1.26,0,0,1-.66-.28,1.67,1.67,0,0,1-.31-.33A.38.38,0,0,1,724.41,265.06Z"/><path class="cls-2" d="M722.41,265.29a2.34,2.34,0,0,1-.39-.11,2.94,2.94,0,0,1-.94-.59,5.28,5.28,0,0,1-.5-.53,5.09,5.09,0,0,1-.49-.65,9.48,9.48,0,0,1-.79-1.55,11,11,0,0,1-.76-3.11,5.83,5.83,0,0,1,0-1.47.13.13,0,0,1,.15-.11.14.14,0,0,1,.1.08s.22.54.48,1.35.55,1.88.9,2.93c.17.53.36,1,.57,1.51a6,6,0,0,0,.68,1.21,2.8,2.8,0,0,0,.71.65,2.25,2.25,0,0,0,.33.19.11.11,0,0,1-.06.2Z"/><path class="cls-2" d="M731.85,254a7.58,7.58,0,0,1,.22-.77,4.87,4.87,0,0,1,.92-1.6,2.72,2.72,0,0,1,.87-.65,2,2,0,0,1,1-.18,1.41,1.41,0,0,1,.88.38.23.23,0,1,1-.21.4,1.56,1.56,0,0,0-.63,0,2.19,2.19,0,0,0-.57.24,3,3,0,0,0-.6.45,8.94,8.94,0,0,0-1,1.24c-.28.37-.48.62-.48.62a.2.2,0,0,1-.35-.17Z"/><path class="cls-21" d="M768.23,257.11,778,244.56H766S769.4,244.56,768.23,257.11Z"/><path class="cls-9" d="M734.89,263.34q-3.89.62-7.75,1.38a4.94,4.94,0,0,0-1.94.68,3.1,3.1,0,0,0-.51,4.15,5.06,5.06,0,0,0,4,1.95,15,15,0,0,0,4.55-.78"/><path class="cls-16" d="M707.79,220.6s-2-13.72,7-13.72V221Z"/><path class="cls-16" d="M791.69,237.19a13,13,0,0,0,0-2.25c-.25-7-19.61-10.12-23.92-10.64s-10.67-.34-18.84-.12-20.08-.07-28.38.22c-7.34.26-16.59.86-17.25,2.15-1.66-.9-2.45-1.3-1.58-2,1.34-1.16,6.92-4.12,11.28-6.21,0,0-4.18-28.53,22.71-35.56,0,0,2.14-6.31,5.74-6.43s13.53-1,25.73,7.13,21.55,14.49,22.75,40.76l2.24.75.24,6.92s1,.66,1,1.35A5.75,5.75,0,0,1,791.69,237.19Z"/><path class="cls-4" d="M773,221l-.23-6.47A2.31,2.31,0,0,0,771,212.4L763.62,211a2.31,2.31,0,0,0-2.51,1.26l-2.58,5.31c-30.65-5.3-45.54.76-45.54.76"/><path class="cls-11" d="M778.19,225.72s1.94-4-15.77-7.34"/><path class="cls-4" d="M781.2,227.18,781,222.8a1.12,1.12,0,0,1,1.47-1.1l7.39,2.5.24,6.92"/><rect class="cls-22" x="212.11" y="50" width="149.33" height="69.33" rx="3.12" ry="3.12"/><path class="cls-23" d="M332.6,142.7a.56.56,0,0,0,0,.81,7,7,0,0,1,1.54,8.36,6.88,6.88,0,0,1-1.54,2,.55.55,0,0,0,0,.81,7,7,0,0,1,0,10.38.56.56,0,0,0,0,.81,7,7,0,0,1,0,10.37.56.56,0,0,0,0,.81,7,7,0,0,1,1.54,8.36,6.87,6.87,0,0,1-1.54,2,.55.55,0,0,0,0,.81,7,7,0,0,1,0,10.38.55.55,0,0,0,0,.81,7,7,0,0,1,1.54,8.35,7,7,0,0,1-1.54,2,.56.56,0,0,0,0,.81,7,7,0,0,1,1.54,8.36,6.88,6.88,0,0,1-1.54,2,.55.55,0,0,0,0,.81,7,7,0,0,1,1.54,8.36,6.88,6.88,0,0,1-1.54,2,.55.55,0,0,0,0,.81,7,7,0,0,1,0,10.38.55.55,0,0,0,0,.81,6.87,6.87,0,0,1,1.54,2,7,7,0,0,1,.76,3.18,7,7,0,0,1-2.3,5.18.56.56,0,0,0,0,.81,7,7,0,0,1,1.54,8.36,6.87,6.87,0,0,1-1.54,2,.55.55,0,0,0,0,.81,7,7,0,0,1,0,10.38.55.55,0,0,0,0,.81,7,7,0,0,1,1.54,8.35,7,7,0,0,1-1.54,2,.56.56,0,0,0,0,.81,7,7,0,0,1,2.3,5.18,7,7,0,0,1-2.3,5.18.55.55,0,0,0,0,.81,7,7,0,0,1,0,10.38.55.55,0,0,0,0,.81,6.87,6.87,0,0,1,1.54,2,7,7,0,0,1-1.29,8.13,6.52,6.52,0,0,1-.75.64,5.75,5.75,0,0,1,.75.64,7,7,0,0,1,1.91,6.32,6.62,6.62,0,0,1-.4,1.31,7,7,0,0,1-.64,1.21,6.83,6.83,0,0,1-.87,1.06,7.46,7.46,0,0,1-1.06.87,7,7,0,0,1-1.21.64,6.61,6.61,0,0,1-1.31.4,7,7,0,0,1-1.37.14H244.28v-.14a6.61,6.61,0,0,1-1.31-.4,7,7,0,0,1-1.21-.64,6.82,6.82,0,0,1-1.06-.87,7,7,0,0,1,0-9.9,5.82,5.82,0,0,1,.75-.64,5.12,5.12,0,0,1-.75-.64,7,7,0,0,1,.24-10.13.56.56,0,0,0,0-.81,7,7,0,0,1-1.53-2,6.89,6.89,0,0,1-.76-3.17,7,7,0,0,1,2.3-5.19.55.55,0,0,0,0-.81,7,7,0,0,1,0-10.37.56.56,0,0,0,0-.81,7,7,0,0,1-1.53-2,7,7,0,0,1,1.53-8.35.56.56,0,0,0,0-.81,7,7,0,0,1-1.53-2,7,7,0,0,1,1.54-8.36.55.55,0,0,0,0-.81,6.87,6.87,0,0,1-1.54-2,7,7,0,0,1-.76-3.18,6.89,6.89,0,0,1,.76-3.17,7,7,0,0,1,1.53-2,.56.56,0,0,0,0-.81,7,7,0,0,1-1.53-2,6.89,6.89,0,0,1-.76-3.17,7,7,0,0,1,.76-3.18,6.87,6.87,0,0,1,1.54-2,.55.55,0,0,0,0-.81,7,7,0,0,1-1.54-8.36,6.87,6.87,0,0,1,1.54-2,.55.55,0,0,0,0-.81,7,7,0,0,1,0-10.38.56.56,0,0,0,0-.81,7,7,0,0,1-1.53-8.35,7,7,0,0,1,1.54-2,.56.56,0,0,0,0-.81,7,7,0,0,1-1.54-8.36,6.88,6.88,0,0,1,1.54-2,.55.55,0,0,0,0-.81,7,7,0,0,1,0-10.38.55.55,0,0,0,0-.81,6.88,6.88,0,0,1-1.53-2,7,7,0,0,1-.76-3.18,7,7,0,0,1,2.3-5.18.56.56,0,0,0,0-.81,7,7,0,0,1-1.54-8.36,6.88,6.88,0,0,1,1.53-2,.55.55,0,0,0,0-.81,7,7,0,0,1-1.53-2,6.89,6.89,0,0,1-.76-3.17,7,7,0,0,1,2.29-5.19.56.56,0,0,0,0-.81,7,7,0,0,1,0-10.37.56.56,0,0,0,0-.81,7,7,0,0,1-.25-10.13,5.12,5.12,0,0,1,.75-.64,5.82,5.82,0,0,1-.75-.64,7,7,0,0,1-.88-1.07,6.65,6.65,0,0,1-.64-1.21,7.39,7.39,0,0,1-.4-1.31,6.74,6.74,0,0,1,0-2.73,7.15,7.15,0,0,1,.3-1.06,6.94,6.94,0,0,1,1.13-2,7.3,7.3,0,0,1,1.55-1.4,7,7,0,0,1,1.21-.65,7.35,7.35,0,0,1,1.31-.4,7,7,0,0,1,2.73,0h79.52a7,7,0,0,1,2.74,0,7.35,7.35,0,0,1,1.31.4,7.05,7.05,0,0,1,1.21.65,6.84,6.84,0,0,1,1.06.87,7,7,0,0,1,2,5,7.17,7.17,0,0,1-.14,1.37,6.74,6.74,0,0,1-.4,1.3,6.65,6.65,0,0,1-.64,1.21,6.91,6.91,0,0,1-.87,1.07,5.76,5.76,0,0,1-.75.64,6.52,6.52,0,0,1,.75.64,7,7,0,0,1,2,4.95,7,7,0,0,1-2.3,5.18Z"/><line class="cls-24" x1="241.45" y1="131.93" x2="332.1" y2="131.93"/><line class="cls-24" x1="241.45" y1="143.11" x2="332.1" y2="143.11"/><line class="cls-24" x1="241.45" y1="154.29" x2="332.1" y2="154.29"/><line class="cls-24" x1="241.45" y1="165.47" x2="332.1" y2="165.47"/><line class="cls-24" x1="241.45" y1="176.65" x2="332.1" y2="176.65"/><line class="cls-24" x1="241.45" y1="187.83" x2="332.1" y2="187.83"/><line class="cls-24" x1="241.45" y1="199.01" x2="332.1" y2="199.01"/><line class="cls-24" x1="241.45" y1="210.19" x2="332.1" y2="210.19"/><line class="cls-24" x1="241.45" y1="221.36" x2="332.1" y2="221.36"/><line class="cls-24" x1="241.45" y1="232.54" x2="332.1" y2="232.54"/><line class="cls-24" x1="241.45" y1="243.72" x2="332.1" y2="243.72"/><line class="cls-24" x1="241.45" y1="254.9" x2="332.1" y2="254.9"/><line class="cls-24" x1="241.45" y1="266.08" x2="332.1" y2="266.08"/><line class="cls-24" x1="241.45" y1="277.26" x2="332.1" y2="277.26"/><line class="cls-24" x1="241.45" y1="288.44" x2="332.1" y2="288.44"/><line class="cls-24" x1="241.45" y1="299.62" x2="332.1" y2="299.62"/><line class="cls-24" x1="241.45" y1="310.8" x2="332.1" y2="310.8"/><line class="cls-24" x1="241.45" y1="321.98" x2="332.1" y2="321.98"/><rect class="cls-5" x="474.51" y="148.31" width="105.64" height="669.67"/><polygon class="cls-25" points="580.15 453.98 650.63 489.62 650.63 817.98 580.15 817.98 580.15 453.98"/><path d="M797.57,486.36a10,10,0,0,1,1,6.87c-.39,1.88,2.5,2.69,2.89.8a13.24,13.24,0,0,0-1.34-9.18c-.92-1.7-3.51-.18-2.59,1.51Z"/><path d="M802.7,484.7a8.94,8.94,0,0,1,.63,4.54,1.55,1.55,0,0,0,1,1.85,1.51,1.51,0,0,0,1.85-1,11.93,11.93,0,0,0-.63-6.14c-.7-1.78-3.6-1-2.89.8Z"/><path d="M819.18,475.71c.34,16.3,6.51,31.47,10.38,47.11.46,1.87,3.36,1.08,2.89-.8-3.8-15.37-9.93-30.29-10.27-46.31,0-1.93-3-1.93-3,0Z"/><path d="M812.42,487.92l8-8c1.36-1.37-.76-3.5-2.12-2.12l-8,8c-1.36,1.37.76,3.5,2.12,2.12Z"/><path d="M808,476.32a22.73,22.73,0,0,0,2,11.48c.8,1.76,3.38.23,2.59-1.51a19.69,19.69,0,0,1-1.64-10c.17-1.92-2.84-1.91-3,0Z"/><path d="M811.64,477.72a29.27,29.27,0,0,0,8.37-8c1.11-1.59-1.49-3.09-2.59-1.51a25.54,25.54,0,0,1-7.29,7c-1.62,1-.12,3.63,1.51,2.59Z"/><path d="M817.91,468.07a61.58,61.58,0,0,1,.78,9.58,1.5,1.5,0,0,0,3,0,66.72,66.72,0,0,0-.89-10.38c-.31-1.9-3.2-1.09-2.89.8Z"/><rect class="cls-5" x="212.11" y="277.58" width="262.4" height="261.09"/><rect class="cls-5" x="212.11" y="539.47" width="262.4" height="278.51"/><rect class="cls-26" x="520.03" y="540.98" width="647.41" height="73.03"/><polygon class="cls-27" points="855.59 836.98 831.88 836.98 834.88 830.31 852.59 830.31 855.59 836.98"/><path d="M1167.44,541a36.52,36.52,0,0,1,0,73H520a36.52,36.52,0,0,1,0-73h647.42m0-3H520a39.52,39.52,0,0,0,0,79h647.42a39.52,39.52,0,0,0,0-79Z"/><polyline class="cls-28" points="520.03 585.47 1168.51 585.47 1168.51 569.54 520.03 569.54"/><circle class="cls-28" cx="1167.44" cy="577.5" r="36.52"/><circle class="cls-28" cx="1005.59" cy="577.5" r="36.52"/><circle class="cls-28" cx="843.73" cy="577.5" r="36.52"/><circle class="cls-28" cx="681.88" cy="577.5" r="36.52"/><circle class="cls-28" cx="520.03" cy="577.5" r="36.52"/><circle class="cls-29" cx="520.03" cy="577.5" r="15.48"/><path class="cls-5" d="M528,577.5V830.31H512.06V577.5a8,8,0,1,1,15.93,0Z"/><circle class="cls-29" cx="681.88" cy="577.5" r="15.48"/><path class="cls-5" d="M689.85,577.5V830.31H673.92V577.5a8,8,0,1,1,15.93,0Z"/><circle class="cls-29" cx="843.73" cy="577.5" r="15.48"/><path class="cls-5" d="M851.7,577.5V830.31H835.77V577.5a8,8,0,1,1,15.93,0Z"/><circle class="cls-29" cx="1005.59" cy="577.5" r="15.48"/><path class="cls-5" d="M1013.55,577.5V830.31H997.62V577.5a8,8,0,1,1,15.93,0Z"/><circle class="cls-4" cx="1167.44" cy="577.5" r="15.48"/><path class="cls-5" d="M1175.41,577.5V830.31h-15.93V577.5a8,8,0,1,1,15.93,0Z"/><polygon class="cls-27" points="531.88 836.98 508.18 836.98 511.18 830.31 528.88 830.31 531.88 836.98"/><polygon class="cls-27" points="693.73 836.98 670.03 836.98 673.03 830.31 690.73 830.31 693.73 836.98"/><polygon class="cls-27" points="1017.44 836.98 993.74 836.98 996.74 830.31 1014.44 830.31 1017.44 836.98"/><polygon class="cls-27" points="1179.29 836.98 1155.59 836.98 1158.59 830.31 1176.29 830.31 1179.29 836.98"/><rect class="cls-27" x="466" y="317.44" width="8.51" height="220.82"/><rect class="cls-6" x="580.15" y="168.98" width="6.38" height="19.37"/><rect class="cls-6" x="580.15" y="202.36" width="6.38" height="19.37"/><rect class="cls-30" x="580.15" y="235.73" width="6.38" height="19.37"/><line class="cls-11" x1="581.74" y1="280.64" x2="590.46" y2="289.35"/><rect class="cls-5" x="222.11" y="266.08" width="129.33" height="10.86"/><rect class="cls-28" x="470.25" y="165.47" width="4.26" height="100.62"/><rect class="cls-8" x="461.18" y="166.18" width="8.73" height="8.73"/><rect class="cls-8" x="461.18" y="178.67" width="8.73" height="8.73"/><rect class="cls-8" x="461.18" y="191.16" width="8.73" height="8.73"/><rect class="cls-8" x="361.44" y="53.43" width="8.73" height="8.73"/><rect class="cls-8" x="361.44" y="65.92" width="8.73" height="8.73"/><rect class="cls-8" x="371.25" y="268.21" width="8.73" height="8.73"/><path class="cls-31" d="M461.18,170.55c-19.45,0-86.62-10.6-89.94,19.9-1.77,16.25,16.16,18.36,15.23,36.53-1,19.57-10.87,14.5-10.87,41.23"/><path class="cls-31" d="M461.18,183c-14,0-59.2,17.36-59.2-34.72s6.64-90.52-31.81-90.52"/><path class="cls-31" d="M461.18,195.52c-21.7,0-36-4.65-30.2-63.59s-45.36-61.64-60.81-61.64"/><rect class="cls-29" x="580.15" y="270.95" width="3.19" height="19.37"/><line class="cls-11" x1="581.74" y1="304.64" x2="590.46" y2="313.35"/><rect class="cls-29" x="580.15" y="294.95" width="3.19" height="19.37"/><rect class="cls-32" x="798.22" y="431.98" width="88.6" height="106.28"/><rect class="cls-32" x="1022.88" y="378.52" width="141.24" height="159.74"/><rect class="cls-28" x="591.15" y="684.31" width="47.79" height="75.33" rx="6.25" ry="6.25"/><rect class="cls-29" x="621.76" y="712.31" width="13.13" height="19.33"/><rect class="cls-25" x="225.48" y="635.98" width="178.67" height="167" rx="6.46" ry="6.46"/><rect class="cls-29" x="375.62" y="712.31" width="19.33" height="19.33"/><line class="cls-29" x1="385.28" y1="712.31" x2="385.28" y2="731.65"/><rect class="cls-25" x="418.4" y="635.98" width="42.78" height="55" rx="5.45" ry="5.45"/><rect class="cls-29" x="423.48" y="645.65" width="32" height="6"/><line class="cls-29" x1="423.48" y1="657.65" x2="455.48" y2="657.65"/><line class="cls-29" x1="423.48" y1="663.65" x2="455.48" y2="663.65"/><line class="cls-29" x1="423.48" y1="669.65" x2="455.48" y2="669.65"/><line class="cls-29" x1="423.48" y1="675.65" x2="455.48" y2="675.65"/><line class="cls-29" x1="423.48" y1="681.65" x2="455.48" y2="681.65"/><line class="cls-33" x1="238.71" y1="764.31" x2="270.71" y2="764.31"/><line class="cls-33" x1="238.71" y1="770.31" x2="270.71" y2="770.31"/><line class="cls-33" x1="238.71" y1="776.31" x2="270.71" y2="776.31"/><line class="cls-33" x1="238.71" y1="782.31" x2="270.71" y2="782.31"/><line class="cls-33" x1="238.71" y1="788.31" x2="270.71" y2="788.31"/><line class="cls-33" x1="277.86" y1="764.31" x2="309.86" y2="764.31"/><line class="cls-33" x1="277.86" y1="770.31" x2="309.86" y2="770.31"/><line class="cls-33" x1="277.86" y1="776.31" x2="309.86" y2="776.31"/><line class="cls-33" x1="277.86" y1="782.31" x2="309.86" y2="782.31"/><line class="cls-33" x1="277.86" y1="788.31" x2="309.86" y2="788.31"/><line class="cls-33" x1="233.43" y1="334.63" x2="265.43" y2="334.63"/><line class="cls-33" x1="233.43" y1="340.63" x2="265.43" y2="340.63"/><line class="cls-33" x1="233.43" y1="346.63" x2="265.43" y2="346.63"/><line class="cls-33" x1="233.43" y1="352.63" x2="265.43" y2="352.63"/><line class="cls-33" x1="233.43" y1="358.63" x2="265.43" y2="358.63"/><line class="cls-33" x1="272.58" y1="334.63" x2="304.58" y2="334.63"/><line class="cls-33" x1="272.58" y1="340.63" x2="304.58" y2="340.63"/><line class="cls-33" x1="272.58" y1="346.63" x2="304.58" y2="346.63"/><line class="cls-33" x1="272.58" y1="352.63" x2="304.58" y2="352.63"/><line class="cls-33" x1="272.58" y1="358.63" x2="304.58" y2="358.63"/><line class="cls-33" x1="491.75" y1="489.67" x2="523.75" y2="489.67"/><line class="cls-33" x1="491.75" y1="495.67" x2="523.75" y2="495.67"/><line class="cls-33" x1="491.75" y1="501.67" x2="523.75" y2="501.67"/><line class="cls-33" x1="491.75" y1="507.67" x2="523.75" y2="507.67"/><line class="cls-33" x1="491.75" y1="513.67" x2="523.75" y2="513.67"/><line class="cls-33" x1="491.48" y1="459.67" x2="523.48" y2="459.67"/><line class="cls-33" x1="491.48" y1="465.67" x2="523.48" y2="465.67"/><line class="cls-33" x1="491.48" y1="471.67" x2="523.48" y2="471.67"/><line class="cls-33" x1="491.48" y1="477.67" x2="523.48" y2="477.67"/><line class="cls-33" x1="491.48" y1="483.67" x2="523.48" y2="483.67"/><line class="cls-29" x1="212.11" y1="592.98" x2="472.38" y2="592.98"/><circle class="cls-4" cx="231.18" cy="602.98" r="3.03"/><circle class="cls-4" cx="238.64" cy="307.66" r="3.03"/><circle class="cls-4" cx="286.77" cy="307.66" r="3.03"/><circle class="cls-4" cx="334.9" cy="307.66" r="3.03"/><circle class="cls-4" cx="383.03" cy="307.66" r="3.03"/><circle class="cls-4" cx="431.16" cy="307.66" r="3.03"/><circle class="cls-4" cx="246.65" cy="602.98" r="3.03"/><circle class="cls-4" cx="335.57" cy="602.98" r="3.03"/><circle class="cls-4" cx="351.04" cy="602.98" r="3.03"/><circle class="cls-4" cx="439.97" cy="602.98" r="3.03"/><circle class="cls-4" cx="455.44" cy="602.98" r="3.03"/><line class="cls-29" x1="212.11" y1="317.44" x2="466" y2="317.44"/><path class="cls-4" d="M469.92,208.3s-51.52,7.3-51.52-54-39.33-45-57-45"/><path class="cls-4" d="M469.92,216.78c-19.1,0-71.94-5.93-78.44,19-5,19.17,20,24.83,20,41.21"/><path class="cls-4" d="M470.25,212.12S412.48,220,412.48,161s-7.41-79.33-51-79.33"/><path class="cls-4" d="M469.92,221.36c-16.77,0-83.44-9.8-83.44,55.58"/><path class="cls-4" d="M361.44,87.65c18,0,32.71,2,32.71,34.16S388.69,226,469.92,226"/><path class="cls-4" d="M361.44,95.31c18.71,0,47-1.39,47,59s21.54,78.26,61.44,78.26"/><rect class="cls-25" x="228.15" y="401.91" width="81.71" height="117.08" rx="6" ry="6"/><rect class="cls-29" x="293.86" y="448.48" width="10.12" height="20.43"/><line class="cls-29" x1="298.92" y1="448.48" x2="298.92" y2="468.36"/><path class="cls-4" d="M395,277.58c0-11.6-7.56-46.62,17.5-53.6,22.5-6.27,23.87,14,57.44,14"/><path class="cls-4" d="M404.15,276.94c0-16.26-18.63-72.39,66.1-72.39"/><rect class="cls-28" x="212.11" y="817.98" width="15.66" height="15.66"/><rect class="cls-28" x="458.16" y="817.98" width="15.66" height="15.66"/><rect class="cls-28" x="474.51" y="817.98" width="15.66" height="15.66"/><rect class="cls-28" x="564.48" y="817.98" width="31.64" height="15.66"/><rect class="cls-28" x="635.13" y="817.98" width="15.66" height="15.66"/><circle class="cls-27" cx="524.48" cy="205.99" r="17"/><circle class="cls-4" cx="524.48" cy="205.99" r="21.52"/><circle class="cls-27" cx="524.48" cy="262.27" r="17"/><circle class="cls-4" cx="524.48" cy="262.27" r="21.52"/><rect class="cls-4" x="502.96" y="140.48" width="46.02" height="7.83"/><path class="cls-8" d="M543.1,115.78v24.7H508.84v-24.7a17.13,17.13,0,0,1,34.26,0Z"/><rect class="cls-34" x="491.48" y="421.14" width="32" height="27.34"/><rect class="cls-27" x="474.95" y="534.47" width="27.58" height="4.01"/><rect class="cls-29" x="88.82" y="697.92" width="30" height="43.73"/><circle class="cls-27" cx="103.82" cy="719.98" r="7.67"/><line class="cls-4" x1="740.96" y1="324.04" x2="739.74" y2="299.3"/><rect class="cls-35" x="817.18" y="472.81" width="50.67" height="20.67" transform="translate(-112.53 306.66) rotate(-19.36)"/><text class="cls-36" transform="matrix(0.94, -0.33, 0.33, 0.94, 828.35, 494.03)">LOGO</text><rect class="cls-35" x="1043.36" y="433.24" width="76.67" height="20.67" transform="translate(209.9 -335.4) rotate(19.48)"/><text class="cls-36" transform="translate(1051.52 438.78) rotate(19.48)">WEBSITE</text><rect class="cls-37" x="1088.52" y="379.01" width="15.48" height="29.21"/><polygon class="cls-21" points="1088.53 408.94 1091.11 407.5 1093.69 408.94 1096.27 407.5 1098.85 408.94 1101.43 407.5 1104.01 408.94 1104.01 408.22 1104.01 379.01 1088.53 379.01 1088.53 408.22 1088.53 408.94"/><rect class="cls-37" x="834.77" y="431.98" width="15.48" height="29.21"/><polygon class="cls-21" points="834.77 461.91 837.36 460.47 839.94 461.91 842.52 460.47 845.1 461.91 847.68 460.47 850.26 461.91 850.26 461.19 850.26 431.98 834.77 431.98 834.77 461.19 834.77 461.91"/><path class="cls-31" d="M103.82,721.78c0,36.53-7.67,56.37-7.67,75.78s6,36.08,36.67,36.08,50.67-2,50.67-90,19.92-86,28.63-86"/><path class="cls-2" d="M768.43,189.39s.28.08.79.28a13.36,13.36,0,0,1,2,1,18,18,0,0,1,2.57,1.92,22,22,0,0,1,2.5,2.69c.36.47.74,1,1.08,1.49s.66,1,1,1.5c.59,1,1.08,1.94,1.5,2.75.81,1.63,1.27,2.75,1.27,2.75h0a.5.5,0,0,1-.88.47s-.67-1-1.61-2.54c-.47-.77-1-1.64-1.65-2.56l-1-1.4c-.34-.48-.67-.92-1.05-1.41a26.83,26.83,0,0,0-2.26-2.55,20.64,20.64,0,0,0-2.24-1.94,18,18,0,0,0-1.75-1.15l-.72-.4a.5.5,0,0,1,.38-.92Z"/><path class="cls-2" d="M721.68,220.55s1.72-.09,4.3-.17c1.29,0,2.8-.09,4.41-.11s3.33-.08,5.05-.08l13.76-.11a.5.5,0,0,1,0,1s-1.72.15-4.31.31l-4.42.2-5.06.12c-1.72,0-3.45,0-5.06,0s-3.12,0-4.42-.05c-2.58-.05-4.31-.16-4.31-.16a.5.5,0,0,1,0-1Z"/><path class="cls-2" d="M769.27,213.93h.31a1.42,1.42,0,0,1,.68.27,2.11,2.11,0,0,1,.57.72,3.08,3.08,0,0,1,.25.85,3.87,3.87,0,0,1,0,1.49,2.81,2.81,0,0,1-.21.62.53.53,0,0,1-1-.09v0a2.47,2.47,0,0,1-.08-.59,4.75,4.75,0,0,1,0-.58c0-.2,0-.42,0-.62a4.19,4.19,0,0,0-.1-.54,1.15,1.15,0,0,0-.13-.31.37.37,0,0,0-.1-.13s0,0,0,0,0,0,0,0a.33.33,0,0,1-.32-.35.34.34,0,0,1,0-.1Z"/><path class="cls-2" d="M742.55,178.49a24,24,0,0,1,2.69-.27c.81,0,1.76-.05,2.77,0s2.1.13,3.18.26a27.74,27.74,0,0,1,3.15.59,13.49,13.49,0,0,1,1.42.39c.45.15.87.27,1.25.43a14.72,14.72,0,0,1,1.82.81l.67.35a.5.5,0,0,1-.41.91h0l-.67-.26-.77-.3-1-.34c-.36-.14-.78-.23-1.21-.36s-.89-.24-1.37-.36-1-.23-1.48-.33-1-.18-1.54-.28c-1-.18-2.08-.32-3.07-.41s-1.91-.18-2.7-.22c-1.59-.1-2.65-.1-2.65-.1a.24.24,0,0,1-.24-.24A.25.25,0,0,1,742.55,178.49Z"/><path class="cls-11" d="M741.76,183.78s14.3-4.93,25.4-.33"/><circle class="cls-33" cx="771.26" cy="364.64" r="12.37"/><g class="cls-38"><rect class="cls-32" x="410.38" y="385.1" width="138.92" height="167.41" transform="translate(948.65 -11.04) rotate(90)"/><rect class="cls-35" x="441.04" y="464.74" width="79.31" height="20.67" transform="translate(-105.83 139.29) rotate(-14.87)"/><text class="cls-36" transform="matrix(0.97, -0.26, 0.26, 0.97, 451.81, 488.49)">REBRAND</text><rect class="cls-37" x="476.17" y="400.65" width="15.48" height="29.21"/><polygon class="cls-21" points="476.17 430.58 478.75 429.14 481.34 430.58 483.92 429.14 486.5 430.58 489.08 429.14 491.65 430.58 491.65 429.86 491.65 400.65 476.17 400.65 476.17 429.86 476.17 430.58"/></g><path class="cls-2" d="M575.58,154.29s0,1.3.07,3.56.13,5.51.16,9.39.12,8.42.12,13.28,0,10,0,15.22,0,10.36-.05,15.22-.09,9.39-.12,13.28-.12,7.12-.16,9.39l-.06,3.56a.6.6,0,0,1-1.2,0l-.06-3.56c0-2.27-.09-5.51-.16-9.39s-.08-8.42-.12-13.28,0-10-.05-15.22,0-10.36,0-15.22.09-9.39.12-13.28.13-7.12.16-9.39l.07-3.56a.6.6,0,0,1,1.2,0Z"/><path class="cls-2" d="M460.91,323,461,327c0,1.25.06,2.77.08,4.52s.07,3.71.06,5.86c0,4.29,0,9.3,0,14.67s-.07,11.09-.1,16.81c-.11,11.45-.22,22.89-.31,31.48s-.21,14.31-.21,14.31a.34.34,0,0,1-.68,0l-.21-14.31c-.08-8.59-.19-20-.31-31.48,0-5.72-.07-11.45-.1-16.81s0-10.37,0-14.67c0-2.15,0-4.11.06-5.86s0-3.26.08-4.52c.07-2.5.11-3.93.11-3.93a.73.73,0,0,1,1.46,0Z"/><path class="cls-2" d="M685.81,778.51l.11,1.52c0,1,.15,2.35.2,4,.14,3.31.22,7.73.18,12.15,0,2.21,0,4.42-.06,6.49l-.16,5.66c-.12,3.31-.26,5.52-.26,5.52a1,1,0,0,1-2,0s-.14-2.21-.26-5.52l-.16-5.66c0-2.07,0-4.28-.06-6.49,0-4.42,0-8.84.18-12.15,0-1.66.15-3,.2-4l.11-1.52a1,1,0,0,1,2,0Z"/><path class="cls-2" d="M685.81,738.65s.08,2.17.15,5.42c0,1.63.07,3.52.07,5.55s0,4.2,0,6.36c0,4.33,0,8.67-.11,11.92l-.14,5.42a1,1,0,0,1-2,0l-.14-5.42c-.06-3.25-.1-7.58-.11-11.92l0-6.36c0-2,.05-3.93.07-5.55.06-3.25.15-5.42.15-5.42a1,1,0,0,1,2,0Z"/><path class="cls-2" d="M685.73,592l.13,22.19c0,13.31.07,31.06.11,48.81s-.08,35.5-.1,48.81-.14,22.19-.14,22.19a1,1,0,0,1-2,0s-.06-8.87-.14-22.19-.07-31.06-.1-48.81.08-35.5.11-48.81.13-22.19.13-22.19a1,1,0,0,1,2,0Z"/><path class="cls-2" d="M683.6,575l.46.35a3.74,3.74,0,0,1,.56.69,5.73,5.73,0,0,1,.52.93,8,8,0,0,1,.41,1.06c.13.38.2.77.31,1.18a18.36,18.36,0,0,1,.29,5,17,17,0,0,1-.31,2.15,11,11,0,0,1-.62,2.06.53.53,0,0,1-1-.06h0a18.47,18.47,0,0,1-.45-2c-.21-1.21-.4-2.82-.54-4.38-.09-.78-.15-1.55-.26-2.26-.05-.34-.07-.7-.15-1s-.08-.62-.16-.85-.11-.52-.15-.61,0-.25-.11-.42l-.29-.5v0a1,1,0,0,1,1.5-1.31Z"/><path class="cls-2" d="M525.29,684.31s0,1.39,0,3.82.09,5.91.09,10.08,0,9,.06,14.25,0,10.78,0,16.34c0,11.13-.08,22.25-.11,30.59l-.13,13.91a1,1,0,0,1-2,0s-.05-5.56-.13-13.91-.07-19.47-.11-30.59c0-5.56,0-11.12,0-16.34s0-10.08.06-14.25.07-7.65.09-10.08l0-3.82a1,1,0,0,1,2,0Z"/><path class="cls-2" d="M525.22,615l.14,9.3c.06,5.58.1,13,.11,20.45s0,14.88-.1,20.45-.14,9.3-.14,9.3a1,1,0,0,1-2,0s-.06-3.72-.14-9.3-.1-13-.1-20.45,0-14.87.11-20.45l.14-9.3a1,1,0,0,1,2,0Z"/><path class="cls-2" d="M522.86,575.27l.23.25a4.87,4.87,0,0,1,.31.5,5.4,5.4,0,0,1,.26.61,19.4,19.4,0,0,1,.82,3.52,82.2,82.2,0,0,1,.74,10.57c0,1.92,0,3.83,0,5.63s-.13,3.47-.23,4.9c-.2,2.87-.45,4.77-.45,4.77a.34.34,0,0,1-.68,0s-.15-1.91-.29-4.77-.25-6.67-.35-10.47-.23-7.6-.5-10.39c-.08-.7-.13-1.33-.21-1.89a12.38,12.38,0,0,0-.27-1.38l-.2-.66-.2-.28,0,0a.69.69,0,0,1,1.06-.87Z"/><path class="cls-2" d="M847.18,738.65s.08,2.17.15,5.42c0,1.63.07,3.52.07,5.55l0,6.36c0,4.33,0,8.67-.11,11.92l-.14,5.42a1,1,0,0,1-2,0L845,767.9c-.06-3.25-.1-7.58-.11-11.92l0-6.36c0-2,.05-3.93.07-5.55.06-3.25.15-5.42.15-5.42a1,1,0,0,1,2,0Z"/><path class="cls-2" d="M847.1,592l.13,22.19c0,13.31.07,31.06.11,48.81s-.08,35.5-.1,48.81S847.1,734,847.1,734a1,1,0,0,1-2,0s-.05-8.87-.14-22.19-.07-31.06-.1-48.81.08-35.5.11-48.81.13-22.19.13-22.19a1,1,0,0,1,2,0Z"/><path class="cls-2" d="M845,575l.46.35a3.74,3.74,0,0,1,.56.69,5.7,5.7,0,0,1,.52.93,8,8,0,0,1,.41,1.06c.13.38.2.77.31,1.18a18.36,18.36,0,0,1,.29,5,16.86,16.86,0,0,1-.31,2.15,11,11,0,0,1-.62,2.06.53.53,0,0,1-1-.06h0a18.47,18.47,0,0,1-.45-2c-.21-1.21-.4-2.82-.54-4.38-.09-.78-.15-1.55-.26-2.26-.05-.34-.07-.7-.15-1s-.08-.62-.16-.85-.11-.52-.15-.61,0-.25-.11-.42l-.29-.5v0A1,1,0,0,1,845,575Z"/><path class="cls-2" d="M1010.31,738.65s.09,1,.15,2.51c0,.75.07,1.63.07,2.58s0,1.95,0,3c0,2,0,4-.11,5.53s-.14,2.51-.14,2.51a1,1,0,0,1-2,0s-.07-1-.14-2.51-.1-3.52-.11-5.53c0-1,0-2,0-3s.05-1.82.07-2.58c.06-1.51.15-2.51.15-2.51a1,1,0,0,1,2,0Z"/><path class="cls-2" d="M1010.31,778.58s.09,1.44.15,3.6c0,1.08.07,2.34.07,3.69s0,2.79,0,4.23c0,2.88,0,5.76-.11,7.92s-.14,3.6-.14,3.6a1,1,0,0,1-2,0s-.07-1.44-.14-3.6-.1-5-.11-7.92c0-1.44,0-2.88,0-4.23s.05-2.61.07-3.69c.06-2.16.15-3.6.15-3.6a1,1,0,0,1,2,0Z"/><path class="cls-2" d="M1010.23,592l.13,22.19c0,13.31.07,31.06.11,48.81s-.08,35.5-.1,48.81-.14,22.19-.14,22.19a1,1,0,0,1-2,0s-.06-8.87-.14-22.19-.07-31.06-.1-48.81.08-35.5.11-48.81.13-22.19.13-22.19a1,1,0,0,1,2,0Z"/><path class="cls-2" d="M1008.1,575l.46.35a3.74,3.74,0,0,1,.56.69,5.73,5.73,0,0,1,.52.93,8,8,0,0,1,.41,1.06c.13.38.2.77.31,1.18a18.36,18.36,0,0,1,.29,5,17,17,0,0,1-.31,2.15,11,11,0,0,1-.62,2.06.53.53,0,0,1-1-.06h0a18.47,18.47,0,0,1-.45-2c-.21-1.21-.4-2.82-.54-4.38-.09-.78-.15-1.55-.26-2.26-.05-.34-.07-.7-.15-1s-.08-.62-.16-.85-.11-.52-.15-.61,0-.25-.11-.42l-.29-.5v0a1,1,0,0,1,1.5-1.31Z"/><path class="cls-2" d="M1171.46,774.65s.08,2.17.15,5.42c0,1.63.07,3.52.07,5.55s0,4.2,0,6.36c0,4.33,0,8.67-.11,11.92l-.14,5.42a1,1,0,0,1-2,0l-.14-5.42c-.06-3.25-.1-7.58-.11-11.92l0-6.36c0-2,.05-3.93.07-5.55.06-3.25.15-5.42.15-5.42a1,1,0,0,1,2,0Z"/><path class="cls-2" d="M1171.38,592l.13,26.82c0,16.09.07,37.54.11,59s-.08,42.91-.1,59-.14,26.82-.14,26.82a1,1,0,0,1-2,0s-.06-10.73-.14-26.82-.07-37.54-.11-59,.08-42.91.11-59,.13-26.82.13-26.82a1,1,0,0,1,2,0Z"/><path class="cls-2" d="M1169.25,575l.46.35a3.72,3.72,0,0,1,.56.69,5.73,5.73,0,0,1,.52.93,8,8,0,0,1,.41,1.06c.13.38.2.77.31,1.18a18.36,18.36,0,0,1,.29,5,17,17,0,0,1-.31,2.15,11,11,0,0,1-.62,2.06.53.53,0,0,1-1-.06h0a18.47,18.47,0,0,1-.45-2c-.21-1.21-.4-2.82-.54-4.38-.09-.78-.15-1.55-.26-2.26-.05-.34-.07-.7-.15-1s-.08-.62-.16-.85-.11-.52-.15-.61,0-.25-.11-.42l-.29-.5v0a1,1,0,0,1,1.5-1.31Z"/><path class="cls-2" d="M374.83,282l8.62-.15c5.17-.06,12.07-.15,19-.15s13.79,0,19,.06S430,282,430,282a.5.5,0,0,1,0,1s-3.45.17-8.62.25-12.07.09-19,.06-13.79-.09-19-.15l-8.62-.15a.5.5,0,0,1,0-1Z"/><path class="cls-2" d="M531.32,105.28a3.39,3.39,0,0,1,.75,0,5.4,5.4,0,0,1,1.81.58,6.07,6.07,0,0,1,1.07.69,8.21,8.21,0,0,1,1,1,9.6,9.6,0,0,1,.86,1.22,8.43,8.43,0,0,1,.66,1.37,7.93,7.93,0,0,1,.45,1.42,8.13,8.13,0,0,1,.25,1.4,10,10,0,0,1,.08,1.31c0,.41,0,.8-.06,1.16a5.92,5.92,0,0,1-.14,1c0,.29-.12.53-.17.74-.1.41-.18.63-.18.63a.53.53,0,0,1-1,0l0,0s-.1-.22-.23-.6-.27-.92-.48-1.54c-.09-.31-.21-.64-.31-1s-.24-.7-.35-1.07a11.57,11.57,0,0,0-.39-1.11l-.2-.56c-.08-.18-.16-.36-.24-.54-.14-.37-.32-.7-.49-1s-.36-.64-.51-1-.35-.6-.55-.86-.37-.52-.54-.76-.36-.44-.52-.61l-.44-.47a5.52,5.52,0,0,0-.41-.39.5.5,0,0,1,.24-1Z"/><path class="cls-2" d="M327.66,122.23h.27a3.8,3.8,0,0,1,.66.08,4.31,4.31,0,0,1,.9.31,3.39,3.39,0,0,1,.94.68,2.93,2.93,0,0,1,.65,1,2.73,2.73,0,0,1,.19,1,2.24,2.24,0,0,1-.07.66c0,.15-.06.24-.06.24a.61.61,0,0,1-1.21,0s-.1-.26-.26-.55a.87.87,0,0,0-.13-.22,2.36,2.36,0,0,0-.16-.2,1.87,1.87,0,0,0-.38-.33,4,4,0,0,0-1-.46l-.37-.12-.12,0a1,1,0,1,1,.11-2Z"/><path class="cls-2" d="M327.66,133.83h.27a3.8,3.8,0,0,1,.66.08,4.31,4.31,0,0,1,.9.31,3.39,3.39,0,0,1,.94.68,2.93,2.93,0,0,1,.65,1,2.73,2.73,0,0,1,.19,1,2.24,2.24,0,0,1-.07.66c0,.15-.06.24-.06.24a.61.61,0,0,1-1.21,0s-.1-.26-.26-.55a.87.87,0,0,0-.13-.22,2.36,2.36,0,0,0-.16-.2,1.87,1.87,0,0,0-.38-.33,4,4,0,0,0-1-.46l-.37-.12-.12,0a1,1,0,1,1,.11-2Z"/><path class="cls-2" d="M327.66,145.43h.27a3.8,3.8,0,0,1,.66.08,4.31,4.31,0,0,1,.9.31,3.39,3.39,0,0,1,.94.68,2.93,2.93,0,0,1,.65,1,2.73,2.73,0,0,1,.19,1,2.24,2.24,0,0,1-.07.66c0,.15-.06.24-.06.24a.61.61,0,0,1-1.21,0s-.1-.26-.26-.55a.87.87,0,0,0-.13-.22,2.36,2.36,0,0,0-.16-.2,1.87,1.87,0,0,0-.38-.33,4,4,0,0,0-1-.46l-.37-.12-.12,0a1,1,0,1,1,.11-2Z"/><path class="cls-2" d="M327.66,156.92h.27a3.8,3.8,0,0,1,.66.08,4.31,4.31,0,0,1,.9.31,3.39,3.39,0,0,1,.94.68,2.93,2.93,0,0,1,.65,1,2.73,2.73,0,0,1,.19,1,2.24,2.24,0,0,1-.07.66c0,.15-.06.24-.06.24a.61.61,0,0,1-1.21,0s-.1-.26-.26-.55a.87.87,0,0,0-.13-.22,2.36,2.36,0,0,0-.16-.2,1.87,1.87,0,0,0-.38-.33,4,4,0,0,0-1-.46l-.37-.12-.12,0a1,1,0,1,1,.11-2Z"/><path class="cls-2" d="M327.66,168.63h.27a3.8,3.8,0,0,1,.66.08,4.31,4.31,0,0,1,.9.31,3.39,3.39,0,0,1,.94.68,2.93,2.93,0,0,1,.65,1,2.73,2.73,0,0,1,.19,1,2.24,2.24,0,0,1-.07.66c0,.15-.06.24-.06.24a.61.61,0,0,1-1.21,0s-.1-.26-.26-.55a.87.87,0,0,0-.13-.22,2.36,2.36,0,0,0-.16-.2,1.87,1.87,0,0,0-.38-.33,4,4,0,0,0-1-.46l-.37-.12-.12,0a1,1,0,1,1,.11-2Z"/><path class="cls-2" d="M327.66,179.23h.27a3.8,3.8,0,0,1,.66.08,4.31,4.31,0,0,1,.9.31,3.39,3.39,0,0,1,.94.68,2.93,2.93,0,0,1,.65,1,2.73,2.73,0,0,1,.19,1,2.24,2.24,0,0,1-.07.66c0,.15-.06.24-.06.24a.61.61,0,0,1-1.21,0s-.1-.26-.26-.55a.87.87,0,0,0-.13-.22,2.36,2.36,0,0,0-.16-.2,1.87,1.87,0,0,0-.38-.33,4,4,0,0,0-1-.46l-.37-.12-.12,0a1,1,0,1,1,.11-2Z"/><path class="cls-2" d="M327.66,189.83h.27a3.8,3.8,0,0,1,.66.08,4.31,4.31,0,0,1,.9.31,3.39,3.39,0,0,1,.94.68,2.93,2.93,0,0,1,.65,1,2.73,2.73,0,0,1,.19,1,2.24,2.24,0,0,1-.07.66c0,.15-.06.24-.06.24a.61.61,0,0,1-1.21,0s-.1-.26-.26-.55a.87.87,0,0,0-.13-.22,2.36,2.36,0,0,0-.16-.2,1.87,1.87,0,0,0-.38-.33,4,4,0,0,0-1-.46l-.37-.12-.12,0a1,1,0,1,1,.11-2Z"/><path class="cls-2" d="M327.66,201.43h.27a3.8,3.8,0,0,1,.66.08,4.31,4.31,0,0,1,.9.31,3.39,3.39,0,0,1,.94.68,2.93,2.93,0,0,1,.65,1,2.73,2.73,0,0,1,.19,1,2.24,2.24,0,0,1-.07.66c0,.15-.06.24-.06.24a.61.61,0,0,1-1.21,0s-.1-.26-.26-.55a.87.87,0,0,0-.13-.22,2.36,2.36,0,0,0-.16-.2,1.87,1.87,0,0,0-.38-.33,4,4,0,0,0-1-.46l-.37-.12-.12,0a1,1,0,1,1,.11-2Z"/><path class="cls-2" d="M327.66,213h.27a3.8,3.8,0,0,1,.66.08,4.31,4.31,0,0,1,.9.31,3.39,3.39,0,0,1,.94.68,2.93,2.93,0,0,1,.65,1,2.73,2.73,0,0,1,.19,1,2.24,2.24,0,0,1-.07.66c0,.15-.06.24-.06.24a.61.61,0,0,1-1.21,0s-.1-.26-.26-.55a.87.87,0,0,0-.13-.22,2.36,2.36,0,0,0-.16-.2,1.87,1.87,0,0,0-.38-.33,4,4,0,0,0-1-.46l-.37-.12-.12,0a1,1,0,1,1,.11-2Z"/><path class="cls-2" d="M327.66,223.51h.27a3.8,3.8,0,0,1,.66.08,4.31,4.31,0,0,1,.9.31,3.39,3.39,0,0,1,.94.68,2.93,2.93,0,0,1,.65,1,2.73,2.73,0,0,1,.19,1,2.24,2.24,0,0,1-.07.66c0,.15-.06.24-.06.24a.61.61,0,0,1-1.21,0s-.1-.26-.26-.55a.87.87,0,0,0-.13-.22,2.36,2.36,0,0,0-.16-.2,1.87,1.87,0,0,0-.38-.33,4,4,0,0,0-1-.46l-.37-.12-.12,0a1,1,0,1,1,.11-2Z"/><path class="cls-2" d="M327.66,234.46h.27a3.8,3.8,0,0,1,.66.08,4.31,4.31,0,0,1,.9.31,3.39,3.39,0,0,1,.94.68,2.93,2.93,0,0,1,.65,1,2.73,2.73,0,0,1,.19,1,2.24,2.24,0,0,1-.07.66c0,.15-.06.24-.06.24a.61.61,0,0,1-1.21,0s-.1-.26-.26-.55a.87.87,0,0,0-.13-.22,2.36,2.36,0,0,0-.16-.2,1.87,1.87,0,0,0-.38-.33,4,4,0,0,0-1-.46l-.37-.12-.12,0a1,1,0,1,1,.11-2Z"/><path class="cls-2" d="M327.66,245.55h.27a3.8,3.8,0,0,1,.66.08,4.31,4.31,0,0,1,.9.31,3.39,3.39,0,0,1,.94.68,2.93,2.93,0,0,1,.65,1,2.73,2.73,0,0,1,.19,1,2.24,2.24,0,0,1-.07.66c0,.15-.06.24-.06.24a.61.61,0,0,1-1.21,0s-.1-.26-.26-.55a.87.87,0,0,0-.13-.22,2.36,2.36,0,0,0-.16-.2,1.87,1.87,0,0,0-.38-.33,4,4,0,0,0-1-.46l-.37-.12-.12,0a1,1,0,1,1,.11-2Z"/><path class="cls-2" d="M327.66,257h.27a3.8,3.8,0,0,1,.66.08,4.31,4.31,0,0,1,.9.31,3.39,3.39,0,0,1,.94.68,2.93,2.93,0,0,1,.65,1,2.73,2.73,0,0,1,.19,1,2.24,2.24,0,0,1-.07.66c0,.15-.06.24-.06.24a.61.61,0,0,1-1.21,0s-.1-.26-.26-.55a.87.87,0,0,0-.13-.22,2.36,2.36,0,0,0-.16-.2,1.87,1.87,0,0,0-.38-.33,4,4,0,0,0-1-.46l-.37-.12-.12,0a1,1,0,1,1,.11-2Z"/><path class="cls-2" d="M346.65,53.65l1.94-.14,2.23-.12,1.37-.06a5.06,5.06,0,0,1,1.79.13,3.52,3.52,0,0,1,1.79,1.26,3.63,3.63,0,0,1,.54,1.06,3.94,3.94,0,0,1,.17,1.16c0,1.21.07,2.49.1,3.82.05,2.65.05,5.47,0,8.3s-.1,5.65-.14,8.3l-.19,7.24L356,91.65a.5.5,0,0,1-1,0l-.26-7.06c-.06-2.12-.12-4.59-.19-7.24s-.09-5.47-.14-8.3-.06-5.65,0-8.3l.1-3.82a1.72,1.72,0,0,0-1.07-1.8,3.58,3.58,0,0,0-1.22-.15l-1.37-.06-2.23-.12-1.94-.14a.5.5,0,0,1,0-1Z"/><path class="cls-2" d="M246.65,407.62a6.9,6.9,0,0,1,1.58-.48,11.64,11.64,0,0,1,1.62-.19c.59,0,1.23,0,1.86,0a29.5,29.5,0,0,1,3.48.33,13.17,13.17,0,0,1,1.58.34.52.52,0,0,1,.35.65.53.53,0,0,1-.35.35,13.16,13.16,0,0,1-1.58.34,29.5,29.5,0,0,1-3.48.33c-.63,0-1.27,0-1.86,0a11.63,11.63,0,0,1-1.62-.19,6.9,6.9,0,0,1-1.58-.48.56.56,0,0,1,0-1Z"/><path class="cls-2" d="M305.08,408.12a22.28,22.28,0,0,1,.5,2.64c.11.79.2,1.72.28,2.71s.11,2,.12,3.1c0,.53,0,1.06,0,1.58s0,1-.07,1.53c-.05,1-.16,1.91-.27,2.71a18.94,18.94,0,0,1-.54,2.64.52.52,0,0,1-1,0,18.85,18.85,0,0,1-.54-2.64c-.12-.79-.22-1.72-.27-2.71,0-.5-.06-1-.06-1.53s0-1,0-1.58c0-1.06,0-2.11.12-3.1s.17-1.91.28-2.71a22.34,22.34,0,0,1,.5-2.64.52.52,0,0,1,1,0Z"/><path class="cls-2" d="M334.82,642s1.56-.23,3.91-.41,5.47-.33,8.59-.39c1.56,0,3.13-.05,4.59,0,.73,0,1.44.05,2.11.08s1.31.1,1.89.14a30,30,0,0,1,3.91.59.51.51,0,0,1,0,1,30,30,0,0,1-3.91.59c-.59,0-1.22.12-1.89.14s-1.38.08-2.11.08c-1.46,0-3,0-4.59,0-3.12-.06-6.25-.21-8.59-.39s-3.91-.41-3.91-.41a.51.51,0,0,1,0-1Z"/><path class="cls-2" d="M369.95,642s1.56-.23,3.91-.41,5.47-.33,8.59-.39c1.56,0,3.13-.05,4.59,0,.73,0,1.44.05,2.11.08s1.31.1,1.89.14a30,30,0,0,1,3.91.59.51.51,0,0,1,0,1,30,30,0,0,1-3.91.59c-.59,0-1.22.12-1.89.14s-1.38.08-2.11.08c-1.46,0-3,0-4.59,0-3.12-.06-6.25-.21-8.59-.39s-3.91-.41-3.91-.41a.51.51,0,0,1,0-1Z"/><rect class="cls-32" x="1139.14" y="776.65" width="163.33" height="86.67"/><rect class="cls-32" x="1167.65" y="661.31" width="193" height="115.33"/><rect class="cls-35" x="1218.39" y="728.28" width="69.7" height="20.67" transform="matrix(0.97, -0.26, 0.26, 0.97, -147.59, 346.4)"/><text class="cls-36" transform="matrix(0.97, -0.26, 0.26, 0.97, 1229, 750.8)">REB</text><rect class="cls-35" x="1155.2" y="819.28" width="69.7" height="20.67" transform="translate(333.92 -341.5) rotate(18.95)"/><text class="cls-36" transform="translate(1163.18 826.24) rotate(18.95)">POSTER</text><rect class="cls-32" x="1228.32" y="539.32" width="106" height="167.41"/><rect class="cls-37" x="1271.94" y="539.32" width="15.48" height="167.41"/><rect class="cls-21" x="1271.94" y="539.32" width="15.48" height="167.41"/><rect class="cls-37" x="1215.27" y="776.65" width="15.48" height="29.21"/><polygon class="cls-21" points="1215.28 806.58 1217.86 805.14 1220.44 806.58 1223.02 805.14 1225.6 806.58 1228.18 805.14 1230.76 806.58 1230.76 805.86 1230.76 776.65 1215.28 776.65 1215.28 805.86 1215.28 806.58"/><rect class="cls-37" x="1205.32" y="661.31" width="15.48" height="29.21"/><polygon class="cls-21" points="1205.32 691.24 1207.91 689.8 1210.49 691.24 1213.07 689.8 1215.65 691.24 1218.23 689.8 1220.81 691.24 1220.81 690.52 1220.81 661.31 1205.32 661.31 1205.32 690.52 1205.32 691.24"/><rect class="cls-32" x="1246.98" y="706.72" width="140.86" height="177.23"/><rect class="cls-35" x="1292.42" y="799.68" width="44.07" height="20.67" transform="translate(1581.09 -710.78) rotate(68.3)"/><text class="cls-36" transform="matrix(0.37, 0.93, -0.93, 0.37, 1304.22, 799.28)">AP<tspan class="cls-39" x="18.43" y="0">P</tspan></text><rect class="cls-37" x="1365.5" y="783.51" width="15.48" height="29.21" transform="translate(2171.36 -575.12) rotate(90)"/><polygon class="cls-21" points="1357.91 790.38 1359.36 792.96 1357.91 795.54 1359.36 798.12 1357.91 800.7 1359.36 803.28 1357.91 805.86 1358.63 805.86 1387.84 805.86 1387.84 790.38 1358.63 790.38 1357.91 790.38"/><rect class="cls-32" x="102.82" y="751.32" width="106" height="167.41" transform="translate(-679.2 990.84) rotate(-90)"/><rect class="cls-37" x="148.07" y="752.95" width="15.48" height="167.41" transform="translate(-680.84 992.47) rotate(-90)"/><rect class="cls-21" x="72.11" y="828.91" width="167.41" height="15.48"/><rect class="cls-32" x="340.22" y="797.48" width="88.6" height="106.28"/><rect class="cls-35" x="359.18" y="838.31" width="50.67" height="20.67" transform="translate(-259.62 175.49) rotate(-19.36)"/><text class="cls-36" transform="matrix(0.94, -0.33, 0.33, 0.94, 370.35, 859.53)">LOGO</text><rect class="cls-37" x="376.77" y="797.48" width="15.48" height="29.21"/><polygon class="cls-21" points="376.77 827.41 379.36 825.97 381.94 827.41 384.52 825.97 387.1 827.41 389.68 825.97 392.26 827.41 392.26 826.69 392.26 797.48 376.77 797.48 376.77 826.69 376.77 827.41"/><rect class="cls-32" x="220.88" y="757.02" width="141.24" height="159.74"/><rect class="cls-35" x="241.36" y="811.74" width="76.67" height="20.67" transform="translate(290.22 -46.21) rotate(19.48)"/><text class="cls-36" transform="translate(249.52 817.28) rotate(19.48)">WEBSITE</text><rect class="cls-37" x="286.52" y="757.51" width="15.48" height="29.21"/><polygon class="cls-21" points="286.52 787.44 289.11 786 291.69 787.44 294.27 786 296.85 787.44 299.43 786 302.01 787.44 302.01 786.72 302.01 757.51 286.52 757.51 286.52 786.72 286.52 787.44"/><path d="M748.6,286.25a9.23,9.23,0,0,1-6.07,2c-1.29-.08-1.28,1.92,0,2a11.31,11.31,0,0,0,7.48-2.61C751,286.85,749.59,285.44,748.6,286.25Z"/></g></g></svg>