<svg xmlns="http://www.w3.org/2000/svg" viewBox="0 0 510 576.03"><defs><style>.cls-1,.cls-2{fill:#fff;}.cls-10,.cls-11,.cls-12,.cls-13,.cls-14,.cls-15,.cls-16,.cls-18,.cls-19,.cls-2,.cls-5,.cls-7,.cls-8,.cls-9{stroke:#000;}.cls-10,.cls-11,.cls-13,.cls-16,.cls-19,.cls-2,.cls-3,.cls-5,.cls-8,.cls-9{stroke-linecap:round;}.cls-11,.cls-12,.cls-13,.cls-2,.cls-3,.cls-5,.cls-8,.cls-9{stroke-linejoin:round;}.cls-10,.cls-11,.cls-12,.cls-13,.cls-15,.cls-16,.cls-18,.cls-19,.cls-2,.cls-3,.cls-5,.cls-7,.cls-8,.cls-9{stroke-width:2px;}.cls-10,.cls-14,.cls-3,.cls-5{fill:none;}.cls-3{stroke:red;}.cls-18,.cls-4{fill:#603813;}.cls-19,.cls-6,.cls-7{fill:#c4a166;}.cls-10,.cls-14,.cls-15,.cls-16,.cls-18,.cls-19,.cls-7{stroke-miterlimit:10;}.cls-8{fill:#91891e;}.cls-11{fill:#ccc;}.cls-12{fill:#588191;}.cls-13{fill:#f15a24;}.cls-14{stroke-width:12px;stroke-dasharray:2 3;}.cls-15,.cls-16,.cls-17{fill:#d1ab6d;}</style></defs><title>home-lateral</title><g id="Layer_2" data-name="Layer 2"><g id="thum-frames"><rect class="cls-1" width="510" height="576.03"/></g><g id="thums"><path class="cls-2" d="M198.42,428.28l13.76,26,4,7.23L210.34,473l-22.15.67.46-6.53-13.34-30.06a1.68,1.68,0,0,1,1.14-2Z"/><line class="cls-3" x1="178.04" y1="442.42" x2="201.76" y2="434.93"/><path class="cls-4" d="M276.61,106.28c-1.56,3-5.69,2.59-7.41,5.65-2.15,3.83,1.24,9.87-3.34,14.31S250,121.64,245.78,122c.86-.79,1.56-1.49,2.07-2.05.34-.38.68-.77,1-1.17s.53-.63.79-1l.33-.42c.23-.28.45-.57.67-.86q1.07-1.42,2.08-2.93c.28-.41.56-.84.83-1.26.59-.93,1.17-1.87,1.73-2.83l.78-1.35c.8-1.43,1.56-2.88,2.28-4.31.24-.47.47-.93.69-1.4s.44-.92.66-1.38l.59-1.26c.86-1.87,1.62-3.67,2.29-5.3-4.46-2-11.69-3.74-13.06-7.78-1.13-3.35.58-5.34,1.2-6.49l15,5.68,8.7,3.29C277.75,93.59,279.88,99.93,276.61,106.28Z"/><path class="cls-5" d="M245.77,122c4.26-.35,15.54,8.69,20.1,4.25s1.18-10.48,3.33-14.31c1.72-3.06,5.86-2.63,7.41-5.65,3.31-6.44,1.23-12.68-2.17-17.06"/><path class="cls-5" d="M291,53.48l8.25-.64c1.81-.14,4.24-1,3.89-2.81-.28-1.41-2.13-1.78-3.56-1.6A13.37,13.37,0,0,0,291.16,53"/><path class="cls-5" d="M309.15,72.58a28.4,28.4,0,0,0,5.87,2c1.72.39,3.75.55,5-.66a1.64,1.64,0,0,0,.47-2,2,2,0,0,0-.73-.59,10.17,10.17,0,0,0-11.61,1.57"/><path class="cls-5" d="M201.5,54.25l-8-2c-1.77-.44-4-1.72-3.37-3.42.51-1.34,2.4-1.4,3.77-1a13.37,13.37,0,0,1,7.58,5.89"/><path class="cls-5" d="M189.14,73.5a28.4,28.4,0,0,1-6.13,1c-1.76.1-3.79-.09-4.86-1.49a1.64,1.64,0,0,1-.14-2,2,2,0,0,1,.82-.46A10.17,10.17,0,0,1,190,74"/><path class="cls-2" d="M223.91,467.52s2.67,1,5.21,6.22-11.19,13.14-20.65,17.59-16.73,17.61-33.94,19.75-22.9-.38-23.65-4.85"/><path class="cls-6" d="M312.17,253.63l-.6,2.17c-.36,5.06,6.32,3.43,6.32,3.43,1.63,4.88,6.14,2.35,6.14,2.35,2.35,3.61,5.61.36,5.61.36,1.1.72,3.24,1.26,4.5,0s5.6-12.16,5.6-15c0-3.07,0-2.89-1.81-5.52,10.66-12.51,23.84-34.94,27.09-40.36s4-11.56,0-17-27.45-20.23-32.51-23.48-17-10.84-20.23-14.09c-19.39-19.35-50.56-14.81-50.56-14.81l-.9.26-8.9-20.74-29.57,18.85s.92,11.88,3.52,18.23l-5.69,6.52-6.38,16.62,3.73,13.12,42.26,21.91,25.77-4.58L295,186.38l1.85-15.52h0a115.35,115.35,0,0,0,13.57,5c8.77,2.41,24.67,12.88,29.36,14.33h.4c.07,4.87-.73,13.28-5.46,23.59,0,0-10.84,16.66-15.17,21.12,0,0-9.75,6-10.66,10.92C308.37,248.53,309.17,252.12,312.17,253.63Z"/><path class="cls-6" d="M224.42,145.08c-14.45,3.35-13.67,12.33-23.48,17.65-12.64,6.86-24.7,9.5-44.06,18.86-17.63,8.53-46.13,23.31-66.87,32.22,0,0-12.6,4.41-14.14,4.41,0,0-11.77-4.88-13.09-5.48-2.08-.93-6-1.36-13.09-1.36-2.35,0-4.42,2.57-5.15,3.5S41,217.06,41,218.68s1.81,3.88,7.22,1.63A19.67,19.67,0,0,0,50.86,219a19.28,19.28,0,0,0,4.15.72s-4.88,3.93-6.77,4.67-16.16,12.84-16.16,12.84-.64.46-1.9,1.44c-1.57,1.22-2.47,3.38-.81,4.52s5.51-1.26,6.05-1.72A15.66,15.66,0,0,1,37,240.44s-1.81,3,1.17,4.71c1.9,1.08,3.61-.91,3.61-.91s2,5.69,6.41,3.61c0,0,1.26,3,4.24,2.53s3.52-2,5.78-2.62,14.09-4.24,17.43-7a30,30,0,0,1,9.84-5.69C90.05,233.4,98,231,98,231s42.78-12.72,55.17-17.16,17.08-8.48,21.78-10.43S207.48,190,216.5,185.62Z"/><path class="cls-7" d="M313.28,329c34.27,30.81,52.81,69.39,63.57,72.67,43.35,13.21,53.39,33.76,64.95,43.38,0,0-3.74,14.67-13.13,20.81,0,0-41-23.88-51.45-28.94s-19.14-6.5-29.62-9.75-10.87-8.27-15.53-11.92c-23.12-18.09-32.87-29-63.93-65.74Z"/><path class="cls-8" d="M342.06,411.56c5.3.7,11.14,7.14,11.14,7.14"/><path class="cls-7" d="M216.84,293.54s-51.49,10.58-88.14,51.29c-3.25,3.61-2.89,11.56,0,15.89s15.17,23,20.59,29.75,22.76,40,25.65,45l23.48-7.25c-10.48-25.29-2.89-40.82-23.48-67.19,0,0,56.35-6.17,84.52-18.35Z"/><path class="cls-5" d="M198.42,428.28l13.76,26,4,7.23L210.34,473l-22.15.67.46-6.53-13.34-30.06a1.68,1.68,0,0,1,1.14-2Z"/><path class="cls-5" d="M292.69,364"/><path class="cls-5" d="M174.94,361.09a75.37,75.37,0,0,1-14.09,0"/><path class="cls-5" d="M37,240.44s-1.81,3,1.17,4.71c1.9,1.08,3.61-.91,3.61-.91s2,5.69,6.41,3.61c0,0,1.26,3,4.24,2.53s3.52-2,5.78-2.62,14.09-4.24,17.43-7a30,30,0,0,1,9.84-5.69C90.05,233.4,98,231,98,231s42.78-12.72,55.17-17.16,17.08-8.48,21.78-10.43S207.48,190,216.5,185.62"/><path class="cls-5" d="M38.94,238.43s-3,2.65-3.52,3.1-4.33,2.89-6.05,1.72-.76-3.3.81-4.52c1.26-1,1.9-1.44,1.9-1.44s14.27-12.1,16.16-12.84S55,219.77,55,219.77a19.28,19.28,0,0,1-4.15-.72,19.67,19.67,0,0,1-2.62,1.26c-5.42,2.26-7.22,0-7.22-1.63s2.8-2.86,3.52-3.79,2.8-3.5,5.15-3.5c7.13,0,11,.43,13.09,1.36,1.32.59,13.09,5.48,13.09,5.48,1.54,0,14.14-4.41,14.14-4.41,20.74-8.91,49.25-23.69,66.87-32.22,19.36-9.37,31.42-12,44.06-18.86,9.81-5.32,9-14.3,23.48-17.65"/><path class="cls-5" d="M49.79,242.88s1.8-2.76,4.15-1.74,1.54,4.45,0,5.53"/><rect class="cls-9" x="22.99" y="219.55" width="40.46" height="18.69" rx="4.13" ry="4.13" transform="translate(54.57 -3.77) rotate(13.49)"/><polygon class="cls-2" points="54.54 241.16 58.88 223.1 31.18 216.4 26.84 234.46 54.54 241.16"/><circle class="cls-1" cx="59.63" cy="233.03" r="1.39" transform="translate(-176.75 277.58) rotate(-86.32)"/><path class="cls-10" d="M286.91,166.4s14.6,7.11,23.37,9.51,24.67,12.88,29.36,14.33"/><path class="cls-10" d="M339.65,185.62s2.53,11.65-5.06,28.2c0,0-10.84,16.66-15.17,21.12,0,0-9.75,6-10.66,10.92-.49,2.67.31,6.26,3.31,7.77"/><line class="cls-10" x1="317.8" y1="259.23" x2="321.23" y2="247.31"/><line class="cls-10" x1="323.94" y1="261.58" x2="327.73" y2="250.42"/><line class="cls-10" x1="329.55" y1="261.94" x2="332.79" y2="252.36"/><path class="cls-10" d="M337.84,241.43s-5.73-5.69-13.5-5.51"/><path class="cls-10" d="M311.66,244.78s1.08-.18,2.35,2.53"/><path class="cls-10" d="M336.21,245.33a3.27,3.27,0,0,0-2.92-.91,2.78,2.78,0,0,1-1.52.13A2.73,2.73,0,0,1,331,244a3.3,3.3,0,0,0-1.88-.8,7,7,0,0,1-1.68-.13,5,5,0,0,1-1-.59,5.29,5.29,0,0,0-3.93-.7"/><path class="cls-5" d="M80.44,229.58s2.75,3.93,0,7.86"/><line class="cls-5" x1="81.79" y1="223.36" x2="96.19" y2="219.62"/><path class="cls-5" d="M75.48,225.51a9.13,9.13,0,0,1-7.47,6"/><path class="cls-11" d="M182.08,457.44s14.54,13.11,24.44,8.39,5.44-11.15,8.3-13.47c0,0,7.4,6.78,9.1,15.16s-12,10.84-19.13,16.63-15.61,15.43-26.85,19.44-26.54,6.82-29.39,0,12.81-11.5,12.81-11.5,11.93-19.9,18.14-25.87C179.49,466.27,177.89,456,182.08,457.44Z"/><path class="cls-5" d="M150.3,497.91s.29,3.58,7,2.6,16.55.69,15.54,4.72"/><path class="cls-5" d="M188.65,467.13a15.84,15.84,0,0,0,20.26,2.42"/><line class="cls-5" x1="163.24" y1="489.04" x2="172.78" y2="491.22"/><line class="cls-5" x1="166.2" y1="484.35" x2="176.19" y2="486.67"/><line class="cls-5" x1="169.46" y1="479.38" x2="179.67" y2="481.85"/><line class="cls-5" x1="172.16" y1="475.44" x2="182.19" y2="477.67"/><line class="cls-5" x1="175.31" y1="471.13" x2="185.73" y2="472.63"/><line class="cls-5" x1="179.49" y1="466.27" x2="188.25" y2="468.11"/><path class="cls-5" d="M161.35,492.13s.75,5,6.86,1.83c0,0,22.17-30.6,23.67-29.88"/><path class="cls-1" d="M428.16,462.93a2.22,2.22,0,0,0,.51,3c5.86,4.53,30.29,18.38,34.21,23.81,4.6,6.37,4.54,2.81,4.54,2.81l8.65-25.37-7.31-3.06-27-19a2.22,2.22,0,0,0-2.75.85Z"/><line class="cls-3" x1="445.51" y1="448.34" x2="432.25" y2="468.68"/><path class="cls-10" d="M268.13,177.59a59.43,59.43,0,0,1-11.73,12.64"/><path class="cls-12" d="M296.71,170.86s0,28.77-2.21,39.42,2.89,41.36,0,49.67c0,0-19.51,1.68-32.87,1.63-17.34-.07-38.65,4.88-38.65,4.88s-6.86-16.91-8.31-28.86-10.11-37.94-9.39-50.05,5.78-22.22,8.31-26.56,10.84-15.89,10.84-15.89.36,2.73,1.08,3.35-14.81,24.46-4,24.46S260.73,132,260.73,132l8.31-.72s-6.32,4.44-12.82,20.69-10.47,28.54-5.24,38.29,21.49,9.9,25.1,8.93S296.76,190.49,296.71,170.86Z"/><path class="cls-13" d="M302.43,290.24s4.14,18.29,6.2,25.51,12.32,11.3,5.34,16c-15.5,10.39-45.84,17.79-45.84,17.79s-3.25,0-6.5-7Z"/><path class="cls-5" d="M316.11,327s-10.76,9.4-50.68,21.1"/><path class="cls-5" d="M305.88,325.51s2.62-2.35,2.76-9.75"/><path class="cls-13" d="M296,261s-21.16-3.59-40.9-3S223,266.45,223,266.45s3.27,9,5.57,14.64c0,0-2,1.86-.87,6l-3.25,2a29.34,29.34,0,0,1-7.59,4.42c-1.44.72-2.41,26.34,22.64,30.1,0,0-1,21,20,19.09s31.06-12.71,33.23-14.52,10.48-12.94,10.48-28.86c0-9.11-2.89-21-6.45-29.12C296.12,264,296,261,296,261Z"/><path class="cls-10" d="M296.71,270.24s-20.4-3.42-39.42-2.82-31,8-31,8l2.21,5.65"/><path class="cls-5" d="M239.47,323.64s22.15-2.27,29.56-22.24c3.25-8.76,5.26-23.07,3.8-33.7"/><path class="cls-5" d="M227.67,287.11a8,8,0,0,1,2-7.53"/><path class="cls-10" d="M218.51,292.8s-2.19,24.55,20.24,27.72c7.16,1,20.49-4.23,28.11-21,1.81-4,4.17-17.33,2.9-32"/><path class="cls-5" d="M241.75,323.27s.2,15.63,15.37,19.59"/><path class="cls-5" d="M239.47,284.63c-7.22-1.44-15.05,4.49-15.05,4.49"/><path class="cls-14" d="M296,265.18s-20.4-3.42-39.42-2.82-31,8-31,8"/><path class="cls-15" d="M44.12,240.7s2.4-3.15,5-1.79.18,5.33.18,5.33a3.83,3.83,0,0,0-1.08,3.61"/><path class="cls-16" d="M37,240.44s3.5-3.9,5.78-2.93c3.7,1.57.81,5.19-1,6.73"/><path class="cls-15" d="M44.54,214.89c-.72.93-3.52,2.17-3.52,3.79s1.81,3.88,7.22,1.63A19.67,19.67,0,0,0,50.86,219"/><path class="cls-5" d="M296.71,170.86"/><path class="cls-5" d="M222.26,130.09s.92,11.88,3.52,18.23"/><path class="cls-5" d="M314.64,243.56c-.27,1.85-3.16,12.24-3.16,12.24-.36,5.06,6.32,3.43,6.32,3.43,1.63,4.88,6.14,2.35,6.14,2.35,2.35,3.61,5.61.36,5.61.36,1.1.72,3.24,1.26,4.5,0s5.6-12.16,5.6-15c0-3.07,0-2.89-1.81-5.52,10.66-12.51,23.84-34.94,27.09-40.36s4-11.56,0-17-27.45-20.23-32.51-23.48-17-10.84-20.23-14.09c-19.39-19.35-50.56-14.81-50.56-14.81l-.9.26-8-18.39"/><path class="cls-5" d="M227.42,151.2c-3.86-4.36-5.16-21.11-5.16-21.11"/><path class="cls-6" d="M262.57,94.51c-.67,1.63-1.43,3.42-2.29,5.3l-.59,1.26c-.22.46-.44.92-.66,1.38s-.45.93-.69,1.4c-.72,1.43-1.48,2.88-2.28,4.31l-.78,1.35c-.56,1-1.14,1.9-1.73,2.83-.27.42-.54.84-.83,1.26q-1,1.5-2.08,2.93c-.22.3-.44.58-.67.86l-.33.42c-.26.33-.52.65-.79,1s-.68.79-1,1.17c-.51.56-1.21,1.27-2.07,2.05-5,4.49-15.5,11.48-28.14,6.69-27.53-10.4-8-49.37-2.05-61.71L250.7,80.24c-.62,1.15-2.32,3.14-1.2,6.49C250.88,90.77,258.11,92.5,262.57,94.51Z"/><path class="cls-4" d="M286.28,72.28c-1.36,3.88-5.54,4.6-7.67,5.36L219,55.13c-1.69-4,1.25-8.94,4.87-11.52s9.31-3.46,13.64-2.93c12.51,1.54,19.3,12.8,26.65,13.76C277.91,56.24,289.17,64.05,286.28,72.28Z"/><path class="cls-17" d="M255.12,68.76,221,55.87c2.19-1.15,4.87-.67,7.27-.06C237,58,246.85,65.1,255.12,68.76Z"/><path class="cls-18" d="M215.58,67c-1.67,3.46-4.41,9-6.88,15.46-1.5-2.08-1.6-4.56-1.19-7.09a9.93,9.93,0,0,1,4.27-6.61,11.09,11.09,0,0,0,2.87-2.11Z"/><path class="cls-5" d="M215.58,67c-6,12.34-25.48,51.31,2,61.72,14.85,5.61,26.8-5,30.21-8.75,6.57-7.24,11.68-18,14.72-25.42"/><path class="cls-19" d="M208.48,88.55c-4.09-1.13-10.52-4.05-11.81,0-1.7,5.36,7,6.53,10.87,7.27"/><path class="cls-2" d="M215.53,108.41c-.43,2.28.58,2.89,1.59,3.25,1.18.41,12.7,3.83,13.13,3.92a2.52,2.52,0,0,0,2.95-1.83C235.44,107.71,216.35,104.1,215.53,108.41Z"/><ellipse cx="217.73" cy="81.64" rx="2.8" ry="1.54" transform="translate(64.38 256.44) rotate(-69.29)"/><ellipse cx="232.15" cy="87.09" rx="2.8" ry="1.46" transform="translate(68.6 273.45) rotate(-69.29)"/><path class="cls-5" d="M221,55.89c2.21-1.18,4.9-.7,7.32-.08,8.76,2.24,18.57,9.3,26.85,13,5.21,2.3,12.48,1.74,17,.74"/><path class="cls-5" d="M219.05,55.17c-1.72-4,1.22-9,4.85-11.56s9.32-3.46,13.64-2.93c12.52,1.53,19.31,12.8,26.66,13.76,13.7,1.8,25,9.61,22.07,17.84-1.36,3.89-5.54,4.59-7.67,5.36"/><path class="cls-10" d="M250.71,80.24c-.62,1.16-2.33,3.14-1.2,6.49,1.39,4.11,8.85,5.82,13.29,7.88"/><rect class="cls-2" x="214.76" y="66.14" width="64.59" height="12.3" transform="translate(41.52 -82.68) rotate(20.71)"/><path class="cls-19" d="M259.43,94.13c5.54-2.47,7.88,2,8.23,3.39,1.07,4.45-5.14,6.65-5.91,7.34-1.44,1.32-.8,3.71-1.46,5.55a3.93,3.93,0,0,1-7.19.48"/><path class="cls-5" d="M257.89,106.38a3.33,3.33,0,0,0-4.26,1.33"/><path class="cls-5" d="M260.13,96.94c1.15-.84,4.72-.74,4.88,1.48.23,3.14-5.53,3.24-6.64,3.36"/><path class="cls-10" d="M237.81,81.64s3.21.29,1.8,5.78"/><path class="cls-10" d="M222.74,76.64s3.21.29,1.8,5.78"/><path class="cls-10" d="M227.42,88.8a19.68,19.68,0,0,1,8.84,2.35"/><path class="cls-10" d="M211.93,83.36a19.68,19.68,0,0,1,8.84,2.35"/><path class="cls-1" d="M283.87,140.65l1.93.15a50.68,50.68,0,0,1,5.09.8c1,.21,2.17.48,3.35.8s2.42.69,3.68,1.13,2.55.93,3.85,1.47,2.58,1.16,3.86,1.8,2.51,1.35,3.72,2.07,2.36,1.49,3.45,2.25,2.12,1.55,3.07,2.3l2.65,2.07a29.44,29.44,0,0,0,4.16,2.7,17.4,17.4,0,0,0,1.71.79h0a.33.33,0,0,1-.18.64l-.51-.1a11.79,11.79,0,0,1-1.42-.37,22.2,22.2,0,0,1-4.73-2.22c-.92-.55-1.89-1.18-2.89-1.85L311.53,153c-1.09-.69-2.25-1.37-3.42-2.05s-2.39-1.32-3.62-2-2.47-1.23-3.7-1.79l-1.84-.82-1.82-.76c-1.21-.46-2.37-.93-3.49-1.33s-2.18-.77-3.18-1.07c-2-.64-3.66-1.1-4.83-1.44l-1.87-.5a.33.33,0,0,1,.11-.65Z"/><path class="cls-1" d="M327.11,352.88a28.83,28.83,0,0,1,2.63,2.23c.75.71,1.6,1.56,2.47,2.5s1.77,2,2.65,3c1.76,2.09,3.45,4.25,4.65,5.92l1.41,2.05.51.8a.41.41,0,0,1-.65.51h0l-.66-.67-1.7-1.79L336,364.88l-2.67-3c-.9-1-1.8-2-2.63-3s-1.57-1.9-2.21-2.7c-1.26-1.6-2-2.76-2-2.76a.42.42,0,0,1,.59-.57Z"/><path class="cls-1" d="M185.86,311.66l-5,2.57c-1.51.77-3.24,1.72-5.11,2.71s-3.81,2.14-5.77,3.26-3.87,2.32-5.66,3.45-3.45,2.2-4.85,3.15-2.58,1.73-3.39,2.3l-1.28.88a.5.5,0,0,1-.61-.8s1.75-1.46,4.49-3.5c1.37-1,3-2.16,4.78-3.36s3.72-2.38,5.67-3.56c1-.57,2-1.17,2.95-1.7s2-1.06,2.9-1.56,1.86-1,2.75-1.39,1.72-.82,2.5-1.17c1.55-.72,2.88-1.26,3.8-1.63l1.45-.57a.5.5,0,0,1,.41.91Z"/><path class="cls-5" d="M428.16,462.93a2.22,2.22,0,0,0,.51,3c5.86,4.53,30.29,18.38,34.21,23.81,4.6,6.37,4.54,2.81,4.54,2.81l8.65-25.37-7.31-3.06-27-19a2.22,2.22,0,0,0-2.75.85Z"/><path class="cls-2" d="M487.46,461.26s5.06-1.14,8.21-.19-1.7,29.58-2,34.64-5.1,29.57-9.94,37.81c-4.58,7.8-6.86,16.27-13.91,10.67Z"/><path class="cls-11" d="M487.46,461.26s-11.93-4.68-16.93-1.75,0,8,.32,11.81-1.43,10.86-8.61,16.73-1.82,12.32-1.14,14.23,8.32,18.47,8.05,22.13-5,16.6.68,19.79c0,0,2-.29,4.37-5.86s6.86-16.27,6.68-21.67.52-24.85,1.89-31.55S487.46,461.26,487.46,461.26Z"/><path class="cls-5" d="M467.14,539.17s5.23-8.69,9.68-7.13"/><path class="cls-5" d="M463.36,498.43s7.25,13.55,9.31,22.45c0,0,1,3.31-3.5,3.53"/><line class="cls-5" x1="465.39" y1="499.94" x2="461.11" y2="502.27"/><line class="cls-5" x1="462.59" y1="505.78" x2="467.3" y2="502.68"/><line class="cls-5" x1="463.97" y1="509.01" x2="469.14" y2="505.49"/><line class="cls-5" x1="465.5" y1="512.68" x2="470.69" y2="509.41"/><line class="cls-5" x1="466.87" y1="516.18" x2="472.08" y2="512.85"/><line class="cls-5" x1="468.11" y1="519.64" x2="473.38" y2="516.37"/><path class="cls-5" d="M470.54,459.51s8.62,6.78,4.16,20.54"/></g></g></svg>