<svg xmlns="http://www.w3.org/2000/svg" viewBox="0 0 1525 920"><defs><style>.cls-1,.cls-32,.cls-8{fill:#fff;}.cls-2{fill:#e6e6e6;}.cls-10,.cls-11,.cls-12,.cls-13,.cls-14,.cls-15,.cls-16,.cls-17,.cls-19,.cls-2,.cls-20,.cls-21,.cls-22,.cls-23,.cls-24,.cls-25,.cls-27,.cls-28,.cls-29,.cls-3,.cls-30,.cls-32,.cls-33,.cls-34,.cls-35,.cls-36,.cls-37,.cls-4,.cls-5,.cls-8,.cls-9{stroke:#000;}.cls-10,.cls-11,.cls-12,.cls-13,.cls-14,.cls-15,.cls-16,.cls-17,.cls-19,.cls-2,.cls-20,.cls-21,.cls-24,.cls-25,.cls-33,.cls-34,.cls-35,.cls-36,.cls-37,.cls-8,.cls-9{stroke-miterlimit:10;}.cls-10,.cls-11,.cls-12,.cls-13,.cls-14,.cls-15,.cls-16,.cls-17,.cls-19,.cls-2,.cls-20,.cls-22,.cls-23,.cls-24,.cls-25,.cls-27,.cls-28,.cls-29,.cls-3,.cls-30,.cls-32,.cls-33,.cls-34,.cls-35,.cls-36,.cls-37,.cls-4,.cls-5,.cls-8,.cls-9{stroke-width:2px;}.cls-3{fill:#4d4d4d;}.cls-10,.cls-11,.cls-13,.cls-14,.cls-15,.cls-16,.cls-17,.cls-19,.cls-20,.cls-24,.cls-27,.cls-28,.cls-29,.cls-3,.cls-30,.cls-32,.cls-33,.cls-34,.cls-35,.cls-36,.cls-4,.cls-5,.cls-8,.cls-9{stroke-linecap:round;}.cls-22,.cls-23,.cls-27,.cls-28,.cls-29,.cls-3,.cls-30,.cls-32,.cls-4,.cls-5{stroke-linejoin:round;}.cls-16,.cls-18,.cls-4{fill:#c69c6d;}.cls-13,.cls-21,.cls-23,.cls-37,.cls-5{fill:none;}.cls-6{fill:#b3b3b3;}.cls-7{fill:#ff931e;}.cls-9{fill:#d1c51b;}.cls-10{fill:#f5d1a9;}.cls-11{fill:#cf702c;}.cls-12,.cls-19,.cls-22{fill:#718e52;}.cls-14{fill:#004061;}.cls-15{fill:#00557f;}.cls-17{fill:#603813;}.cls-20{fill:#645eab;}.cls-24{fill:#fcf376;}.cls-25,.cls-26{fill:#ccc;}.cls-27,.cls-31,.cls-34{fill:#855b33;}.cls-28,.cls-33{fill:#333;}.cls-29{fill:#f2f2f2;}.cls-30{fill:#b3d9f5;}.cls-35{fill:#c7b299;}.cls-36{fill:#00a99d;}</style></defs><title>hero-story</title><g id="Layer_2" data-name="Layer 2"><g id="hero-frames"><rect class="cls-1" width="1525" height="920"/></g><g id="heros"><path d="M73.14,727l.56.23a14.88,14.88,0,0,0,1.63.6,19.39,19.39,0,0,0,6.42.92,32.1,32.1,0,0,0,9.95-1.89c3.75-1.24,7.83-3.09,12.33-5.09a77.8,77.8,0,0,1,15.16-5.3,29.5,29.5,0,0,1,8.95-.55,32.87,32.87,0,0,1,4.58.74l2.26.58,2.24.69c5.94,1.91,11.69,4.75,17.77,6a20.42,20.42,0,0,0,9,.06c.71-.23,1.46-.42,2.13-.66.39-.15.76-.31,1.07-.46s.68-.34,1-.51c1.37-.73,2.71-1.6,4.11-2.49a38.19,38.19,0,0,1,4.44-2.52,19.07,19.07,0,0,1,5.07-1.53,29.54,29.54,0,0,1,10.2.43c3.25.63,6.37,1.56,9.38,2.3s6.08,1.44,9.06,2a149.87,149.87,0,0,0,17.39,2.37c5.57.46,10.86.58,15.74.51S253,723,257,722.72c2-.22,3.83-.4,5.53-.63s3.27-.45,4.68-.69c2.82-.49,5-.87,6.53-1.19l2.31-.46h0a.29.29,0,0,1,.13.56l-2.28.62c-.75.2-1.66.46-2.74.73l-3.75.86c-1.41.31-3,.59-4.68.93s-3.57.6-5.55.92c-4,.55-8.49,1-13.44,1.28a159.7,159.7,0,0,1-16-.09A149.87,149.87,0,0,1,210,723.42c-3.06-.58-6.17-1.24-9.22-2s-6.16-1.64-9.25-2.23a26.64,26.64,0,0,0-9.17-.45A16.15,16.15,0,0,0,178,720a35.47,35.47,0,0,0-4.11,2.32c-2.73,1.72-5.68,3.69-9.23,4.45a23.24,23.24,0,0,1-10.28-.15,63.3,63.3,0,0,1-9.32-3c-3-1.15-5.83-2.35-8.68-3.36l-2.13-.71-2.13-.59a29.92,29.92,0,0,0-4.25-.78,27.26,27.26,0,0,0-8.3.34,76.06,76.06,0,0,0-14.86,4.86c-4.54,1.85-8.75,3.58-12.64,4.72a33.24,33.24,0,0,1-10.36,1.59,19.8,19.8,0,0,1-6.65-1.27,15.37,15.37,0,0,1-1.63-.69l-.55-.25a.29.29,0,0,1,.23-.53Z"/><path class="cls-2" d="M1032.15,670.62c-2.28-20.53,10.69-39.3,23-55.86,5-6.71,10.63-13.86,18.75-15.84,3.16-.77,20.28-1.94,23.35-3,5.84-2,9.46-6.42,13.73-10.88,10.21-10.66,29.1-3.15,43.29-7.22,4.39-1.26,9.12-2.52,13.43-1,3.66,1.27,29.17,3,33,3.54,19.92,2.68,13.43,10,33.85,20.14,17.89,8.91,32.46,23.14,46.71,37.15,5,4.94,10.17,10,13.06,16.47s3.06,14.59-1.44,20c-5.13,6.19-14.21,6.91-22.24,7.13-69.39,1.86-152.61,1.63-222-1.17-6.61-.27-17.51-1.4-16.59-9.43"/><path d="M1073,672.52a1.28,1.28,0,0,0,0-2.57,1.28,1.28,0,0,0,0,2.57Z"/><path d="M1063.95,672.52a1.28,1.28,0,0,0,0-2.57,1.28,1.28,0,0,0,0,2.57Z"/><path d="M1060.56,665.74a1.28,1.28,0,0,0,0-2.57,1.28,1.28,0,0,0,0,2.57Z"/><path d="M1059.21,662.42l-1.13-1.13a1.28,1.28,0,0,0-1.82,1.82l1.13,1.13a1.28,1.28,0,0,0,1.82-1.82Z"/><path d="M1053.3,658.83,1051,657.7a1.32,1.32,0,0,0-1.76.46,1.3,1.3,0,0,0,.46,1.76L1052,661a1.32,1.32,0,0,0,1.76-.46,1.3,1.3,0,0,0-.46-1.76Z"/><path d="M1048.13,654.44a1.28,1.28,0,0,0,0-2.57,1.28,1.28,0,0,0,0,2.57Z"/><path d="M1047,646.54a1.28,1.28,0,0,0,0-2.57,1.28,1.28,0,0,0,0,2.57Z"/><path d="M1292.29,667.2a1.5,1.5,0,0,0,0-3,1.5,1.5,0,0,0,0,3Z"/><path d="M1289.44,664.41l-1.67,1.25a1.55,1.55,0,0,0-.54,2.05,1.51,1.51,0,0,0,2.05.54L1291,667a1.55,1.55,0,0,0,.54-2.05,1.51,1.51,0,0,0-2.05-.54Z"/><path d="M1286.52,665.66l-.83.42a1.5,1.5,0,0,0,1.51,2.59l.83-.42a1.5,1.5,0,0,0-1.51-2.59Z"/><path d="M1283.6,666.91l-.83.42a1.5,1.5,0,1,0,1.51,2.59l.83-.42a1.5,1.5,0,1,0-1.51-2.59Z"/><path d="M1280.68,668.16l-.83.42a1.5,1.5,0,0,0,1.51,2.59l.83-.42a1.5,1.5,0,0,0-1.51-2.59Z"/><path d="M1277.34,669.83l-.83.42a1.5,1.5,0,0,0,1.51,2.59l.83-.42a1.5,1.5,0,0,0-1.51-2.59Z"/><path d="M1274,670.68a2.78,2.78,0,0,1-.78.24c.21,0-.3,0-.29,0s-.47,0-.29,0a1.54,1.54,0,0,0-1.85,1,1.52,1.52,0,0,0,1,1.85,5.92,5.92,0,0,0,3.66-.55,1.5,1.5,0,1,0-1.51-2.59Z"/><path d="M1269.35,671.39l-5.85.74a1.55,1.55,0,0,0-1.5,1.5,1.51,1.51,0,0,0,1.5,1.5l5.85-.74a1.55,1.55,0,0,0,1.5-1.5,1.51,1.51,0,0,0-1.5-1.5Z"/><path d="M1258.54,673.13l-.83.42a1.5,1.5,0,0,0,1.51,2.59l.83-.42a1.5,1.5,0,1,0-1.51-2.59Z"/><path d="M1250.14,673.8h-.83a1.5,1.5,0,0,0,0,3h.83a1.5,1.5,0,0,0,0-3Z"/><path d="M1247.21,673.8H1246a1.5,1.5,0,0,0,0,3h1.25a1.5,1.5,0,0,0,0-3Z"/><path d="M1242.66,673.93l-1.26.41a1.53,1.53,0,0,0-1,1.85,1.52,1.52,0,0,0,1.85,1l1.26-.41a1.53,1.53,0,0,0,1-1.85,1.52,1.52,0,0,0-1.85-1Z"/><path d="M1238.87,674.22h-1.25a1.5,1.5,0,0,0,0,3h1.25a1.5,1.5,0,0,0,0-3Z"/><path d="M1233.86,674.64h-1.25a1.5,1.5,0,0,0,0,3h1.25a1.5,1.5,0,0,0,0-3Z"/><path d="M1230.56,675.18l-1.26.41a1.53,1.53,0,0,0-1,1.85,1.52,1.52,0,0,0,1.85,1l1.26-.41a1.53,1.53,0,0,0,1-1.85,1.52,1.52,0,0,0-1.85-1Z"/><path d="M1223,675.47h-.83a1.5,1.5,0,0,0,0,3h.83a1.5,1.5,0,0,0,0-3Z"/><path d="M1218.48,676.08l-1.26.83a1.53,1.53,0,0,0-.54,2.05,1.52,1.52,0,0,0,2.05.54l1.26-.83a1.53,1.53,0,0,0,.54-2.05,1.52,1.52,0,0,0-2.05-.54Z"/><path d="M1214.43,677.16l-.42.42a1.5,1.5,0,1,0,2.12,2.12l.42-.42a1.5,1.5,0,0,0-2.12-2.12Z"/><path d="M1211.74,676.72h-1.25a1.5,1.5,0,0,0,0,3h1.25a1.5,1.5,0,0,0,0-3Z"/><path d="M1205.48,676.31h-.42a1.5,1.5,0,0,0,0,3h.42a1.5,1.5,0,0,0,0-3Z"/><path d="M1188.37,680.56a1.5,1.5,0,0,0,0-3,1.5,1.5,0,0,0,0,3Z"/><path d="M1266.83,638.54h-.42a1.28,1.28,0,0,0,0,2.57h.42a1.28,1.28,0,0,0,0-2.57Z"/><path d="M1265,637.47l-1.25-.83a1.28,1.28,0,0,0-1.3,2.22l1.25.83a1.28,1.28,0,0,0,1.3-2.22Z"/><path d="M1261.4,637.77a1.28,1.28,0,0,0,0-2.57,1.28,1.28,0,0,0,0,2.57Z"/><path d="M1260.8,634.55l-.83-.42a1.32,1.32,0,0,0-1.76.46,1.3,1.3,0,0,0,.46,1.76l.83.42a1.32,1.32,0,0,0,1.76-.46,1.3,1.3,0,0,0-.46-1.76Z"/><path d="M1259.13,633.29l-.83-.42a1.32,1.32,0,0,0-1.76.46,1.3,1.3,0,0,0,.46,1.76l.83.42a1.32,1.32,0,0,0,1.76-.46,1.3,1.3,0,0,0-.46-1.76Z"/><path d="M1254.66,631.88l-2.09-.42a1.32,1.32,0,0,0-1.58.9,1.3,1.3,0,0,0,.9,1.58l2.09.42a1.32,1.32,0,0,0,1.58-.9,1.3,1.3,0,0,0-.9-1.58Z"/><path d="M1250.14,631h-.83a1.28,1.28,0,0,0,0,2.57h.83a1.28,1.28,0,0,0,0-2.57Z"/><path d="M1248,631h-.42a1.28,1.28,0,0,0,0,2.57h.42a1.28,1.28,0,0,0,0-2.57Z"/><path d="M1247.42,630.84l-.83-.42a1.31,1.31,0,0,0-1.76.46,1.3,1.3,0,0,0,.46,1.76l.83.42a1.31,1.31,0,0,0,1.76-.46,1.3,1.3,0,0,0-.46-1.76Z"/><path d="M1244.37,628.9l-.42-.42a1.28,1.28,0,0,0-1.82,1.82l.42.42a1.28,1.28,0,0,0,1.82-1.82Z"/><path d="M1241.65,626.24l-.42-.83a1.28,1.28,0,1,0-2.22,1.3l.42.83a1.28,1.28,0,0,0,2.22-1.3Z"/><path d="M1239.52,623.76l-.42-.83a1.28,1.28,0,1,0-2.22,1.3l.42.83a1.28,1.28,0,0,0,2.22-1.3Z"/><path d="M1237.05,620.4l-.42-.83a1.28,1.28,0,0,0-2.22,1.3l.42.83a1.28,1.28,0,1,0,2.22-1.3Z"/><path d="M1235.6,614.3l-.42-.42a1.28,1.28,0,0,0-1.82,1.82l.42.42a1.28,1.28,0,0,0,1.82-1.82Z"/><path d="M1234.55,612.05l-.42-.83a1.28,1.28,0,1,0-2.22,1.3l.42.83a1.28,1.28,0,1,0,2.22-1.3Z"/><path d="M1233.1,609.7l-.42-.42a1.28,1.28,0,0,0-1.82,1.82l.42.42a1.28,1.28,0,0,0,1.82-1.82Z"/><path d="M1230.33,606.58l-.83-.42a1.32,1.32,0,0,0-1.76.46,1.3,1.3,0,0,0,.46,1.76l.83.42a1.32,1.32,0,0,0,1.76-.46,1.3,1.3,0,0,0-.46-1.76Z"/><path d="M1227.6,607.31a1.28,1.28,0,0,0,0-2.57,1.28,1.28,0,0,0,0,2.57Z"/><path d="M1227,602.83l-.83-.42a1.32,1.32,0,0,0-1.76.46,1.3,1.3,0,0,0,.46,1.76l.83.42a1.32,1.32,0,0,0,1.76-.46,1.3,1.3,0,0,0-.46-1.76Z"/><path d="M1224.68,603.55a1.28,1.28,0,0,0,0-2.57,1.28,1.28,0,0,0,0,2.57Z"/><path d="M1223.78,600.56l-1.67-.42a1.29,1.29,0,0,0-.68,2.48l1.67.42a1.29,1.29,0,0,0,.68-2.48Z"/><path d="M1220.5,602.72a1.28,1.28,0,0,0,0-2.57,1.28,1.28,0,0,0,0,2.57Z"/><path d="M1219.67,602.72a1.28,1.28,0,0,0,0-2.57,1.28,1.28,0,0,0,0,2.57Z"/><path d="M1100.31,596a1.28,1.28,0,0,0,0-2.57,1.28,1.28,0,0,0,0,2.57Z"/><path d="M1100.72,595.62h.42a1.28,1.28,0,0,0,0-2.57h-.42a1.28,1.28,0,0,0,0,2.57Z"/><path d="M1103.23,595.62h.42a1.28,1.28,0,0,0,0-2.57h-.42a1.28,1.28,0,0,0,0,2.57Z"/><path d="M1108.24,596.87h.42a1.28,1.28,0,0,0,0-2.57h-.42a1.28,1.28,0,0,0,0,2.57Z"/><path d="M1113,597.11l.83.42a1.32,1.32,0,0,0,1.76-.46,1.3,1.3,0,0,0-.46-1.76l-.83-.42a1.32,1.32,0,0,0-1.76.46,1.3,1.3,0,0,0,.46,1.76Z"/><path d="M1120.76,599.38a1.28,1.28,0,0,0,0-2.57,1.28,1.28,0,0,0,0,2.57Z"/><path d="M1123.26,599.79a1.28,1.28,0,0,0,0-2.57,1.28,1.28,0,0,0,0,2.57Z"/><path d="M1124.93,599.79a1.28,1.28,0,0,0,0-2.57,1.28,1.28,0,0,0,0,2.57Z"/><path d="M1125.35,599.38a1.28,1.28,0,0,0,0-2.57,1.28,1.28,0,0,0,0,2.57Z"/><path d="M1073.18,619a1.28,1.28,0,0,0,0-2.57,1.28,1.28,0,0,0,0,2.57Z"/><path d="M1070,619.12l-1.25.83a1.31,1.31,0,0,0-.46,1.76,1.3,1.3,0,0,0,1.76.46l1.25-.83a1.31,1.31,0,0,0,.46-1.76,1.3,1.3,0,0,0-1.76-.46Z"/><path d="M1066.28,621.63l-1.25.83a1.31,1.31,0,0,0-.46,1.76,1.3,1.3,0,0,0,1.76.46l1.25-.83a1.31,1.31,0,0,0,.46-1.76,1.3,1.3,0,0,0-1.76-.46Z"/><path d="M1061.7,625l-.83.42a1.28,1.28,0,1,0,1.3,2.22l.83-.42a1.28,1.28,0,0,0-1.3-2.22Z"/><path d="M1058.76,627l-.83.42a1.28,1.28,0,0,0,1.3,2.22l.83-.42a1.28,1.28,0,0,0-1.3-2.22Z"/><path d="M1056.48,631.51a1.28,1.28,0,0,0,0-2.57,1.28,1.28,0,0,0,0,2.57Z"/><path d="M1053.29,631.67l-.42.83a1.32,1.32,0,0,0,.46,1.76,1.3,1.3,0,0,0,1.76-.46l.42-.83a1.32,1.32,0,0,0-.46-1.76,1.3,1.3,0,0,0-1.76.46Z"/><path d="M1051.4,633.91l-.83.83a1.28,1.28,0,0,0,1.82,1.82l.83-.83a1.28,1.28,0,0,0-1.82-1.82Z"/><path d="M1049.11,636.68l-.42.83a1.32,1.32,0,0,0,.46,1.76,1.3,1.3,0,0,0,1.76-.46l.42-.83a1.32,1.32,0,0,0-.46-1.76,1.3,1.3,0,0,0-1.76.46Z"/><path d="M1047.82,638.33l-.42.83a1.32,1.32,0,0,0,.46,1.76,1.3,1.3,0,0,0,1.76-.46l.42-.83a1.32,1.32,0,0,0-.46-1.76,1.3,1.3,0,0,0-1.76.46Z"/><path d="M1193.38,658.22a1.28,1.28,0,0,0,0-2.57,1.28,1.28,0,0,0,0,2.57Z"/><path d="M1188,655.7l-2.09.42a1.28,1.28,0,1,0,.68,2.48l2.09-.42a1.28,1.28,0,1,0-.68-2.48Z"/><path d="M1181.87,656.65l-1.26.83a1.31,1.31,0,0,0-.46,1.76,1.3,1.3,0,0,0,1.76.46l1.26-.83a1.31,1.31,0,0,0,.46-1.76,1.3,1.3,0,0,0-1.76-.46Z"/><path d="M1171.86,661.26l-2.09,1.25a1.29,1.29,0,0,0,1.3,2.22l2.09-1.25a1.29,1.29,0,0,0-1.3-2.22Z"/><path d="M1164.5,664l-.42.42a1.28,1.28,0,0,0,1.82,1.82l.42-.42a1.28,1.28,0,0,0-1.82-1.82Z"/><path d="M1161.66,664.84h-.83a1.28,1.28,0,0,0,0,2.57h.83a1.28,1.28,0,0,0,0-2.57Z"/><path d="M1150.59,665.86l-1.25.83a1.31,1.31,0,0,0-.46,1.76,1.3,1.3,0,0,0,1.76.46l1.25-.83a1.31,1.31,0,0,0,.46-1.76,1.3,1.3,0,0,0-1.76-.46Z"/><path d="M1146.36,667.56l-.42.83a1.32,1.32,0,0,0,.46,1.76,1.3,1.3,0,0,0,1.76-.46l.42-.83a1.32,1.32,0,0,0-.46-1.76,1.3,1.3,0,0,0-1.76.46Z"/><path d="M1143.78,668.61l-1.25.43a1.31,1.31,0,0,0-.9,1.58,1.3,1.3,0,0,0,1.58.9l1.25-.43a1.31,1.31,0,0,0,.9-1.58,1.3,1.3,0,0,0-1.58-.9Z"/><path d="M1140.45,669.47l-2.09.83a1.32,1.32,0,0,0-.9,1.58,1.29,1.29,0,0,0,1.58.9l2.09-.83a1.32,1.32,0,0,0,.9-1.58,1.29,1.29,0,0,0-1.58-.9Z"/><path d="M1133.06,672.14l-1.67.83a1.28,1.28,0,0,0,1.3,2.22l1.67-.83a1.28,1.28,0,1,0-1.3-2.22Z"/><path d="M1129.1,673.18h-1.25a1.28,1.28,0,0,0,0,2.57h1.25a1.28,1.28,0,0,0,0-2.57Z"/><path d="M1122.93,673.3l-2.5.42a1.29,1.29,0,0,0-.9,1.58,1.31,1.31,0,0,0,1.58.9l2.5-.42a1.29,1.29,0,0,0,.9-1.58,1.31,1.31,0,0,0-1.58-.9Z"/><path d="M1118.25,673.6h-.42a1.28,1.28,0,0,0,0,2.57h.42a1.28,1.28,0,0,0,0-2.57Z"/><path d="M1115.75,673.6h-.83a1.28,1.28,0,0,0,0,2.57h.83a1.28,1.28,0,0,0,0-2.57Z"/><path d="M1112.89,673.62l-1.25.43a1.31,1.31,0,0,0-.9,1.58,1.3,1.3,0,0,0,1.58.9l1.25-.43a1.31,1.31,0,0,0,.9-1.58,1.3,1.3,0,0,0-1.58-.9Z"/><path d="M1107.74,675.65l-.83.83a1.28,1.28,0,0,0,1.82,1.82l.83-.83a1.28,1.28,0,0,0-1.82-1.82Z"/><path d="M1106.15,679.93a1.28,1.28,0,0,0,0-2.57,1.28,1.28,0,0,0,0,2.57Z"/><path d="M1242.17,649.43v.83a1.28,1.28,0,0,0,2.57,0v-.83a1.28,1.28,0,0,0-2.57,0Z"/><path d="M1241.33,652.77s0,.35,0,.25-.09.21,0,.05a1.67,1.67,0,0,1-.14.24c.1-.14-.18.12,0,0a1.32,1.32,0,0,0-.46,1.76,1.3,1.3,0,0,0,1.76.46,3.17,3.17,0,0,0,1.46-2.77,1.31,1.31,0,0,0-1.28-1.28,1.3,1.3,0,0,0-1.28,1.28Z"/><path d="M1239.63,655.2l-.42.42a1.28,1.28,0,0,0,1.82,1.82l.42-.42a1.28,1.28,0,0,0-1.82-1.82Z"/><path d="M1278.1,646.12a1.28,1.28,0,0,0,0-2.57,1.28,1.28,0,0,0,0,2.57Z"/><path d="M1273.51,645.7a1.28,1.28,0,0,0,0-2.57,1.28,1.28,0,0,0,0,2.57Z"/><path d="M1271,644.45a1.28,1.28,0,0,0,0-2.57,1.28,1.28,0,0,0,0,2.57Z"/><path d="M1062.33,668.66a1.28,1.28,0,0,0,0-2.57,1.28,1.28,0,0,0,0,2.57Z"/><path d="M1072.76,610.23a1.28,1.28,0,0,0,0-2.57,1.28,1.28,0,0,0,0,2.57Z"/><path d="M1099.05,599a1.28,1.28,0,0,0,0-2.57,1.28,1.28,0,0,0,0,2.57Z"/><path d="M1101.14,597.71a1.28,1.28,0,0,0,0-2.57,1.28,1.28,0,0,0,0,2.57Z"/><path d="M1103.23,597.29a1.28,1.28,0,0,0,0-2.57,1.28,1.28,0,0,0,0,2.57Z"/><path d="M1106.15,597.71a1.28,1.28,0,0,0,0-2.57,1.28,1.28,0,0,0,0,2.57Z"/><path d="M1111.16,600.21a1.28,1.28,0,0,0,0-2.57,1.28,1.28,0,0,0,0,2.57Z"/><path class="cls-3" d="M705.76,701.87q-10.33,3.1-20.38,7c-1.47.58-3.06,1.28-3.76,2.69-.85,1.73-7.11,4.28-6.48,6.1s4.57.84,6.59,4.9c2.7,2,7.31-1.3,9.67,1.11.75.76,1,1.9,1.69,2.7,1.78,2,5.27.85,7.6,2.2,1.9,1.11,2.79,3.77,4.94,4.23,1.8.38,4.15-.86,5.25.61a15.84,15.84,0,0,1,.69,1.44c1,1.67,3.52,1.11,5.32.36s4.33-1.27,5.3.42c.37.65.38,1.49.89,2,.88.92,2.5.33,3.62.94s1.38,2.49,2.55,3.24c1.48.94,3.44-.39,5.14,0,1.41.31,2.28,1.68,3.16,2.82a14.6,14.6,0,0,0,11.66,5.74,29.39,29.39,0,0,1,3.29-.1c1.66.14,3.54.82,4.84-.22l29.94,1.28c2.75,2.4,7,1.33,10.4.13,1.37-.48,5.1-3.39,6-3.76,2.33-1,4.59,1.92,7.12,2a8.06,8.06,0,0,0,3.6-1.3,17.41,17.41,0,0,1,12.51-1.22,3.51,3.51,0,0,0,1.92.21,4.3,4.3,0,0,0,1.43-1,6.18,6.18,0,0,1,6.19-1,4.4,4.4,0,0,0,2.58.67,5.22,5.22,0,0,0,1.79-1.27c3.91-3.11,10.67,2,14.36-1.35a8.32,8.32,0,0,1,1.6-1.47c1.87-1,4.57,1.13,6.08-.33.5-.48.66-1.23,1.1-1.77.89-1.11,2.6-1.06,4-.62s2.67,1.17,4.09,1.1c2.86-.13,5-3.42,7.85-3.08,1,.12,2,.71,3,.4.75-.24,1.24-1,1.92-1.37,2-1.19,4.62.57,6.74-.31,1.61-.67,2.38-2.65,4-3.31,2.38-1,5.77,1.22,7.38-.78.4-.5.57-1.17,1-1.63,1-1,2.83-.46,4.08-1.19,1-.6,1.4-1.92,2.25-2.75,2.34-2.29,6.92-.06,9.26-2.36,1.71-1.68.94-4.66-.55-6.55a11.89,11.89,0,0,0-6.13-4.07,26.92,26.92,0,0,0-4.88-.68,96.48,96.48,0,0,1-18.82-3.52l-85.94-22.26-37.41.24Z"/><polygon class="cls-4" points="810.18 596.31 797.62 605.48 859.57 709.85 866.13 707.51 881.26 699.49 819.03 596.31 810.18 596.31"/><path class="cls-5" d="M869.15,705.91s-57.54-101.35-59-109.6"/><path class="cls-4" d="M771.28,673.14c-13.66,4.41-77.82,20.82-79,31.09-.27,2.34-1,5.62-1,5.62v7.84s11.57,1.34,13.28.64,11-3.45,11-3.45l7.65-4.12s7.47-1.94,12.55-3.1,21.82-6.1,25.72-7.34"/><path class="cls-5" d="M764.28,690.83c-7.37,2.5-44.62,11.57-51.47,13.32s-16.53,7.9-18.38,9.41a14.45,14.45,0,0,0-3.14,4.13"/><polyline class="cls-4" points="805.43 678.84 800.14 697.45 886.97 724.75 894.96 710.77"/><polygon class="cls-4" points="808.21 679.82 894.96 710.77 894.96 701.57 808.21 668.38 805.43 678.84 808.21 679.82"/><path class="cls-4" d="M789.08,628.16a50.15,50.15,0,0,0,19.13-.32l9.68,7.2L782.54,759.32l-26.56-4-12.56-11.82Z"/><line class="cls-5" x1="774.31" y1="747.39" x2="782.54" y2="759.32"/><path class="cls-5" d="M808.21,627.84S792.1,675.29,791,682.2s-7.27,28-8.46,36.14-8.24,29.06-8.24,29.06-25.42-1.15-30.88-3.89"/><path class="cls-5" d="M778.43,695.52c-3.64,8.71-5.64,12.24-10.78,25.89a206.19,206.19,0,0,0-7.66,25"/><path class="cls-6" d="M718.34,722.93c1.9-.48,6.76-1,9,1"/><path d="M718.21,722.35s.13-.1.36-.24a6.76,6.76,0,0,1,1.08-.46,8.85,8.85,0,0,1,3.43-.43,7.1,7.1,0,0,1,3.45,1.09,3.15,3.15,0,0,1,.56.44,2.46,2.46,0,0,1,.38.41c.19.25.28.4.28.4a.59.59,0,0,1-.62.88l-.12,0-.36-.09a8.41,8.41,0,0,0-.91-.19c-.18,0-.39-.05-.6-.09s-.45,0-.68-.07l-1.53-.1c-1.06-.05-2.16-.1-3-.18-.43,0-.77-.08-1-.12l-.43-.06a.66.66,0,0,1-.27-1.17Z"/><path class="cls-6" d="M746.51,717.69c-1.62-1.32-5.23-1.44-6.57,0"/><path d="M746.14,718.2a2.07,2.07,0,0,1-.28-.13,1.1,1.1,0,0,0-.27-.09l-.34-.11a10.74,10.74,0,0,0-2.06-.45,6.19,6.19,0,0,0-2.14.1,2.76,2.76,0,0,0-.66.23l-.24.13-.06,0a.28.28,0,0,1-.36-.41l.21-.28a3.57,3.57,0,0,1,.7-.59,5.17,5.17,0,0,1,1.17-.5,5.79,5.79,0,0,1,1.42-.22,5.36,5.36,0,0,1,2.65.51,3.5,3.5,0,0,1,.47.28,2.57,2.57,0,0,1,.33.26,2,2,0,0,1,.21.23.66.66,0,0,1-.13.92A.67.67,0,0,1,746.14,718.2Z"/><path class="cls-6" d="M802.65,737.68s3.33-3.52,7.14-.48"/><path d="M802.28,737.32a2.26,2.26,0,0,1,.2-.34,4.17,4.17,0,0,1,.67-.76,5,5,0,0,1,1.22-.79A4.88,4.88,0,0,1,806,735a3.62,3.62,0,0,1,.89,0,4.21,4.21,0,0,1,.84.18,5.26,5.26,0,0,1,.73.3,3.87,3.87,0,0,1,.59.36,4,4,0,0,1,.75.66l.25.28a.5.5,0,0,1-.54.8l-.08,0-.31-.11-.33-.14a2.74,2.74,0,0,0-.43-.14,2.55,2.55,0,0,0-.49-.14,4,4,0,0,0-.54-.1,4.48,4.48,0,0,0-.57,0,4.42,4.42,0,0,0-.58,0,6,6,0,0,0-1.14.27c-.37.12-.72.25-1,.38l-.76.32L803,738a.51.51,0,0,1-.73-.72Z"/><path class="cls-6" d="M797.62,729.4a6,6,0,0,1,8-.74"/><path d="M797.36,729.15a4,4,0,0,1,.23-.35,5.46,5.46,0,0,1,.73-.82,5.91,5.91,0,0,1,3.06-1.49,5.63,5.63,0,0,1,1-.06,4.58,4.58,0,0,1,.94.1,4.18,4.18,0,0,1,.84.26,3.16,3.16,0,0,1,.68.36,3.45,3.45,0,0,1,.86.73,2.89,2.89,0,0,1,.27.33.6.6,0,0,1-.55.93h-.09a3,3,0,0,1-.38-.06l-.4-.1c-.14-.06-.32-.06-.49-.12s-.36-.11-.55-.14-.39-.1-.6-.13-.42-.09-.64-.09a3.65,3.65,0,0,0-.66,0,6.82,6.82,0,0,0-2.54.6,12.65,12.65,0,0,0-1.17.57h0a.37.37,0,0,1-.51-.5Z"/><path class="cls-6" d="M742.08,732.23s-2.95-4.57-7.42-.38"/><path d="M741.49,732.63s-.11-.06-.29-.16l-.74-.42-.47-.23c-.16-.08-.34-.12-.5-.2s-.34-.11-.52-.13a3.79,3.79,0,0,0-.52-.08,4.24,4.24,0,0,0-1.09.09c-.18.06-.38.1-.56.14s-.36.13-.53.19c-.35.1-.63.27-.85.34l-.35.12-.08,0a.62.62,0,0,1-.73-.89s.07-.13.22-.35a4.34,4.34,0,0,1,.7-.86c.17-.16.36-.34.58-.51s.49-.31.77-.46a9.87,9.87,0,0,1,.94-.34,6.72,6.72,0,0,1,1.07-.11,3.87,3.87,0,0,1,1.08.15,4.25,4.25,0,0,1,1,.38,4.17,4.17,0,0,1,.76.53,3.69,3.69,0,0,1,.56.57,4,4,0,0,1,.62,1,2.5,2.5,0,0,1,.16.43.7.7,0,1,1-1.17.79Z"/><path class="cls-6" d="M834.89,740.28s-3-2.56-5.75-1.21a6,6,0,0,0-7.77-1.36"/><path d="M834.46,740.8l-1.3-.54c-.43-.17-.85-.33-1.26-.45-.21-.05-.41-.11-.62-.14a5.89,5.89,0,0,0-.61-.09,4.88,4.88,0,0,0-.61,0c-.22,0-.41.05-.65.06h0a.28.28,0,0,1-.3,0l-.47-.23c-.12-.06-.28-.15-.41-.23l-.42-.24c-.27-.16-.56-.29-.82-.43s-.55-.24-.83-.34l-.41-.13a4.25,4.25,0,0,0-.42-.11,2.38,2.38,0,0,0-.43-.08,3.87,3.87,0,0,0-.44-.06,6.44,6.44,0,0,0-.91,0c-.31,0-.63.05-1,.07-.17,0-.33.06-.51.08l-.54.06h0a.36.36,0,0,1-.29-.62c.14-.14.28-.27.43-.4a3.9,3.9,0,0,1,.47-.36,6,6,0,0,1,1.69-.72l.63-.1a3.37,3.37,0,0,1,.64,0,3.21,3.21,0,0,1,.64.05,4.56,4.56,0,0,1,.63.13c.2.06.41.13.61.2a5.38,5.38,0,0,1,2,1.45,4.29,4.29,0,0,1,.68,1.06l-.77-.18h0a3.4,3.4,0,0,1,.8-.46,3.76,3.76,0,0,1,.91-.25,5,5,0,0,1,1.83.12,5.88,5.88,0,0,1,1.6.7,4.93,4.93,0,0,1,1.29,1.14.68.68,0,0,1-.8,1Z"/><path class="cls-6" d="M909.53,718s-4.47-2.61-7.61.88"/><path d="M909.18,718.66l-.3-.08c-.19-.06-.49-.13-.83-.2a8.93,8.93,0,0,0-2.44-.22,5.52,5.52,0,0,0-1.21.22,3.57,3.57,0,0,0-.54.18,2.63,2.63,0,0,0-.48.21,5,5,0,0,0-.72.4l-.29.16-.1.05a.63.63,0,0,1-.82-.89s.07-.13.22-.33l.28-.38a3.74,3.74,0,0,1,.43-.44,2.84,2.84,0,0,1,.59-.45,3.51,3.51,0,0,1,.73-.4,3.66,3.66,0,0,1,.85-.28,4.35,4.35,0,0,1,.91-.14,6.13,6.13,0,0,1,1.76.12,7,7,0,0,1,1.42.46,7.52,7.52,0,0,1,.91.51,3.49,3.49,0,0,1,.33.24.71.71,0,1,1-.7,1.24Z"/><path class="cls-6" d="M882.57,729.88s-3.52-2.76-6.47,0"/><path d="M882.17,730.42l-.28,0-.72-.14c-.29-.05-.61-.13-.93-.18s-.66-.11-1-.15a4.38,4.38,0,0,0-.93,0,1.82,1.82,0,0,0-.44.06,1.71,1.71,0,0,0-.41.09,4.65,4.65,0,0,0-.65.2l-.28.08-.12,0a.67.67,0,0,1-.77-1s.07-.11.2-.3a3.16,3.16,0,0,1,.65-.71,3.83,3.83,0,0,1,1.23-.71,4.36,4.36,0,0,1,1.63-.26,4.6,4.6,0,0,1,2.73,1,3.81,3.81,0,0,1,.67.66,2.06,2.06,0,0,1,.21.31.67.67,0,0,1-.81,1.07Z"/><path class="cls-7" d="M881.91,648.3c-1.72,20.54-11.13,58.23-37.49,66.53-13.47,4.26-42.7,2.89-46.65-17.55a45.1,45.1,0,0,1-8.38,12.78c-5.71,6.05-11.46,9.35-19.74,10.22-16.57,1.71-27.14-15.84-27.14-15.84a27.33,27.33,0,0,1-19.08.58,32.84,32.84,0,0,1-19.6-17.72c-9.18-19.76-7.91-43.48.81-63.45,4.05-9.26,9.59-17.82,13.61-27.1s6.49-19.72,4-29.52c0,0,10.79,2.09,13.6,18.23l.16,0c3.94-9.63,3-12.1,3-12.1-3.11-9.84-6.25-20-5.29-30.28,1.31-14.08,10.08-26.24,18.94-37.27s20.16-28.65,22.87-42.52c0,0,8.75,8.88,10.18,28,6-16.93,17.41-36.21,10.14-60.62a73.85,73.85,0,0,1,29.63,45.75l.3,1.54a49.09,49.09,0,0,1,14.11-9.84s-8.53,24.16,3,51.36c7.58,17.95,20.37,26.22,21.27,48.64a66.58,66.58,0,0,1-2.57,19.75C877.59,600.72,883.64,627.74,881.91,648.3Z"/><path d="M713.1,627.78l.15-.89a24,24,0,0,1,.49-2.51c.14-.54.28-1.16.48-1.8l.68-2.07c.26-.73.58-1.49.89-2.3s.72-1.63,1.12-2.5c.84-1.7,1.8-3.53,2.91-5.39s2.32-3.79,3.58-5.76,2.6-4,3.88-6,2.56-4.16,3.68-6.33c.58-1.06,1.1-2.19,1.64-3.3s1-2.2,1.49-3.31c1-2.22,1.81-4.44,2.58-6.61s1.42-4.3,2-6.33,1-4,1.43-5.78c.2-.9.36-1.77.52-2.6l.42-2.36c.23-1.49.42-2.79.53-3.86.24-2.15.36-3.39.36-3.39h0a.52.52,0,0,1,1,0l0,.9c0,.59.07,1.46,0,2.56s-.06,2.44-.15,4-.29,3.26-.55,5.14-.64,3.9-1.13,6-1.1,4.34-1.82,6.6-1.6,4.56-2.55,6.86c-.47,1.15-1,2.3-1.54,3.45s-1.08,2.25-1.71,3.38a130.34,130.34,0,0,1-7.92,12.49c-1.32,1.92-2.61,3.77-3.75,5.55s-2.2,3.48-3.1,5.09c-.42.82-.86,1.58-1.23,2.33s-.72,1.46-1,2.15l-.79,1.93c-.23.6-.4,1.15-.57,1.66-.37,1-.55,1.85-.72,2.41l-.24.87a.58.58,0,0,1-1.13-.25Z"/><path d="M795.66,569.48c-.4-.89-.77-1.79-1.15-2.69a23.87,23.87,0,0,1-1-2.75l-.86-2.87c-.31-1-.45-1.93-.67-2.9s-.42-1.94-.53-2.92-.24-2-.34-3-.12-2-.18-3-.1-2-.06-3,0-2,.07-3l.22-3c.1-1,.27-2,.4-2.94s.36-1.95.53-2.92.44-1.93.66-2.89.55-1.9.82-2.85.63-1.87,1-2.79a28.66,28.66,0,0,1,1.2-2.74h0a.62.62,0,0,1,1.17.23h0a28,28,0,0,0,2.27,8.22,49.4,49.4,0,0,0,4.23,7.51c3.22,4.81,6.79,9.46,10.28,14.19,1.74,2.38,3.48,4.73,5.15,7.18a78.57,78.57,0,0,1,4.56,7.71,81.36,81.36,0,0,1,3.69,8.15,79.8,79.8,0,0,1,2.72,8.53,83.45,83.45,0,0,1,1.8,8.77c.21,1.48.35,3,.52,4.44s.21,3,.28,4.46.08,2.95.05,4.5-.07,2.91-.21,4.41a64.72,64.72,0,0,1-1.31,8.9,59,59,0,0,1-2.63,8.57,64.38,64.38,0,0,1-3.91,8,68.85,68.85,0,0,1-5.05,7.31c-1.81,2.33-3.76,4.54-5.73,6.71a.26.26,0,0,1-.4-.33c1.75-2.35,3.52-4.69,5.16-7.09a82.43,82.43,0,0,0,4.49-7.45,62.44,62.44,0,0,0,3.44-7.93,57,57,0,0,0,2.16-8.33,62.27,62.27,0,0,0,1-8.51c.11-1.42.06-2.92.11-4.37s-.07-2.86-.1-4.29-.21-2.87-.32-4.31-.34-2.86-.56-4.28a80.83,80.83,0,0,0-1.73-8.45,76.8,76.8,0,0,0-2.62-8.21,80.87,80.87,0,0,0-7.78-15.37c-1.58-2.44-3.26-4.83-4.92-7.24l-5.06-7.19c-1.68-2.42-3.36-4.84-4.89-7.39a51.28,51.28,0,0,1-4-8,27.33,27.33,0,0,1-1.92-8.78h0l1.17.22c-.33.86-.64,1.79-.92,2.7s-.52,1.84-.78,2.77-.44,1.87-.63,2.81-.4,1.87-.52,2.83-.32,1.89-.39,2.84-.21,1.9-.26,2.86l-.17,2.86c0,1,0,1.91,0,2.87s0,1.91.1,2.86.07,1.91.22,2.85.24,1.89.34,2.84.33,1.88.46,2.82.28,1.9.52,2.81l.62,2.78c.16.93.49,1.87.73,2.81s.52,1.88.75,2.83a.65.65,0,0,1-1.23.42Z"/><path d="M735.24,585.07l-.71-2.91-.46-1.38a13.79,13.79,0,0,0-.49-1.37l-.58-1.34a11.47,11.47,0,0,0-.65-1.3c-.24-.42-.44-.86-.71-1.26l-.8-1.2c-.26-.4-.59-.75-.89-1.13a9.94,9.94,0,0,0-1-1.06,10.62,10.62,0,0,0-1-1,11.76,11.76,0,0,0-1.1-.89,14.76,14.76,0,0,0-2.39-1.46,12.3,12.3,0,0,0-1.27-.54,8.43,8.43,0,0,0-1.23-.36h0l1.38-1.47a35.31,35.31,0,0,1,1.12,11.09,44.34,44.34,0,0,1-.65,5.52,47.49,47.49,0,0,1-1.26,5.39,74.32,74.32,0,0,1-3.87,10.27c-1.53,3.34-3.22,6.53-4.93,9.71s-3.44,6.32-5.06,9.5q-1.22,2.38-2.33,4.8l-.54,1.18-.51,1.25-1,2.49a88,88,0,0,0-3.16,10.11c-.48,1.71-.76,3.46-1.13,5.19-.16.87-.27,1.75-.41,2.63s-.28,1.75-.35,2.63l-.27,2.64c-.08.88-.1,1.77-.16,2.65-.14,1.77-.08,3.54-.09,5.31a73.78,73.78,0,0,0,1,10.57c.24,1.76.67,3.47,1,5.2.19.86.47,1.7.7,2.56s.46,1.71.77,2.54l.88,2.5c.28.84.67,1.63,1,2.45l.52,1.22c.08.19.18.43.25.59l.3.61c.39.83.81,1.55,1.23,2.31a33.57,33.57,0,0,0,6.59,8.06,30.13,30.13,0,0,0,8.82,5.5c.81.32,1.63.63,2.46.86s1.71.47,2.54.66a29.24,29.24,0,0,0,5.19.6,24.27,24.27,0,0,0,10.16-1.83h0l-.16-.33h0a1.22,1.22,0,0,1,1.52.46h0a38.07,38.07,0,0,0,3.5,4.58c.63.74,1.32,1.42,2,2.12s1.39,1.35,2.15,1.95a28.9,28.9,0,0,0,9.89,5.63c.9.28,1.83.44,2.74.66s1.87.19,2.8.29l2.81-.1c.43,0,1-.12,1.45-.18l1.4-.24a26.13,26.13,0,0,0,10.41-4.4,40.65,40.65,0,0,0,8.25-8,45.62,45.62,0,0,0,5.81-10,52.41,52.41,0,0,0,3.94-16.94c.08-1,.09-1.94.13-2.91s0-1.95,0-2.92a66.13,66.13,0,0,0-1.42-11.62,79.59,79.59,0,0,0-3.27-11.28,116.17,116.17,0,0,0-4.73-10.83c-1.74-3.56-3.56-7.1-5.38-10.66s-3.6-7.16-5.22-10.86c-.41-.92-.79-1.87-1.17-2.78s-.74-1.9-1.06-2.85c-.69-1.9-1.27-3.84-1.82-5.79a54.85,54.85,0,0,1-1.94-12A39.41,39.41,0,0,1,776,582.09v0l.86.32c-.46,1.08-.89,2.2-1.29,3.32s-.78,2.25-1.15,3.38-.67,2.28-1,3.42-.62,2.29-.9,3.45l-.79,3.47-.65,3.49c-.2,1.17-.35,2.34-.53,3.51s-.27,2.35-.39,3.52-.26,2.35-.28,3.53L769.7,617l0,3.53c0,1.18.07,2.35.14,3.53s.1,2.36.21,3.53l.37,3.52c.07,1.18.28,2.35.46,3.52s.34,2.35.47,3.54v.06a.75.75,0,0,1-1.45.32c-.39-1.15-.75-2.31-1.09-3.49l-.51-1.76c-.17-.59-.25-1.19-.38-1.79l-.66-3.61c-.18-1.21-.24-2.43-.37-3.65a34.25,34.25,0,0,1-.19-3.66v-3.67l.23-3.66c.05-1.22.21-2.43.37-3.64s.29-2.42.53-3.62.42-2.4.67-3.59l.85-3.55,1-3.51c.36-1.16.77-2.3,1.16-3.45s.86-2.27,1.32-3.39,1-2.23,1.48-3.32,1.08-2.17,1.69-3.24a.47.47,0,0,1,.87.31h0v0a40.73,40.73,0,0,0-.55,11.73,58.17,58.17,0,0,0,2.33,11.52,91.45,91.45,0,0,0,4.29,11c1.64,3.59,3.47,7.12,5.33,10.64s3.78,7,5.56,10.63a119,119,0,0,1,4.87,11.08,82.44,82.44,0,0,1,3.42,11.68,69,69,0,0,1,1.51,12.11,57.22,57.22,0,0,1-.83,12.22,54,54,0,0,1-3.48,11.77,48.44,48.44,0,0,1-6.22,10.62,43.33,43.33,0,0,1-8.88,8.57,28.76,28.76,0,0,1-11.5,4.76l-1.56.25c-.51.06-1,.13-1.52.17-1.06,0-2.11.08-3.17.09s-2.11-.2-3.15-.35-2.06-.45-3.06-.77a31.41,31.41,0,0,1-10.73-6.21c-.8-.65-1.51-1.39-2.27-2.09s-1.43-1.47-2.09-2.26a40.13,40.13,0,0,1-3.72-5L743,705h0l-.16-.33h0a25.92,25.92,0,0,1-10.89,2.12,31.06,31.06,0,0,1-5.53-.56c-.92-.2-1.85-.41-2.69-.66s-1.77-.56-2.64-.89a32.13,32.13,0,0,1-9.47-5.74,34.94,34.94,0,0,1-7.09-8.51c-.46-.81-.94-1.65-1.32-2.44l-.3-.6c-.12-.25-.19-.43-.29-.65l-.54-1.26c-.35-.85-.75-1.67-1.05-2.53l-.93-2.58c-.33-.85-.55-1.74-.82-2.62s-.54-1.75-.74-2.64c-.4-1.78-.86-3.56-1.12-5.37a76.12,76.12,0,0,1-1.09-10.9c0-1.83-.07-3.65.06-5.48,0-.91.07-1.83.14-2.73l.26-2.73c.07-.91.21-1.81.34-2.72s.25-1.81.41-2.71c.37-1.79.65-3.59,1.13-5.36a90.19,90.19,0,0,1,3.2-10.5l1-2.5.51-1.25.57-1.28q1.12-2.49,2.34-4.92c1.62-3.24,3.34-6.41,5-9.59s3.31-6.36,4.79-9.56a71.49,71.49,0,0,0,3.76-9.9,48.37,48.37,0,0,0,1.93-10.28,39,39,0,0,0,0-5.2A33.79,33.79,0,0,0,721,567l0-.08a1.16,1.16,0,0,1,.88-1.39,1.18,1.18,0,0,1,.52,0h0a10.3,10.3,0,0,1,1.62.56,14.59,14.59,0,0,1,1.45.71,16.92,16.92,0,0,1,2.63,1.8,13.62,13.62,0,0,1,1.18,1.06,12.24,12.24,0,0,1,1.08,1.15,11.37,11.37,0,0,1,1,1.22c.3.43.64.83.9,1.28l.8,1.34c.26.45.46.93.69,1.39a12.56,12.56,0,0,1,.62,1.41l.54,1.44a15.09,15.09,0,0,1,.45,1.48l.41,1.49.56,2.95a.56.56,0,0,1-1.09.24Z"/><path d="M741.31,704.53s-.43-.72-1.15-2a25.72,25.72,0,0,1-1.21-2.44q-.7-1.45-1.36-3.27c-.48-1.2-.86-2.54-1.32-3.94-.23-.7-.39-1.44-.59-2.19s-.41-1.51-.55-2.3c-.33-1.57-.67-3.19-.91-4.85s-.45-3.35-.66-5-.31-3.39-.31-5.07c0-.84-.05-1.67,0-2.49l.06-2.43c.05-1.59.19-3.13.32-4.59s.31-2.83.6-4.08.45-2.4.75-3.4.47-1.88.74-2.58l.76-2.21a.44.44,0,0,1,.84.25v0l-.58,2.21c-.21.69-.34,1.57-.54,2.56s-.34,2.12-.49,3.35-.21,2.58-.33,4-.1,2.92-.07,4.47l.07,2.36c0,.8.12,1.6.17,2.42.09,1.63.33,3.27.51,4.91s.48,3.27.84,4.86.69,3.15,1.07,4.65.84,2.92,1.25,4.27.83,2.62,1.31,3.75.81,2.22,1.22,3.1.69,1.69,1,2.36c.64,1.32,1,2.09,1,2.09a1.34,1.34,0,0,1-2.37,1.24Z"/><path d="M766,702.18a35.85,35.85,0,0,1-8.27-8.16,47.43,47.43,0,0,1-5.63-10.22,67.89,67.89,0,0,1-3.4-11.12A90.08,90.08,0,0,1,747,661.22a96.83,96.83,0,0,1-.27-11.54q.2-5.76.86-11.48t1.68-11.36c.65-3.77,1.43-7.51,2.4-11.22,1.94-7.4,4.36-14.65,6.68-21.88,1.14-3.62,2.27-7.24,3.28-10.88s1.91-7.29,2.56-11a74.87,74.87,0,0,0,1.07-11.18,75.77,75.77,0,0,0-.36-11.22,43.49,43.49,0,0,0-2.65-10.83,34.84,34.84,0,0,0-5.63-9.64h0l.76-.37a60.38,60.38,0,0,1,1.26,7.43c.13,1.25.27,2.5.34,3.75s.15,2.51.18,3.76,0,2.51,0,3.77-.08,2.51-.14,3.77-.16,2.51-.29,3.76-.28,2.5-.47,3.75a73.75,73.75,0,0,1-1.41,7.43c-.28,1.23-.61,2.45-1,3.66s-.73,2.42-1.17,3.6-.88,2.37-1.37,3.53-1,2.31-1.59,3.44-1.16,2.24-1.81,3.32-1.34,2.13-2,3.18a.55.55,0,0,1-.95-.54l0,0c.55-1.11,1.15-2.18,1.66-3.3s1-2.23,1.49-3.37.9-2.28,1.31-3.43.79-2.32,1.14-3.49.67-2.36,1-3.53.59-2.37.83-3.58.47-2.4.69-3.61.41-2.42.56-3.63.3-2.43.43-3.65.24-2.44.33-3.67c.17-2.45.31-4.9.35-7.36s.06-4.92,0-7.39c0-1.23,0-2.47-.11-3.7s-.11-2.48-.19-3.7v-.09a.43.43,0,0,1,.77-.28h0a33.77,33.77,0,0,1,6.45,9.61,43.34,43.34,0,0,1,3.2,11.17,66.3,66.3,0,0,1,.7,11.56,70.11,70.11,0,0,1-1,11.54A92.49,92.49,0,0,1,764,583.56c-1.1,3.68-2.38,7.29-3.71,10.86-2.62,7.16-5.48,14.21-7.47,21.52a93.72,93.72,0,0,0-2.3,11.11c-.55,3.75-.89,7.53-1.08,11.3s-.26,7.56-.16,11.33.3,7.53.64,11.27a104,104,0,0,0,1.59,11.12,72.72,72.72,0,0,0,3,10.77,50.33,50.33,0,0,0,4.9,10,38,38,0,0,0,7.28,8.44.58.58,0,0,1-.71.92Z"/><path d="M861.7,672.06c.1-.78.22-1.55.34-2.32s.17-1.52.28-2.28l.22-2.3c0-.77.1-1.53.16-2.3l.1-2.3,0-2.3,0-2.31-.12-2.3-.21-2.3-.3-2.29-.36-2.29-.44-2.27-.53-2.26-.6-2.25-.67-2.23-.75-2.21h0l.55-.07c-.15,1.39-.27,2.79-.49,4.17s-.44,2.77-.7,4.15-.56,2.75-.9,4.12-.7,2.72-1.12,4.07-.85,2.68-1.31,4-1,2.65-1.51,3.95-1.1,2.6-1.7,3.88-1.22,2.54-1.87,3.8-1.33,2.49-2.06,3.7-1.47,2.4-2.24,3.61-1.59,2.36-2.43,3.49-1.77,2.24-2.73,3.31a41.52,41.52,0,0,1-3.07,3,33,33,0,0,1-3.46,2.63,24.31,24.31,0,0,1-3.84,2.06,20.79,20.79,0,0,1-4.14,1.3.73.73,0,0,1-.46-1.39l0,0a31.78,31.78,0,0,0,3.6-1.81c.59-.31,1.12-.72,1.69-1.06s1.1-.76,1.61-1.19a35.86,35.86,0,0,0,3-2.62c1-.94,1.89-1.9,2.77-2.92s1.75-2.06,2.57-3.14,1.61-2.14,2.41-3.31,1.52-2.27,2.23-3.44,1.41-2.35,2.1-3.54,1.33-2.4,1.95-3.63,1.22-2.46,1.8-3.71,1.13-2.51,1.66-3.78,1-2.56,1.49-3.85.92-2.6,1.35-3.91.84-2.63,1.21-4,.73-2.67,1-4,.61-2.7.9-4.06h0a.29.29,0,0,1,.55-.06h0l1,2.14.9,2.19.8,2.23.69,2.27.61,2.3.51,2.32.4,2.35.31,2.36.21,2.37.12,2.38v2.38l-.11,2.38c-.07.79-.14,1.58-.23,2.37l-.35,2.36c-.14.79-.3,1.57-.47,2.35s-.38,1.52-.6,2.27a.74.74,0,0,1-1.44-.29Z"/><path d="M824.86,476c-.33-1.11-.6-2.26-.95-3.36s-.67-2.19-1.06-3.28-.77-2.17-1.19-3.23-.88-2.12-1.31-3.18-.93-2.09-1.46-3.11-1-2-1.59-3-1.11-2-1.7-3-1.2-1.94-1.84-2.89-1.29-1.89-2-2.8-1.38-1.82-2.09-2.71-1.45-1.76-2.21-2.62-1.52-1.7-2.31-2.52c-1.57-1.65-3.23-3.22-4.94-4.73q-1.28-1.13-2.61-2.18c-.88-.69-1.81-1.4-2.68-2l2.24-1.7h0a57.16,57.16,0,0,1,2,21.66,83.37,83.37,0,0,1-5.18,21c-2.47,6.73-5.44,13.21-7.78,19.85a55.25,55.25,0,0,0-2.64,10.12,26.4,26.4,0,0,0,.36,10.22,1,1,0,0,1-1.84.47,28.38,28.38,0,0,1-.54-11,57.29,57.29,0,0,1,2.6-10.54c2.3-6.81,5.2-13.32,7.54-20a80.83,80.83,0,0,0,4.77-20.4,54.29,54.29,0,0,0-2.19-20.56h0a1.5,1.5,0,0,1,2.24-1.68c1.08.69,2,1.37,3,2.11s1.86,1.49,2.76,2.27a68.44,68.44,0,0,1,5.13,4.94c1.62,1.73,3.18,3.52,4.64,5.4.71.95,1.43,1.89,2.1,2.87s1.34,2,2,3,1.25,2,1.83,3,1.15,2.07,1.69,3.13,1,2.13,1.49,3.22.9,2.19,1.34,3.28.82,2.22,1.14,3.36.68,2.26,1,3.41.54,2.3.77,3.46.38,2.3.55,3.46a.53.53,0,0,1-1,.23Z"/><path d="M815.13,531.54a70.8,70.8,0,0,1-2.16-9.18c-.27-1.55-.47-3.11-.63-4.68s-.26-3.14-.32-4.72l0-2.37.05-2.37c.07-1.58.19-3.16.38-4.73s.45-3.14.77-4.7.73-3.1,1.2-4.62,1-3,1.65-4.49c.33-.73.65-1.46,1-2.18l1.12-2.12,1.24-2.06,1.35-2a44.45,44.45,0,0,1,3-3.74c.52-.61,1.09-1.18,1.66-1.74s1.14-1.13,1.75-1.65c1.18-1.09,2.46-2.05,3.73-3s2.63-1.84,4-2.62,2.8-1.54,4.21-2.3h0a1.46,1.46,0,0,1,2.07,1.74l0,.09a60,60,0,0,0-2,8.74,80.51,80.51,0,0,0-.82,9c-.09,1.51,0,3,0,4.53s.15,3,.22,4.52l.49,4.5.75,4.46,1,4.41c.4,1.45.87,2.89,1.3,4.33s1,2.83,1.56,4.24l.4,1.06c.06.16.14.39.19.49l.24.53,1,2.1c.66,1.38,1.32,2.67,2,4s1.48,2.64,2.28,3.94c1.57,2.61,3.26,5.17,4.92,7.79s3.31,5.28,4.75,8.09c.75,1.38,1.38,2.84,2,4.28.31.73.57,1.48.86,2.22a22.25,22.25,0,0,1,.77,2.25l.68,2.28.52,2.33c.39,1.54.51,3.13.76,4.69s.23,3.12.34,4.76V570l-.1,2.4a68.41,68.41,0,0,1-1.26,9.33,63.83,63.83,0,0,1-2.54,9.06,44.48,44.48,0,0,1-4.06,8.53,22.48,22.48,0,0,1-6.47,7,.7.7,0,0,1-.81-1.13h0a21.8,21.8,0,0,0,5.66-6.8,47.43,47.43,0,0,0,3.55-8.29,61.46,61.46,0,0,0,2.15-8.81,72,72,0,0,0,1-9l.05-2.22,0-2.31c-.13-1.43-.22-3-.41-4.45s-.4-3-.79-4.41l-.51-2.18-.66-2.14a20.22,20.22,0,0,0-.74-2.11c-.28-.69-.52-1.4-.82-2.08-.63-1.36-1.23-2.73-2-4.05-1.39-2.67-3-5.25-4.66-7.82s-3.38-5.15-5-7.81c-.83-1.32-1.6-2.68-2.38-4s-1.51-2.82-2.18-4.22l-1-2.1-.24-.53c-.12-.25-.15-.39-.23-.59l-.42-1.1c-.54-1.48-1.17-2.92-1.62-4.43s-.93-3-1.35-4.53l-1.06-4.6-.77-4.66-.5-4.69c-.07-1.57-.17-3.14-.2-4.71s0-3.14.08-4.71a83.67,83.67,0,0,1,1-9.37,62.32,62.32,0,0,1,2.19-9.25l2,1.84h0c-1.35.69-2.75,1.31-4,2.09s-2.59,1.57-3.86,2.4-2.45,1.78-3.58,2.79c-.59.47-1.14,1-1.68,1.52s-1.1,1-1.6,1.6a42,42,0,0,0-2.93,3.46l-1.32,1.85-1.21,1.92-1.1,2-1,2c-.62,1.39-1.18,2.8-1.67,4.24s-.9,2.91-1.25,4.4-.63,3-.85,4.51-.37,3-.47,4.58l-.1,2.3,0,2.31c0,1.54.09,3.08.21,4.61s.28,3.07.51,4.59a69.3,69.3,0,0,0,1.92,9.06.64.64,0,0,1-1.24.36Z"/><path d="M717.57,675.92l-.23-.8c-.14-.53-.39-1.28-.62-2.28s-.52-2.27-.7-3.7a46,46,0,0,1-.5-4.83,55.57,55.57,0,0,1,0-5.75,61.15,61.15,0,0,1,.73-6.37c.36-2.19.88-4.43,1.46-6.68s1.33-4.49,2.13-6.71,1.66-4.4,2.61-6.51,1.89-4.17,2.89-6.12,2-3.83,2.95-5.58,1.89-3.4,2.76-4.9c1.72-3,3.17-5.51,4.05-7.31.45-.9.78-1.6,1-2.09l.31-.75v0a.51.51,0,0,1,1,.32l-.22.83a21.91,21.91,0,0,1-.75,2.29c-.36,1-.84,2.12-1.41,3.43s-1.25,2.76-2,4.33l-2.44,5.05c-.85,1.8-1.78,3.67-2.68,5.63s-1.84,4-2.7,6.07-1.72,4.21-2.5,6.36-1.45,4.33-2.09,6.48-1.13,4.3-1.51,6.39a58.44,58.44,0,0,0-.89,6.06c-.19,1.94-.27,3.78-.28,5.48s0,3.26.19,4.64.3,2.55.42,3.54.33,1.78.42,2.31l.15.82a.79.79,0,0,1-1.54.37Z"/><path d="M824.93,578.78c.52-2.28,1.11-4.59,1.65-6.85s1.06-4.54,1.51-6.82c.23-1.14.46-2.28.64-3.43s.4-2.29.55-3.44.34-2.3.45-3.45.28-2.31.34-3.47.19-2.32.22-3.47l.09-3.48-.08-3.48c0-1.16-.16-2.31-.24-3.47s-.25-2.31-.41-3.46l-.24-1.73c-.1-.57-.23-1.14-.34-1.71-.26-1.13-.41-2.29-.77-3.4l-1-3.36v0a.35.35,0,0,1,.56-.35h0a19.54,19.54,0,0,1,2,1.72c.62.62,1.24,1.24,1.8,1.91s1.13,1.34,1.66,2,1,1.43,1.52,2.14.92,1.49,1.39,2.23.85,1.53,1.28,2.3.79,1.57,1.15,2.36.76,1.58,1.06,2.41l.95,2.45c.3.82.55,1.66.83,2.49s.57,1.66.75,2.51l.63,2.55c.21.85.32,1.72.47,2.58l.35,2.59a50.54,50.54,0,0,1,.17,5.23.56.56,0,0,1-1.1.17v0c-.28-.83-.54-1.65-.76-2.48s-.42-1.65-.64-2.48l-.68-2.46c-.21-.82-.37-1.65-.64-2.45-.46-1.62-.85-3.27-1.36-4.87-.25-.8-.47-1.62-.74-2.42l-.84-2.38c-.25-.81-.6-1.57-.9-2.36s-.62-1.57-1-2.32-.65-1.55-1.05-2.3-.75-1.51-1.15-2.25-.79-1.49-1.24-2.2-.86-1.45-1.34-2.15-1-1.39-1.45-2.08-1-1.35-1.6-2h0l.55-.38,1.11,3.36c.4,1.11.61,2.28.92,3.42.14.57.3,1.14.42,1.72l.32,1.74c.2,1.16.45,2.32.56,3.5s.31,2.35.39,3.53l.23,3.54.06,3.55c0,1.18-.05,2.36-.08,3.55s-.13,2.36-.2,3.54-.2,2.36-.31,3.53-.26,2.35-.42,3.52-.33,2.34-.51,3.51c-.36,2.34-.8,4.65-1.25,7s-.94,4.57-1.36,6.88a1.5,1.5,0,1,1-3-.54v-.07Z"/><path d="M738.47,573c-1.63-4.82-3.26-9.66-4.43-14.66a52,52,0,0,1-1.48-15.4c0-.73.13-1.29.19-1.94s.13-1.26.26-1.92l.35-2,.46-1.9a47.8,47.8,0,0,1,2.54-7.37,65.21,65.21,0,0,1,3.49-6.94c1.27-2.25,2.67-4.42,4.12-6.54s3-4.19,4.51-6.24,3.13-4,4.69-6,3-4,4.43-6.1,2.85-4.16,4.2-6.28,2.66-4.28,3.89-6.47,2.41-4.41,3.51-6.67c.55-1.13,1-2.28,1.56-3.42s1-2.3,1.38-3.48a65.53,65.53,0,0,0,2.18-7.12h0l0-.12a1.1,1.1,0,0,1,1.88-.45,19.21,19.21,0,0,1,1.28,1.58c.39.53.76,1.06,1.11,1.61a37.28,37.28,0,0,1,1.93,3.37c.31.57.57,1.16.84,1.74s.53,1.17.77,1.77c.51,1.18.91,2.4,1.34,3.61l.55,1.84c.2.61.33,1.24.49,1.86s.32,1.24.44,1.87l.36,1.88c.26,1.25.38,2.52.57,3.78.09.63.12,1.27.18,1.9l.16,1.9a.66.66,0,0,1-1.3.13v0l-.22-1.86c-.08-.62-.13-1.24-.23-1.85-.23-1.22-.38-2.46-.67-3.67l-.41-1.82c-.13-.61-.33-1.2-.49-1.8s-.32-1.2-.53-1.78l-.59-1.76c-.45-1.15-.87-2.32-1.4-3.44-.25-.57-.5-1.13-.79-1.67s-.55-1.11-.86-1.64a35.18,35.18,0,0,0-1.93-3.13c-.34-.51-.71-1-1.08-1.47s-.78-1-1.14-1.33l1.91-.57h0a38.91,38.91,0,0,1-.84,3.82c-.17.63-.33,1.26-.52,1.88l-.62,1.85c-.4,1.24-.91,2.42-1.36,3.64s-1,2.38-1.54,3.55c-1.08,2.34-2.22,4.65-3.46,6.9s-2.52,4.48-3.86,6.67-2.75,4.34-4.23,6.44-3,4.16-4.57,6.21-3.2,4-4.76,5.95-3.1,4-4.55,6-2.85,4.13-4.13,6.28a62.7,62.7,0,0,0-3.49,6.62,51,51,0,0,0-2.59,7l-.49,1.79-.38,1.79c-.14.59-.22,1.22-.31,1.85s-.21,1.3-.24,1.85a52.61,52.61,0,0,0,.95,14.91c.94,5,2.35,9.83,3.77,14.72a.45.45,0,0,1-.85.27Z"/><path d="M861.79,588.1s.61.48,1.74,1.44a44.25,44.25,0,0,1,4.54,4.6,51.9,51.9,0,0,1,5.73,8.22,67.42,67.42,0,0,1,5.27,11.88,84.78,84.78,0,0,1,3.55,15,88.68,88.68,0,0,1,.83,17.18A123.23,123.23,0,0,1,875,682.52a78.16,78.16,0,0,1-9.12,16.6,46.7,46.7,0,0,1-13.42,12.59,36.06,36.06,0,0,1-8.12,3.59,66.33,66.33,0,0,1-8.25,2,44,44,0,0,1-15.55-.29A36.1,36.1,0,0,1,808,712.33a25.23,25.23,0,0,1-10.7-13c-.49-1.46-.71-2.25-.71-2.25a1.17,1.17,0,0,1,2.24-.69v0s.24.71.75,2a23.83,23.83,0,0,0,3,5.23,24.35,24.35,0,0,0,2.87,3.17,26.55,26.55,0,0,0,4.07,3,35.56,35.56,0,0,0,11.5,4.19,65.73,65.73,0,0,0,14.72.76,34,34,0,0,0,8-1.26,33.42,33.42,0,0,0,7.67-3.43,43.44,43.44,0,0,0,12.76-12.16,74.87,74.87,0,0,0,8.61-16.28,123.55,123.55,0,0,0,7.74-35.48,86,86,0,0,0-.32-16.68,82.6,82.6,0,0,0-3-14.67,65.67,65.67,0,0,0-4.79-11.72A50.47,50.47,0,0,0,867.1,595a43.16,43.16,0,0,0-4.27-4.59c-1.08-1-1.69-1.48-1.69-1.48a.51.51,0,0,1,.64-.8Z"/><path d="M792.64,639.31l.49-.86.59-1c.24-.41.41-.88.67-1.4a13.09,13.09,0,0,0,.73-1.77,18.09,18.09,0,0,0,.69-2.17,20.22,20.22,0,0,0,.55-2.53c.07-.45.17-.91.23-1.38l.15-1.46c.13-1,.09-2,.15-3.13s0-2.21-.16-3.36a64.85,64.85,0,0,0-1-7.22c-.49-2.5-1.16-5-1.86-7.64s-1.54-5.21-2.41-7.81-1.74-5.22-2.63-7.78l-2.58-7.57c-1.66-4.93-3-9.6-4.06-13.66l-.69-2.92-.51-2.67c-.28-1.68-.51-3.15-.64-4.37s-.19-2.18-.24-2.84l-.06-1a.67.67,0,0,1,1.34-.15v0l.15,1c.1.63.23,1.56.46,2.73s.53,2.59.91,4.21.91,3.43,1.48,5.4,1.26,4.09,2,6.32,1.62,4.58,2.48,7l2.71,7.51c.91,2.57,1.82,5.19,2.7,7.83s1.66,5.32,2.39,8,1.31,5.31,1.77,7.91a54.3,54.3,0,0,1,.83,7.59c.09,1.21,0,2.41,0,3.56s-.11,2.26-.3,3.32l-.22,1.56c-.08.51-.21,1-.32,1.47a22.12,22.12,0,0,1-.77,2.67,19.72,19.72,0,0,1-.89,2.27,14.59,14.59,0,0,1-.93,1.87,17.69,17.69,0,0,1-1.53,2.42l-.57.81a.64.64,0,0,1-1.08-.69Z"/><polygon class="cls-4" points="807.96 703.53 805.37 713.79 807.01 722.45 811.62 721.88 809.45 704.29 807.96 703.53"/><path class="cls-4" d="M809.26,712.69c.72-1.16,47.61,3.6,53.44,4.22s15.64.89,15.64.89l-5.5-9.58L811.13,696.1s-4.35,5.84-2.87,8.49S809.26,712.69,809.26,712.69Z"/><path class="cls-4" d="M878.34,717.81s-3.08,12.32-3.93,14.77-7.58,3.86-7.58,3.86-25.71-6.4-32.06-6.15-21.88-4.41-21.88-4.41L807,722.45l2.25-9.76Z"/><line class="cls-5" x1="769.21" y1="752.05" x2="775.82" y2="758.31"/><path d="M643.75,835.59a1.5,1.5,0,0,0,0-3,1.5,1.5,0,0,0,0,3Z"/><path d="M636.41,835.25a1.5,1.5,0,0,0,0-3,1.5,1.5,0,0,0,0,3Z"/><path class="cls-8" d="M441.28,811.09c8.69-1.13,16.77-5.08,24.27-9.63,1.36-.82,3.29-1.61,4.36-.44a2.58,2.58,0,0,1,.57,1.34c.35,2.11.43,2.22-1.1,3.72s-5.91,3.6-7.87,4.46c-6.89,3-12.83,6.14-20.23,7.5"/><path class="cls-9" d="M439.25,795.75l-.37,17.67s10.31-1.21,18-4.67a36.6,36.6,0,0,0,11.87-8.32,33.14,33.14,0,0,0-.38-9c-.59-2.09-2.21-4-4.36-4.37a8.6,8.6,0,0,0-4.06.73l-14.18,5Z"/><path class="cls-8" d="M450.87,795.75a5.19,5.19,0,0,0-2.66-3.82"/><path class="cls-8" d="M447.37,798.11s-.86-4.14-2.62-4.85"/><path class="cls-8" d="M442.8,799.23s8.07-2.15,10.19-3.55"/><path class="cls-10" d="M421.76,547a63.92,63.92,0,0,1,7.76-1.36c1.08-.12,2.42-.1,3,.85a2,2,0,0,1-.38,2.21,5.11,5.11,0,0,1-2,1.22,30.45,30.45,0,0,1-8.36,1.9"/><path class="cls-10" d="M417.15,525.09c1.31,1.09,2.27,1.6,3,3.15,2.39,5.08,2.87,10.87,2.37,16.46-1.94,21.72-6.94,28.07-14.54,31.89l-28.07,1.87V526.09Z"/><path class="cls-11" d="M351.41,538.18c-2.31-5.06-3.82-11.37-3.29-16.91.35-3.67,2.73-9.45,4.51-12.67a20,20,0,0,1,5.26-5.84,38.49,38.49,0,0,1,36.56-5.84,15.85,15.85,0,0,1,5.83,3.4c1.6,1.6,3.29,6.31,3,8.56a30.32,30.32,0,0,1,6.32-1.06,10.45,10.45,0,0,1,6.12,1.56,9.23,9.23,0,0,1,3.15,3.83,11.38,11.38,0,0,1-1.68,11.89c-.39,3.87-1.58,10.57-2,14.44a2.45,2.45,0,0,1-1.94,2.54l-6.86,3a4.73,4.73,0,0,0-3.33,3.66l-4.9,13.88H353.59Z"/><path class="cls-12" d="M321,563.18c-3.87.46-6.5,9.43-5.58,16.57.34,2.68,2.33,3,2.33,3L398,568.15a4.63,4.63,0,0,0-.52-5.17,12.62,12.62,0,0,0-4.42-3.27c-4.39-2.3-9.06-4.42-12.33-8.15-1.66-1.9-2.9-4.15-4.63-6s-4.22-3.25-6.7-2.79l-.16-.63c-3.77-1.72-7.62-3.46-11.74-3.89s-8.62.65-11.32,3.8a19.67,19.67,0,0,1-2.48,2.89,11.07,11.07,0,0,1-3.29,1.52,41,41,0,0,0-6,2.65c-1.85,1-3.84,2.54-3.76,4.64.08,2.3,2.56,3.68,4.78,4.3l-1.15,2.32Z"/><path class="cls-13" d="M373.06,551.23a90.81,90.81,0,0,0-24,.59"/><path class="cls-13" d="M321,563.18c11.24-1.34,21.36-4.77,32.6-6.11"/><path class="cls-14" d="M393.94,763.09c3.9-6.22,33.11-94,35-101.05l-53.74,15.12-3.82,79.7,6.24,8.57Z"/><path class="cls-2" d="M373.45,757.11c21-.69,69.69,12.25,72.82,23.2,2.42,8.48-3.93,16.82-5.23,25.54-1,6.49.91,13.15-.06,19.63a23,23,0,0,1-13.25,17.32,45.19,45.19,0,0,1-9.28,2.58c-11.52,2.33-71,4-82.55,6.28a33.19,33.19,0,0,1-8.35,1c-4.14-.23-8-2-11.91-3.37-10.54-3.73-21.78-4.86-32.84-6.46-7.28-1.05-14.78-2.43-20.85-6.59-6.35-4.35-10.4-11.25-14.09-18a59.5,59.5,0,0,1-5.71-12.91c-2-7.28-1.24-15-.51-22.49.49-5,1-10.05,2.66-14.78,3.13-8.82,10-15.69,16.75-22.23Z"/><path d="M434.75,787.7a1.28,1.28,0,0,0,0-2.57,1.28,1.28,0,0,0,0,2.57Z"/><path d="M434.08,787.7a1.28,1.28,0,0,0,0-2.57,1.28,1.28,0,0,0,0,2.57Z"/><path d="M431.5,786.85l-.33.33A1.28,1.28,0,0,0,433,789l.33-.33a1.28,1.28,0,0,0-1.82-1.82Z"/><path d="M428.75,787.8h-.33a1.28,1.28,0,0,0,0,2.57h.33a1.28,1.28,0,0,0,0-2.57Z"/><path d="M426.1,788.64l-.67.33a1.28,1.28,0,0,0,1.3,2.22l.67-.33a1.28,1.28,0,1,0-1.3-2.22Z"/><path d="M421.84,790.51l-.33.33a1.28,1.28,0,0,0,1.82,1.82l.33-.33a1.28,1.28,0,0,0-1.82-1.82Z"/><path d="M419.41,793.7a1.28,1.28,0,0,0,0-2.57,1.28,1.28,0,0,0,0,2.57Z"/><path d="M413.5,792.85l-.33.33A1.28,1.28,0,0,0,415,795l.33-.33a1.28,1.28,0,0,0-1.82-1.82Z"/><path d="M408.08,796.37a1.28,1.28,0,0,0,0-2.57,1.28,1.28,0,0,0,0,2.57Z"/><path d="M405.41,797a1.28,1.28,0,0,0,0-2.57,1.28,1.28,0,0,0,0,2.57Z"/><path d="M401.74,795.18l-1,.33a1.31,1.31,0,0,0-.9,1.58,1.3,1.3,0,0,0,1.58.9l1-.33a1.31,1.31,0,0,0,.9-1.58,1.3,1.3,0,0,0-1.58-.9Z"/><path d="M397.75,798.37a1.28,1.28,0,0,0,0-2.57,1.28,1.28,0,0,0,0,2.57Z"/><path d="M394.41,798.7a1.28,1.28,0,0,0,0-2.57,1.28,1.28,0,0,0,0,2.57Z"/><path d="M391.08,799a1.28,1.28,0,0,0,0-2.57,1.28,1.28,0,0,0,0,2.57Z"/><path d="M389.41,796.47h-.67a1.28,1.28,0,0,0,0,2.57h.67a1.28,1.28,0,0,0,0-2.57Z"/><path d="M385.08,798.7a1.28,1.28,0,0,0,0-2.57,1.28,1.28,0,0,0,0,2.57Z"/><path d="M383.41,796.14h-.33a1.28,1.28,0,0,0,0,2.57h.33a1.28,1.28,0,0,0,0-2.57Z"/><path d="M379.75,798.7a1.28,1.28,0,0,0,0-2.57,1.28,1.28,0,0,0,0,2.57Z"/><path d="M375.41,798.7a1.28,1.28,0,0,0,0-2.57,1.28,1.28,0,0,0,0,2.57Z"/><path d="M370.08,799.7a1.28,1.28,0,0,0,0-2.57,1.28,1.28,0,0,0,0,2.57Z"/><path d="M365.41,800a1.28,1.28,0,0,0,0-2.57,1.28,1.28,0,0,0,0,2.57Z"/><path d="M360.08,799a1.28,1.28,0,0,0,0-2.57,1.28,1.28,0,0,0,0,2.57Z"/><path d="M356.41,796.47h-1.67a1.28,1.28,0,0,0,0,2.57h1.67a1.28,1.28,0,0,0,0-2.57Z"/><path d="M346.08,796.53l-1,.34a1.31,1.31,0,0,0-.9,1.58,1.3,1.3,0,0,0,1.58.9l1-.34a1.31,1.31,0,0,0,.9-1.58,1.3,1.3,0,0,0-1.58-.9Z"/><path d="M342.41,799.7a1.28,1.28,0,0,0,0-2.57,1.28,1.28,0,0,0,0,2.57Z"/><path d="M339.75,797.47h-.33a1.28,1.28,0,0,0,0,2.57h.33a1.28,1.28,0,0,0,0-2.57Z"/><path d="M440.41,807.37a1.28,1.28,0,0,0,0-2.57,1.28,1.28,0,0,0,0,2.57Z"/><path d="M436.1,807l-2.33,1.33a1.29,1.29,0,0,0,1.3,2.22l2.33-1.33a1.29,1.29,0,0,0-1.3-2.22Z"/><path d="M429.41,812.37a1.28,1.28,0,0,0,0-2.57,1.28,1.28,0,0,0,0,2.57Z"/><path d="M424.75,813.37a1.28,1.28,0,0,0,0-2.57,1.28,1.28,0,0,0,0,2.57Z"/><path d="M422.17,812.51l-.33.33a1.28,1.28,0,0,0,1.82,1.82l.33-.33a1.28,1.28,0,0,0-1.82-1.82Z"/><path d="M419.17,813.51l-.67.67a1.28,1.28,0,0,0,1.82,1.82l.67-.67a1.28,1.28,0,0,0-1.82-1.82Z"/><path d="M414.75,814.14h-2a1.28,1.28,0,0,0,0,2.57h2a1.28,1.28,0,0,0,0-2.57Z"/><path d="M437.1,816l-.67.33a1.28,1.28,0,0,0,1.3,2.22l.67-.33a1.28,1.28,0,1,0-1.3-2.22Z"/><path d="M428.75,819a1.28,1.28,0,0,0,0-2.57,1.28,1.28,0,0,0,0,2.57Z"/><path d="M240.13,792.09v.33a1.28,1.28,0,0,0,2.57,0v-.33a1.28,1.28,0,0,0-2.57,0Z"/><path d="M242.77,795.18l1,.66a1.28,1.28,0,1,0,1.3-2.22l-1-.66a1.28,1.28,0,0,0-1.3,2.22Z"/><path d="M246.08,797h.67a1.28,1.28,0,0,0,0-2.57h-.67a1.28,1.28,0,0,0,0,2.57Z"/><path d="M248.75,797.7a1.28,1.28,0,0,0,0-2.57,1.28,1.28,0,0,0,0,2.57Z"/><path d="M251.75,799a1.28,1.28,0,0,0,0-2.57,1.28,1.28,0,0,0,0,2.57Z"/><path d="M254.41,800h.33a1.28,1.28,0,0,0,0-2.57h-.33a1.28,1.28,0,0,0,0,2.57Z"/><path d="M257.1,801.2l.67.33a1.32,1.32,0,0,0,1.76-.46,1.3,1.3,0,0,0-.46-1.76l-.67-.33a1.32,1.32,0,0,0-1.76.46,1.3,1.3,0,0,0,.46,1.76Z"/><path d="M263.41,803.7a1.28,1.28,0,0,0,0-2.57,1.28,1.28,0,0,0,0,2.57Z"/><path d="M265.08,804.7a1.28,1.28,0,0,0,0-2.57,1.28,1.28,0,0,0,0,2.57Z"/><path d="M254.8,756.42v1a1.28,1.28,0,0,0,2.57,0v-1a1.28,1.28,0,0,0-2.57,0Z"/><path d="M254.64,760.4l.33.67a1.28,1.28,0,1,0,2.22-1.3l-.33-.67a1.28,1.28,0,0,0-2.22,1.3Z"/><path d="M256.3,763.73l.33.67a1.28,1.28,0,0,0,2.22-1.3l-.33-.67a1.28,1.28,0,1,0-2.22,1.3Z"/><path d="M258.51,770.76l.33,1.33a1.29,1.29,0,0,0,2.48-.68l-.33-1.33a1.29,1.29,0,0,0-2.48.68Z"/><path d="M262.07,778.24l1.67,1A1.29,1.29,0,0,0,265,777l-1.67-1a1.29,1.29,0,0,0-1.3,2.22Z"/><path d="M266.5,779.66l.33.33a1.28,1.28,0,0,0,1.82-1.82l-.33-.33a1.28,1.28,0,0,0-1.82,1.82Z"/><path d="M271.08,780.37a1.28,1.28,0,0,0,0-2.57,1.28,1.28,0,0,0,0,2.57Z"/><path d="M276.43,780l1-.34a1.31,1.31,0,0,0,.9-1.58,1.3,1.3,0,0,0-1.58-.9l-1,.34a1.31,1.31,0,0,0-.9,1.58,1.3,1.3,0,0,0,1.58.9Z"/><path d="M278.41,779.37h.33a1.28,1.28,0,0,0,0-2.57h-.33a1.28,1.28,0,0,0,0,2.57Z"/><path d="M282.08,779.37a1.28,1.28,0,0,0,0-2.57,1.28,1.28,0,0,0,0,2.57Z"/><path d="M285.75,780l3.33.33a1.29,1.29,0,0,0,1.28-1.28,1.31,1.31,0,0,0-1.28-1.28l-3.33-.33a1.29,1.29,0,0,0-1.28,1.28,1.31,1.31,0,0,0,1.28,1.28Z"/><path d="M293.43,780.53l.67.33a1.32,1.32,0,0,0,1.76-.46,1.3,1.3,0,0,0-.46-1.76l-.67-.33a1.32,1.32,0,0,0-1.76.46,1.3,1.3,0,0,0,.46,1.76Z"/><path d="M296.1,781.86a7.13,7.13,0,0,0,3,1.15,1.33,1.33,0,0,0,1.58-.9,1.29,1.29,0,0,0-.9-1.58,5.41,5.41,0,0,1-2.35-.89,1.28,1.28,0,1,0-1.3,2.22Z"/><path d="M302.73,783.68l1,.34a1.28,1.28,0,0,0,.68-2.48l-1-.34a1.28,1.28,0,0,0-.68,2.48Z"/><path d="M300.08,810a1.28,1.28,0,0,0,0-2.57,1.28,1.28,0,0,0,0,2.57Z"/><path d="M304.76,812.53l4.67,2.33c1.47.74,2.78-1.48,1.3-2.22l-4.67-2.33c-1.47-.74-2.78,1.48-1.3,2.22Z"/><path d="M310.5,815.66l.33.33a1.28,1.28,0,0,0,1.82-1.82l-.33-.33a1.28,1.28,0,0,0-1.82,1.82Z"/><path d="M313.41,817.37h.33a1.28,1.28,0,0,0,0-2.57h-.33a1.28,1.28,0,0,0,0,2.57Z"/><path d="M315.74,818.32l1,.33a1.28,1.28,0,1,0,.68-2.48l-1-.33a1.28,1.28,0,0,0-.68,2.48Z"/><path d="M323.41,819.37a1.28,1.28,0,0,0,0-2.57,1.28,1.28,0,0,0,0,2.57Z"/><path d="M325.74,820.32l1.67.67a1.29,1.29,0,0,0,1.58-.9,1.32,1.32,0,0,0-.9-1.58l-1.67-.67a1.29,1.29,0,0,0-1.58.9,1.32,1.32,0,0,0,.9,1.58Z"/><path d="M336.08,827a1.28,1.28,0,0,0,0-2.57,1.28,1.28,0,0,0,0,2.57Z"/><path d="M340.41,831.37h.67a1.28,1.28,0,0,0,0-2.57h-.67a1.28,1.28,0,0,0,0,2.57Z"/><path d="M349.76,834.2l2,1a1.32,1.32,0,0,0,1.76-.46,1.3,1.3,0,0,0-.46-1.76l-2-1a1.32,1.32,0,0,0-1.76.46,1.3,1.3,0,0,0,.46,1.76Z"/><path d="M355.41,836h.67a1.28,1.28,0,0,0,0-2.57h-.67a1.28,1.28,0,0,0,0,2.57Z"/><path d="M359.08,836a1.28,1.28,0,0,0,0-2.57,1.28,1.28,0,0,0,0,2.57Z"/><path d="M349.75,798h1.67a1.28,1.28,0,0,0,0-2.57h-1.67a1.28,1.28,0,0,0,0,2.57Z"/><path class="cls-13" d="M406,761.52c3.08-10.2,5.49-21,8.79-31A260.21,260.21,0,0,1,384.34,750c-4.4,2.45-8.87,4.83-13.49,6.86-2.31,1-4.65,1.93-7,2.73-19,6.32-39.68,4.35-59.57,1.91-20.06,0-34.17-6.27-41.9-15.56a31.75,31.75,0,0,1-3-4.24,20.84,20.84,0,0,1-2.05-4.51c-1.13-3.79-.62-7.85-.1-11.77L380.84,685a172,172,0,0,1,40.53-14c7.45-1.6,15.18-2.68,22.67-1.26s14.75,5.68,18.18,12.47c4,7.9,2.19,17.4-.21,25.91a221.11,221.11,0,0,1-28.61,62.3"/><path class="cls-15" d="M462,708.16a221.1,221.1,0,0,1-28.61,62.3A158.17,158.17,0,0,0,406,761.52c3.08-10.2,5.49-21,8.79-31A260.19,260.19,0,0,1,384.34,750c-4.4,2.45-8.87,4.83-13.49,6.86-2.31,1-4.65,1.93-7.05,2.73-19,6.32-39.68,4.35-59.57,1.91-20.06,0-34.17-6.27-41.9-15.56a31.77,31.77,0,0,1-3-4.24,20.87,20.87,0,0,1-2-4.51c-1.13-3.79-.62-7.85-.1-11.77L380.84,685a172,172,0,0,1,40.53-14c7.45-1.6,15.18-2.68,22.67-1.26s14.75,5.68,18.18,12.47C466.21,690.15,464.41,699.65,462,708.16Z"/><path class="cls-12" d="M421.75,680.42a21.17,21.17,0,0,0,16-8.38c.65-.87,1.22-1.78,1.9-2.63s1.22-1.4,1.78-2.14A11.72,11.72,0,0,0,443,657.11a14.09,14.09,0,0,0-6.6-8.05c-1.81-1-4.13-1.65-5.91-.58a4,4,0,0,0-.37-2.16,12,12,0,0,0-2.14-3.46c-6.17-8.61-2.05-21.52-7.83-30.39a28.45,28.45,0,0,1-2.78-4.32c-.85-2-.76-4.29-.79-6.48a56.25,56.25,0,0,0-2.55-16,18.94,18.94,0,0,0-2.76-5.9c-3.19-4.2-9.09-6-11.53-10.65,0,0-2.68-4.35-18-4.68-41.32-.88-66.77,17-73,24-6.65,7.47-17.15,15.68-22,24.44s-8.1,18.29-12.46,27.29c-3.54,7.31-6.91,14.53-11.35,21.33-2.07,6.83-6.42,12.73-9,19.36-5.83,14.74-2.58,31.54,3.1,46.34,1.17,3.05,2.59,6.25,5.34,8,2.57,1.66,5.8,1.76,8.81,2.26,4.18.69,8.16,2.23,12.27,3.25,12.82,3.18,26.28,1.23,39.33-.74,5.36-.81,10.76-1.62,15.85-3.51,8.12-3,13.51-7.09,18.09-14.44a40.17,40.17,0,0,0,12.05-11.71,80.14,80.14,0,0,0,6.94-14.12l13.61-33,.32-.13a44,44,0,0,0,2.89,4.17c2.68,3.73,5.71,7.34,9.67,9.68,5.69,3.36,12.63,3.72,19.23,3.51"/><path class="cls-13" d="M436.26,711c2.15,0,6,0,8.49-3.09"/><path class="cls-13" d="M434.25,712.92"/><path class="cls-13" d="M403.24,508.87c-12.32,7.07-22,11.72-33.84,19.53"/><path class="cls-13" d="M391.31,745.49a33.76,33.76,0,0,0,10.35-22.57"/><path class="cls-13" d="M307.62,656.17a57.13,57.13,0,0,0,43.16,3.34"/><path class="cls-13" d="M339.76,651.26a45.55,45.55,0,0,0,27.66-6"/><path class="cls-13" d="M373.18,695.87a60.35,60.35,0,0,1-32.46,21.45"/><path class="cls-13" d="M372.83,624.69c.28-6.58,0-12.8,1.22-19.27"/><path class="cls-13" d="M416.72,605.42c.21,5-1.94,10.13-4.35,14.56"/><path class="cls-13" d="M382.08,647.45c1.91,2.11,4.83,3,7.66,3.3s5.69.08,8.52.41a4.8,4.8,0,0,1,2.86,1.06,1.92,1.92,0,0,1,.14,2.74,2.63,2.63,0,0,1-1.38.47,17.43,17.43,0,0,1-6.34-.39"/><path class="cls-13" d="M430.21,649.56,428.92,662"/><path class="cls-13" d="M364.54,609c8.79,12.38,12,27.77,18.3,41.58,1.62,3.54,4.77,9.15,6.79,12.48"/><path class="cls-13" d="M356.71,722s-13.57,7.39-27.52,7.64"/><path class="cls-13" d="M414.75,730.51a142.74,142.74,0,0,0,29-28.68"/><path class="cls-13" d="M434.25,712.92s1,4.64,3.5,4.41"/><path class="cls-10" d="M413.58,548.87c0-2.79,0-10-4.67-9.12s-6.07,7.72-2.5,13.67c1,1.67-2,3.91.5,6.62s4.67-1.12,4.67-1.12"/><path class="cls-13" d="M410,543.59s-3.75,1.36-1,6.76"/><path class="cls-16" d="M411.25,553.42a3.29,3.29,0,0,1,2.48,1.35"/><path class="cls-16" d="M369.4,542.79a18,18,0,0,0-9.66,4.17"/><path class="cls-13" d="M391.93,514.24s-.27-9.57-9.85-12.07"/><path class="cls-13" d="M387,517.89a7.84,7.84,0,0,0-4.92-8"/><path class="cls-13" d="M381,521.29s1.21-7.12-8.13-10.37"/><path class="cls-13" d="M376.92,523.67s-.82-7.37-9.5-9.43"/><path class="cls-13" d="M396.49,512.67s10.49-2.25,13.5,0"/><path class="cls-13" d="M389.63,516.44s9.73-2.58,11.67,1.45"/><path class="cls-13" d="M382.08,542.79s6.32.89,16.49-4.62,13.79-9.57,13.79-9.57"/><path class="cls-13" d="M371.36,527.13s-2.75-6.46-10.31-3.46"/><path class="cls-16" d="M570,592.5a9.64,9.64,0,0,1,3.63-2.44,3.3,3.3,0,0,1,3.85,1.31c1,1.9-.82,4-2.45,5.38L570,601.08"/><path class="cls-16" d="M563.89,626.55c7.71-14.34,6.62-31.68,4.31-47.8H544.4V627.9Z"/><path class="cls-16" d="M633.39,857.57a29.19,29.19,0,0,1,.85,7.2c-.17,3.18-5.24,6.52-5.24,6.52l-4.26,1-1.67-2.17Z"/><path class="cls-17" d="M627,869.61c4.76-4.32,7.76-8.26,6.1-13.29s-7-4.66-10-3.68-5.64,1.46-8.32.39l-9.35,10.76,8.14,6.17Z"/><path class="cls-2" d="M455.23,873.89c7.26-5.26,8.84-13,17.52-15.26,6.43-1.66,22.64-3.35,29.25-4,26.73-2.73,49.63-1.75,76.5-1.91,9.13-.06,18.48.07,27,3.24,8,3,14.79,8.36,21.44,13.68,4.55,3.64,9.56,8.28,9.07,14.1-.47,5.46-5.83,9.31-11.17,10.54s-10.93.63-16.36,1.37c-12.4,1.68-22.8,10.08-34.71,13.93-7,2.25-14.34,2.91-21.64,3.48q-24.78,1.95-49.63,2.85a63.1,63.1,0,0,1-13.72-.53,64.81,64.81,0,0,1-11.32-3.56l-26-10c-3.65-1.4-7.37-2.84-10.32-5.4s-9.64-5.3-8.9-9.13c.56-2.89,6.44-9.56,8.5-11.67,3.65-3.73,9.88-4.2,14.48-1.74"/><path d="M611.08,861.46a1.5,1.5,0,0,0,0-3,1.5,1.5,0,0,0,0,3Z"/><path d="M609,858.53l-1,.34a1.54,1.54,0,0,0-1,1.85,1.51,1.51,0,0,0,1.85,1l1-.34a1.54,1.54,0,0,0,1-1.85,1.51,1.51,0,0,0-1.85-1Z"/><path d="M604.66,860l-.67.33a1.5,1.5,0,1,0,1.51,2.59l.67-.33a1.5,1.5,0,0,0-1.51-2.59Z"/><path d="M602.08,861.12h-.33a1.5,1.5,0,0,0,0,3h.33a1.5,1.5,0,0,0,0-3Z"/><path d="M598.08,865.79a1.5,1.5,0,0,0,0-3,1.5,1.5,0,0,0,0,3Z"/><path d="M594.32,864.66l-.67.33a1.5,1.5,0,1,0,1.51,2.59l.67-.33a1.5,1.5,0,0,0-1.51-2.59Z"/><path d="M590.75,869.46a1.5,1.5,0,0,0,0-3,1.5,1.5,0,0,0,0,3Z"/><path d="M584.69,868.9l-.33.33a1.5,1.5,0,0,0,2.12,2.12l.33-.33a1.5,1.5,0,0,0-2.12-2.12Z"/><path d="M574.41,869.79h-.33a1.5,1.5,0,0,0,0,3h.33a1.5,1.5,0,1,0,0-3Z"/><path d="M572.08,869.46h-.33a1.5,1.5,0,0,0,0,3h.33a1.5,1.5,0,0,0,0-3Z"/><path d="M570.08,871.79a1.5,1.5,0,0,0,0-3,1.5,1.5,0,0,0,0,3Z"/><path d="M567.75,871.79a1.5,1.5,0,0,0,0-3,1.5,1.5,0,0,0,0,3Z"/><path d="M566.08,871.79a1.5,1.5,0,0,0,0-3,1.5,1.5,0,0,0,0,3Z"/><path d="M564.08,871.79a1.5,1.5,0,0,0,0-3,1.5,1.5,0,0,0,0,3Z"/><path d="M493.08,909.46h.67a1.5,1.5,0,0,0,0-3h-.67a1.5,1.5,0,0,0,0,3Z"/><path d="M496.14,908.74l1-.33a1.53,1.53,0,0,0,1-1.85,1.52,1.52,0,0,0-1.85-1l-1,.33a1.53,1.53,0,0,0-1,1.85,1.52,1.52,0,0,0,1.85,1Z"/><path d="M501.5,906.25l1-.67a1.54,1.54,0,0,0,.54-2.05A1.51,1.51,0,0,0,501,903l-1,.67a1.54,1.54,0,0,0-.54,2.05,1.51,1.51,0,0,0,2.05.54Z"/><path d="M507.48,903.74l1.67-.33a1.5,1.5,0,1,0-.8-2.89l-1.67.33a1.5,1.5,0,0,0,.8,2.89Z"/><path d="M516.41,902.46h1.33a1.5,1.5,0,0,0,0-3h-1.33a1.5,1.5,0,0,0,0,3Z"/><path d="M520.75,902.46a1.5,1.5,0,0,0,0-3,1.5,1.5,0,0,0,0,3Z"/><path d="M523,902.59l.67.33a1.54,1.54,0,0,0,2.05-.54,1.51,1.51,0,0,0-.54-2.05l-.67-.33a1.54,1.54,0,0,0-2.05.54,1.51,1.51,0,0,0,.54,2.05Z"/><path d="M527,904.25l.67.33a1.54,1.54,0,0,0,2.05-.54,1.51,1.51,0,0,0-.54-2.05l-.67-.33a1.54,1.54,0,0,0-2.05.54,1.51,1.51,0,0,0,.54,2.05Z"/><path d="M531.41,906.12a1.5,1.5,0,0,0,0-3,1.5,1.5,0,0,0,0,3Z"/><path d="M536,907.91l1,.66a1.5,1.5,0,0,0,1.51-2.59l-1-.66a1.5,1.5,0,0,0-1.51,2.59Z"/><path d="M539.75,909.46a1.5,1.5,0,0,0,0-3,1.5,1.5,0,0,0,0,3Z"/><path d="M542.08,909.79h.67a1.5,1.5,0,0,0,0-3h-.67a1.5,1.5,0,0,0,0,3Z"/><path d="M545.08,909.79a1.5,1.5,0,0,0,0-3,1.5,1.5,0,0,0,0,3Z"/><path d="M547.08,910.12h1a1.5,1.5,0,0,0,0-3h-1a1.5,1.5,0,0,0,0,3Z"/><path d="M551.08,910.12h.33a1.5,1.5,0,1,0,0-3h-.33a1.5,1.5,0,0,0,0,3Z"/><path d="M554.17,908.92l.67-.33a1.5,1.5,0,0,0-1.51-2.59l-.67.33a1.5,1.5,0,1,0,1.51,2.59Z"/><path d="M557.49,906.89l.67-.33a1.5,1.5,0,1,0-1.51-2.59l-.67.33a1.5,1.5,0,1,0,1.51,2.59Z"/><path d="M559.08,906.79a1.5,1.5,0,0,0,0-3,1.5,1.5,0,0,0,0,3Z"/><path d="M456.08,877.46a1.5,1.5,0,0,0,0-3,1.5,1.5,0,0,0,0,3Z"/><path d="M457.41,877.79h1a1.5,1.5,0,1,0,0-3h-1a1.5,1.5,0,0,0,0,3Z"/><path d="M461.68,878.74l1,.33a1.51,1.51,0,0,0,1.85-1,1.53,1.53,0,0,0-1-1.85l-1-.33a1.51,1.51,0,0,0-1.85,1,1.53,1.53,0,0,0,1,1.85Z"/><path d="M465.75,880.12h.33a1.5,1.5,0,0,0,0-3h-.33a1.5,1.5,0,1,0,0,3Z"/><path d="M471.17,879.92l.67-.33a1.5,1.5,0,1,0-1.51-2.59l-.67.33a1.5,1.5,0,1,0,1.51,2.59Z"/><path d="M475.08,878.46a1.5,1.5,0,0,0,0-3,1.5,1.5,0,0,0,0,3Z"/><path d="M477.08,876.79a1.5,1.5,0,0,0,0-3,1.5,1.5,0,0,0,0,3Z"/><path d="M472.41,870.46a1.5,1.5,0,0,0,0-3,1.5,1.5,0,0,0,0,3Z"/><path d="M472.32,870.59l2.67,1.33a1.54,1.54,0,0,0,2.05-.54,1.51,1.51,0,0,0-.54-2.05L473.84,868a1.54,1.54,0,0,0-2.05.54,1.51,1.51,0,0,0,.54,2.05Z"/><path d="M482.08,873.79a1.5,1.5,0,0,0,0-3,1.5,1.5,0,0,0,0,3Z"/><path d="M485.08,875.12a1.5,1.5,0,0,0,0-3,1.5,1.5,0,0,0,0,3Z"/><path d="M486.35,875l.33.33a1.5,1.5,0,0,0,2.12-2.12l-.33-.33a1.5,1.5,0,1,0-2.12,2.12Z"/><path d="M489.41,876.46a1.5,1.5,0,0,0,0-3,1.5,1.5,0,0,0,0,3Z"/><path d="M490.35,877.35l.33.33a1.5,1.5,0,0,0,2.12-2.12l-.33-.33a1.5,1.5,0,1,0-2.12,2.12Z"/><path d="M493.41,880.12a1.5,1.5,0,0,0,0-3,1.5,1.5,0,0,0,0,3Z"/><path d="M494.41,882.12a1.5,1.5,0,0,0,0-3,1.5,1.5,0,0,0,0,3Z"/><path d="M509.75,874.46h.67a1.5,1.5,0,1,0,0-3h-.67a1.5,1.5,0,1,0,0,3Z"/><path d="M515.08,874.46h1a1.5,1.5,0,0,0,0-3h-1a1.5,1.5,0,0,0,0,3Z"/><path d="M519.41,874.12a1.5,1.5,0,0,0,0-3,1.5,1.5,0,0,0,0,3Z"/><path d="M523.41,873.46a1.5,1.5,0,0,0,0-3,1.5,1.5,0,0,0,0,3Z"/><path d="M526.46,873l1-.32a1.53,1.53,0,0,0,1-1.85,1.52,1.52,0,0,0-1.85-1l-1,.32a1.53,1.53,0,0,0-1,1.85,1.52,1.52,0,0,0,1.85,1Z"/><path d="M529.08,872.79h.67a1.5,1.5,0,0,0,0-3h-.67a1.5,1.5,0,0,0,0,3Z"/><path d="M531.75,873.46a1.5,1.5,0,0,0,0-3,1.5,1.5,0,0,0,0,3Z"/><path d="M532,874.37a18.84,18.84,0,0,1,3,3,1.51,1.51,0,0,0,2.12,0,1.54,1.54,0,0,0,0-2.12,18.84,18.84,0,0,0-3-3,1.55,1.55,0,0,0-2.12,0,1.51,1.51,0,0,0,0,2.12Z"/><path d="M537.32,878.92l.67.33a1.54,1.54,0,0,0,2.05-.54,1.51,1.51,0,0,0-.54-2.05l-.67-.33a1.54,1.54,0,0,0-2.05.54,1.51,1.51,0,0,0,.54,2.05Z"/><path d="M540.75,880.12a1.5,1.5,0,0,0,0-3,1.5,1.5,0,0,0,0,3Z"/><path d="M542.08,880.79h.33a1.5,1.5,0,1,0,0-3h-.33a1.5,1.5,0,0,0,0,3Z"/><path d="M544.08,881.79a1.5,1.5,0,0,0,0-3,1.5,1.5,0,0,0,0,3Z"/><path d="M546.08,882.46a1.5,1.5,0,0,0,0-3,1.5,1.5,0,0,0,0,3Z"/><path d="M527.41,879.46h-.67a1.5,1.5,0,0,0,0,3h.67a1.5,1.5,0,1,0,0-3Z"/><path d="M525.08,882.46a1.5,1.5,0,0,0,0-3,1.5,1.5,0,0,0,0,3Z"/><path d="M456.08,891.46h-.67a1.5,1.5,0,0,0,0,3h.67a1.5,1.5,0,0,0,0-3Z"/><path class="cls-18" d="M619.16,820.51c-1.65,10.62-3.75,28.82-5.4,39.45a48.9,48.9,0,0,0-8.22-4c-8.56-3.17-17.91-3.3-27-3.24h-3.16a49.85,49.85,0,0,1-11.78,6.13c-1.39.52-2.69,1-3.83,1.26-8.9,2.47-18.28,2.52-27.51,2.27a59.4,59.4,0,0,0-11.7.39c-2.48.42-4.9,1.17-7.38,1.59a35.29,35.29,0,0,1-7.82.37A48.66,48.66,0,0,1,481.8,857a48,48,0,0,1-13-12.29l142.66-46.51c4.23,1,7.16,5.11,8.11,9.36S619.83,816.21,619.16,820.51Z"/><path class="cls-19" d="M464.15,833c.93,4.53,2,9.37,5.42,12.51,3.61,3.35,8.91,3.94,13.82,4.35,16,1.34,32.18,2.52,48.25,1.45,14-.93,27.86-3.57,41.67-6.2a30.58,30.58,0,0,0,8.87-2.64,24.59,24.59,0,0,0,6.44-5.43c6.38-7.1,11.27-16.76,8.86-26Z"/><polygon class="cls-16" points="548.75 647.75 548.75 633.05 513.75 630.71 508.6 645.76 548.75 647.75"/><path class="cls-13" d="M508.6,719.29"/><path class="cls-17" d="M502,634.44c19.08,1.75,38.16,3.21,57-.31a8.59,8.59,0,0,0,4.27-1.67,7.84,7.84,0,0,0,2.18-6.08c-.2-7.09-2.22-31.44-2.67-38.34-.53-8.15,5.83-9.77,5.83-9.77s-.05-17.21-16.36-20.66c-28.12-6-41.79,4.09-46.26,18.27-1.61,5.11-7.78,35.58-9.51,45.67a17.8,17.8,0,0,0-.23,7.25C496.83,631.17,498.29,634,502,634.44Z"/><path class="cls-13" d="M562.77,647.6c-10.21-.36-20.32,1.73-30.45,3s-20.68,1.84-30.33-1.51"/><path class="cls-20" d="M463.18,800.23c-3.5,6.51-7.11,13.67-5.83,20.95,1.58,8.94,10.31,15.13,19.19,17s18.07.47,27.13-.17a157.83,157.83,0,0,1,19.69-.16c13,.7,26.18,3,38.93.36a51.28,51.28,0,0,0,18.25-7.7c7.76-5.24,14.71-12.6,17.13-21.64l1.61-6c3.57,3,11.47,1.19,14.28-2.56s3.37-8.67,3.78-13.34c.62-7,1.12-14.22-.62-21.06-1.26-5-3.68-9.6-4.73-14.62-1.15-5.53-.6-11.3-1.77-16.82s-3.93-10.43-5.42-15.8c-1.65-6-1.69-12.21-2.21-18.37a115.27,115.27,0,0,0-5.46-26.61c-2.44-7.34-6-14.88-12.63-18.85-6.36-3.81-14.42-3.64-21-7l-7.8-.13c-3.66-5.06-10.91-5.44-17.15-5.35l-27.46.41a41,41,0,0,0-8.82.77c-5.72,1.35-10.55,5.07-15.19,8.69-8.43,6.59-17.32,13.82-20.42,24.06-3.34,11,.84,22.95-.57,34.38-.55,4.44-1.94,8.77-2.16,13.24-.2,4,.54,7.94.7,11.93.26,6.36-.95,12.68-1.77,19a158.45,158.45,0,0,0,2.87,56.59"/><path class="cls-13" d="M468.79,844.69a49,49,0,0,0,36.53,20,35.39,35.39,0,0,0,7.82-.36c2.48-.42,4.9-1.17,7.38-1.59a60,60,0,0,1,11.7-.39c9.23.26,18.61.21,27.5-2.27A46.48,46.48,0,0,0,584,841.29"/><path class="cls-13" d="M613.55,800.3c4.23,1,5.06,3,6,7.24s.28,8.67-.39,13c-1.65,10.62-3.75,28.82-5.4,39.45"/><path class="cls-13" d="M593.68,831.21q7.31-5.62,14.18-11.79"/><path class="cls-13" d="M600.75,825.29a14.88,14.88,0,0,0,4,1.67"/><path class="cls-13" d="M593.68,831.21c1.39,2.08,4.5,1.88,6.06,1.74"/><path class="cls-13" d="M597.66,808.89c3-8.86,2.71-19.13-2.07-27.18-6.18-10.41-4.85-29.43-6.51-34.09s-5-33.3-4.67-36.81-2.68-19.24-2.68-19.24"/><path class="cls-21" d="M613.76,860a48.9,48.9,0,0,0-8.22-4c-8.56-3.17-17.91-3.3-27-3.24h-3.16"/><path class="cls-22" d="M555.67,647.67s-23.68,1.62-38.93,1.94-23.4-2-23.4-2c.82-.31,8-3.87,8.9-4.07a41.29,41.29,0,0,1,8.82-.77l27.46-.41C544.76,642.23,552,642.61,555.67,647.67Z"/><path class="cls-23" d="M464.15,733.72c.36,7.51,6.43,20.73,10.26,24.65"/><path class="cls-23" d="M590.6,762.08c-.86,11.21,4.45,37.46-27.83,50.46"/><path class="cls-20" d="M586.74,734.55s.14,10.33-10.05,21.29"/><path class="cls-23" d="M586,728.57c-1.23,4.72-6.06,19.47-21.89,24.34"/><path class="cls-17" d="M623.08,852.64c-3,1.65-3.62,3.81-3.06,6"/><path d="M522.07,566.14a4,4,0,0,0-.38.32,13.9,13.9,0,0,0-1,1,18.56,18.56,0,0,0-1.43,1.78l-.81,1.16q-.37.65-.81,1.35c-.3.45-.53,1-.81,1.51s-.58,1.05-.82,1.65c-.51,1.16-1.07,2.37-1.53,3.69s-.94,2.67-1.38,4.07a21.39,21.39,0,0,0-.6,2.14L512,587c-.39,1.45-.61,2.94-.92,4.39s-.47,2.9-.7,4.3l-.31,2.06c-.09.68-.15,1.34-.22,2l-.4,3.65c-.15,1.13-.18,2.17-.27,3.1L509,608.9l-.19,2.09v0a.38.38,0,0,1-.76,0l-.1-2.1-.07-2.42c0-.93-.09-2-.06-3.14l.1-3.72c0-.66,0-1.34.08-2l.19-2.12c.15-1.44.21-2.93.49-4.43s.42-3,.77-4.56l.52-2.27a22.91,22.91,0,0,1,.58-2.24,39.87,39.87,0,0,1,1.41-4.29c.27-.68.5-1.37.8-2l.92-1.87a18.54,18.54,0,0,1,1-1.73c.34-.54.64-1.08,1-1.56s.69-.95,1-1.38l1-1.16a13.38,13.38,0,0,1,1-1,8.07,8.07,0,0,1,.89-.75,9.92,9.92,0,0,1,1.38-.93,5.11,5.11,0,0,1,.54-.27h0a.62.62,0,0,1,.58,1.1Z"/><path d="M553,584.2l-.13,2-.09,2.23-.08,2.91-.21,7.28-.3,8.34c-.13,2.84-.25,5.68-.41,8.34s-.31,5.14-.48,7.27-.34,3.9-.45,5.14-.2,1.95-.2,1.95a.67.67,0,0,1-1.34-.05s0-.71,0-2,0-3,0-5.16.08-4.62.2-7.29.27-5.51.45-8.35.42-5.68.68-8.34.54-5.14.83-7.26.61-3.89.84-5.12c.11-.62.25-1.09.32-1.41l.12-.5a.16.16,0,0,1,.19-.11A.16.16,0,0,1,553,584.2Z"/><path d="M1163.26,739.87l1.19,1.09c.41.31.89.66,1.49,1.06a17.35,17.35,0,0,0,2.24,1.12,19.22,19.22,0,0,0,6.64,1.34,33.59,33.59,0,0,0,8.83-1,47.28,47.28,0,0,0,4.88-1.53c1.68-.65,3.39-1.35,5.17-2.1a96.59,96.59,0,0,1,11.53-4.33,33.57,33.57,0,0,1,6.6-1.17,26.42,26.42,0,0,1,3.47,0l.44,0,.46,0,.82.09c.57.09,1.2.17,1.76.3,4.59.93,8.76,2.83,12.93,4.14,1,.34,2.13.63,3.07.86,1.1.23,2.22.48,3.22.6a41.22,41.22,0,0,0,6.4.4,87.93,87.93,0,0,0,12.68-1.22c4.12-.66,8.13-1.43,12-2a99.68,99.68,0,0,1,10.94-1.27,43,43,0,0,1,9.39.46,31,31,0,0,1,7,2,26.31,26.31,0,0,1,4.08,2.28l1.34,1a.5.5,0,0,1-.55.84l0,0-1.36-.82a29.76,29.76,0,0,0-4-1.89,29.3,29.3,0,0,0-6.71-1.52,46.8,46.8,0,0,0-9,0c-3.3.32-6.86.9-10.63,1.63s-7.75,1.6-11.94,2.33a80.62,80.62,0,0,1-13.14,1.43,44.27,44.27,0,0,1-6.92-.4c-1.22-.15-2.29-.39-3.39-.61s-2.29-.6-3.41-1c-4.39-1.43-8.46-3.29-12.57-4.13a25.86,25.86,0,0,0-12.16.49,103.33,103.33,0,0,0-11.3,3.92c-1.8.7-3.59,1.38-5.33,2a49.6,49.6,0,0,1-5.21,1.42,33.18,33.18,0,0,1-9.43.65,20.82,20.82,0,0,1-7.11-1.83,14.13,14.13,0,0,1-1.29-.68l-1.07-.7c-.64-.49-1.17-.95-1.58-1.3l-1.11-1.17a.5.5,0,0,1,.7-.71Z"/><path d="M1016.23,839.22l2.79-.51c1.78-.3,4.33-.72,7.41-1.12a74.59,74.59,0,0,1,10.66-.59,47,47,0,0,1,6.07.48,41,41,0,0,1,6.19,1.36c1,.34,2,.67,3,1a16.87,16.87,0,0,0,2.69.84,6.52,6.52,0,0,0,1.19.13c.26,0,.51,0,.66,0a5.72,5.72,0,0,0,.6-.09,12.25,12.25,0,0,0,2.5-.83c.86-.37,1.66-.77,2.63-1.16a19.78,19.78,0,0,1,2.74-.88,18.36,18.36,0,0,1,5.28-.5,13.46,13.46,0,0,1,4.42,1,11.51,11.51,0,0,1,1.69.91,9.48,9.48,0,0,1,1.25,1l.49.5.37.49a4.29,4.29,0,0,1,.51.81l.36.7a.5.5,0,0,1-.84.53l0-.06-.42-.55a3.41,3.41,0,0,0-.55-.61l-.36-.37-.46-.36a7.4,7.4,0,0,0-2.63-1.29,12.33,12.33,0,0,0-3.83-.47,17.62,17.62,0,0,0-4.57.73,16.79,16.79,0,0,0-2.4.88l-2.54,1.2a10.3,10.3,0,0,1-6.59,1,19.4,19.4,0,0,1-3.13-1c-.95-.39-1.88-.69-2.82-1a43.43,43.43,0,0,0-5.77-1.39,55.09,55.09,0,0,0-5.76-.64c-1.89-.14-3.72-.12-5.47-.13s-3.4.09-4.93.18c-3.06.15-5.62.36-7.41.52l-2.82.22a.5.5,0,0,1-.13-1Z"/><path d="M1055.89,793.95v-.15a2.38,2.38,0,0,1,0-.46,4.79,4.79,0,0,1,.59-1.67,5.51,5.51,0,0,1,1.72-1.8,5.2,5.2,0,0,1,2.8-.86,5.75,5.75,0,0,1,1.5.24,5.59,5.59,0,0,1,1.3.63,5.51,5.51,0,0,1,1.71,1.81,4.76,4.76,0,0,1,.58,1.65,2.89,2.89,0,0,1,0,.49V794a.5.5,0,0,1-1,.14v0s0-.19-.16-.49a4.18,4.18,0,0,0-.65-1.15,5,5,0,0,0-1.39-1.2,4.93,4.93,0,0,0-.93-.4,3.9,3.9,0,0,0-1-.14,4,4,0,0,0-1.94.53,5,5,0,0,0-1.4,1.2,4.34,4.34,0,0,0-.65,1.13,2.92,2.92,0,0,0-.13.38l0,.15a.5.5,0,0,1-1-.16Z"/><path d="M156.53,776.61l-.4-.5c-.24-.31-.62-.74-1.08-1.22a7.39,7.39,0,0,0-4-2.32,3.73,3.73,0,0,0-.6,0,3.39,3.39,0,0,0-.55,0,4.05,4.05,0,0,0-1.1.33,4.59,4.59,0,0,0-.92.56,3.39,3.39,0,0,0-.67.68,2.56,2.56,0,0,0-.53,1.26,4.29,4.29,0,0,0,0,.53.5.5,0,1,1-1,.18l0-.19a2.39,2.39,0,0,1-.06-.56,3.58,3.58,0,0,1,.1-.88,3.75,3.75,0,0,1,.45-1,5,5,0,0,1,2-1.84,5.54,5.54,0,0,1,1.48-.49,4.79,4.79,0,0,1,.84-.08,4.49,4.49,0,0,1,.8.05,7.15,7.15,0,0,1,2.82,1.2A9.84,9.84,0,0,1,156,774a12.26,12.26,0,0,1,1,1.46c.22.37.32.57.32.57v0a.5.5,0,0,1-.84.54Z"/><path class="cls-24" d="M1101.53,98.51c5.07-7.49,9.67-20.44,24.88-22.31s27.75,8,34.25,14.3v3.84l-59.13,8.78Z"/><path class="cls-24" d="M1105.47,128.41s-31.9-.31-34.5-10c-3-11.37,39-23.94,60.2-26,19.91-2,57.12-4.19,61.88,4.2,5.16,9.1-14.17,20.28-23.78,23.12Z"/><path class="cls-25" d="M1103.86,117.37s-2.45,7.77-1.28,15.19,6.12,7.79,6.12,7.79"/><path class="cls-26" d="M1150.49,103.14s12-.48,16.2,6.32a19.28,19.28,0,0,1,2.59,10.19l-7.58,2.93-1.67.22Z"/><path class="cls-27" d="M1168.68,146.6c-3.8,7.91-7.76,16-14.3,21.89s-16.38,8.92-24.29,5.1c-4.57-2.21-7.89-6.35-10.68-10.59-8.35-12.69-14.37-30.49-15.56-45.63a8.6,8.6,0,0,1,1.66-4.47c2-4,6.82-7,11-8.84a41.26,41.26,0,0,1,13.2-2.89c6.94-.57,14.26-.2,20.8,2,3.85,5.34,6,12,8.45,18.12a2.84,2.84,0,0,0,1.09,1.55c1,.53,2.25-.37,2.51-1.46a5.57,5.57,0,0,0-.55-3.25l.57-.28a13.92,13.92,0,0,1,4.61-.2,5.79,5.79,0,0,1,1.64.56,4.12,4.12,0,0,1,2,2c1.27,3.11-2.22,6.27-2,9.62.14,2.67,2.6,4.95,2.27,7.6a4,4,0,0,1-5.41,2.92Z"/><path class="cls-28" d="M1087.3,628.72a41.09,41.09,0,0,0,0,6c.28,1.34,3.71,7.34,13.76,6.56s19.77-6.42,25.3-9.58,22.21-11.41,26.49-14.23,12.72-8.5,13.93-10.57-.21-8.79-.21-8.79Z"/><path class="cls-29" d="M1096.09,612.13s-4.27,2.92-5.48,4.79-6.8,11.51,0,17.68,18.34.9,19.42.43,11.65-5.19,13.4-6.12c3.45-1.84,34.18-18.56,34.18-18.56,4.17-2.66,10.39-7.57,9-12.22s-4.91-4.49-4.91-4.49Z"/><path class="cls-27" d="M1159.41,598.08c-1.08,6.31-7,10.61-13,13s-12.41,3.74-17.61,7.49c-3.27,2.36-5.85,5.57-9.13,7.92-3.83,2.73-8.54,3.77-13,5.29-13.24,4.5-13.31-3.71-13-4.67a3.68,3.68,0,0,1,1.45-2l-1.23.33c-1.14-.12-1.61-1.69-1.08-2.7a3.66,3.66,0,0,1,1.39-1.39,2.5,2.5,0,0,1-1.66-1.87c0-1,.77-1.64,1.38-2.3l0-.36a2,2,0,0,1,.07-2.66,5.92,5.92,0,0,1,2.46-1.53l.18-.26a3.16,3.16,0,0,1,.83-3.53,9.42,9.42,0,0,1,3.37-1.86c3.94-1.51,20.22-10.46,23.7-13.57,4.48-4,8.49-13,7.83-19l25.18-.3C1153.77,581.34,1160.78,590,1159.41,598.08Z"/><path class="cls-13" d="M1150.11,590s1.69,4.13,0,7"/><path class="cls-13" d="M1157.57,574.11c-3.81,7.24,3.21,15.91,1.83,24-1.08,6.31-7,10.61-12.95,13s-12.42,3.74-17.61,7.49c-3.27,2.36-5.85,5.58-9.13,7.92-3.83,2.73-8.53,3.77-13,5.28-13.24,4.5-13.31-3.71-13-4.67.84-2.64,3.56-2.94,5.88-3.14a15.42,15.42,0,0,0,6.58-1.77"/><path class="cls-13" d="M1132.4,574.41c.66,6-3.35,15-7.84,19-3.47,3.12-19.75,12.07-23.69,13.58a9.34,9.34,0,0,0-3.37,1.86,3.18,3.18,0,0,0-.84,3.53"/><path class="cls-13" d="M1102.64,610.16l-6.16,2.51a5.9,5.9,0,0,0-2.46,1.52,2,2,0,0,0-.06,2.66"/><path class="cls-13" d="M1101.7,615c-1.72.72-6.15,1.15-7.6,2.33a3.59,3.59,0,0,0-1.51,2.18c-.11.9.75,1.91,1.61,1.61"/><path class="cls-13" d="M1103.49,618.56c-2.65,1.25-5.3.91-8,2.16a5.34,5.34,0,0,0-2.67,2.06c-.53,1-.06,2.59,1.08,2.7"/><path class="cls-29" d="M1104.51,605.12c16.41,1.32,15.2,22,15.2,22l6.39-2.78s1.34-20.6-13.8-23.14Z"/><path class="cls-29" d="M1142.73,615l7.05-3.71s-3.24-24.85-25.22-17.85l-4.95,3.49S1141.38,593.77,1142.73,615Z"/><path class="cls-28" d="M1122.45,627a18.24,18.24,0,0,0-1.09,6.18c.06,3.26,6.21,9.81,16.75,10.67s23.73-1.9,31.18-6.72,20.72-16.39,22.44-17.67,10-7.94,10.17-9.26l-.86-7.54Z"/><path class="cls-29" d="M1126.84,622s-4.39,2.56-4.39,4.94,1.06,9.61,12,12.2c16,3.79,33.42-5.75,34.83-6.93s21.06-15.69,23-17.22,10.51-8.28,8.79-12.4-4.89-3.81-4.89-3.81Z"/><path class="cls-27" d="M1196.15,599.57c-.13,5.14-3.66,9.61-7.72,12.76s-8.79,5.37-12.85,8.53c-2.72,2.12-5.1,4.64-7.89,6.67-5.55,4-12.32,5.93-18.93,7.74-3.1.84-9,2.15-9.34-.14a1.19,1.19,0,0,1-.08-.4l-.3.17c-3.14.42-4.37-.61-4.57-2a1.92,1.92,0,0,1,0-.78,2.3,2.3,0,0,1-2.87-2.7,2.26,2.26,0,0,1,.3-.81l-.07-.09c-2.88.78-3.43-1.17-3.59-1.58-.5-1.18.58-2.91,1.58-3.41l.9-.45c-2.61,1.3-4.46-1.07-4.62-2.9s1.27-3.46,2.91-4.29a27,27,0,0,1,5.27-1.51c3.67-1,7-3,10.19-5,10.87-6.92,21.08-16.38,24.52-28.8.85-3.06-.87-16.51,0-18.43l23.21-1a45.58,45.58,0,0,0,.92,27.33C1194.49,592.16,1196.26,595.74,1196.15,599.57Z"/><path class="cls-13" d="M1186.43,586.24a8.33,8.33,0,0,1,1.23,6"/><path class="cls-13" d="M1130.79,623.09c-2.62,1.3-4.47-1.07-4.62-2.9s1.26-3.47,2.9-4.29a26.44,26.44,0,0,1,5.27-1.5c3.67-1,7-3,10.18-5,10.87-6.91,21.09-16.38,24.53-28.79.85-3.06-.88-16.51,0-18.43"/><path class="cls-13" d="M1138.11,620.33a44.86,44.86,0,0,0-8.23,3.21c-1,.51-2.08,2.23-1.59,3.42.17.4.72,2.35,3.6,1.58"/><path class="cls-13" d="M1140.53,624.32c-1.84.67-4.27,1.68-6.08,2.41-1.31.53-2.55,1.37-2.79,2.71a2.3,2.3,0,0,0,2.88,2.7"/><path class="cls-13" d="M1143.62,627c-2.35,1.16-5,2.16-7.34,3.31a2.76,2.76,0,0,0-1.8,2.64c.2,1.36,1.43,2.4,4.56,2"/><path class="cls-13" d="M1147.13,630.21c-3.47.9-8.51,2.52-7.7,4.91.36,2.29,6.24,1,9.34.14,6.61-1.81,13.38-3.7,18.92-7.74,2.78-2,5.17-4.55,7.89-6.66,4.05-3.16,8.77-5.38,12.84-8.53s7.59-7.62,7.73-12.76c.1-3.83-1.66-7.42-2.94-11a45.59,45.59,0,0,1-.93-27.33"/><path class="cls-29" d="M1134.75,613.46s24-1.88,25,18V634l8-4.87s1-12-9.32-17.18-16.62-3.21-16.62-3.21Z"/><path class="cls-29" d="M1159.56,596.69s22.92-2.67,23.87,17.24v3.54l7.28-5.41s.94-14.65-9.4-19.82-15.94-3-15.94-3Z"/><path class="cls-30" d="M1163.15,576.72c-3.15,3.3-5.73,4.91-13.86,5.49-7,.5-14.19-.31-20.34-3.67-2-1.09-4.15-3.05-3.5-5.23l.16-1.45a6.8,6.8,0,0,1-.31-3.07,2.33,2.33,0,0,1,2.09-2,77.56,77.56,0,0,1-1.55-15.47,42.53,42.53,0,0,0-1.29-14.74c-.69-2.76-1.62-5.45-2.3-8.2-1.42-5.73-2.17-15.54-1.36-21.4h0c-3.62-12.2-3.32-25.59-4.56-38.43-1.28-13.13-4.64-23.38-5.71-36.52a68.65,68.65,0,0,0-4.3-19.57c-1.75-4.51-.44-10.77-2.21-15.27-2.16-5.48-1-12.53-1.35-18.41-.78-12.48,1.28-28.66,0-41.1-.61-6-.18-27.82-.18-27.82s18.22,2.61,20.86,3.05c0,0,23.3,4.48,38.65,0s33.16-9.26,33.16-9.26h5.1l.17,20.62c8.28,51.66-2.07,104.52,1.4,156.72,1,14.73,3,29.89-1.39,44-.82,2.61-1.86,5.29-1.49,8a39.66,39.66,0,0,0,1.27,4.5c1.88,7.23-2.57,14.8-1.43,22.18.37,2.43,1.35,4.8,1.24,7.26s-.1,8.41-2.56,8.25l-.76.29c-2.81,2.92-9.4,1.87-13.43,2.3s-8.21.56-12.15,1A15.89,15.89,0,0,1,1163.15,576.72Z"/><path class="cls-17" d="M1129,325.48s15.68,1.61,24.12.93,11.25-2.12,11.25-2.12l-.86-11.73a56.6,56.6,0,0,1-16.31,2.24c-9.6,0-17.77-.9-17.77-.9Z"/><path class="cls-27" d="M975.88,144.73l9.41,12.78s-3.37,9.86-17.42,11.69l-5.17-8.7"/><path class="cls-31" d="M975.65,148.68l-6.58,11c-5.55,2.33-13.68-.56-17.5-2.58-6.9-3.68-9.76-6.67-16.57-10.54-5.66-3.22-11-7.79-16.55-11.12a2.46,2.46,0,0,1-1.24-3.41,2.1,2.1,0,0,1,.7-.82c-2.65-1.72-7.15-3.76-7.54-5a3,3,0,0,1,1.9-3.18c-1.49-1.73-1.39-4.64.05-5.06.69-.41,2-.31,3.65.12l.45-.47c.28-1.61,1.24-2.6,3.9-2.34s5.68,2,7.8,3.05c10.58,5.35,19.11,11.25,30.42,14.77-1-3.35-3.7-7.28-3.71-10.78,0-2.26-.36-8.07,3.71-8.07,1.72,0,2.24,1.31,2.67,2.17a11,11,0,0,1,.7,2.78c1,5.48,5.08,9.8,8.5,14.21S977,143.25,975.65,148.68Z"/><path class="cls-13" d="M969.08,159.64c-5.56,2.33-13.68-.55-17.5-2.58-6.9-3.68-9.76-6.67-16.57-10.53-5.66-3.22-11-7.78-16.55-11.13a2.46,2.46,0,0,1-1.24-3.41,2.24,2.24,0,0,1,2-1.24,12.17,12.17,0,0,1,3,1.3c4,2.12,7.39,4.24,11.36,6.36"/><path class="cls-13" d="M917.93,131.17c-2.64-1.72-7.15-3.76-7.54-5s1-3.62,3-3.26c1.63.3,5.34,2.32,6.79,3.13,5.46,3,10.47,5.4,16.55,8.81"/><path class="cls-13" d="M911.81,122.36c-1.49-1.73-.9-4,.53-4.43,2.12-1.26,10.14,2.29,14.54,5.1a105.54,105.54,0,0,0,13.56,7.72"/><path class="cls-5" d="M916.45,117.59c.29-1.62,1.25-2.6,3.9-2.34s5.69,2,7.8,3.05c10.57,5.34,19.11,11.25,30.42,14.77-1-3.35-3.7-7.28-3.71-10.78,0-2.26-.36-8.08,3.71-8.08,1.72,0,2.25,1.31,2.68,2.17a10.72,10.72,0,0,1,.7,2.78c1,5.48,5.08,9.8,8.5,14.21s6.52,9.87,5.21,15.29"/><path class="cls-5" d="M945.62,144.39c0-2.6,3.43-7.69,5.88-9.54.84,6.05,5.53,11.43,10.34,12.79"/><path class="cls-5" d="M958.57,133.07a16.89,16.89,0,0,1,2.56,1.24"/><path class="cls-32" d="M966.42,169.47c3.08,4.86,6.23,7.24,8.81,12.38,3.76,9,10.73,16.42,17.22,23.71,1.48,6.5,5,12.39,9.29,17.5s9.36,9.49,14.4,13.85c2.37,2,4.84,4.15,7.85,5l-.21,0c7.82,2.66,16.6.12,23.55-4.34,2.79-1.79,5.41-3.89,8.45-5.2a68.27,68.27,0,0,1,6.8-2.14c4.67-1.45,22.69-7.73,27-10l4.71-21.19-7.52-27.94-5.61-1.82c-2.64,1.86-13,9.67-20.16,14.47a64.5,64.5,0,0,0-13,10.8c-4.08,4.15-12.6,7.89-12.6,7.89-5.19-6.67-8.29-7.09-15.89-10.78-5-8.51-14.46-12.06-20.41-19.94-1.57-2.08-3.48-6-6.07-6.17a25.72,25.72,0,0,0-7.94-10.65c-1.09,4-2.36,6.07-5.79,8.47A48.19,48.19,0,0,1,968,168.72Z"/><path class="cls-33" d="M1203.71,258.24c.16,18.86,3.64,48.47,2,68.14-2.65,5.09-8.21,7.86-13.42,10.28-8.42,3.92-17,7.85-26.21,9.07-3.87-46.36-7.18-103.81-9.37-150.28a14.34,14.34,0,0,1,.43-5.36,16.11,16.11,0,0,1,3.31-4.9,66.75,66.75,0,0,0,15.06-33.47h0c10.06,3.92,20.09,5.12,30.15,9,3.83,1.49,5.7,2.1,9.11,4.39a38.54,38.54,0,0,0-3.2,15.78S1203.66,253.06,1203.71,258.24Z"/><path class="cls-1" d="M1233.58,193.15c-1.31,18.41-3.34,37.41-12.47,53.44a26.94,26.94,0,0,1-6.84,8.43c-2.91,2.19-6.72,3.41-10.26,2.52l-.28-.07h0c-3.07-.85-5.53-3.11-7.85-5.3-3.2-3-6.47-6.14-8.25-10.16-4.22-9.57.77-25.84-1.29-36.09a142.07,142.07,0,0,1-2.72-31.66l21.64-6.32c1,2.95,3.12,9,4.08,12,.56,1.71,1.12,3.41,1.78,5.08.28-2.57.44-4.06.44-4.06a38.49,38.49,0,0,1,3.2-15.78c7.37,2,9.1,7.34,14.74,14.27a19.25,19.25,0,0,1,3.67,6.21A20.61,20.61,0,0,1,1233.58,193.15Z"/><path class="cls-13" d="M1184.27,173.09a11.56,11.56,0,0,0,21.07-1.39"/><path class="cls-13" d="M1205.26,167.93c1,2.95,3.12,9.05,4.09,12a52.74,52.74,0,0,0,3.47,8.78c1.17,2.17,2.66,4.19,3.43,6.53.84,2.55.77,5.28,1,8a31.93,31.93,0,0,0,3.38,11.48"/><path class="cls-13" d="M1218.87,212.86c2.33,1.2,3.46,3.89,4,6.45a26.91,26.91,0,0,1,.35,9.75"/><path class="cls-13" d="M1220.06,211.46a3.64,3.64,0,0,1,5.15-.86"/><path class="cls-13" d="M1123.28,125.68a4.5,4.5,0,0,0-9,.62"/><path class="cls-13" d="M1132.49,121.93a5.5,5.5,0,0,1,4.67-4.49,8,8,0,0,1,6.37,2.18"/><path class="cls-13" d="M1115.59,134.56a3.31,3.31,0,0,0,4.68,1.69"/><path class="cls-13" d="M1135,129.68a6,6,0,0,0,5.77,2"/><path class="cls-13" d="M1127.43,132.56c-.27,4.86-3.81,8.8-6.28,13-.63,1.07-1.12,2.61-.15,3.38s2,.16,2.94-.37a63.24,63.24,0,0,0,7.84-5.38"/><path class="cls-13" d="M1035.37,202.42c4.51,3.71,6.26,10.35,5.92,13.32"/><path class="cls-13" d="M1038.3,202.32a12.47,12.47,0,0,1,9.67,2.92"/><path class="cls-33" d="M1129,191.72l-6.28-13.2c-4-8.35-8-16.84-9.53-26l-3.38.28c-4.53,0-8.65,2.48-12.44,5-4.34,2.83-11.88,8.54-16.16,11.48,9,15,9.4,33.5,8.42,51,1.13,13.15,2.08,15.6,4.14,27.15.44,2.48,1.3,14.63.76,17.1-1.64,25.05-.16,44.27.1,70.24,0,2.5,12.15,8.35,12.15,8.35,7.95,4.6,21.31,9.61,22.72,3.24V197.54Z"/><path class="cls-13" d="M1168.68,146.6l6.83,5.13c-5.8,14.35-12,22.61-20.72,29.11a19.39,19.39,0,0,1-5,3"/><path class="cls-13" d="M1117.59,271.19h4.6"/><path class="cls-13" d="M1117.18,292.87l3.34.43"/><path class="cls-13" d="M1118,316.73h3.34"/><path class="cls-13" d="M1126.36,568.48c1.32-.79,3-.46,4.51-.18,8.19,1.51,22.67,1.61,30.4-1.47"/><path class="cls-13" d="M1162.94,565c11.3.63,26.13,2.2,36.75-1.71"/><path class="cls-13" d="M1147.68,367.81c-.76,5.87,1.51,17.59,1.51,17.59-1,11.88,3.84,23.36,6.32,35,2,9.23,2.44,18.7,2.92,28.13.66,13-.81,22-.15,34.94,1.45,19.52,4.15,37.39,3.3,56.94-.3,6.85-.31,18.26,1.36,24.59.19.72-1.33.44-1.47,1.12a20.78,20.78,0,0,0-.12,2.89c-.28,4.11.69,4.42,1.8,7.69"/><path class="cls-13" d="M1195.66,479.24a40,40,0,0,0-15.74-6.8c-.65-.12-1.52-.11-1.71.52-.14.47.23.92.58,1.26a30,30,0,0,0,14.46,7.81"/><path class="cls-13" d="M1169.51,492.59a33.89,33.89,0,0,0,19,16.59"/><path class="cls-13" d="M1156.84,513.65a46,46,0,0,1-14.11,25"/><path class="cls-13" d="M1161.27,540.73c-2.34,4.92-4.81,10-9.09,13.39-1.68,1.32-3.68,2.45-4.58,4.39a1.2,1.2,0,0,0-.14.83c.15.5.79.65,1.32.64a7.31,7.31,0,0,0,5.73-2.9"/><path class="cls-13" d="M1121.36,506.78c5.73,12.5,12.75,15.14,16.49,18.33"/><path class="cls-13" d="M1155.06,432.08a31.25,31.25,0,0,1-6.72,15.27"/><path class="cls-13" d="M1179.72,342a22.25,22.25,0,0,0,16.35,5.61"/><path class="cls-13" d="M1194.89,191.17a31.24,31.24,0,0,0,9.4,1.89c3.21,0,6.57-1.19,8.48-3.78"/><path class="cls-13" d="M1186.64,207.21c2,4.15,2.45,10.38,7,11"/><path class="cls-13" d="M1217.81,208.37a12.92,12.92,0,0,1-6.19,12.59"/><path class="cls-13" d="M977.59,183.63a24.42,24.42,0,0,0,10.05-1.16"/><path class="cls-13" d="M1144,174.84a19.44,19.44,0,0,1,5.22,7.69"/><path class="cls-5" d="M1123.95,181.19a26.73,26.73,0,0,0,10,6.69l.12-1.26c.56-3.25,2.47-9.62,5.23-11.42"/><path class="cls-13" d="M1140.38,199.07c-1.73,8.94,1.05,18.07,1.62,27.16.48,7.64-.62,15.28-2,22.81"/><path class="cls-13" d="M1145.45,197.21c-.58,5.52,2.35,10.74,3.47,16.17a50.13,50.13,0,0,1,.76,8.33,102.81,102.81,0,0,1-.13,13.94,57.06,57.06,0,0,0-.66,8.48"/><path class="cls-13" d="M1183.62,174.24a141.86,141.86,0,0,0,2.72,31.66c2.06,10.26-2.92,26.52,1.29,36.09,1.77,4,5.05,7.15,8.25,10.16,2.39,2.26,4.94,4.6,8.13,5.39,3.53.88,7.35-.34,10.26-2.53a27,27,0,0,0,6.83-8.43c9.14-16,11.16-35,12.47-53.44a20.52,20.52,0,0,0-.4-7.52,19.07,19.07,0,0,0-3.67-6.21c-5.63-6.94-7.36-12.31-14.73-14.28"/><path class="cls-13" d="M1214.77,165.15a38.54,38.54,0,0,0-3.2,15.78"/><path class="cls-13" d="M1125.62,571.86s1,3,6,4.3"/><path class="cls-13" d="M1199.17,529.9c-1.83,4.75-6.74,10.57-8.16,12"/><path class="cls-13" d="M1111.94,345.73s-2.36,8.93-8.76,5.14"/><path class="cls-13" d="M1144.45,326.92a57,57,0,0,1,.36,9.13c-.35,4.88-.15,15.16-.15,15.16"/><circle cx="1150.61" cy="333.02" r="1.94"/><circle cx="1150.98" cy="343.7" r="1.94"/><path class="cls-13" d="M1142.37,314.92s-4.37.74-4.37,6,5.66,5.69,9.22,5.69"/><polyline class="cls-5" points="1153.14 314.79 1153.14 327.36 1157.8 326.71 1157.8 313.97"/><path class="cls-34" d="M1186.57,176.06c-.4-5.57-4.73-12.92-4.55-18.93s-2.18-15.11-4.19-18-3.91-7.55-1.82-9.65,7.1,2.91,9.1,7.83c1.25,3.07,2.29,5.34,3.66,6.68l.15.14s4.12-1,6.57-1.73c3.31-1,5.84-4.44,5.84-4.44l3.92-4.78c2-8.64,2.61-21.68,5.75-21.68,1.68,0,2,1.64,1.76,5.82s1.88,22.23-.7,27.36c-.27.54-1.43,1.47-1.74,2.07a73.87,73.87,0,0,0-4.39,11.4c-1.06,2.85-.62,9.1-.7,14.84C1205.21,174.94,1196.53,183.13,1186.57,176.06Z"/><path class="cls-27" d="M1202,140.27s-.19-9.38.1-15c.31-6-.17-12.33,2.52-13,1.61-.39,3.14.14,3.15,3.76,0,2.1.72,10.35,1.22,17.65.36,5.25.75,10,1,11.67.59,3.87-1.37,5.73-1.37,5.73"/><path class="cls-27" d="M1200.61,143.45l.31-.81s-.4-6.59-.92-7.93c-1.08-2.78-6.06-13.62-3.44-14.91,3-1.49,8.47,11.33,9.08,13.23,0,0,2.56,17.14,1.77,19"/><path class="cls-27" d="M1192.44,165.51s-.3-10.08,3.9-14.67c2.88-3.15-7.29-22-2.59-22.43,1.69-.15,5.43,9,6.72,13.29a67.21,67.21,0,0,0,3,8,5.72,5.72,0,0,1,0,4.73"/><path class="cls-35" d="M1188.77,144a4.61,4.61,0,0,0,2.94,1.37"/><path class="cls-35" d="M1209.5,140.94"/><path class="cls-35" d="M1200,134.7"/><path class="cls-35" d="M1193.67,148.76a7,7,0,0,1,.85,4.93"/><path class="cls-36" d="M1143.59,178.76a10,10,0,0,0-5,1,7.37,7.37,0,0,0-3.93,5.68,15.12,15.12,0,0,0,.93,7.07c.77,2.27,2,4.63,4.14,5.64,2.36,1.09,5.3.19,7.14-1.65a12.73,12.73,0,0,0,3.18-7,10.3,10.3,0,0,0-.71-6.76,9.21,9.21,0,0,0-5.7-4"/><ellipse cx="1137.93" cy="127.78" rx="1.4" ry="2.33"/><ellipse cx="1118.29" cy="131.73" rx="1.4" ry="2.33"/><path class="cls-5" d="M1154.38,168.48c7-7.89,7.31-21.52,7.31-21.52"/><path class="cls-13" d="M1150.49,103.14s12-.48,16.2,6.32a19.24,19.24,0,0,1,2.59,9"/><circle cx="1170.05" cy="271.15" r="2.84"/><circle cx="1171.09" cy="294.67" r="2.84"/><circle cx="1172.12" cy="318.19" r="2.84"/><circle cx="979.29" cy="176.98" r="1.71"/><path class="cls-13" d="M992.45,205.56c7,5.1,13.18,8.19,17.84,9.1"/><path class="cls-37" d="M1205.52,294.67s-2.25,4.48-15.28,9"/><path d="M1150.3,156.72a24.48,24.48,0,0,0-6.74,0h-.06c-6.17.71-12.23,2.84-18.42,1.19a1.16,1.16,0,0,0-.61,2.23,19.26,19.26,0,0,0,5,.62c1,3.36,5.35,6.59,8.91,5.54a1.16,1.16,0,0,0-.61-2.23c-1.88.55-4.24-.94-5.43-2.67,2.18.87,4.42,1.92,6.77,1.21,2.14-.64,3.29-2.65,5.14-3.74l.05,0a22.63,22.63,0,0,1,5.41.16C1151.14,159.18,1151.77,157,1150.3,156.72ZM1139.21,160a4.58,4.58,0,0,1-3.76.15c1.57-.26,3.14-.57,4.71-.83A6.52,6.52,0,0,1,1139.21,160Z"/></g></g></svg>