<svg id="home-define" xmlns="http://www.w3.org/2000/svg" xmlns:xlink="http://www.w3.org/1999/xlink" viewBox="0 0 510 576"><defs><style>.cls-1{fill:#fff;}.cls-2{fill:#a6b0a8;}.cls-3{fill:#e3e5e2;}.cls-4{fill:#4f6c70;}.cls-5{fill:#9aa49c;}.cls-6{fill:#779196;}.cls-7{fill:#d9dddc;}.cls-8{fill:#233d42;}.cls-9{fill:#b0b1b3;}.cls-10{fill:#e6e7eb;}.cls-11{fill:#4a868b;}.cls-12{fill:#71939b;}.cls-13{fill:#3e4534;}.cls-14{fill:#acb3b9;}.cls-15{fill:#dfe0e2;}.cls-16,.cls-17{fill:none;stroke:#333;stroke-linecap:round;stroke-linejoin:round;}.cls-16{stroke-width:1.78px;}.cls-17{stroke-width:2px;}</style><symbol id="New_Symbol" data-name="New Symbol" viewBox="0 0 4 4"><circle cx="2" cy="2" r="2"/></symbol></defs><title>design-thinking</title><rect class="cls-1" width="510" height="576"/><use width="4" height="4" transform="translate(476.76 99.1)" xlink:href="#New_Symbol"/><use width="4" height="4" transform="translate(299.59 70.14)" xlink:href="#New_Symbol"/><use width="4" height="4" transform="translate(116.71 54.84)" xlink:href="#New_Symbol"/><use width="4" height="4" transform="translate(81.68 127.43)" xlink:href="#New_Symbol"/><use width="4" height="4" transform="translate(253.21 174.09)" xlink:href="#New_Symbol"/><use width="4" height="4" transform="translate(407.93 294.41)" xlink:href="#New_Symbol"/><use width="4" height="4" transform="translate(373.93 504.26)" xlink:href="#New_Symbol"/><use width="4" height="4" transform="translate(152.93 502.53)" xlink:href="#New_Symbol"/><use width="4" height="4" transform="translate(122.87 447.94)" xlink:href="#New_Symbol"/><use width="4" height="4" transform="translate(281.12 476.88)" xlink:href="#New_Symbol"/><use width="4" height="4" transform="translate(400.83 497.92)" xlink:href="#New_Symbol"/><use width="4" height="4" transform="translate(433.56 425.35)" xlink:href="#New_Symbol"/><use width="4" height="4" transform="translate(329.42 341.21)" xlink:href="#New_Symbol"/><use width="4" height="4" transform="translate(216.53 207.79)" xlink:href="#New_Symbol"/><use width="4" height="4" transform="translate(131.65 191.11)" xlink:href="#New_Symbol"/><use width="4" height="4" transform="translate(75.77 245.28)" xlink:href="#New_Symbol"/><use width="4" height="4" transform="translate(53.26 404.27)" xlink:href="#New_Symbol"/><use width="4" height="4" transform="translate(59.27 496.61)" xlink:href="#New_Symbol"/><use width="4" height="4" transform="translate(185.07 530.09)" xlink:href="#New_Symbol"/><use width="4" height="4" transform="translate(213.33 350.32)" xlink:href="#New_Symbol"/><use width="4" height="4" transform="translate(166.72 149.87)" xlink:href="#New_Symbol"/><use width="4" height="4" transform="translate(201.51 60.87)" xlink:href="#New_Symbol"/><path class="cls-2" d="M468,262.85a11,11,0,0,1,1.9-.3h0a0.5,0.5,0,0,0,.13,0,1.68,1.68,0,0,0,.56,0,0,0,0,0,1,0,0,2.07,2.07,0,0,0,.81-0.34,0.57,0.57,0,0,0,0-.27l0.09,0a5.12,5.12,0,0,1,.23.9c0.26,1.13.88,2.1,1.15,3.24,0.13,0.5.16,1.14,0.31,1.63s0.46,0.72.56,1.13a15,15,0,0,0,.41,1.83,10.4,10.4,0,0,1,.54,1.67,34.63,34.63,0,0,0,2,5.73,23.16,23.16,0,0,1,.92,3.71,1.64,1.64,0,0,0-.31.05,12.88,12.88,0,0,0-2,.61,4.9,4.9,0,0,1-1.72.32c-0.54.06-1,.28-1.54,0.38-0.34.05-.68,0-1,0.06a39.84,39.84,0,0,0-5.16,1.33c-1.1.35-2.17,0.76-3.2,1.21-1.62.71-3.4,0.61-5.07,1.21a44.62,44.62,0,0,1-5.31,1.5c-0.74.17-1.39,0.16-2.13,0.26a21.57,21.57,0,0,1-2.75.7c-0.71,0-2.1-.31-2.71.2a9,9,0,0,0-1-1.53c-1.09-1.1-2.38-1.72-3.28-3a6.7,6.7,0,0,0-.45-0.5,0.94,0.94,0,0,1-.26-0.6l0,0.09a3.29,3.29,0,0,1-.63-2.3,3,3,0,0,0-.27-0.84c-0.24-1-.34-2-0.5-3-0.44-2.72-1.27-5.28-1.32-8.08h0c0.3-.05.53-0.25,0.87-0.31a10.37,10.37,0,0,1,1.27,0,21.28,21.28,0,0,0,4.1-.8,10.23,10.23,0,0,1,2.45-.23,10,10,0,0,0,3.13-1.05c1.65-.58,3.26-0.71,4.91-1.43,1.48-.65,3.07-0.06,4.58-0.66,1.91-.75,3.91-1.09,5.86-1.76C465.32,263.1,466.64,263.17,468,262.85Z"/><path class="cls-3" d="M480.81,221.74c0.5,1.5.7,3.07,1.18,4.55a24.41,24.41,0,0,1,1.09,3.94,15.53,15.53,0,0,0,.58,2.2c0.16,0.51.19,1.08,0.35,1.6a7.08,7.08,0,0,0,.54,1.14,6.38,6.38,0,0,1-1.81.56,9.47,9.47,0,0,0-1.44,0c-0.23.06-.23,0.23-0.46,0.29-0.86.23-1.71,0-2.61,0.35a19.89,19.89,0,0,1-2.9,1.06c-1,.19-2.1.24-3.13,0.38a18.3,18.3,0,0,0-3.93,1.39l-0.27.08-0.15-.46a12.86,12.86,0,0,0,0-1.42,7.29,7.29,0,0,0-.28-0.75,5.25,5.25,0,0,1-.08-1.28,22.89,22.89,0,0,0-.52-4.85c0-.22-0.08-0.43-0.1-0.65v0c1.17-.09,2.65-1.61,3.38-2.33a25.67,25.67,0,0,1,4.56-3.65,24.81,24.81,0,0,0,3.52-2.73c0.37-.32,1.53-1.51,2-1.41A14.25,14.25,0,0,0,480.81,221.74Z"/><path class="cls-4" d="M486.37,244.32a14.45,14.45,0,0,1,.63,2.18l-0.1.66c-0.4-.06-0.64-0.23-1.1-0.32a11.84,11.84,0,0,0-2.28,0,28.89,28.89,0,0,1-5.21-.07c-3.57-.7-7.5-0.27-11.15-0.27l-0.33.11a16,16,0,0,1-.73-2.65,14.21,14.21,0,0,0-.23-1.63,5.69,5.69,0,0,1-.45-2.1l-0.06-.49a16.17,16.17,0,0,0,2.65-.45l0.27-.08a18.3,18.3,0,0,1,3.93-1.39c1-.14,2.11-0.19,3.13-0.38a19.89,19.89,0,0,0,2.9-1.06c0.9-.32,1.75-0.13,2.61-0.35,0.23-.06.23-0.23,0.46-0.29a9.47,9.47,0,0,1,1.44,0,6.38,6.38,0,0,0,1.81-.56,3.62,3.62,0,0,1,.3.76c0.13,0.47.14,1,.23,1.52,0.16,0.92.41,1.81,0.53,2.72s0.46,1.61.61,2.47C486.32,243.19,486.27,243.78,486.37,244.32Z"/><path class="cls-5" d="M470.31,261.21a20.33,20.33,0,0,1-2-1.16c-1-.6-1.85-1.28-2.85-1.88-1.41-.82-2.41-2.2-3.83-3-0.66-.35-1.24-0.87-1.91-1.18a16.79,16.79,0,0,1-1.92-.89c-1.25-.79-2.62-1.32-3.83-2.09s-2.67-1.27-3.91-2.09-1.61-1.88-2.87-2.4a5.06,5.06,0,0,1-2-1.44,6.16,6.16,0,0,0,1,0,27.61,27.61,0,0,0,3.66-1c2.4-.77,4.84-1.86,7.34-2.14,1.38-.16,2.64-0.63,4-0.91s2.27-.89,3.5-1.15c0.25-.05.51-0.09,0.77-0.13l0.06,0.49a5.69,5.69,0,0,0,.45,2.1,14.21,14.21,0,0,1,.23,1.63,16,16,0,0,0,.73,2.65c0.27,0.77.55,1.54,0.76,2.31,0.79,2.92,1.72,5.87,2.71,8.72,0.37,1,.85,2.1,1.2,3.11a3.87,3.87,0,0,1,.18.52v0.43l-0.25.1a0.15,0.15,0,0,1,0,.06l-0.09,0A1.72,1.72,0,0,0,470.31,261.21Z"/><path class="cls-5" d="M467.59,236.67a7.29,7.29,0,0,1,.28.75,12.86,12.86,0,0,1,0,1.42L468,239.3a16.17,16.17,0,0,1-2.65.45c-0.26,0-.52.07-0.77,0.13-1.23.26-2.27,0.89-3.5,1.15s-2.6.75-4,.91c-2.49.28-4.94,1.37-7.34,2.14a27.61,27.61,0,0,1-3.66,1,6.16,6.16,0,0,1-1,0h0a1.72,1.72,0,0,0-.51.06c0,0.06,0,.14,0,0.21a0.09,0.09,0,0,0,0-.05,1.18,1.18,0,0,0-.43-0.44l0.07-.13a5.12,5.12,0,0,1,1.11-1.43c1.09-1.34,2-2.75,3.09-4.07s1.54-2.45,2.43-3.72c0.58-.85,1.4-1.45,2-2.24,0.4-.51.7-1.09,1.1-1.61a24.25,24.25,0,0,1,3.12-2.92c1-1,2.08-2,3.17-2.89a6.66,6.66,0,0,0,1-1.28,13.82,13.82,0,0,1,1.52-1.5,10.44,10.44,0,0,0,.93-1.13,3.23,3.23,0,0,1,.45-0.47,6.78,6.78,0,0,0,.95-0.4h0.13c0.67-.16.54,0.43,0.57,0.87a10.93,10.93,0,0,0,.34,2.08c0.44,1.94.44,3.89,0.76,5.85,0,0.22.06,0.43,0.1,0.65a22.89,22.89,0,0,1,.52,4.85A5.25,5.25,0,0,0,467.59,236.67Z"/><path class="cls-5" d="M459.63,222.22a3.65,3.65,0,0,1,1.09-.26c0.75-.08,1.47,0,2.29-0.16a6,6,0,0,0,1.13-.31,3.23,3.23,0,0,0-.45.47,10.44,10.44,0,0,1-.93,1.13,13.82,13.82,0,0,0-1.52,1.5,6.66,6.66,0,0,1-1,1.28c-1.1.94-2.13,1.89-3.17,2.89a24.25,24.25,0,0,0-3.12,2.92c-0.4.52-.7,1.1-1.1,1.61-0.63.79-1.44,1.4-2,2.24-0.89,1.26-1.43,2.53-2.43,3.72s-2,2.73-3.09,4.07a5.12,5.12,0,0,0-1.11,1.43l-0.07.13a7.39,7.39,0,0,0-1.14-.63c-0.9-.39-1.87-0.13-2.81-0.53a22,22,0,0,1-4.22-2.09,13.59,13.59,0,0,0-2.72-1.37c-0.53-.24-0.95-0.62-1.51-0.87a15.35,15.35,0,0,1-2.36-1.23A8.17,8.17,0,0,1,429,237c-0.14-.73-0.07-1.49-0.21-2.21s-0.58-1.43-.79-2.18a3.62,3.62,0,0,1-.11-0.66l0.27,0c0.22-1,1.38-.58,2.12-0.75,1.05-.24,1.93-0.87,3-1a7.35,7.35,0,0,0,2.57-.66,8.41,8.41,0,0,1,3.4-1.06,9.9,9.9,0,0,0,3.66-.94,26.27,26.27,0,0,1,3.68-1.22c1-.29,1.82-0.79,2.84-1.05,2-.5,4-1.21,6-1.74A33.21,33.21,0,0,0,459.63,222.22Z"/><path class="cls-5" d="M468.28,260.05a20.33,20.33,0,0,0,2,1.16,1.72,1.72,0,0,1,1.05.69,0.57,0.57,0,0,1,0,.27,2.07,2.07,0,0,1-.81.34,0,0,0,0,0,0,0,3.62,3.62,0,0,0-.48,0H470l-0.38-.37,0.06,0.28a0.7,0.7,0,0,0,.31.08h-0.11a11,11,0,0,0-1.9.3c-1.32.32-2.64,0.25-3.89,0.69-1.94.68-3.95,1-5.86,1.76-1.51.6-3.1,0-4.58,0.66-1.65.72-3.26,0.85-4.91,1.43a10,10,0,0,1-3.13,1.05,10.23,10.23,0,0,0-2.45.23,21.28,21.28,0,0,1-4.1.8,10.37,10.37,0,0,0-1.27,0c-0.33.06-.56,0.26-0.87,0.31h0a1,1,0,0,1-.34,0l-0.35-.34c0-.11,0-0.24,0-0.35h0a4.94,4.94,0,0,1,.52-2.37,26.76,26.76,0,0,0,1.13-3.82c0.28-1.14,1-2,1.25-3.18a10.12,10.12,0,0,1,.47-2.44c0.24-.52.66-0.89,0.92-1.4a19.83,19.83,0,0,0,1-3.33c0.27-.91.84-1.68,1.17-2.58s1-1.74,1.28-2.69a8.41,8.41,0,0,0,.62-1.92c0-.07,0-0.15,0-0.21a1.72,1.72,0,0,1,.51-0.06h0a5.06,5.06,0,0,0,2,1.44c1.26,0.52,1.72,1.65,2.87,2.4s2.65,1.27,3.91,2.09,2.58,1.29,3.83,2.09a16.79,16.79,0,0,0,1.92.89c0.67,0.31,1.25.82,1.91,1.18,1.42,0.78,2.42,2.16,3.83,3C466.43,258.77,467.27,259.46,468.28,260.05Z"/><path class="cls-5" d="M444.56,245.38a8.41,8.41,0,0,1-.62,1.92c-0.32.95-.94,1.75-1.28,2.69s-0.9,1.67-1.17,2.58a19.83,19.83,0,0,1-1,3.33c-0.26.51-.68,0.88-0.92,1.4a10.12,10.12,0,0,0-.47,2.44c-0.23,1.16-1,2-1.25,3.18a26.76,26.76,0,0,1-1.13,3.82,4.94,4.94,0,0,0-.52,2.37h0c-0.14-1.12-.56-2.17-0.65-3.3a9.29,9.29,0,0,0-1.08-2.87,12.6,12.6,0,0,1-.66-3.29,7.84,7.84,0,0,0-.5-2,12.8,12.8,0,0,1-.28-2.28,36.6,36.6,0,0,0-1-4.76c-0.45-1.75-.61-3.47-0.95-5.23-0.28-1.49-.63-2.94-0.87-4.45a18.38,18.38,0,0,0-.85-2.77,15.35,15.35,0,0,0,2.36,1.23c0.56,0.25,1,.63,1.51.87a13.59,13.59,0,0,1,2.72,1.37,22,22,0,0,0,4.22,2.09c0.94,0.41,1.91.15,2.81,0.53a7.39,7.39,0,0,1,1.14.63,1.18,1.18,0,0,1,.43.44A0.09,0.09,0,0,1,444.56,245.38Z"/><path class="cls-6" d="M432,272.25v0.35l-0.34.34c-1.13.08-2.21,0.27-3.35,0.33h-0.16a16.74,16.74,0,0,0-2.07.34,22.86,22.86,0,0,0-4.48,1.66,17.44,17.44,0,0,1-4.49,1c-0.73.11-1.45,0.33-2.18,0.41a11.76,11.76,0,0,0-1.71.08c-2.76.71-5.52,1.63-8.23,2.55-1.44.5-2.86,1.18-4.32,1.6s-2.89.6-4.32,1l-0.19-1.74c0.3-2.64-1-5.49-1.41-8-0.34-2-1.24-3.57-1.72-5.56a27.35,27.35,0,0,1-.31-3.83,36.62,36.62,0,0,0-1.23-5.21c-0.27-1.06-.7-2.11-0.93-3.17-0.08-.41.22-0.92,0.11-1.32-0.3-1.1-1.27-1.76-1.54-2.86-0.1-.43.18-0.94,0.09-1.37a8.92,8.92,0,0,0-.89-2.6,4.74,4.74,0,0,1-.38-1.15c3.41-1.21,6.83-2.4,10.29-3.4,1.47-.43,2.67-1.33,4.19-1.53a24.12,24.12,0,0,0,3.75-1c2.45-.78,5-1.29,7.36-2.17,1.72-.64,3.52-0.92,5.25-1.38a7.28,7.28,0,0,0,.68,2.75c0.66,1.65,1.24,3.39,1.84,5.07,0.47,1.32.79,2.69,1.27,4,0.25,0.52.5,1,.74,1.57s0.3,1.06.41,1.61a5.35,5.35,0,0,1,.62,1.36,46.24,46.24,0,0,0,1.74,6c0.54,1.7,1.34,3.24,1.73,5a17.51,17.51,0,0,0,1.73,4.23C430.42,268.8,431.86,270.39,432,272.25Z"/><path class="cls-7" d="M454.62,197.21a2.6,2.6,0,0,1,.35,1.66c0,1.46.69,2.84,0.9,4.29a13.14,13.14,0,0,0,.71,4,7.35,7.35,0,0,1,.79,1.69c0.13,0.6,0,1.17.11,1.77a7.27,7.27,0,0,0,1,2.36,3.82,3.82,0,0,1,.31,1.45,14.41,14.41,0,0,0,1.25,2.46,8.15,8.15,0,0,1,.51,3.47l0.16,1.56a3.65,3.65,0,0,0-1.09.26,33.21,33.21,0,0,1-4.11,1.22c-2,.53-4,1.24-6,1.74-1,.26-1.85.76-2.84,1.05a26.27,26.27,0,0,0-3.68,1.22,9.9,9.9,0,0,1-3.66.94,8.41,8.41,0,0,0-3.4,1.06,7.35,7.35,0,0,1-2.57.66c-1.1.15-2,.77-3,1-0.74.17-1.9-.29-2.12,0.75l-0.27,0c-0.06-.5,0-1-0.14-1.51-0.15-.75-0.56-1.43-0.78-2.16-0.48-1.54-.31-3.19-0.75-4.72-0.35-1.24-.7-2.62-1.18-3.82a25.29,25.29,0,0,1-1.32-4.53c-0.32-1.54-.88-3-1.21-4.51-0.37-1.7-1-3.27-1.23-5a9.06,9.06,0,0,1-.43-2.31l0-.06c0.39-.14.76-0.28,1.16-0.39l0.42-.09c0.87-.19,1.72-0.26,2.6-0.49,3.19-.85,6.33-1.75,9.54-2.42,2.15-.45,4.24-0.95,6.42-1.35,0.85-.15,1.64-0.1,2.48-0.31,0.38-.09.73-0.18,1.1-0.25a10.72,10.72,0,0,1,1.43-.2c0.93-.06,1.81-0.31,2.72-0.35,0.62,0,1.24.06,1.86,0a9.88,9.88,0,0,0,1.34-.3Z"/><path class="cls-8" d="M429.57,267.19a17.51,17.51,0,0,1-1.73-4.23c-0.4-1.74-1.19-3.28-1.73-5a46.24,46.24,0,0,1-1.74-6,5.35,5.35,0,0,0-.62-1.36c-0.1-.54-0.25-1.08-0.41-1.61s-0.49-1-.74-1.57c-0.48-1.3-.8-2.68-1.27-4-0.6-1.68-1.18-3.42-1.84-5.07a7.28,7.28,0,0,1-.68-2.75l0.7-.2c0.69-.2,1.4-0.56,2.09-0.71,0.51-.1,1.36.14,1.72-0.26a0.65,0.65,0,0,0,.7.19l0.22-.07c0.14,0.43.3,0.82,0.48,1.27a6.2,6.2,0,0,1,.33,2.3,28.51,28.51,0,0,0,1.88,7.65,13.82,13.82,0,0,1,.91,3.18,38.7,38.7,0,0,0,1,3.94,12.94,12.94,0,0,1,.05,1.91,10.32,10.32,0,0,0,.46,2.1c0.35,1.32.34,2.71,0.6,4.06s0.4,3,.76,4.36a14.39,14.39,0,0,1,.65,2,5,5,0,0,0,.25,1.1,11.79,11.79,0,0,1,.43,3.82C431.86,270.39,430.42,268.8,429.57,267.19Z"/><path class="cls-9" d="M424.09,234a4.68,4.68,0,0,0,.15.61l-0.22.07a0.65,0.65,0,0,1-.7-0.19c-0.37.4-1.21,0.16-1.72,0.26-0.69.15-1.4,0.51-2.09,0.71l-0.7.2a2.54,2.54,0,0,1,0-.28l0.34-.34a10.12,10.12,0,0,0-.31-2.24,15.5,15.5,0,0,1,0-3,57.65,57.65,0,0,0-.08-7.11c-0.29-2.38-.13-4.73-0.57-7.06l0.57-.1a15.09,15.09,0,0,0,1.47,4.5,30.78,30.78,0,0,1,1.89,4.71c0.49,1.51.23,3.3,0.88,4.72A17.23,17.23,0,0,1,424.09,234Z"/><path class="cls-10" d="M418.83,232.78a10.12,10.12,0,0,1,.31,2.24l-0.34.34a2.54,2.54,0,0,0,0,.28c-1.73.46-3.53,0.74-5.25,1.38-2.4.88-4.91,1.39-7.36,2.17a24.12,24.12,0,0,1-3.75,1c-1.51.21-2.71,1.11-4.19,1.53-3.47,1-6.88,2.19-10.29,3.4-0.1-.49-0.16-1-0.3-1.65a10.58,10.58,0,0,1-.56-1.18c-0.1-.57.19-1.23,0.06-1.8-0.21-.91-1-1.76-1.27-2.76-0.6-2.59-.92-5.18-1.68-7.76a32.06,32.06,0,0,1-1.2-3.4,19.11,19.11,0,0,0-.56-2.77A18,18,0,0,0,381,221c1-.25,2-0.52,2.93-0.8,2.62-.77,5.26-1.24,7.9-2a41.49,41.49,0,0,1,5-.89,9.89,9.89,0,0,0,1.51-.5,28.07,28.07,0,0,1,2.79-.57,39.13,39.13,0,0,1,6.56-1c1.83-.05,3.54-0.4,5.4-0.34a4.13,4.13,0,0,0,1.64.11,10.93,10.93,0,0,0,1-.81,11.4,11.4,0,0,1,2-.69h0.06a6.24,6.24,0,0,0,.09,1.23c0.09,0.33.17,0.66,0.23,1,0.45,2.33.28,4.68,0.57,7.06a57.65,57.65,0,0,1,.08,7.11A15.5,15.5,0,0,0,418.83,232.78Z"/><path class="cls-6" d="M373.86,287.63a0.5,0.5,0,0,1-.17.08c-0.55-1.52-.73-3.17-1.35-4.67a15.83,15.83,0,0,1-1-3.84,32.91,32.91,0,0,0-1.41-4.67c-0.58-1.85-.91-3.85-1.35-5.74-0.33-1.43-.72-2.86-1-4.3-0.3-1.6-1-3.12-1.23-4.7a20.92,20.92,0,0,0-.4-2.78c-0.19-.61-0.31-1.19-0.45-1.82-0.2-.95-0.39-2-0.62-2.93l0.88-.21a17.21,17.21,0,0,0,2.49-.66,12.52,12.52,0,0,1,2.58-1.1A126.31,126.31,0,0,0,388,245.18a4.74,4.74,0,0,0,.38,1.15,8.92,8.92,0,0,1,.89,2.6c0.08,0.43-.2.94-0.09,1.37,0.27,1.1,1.24,1.76,1.54,2.86,0.1,0.4-.2.91-0.11,1.32,0.23,1.06.66,2.11,0.93,3.17a36.62,36.62,0,0,1,1.23,5.21,27.35,27.35,0,0,0,.31,3.83c0.48,2,1.38,3.59,1.72,5.56,0.44,2.52,1.71,5.37,1.41,8l0.19,1.74c-1.64.48-3.31,0.67-4.93,1.22-1.4.47-2.79,0.53-4.14,1.14s-2.46.24-3.72,0.75a25.19,25.19,0,0,1-4.1,1.16,22.16,22.16,0,0,0-3.2.69,11.56,11.56,0,0,1-1.94.68h-0.47Z"/><path class="cls-11" d="M428.2,273.64a11,11,0,0,1-.08,2.12,24.64,24.64,0,0,0-.27,4.81c0,1,0,2,0,3,0,1.25-.45,2.42-0.34,3.68l0.07,0.23c-0.32.11-.66,0.21-1,0.29-2.55.63-5,1.43-7.51,2.27-3.35,1.11-6.75,2.11-10.05,3.49a21.62,21.62,0,0,1-5.2,1.68,29.78,29.78,0,0,0-4.34,1.26c-1.83.54-3.52,1.22-5.37,1.63-1.14.25-2.23,0.81-3.35,1.17-0.94.31-1.89,0.33-2.82,0.6a1.46,1.46,0,0,1-1.17.19,4.56,4.56,0,0,1-1.41-.9c-1.09-.86-2.44-1-3.75-1.47a15.07,15.07,0,0,1-2.84-1,29.14,29.14,0,0,0-2.91-1.61c-1.6-.71-3.18-1.57-4.71-2.43a9.09,9.09,0,0,1-1.64-1.27l2.94-.25c0.19-.47.26-1,0.49-1.48a1.94,1.94,0,0,0,.6-1.33l0.14-.54a0.5,0.5,0,0,0,.17-0.08h0.47a11.56,11.56,0,0,0,1.94-.68,22.16,22.16,0,0,1,3.2-.69,25.19,25.19,0,0,0,4.1-1.16c1.25-.51,2.46-0.21,3.72-0.75s2.75-.67,4.14-1.14c1.62-.55,3.29-0.74,4.93-1.22,1.43-.43,2.9-0.62,4.32-1s2.88-1.1,4.32-1.6c2.7-.92,5.47-1.84,8.23-2.55a11.76,11.76,0,0,1,1.71-.08c0.73-.07,1.45-0.29,2.18-0.41a17.44,17.44,0,0,0,4.49-1,22.86,22.86,0,0,1,4.48-1.66,16.74,16.74,0,0,1,2.07-.34Z"/><path class="cls-10" d="M368.22,251.41a17.21,17.21,0,0,1-2.49.66l-0.88.21c-0.13-.52-0.26-1-0.42-1.52-0.38-1.18-.94-2.32-1.23-3.53-0.37-1.46-.48-3-0.85-4.47-0.19-.74-0.54-1.41-0.76-2.14-0.29-.93-0.29-1.93-0.56-2.87-0.35-1.28-.84-2.51-1.12-3.82-0.57-2.62-1.19-5.27-2-7.85a5.09,5.09,0,0,1,1.11-.46c1-.19,2.07-0.39,3.12-0.61,4-.82,7.84-2,11.86-2.61a59.74,59.74,0,0,0,7-1.44,18,18,0,0,1,1.48,2.91,19.11,19.11,0,0,1,.56,2.77,32.06,32.06,0,0,0,1.2,3.4c0.76,2.58,1.09,5.17,1.68,7.76,0.23,1,1.06,1.85,1.27,2.76,0.13,0.56-.17,1.22-0.06,1.8a10.58,10.58,0,0,0,.56,1.18c0.15,0.66.2,1.16,0.3,1.65a126.31,126.31,0,0,1-17.17,5.14A12.52,12.52,0,0,0,368.22,251.41Z"/><path class="cls-8" d="M361.21,274.95a2,2,0,0,0,0,.25H361a22.53,22.53,0,0,1-3.82,2.77c-1.76.93-2.52,2.55-4.2,3.66-0.48.32-.94,0.66-1.4,1a49.45,49.45,0,0,0-.61-5,16.56,16.56,0,0,1,2-1.79c1.34-.95,2.8-2,4.23-2.79,1.17-.67,1.94-2.24,3.47-1.9l0.1,0a5.52,5.52,0,0,1,.43,1.42A16.19,16.19,0,0,1,361.21,274.95Z"/><path class="cls-12" d="M360.68,270.78l0.11,0.39-0.1,0c-1.52-.34-2.3,1.23-3.47,1.9-1.43.82-2.89,1.84-4.23,2.79a16.56,16.56,0,0,0-2,1.79c-0.18-1-.39-1.92-0.64-2.87-0.56-2.16-.68-4.28-1.43-6.4-0.68-1.92-1.61-4-2.46-5.86a39.25,39.25,0,0,1-2.24-4.56c-0.25-.84-0.39-2.18-1.17-2.82l0.72-1.27a34.33,34.33,0,0,0,8.14,3.46,20.38,20.38,0,0,1,3.52,1l0.15,0.06a2.9,2.9,0,0,1,1.85,2.34c0.67,2.2,1.62,4.24,2.21,6.39a7,7,0,0,0,.51,1.85A6.69,6.69,0,0,1,360.68,270.78Z"/><path class="cls-10" d="M373.56,288.26a1.94,1.94,0,0,1-.6,1.33c-0.23.45-.3,1-0.49,1.48l-2.94.25a9.08,9.08,0,0,0-1.61-1.24c-1-.55-2.09-1.08-3.15-1.56A23.06,23.06,0,0,1,362,287a7.84,7.84,0,0,0-1.66-1.14l-0.46-.2a4.43,4.43,0,0,0,.41-0.37c0.71-.71,2.27-1.77,2.48-2.73l0.53,0c-0.08-.68-0.43-1.49-0.53-2.06a7.07,7.07,0,0,0-.58-1.75,9,9,0,0,1-1-3.47,2,2,0,0,1,0-.25,16.19,16.19,0,0,0,0-2.36,5.52,5.52,0,0,0-.43-1.42l-0.11-.39a6.69,6.69,0,0,0-.51-1.84,7,7,0,0,1-.51-1.85c-0.6-2.15-1.54-4.19-2.21-6.39a2.9,2.9,0,0,0-1.85-2.34l-0.15-.06a3,3,0,0,1-.41-1.73,8.12,8.12,0,0,0-.45-1.22,11.9,11.9,0,0,1-.51-1.39c-0.43-1.65-1.25-3.27-1.4-5-0.07-1-.52-1.77-0.67-2.7a15,15,0,0,0-.38-2.61,6.35,6.35,0,0,1-.28-1.28l0.64-.06c0.33-.08.61-1.26,0.78-1.66s0.33-1,.6-1.56a13.06,13.06,0,0,0,1.41-3.56,15.47,15.47,0,0,1,.61-2.61,18.23,18.23,0,0,1,.76-2.88,8.49,8.49,0,0,0,1.05-3.75,2.25,2.25,0,0,0,.72-0.24c0.8,2.58,1.42,5.23,2,7.85,0.28,1.32.76,2.54,1.12,3.82,0.27,0.94.27,1.94,0.56,2.87,0.22,0.73.57,1.4,0.76,2.14,0.37,1.47.48,3,.85,4.47,0.29,1.21.86,2.35,1.23,3.53,0.16,0.49.29,1,.42,1.52,0.23,1,.42,2,0.62,2.93,0.14,0.63.26,1.21,0.45,1.82a20.92,20.92,0,0,1,.4,2.78c0.26,1.58.93,3.1,1.23,4.7,0.28,1.44.67,2.87,1,4.3,0.44,1.89.76,3.89,1.35,5.74a32.91,32.91,0,0,1,1.41,4.67,15.83,15.83,0,0,0,1,3.84c0.62,1.49.79,3.14,1.35,4.67Z"/><path class="cls-7" d="M380.82,220.79s0,0,0,0Zm58.82,64a7.67,7.67,0,0,0-2.38.71,25.1,25.1,0,0,1-3.51.69c-1,.14-1.79.27-2.79,0.33a14.65,14.65,0,0,0-3.4.94l-0.07-.23c-0.1-1.26.35-2.43,0.34-3.68,0-1,0-2,0-3a24.64,24.64,0,0,1,.27-4.81,11,11,0,0,0,.08-2.12l0-.35h0.16c1.14-.06,2.22-0.25,3.35-0.33l0.34-.34v-0.35a11.79,11.79,0,0,0-.43-3.82,5,5,0,0,1-.25-1.1,14.39,14.39,0,0,0-.65-2c-0.37-1.41-.49-2.93-0.76-4.36s-0.24-2.75-.6-4.06a10.32,10.32,0,0,1-.46-2.1,12.94,12.94,0,0,0-.05-1.91,38.7,38.7,0,0,1-1-3.94,13.82,13.82,0,0,0-.91-3.18,28.51,28.51,0,0,1-1.88-7.65,6.2,6.2,0,0,0-.33-2.3c-0.18-.45-0.34-0.85-0.48-1.27a4.68,4.68,0,0,1-.15-0.61,17.23,17.23,0,0,0-1.14-4.51c-0.65-1.42-.39-3.2-0.88-4.72a30.78,30.78,0,0,0-1.89-4.71,15.09,15.09,0,0,1-1.47-4.5l-0.57.1c-0.06-.33-0.14-0.66-0.23-1a6.24,6.24,0,0,1-.09-1.23h-0.06a11.4,11.4,0,0,0-2,.69,10.93,10.93,0,0,1-1,.81,4.13,4.13,0,0,1-1.64-.11c-1.86-.05-3.57.29-5.4,0.34a39.13,39.13,0,0,0-6.56,1,28.07,28.07,0,0,0-2.79.57,9.89,9.89,0,0,1-1.51.5,41.49,41.49,0,0,0-5,.89c-2.64.73-5.28,1.2-7.9,2-1,.28-2,0.55-2.93.8a59.74,59.74,0,0,1-7,1.44c-4,.56-7.89,1.79-11.86,2.61-1.05.22-2.09,0.42-3.12,0.61a5.09,5.09,0,0,0-1.11.46c-0.22-.73-0.46-1.45-0.71-2.17-0.56-1.57-.73-3.37-1.4-4.86a4.47,4.47,0,0,1-.39-0.9v0a2.07,2.07,0,0,1,.08-0.34,0.38,0.38,0,0,1,.23-0.13,0.49,0.49,0,0,1,.06.16c0.48-.21,1-0.35,1.46-0.53a11.31,11.31,0,0,1,1.57-.34,27.23,27.23,0,0,1,3-.73c0.95-.08,1.9.1,2.85,0,0.77-.09,1.53-0.2,2.31-0.28,1.23-.13,2.22-0.95,3.43-1.08a10,10,0,0,0,2.71-.33,31.91,31.91,0,0,1,6-1.51,52.75,52.75,0,0,0,6.55-1.79c0.68-.2,1.36-0.28,2-0.52,0.82-.3,1.64-0.8,2.49-1s1.65,0,2.46-.21c1.08-.22,2.14-0.48,3.2-0.75,1.7-.44,3.49-0.47,5.19-0.9a26.12,26.12,0,0,1,2.59-.67c0.78-.11,1.46-0.48,2.24-0.62,1.59-.27,3.62-0.16,5-0.95a3.71,3.71,0,0,1,2.21-.47,12.37,12.37,0,0,0,2.53-.53,20.21,20.21,0,0,0,2.1-.62,7.15,7.15,0,0,1,1.7-.27,7.35,7.35,0,0,0,1.4-.4l0,0.06a9.06,9.06,0,0,0,.43,2.31c0.24,1.74.87,3.31,1.23,5,0.33,1.53.89,3,1.21,4.51a25.29,25.29,0,0,0,1.32,4.53c0.48,1.2.82,2.58,1.18,3.82,0.44,1.52.27,3.17,0.75,4.72,0.22,0.73.64,1.41,0.78,2.16,0.09,0.51.07,1,.14,1.51a3.62,3.62,0,0,0,.11.66c0.21,0.75.65,1.41,0.79,2.18s0.07,1.48.21,2.21a8.17,8.17,0,0,0,.32,1.2,18.38,18.38,0,0,1,.85,2.77c0.24,1.5.58,3,.87,4.45,0.34,1.76.5,3.48,0.95,5.23a36.6,36.6,0,0,1,1,4.76,12.8,12.8,0,0,0,.28,2.28,7.84,7.84,0,0,1,.5,2,12.6,12.6,0,0,0,.66,3.29,9.29,9.29,0,0,1,1.08,2.87c0.08,1.13.51,2.18,0.65,3.3,0,0.11,0,.24,0,0.35l0.35,0.34a1,1,0,0,0,.34,0c0,2.8.88,5.36,1.32,8.08,0.16,1,.26,2,0.5,3a3,3,0,0,1,.27.84,3.29,3.29,0,0,0,.63,2.3l0-.09a0.94,0.94,0,0,0,.26.6Z"/><path class="cls-11" d="M361.22,275.2a9,9,0,0,0,1,3.47,7.07,7.07,0,0,1,.58,1.75c0.1,0.56.45,1.38,0.53,2.06l-0.53,0c-0.22,1-1.77,2-2.48,2.73a4.43,4.43,0,0,1-.41.37c-0.43.35-.89,0.64-1.28,1a10.45,10.45,0,0,0-1,1.79,7,7,0,0,1-1,.85,28.55,28.55,0,0,0-2.08,2.64c-0.66.76-1.35,1.44-2,2.17l-0.61-.26v-0.34c0-3.68.06-7.29-.2-10.85,0.46-.33.92-0.67,1.4-1,1.68-1.12,2.43-2.73,4.2-3.66a22.53,22.53,0,0,0,3.82-2.77h0.19Z"/><path class="cls-10" d="M355.81,219c0.67,1.49.84,3.3,1.4,4.86,0.25,0.72.49,1.44,0.71,2.17a2.25,2.25,0,0,1-.72.24,8.49,8.49,0,0,1-1.05,3.75,18.23,18.23,0,0,0-.76,2.88,15.47,15.47,0,0,0-.61,2.61,13.06,13.06,0,0,1-1.41,3.56c-0.26.53-.39,1.05-0.6,1.56s-0.45,1.58-.78,1.66l-0.64.06a7.58,7.58,0,0,1-.06-1.12c0-1.12-.3-2.08-0.37-3.15s0-2.24,0-3.35a14.84,14.84,0,0,1,0-2.55,25.65,25.65,0,0,1,1.42-4.62c0.35-.88.48-1.76,0.75-2.67,0.34-1.12,1.14-2,1.52-3.14,0.31-.87.24-1.73,0.6-2.63a5.3,5.3,0,0,0,.21-1A4.47,4.47,0,0,0,355.81,219Z"/><path class="cls-8" d="M351,277.67a49.45,49.45,0,0,1,.61,5c-2.93,2.21-5.48,4.84-8.36,7.22l-1.8,1.47a5.4,5.4,0,0,1-.61-2.55,8.93,8.93,0,0,0-.52-3c1.3-.92,2.58-1.88,3.81-2.91,1.64-1.37,3.42-2.38,5.12-3.64A16.75,16.75,0,0,0,351,277.67Z"/><path class="cls-11" d="M347.14,300.83c-0.43.49-1.13,0.81-1.59,1.3-0.89.93-1.75,1.88-2.59,2.84h0c0-2,.4-3,0-5a36.33,36.33,0,0,1-1-5.24,10.71,10.71,0,0,0-.35-3.29l-0.06-.15,1.8-1.47c2.88-2.38,5.43-5,8.36-7.22,0.26,3.56.2,7.16,0.2,10.85v0.34l0.61,0.26c-0.4.44-.79,0.89-1.16,1.38-1,1.34-2.32,2.44-3.28,3.77C347.64,299.7,347.51,300.39,347.14,300.83Z"/><path class="cls-12" d="M343.07,255.17c0.78,0.64.92,2,1.17,2.82a39.25,39.25,0,0,0,2.24,4.56c0.86,1.88,1.79,3.94,2.46,5.86,0.75,2.12.87,4.24,1.43,6.4,0.25,0.95.46,1.91,0.64,2.87a16.75,16.75,0,0,1-1.75,1.57c-1.69,1.26-3.48,2.28-5.12,3.64-1.23,1-2.51,2-3.81,2.91-0.31-1-.71-2-0.94-3.12-0.32-1.53,0-3-.61-4.48a19.68,19.68,0,0,1-1.44-4.14c-0.62-3.18-2.16-6.14-2.9-9.29-0.84-3.6-2.87-6.88-3.9-10.44-0.5-1.73-1.53-3.07-2.25-4.72-0.18-.42-0.27-1.09-0.48-1.62a2.66,2.66,0,0,0,.3.14c1.87,0.67,3.47,1.63,5.43,2.16,3.11,0.85,6.47,1.42,9.39,3.12l0.86,0.49Z"/><path class="cls-8" d="M340.85,288.78a5.4,5.4,0,0,0,.61,2.55c-3.86,3.17-7.74,6.28-11.9,9.09l-0.68.45c0-.06,0-0.14,0-0.2a28,28,0,0,1-.5-4.08,8.32,8.32,0,0,0-.6-2.23,21.16,21.16,0,0,1,1.69-1.32c3.6-2.46,7.35-4.71,10.9-7.24A8.93,8.93,0,0,1,340.85,288.78Z"/><path class="cls-12" d="M339.39,282.67c0.23,1.08.63,2.09,0.94,3.12-3.55,2.54-7.3,4.78-10.9,7.24a21.16,21.16,0,0,0-1.69,1.32,7,7,0,0,1-.49-1.9,16.73,16.73,0,0,0-.06-3.15,22.12,22.12,0,0,1-1-3.13,36.19,36.19,0,0,0-1-6.18c-0.53-1.77-1.21-3.49-1.7-5.33-0.45-1.63-1-3.25-1.43-4.86-0.56-2-1.16-4.15-1.88-6.06-0.41-1.1-1.09-2-1.48-3.13-0.31-.87-0.43-1.76-0.79-2.61a48.67,48.67,0,0,0-2.78-6.24c-1.32-2.11-1.92-4.68-3.15-6.87a4,4,0,0,1-.89-2.37,3.57,3.57,0,0,1,.6.07c1.93,0.42,3.7,1.05,5.66,1.44a8.05,8.05,0,0,1,3.14.89,5.32,5.32,0,0,0,1.11,1c0.85,0.32,1.88-.1,2.75.11,1.27,0.32,2.25,1.42,3.46,2,0.21,0.53.3,1.2,0.48,1.62,0.72,1.65,1.75,3,2.25,4.72,1,3.56,3.07,6.84,3.9,10.44,0.74,3.15,2.29,6.11,2.9,9.29a19.68,19.68,0,0,0,1.44,4.14C339.41,279.69,339.07,281.14,339.39,282.67Z"/><path class="cls-11" d="M333.79,315.44c-0.81,1.12-1.47,2.49-2.33,3.54a30,30,0,0,0,0-4.11,8.28,8.28,0,0,0-.42-1.15c-0.1-.5,0-1-0.08-1.45s-0.47-1-.58-1.57,0.11-1,.06-1.53c-0.19-1.54-.68-3.08-1-4.6-0.24-1.27-.35-2.44-0.61-3.7l0.68-.45c4.17-2.81,8-5.92,11.9-9.09l0.06,0.15a10.71,10.71,0,0,1,.35,3.29,36.33,36.33,0,0,0,1,5.24c0.44,1.94,0,3,0,5h0c-1.69,1.89-3.33,3.82-5,5.7A56.89,56.89,0,0,0,333.79,315.44Z"/><path class="cls-12" d="M331.47,314.87a30,30,0,0,1,0,4.11h0c-0.72.86-1.84,1.36-2.59,2.21s-1.18,1.88-1.83,2.76-1.48,1.47-2.14,2.3a40.16,40.16,0,0,1-3.13,3.7,6.21,6.21,0,0,1-.79.65c-0.27-2.13-.66-3-1-5.28-0.18-1.18-.34-2.48-0.64-3.65-0.77-3.08-1.94-6.12-2.48-9.28a10.92,10.92,0,0,0-1.41-3.13l0.21-.11s9.61-5.9,13.23-8.27c0.25,1.25.37,2.42,0.61,3.7,0.28,1.52.77,3.06,1,4.6,0.05,0.5-.16,1-0.06,1.53s0.49,1,.58,1.57,0,0.95.08,1.45A8.28,8.28,0,0,1,331.47,314.87Z"/><path class="cls-12" d="M327.74,294.36a8.32,8.32,0,0,1,.6,2.23,28,28,0,0,0,.5,4.08c0,0.06,0,.14,0,0.2-3.61,2.37-13.23,8.27-13.23,8.27l-0.21.11c-0.11-.21-0.22-0.42-0.31-0.64-0.56-1.29-.78-2.72-1.28-4.06-1.12-2.92-2-5.93-2.88-9-1-3.58-2.77-6.6-3.58-10.17-0.73-3.2-2-6.38-3.06-9.48-0.38-1.11-.64-2.23-0.91-3.37s-0.94-2.09-1.17-3.17c-0.17-.85.13-1.71,0-2.56a16.48,16.48,0,0,0-1-2.33c-0.39-1-.64-2-1-3s-0.41-2.08-.76-3.17c-0.53-1.7-1-3.57-1.58-5.24s-1.52-2.83-1.89-4.52-1.5-2.69-2-4.14a17.4,17.4,0,0,1-1-2.9,6.7,6.7,0,0,0-.27-2.1,11.05,11.05,0,0,1-1.33-2.84l-0.09-.24,0.47-.2c0.45,0.68,1.05.35,1.72,0.42a4.54,4.54,0,0,1,1.5.54c0.91,0.38,1.77.62,2.65,1.05a6,6,0,0,0,3.15.49,4.25,4.25,0,0,1,2.59.66,6.72,6.72,0,0,0,1.17.82,7.89,7.89,0,0,1,1.5.19c0.79,0.56.56,1.45,1.58,1.92s2.41,0.18,3.59.26a4,4,0,0,0,.89,2.37c1.23,2.19,1.84,4.76,3.15,6.87a48.67,48.67,0,0,1,2.78,6.24c0.37,0.85.48,1.74,0.79,2.61,0.4,1.09,1.08,2,1.48,3.13,0.72,1.91,1.32,4.1,1.88,6.06,0.47,1.62,1,3.24,1.43,4.86,0.49,1.85,1.17,3.56,1.7,5.33a36.19,36.19,0,0,1,1,6.18,22.12,22.12,0,0,0,1,3.13,16.73,16.73,0,0,1,.06,3.15A7,7,0,0,0,327.74,294.36Z"/><path class="cls-13" d="M278.61,289.23c1.06,0.35.45,0.85,0.72,1.74,0.5,1.58.89,3.43,1.26,5.18-2.22.58-4.89-.09-7.06-0.44-1.77-.27-3.55,0-5.31-0.3l-0.15,0c0-.75.05-1.59,0.05-2.25s0-1.25,0-1.89a27.49,27.49,0,0,0,3.35-.71c1.82-.49,3.51-0.24,5.31-0.58C277.49,289.79,277.59,288.91,278.61,289.23Z"/><path class="cls-13" d="M264.65,294.87a10.1,10.1,0,0,1,3.42.51,2.54,2.54,0,0,0,.46,1.52c0.21,0.24,1,.42,1.34.71,0.54,0.48.82,1.21,1.37,1.71,0.92,0.84,2.9,2,1.64,3.77a8.55,8.55,0,0,1-1.46.63c-0.39.23-.81,0.65-1.2,0.89-1.08.67-2.33,0.95-3.5,1.57-0.81.44-1.82,1.71-2.62,1.85-0.6-1.25.43-1.67,0.44-2.67,0-.31-0.54-1.33-0.61-1.79a12,12,0,0,1,0-1.73c0-1.16,0-2.32,0-3.48a6,6,0,0,1,0-1.43,11,11,0,0,0,.7-1.1,8.1,8.1,0,0,0-.19-0.91Z"/><path class="cls-13" d="M268.1,291.23c0,0.64,0,1.26,0,1.89s-0.09,1.5-.05,2.25a10.1,10.1,0,0,0-3.42-.51l-0.22.05a13.72,13.72,0,0,0-.51-1.72c-0.49-.94-1.72-1.36-2.25-2.51-0.45-.95-0.95-1.74-1.38-2.59-0.58-1.16-.4-1.14.19-2.29l0.8,0.13c0.84-.43,1.71.13,2.56-0.08a6.69,6.69,0,0,0,1.5-.73c0.82-.42,2.31-0.48,2.84-1.14A64.44,64.44,0,0,0,268.1,291.23Z"/><path class="cls-14" d="M262.05,294.12l0.27,1c-1.25.58-2.09,1.92-3.25,2.68a34.42,34.42,0,0,0-4.34,4c-2.18,2-2,1.18-2.77-1.4a35.38,35.38,0,0,0-1.85-4c1-.11,2-0.91,3-1.2,1.26-.38,2.67-0.41,3.86-0.69s2.38-.05,3.49-0.31c0.67-.16,1.79-1.54,2-0.21Z"/><path class="cls-14" d="M262.5,294c-0.21-1.34-1.33.05-2,.21-1.11.26-2.43,0.06-3.49,0.31s-2.6.31-3.86,0.69c-1,.29-2,1.09-3,1.2a35.38,35.38,0,0,1,1.85,4c0.75,2.58.58,3.44,2.77,1.4a34.42,34.42,0,0,1,4.34-4c1.16-.76,2-2.1,3.25-2.68l-0.27-1Zm5.72,1.41c1.76,0.34,3.54,0,5.31.3,2.17,0.34,4.83,1,7.06.44-0.38-1.74-.76-3.6-1.26-5.18-0.27-.9.34-1.39-0.72-1.74s-1.12.56-1.84,0.71c-1.81.34-3.5,0.09-5.31,0.58a27.49,27.49,0,0,1-3.35.71,64.44,64.44,0,0,1,.07-7.24c-0.53.66-2,.72-2.84,1.14a6.69,6.69,0,0,1-1.5.73c-0.85.21-1.72-.34-2.56,0.08l-0.8-.13c-0.58,1.15-.77,1.13-0.19,2.29,0.43,0.85.93,1.64,1.38,2.59,0.53,1.15,1.76,1.57,2.25,2.51a13.72,13.72,0,0,1,.51,1.72,8.1,8.1,0,0,1,.19.91,11,11,0,0,1-.7,1.1,6,6,0,0,0,0,1.43c0,1.16,0,2.32,0,3.48a12,12,0,0,0,0,1.73c0.06,0.46.61,1.47,0.61,1.79,0,1-1,1.42-.44,2.67,0.8-.14,1.81-1.41,2.62-1.85,1.17-.62,2.42-0.9,3.5-1.57,0.39-.24.81-0.66,1.2-0.89a8.55,8.55,0,0,0,1.46-.63c1.26-1.72-.72-2.93-1.64-3.77-0.54-.5-0.82-1.23-1.37-1.71-0.34-.29-1.13-0.47-1.34-0.71a2.54,2.54,0,0,1-.46-1.52Zm13.13-24.21,0.34,0.18c-0.21,1.13,1.46,2.24,1.94,3.14a8.74,8.74,0,0,1,.64,2.23c0.62,2.19,2.27,4.71,3.16,6.83a25.86,25.86,0,0,1,2.31,6.57c0.17,1.2-.2,2.07.25,3.31,0.63,1.72,1.77,3,1.8,4.89V299c0.95,3.07,1.05,6.22,1.72,9.34l-0.2.74c-0.8,0-12.47,2.9-14.76,3.31s-4.24,1.21-6.39,1.72c-2.75.66-5.41,1-8.17,1.5-4.1.79-8,1.86-12.07,2.69a17,17,0,0,0-3.35,1.16c-1.16.48-2.27,0.21-3.42,0.54a34.5,34.5,0,0,0-4,1.87l-0.16-.62H240.3c0.06,0.53-.1.74-0.52,0.65-0.5-2.34-1.54-4.49-1.59-6.91a12.36,12.36,0,0,0-.68-4.44,18.91,18.91,0,0,1-.76-4.25c-1-7-5.24-13.36-5.49-20.53h0.69l0.35,0c1-.76,2.67-0.82,4-1.2,3.29-.95,6.6-1.77,9.78-3,1.59-.63,3.26-0.75,4.85-1.34s3.13-1.44,4.77-2c2.12-.71,4.28-1.32,6.4-2s4-.66,5.92-1.38a44.2,44.2,0,0,1,5-1.6,18.12,18.12,0,0,0,3.8-1.67c1.44-.69,3.19-0.34,4.81-0.8C281.54,270.93,281.45,271.07,281.35,271.2Z"/><path class="cls-15" d="M293.31,309.13l0.2-.74c-0.67-3.12-.77-6.27-1.72-9.34v-0.7c0-1.92-1.17-3.16-1.8-4.89-0.45-1.24-.08-2.11-0.25-3.31a25.86,25.86,0,0,0-2.31-6.57c-0.9-2.12-2.55-4.63-3.16-6.83a8.74,8.74,0,0,0-.64-2.23c-0.48-.9-2.15-2-1.94-3.14l-0.34-.18c0.09-.14.19-0.27,0.29-0.4-1.62.46-3.37,0.11-4.81,0.8a18.12,18.12,0,0,1-3.8,1.67,44.2,44.2,0,0,0-5,1.6c-1.92.72-3.94,0.69-5.92,1.38s-4.28,1.34-6.4,2c-1.64.55-3.14,1.4-4.77,2s-3.27.71-4.85,1.34c-3.18,1.23-6.49,2.06-9.78,3-1.29.38-3,.44-4,1.2l-0.35,0h-0.69c0.25,7.17,4.46,13.5,5.49,20.53a18.91,18.91,0,0,0,.76,4.25,12.36,12.36,0,0,1,.68,4.44c0,2.42,1.09,4.57,1.59,6.91,0.42,0.09.58-.11,0.52-0.65H241l0.16,0.62a34.5,34.5,0,0,1,4-1.87c1.16-.33,2.27-0.06,3.42-0.54a17,17,0,0,1,3.35-1.16c4.09-.84,8-1.9,12.07-2.69,2.77-.53,5.43-0.85,8.17-1.5,2.15-.51,4.21-1.33,6.39-1.72S292.51,309.13,293.31,309.13ZM200,262.67c1.54-.57,2.89-1.58,4.51-2a25.79,25.79,0,0,0,5-1.79,51.69,51.69,0,0,1,5.07-1.94c4.67-1.73,9.67-2.47,14.1-4.74,1.27-.65,2.42-0.39,3.77-0.6s2.54-.66,3.79-0.94c2.68-.61,5.21-0.91,7.76-2.11s5.39-1.51,8.1-2.46c1.22-.42,2.33-1,3.59-1.33s2.81-.39,4.2-0.74c1.88-.49,3.71-0.76,5.57-1.2,2.38-.54,4.53-1.33,6.91-1.66a17.49,17.49,0,0,0,3.24-1.22l0.24-.08,0.26-.07c0.72-.17,1.41-0.07,2.15-0.21,1.62-.29,2.79-0.94,4.47-0.92a18.7,18.7,0,0,0,3.24-.53,15.71,15.71,0,0,0,2.1-.11c0.66-.17,1.37-0.49,2-0.69l0.09-.37a1.52,1.52,0,0,1,.9-0.63l0.09,0.24a11.05,11.05,0,0,0,1.33,2.84,6.7,6.7,0,0,1,.27,2.1,17.4,17.4,0,0,0,1,2.9c0.52,1.45,1.68,2.59,2,4.14s1.3,2.9,1.89,4.52,1,3.54,1.58,5.24c0.35,1.1.31,2.1,0.76,3.17s0.66,2,1,3a16.48,16.48,0,0,1,1,2.33c0.17,0.85-.13,1.71,0,2.56,0.23,1.09.9,2.06,1.17,3.17s0.53,2.27.91,3.37c1,3.1,2.33,6.27,3.06,9.48C308.2,289,310,292,311,295.6c0.86,3,1.76,6,2.88,9,0.5,1.34.72,2.77,1.28,4.06,0.09,0.22.2,0.43,0.31,0.64a10.92,10.92,0,0,1,1.41,3.13c0.54,3.16,1.71,6.2,2.48,9.28,0.29,1.17.46,2.47,0.64,3.65,0.33,2.23.72,3.15,1,5.28a3.62,3.62,0,0,0-1,1,9,9,0,0,0-3.68,1,29.61,29.61,0,0,1-4.65,1.57l-1.06.27c-4,1-8,2.08-12,2.91-2.1.44-3.78,1.46-5.92,1.49s-3.59,1.44-5.56,1.59c-2.13.17-3.9,1.52-6,1.59a21.84,21.84,0,0,0-5.19.63c-2.12.54-4,1.26-6.06,2s-4.1.87-6.06,1.53c-4,1.38-8,2.28-12,3.67-3.62,1.26-7.19,2.58-11,2.6-2.34,0-4.45,1.37-6.74,1.86-1.84.38-3.82,0.6-5.6,1.14s-3.19.48-4.85,0.9a16.39,16.39,0,0,0-2.79,1.36,6.43,6.43,0,0,1-2.61.48c-2.12.19-4,1.3-6.13,1.54-1.21.14-2.47-.2-3.62,0.33a3,3,0,0,0,.35-0.62l-0.51-.24a9.63,9.63,0,0,0,.13-3.33,28.91,28.91,0,0,0-.92-5,69.65,69.65,0,0,1-2.23-9.72c-0.24-1.7-.79-3.4-1-5.12a25,25,0,0,0-.15-2.8c-0.21-.94-0.75-1.77-0.9-2.73-0.54-3.6-1.64-7.12-2.17-10.71-0.48-3.16-2.41-6.25-3.09-9.36-0.64-2.92-1.75-5.61-2.48-8.52s-1.57-5.94-2.2-9-2.45-5.86-3.13-8.88c-0.18-.8-0.71-1.41-0.94-2.19a12.76,12.76,0,0,0-.63-2.18c-0.73-1.47-1.39-3-2.11-4.52a35.83,35.83,0,0,0-1.68-3.51,4.15,4.15,0,0,1-.94-1.66,9.08,9.08,0,0,0-.5-1.51,11,11,0,0,1-.52-1.58l0.07-.51c0.69-.18,1.33-1,2-1.1a22.51,22.51,0,0,1,3.24-.53,15.52,15.52,0,0,0,3.74-.68,31.92,31.92,0,0,1,3.59-.49,25.42,25.42,0,0,0,4.52-.87Z"/><path class="cls-8" d="M183.73,270a4.15,4.15,0,0,0,.94,1.66,35.83,35.83,0,0,1,1.68,3.51c0.72,1.48,1.38,3,2.11,4.52a12.76,12.76,0,0,1,.63,2.18c0.23,0.78.76,1.39,0.94,2.19,0.68,3,2.51,5.86,3.13,8.88s1.45,6,2.2,9,1.85,5.6,2.48,8.52c0.68,3.11,2.61,6.2,3.09,9.36,0.53,3.59,1.63,7.11,2.17,10.71,0.15,1,.69,1.8.9,2.73a25,25,0,0,1,.15,2.8c0.21,1.71.76,3.41,1,5.12a69.65,69.65,0,0,0,2.23,9.72,28.91,28.91,0,0,1,.92,5,9.63,9.63,0,0,1-.13,3.33c-0.84-.09-1.72-2.89-2.11-3.62a22.8,22.8,0,0,1-1.57-3c-0.2-.53-0.67-1.15-0.92-1.67a23.16,23.16,0,0,1-.76-2.32c-0.27-.74-0.93-1.17-1.22-1.85a24.21,24.21,0,0,1-.56-2.39c-0.8-2.68-2.29-5.12-3.13-7.83a28.28,28.28,0,0,1-1.59-4.87c-0.06-.55-0.05-1-0.11-1.51a3.79,3.79,0,0,0-.23-0.9,29.78,29.78,0,0,1-1.13-2.87c-0.53-1.82-.88-3.72-1.43-5.48-0.46-1.51-1.06-3-1.43-4.53-0.49-2-1.38-3.91-2-5.91-0.52-1.76-.87-3.58-1.42-5.32a25,25,0,0,1-.67-4,12.07,12.07,0,0,0-.26-1.34,25.9,25.9,0,0,1-.78-5.38c-0.05-1.43-.33-2.88-0.5-4.3-0.19-1.6-1-2.91-1.06-4.6-0.05-1.49-1-2.46-1.05-4.06s-0.46-3.06-.51-4.65-0.54-3.11-.52-4.75c0-1.17,0-2.35,0-3.53A9.08,9.08,0,0,1,183.73,270Z"/><path class="cls-15" d="M194.35,330.32l-11.63,6.86a32.91,32.91,0,0,0,.5-3.51c0-1.4,0-2.81,0-4.21,0-3.14-.37-6-0.52-9.12a25,25,0,0,0-.93-4.42c-0.21-.92,0-1.83-0.22-2.76a15.17,15.17,0,0,0-.81-2.07,27.85,27.85,0,0,0-.95-3c-0.51-1-1.41-1.7-1.69-2.9s-1.8-3.3-1.66-4.46v-0.06a6.66,6.66,0,0,1,1.77,0c0.7,0.18,1.12.42,1.84,0.55,1.75,0.33,4,0,5.78,0l2.09-.21a25,25,0,0,0,.67,4c0.55,1.74.9,3.56,1.42,5.32,0.6,2,1.48,3.88,2,5.91,0.37,1.56,1,3,1.43,4.53,0.55,1.76.9,3.66,1.43,5.48a29.78,29.78,0,0,0,1.13,2.87,3.79,3.79,0,0,1,.23.9Z"/><path class="cls-15" d="M162.35,299.62a17.29,17.29,0,0,1,2,.09,38.15,38.15,0,0,0,4.68.55c1.46,0,2.93-.07,4.38,0a11.84,11.84,0,0,1,2.13.43,4,4,0,0,0,.94.05v0.06c-0.14,1.16,1.35,3.19,1.66,4.46s1.18,1.86,1.69,2.9a27.85,27.85,0,0,1,.95,3,15.17,15.17,0,0,1,.81,2.07c0.21,0.93,0,1.84.22,2.76a25,25,0,0,1,.93,4.42c0.16,3.09.52,6,.52,9.12,0,1.4,0,2.81,0,4.21a32.91,32.91,0,0,1-.5,3.51q-6.28,3.68-12.55,7.39c0-2.93,0-5.88,0-8.81a5.58,5.58,0,0,0-.48-1.88,9.44,9.44,0,0,1,0-2,26.48,26.48,0,0,0-.48-5.16c-0.23-1.21-.16-2.39-0.44-3.61a29.53,29.53,0,0,1-.66-3,44.7,44.7,0,0,0-1.56-8.33c-0.39-1.19-.67-2.38-1-3.58s-1.25-2.07-1.54-3.28a15.86,15.86,0,0,0-1.1-3.65,2.1,2.1,0,0,1-.51-1.52v-0.13Z"/><path class="cls-15" d="M150.32,299.29q0.39,0.11.78,0.19a34.58,34.58,0,0,0,7.07.26c1.35,0,2.78-.11,4.18-0.13v0.13a2.1,2.1,0,0,0,.51,1.52,15.86,15.86,0,0,1,1.1,3.65c0.29,1.21,1.19,2.07,1.54,3.28s0.64,2.39,1,3.58a44.7,44.7,0,0,1,1.56,8.33,29.53,29.53,0,0,0,.66,3c0.28,1.22.21,2.4,0.44,3.61a26.48,26.48,0,0,1,.48,5.16,9.44,9.44,0,0,0,0,2,5.58,5.58,0,0,1,.48,1.88c0,2.93,0,5.88,0,8.81l-9.45,5.56-0.47-.8c0-1.57,0-3.13,0-4.7,0-2.11-.82-3.73-1.06-5.73-0.27-2.18.18-4.12-.5-6.31-0.3-1-.35-2-0.64-3a14.42,14.42,0,0,1-1-2.79c-0.15-1.66.08-2.9-.48-4.51a26.5,26.5,0,0,1-1.05-3.5c-0.28-1.43-.33-2.91-0.63-4.32s-1.11-2.4-1.35-3.72l-0.22-2.55a21.21,21.21,0,0,0-.82-2.23c-0.4-1.23-.72-2.42-1.17-3.63-0.35-.95-0.22-1.77-0.48-2.63C150.72,299.12,150.17,299.94,150.32,299.29Z"/><path class="cls-15" d="M135.72,305c-0.86-2.39-1.74-5.13-.56-7.38l0.06-.24c0.51,0.28,1,.69,1.56.94,1.15,0.53,1.62.13,2.83-.09a33.6,33.6,0,0,1,5.52,0,20.7,20.7,0,0,1,5.2,1.12c-0.16.65,0.4-.18,0.57,0.42,0.26,0.86.13,1.68,0.48,2.63,0.45,1.21.77,2.4,1.17,3.63a21.21,21.21,0,0,1,.82,2.23l0.22,2.55c0.24,1.32,1.08,2.41,1.35,3.72s0.34,2.89.63,4.32a26.5,26.5,0,0,0,1.05,3.5c0.56,1.61.33,2.85,0.48,4.51a14.42,14.42,0,0,0,1,2.79c0.28,1,.33,2,0.64,3,0.68,2.18.23,4.12,0.5,6.31,0.24,2,1.08,3.62,1.06,5.73,0,1.57,0,3.13,0,4.7l0.47,0.8-7.9,4.66c-8.22,4.84-7.87-15.52-8.85-20.29A218.86,218.86,0,0,0,135.72,305Z"/><path class="cls-16" d="M135.16,297.61c-1.18,2.25-.29,5,0.56,7.38a218.86,218.86,0,0,1,8.26,29.5c1,4.77.64,25.14,8.85,20.29l7.9-4.66,9.45-5.56q6.28-3.7,12.55-7.39l11.63-6.86"/><path class="cls-16" d="M134.69,297.13a4,4,0,0,1,.53.24c0.51,0.28,1,.69,1.56.94,1.15,0.53,1.62.13,2.83-.09a33.6,33.6,0,0,1,5.52,0,20.7,20.7,0,0,1,5.2,1.12q0.39,0.11.78,0.19a34.58,34.58,0,0,0,7.07.26c1.35,0,2.78-.11,4.18-0.13a17.29,17.29,0,0,1,2,.09,38.15,38.15,0,0,0,4.68.55c1.46,0,2.93-.07,4.38,0a11.84,11.84,0,0,1,2.13.43,4,4,0,0,0,.94.05,6.66,6.66,0,0,1,1.77,0c0.7,0.18,1.12.42,1.84,0.55,1.75,0.33,4,0,5.78,0"/><path class="cls-16" d="M183.23,267.38v1.12c0,1.18,0,2.36,0,3.53,0,1.64.47,3.12,0.52,4.75s0.45,3,.51,4.65,1,2.57,1.05,4.06c0.05,1.69.88,3,1.06,4.6,0.17,1.42.45,2.87,0.5,4.3a25.9,25.9,0,0,0,.78,5.38,12.07,12.07,0,0,1,.26,1.34,25,25,0,0,0,.67,4c0.55,1.74.9,3.56,1.42,5.32,0.6,2,1.48,3.88,2,5.91,0.37,1.56,1,3,1.43,4.53,0.55,1.76.9,3.66,1.43,5.48a29.78,29.78,0,0,0,1.13,2.87,3.79,3.79,0,0,1,.23.9c0.06,0.49.05,1,.11,1.51a28.28,28.28,0,0,0,1.59,4.87c0.85,2.71,2.33,5.15,3.13,7.83a24.21,24.21,0,0,0,.56,2.39c0.29,0.68.95,1.11,1.22,1.85a23.16,23.16,0,0,0,.76,2.32c0.25,0.52.72,1.14,0.92,1.67a22.8,22.8,0,0,0,1.57,3c0.39,0.73,1.27,3.53,2.11,3.62a9.63,9.63,0,0,0,.13-3.33,28.91,28.91,0,0,0-.92-5,69.65,69.65,0,0,1-2.23-9.72c-0.24-1.7-.79-3.4-1-5.12a25,25,0,0,0-.15-2.8c-0.21-.94-0.75-1.77-0.9-2.73-0.54-3.6-1.64-7.12-2.17-10.71-0.48-3.16-2.41-6.25-3.09-9.36-0.64-2.92-1.75-5.61-2.48-8.52s-1.57-5.94-2.2-9-2.45-5.86-3.13-8.88c-0.18-.8-0.71-1.41-0.94-2.19a12.76,12.76,0,0,0-.63-2.18c-0.73-1.47-1.39-3-2.11-4.52a35.83,35.83,0,0,0-1.68-3.51,4.15,4.15,0,0,1-.94-1.66,9.08,9.08,0,0,0-.5-1.51,11,11,0,0,1-.52-1.58"/><path class="cls-16" d="M182.78,266.41c0.69-.18,1.33-1,2-1.1a22.51,22.51,0,0,1,3.24-.53,15.52,15.52,0,0,0,3.74-.68,31.92,31.92,0,0,1,3.59-.49,25.42,25.42,0,0,0,4.52-.87l0.18-.07c1.54-.57,2.89-1.58,4.51-2a25.79,25.79,0,0,0,5-1.79,51.69,51.69,0,0,1,5.07-1.94c4.67-1.73,9.67-2.47,14.1-4.74,1.27-.65,2.42-0.39,3.77-0.6s2.54-.66,3.79-0.94c2.68-.61,5.21-0.91,7.76-2.11s5.39-1.51,8.1-2.46c1.22-.42,2.33-1,3.59-1.33s2.81-.39,4.2-0.74c1.88-.49,3.71-0.76,5.57-1.2,2.38-.54,4.53-1.33,6.91-1.66a17.49,17.49,0,0,0,3.24-1.22l0.24-.08,0.26-.07c0.72-.17,1.41-0.07,2.15-0.21,1.62-.29,2.79-0.94,4.47-0.92a18.7,18.7,0,0,0,3.24-.53,15.71,15.71,0,0,0,2.1-.11c0.66-.17,1.37-0.49,2-0.69,0,0.24-.14.33-0.48,0.29"/><path class="cls-16" d="M208.8,359.24l-0.11.2a3,3,0,0,1-.35.62c1.15-.53,2.41-0.2,3.62-0.33,2.11-.24,4-1.36,6.13-1.54a6.43,6.43,0,0,0,2.61-.48,16.39,16.39,0,0,1,2.79-1.36c1.66-.42,3.19-0.4,4.85-0.9s3.76-.76,5.6-1.14c2.3-.49,4.41-1.85,6.74-1.86,3.85,0,7.42-1.34,11-2.6,4-1.4,8-2.3,12-3.67,2-.67,4.08-0.85,6.06-1.53s3.95-1.43,6.06-2a21.84,21.84,0,0,1,5.19-.63c2.12-.06,3.89-1.42,6-1.59,2-.15,3.55-1.56,5.56-1.59s3.82-1.05,5.92-1.49c4-.84,8-1.88,12-2.91l1.06-.27a29.61,29.61,0,0,0,4.65-1.57,9,9,0,0,1,3.68-1"/><path class="cls-16" d="M291.27,236.59a11.05,11.05,0,0,0,1.33,2.84,6.7,6.7,0,0,1,.27,2.1,17.4,17.4,0,0,0,1,2.9c0.52,1.45,1.68,2.59,2,4.14s1.3,2.9,1.89,4.52,1,3.54,1.58,5.24c0.35,1.1.31,2.1,0.76,3.17s0.66,2,1,3a16.48,16.48,0,0,1,1,2.33c0.17,0.85-.13,1.71,0,2.56,0.23,1.09.9,2.06,1.17,3.17s0.53,2.27.91,3.37c1,3.1,2.33,6.27,3.06,9.48C308.2,289,310,292,311,295.6c0.86,3,1.76,6,2.88,9,0.5,1.34.72,2.77,1.28,4.06,0.09,0.22.2,0.43,0.31,0.64a10.92,10.92,0,0,1,1.41,3.13c0.54,3.16,1.71,6.2,2.48,9.28,0.29,1.17.46,2.47,0.64,3.65,0.33,2.23.72,3.15,1,5.28,0,0.15,0,.3.05,0.46"/><path class="cls-16" d="M320,331.58a3.62,3.62,0,0,1,1-1,6.21,6.21,0,0,0,.79-0.65,40.16,40.16,0,0,0,3.13-3.7c0.66-.82,1.51-1.43,2.14-2.3s1.11-1.93,1.83-2.76,1.87-1.36,2.59-2.21h0c0.86-1,1.51-2.42,2.33-3.54a56.89,56.89,0,0,1,4.18-4.77c1.67-1.88,3.31-3.81,5-5.7,0.84-1,1.7-1.91,2.59-2.84,0.46-.49,1.16-0.81,1.59-1.3s0.5-1.13.85-1.6c1-1.33,2.29-2.43,3.28-3.77,0.37-.49.76-0.94,1.16-1.38,0.67-.73,1.36-1.41,2-2.17a28.55,28.55,0,0,1,2.08-2.64,7,7,0,0,0,1-.85,10.45,10.45,0,0,1,1-1.79c0.4-.39.86-0.67,1.28-1a4.43,4.43,0,0,0,.41-0.37c0.71-.71,2.27-1.77,2.48-2.73"/><path class="cls-16" d="M290.75,237.11l-0.47-.14a1.52,1.52,0,0,1,.9-0.63l0.47-.2c0.45,0.68,1.05.35,1.72,0.42a4.54,4.54,0,0,1,1.5.54c0.91,0.38,1.77.62,2.65,1.05a6,6,0,0,0,3.15.49,4.25,4.25,0,0,1,2.59.66,6.72,6.72,0,0,0,1.17.82,7.89,7.89,0,0,1,1.5.19c0.79,0.56.56,1.45,1.58,1.92s2.41,0.18,3.59.26a3.57,3.57,0,0,1,.6.07c1.93,0.42,3.7,1.05,5.66,1.44a8.05,8.05,0,0,1,3.14.89,5.32,5.32,0,0,0,1.11,1c0.85,0.32,1.88-.1,2.75.11,1.27,0.32,2.25,1.42,3.46,2a2.66,2.66,0,0,0,.3.14c1.87,0.67,3.47,1.63,5.43,2.16,3.11,0.85,6.47,1.42,9.39,3.12l0.86,0.49a34.33,34.33,0,0,0,8.14,3.46,20.38,20.38,0,0,1,3.52,1l0.15,0.06a2.9,2.9,0,0,1,1.85,2.34c0.67,2.2,1.62,4.24,2.21,6.39a7,7,0,0,0,.51,1.85,6.69,6.69,0,0,1,.51,1.84l0.11,0.39a5.52,5.52,0,0,1,.43,1.42,16.19,16.19,0,0,1,0,2.36,2,2,0,0,0,0,.25,9,9,0,0,0,1,3.47,7.07,7.07,0,0,1,.58,1.75c0.1,0.56.45,1.38,0.53,2.06a2,2,0,0,1,0,.56"/><path class="cls-16" d="M311.1,242.33v0.18a4,4,0,0,0,.89,2.37c1.23,2.19,1.84,4.76,3.15,6.87a48.67,48.67,0,0,1,2.78,6.24c0.37,0.85.48,1.74,0.79,2.61,0.4,1.09,1.08,2,1.48,3.13,0.72,1.91,1.32,4.1,1.88,6.06,0.47,1.62,1,3.24,1.43,4.86,0.49,1.85,1.17,3.56,1.7,5.33a36.19,36.19,0,0,1,1,6.18,22.12,22.12,0,0,0,1,3.13,16.73,16.73,0,0,1,.06,3.15,7,7,0,0,0,.49,1.9,8.32,8.32,0,0,1,.6,2.23,28,28,0,0,0,.5,4.08c0,0.06,0,.14,0,0.2,0.25,1.25.37,2.42,0.61,3.7,0.28,1.52.77,3.06,1,4.6,0.05,0.5-.16,1-0.06,1.53s0.49,1,.58,1.57,0,0.95.08,1.45a8.28,8.28,0,0,1,.42,1.15,30,30,0,0,1,0,4.11v0.07"/><path class="cls-16" d="M327.28,247.55l0-.31a1.39,1.39,0,0,1,.55.75c0.21,0.53.3,1.2,0.48,1.62,0.72,1.65,1.75,3,2.25,4.72,1,3.56,3.07,6.84,3.9,10.44,0.74,3.15,2.29,6.11,2.9,9.29a19.68,19.68,0,0,0,1.44,4.14c0.63,1.49.28,2.94,0.61,4.48,0.23,1.08.63,2.09,0.94,3.12a8.93,8.93,0,0,1,.52,3,5.4,5.4,0,0,0,.61,2.55l0.06,0.15a10.71,10.71,0,0,1,.35,3.29,36.33,36.33,0,0,0,1,5.24c0.44,1.94,0,3,0,5"/><path class="cls-16" d="M351.81,293.82v-0.34"/><path class="cls-16" d="M342.42,254.85a1.56,1.56,0,0,1,.65.31c0.78,0.64.92,2,1.17,2.82a39.25,39.25,0,0,0,2.24,4.56c0.86,1.88,1.79,3.94,2.46,5.86,0.75,2.12.87,4.24,1.43,6.4,0.25,0.95.46,1.91,0.64,2.87a49.45,49.45,0,0,1,.61,5c0.26,3.56.2,7.16,0.2,10.85"/><path class="cls-16" d="M150.34,299.22a0.67,0.67,0,0,1,0,.07c-0.16.65,0.4-.18,0.57,0.42,0.26,0.86.13,1.68,0.48,2.63,0.45,1.21.77,2.4,1.17,3.63a21.21,21.21,0,0,1,.82,2.23l0.22,2.55c0.24,1.32,1.08,2.41,1.35,3.72s0.34,2.89.63,4.32a26.5,26.5,0,0,0,1.05,3.5c0.56,1.61.33,2.85,0.48,4.51a14.42,14.42,0,0,0,1,2.79c0.28,1,.33,2,0.64,3,0.68,2.18.23,4.12,0.5,6.31,0.24,2,1.08,3.62,1.06,5.73,0,1.57,0,3.13,0,4.7"/><path class="cls-16" d="M162.35,299.74a2.1,2.1,0,0,0,.51,1.52,15.86,15.86,0,0,1,1.1,3.65c0.29,1.21,1.19,2.07,1.54,3.28s0.64,2.39,1,3.58a44.7,44.7,0,0,1,1.56,8.33,29.53,29.53,0,0,0,.66,3c0.28,1.22.21,2.4,0.44,3.61a26.48,26.48,0,0,1,.48,5.16,9.44,9.44,0,0,0,0,2,5.58,5.58,0,0,1,.48,1.88c0,2.93,0,5.88,0,8.81v0.06"/><path class="cls-16" d="M176.44,300.79c-0.14,1.16,1.35,3.19,1.66,4.46s1.18,1.86,1.69,2.9a27.85,27.85,0,0,1,.95,3,15.17,15.17,0,0,1,.81,2.07c0.21,0.93,0,1.84.22,2.76a25,25,0,0,1,.93,4.42c0.16,3.09.52,6,.52,9.12,0,1.4,0,2.81,0,4.21a32.91,32.91,0,0,1-.5,3.51,4.56,4.56,0,0,0,0,.67"/><path class="cls-16" d="M213.5,337.32a1.34,1.34,0,0,1,1.05,1,2.3,2.3,0,0,0,.07,1.13,16.78,16.78,0,0,1,.88,2.42c0.26,1.38,0,2.59.46,3.95a9.22,9.22,0,0,1,.69,2.51,12.42,12.42,0,0,0,.09,2.57,6.5,6.5,0,0,1,.41,2.08c0,1.57,0,3.13,0,4.7"/><path class="cls-16" d="M220.28,335.76c0,1.44.71,2.7,1,4.17a19.7,19.7,0,0,0,1.05,3.57,9.32,9.32,0,0,1,.48,2.18,11,11,0,0,1,.56,2.09c0,0.69,0,1.4,0,2.09v5.74"/><path class="cls-16" d="M226.55,334.71L227,334.8c0.27,0.86,0,1.65.4,2.52a9.91,9.91,0,0,1,1.22,3.09,32.92,32.92,0,0,0,.82,4.75,16.62,16.62,0,0,1,.26,4.18c0,0.66-.08,1.37,0,2s1.51,3.95-.49,3.18"/><path class="cls-16" d="M275.61,240.24c0-.09.05-0.19,0.07-0.28s0-.14.05-0.2a0.37,0.37,0,0,1,.19.11,12.43,12.43,0,0,1,1.18,2.18c0.37,0.66.88,1.15,1.27,1.81a18.58,18.58,0,0,1,.76,2.14c0.47,1.09,1.17,2.06,1.7,3.07,1.12,2.11-.21,5.52,1.56,7.35"/><path class="cls-16" d="M280.83,239.2c0.15,0.69.64,0.68,1,1.13,1,1.12.72,2.69,1.35,4.05,1.33,2.92,3.27,6,2.83,9.44"/><path class="cls-16" d="M286,238.15l-0.46.11a4.33,4.33,0,0,0,1,1.09c0.72,1,.55,2.42,1,3.52a38.74,38.74,0,0,1,1.64,3.6,16.5,16.5,0,0,1,.48,5.25"/><path class="cls-16" d="M294.4,316.44c1.19,1.27,1.79,3.47,2.41,5a48.4,48.4,0,0,1,1.89,7,28.57,28.57,0,0,1,.92,8.36"/><path class="cls-16" d="M300.14,314.88c0,1.67.4,1.28,1.24,2.39s0.78,2.73,1.37,3.9a9.34,9.34,0,0,1,1.05,3.13c0.1,0.77.42,1.33,0.54,2.07,0.08,0.5-.15,1-0.06,1.54,0.14,0.72.51,1.29,0.58,2,0.13,1.38,0,2.84,0,4.23"/><line class="cls-16" x1="310.58" y1="334.47" x2="310.58" y2="334.46"/><path class="cls-16" d="M310.58,334.46v-0.27"/><path class="cls-16" d="M305.36,314.88c1,0.21,1.34,1.33,1.67,2.14a32.39,32.39,0,0,1,1.92,6.77c0.31,1.75,1.2,3.29,1.52,5.08a30.07,30.07,0,0,1,.1,5.31"/><path class="cls-16" d="M197.42,265.3c0.76,3,2.22,6.25,2.51,9.38"/><path class="cls-16" d="M199.93,262.68c0-.05.05-0.05,0.11,0a9.06,9.06,0,0,1,1.71,2.84c0.75,2.34.6,5.5,1.83,7.61"/><path class="cls-16" d="M205.76,261.79c0.28,1.89,1,3.71,1.32,5.6a9.8,9.8,0,0,0,2,4.87l0.2-.18"/><path class="cls-16" d="M355.43,218.14a5.3,5.3,0,0,1-.21,1c-0.35.9-.28,1.76-0.6,2.63-0.39,1.1-1.18,2-1.52,3.14-0.27.91-.4,1.8-0.75,2.67a25.65,25.65,0,0,0-1.42,4.62,14.84,14.84,0,0,0,0,2.55c0,1.11-.08,2.24,0,3.35s0.39,2,.37,3.15a7.58,7.58,0,0,0,.06,1.12,6.35,6.35,0,0,0,.28,1.28,15,15,0,0,1,.38,2.61c0.15,0.93.6,1.74,0.67,2.7,0.15,1.71,1,3.33,1.4,5a11.9,11.9,0,0,0,.51,1.39,8.12,8.12,0,0,1,.45,1.22,3,3,0,0,0,.41,1.73l0,0"/><path class="cls-16" d="M355.81,217.62l-0.28.06a0.3,0.3,0,0,0,0,.09,2.07,2.07,0,0,0-.08.34"/><path class="cls-16" d="M355.81,218.32a0.85,0.85,0,0,0,0-.51,0.49,0.49,0,0,0-.06-0.16,0.38,0.38,0,0,0-.23.13,0.36,0.36,0,0,0-.08.34v0a4.47,4.47,0,0,0,.39.9c0.67,1.49.84,3.3,1.4,4.86,0.25,0.72.49,1.44,0.71,2.17,0.8,2.58,1.42,5.23,2,7.85,0.28,1.32.76,2.54,1.12,3.82,0.27,0.94.27,1.94,0.56,2.87,0.22,0.73.57,1.4,0.76,2.14,0.37,1.47.48,3,.85,4.47,0.29,1.21.86,2.35,1.23,3.53,0.16,0.49.29,1,.42,1.52,0.23,1,.42,2,0.62,2.93,0.14,0.63.26,1.21,0.45,1.82a20.92,20.92,0,0,1,.4,2.78c0.26,1.58.93,3.1,1.23,4.7,0.28,1.44.67,2.87,1,4.3,0.44,1.89.76,3.89,1.35,5.74a32.91,32.91,0,0,1,1.41,4.67,15.83,15.83,0,0,0,1,3.84c0.62,1.49.79,3.14,1.35,4.67a0.5,0.5,0,0,0,.17-0.08c0.11-.15,0-0.4-0.3-0.77"/><path class="cls-16" d="M374.26,287.9a2.61,2.61,0,0,1,.07-0.27,11.56,11.56,0,0,0,1.94-.68,22.16,22.16,0,0,1,3.2-.69,25.19,25.19,0,0,0,4.1-1.16c1.25-.51,2.46-0.21,3.72-0.75s2.75-.67,4.14-1.14c1.62-.55,3.29-0.74,4.93-1.22,1.43-.43,2.9-0.62,4.32-1s2.88-1.1,4.32-1.6c2.7-.92,5.47-1.84,8.23-2.55a11.76,11.76,0,0,1,1.71-.08c0.73-.07,1.45-0.29,2.18-0.41a17.44,17.44,0,0,0,4.49-1,22.86,22.86,0,0,1,4.48-1.66,16.74,16.74,0,0,1,2.07-.34h0.16c1.14-.06,2.22-0.25,3.35-0.33"/><path class="cls-16" d="M356.86,226.32a1,1,0,0,0,.34,0,2.25,2.25,0,0,0,.72-0.24,5.09,5.09,0,0,1,1.11-.46c1-.19,2.07-0.39,3.12-0.61,4-.82,7.84-2,11.86-2.61a59.74,59.74,0,0,0,7-1.44c1-.25,2-0.52,2.93-0.8,2.62-.77,5.26-1.24,7.9-2a41.49,41.49,0,0,1,5-.89,9.89,9.89,0,0,0,1.51-.5,28.07,28.07,0,0,1,2.79-.57,39.13,39.13,0,0,1,6.56-1c1.83-.05,3.54-0.4,5.4-0.34a4.13,4.13,0,0,0,1.64.11,10.93,10.93,0,0,0,1-.81,11.4,11.4,0,0,1,2-.69"/><path class="cls-16" d="M418.45,212.4a18,18,0,0,0,.27,3.15,15.09,15.09,0,0,0,1.47,4.5,30.78,30.78,0,0,1,1.89,4.71c0.49,1.51.23,3.3,0.88,4.72a17.23,17.23,0,0,1,1.14,4.51,4.68,4.68,0,0,0,.15.61c0.14,0.43.3,0.82,0.48,1.27a6.2,6.2,0,0,1,.33,2.3,28.51,28.51,0,0,0,1.88,7.65,13.82,13.82,0,0,1,.91,3.18,38.7,38.7,0,0,0,1,3.94,12.94,12.94,0,0,1,.05,1.91,10.32,10.32,0,0,0,.46,2.1c0.35,1.32.34,2.71,0.6,4.06s0.4,3,.76,4.36a14.39,14.39,0,0,1,.65,2,5,5,0,0,0,.25,1.1,11.79,11.79,0,0,1,.43,3.82v0.35"/><path class="cls-16" d="M355.47,218l0.33-.16c0.48-.21,1-0.35,1.46-0.53a11.31,11.31,0,0,1,1.57-.34,27.23,27.23,0,0,1,3-.73c0.95-.08,1.9.1,2.85,0,0.77-.09,1.53-0.2,2.31-0.28,1.23-.13,2.22-0.95,3.43-1.08a10,10,0,0,0,2.71-.33,31.91,31.91,0,0,1,6-1.51,52.75,52.75,0,0,0,6.55-1.79c0.68-.2,1.36-0.28,2-0.52,0.82-.3,1.64-0.8,2.49-1s1.65,0,2.46-.21c1.08-.22,2.14-0.48,3.2-0.75,1.7-.44,3.49-0.47,5.19-0.9a26.12,26.12,0,0,1,2.59-.67c0.78-.11,1.46-0.48,2.24-0.62,1.59-.27,3.62-0.16,5-0.95a3.71,3.71,0,0,1,2.21-.47,12.37,12.37,0,0,0,2.53-.53,20.21,20.21,0,0,0,2.1-.62,7.15,7.15,0,0,1,1.7-.27,7.35,7.35,0,0,0,1.4-.4c0.39-.14.76-0.28,1.16-0.39l0.42-.09c0.87-.19,1.72-0.26,2.6-0.49,3.19-.85,6.33-1.75,9.54-2.42,2.15-.45,4.24-0.95,6.42-1.35,0.85-.15,1.64-0.1,2.48-0.31,0.38-.09.73-0.18,1.1-0.25a10.72,10.72,0,0,1,1.43-.2c0.93-.06,1.81-0.31,2.72-0.35,0.62,0,1.24.06,1.86,0a9.88,9.88,0,0,0,1.34-.3l0.46-.07,0.44,0c0.37,0,.75,0,1.11,0"/><path class="cls-16" d="M421.58,203.35a1.83,1.83,0,0,0,.87-0.54,12,12,0,0,0,1.75-2.93c1-2,2.14-3.91,3.31-5.85,1.57-2.58,2.83-5.32,4.63-7.76l0.23-.31"/><path class="cls-16" d="M432.37,186.3h-0.21l0.06,0.06a3.83,3.83,0,0,0,1.93.92,12.38,12.38,0,0,1,2,.43,18.89,18.89,0,0,0,2.12.62c1.49,0.4,2.94.92,4.46,1.3a15.14,15.14,0,0,1,1.85.79c0.66,0.25,1.38.27,2,.5a12.61,12.61,0,0,1,2.73,1.28l0.05,0a17,17,0,0,0,2.75,1.46c0.61,0.29,1.19.65,1.74,1a10.8,10.8,0,0,1,1,.48,0.68,0.68,0,0,1,.34.49l-0.29.07h0"/><path class="cls-16" d="M431.85,186.82a5.67,5.67,0,0,1,.38-0.48,0.15,0.15,0,0,1,0-.05,12.48,12.48,0,0,1,2.55-2.44c1.54-.85,3.1-1.61,4.61-2.52,1-.63,2.06-1.29,3.1-1.9a26.71,26.71,0,0,0,2.58-1.4c1.88-1.41,4.2-1.8,6.11-3.26a25.83,25.83,0,0,1,2.94-1.83l1-.6c0.9-.56,2-0.86,2.82-1.45a19.09,19.09,0,0,0,1.69-1.48c1.67-1.47,4.07-2.13,5.74-3.65"/><path class="cls-16" d="M455.27,173.07c0,0.16,0,.31,0,0.46-0.06.67-.26,1.33-0.29,2-0.11,2.88,0,5.81,0,8.71,0,0.57,0,1.14-.05,1.7-0.1,1.58-.29,3.14-0.29,4.75,0,0.8,0,1.62,0,2.43a12.59,12.59,0,0,0,.31,2,3.43,3.43,0,0,1,.05.56,1.91,1.91,0,0,1,0,.34"/><path class="cls-16" d="M455.34,180c-0.21.42-.13-4.84-0.08-6.51,0-.23,0-0.39,0-0.46v0"/><path class="cls-16" d="M444.54,197.79c0-.09.05-0.19,0.07-0.28l0.56-.14c0.14-1.61,2.55-2.94,3.48-4.11l0.79-1c0.72-.95,1.42-1.91,2.21-2.79a9.77,9.77,0,0,0,1.23-1.4,3.44,3.44,0,0,1,.68-0.77c0.33-.3.78-0.73,1.06-1a0.28,0.28,0,0,1,.29-0.35H455a0.42,0.42,0,0,0,.38-0.19c0,0.07,0,.14,0,0.21"/><path class="cls-16" d="M462.29,155.33a1.06,1.06,0,0,0,.13.7,6.27,6.27,0,0,1,.4.87c0.16,0.6.15,1.24,0.32,1.84a16.33,16.33,0,0,0,1.09,2.08c0.54,1.14.46,2.46,1.19,3.52a15.77,15.77,0,0,1,1.4,2.36,28.27,28.27,0,0,0,1.83,3.59,10.68,10.68,0,0,0,1.05,1.33,8.17,8.17,0,0,0,.88,1.11,8,8,0,0,0,.33-1.09c0.18-.67.31-1.29,0.53-2a9.91,9.91,0,0,0,.61-3.3,6.42,6.42,0,0,0-.27-2.78,13.18,13.18,0,0,0-1.4-2.37,9.17,9.17,0,0,0-1.83-1.65c-0.64-.46-1.39-0.69-2-1.2-0.21-.18-0.3-0.44-0.49-0.61a6.93,6.93,0,0,0-1.24-.78c-0.47-.3-1.44-1.08-2-1H463"/><path class="cls-16" d="M488.39,226.94V227c0,0.49,0,.95,0,1.39a15.15,15.15,0,0,0,.76,4.41,14.08,14.08,0,0,1,.64,1.48,5.86,5.86,0,0,0,.3,2.06,8.52,8.52,0,0,1,.69,1.24c0.16,0.46.18,1,.37,1.43s0.52,0.8.65,1.22-0.07.93,0,1.41a5,5,0,0,0,.66,1,4.7,4.7,0,0,0,.27.85c0.14,0.22.42,0.31,0.58,0.53s0.32,0.55.51,0.8a4.49,4.49,0,0,0,1.06,1.27c0.19-.86.52-1.7,0.7-2.58a18,18,0,0,0,0-1.84,14.83,14.83,0,0,0,.4-1.76,3.09,3.09,0,0,0-.29-1.09,7.3,7.3,0,0,1-.07-1.43,1.91,1.91,0,0,0-.33-1,2,2,0,0,1-.66-1.08c0-.28-0.05-0.57-0.08-0.86a5.33,5.33,0,0,0-1.36-1.43,19.63,19.63,0,0,0-1.76-1.72c-1.05-.91-1.69-3.25-2.71-4.24,0,0.08,0,1.21-.05,1.28"/><path class="cls-16" d="M500.17,297.78a1.18,1.18,0,0,1-.65-1.17"/><path class="cls-16" d="M500.17,297.78a3.46,3.46,0,0,1-.29,1,9,9,0,0,0-.71,3.77c0,1.91,0,3.82,0,5.73s-0.35,3.57-.35,5.41a9,9,0,0,1,0,1.75c-0.11.49-.61,0.68-0.3,1.27,0.55-.28.56-0.9,1-1.3a8,8,0,0,1,1.34-.76,3.44,3.44,0,0,0,.87-1,10.46,10.46,0,0,0,.88-1.18,12.14,12.14,0,0,1,.33-1.32,1.19,1.19,0,0,1,.35-0.37,10.76,10.76,0,0,0,.72-1.59,8.87,8.87,0,0,0,.41-3.58c-0.15-.82-0.41-1.6-0.63-2.46-0.18-.71.2-1.7-0.15-2.34-0.17-.32-0.67-0.67-0.89-1a4.21,4.21,0,0,0-1.73-1.56C500.79,298.14,500.46,298,500.17,297.78Z"/><path class="cls-16" d="M500.22,297.3v-0.23a3.52,3.52,0,0,1-.05.71"/><path class="cls-16" d="M436.19,269.11a4.94,4.94,0,0,1,.52-2.37,26.76,26.76,0,0,0,1.13-3.82c0.28-1.14,1-2,1.25-3.18a10.12,10.12,0,0,1,.47-2.44c0.24-.52.66-0.89,0.92-1.4a19.83,19.83,0,0,0,1-3.33c0.27-.91.84-1.68,1.17-2.58s1-1.74,1.28-2.69a8.41,8.41,0,0,0,.62-1.92,0.09,0.09,0,0,0,0-.05,1.18,1.18,0,0,0-.43-0.44,7.39,7.39,0,0,0-1.14-.63c-0.9-.39-1.87-0.13-2.81-0.53a22,22,0,0,1-4.22-2.09,13.59,13.59,0,0,0-2.72-1.37c-0.53-.24-0.95-0.62-1.51-0.87a15.35,15.35,0,0,1-2.36-1.23l0,0"/><path class="cls-16" d="M444.2,244.76a5.12,5.12,0,0,1,1.11-1.43c1.09-1.34,2-2.75,3.09-4.07s1.54-2.45,2.43-3.72c0.58-.85,1.4-1.45,2-2.24,0.4-.51.7-1.09,1.1-1.61a24.25,24.25,0,0,1,3.12-2.92c1-1,2.08-2,3.17-2.89a6.66,6.66,0,0,0,1-1.28,13.82,13.82,0,0,1,1.52-1.5,10.44,10.44,0,0,0,.93-1.13,3.23,3.23,0,0,1,.45-0.47,6.3,6.3,0,0,1,1.29-.74"/><path class="cls-16" d="M469.86,262.55l-0.26,0"/><path class="cls-16" d="M470.56,262.52a1.68,1.68,0,0,1-.56,0,0.5,0.5,0,0,1-.13,0"/><path class="cls-16" d="M445.13,245.11a5.06,5.06,0,0,0,2,1.44c1.26,0.52,1.72,1.65,2.87,2.4s2.65,1.27,3.91,2.09,2.58,1.29,3.83,2.09a16.79,16.79,0,0,0,1.92.89c0.67,0.31,1.25.82,1.91,1.18,1.42,0.78,2.42,2.16,3.83,3,1,0.6,1.84,1.28,2.85,1.88a20.33,20.33,0,0,0,2,1.16,1.72,1.72,0,0,1,1.05.69,0.57,0.57,0,0,1,0,.27,2.07,2.07,0,0,1-.81.34"/><path class="cls-16" d="M444.9,244.42a1.22,1.22,0,0,0,.22.69"/><path class="cls-16" d="M444.54,245.46s0-.05,0-0.08,0-.15,0-0.21a1.72,1.72,0,0,1,.51-0.06h0a6.16,6.16,0,0,0,1,0,27.61,27.61,0,0,0,3.66-1c2.4-.77,4.84-1.86,7.34-2.14,1.38-.16,2.64-0.63,4-0.91s2.27-.89,3.5-1.15c0.25-.05.51-0.09,0.77-0.13a16.17,16.17,0,0,0,2.65-.45l0.27-.08a18.3,18.3,0,0,1,3.93-1.39c1-.14,2.11-0.19,3.13-0.38a19.89,19.89,0,0,0,2.9-1.06c0.9-.32,1.75-0.13,2.61-0.35,0.23-.06.23-0.23,0.46-0.29a9.47,9.47,0,0,1,1.44,0,6.38,6.38,0,0,0,1.81-.56,11.29,11.29,0,0,1,1.42-.54,12.39,12.39,0,0,1,3.46-.65"/><path class="cls-16" d="M465.42,221.1H465.2c0.67-.16.54,0.43,0.57,0.87a10.93,10.93,0,0,0,.34,2.08c0.44,1.94.44,3.89,0.76,5.85,0,0.22.06,0.43,0.1,0.65a22.89,22.89,0,0,1,.52,4.85,5.25,5.25,0,0,0,.08,1.28,7.29,7.29,0,0,1,.28.75,12.86,12.86,0,0,1,0,1.42"/><path class="cls-16" d="M471.68,261.12v0.58a1,1,0,0,0,0-.43,3.87,3.87,0,0,0-.18-0.52c-0.35-1-.84-2.07-1.2-3.11-1-2.85-1.92-5.79-2.71-8.72-0.21-.76-0.49-1.53-0.76-2.31a16,16,0,0,1-.73-2.65,14.21,14.21,0,0,0-.23-1.63,5.69,5.69,0,0,1-.45-2.1"/><path class="cls-16" d="M420.89,203.35a9.06,9.06,0,0,0,.43,2.31c0.24,1.74.87,3.31,1.23,5,0.33,1.53.89,3,1.21,4.51a25.29,25.29,0,0,0,1.32,4.53c0.48,1.2.82,2.58,1.18,3.82,0.44,1.52.27,3.17,0.75,4.72,0.22,0.73.64,1.41,0.78,2.16,0.09,0.51.07,1,.14,1.51a3.62,3.62,0,0,0,.11.66c0.21,0.75.65,1.41,0.79,2.18s0.07,1.48.21,2.21a8.17,8.17,0,0,0,.32,1.2,18.38,18.38,0,0,1,.85,2.77c0.24,1.5.58,3,.87,4.45,0.34,1.76.5,3.48,0.95,5.23a36.6,36.6,0,0,1,1,4.76,12.8,12.8,0,0,0,.28,2.28,7.84,7.84,0,0,1,.5,2,12.6,12.6,0,0,0,.66,3.29,9.29,9.29,0,0,1,1.08,2.87c0.08,1.13.51,2.18,0.65,3.3,0,0.11,0,.24,0,0.35"/><path class="cls-16" d="M470.08,262.54a3.62,3.62,0,0,1,.48,0,0,0,0,0,1,0,0H471"/><path class="cls-16" d="M436.89,269.81c0.3-.05.53-0.25,0.87-0.31a10.37,10.37,0,0,1,1.27,0,21.28,21.28,0,0,0,4.1-.8,10.23,10.23,0,0,1,2.45-.23,10,10,0,0,0,3.13-1.05c1.65-.58,3.26-0.71,4.91-1.43,1.48-.65,3.07-0.06,4.58-0.66,1.91-.75,3.91-1.09,5.86-1.76,1.25-.44,2.58-0.37,3.89-0.69a11,11,0,0,1,1.9-.3H470"/><path class="cls-16" d="M436.55,269.81a1,1,0,0,0,.34,0"/><path class="cls-16" d="M428.2,231.89c0.22-1,1.38-.58,2.12-0.75,1.05-.24,1.93-0.87,3-1a7.35,7.35,0,0,0,2.57-.66,8.41,8.41,0,0,1,3.4-1.06,9.9,9.9,0,0,0,3.66-.94,26.27,26.27,0,0,1,3.68-1.22c1-.29,1.82-0.79,2.84-1.05,2-.5,4-1.21,6-1.74a33.21,33.21,0,0,0,4.11-1.22,3.65,3.65,0,0,1,1.09-.26c0.75-.08,1.47,0,2.29-0.16a6,6,0,0,0,1.13-.31,6.78,6.78,0,0,0,.95-0.4"/><path class="cls-16" d="M439.64,283.88a0.77,0.77,0,0,0,0-.15"/><path class="cls-16" d="M436.89,269.81h0c0,2.8.88,5.36,1.32,8.08,0.16,1,.26,2,0.5,3a3,3,0,0,1,.27.84,3.29,3.29,0,0,0,.63,2.3l0-.09"/><path class="cls-16" d="M469.6,262.16l0.06,0.28a0.7,0.7,0,0,0,.31.08h0.1a0.79,0.79,0,0,0,.22,0"/><path class="cls-16" d="M469.6,262.16l0.38,0.37h0l0.3,0.3"/><path class="cls-16" d="M470.64,260.76a1.53,1.53,0,0,0,.52.57,2.24,2.24,0,0,1,.27.47,0.15,0.15,0,0,1,0,.06,5.12,5.12,0,0,1,.23.9c0.26,1.13.88,2.1,1.15,3.24,0.13,0.5.16,1.14,0.31,1.63s0.46,0.72.56,1.13a15,15,0,0,0,.41,1.83,10.4,10.4,0,0,1,.54,1.67,34.63,34.63,0,0,0,2,5.73,23.16,23.16,0,0,1,.92,3.71c0,0.08,0,.16.05,0.24l0.28,0.06"/><path class="cls-16" d="M440,284.08a0.59,0.59,0,0,1-.39-0.21v0a0.94,0.94,0,0,0,.26.6,6.7,6.7,0,0,1,.45.5c0.9,1.26,2.19,1.89,3.28,3a9,9,0,0,1,1,1.53,4.08,4.08,0,0,0,.38.49c0.48,0.51,1.12.88,1.62,1.38,1,1,1.67,2.52,2.77,3.52,0.34,0.32.81,0.47,1.13,0.81s0.54,0.86.91,1.23c0.52,0.54,1.34.79,1.83,1.3a12.22,12.22,0,0,1,.65,1.08c0.26,0.31.77,0.52,1,.82,0.7,0.77,1.3,1.58,2.07,2.34l0,0"/><path class="cls-16" d="M457,302.64h0l0.35-.32c1.35-1.21,4.51-3.93,5.41-4.81,1.4-1.38,2.51-3,3.88-4.37,1-1,2.22-1.42,3.23-2.4,0.65-.64,1.4-1.12,2.07-1.72a5.15,5.15,0,0,0,.61-0.67c0.28-.34.53-0.7,0.84-1a35.37,35.37,0,0,1,2.87-2.58c0.44-.4.8-0.88,1.24-1.26,0.15-.13.32-0.24,0.5-0.37a1.25,1.25,0,0,0,.57-0.71c-0.22-.06-0.32,0-0.3.31"/><path class="cls-16" d="M444.54,289.65a0.36,0.36,0,0,1,.13-0.13c0.62-.51,2-0.18,2.71-0.2a21.57,21.57,0,0,0,2.75-.7c0.74-.1,1.39-0.09,2.13-0.26a44.62,44.62,0,0,0,5.31-1.5c1.67-.61,3.46-0.5,5.07-1.21,1-.45,2.11-0.86,3.2-1.21a39.84,39.84,0,0,1,5.16-1.33c0.35-.06.69,0,1-0.06,0.53-.09,1-0.31,1.54-0.38a4.9,4.9,0,0,0,1.72-.32,12.88,12.88,0,0,1,2-.61,1.64,1.64,0,0,1,.31-0.05,2.59,2.59,0,0,1,.49,0l-0.16.31"/><path class="cls-16" d="M457.07,302.87a1,1,0,0,1,0-.24,0.55,0.55,0,0,1,0-.14,0.74,0.74,0,0,1,.09-0.29,1.28,1.28,0,0,0,.25.1c1.21,0.48,2.71.05,4,.24a11.85,11.85,0,0,0,1.57.33c0.52,0,1,0,1.57,0a32.42,32.42,0,0,1,3.33.34c1.12,0.15,2.31.46,3.48,0.63,0.95,0.14,1.9,0,2.84.06a24.09,24.09,0,0,0,2.75.37,12.75,12.75,0,0,0,2.44-.07,5,5,0,0,1,1.36-.3c0.4,0,.75.35,1.21,0.4a11.77,11.77,0,0,0,1.21,0,13.64,13.64,0,0,1,2.14.39,1.67,1.67,0,0,0,.55,0h0c0.48-.09,1-0.31,1.41-0.35s0.74,0,1.09,0a8.11,8.11,0,0,0,1.67-.07,2.21,2.21,0,0,1,1.4-.22,2.17,2.17,0,0,0,.76.67c0.32,0.07.72-.07,1.06,0,0.63,0.06,1.08.26,1.74,0.34s1.18,0.54,1.9.68a5.56,5.56,0,0,1,1.91.38"/><path class="cls-16" d="M465.78,283.73l-0.32.07a0.86,0.86,0,0,0,.4.64,8.17,8.17,0,0,0,1.5.73,60,60,0,0,1,5.23,3.16c0.3,0.2.62,0.39,0.93,0.56,0.79,0.45,1.71.62,2.49,1.11,0.48,0.29.8,0.74,1.24,1.05s3.2,1.32,4.52,2.11a1.61,1.61,0,0,1,.71.66"/><path class="cls-16" d="M477.26,281.64a0.44,0.44,0,0,0,0,.1c0.15,0.4.46,0.73,0.64,1.13l0.09,0.21c0.44,0.93.78,1.9,1.14,2.86,0.87,2.4,1.87,4.78,2.6,7.22,0.14,0.43.25,0.87,0.37,1.29,0.41,1.64,1,3.18,1.38,4.84a7.32,7.32,0,0,0,1.05,2.45,11.9,11.9,0,0,1,1.29,2.85,0,0,0,0,1,0,0s0,0,0,0,0-.22.07-0.33"/><path class="cls-16" d="M360.34,285.82A7.84,7.84,0,0,1,362,287a23.06,23.06,0,0,0,2.77,1.57c1.06,0.48,2.13,1,3.15,1.56a9.08,9.08,0,0,1,1.61,1.24,9.09,9.09,0,0,0,1.64,1.27c1.52,0.87,3.11,1.72,4.71,2.43a29.14,29.14,0,0,1,2.91,1.61,15.07,15.07,0,0,0,2.84,1c1.3,0.46,2.66.62,3.75,1.47a4.56,4.56,0,0,0,1.41.9,1.46,1.46,0,0,0,1.17-.19c0.93-.26,1.88-0.28,2.82-0.6,1.12-.35,2.21-0.92,3.35-1.17,1.85-.41,3.54-1.09,5.37-1.63a29.78,29.78,0,0,1,4.34-1.26,21.62,21.62,0,0,0,5.2-1.68c3.3-1.38,6.7-2.38,10.05-3.49,2.51-.84,5-1.64,7.51-2.27,0.32-.08.66-0.18,1-0.29a14.65,14.65,0,0,1,3.4-.94c1-.06,1.83-0.2,2.79-0.33a25.1,25.1,0,0,0,3.51-.69,7.67,7.67,0,0,1,2.38-.71h0"/><path class="cls-16" d="M428.2,273.64a11,11,0,0,1-.08,2.12,24.64,24.64,0,0,0-.27,4.81c0,1,0,2,0,3,0,1.25-.45,2.42-0.34,3.68"/><path class="cls-16" d="M373.56,288.26a1.94,1.94,0,0,1-.6,1.33c-0.23.45-.3,1-0.49,1.48"/><path class="cls-16" d="M357.21,226c0,0.11,0,.24,0,0.34a8.49,8.49,0,0,1-1.05,3.75,18.23,18.23,0,0,0-.76,2.88,15.47,15.47,0,0,0-.61,2.61,13.06,13.06,0,0,1-1.41,3.56c-0.26.53-.39,1.05-0.6,1.56s-0.45,1.58-.78,1.66"/><path class="cls-16" d="M365.73,252.07a17.21,17.21,0,0,0,2.49-.66,12.52,12.52,0,0,1,2.58-1.1A126.31,126.31,0,0,0,388,245.18c3.41-1.21,6.83-2.4,10.29-3.4,1.47-.43,2.67-1.33,4.19-1.53a24.12,24.12,0,0,0,3.75-1c2.45-.78,5-1.29,7.36-2.17,1.72-.64,3.52-0.92,5.25-1.38l0.7-.2c0.69-.2,1.4-0.56,2.09-0.71,0.51-.1,1.36.14,1.72-0.26a0.65,0.65,0,0,0,.7.19"/><path class="cls-16" d="M417.77,213.08a1.94,1.94,0,0,1,.05.35,6.24,6.24,0,0,0,.09,1.23c0.09,0.33.17,0.66,0.23,1,0.45,2.33.28,4.68,0.57,7.06a57.65,57.65,0,0,1,.08,7.11,15.5,15.5,0,0,0,0,3,10.12,10.12,0,0,1,.31,2.24"/><path class="cls-16" d="M418.8,235.37a2.54,2.54,0,0,0,0,.28,7.28,7.28,0,0,0,.68,2.75c0.66,1.65,1.24,3.39,1.84,5.07,0.47,1.32.79,2.69,1.27,4,0.25,0.52.5,1,.74,1.57s0.3,1.06.41,1.61a5.35,5.35,0,0,1,.62,1.36,46.24,46.24,0,0,0,1.74,6c0.54,1.7,1.34,3.24,1.73,5a17.51,17.51,0,0,0,1.73,4.23c0.85,1.61,2.29,3.19,2.44,5.05"/><path class="cls-16" d="M454.64,197.44c0-.08,0-0.16,0-0.23a2.6,2.6,0,0,1,.35,1.66c0,1.46.69,2.84,0.9,4.29a13.14,13.14,0,0,0,.71,4,7.35,7.35,0,0,1,.79,1.69c0.13,0.6,0,1.17.11,1.77a7.27,7.27,0,0,0,1,2.36,3.82,3.82,0,0,1,.31,1.45,14.41,14.41,0,0,0,1.25,2.46,8.15,8.15,0,0,1,.51,3.47"/><path class="cls-16" d="M466.82,230.15l0.06-.26v0c1.17-.09,2.65-1.61,3.38-2.33a25.67,25.67,0,0,1,4.56-3.65,24.81,24.81,0,0,0,3.52-2.73c0.37-.32,1.53-1.51,2-1.41a14.25,14.25,0,0,0,.47,2c0.5,1.5.7,3.07,1.18,4.55a24.41,24.41,0,0,1,1.09,3.94,15.53,15.53,0,0,0,.58,2.2c0.16,0.51.19,1.08,0.35,1.6a7.08,7.08,0,0,0,.54,1.14,3.62,3.62,0,0,1,.3.76c0.13,0.47.14,1,.23,1.52,0.16,0.92.41,1.81,0.53,2.72s0.46,1.61.61,2.47c0.09,0.54,0,1.13.15,1.67a14.45,14.45,0,0,1,.63,2.18"/><path class="cls-16" d="M467.16,246.5c3.65,0,7.58-.43,11.15.27a28.89,28.89,0,0,0,5.21.07,11.84,11.84,0,0,1,2.28,0c0.46,0.09.7,0.26,1.1,0.32a2.74,2.74,0,0,0,.45,0"/><path class="cls-16" d="M260.47,285.82c-0.58,1.15-.77,1.13-0.19,2.29,0.43,0.85.93,1.64,1.38,2.59,0.53,1.15,1.76,1.57,2.25,2.51a13.72,13.72,0,0,1,.51,1.72,8.1,8.1,0,0,1,.19.91,11,11,0,0,1-.7,1.1,6,6,0,0,0,0,1.43c0,1.16,0,2.32,0,3.48a12,12,0,0,0,0,1.73c0.06,0.46.61,1.47,0.61,1.79,0,1-1,1.42-.44,2.67,0.8-.14,1.81-1.41,2.62-1.85,1.17-.62,2.42-0.9,3.5-1.57,0.39-.24.81-0.66,1.2-0.89a8.55,8.55,0,0,0,1.46-.63c1.26-1.72-.72-2.93-1.64-3.77-0.54-.5-0.82-1.23-1.37-1.71-0.34-.29-1.13-0.47-1.34-0.71a2.54,2.54,0,0,1-.46-1.52c0-.75.05-1.59,0.05-2.25s0-1.25,0-1.89a64.44,64.44,0,0,1,.07-7.24c-0.53.66-2,.72-2.84,1.14a6.69,6.69,0,0,1-1.5.73c-0.85.21-1.72-.34-2.56,0.08,0,0.19-.07.39-0.1,0.57"/><path class="cls-16" d="M261.86,294.17l0.19-.05,0.45-.11c-0.21-1.34-1.33.05-2,.21-1.11.26-2.43,0.06-3.49,0.31s-2.6.31-3.86,0.69c-1,.29-2,1.09-3,1.2a35.38,35.38,0,0,1,1.85,4c0.75,2.58.58,3.44,2.77,1.4a34.42,34.42,0,0,1,4.34-4c1.16-.76,2-2.1,3.25-2.68a3.06,3.06,0,0,1,.94-0.27"/><path class="cls-16" d="M266,291.39a18.46,18.46,0,0,0,2.07-.16,27.49,27.49,0,0,0,3.35-.71c1.82-.49,3.51-0.24,5.31-0.58,0.72-.15.82-1,1.84-0.71s0.45,0.85.72,1.74c0.5,1.58.89,3.43,1.26,5.18-2.22.58-4.89-.09-7.06-0.44-1.77-.27-3.55,0-5.31-0.3l-0.15,0a10.1,10.1,0,0,0-3.42-.51"/><path class="cls-16" d="M281.7,271.38c-0.21,1.13,1.46,2.24,1.94,3.14a8.74,8.74,0,0,1,.64,2.23c0.62,2.19,2.27,4.71,3.16,6.83a25.86,25.86,0,0,1,2.31,6.57c0.17,1.2-.2,2.07.25,3.31,0.63,1.72,1.77,3,1.8,4.89"/><path class="cls-16" d="M291.79,299c0.95,3.07,1.05,6.22,1.72,9.34"/><path class="cls-16" d="M231.94,285.82l0.35,0c1-.76,2.67-0.82,4-1.2,3.29-.95,6.6-1.77,9.78-3,1.59-.63,3.26-0.75,4.85-1.34s3.13-1.44,4.77-2c2.12-.71,4.28-1.32,6.4-2s4-.66,5.92-1.38a44.2,44.2,0,0,1,5-1.6,18.12,18.12,0,0,0,3.8-1.67c1.44-.69,3.19-0.34,4.81-0.8-0.1.13-.2,0.26-0.29,0.4"/><path class="cls-16" d="M231.25,285.13c0,0.23,0,.46,0,0.7,0.25,7.17,4.46,13.5,5.49,20.53a18.91,18.91,0,0,0,.76,4.25,12.36,12.36,0,0,1,.68,4.44c0,2.42,1.09,4.57,1.59,6.91,0.42,0.09.58-.11,0.52-0.65"/><path class="cls-16" d="M241,321.31l0.16,0.62a34.5,34.5,0,0,1,4-1.87c1.16-.33,2.27-0.06,3.42-0.54a17,17,0,0,1,3.35-1.16c4.09-.84,8-1.9,12.07-2.69,2.77-.53,5.43-0.85,8.17-1.5,2.15-.51,4.21-1.33,6.39-1.72s14-3.31,14.76-3.31c0,0,0,0,0,0"/><path class="cls-16" d="M289.7,277.47a8,8,0,0,0,.81,3.36,40.22,40.22,0,0,1,2.66,12"/><path class="cls-16" d="M293.88,278.16V277c-0.21,1.61.47,3.72,0.81,5.22,0.85,3.67,2.1,6.73,2,10.57"/><path class="cls-16" d="M296.67,276.08l0.57,0.11c1.51,5.87,5,12.46,3.6,18.68"/><path class="cls-16" d="M213.84,331.75c2,0.26,3-1.05,4.86-1.36a27.09,27.09,0,0,1,2.91,0,15.37,15.37,0,0,0,4.07-1.1c3-1,6.05-1.08,9.05-2.07a56.92,56.92,0,0,1,9-2.29c3-.49,6-1.23,9-1.73s6.15-1.72,9.14-1.92c2.53-.17,4.8-1,7.28-1.48s4.87-.28,7.31-0.74a27.34,27.34,0,0,0,7.16-2.69c1.92-.95,3.94-0.43,5.93-1.16a49.47,49.47,0,0,1,4.94-1.94c1.33-.32,2.64-0.65,3.93-1.09,3.13-1.09,6.14-2.45,9.31-3.42,1.16-.35,2.41-0.44,3.56-0.85,0.75-.27,1.39-0.87,2.1-1.12"/><path class="cls-16" d="M315.65,309.14s9.61-5.9,13.23-8.27l0.68-.45c4.17-2.81,8-5.92,11.9-9.09l1.8-1.47c2.88-2.38,5.43-5,8.36-7.22,0.46-.33.92-0.67,1.4-1,1.68-1.12,2.43-2.73,4.2-3.66a22.53,22.53,0,0,0,3.82-2.77"/><path class="cls-16" d="M318.93,300.43c0.8-.15.6-0.49,1.19-0.87a17.78,17.78,0,0,1,2.28-1.19,27.46,27.46,0,0,0,5.34-4,21.16,21.16,0,0,1,1.69-1.32c3.6-2.46,7.35-4.71,10.9-7.24,1.3-.92,2.58-1.88,3.81-2.91,1.64-1.37,3.42-2.38,5.12-3.64a16.75,16.75,0,0,0,1.75-1.57,16.56,16.56,0,0,1,2-1.79c1.34-.95,2.8-2,4.23-2.79,1.17-.67,1.94-2.24,3.47-1.9"/><path class="cls-16" d="M380.82,220.79a0.64,0.64,0,0,1,.15.17,18,18,0,0,1,1.48,2.91,19.11,19.11,0,0,1,.56,2.77,32.06,32.06,0,0,0,1.2,3.4c0.76,2.58,1.09,5.17,1.68,7.76,0.23,1,1.06,1.85,1.27,2.76,0.13,0.56-.17,1.22-0.06,1.8a10.58,10.58,0,0,0,.56,1.18c0.15,0.66.2,1.16,0.3,1.65a4.74,4.74,0,0,0,.38,1.15,8.92,8.92,0,0,1,.89,2.6c0.08,0.43-.2.94-0.09,1.37,0.27,1.1,1.24,1.76,1.54,2.86,0.1,0.4-.2.91-0.11,1.32,0.23,1.06.66,2.11,0.93,3.17a36.62,36.62,0,0,1,1.23,5.21,27.35,27.35,0,0,0,.31,3.83c0.48,2,1.38,3.59,1.72,5.56,0.44,2.52,1.71,5.37,1.41,8"/><path class="cls-16" d="M380.82,220.79l0,0S380.8,220.78,380.82,220.79Z"/><path class="cls-16" d="M381.56,220.41a1.17,1.17,0,0,0-.74.39"/><path class="cls-17" d="M118.89,406.6c32.8-6.85,64.51-19.2,97-27.52,54.16-13.9,106.68-32.8,160.54-47.64"/><path class="cls-17" d="M6.15,350.23c13.26-2.54,26.77-8.1,39.76-12,20.38-6,40.62-12.73,61.12-18.34,19.9-5.44,39.71-11.4,59.85-15.83,18.57-4.09,39.19-5.52,57.09-11.64"/><path class="cls-17" d="M45.12,351.62c6-3.39,13.44-4,20.05-5.85,15.84-4.37,31.33-9.83,47.28-13.83,14.89-3.73,29.31-8.72,44.14-12.67,18.23-4.86,39-7.53,56.24-15"/><path class="cls-17" d="M146.73,291.08c18.72-2.08,37.24-9.33,55.67-13.22"/><path class="cls-17" d="M264.34,230.53c20.43-7.32,42.45-12.19,63.45-17.9,21.37-5.81,45.3-7,66-14.11"/><path class="cls-17" d="M457.81,302.21c-16.61,4.43-34.22,6.2-51.5,7.66"/><path class="cls-17" d="M290.09,348.14c31.24-10.4,64.56-15.7,95.34-27.14"/><path class="cls-17" d="M111.24,362.06c21.59-4,43.46-13.4,64.75-19.36,8.49-2.38,17.44-5.31,25.72-7.08"/></svg>