<svg id="home-prototype" xmlns="http://www.w3.org/2000/svg" viewBox="0 0 510 576"><defs><style>.cls-1{fill:#b3d9f5;}.cls-2{fill:#d3e6f5;}.cls-3{fill:#7993a6;}.cls-4{fill:#637887;}.cls-5{fill:none;}.cls-10,.cls-11,.cls-13,.cls-14,.cls-5,.cls-6,.cls-8,.cls-9{stroke:#333;stroke-width:2px;}.cls-5,.cls-6{stroke-linecap:round;}.cls-11,.cls-5,.cls-8,.cls-9{stroke-linejoin:round;}.cls-12,.cls-6,.cls-9{fill:#ffb891;}.cls-10,.cls-13,.cls-14,.cls-6{stroke-miterlimit:10;}.cls-7,.cls-8{fill:#0071bc;}.cls-10{fill:#855b33;}.cls-11{fill:#dc1f25;}.cls-13,.cls-15{fill:#333;}.cls-14{fill:#7a7a7a;}</style></defs><title>design-thinking</title><polygon class="cls-1" points="279.35 397.3 279.35 474.36 271.58 474.36 148.52 474.36 148.52 302.35 148.52 300.63 148.52 293.34 279.35 293.34 279.35 392.86 279.35 397.3"/><polygon class="cls-1" points="271.58 474.36 271.58 494.45 144.43 494.45 144.43 474.36 148.52 474.36 271.58 474.36"/><path class="cls-2" d="M234.81,279.83v5.65H215.49V247h14.05a5.27,5.27,0,0,1,5.27,5.27v27.56Z"/><polygon class="cls-1" points="215.49 285.48 215.49 285.67 176.83 285.67 176.83 247.01 215.49 247.01 215.49 285.48"/><polygon class="cls-3" points="176.83 247.01 176.83 285.67 172.54 285.67 172.54 247.01 167.17 247.01 167.17 244.43 167.17 232.85 176.83 232.85 176.83 247.01"/><rect class="cls-1" x="167.17" y="247.01" width="5.37" height="38.66"/><rect class="cls-1" x="161.81" y="247.01" width="5.35" height="38.66"/><polygon class="cls-3" points="161.81 247.01 161.81 285.67 147.09 279.83 131.56 273.66 131.56 244.43 161.81 247.01"/><polygon class="cls-2" points="148.52 302.35 148.52 474.36 144.43 474.36 140.37 474.36 140.37 302.35 148.52 302.35"/><polygon class="cls-3" points="148.52 300.63 148.52 302.35 140.37 302.35 104.76 287.43 114.63 287.43 148.52 300.63"/><polygon class="cls-3" points="148.52 293.34 148.52 300.63 114.63 287.43 114.63 279.83 148.52 293.34"/><polygon class="cls-4" points="144.43 474.36 144.43 494.45 114.63 462.93 114.63 453.27 140.37 474.36 144.43 474.36"/><polygon class="cls-3" points="140.37 302.35 140.37 474.36 114.63 453.27 104.76 445.19 104.76 287.43 140.37 302.35"/><polyline class="cls-5" points="271.58 474.36 279.35 474.36 279.35 397.3"/><polyline class="cls-5" points="279.35 392.86 279.35 293.34 148.52 293.34 148.52 300.63 148.52 302.35"/><polyline class="cls-5" points="140.37 474.36 114.63 453.27 104.76 445.19 104.76 287.43 140.37 302.35"/><polyline class="cls-5" points="148.52 474.36 148.52 302.35 140.37 302.35 140.37 474.36 144.43 474.36"/><polyline class="cls-5" points="104.76 287.43 114.63 287.43 148.52 300.63"/><polyline class="cls-5" points="114.63 287.43 114.63 279.83 148.52 293.34"/><polygon class="cls-5" points="271.58 474.36 271.58 494.45 144.43 494.45 144.43 474.36 148.52 474.36 271.58 474.36"/><polyline class="cls-5" points="114.63 453.27 114.63 462.93 144.43 494.45"/><polyline class="cls-5" points="161.81 285.67 147.09 279.83 131.56 273.66 131.56 244.43 161.81 247.01"/><polyline class="cls-5" points="167.17 285.67 161.81 285.67 161.81 247.01 167.17 247.01 172.54 247.01 172.54 285.67"/><polyline class="cls-5" points="176.83 247.01 176.83 232.85 167.17 232.85 167.17 244.43 167.17 247.01 167.17 285.67 172.54 285.67 176.83 285.67"/><polyline class="cls-5" points="215.49 285.48 215.49 285.67 176.83 285.67 176.83 247.01 215.49 247.01"/><line class="cls-5" x1="215.49" y1="232.85" x2="215.49" y2="247.01"/><path class="cls-5" d="M234.81,279.83v5.65H215.49V247h14.05a5.27,5.27,0,0,1,5.27,5.27v27.56Z"/><line class="cls-5" x1="131.56" y1="244.43" x2="167.17" y2="244.43"/><line class="cls-5" x1="114.63" y1="279.83" x2="147.09" y2="279.83"/><line class="cls-5" x1="279.35" y1="293.34" x2="234.82" y2="279.83"/><path class="cls-5" d="M196,316.36c7.58,0.05,16.16,2.49,22.89,0"/><path class="cls-5" d="M223.43,315.21c3.05,1.72,7.69,1.49,11.44,0"/><path class="cls-6" d="M254,280.63s2.57,1.79,4.13,1.7a8.7,8.7,0,0,0,4.38-1.12c1.2-.82,3-3.78,1.75-6.06l-1-1.89-7.89,4.84Z"/><line class="cls-6" x1="258.05" y1="278.04" x2="260.19" y2="278.2"/><path class="cls-6" d="M262.67,275.17s5.4,2.09,8.39,1.94l3-.14,1.17-7.64-13.49.38Z"/><path class="cls-6" d="M258.71,267.36s-9.43,2.94-11.4,5c-0.94,1-.13,6.27,1.59,7"/><path class="cls-6" d="M270.9,272.07a31.53,31.53,0,0,1-.67,7.77c-0.49,1.95-3.94,5.59-3.5,7.55,1,4.59,4.91-.43,6.9-3.43,3.14-4.74,3.62-8.39,6.68-14.23,1.91-3.64,34.69-25.25,35.77-27.33,11.34-21.83-1.9-34.66-1.9-34.66-3,4.56-13.54,24.61-16.65,29.12-4.68,6.81-11.52,13.36-17.15,19.29s-12.78,7.29-20.33,10.21c0,0-7.25,5.52-9.5,6.71s0.74,6.78.74,6.78"/><path class="cls-6" d="M267.48,273c-9.93,2.08-17.35,17.17-19.85,15.6-1.8-1.12-1.15-3.89,4.24-11.19,0,0,6.1-6.11,7.37-6.67"/><path class="cls-7" d="M340.94,136.15a3.06,3.06,0,0,0-.22.93C340.78,136.82,340.89,136.37,340.94,136.15Zm-8.87,2.76,2.81-.93c-0.58-2.93,3.83-3.33,6.09-1.94a2.51,2.51,0,0,1,3.86-1.29c0.53,2-.5,4.26-1.72,4.65,5.42-.12,2.71,8.27-1.06,6,4.34,3-1.12,7.79-1.82,4.08,0.26,3.62-4,6.37-3.9,2.13-1.29,3.81-6.64,3-3.62.24-3.59,1.77-3.16-3-.81-4.62-5.13,1.06-2.92-4.07.5-4.87C330.32,141.54,329.49,138.91,332.07,138.91Z"/><path class="cls-7" d="M318.08,142c3-3.83,8.12-4.75,11.2-7.76-2.75,5.83-9.61,13.16-15.07,19.15C315.23,149.38,315.42,145.38,318.08,142Z"/><path class="cls-8" d="M408.73,409.33c0,0.24-.38.45-1.11,0.61-3.67.78-15.39,0.54-18.38,0.54-7.76,0-15.58.67-23.37,1.19l-3.79.22a129.82,129.82,0,0,1-22.58-.31c-0.74-.08-1.48-0.17-2.2-0.22a136.5,136.5,0,0,0-21.89-.31c-6.47.34-21.64-6.3-21.64-6.3,1.65-.68,2.61-2.93,3.12-4.54,0.05-.18.1-0.36,0.14-0.55s0.15-.55.19-0.76,0.07-.31.1-0.48c-7.39-.8-12.54,2-19.39-2.14l-0.17-.11,0.57-.56c1.71-1.46,1.13-10.64,1.69-14.47,0.91-6.26,2.05-12.47,3-18.77,3.31-23,9.21-45.8,13.38-68.79,2.38-13.12,4.17-26.68,7.7-39.57,1.26-4.59,3.11-9.28,4.84-14,2.53-6.81,4.84-13.71,4.89-20.57l0.57-17.16c0-6.4-.58-10.59-3.88-16-5.68-9.37-9.74-14.84-2.83-25.15a78.14,78.14,0,0,1,6.57-7.78c5.46-6,12.32-13.31,15.07-19.15v0c1-2.15,1.46-4.07,1.09-5.66v-0.07c10.26,0.46,21.14-2.44,25.94-12.56,3.19,7.84,9.71,13.95,16.37,19.06l1.71,1.29c6.35,5.2,10.88,17.11,6.87,24.88s-11.43,65.2-11.43,65.2c-0.34,3,3,10.5,4.53,14.18,2.33,5.57,4.17,11.37,6,17.26,3.72,11.68,7.24,23.81,10,35.79a655.54,655.54,0,0,1,13.85,85.09C404.7,382.72,411.61,408.61,408.73,409.33Z"/><path class="cls-5" d="M297.22,398.9c-0.07.26-.12,0.51-0.19,0.75"/><path class="cls-5" d="M312.08,241.18c-0.46,31.47-6.09,62.65-9.75,93.82-1.7,14.38-2.26,28.9-3.53,43.33-0.46,5.13-.15,13.61-1.48,20.09"/><path class="cls-5" d="M316.08,110.77c-1,.11-1.84.28-2.72,0.45"/><path class="cls-5" d="M302.73,83.08c-0.12-.31-0.24-0.62-0.38-0.91"/><path class="cls-5" d="M316.08,115.65c1.8-.21,3.68-0.36,5.14-1.45"/><path class="cls-5" d="M329.8,122.3c4.19-1.2,7-3.74,10.3-7.53"/><path class="cls-5" d="M329.8,122.3v-0.08"/><path class="cls-5" d="M314.22,153.34c1-4,1.2-8,3.86-11.39,3-3.83,8.12-4.75,11.2-7.76a0.06,0.06,0,0,0,0,0,4.73,4.73,0,0,0,.5-0.51"/><path class="cls-9" d="M356.33,115.87c-4.8,10.12-15.68,13-25.94,12.56-0.18,0,.17,0,0,0-0.11-2-.55-4.1-0.59-6.13a13.13,13.13,0,0,1-2,.48c-7.29,1.29-9.59-3.43-11.73-7.13a15.83,15.83,0,0,0-1.6.22c-0.57-1.61-1.15-2.2-1-4l-0.14-.65a21.15,21.15,0,0,1-5.78.62c0.14-2.41.88-4.83,0.5-7.36-0.53-3.56-1.89-2.82-3-5.58A17.1,17.1,0,0,1,304,94.06c-0.32-3.67-.07-7.65-1.28-11l0.77-.33C313,85.86,320.21,96.93,332,94.63c3.86-.76,8-6,11.73-2.87,3.93,3.24.79,8.29-2.43,10.43l1.71,0.57c3.74,1,7.35,1.82,11.26,2.81a33.15,33.15,0,0,0,.46,4.64A27.16,27.16,0,0,0,356.33,115.87Z"/><path class="cls-10" d="M354.22,105.57c-3.91-1-7.52-1.83-11.26-2.81l-1.71-.57c3.22-2.14,6.36-7.19,2.43-10.43-3.75-3.09-7.87,2.11-11.73,2.87-11.74,2.3-18.91-8.77-28.45-11.88l-0.77.33c1.21,3.33,1,7.31,1.28,11l-1.08.12c-3.07-4.56-7.89-7.09-6.88-13.73,0.79-5.2,5.44-10.48,9.46-13.72,8.78-7.11,19-9.72,29.73-6.87,10.13,2.7,18,7.21,19.7,18.31C356.35,87.39,353.82,96.53,354.22,105.57Z"/><path class="cls-5" d="M354.41,105.62l-0.19,0"/><path class="cls-5" d="M307.5,96.48c2.3-1.15,8-1.44,9.73,0"/><path class="cls-5" d="M341,136c-2.26-1.39-6.67-1-6.09,1.94a3.47,3.47,0,0,0,.15.57"/><path class="cls-5" d="M340.68,137.23a1.13,1.13,0,0,0,0-.15c0.07-.26.17-0.7,0.22-0.93"/><path class="cls-5" d="M340.94,136.15a3.06,3.06,0,0,0-.22.93"/><path class="cls-5" d="M340.94,136.15a0.24,0.24,0,0,1,0-.1"/><path class="cls-5" d="M340.18,149a2,2,0,0,1,.05.45v0c0.7,3.71,6.16-1.12,1.82-4.08,3.77,2.32,6.49-6.07,1.06-6,1.22-.39,2.25-2.63,1.72-4.65A2.51,2.51,0,0,0,341,136"/><path class="cls-5" d="M332.89,139a5,5,0,0,0-.82-0.07c-2.57,0-1.75,2.63.34,3.41-3.41.81-5.63,5.94-.5,4.87-2.35,1.58-2.78,6.38.81,4.62-3,2.76,2.33,3.57,3.62-.24-0.09,4.24,4.15,1.49,3.9-2.13"/><path class="cls-5" d="M322.24,93.61c5.47,2.33,10.71,10.62,8.15,16.73"/><path class="cls-11" d="M369,470.16c11,7.67,2.2,21,2.57,31.83H369c-1.25-1.75-1-9.88-2.73-13.57A20.64,20.64,0,0,0,356.12,490l-4.32,1.9c1.17-4.15,1.39-7.67,0-11.5L357,478C361,476.48,365.84,472.82,369,470.16Z"/><path class="cls-9" d="M369.42,469.39l-0.43.77c-3.16,2.66-8,6.31-12,7.81l-5.17,2.41a93.21,93.21,0,0,1-2.2-10.22c1.72-11.62,2.71-23.3,5-31.66,2.18-8,3.36-18.94,7.53-25.74l-0.05-.88c1.25-.07,2.52-0.14,3.79-0.22l0.12,2a112.24,112.24,0,0,0,.21,29.86C367.33,451.8,366.66,461.53,369.42,469.39Z"/><path class="cls-12" d="M362.36,412.76c-4.17,6.8-5.35,17.75-7.53,25.74-2.28,8.36-3.28,20-5,31.66,0,0.14,0,.28-0.07.42a126.61,126.61,0,0,1-4.4,20.14,11.5,11.5,0,0,1-14.28-11.16,12,12,0,0,1,.22-2.26c0.69-1.44,1.32-2.91,1.9-4.39a77.57,77.57,0,0,0,3.38-10.81c3.65-15.46,3.86-34.54.89-50.19l0.05-.55c0.72,0.05,1.46.13,2.2,0.22a129.85,129.85,0,0,0,22.58.31Z"/><path class="cls-5" d="M333.21,472.91a77.57,77.57,0,0,0,3.38-10.81c3.65-15.46,3.86-34.54.89-50.19l0.05-.55c0.72,0.05,1.46.13,2.2,0.22a129.85,129.85,0,0,0,22.58.31l0.05,0.87c-4.17,6.8-5.35,17.75-7.53,25.74-2.28,8.36-3.28,20-5,31.66,0,0.14,0,.28-0.07.42"/><path class="cls-12" d="M349.54,470.58a125.61,125.61,0,0,1-4.4,20.15l-0.39,1.15c-5.71,4.45-25.31,15.34-23.06,1.34,1.79-3.07,3.48-6,5.1-8.37a55.84,55.84,0,0,0,4.3-7.55c0.68-1.43,1.31-2.89,1.88-4.36a11.49,11.49,0,0,1,9.4-4.88A11.37,11.37,0,0,1,349.54,470.58Z"/><path class="cls-11" d="M344.75,491.88a49.85,49.85,0,0,1-2.38,5.8c-5.51,11.29-14.83,18-31.81,13.52a2.14,2.14,0,0,0-1.43-.79c4.6-3.51,8.77-10.65,12.56-17.19C319.44,507.22,339,496.33,344.75,491.88Z"/><path class="cls-5" d="M344.75,491.88c-5.71,4.45-25.31,15.34-23.06,1.34,1.79-3.07,3.48-6,5.1-8.37a55.83,55.83,0,0,0,4.3-7.55c0.68-1.43,2.21-4.66,2.78-6.13"/><path class="cls-11" d="M355.8,489.88c-1.52,5.38-4,11.22-4.1,18-0.27,0-2,0-2.3,0-0.92-4.26-1.34-8.56-2.85-12.61a7.23,7.23,0,0,0-4.15,2.45l0,0a49.85,49.85,0,0,0,2.38-5.8l0.39-1.15a125.61,125.61,0,0,0,4.4-20.15c0-.14,0-0.28.07-0.42l0.51,0.09A18.11,18.11,0,0,1,356.2,478C357.59,481.85,357,485.72,355.8,489.88Z"/><path class="cls-7" d="M390.06,185.88c-0.86-6.74-3.28-13.9-6.07-21l0.35-1.85c3.29-7.87-.53-19.68-6.86-24.88-3.79-3.11-8.15-5-13.18-4.32-3.16.45-12.36,7.07-11.41,8.61L356.33,181c0.71,6.73,2.3,10.67,5.13,16.28a148.51,148.51,0,0,0,24-6.86c1.61-.44,5.13-1.43,4.58-4.58"/><path class="cls-12" d="M362.12,197.32c2,4,1,8.1,3.35,11.44-2.87-.27-5.18-0.4-7.77-0.52-12.88-.63-25.36-1.69-38-2.88-7.57-.71-22.84-0.43-26.21,8.76v1.09c-5,2.8-8.37,5.86-13.8,7.84a9.41,9.41,0,0,0,5.16,1.16c3.16,0,7.1.56,10.28,0.56a18.2,18.2,0,0,0,4.58-.59,1.33,1.33,0,0,0,1.14,1.16c4.39,0.51,10.34-1.47,14.55-4.58,5.54-4.09,7.76-3.68,14.9-2.3,11.19,2.17,21.71,7.8,33.17,8.6,3.7,0.26,16.31,2.27,16.87,1.71,0,0,9.74-13.32,4-42.32,0,0-5.22.92-12.87,6.29-6.53,4.58-10,4.58-10,4.58"/><path class="cls-5" d="M280.81,223.06c5.14-2.57,9.86-6.35,14.87-9.15,4.06-2.27,8.39-4.39,12-7.44"/><path class="cls-5" d="M279.67,223.06a9.41,9.41,0,0,0,5.16,1.16c1.54-.21,3.24-0.81,4.85-1.21s3.23-1.77,4.85-2.38a19.89,19.89,0,0,0,3-1c1.28-.71,2.28-2,3.89-1.76"/><path class="cls-5" d="M286,224.2c3.16,0,6,.57,9.15.57a18.2,18.2,0,0,0,4.58-.59c1.66-.39,4.55-0.9,5.72-2.27"/><path class="cls-5" d="M293.47,214.12c3.37-9.2,18.64-9.48,26.21-8.76,12.65,1.19,25.14,2.25,38,2.88,5.78,0.28,12.71,1.52,18.64,1.1"/><path class="cls-5" d="M358,143.55C357,156.43,355,168,356.33,181c0.71,6.73,2.45,9.51,5.28,15.12,2,4,1.51,9.26,3.85,12.6"/><path class="cls-5" d="M361.46,197.32c6.36-1.18,12.62-7,18.87-9.58,1.54-.65,6.94-3,8.46-1.74,2.26,1.93-1.71,4-3.32,4.46"/><path class="cls-5" d="M384.34,186.45c3.3,11.37,2.45,32.11-4,42.32"/><path class="cls-5" d="M300.83,225.34c4.36,0.77,10.34-1.47,14.55-4.58,5.54-4.09,7.76-3.68,14.9-2.3,11.19,2.17,21.71,7.8,33.17,8.6,3.7,0.26,16.31,2.27,16.87,1.71"/><path class="cls-5" d="M352.88,142.41c-1-1.54,8.25-8.16,11.41-8.61,5-.71,9.39,1.21,13.18,4.32,6.34,5.2,10.15,17,6.86,24.88"/><path class="cls-5" d="M375.76,144.12c4.63,13.18,12.59,28.31,14.3,41.75"/><path class="cls-13" d="M279.67,222.48h-5.15l-9.72-9.15c5.06-2.11,23.85-1.65,28.67.79v1.09l-12.65,7.84c-1.72,0-4.58-.57-6.29-0.57"/><path class="cls-5" d="M358,143.55C357,156.43,355,168,356.33,181c0.71,6.73,2.45,9.51,5.28,15.12,2,4,1.51,9.26,3.85,12.6"/><path class="cls-5" d="M361.46,197.32c6.36-1.18,12.62-7,18.87-9.58,1.54-.65,6.94-3,8.46-1.74,2.26,1.93-1.71,4-3.32,4.46"/><path class="cls-5" d="M384.34,163c3.29-7.87-.53-19.68-6.86-24.88-3.79-3.11-8.15-5-13.18-4.32-3.16.45-12.36,7.07-11.41,8.61"/><path class="cls-5" d="M375.76,144.12c4.63,13.18,12.59,28.31,14.3,41.75"/><path class="cls-5" d="M358,143.55C357,156.43,355,168,356.33,181c0.71,6.73,2.45,9.51,5.28,15.12,2,4,1.51,9.26,3.85,12.6"/><path class="cls-5" d="M352.88,142.41c-1-1.54,8.25-8.16,11.41-8.61,5-.71,9.39,1.21,13.18,4.32,6.34,5.2,10.15,17,6.86,24.88"/><path class="cls-5" d="M375.76,144.12c4.63,13.18,12.59,28.31,14.3,41.75"/><path class="cls-14" d="M264.23,212.76c-1.3,2-.77,7.35-1.06,10.78,3-.26,6.77-1.58,10-0.92a1.15,1.15,0,0,0,1.4-1C275,214.63,271.65,212.12,264.23,212.76Z"/><ellipse class="cls-15" cx="314.22" cy="103.69" rx="1.29" ry="1.72"/><path class="cls-5" d="M314.35,115.2c2.23-.42,4.84-0.26,6.75-1.66"/></svg>