<svg xmlns="http://www.w3.org/2000/svg" viewBox="0 0 1525 920"><defs><style>.cls-1,.cls-10,.cls-5{fill:#fff;}.cls-2{fill:#c4c4c4;}.cls-18,.cls-20,.cls-25,.cls-3,.cls-8{fill:none;}.cls-10,.cls-11,.cls-13,.cls-14,.cls-15,.cls-16,.cls-17,.cls-18,.cls-19,.cls-20,.cls-21,.cls-22,.cls-23,.cls-24,.cls-26,.cls-27,.cls-28,.cls-29,.cls-3,.cls-5,.cls-6,.cls-7,.cls-8,.cls-9{stroke:#000;stroke-width:2px;}.cls-10,.cls-11,.cls-13,.cls-19,.cls-20,.cls-21,.cls-22,.cls-23,.cls-24,.cls-25,.cls-27,.cls-28,.cls-29,.cls-3,.cls-30,.cls-5,.cls-6,.cls-7,.cls-8,.cls-9{stroke-linecap:round;}.cls-10,.cls-13,.cls-14,.cls-20,.cls-21,.cls-22,.cls-23,.cls-24,.cls-25,.cls-3,.cls-6,.cls-9{stroke-linejoin:round;}.cls-3{opacity:0.2;}.cls-11,.cls-4{fill:#e89f6e;}.cls-11,.cls-15,.cls-16,.cls-17,.cls-18,.cls-19,.cls-26,.cls-27,.cls-28,.cls-29,.cls-30,.cls-5,.cls-7,.cls-8{stroke-miterlimit:10;}.cls-32,.cls-7{fill:#d69365;}.cls-12,.cls-9{fill:#f15a24;}.cls-13{fill:#666;}.cls-14,.cls-15,.cls-24,.cls-31{fill:#ccc;}.cls-17,.cls-27{fill:#333;}.cls-19{fill:#ed1c24;}.cls-21{fill:#999;}.cls-22{fill:#1a1a1a;}.cls-23,.cls-33{fill:#e6e6e6;}.cls-25,.cls-30{stroke:#fff;}.cls-26{fill:#4d4d4d;}.cls-28{fill:#c69c6d;}.cls-29{fill:#134c73;}.cls-30{fill:#333361;}</style></defs><title>hero-fast</title><g id="Layer_2" data-name="Layer 2"><g id="hero-frames"><rect class="cls-1" width="1525" height="920"/></g><g id="heros"><path class="cls-2" d="M1231.57,878.56c-2.07-2.94-6.92-6.33-10.2-7.84-4.67-2.15-9.91-2.43-14.93-3.17a105.06,105.06,0,0,1-17-3.91,40.72,40.72,0,0,1-9.48-4.17c-2.79-1.8-4.31-4.32-6.29-6.85-2.29-2.93-4.64-3.84-8.28-4.35-5.54-.77-10.94-2.09-16.46-2.91-1.63-.24-14,.7-14.37-.62s-2.32-.7-1.93.53c1,3,4.05,2.65,6.66,2.26,7.51-1.14,14.14,1.2,21.52,2.22,3.2.44,7,.24,9.62,2.35,2.37,1.92,3.56,5,5.82,7.07,4.43,4.09,11,6.09,16.73,7.61,6.9,1.84,13.88,2.54,20.86,3.83,5.51,1,21.57,8.16,14.12,15.27-4.71,4.5-12.28,7.34-18.5,8.74-7.56,1.7-15.13,3.49-22.76,4.84-16.49,2.91-33.73,6-50.55,5.53-8.18-.21-16.36-1-24.5-1.69s-16.28-.28-24.4-.87c-16.07-1.17-31-6.94-47-8.28-8.21-.69-16.74-2.37-25-2.16-4.07.11-8.07.85-12.15.83-4.26,0-8.52-.41-12.76-.78-9.37-.83-19-2.17-28.38-2a120.17,120.17,0,0,1-12.52-.73,40.37,40.37,0,0,1-5.69-.52c-3.46-.79-2.82-3.75-.29-5.29,6.36-3.86,13.9-5.31,21.14-6.06,6.47-.67,15.58-.58,21-4.52a1,1,0,0,0,.46-1.13c-1-2.55-2.36-3.12-5-3.69-2.95-.64-7-1-8-4.25-.76-2.49,0-2.37,2.1-3.61.74-.43,1.52-.81,2.29-1.19A78.44,78.44,0,0,1,1013.4,851c4.87.07,9.75.54,14.59-.24,6.37-1,12.45-2.44,18.89-3.17,5.57-.63,11-1.95,16.65-2.23,4.47-.22,8.5-.37,12.53-2.5,1.14-.6.13-2.33-1-1.73-5.09,2.69-10.73,1.87-16.24,2.62-6.13.83-12.22,1.68-18.37,2.36-5.42.6-10.55,2.7-16,3-5.69.36-11.38-.38-17.07,0a81.14,81.14,0,0,0-28.47,7.1c-3.63,1.65-13.08,5.49-7.29,10.31,2.87,2.39,6.22,2.34,9.5,3.6,4.69,1.8.72,2.53-2,3.16-3,.7-6,1.07-9,1.48-5.38.72-11.15.58-16.33,2.31A76.42,76.42,0,0,0,943.9,881c-3,1.53-8.23,5.39-3.8,8.56,2.32,1.65,5.69,1.51,8.36,1.71,5.69.42,11.18.63,16.88.72,12.24.19,24.48,2.61,36.75,2.83,5.67.1,11.26-1.11,16.92-.73,6.42.44,12.81,1.39,19.23,1.91a116.69,116.69,0,0,1,18.1,2.63C1062.26,900,1068,902,1074,903c10.89,1.76,21.88,1.87,32.87,2.08,11.64.22,23.23,2.35,34.9,1.84a274.84,274.84,0,0,0,34.23-3.49c11.39-2,22.67-4.33,33.93-6.88,6.94-1.57,16-5,20.67-10.61C1232.54,883.64,1233.38,881.12,1231.57,878.56Z"/><path class="cls-2" d="M637.86,869.87c-7.56-8.62-20.66-9.74-31.19-11.87-15.15-3.06-30.66-1.9-46-2-15.95-.11-31.52-4-47.55-4.08-8.83,0-17.17-.37-25.73-2.81-6.56-1.86-13-4.06-19.79-4.9-8.06-1-16.16-1.65-24.22-2.7-7.76-1-15.6-.84-23.37-1.68-16.05-1.73-32.35-.84-48.49-.84-15.84,0-32.32-1.35-48,.63a76.28,76.28,0,0,0-18.14,4.4c-1.19.45-.67,2.39.53,1.93,13.47-5.13,27.17-5,41.4-5,15,0,29.9,0,44.85,0,7.14,0,14.31-.51,21.44.09,7.44.63,14.83,1.21,22.28,1.69,6.7.43,13.34,1.56,20,2.26,8.27.86,16.27,1.68,24.29,4,5.87,1.71,11.69,3.64,17.79,4.35,7.51.87,15.1.36,22.64.67,14.74.6,29,3.93,43.76,3.93,7.09,0,14.19,0,21.28,0a115.93,115.93,0,0,1,23.21,2.44A133,133,0,0,1,624.2,864c7,2.29,19,8.79,13.51,17.84-4.22,6.92-13.51,5.23-20.4,5.13-7.14-.1-14.56-.69-21.67.19-4,.49-7.75,1.67-11.74,2.08a77.32,77.32,0,0,0-8.94,1.17,143,143,0,0,1-23.64,3.28c-14.25.78-28,5.29-42.26,5.36-7.72,0-15.44.06-23.15,0s-15.35-.92-23-1a158.2,158.2,0,0,1-21.56-1.5c-6.91-1-13.82-.16-20.75-.57-7.31-.43-14.49-2.19-21.79-2.84-7.58-.68-15.2-1.09-22.79-1.64-6.55-.48-13-2.21-19.52-2.51-7.43-.33-15.22.81-22.66,1.17-7.18.35-14.28.92-21.48.88a68.36,68.36,0,0,1-9-.84c-4.26-.58-8.49-.2-12.76-.08-8,.23-15.81-1.25-23.61-3-3.68-.8-7.38-1.53-11-2.61a44.78,44.78,0,0,1-5.78-2.11c-2.07-.95-5.4-3.21-5.49-5.82-.23-6.77,16.71-8.59,21.07-9.49,6.72-1.39,13.44-1.48,20.19-2.36,1.79-.23,5.72-.57,6-3,.27-2.67-3.36-3.2-5.2-3.17-2.23,0-9.8,1-5.34-2.9,1.57-1.37,5.06-1.69,7.07-2.14A52.6,52.6,0,0,1,300.11,852c2.58,0,4.82.5,7-1.11,1-.77,0-2.5-1-1.73-2.67,2-8.43.74-11.61,1.12a74,74,0,0,0-7.51,1.55c-2.89.66-8.26,1.63-9.5,4.91-1,2.54,1.61,3.8,3.87,4.11,2,.28,4.5-.8,6.45-.28,4.71,1.26-2.51,2.3-3.93,2.41a141.64,141.64,0,0,0-19.48,2.42c-5.52,1.18-12.3,1.93-17.2,5-2.67,1.65-5.45,5.46-4.4,8.76,1.26,3.95,7.7,5.74,11.18,6.89a124.39,124.39,0,0,0,42.19,5.87,67.21,67.21,0,0,1,10.7.89,87.73,87.73,0,0,0,13.32.25c7.85-.17,15.9-.59,23.72-1.22,3.6-.29,7.19-.81,10.8-.83,4.66,0,9.11,1.22,13.69,1.84,7.2,1,14.58,1.28,21.83,1.73,8.38.52,16.54,1.73,24.85,2.86,7.79,1.06,15.58,0,23.37.8,8,.78,15.47,1.88,23.58,1.86,8.31,0,16.6.91,24.92,1,8,.07,16,.13,24,0,7.57-.12,14.7-1.74,22.1-3.14,8.61-1.62,17.16-2,25.88-2.6,8-.53,15.4-3.17,23.3-3.92s15.35-2.52,23.35-2.53c7.57,0,15.23.6,22.79.15C638.32,888.38,645.21,878.25,637.86,869.87Z"/><line class="cls-3" x1="85.96" y1="715.3" x2="1438.96" y2="715.3"/><line class="cls-3" x1="85.96" y1="752.3" x2="1438.96" y2="752.3"/><path d="M1098,194.81s7.09,7.75,7.05,15.09a8.46,8.46,0,0,1-6.55,8.58L1093,200.4v-9.28Z"/><path class="cls-4" d="M1087.2,267.91c2.14,5.06,4.67,10.75,6.81,15.81l8.58,20.44L1072.22,324l-44.34-19.84,10.87-17a179.21,179.21,0,0,1-6.26-44.15V183.57l43.18-10.1c16.64,1.52,22.85,27.42,22.81,45C1098.91,234.43,1096.48,257.07,1087.2,267.91Z"/><path class="cls-5" d="M1069.1,249.42c-.74-3.86,13.5-5.94,14.25-2S1069.84,253.28,1069.1,249.42Z"/><path class="cls-6" d="M1029.68,200.1c-12.71,7-15,27.31-7.77,38.93,9.51,15.2-1.1,22.85,12.6,28.07,2.81-16.09,3.09-41.22,3.09-48s17.26-3.39,19.68-11.06c.39-1.24,2.6-10.64-2.53-16.88Z"/><path class="cls-7" d="M1043.21,235.46c-3.9,0-3.9-3.27-3.9-5.17s-6.81-1.54-6.81-9.71,6.24-9.17,6.24-9.17c3.81-.54,6.28,1.18,7.33,4.09"/><path class="cls-8" d="M1041.66,216s-5.87-1.15-5.87,5.87"/><path class="cls-8" d="M1041.66,227.2a3.24,3.24,0,0,1,3.45,3.45"/><path class="cls-9" d="M1069.75,249.47c2.18,1,3.36,3.81,3.9,5.9.9,3.53.22,7.67,5.78,7.64,3.16,0,5.79-1.88,5-7.37C1082.67,244,1069.75,249.47,1069.75,249.47Z"/><ellipse cx="1069.32" cy="221.9" rx="2.38" ry="3.76"/><ellipse cx="1090.72" cy="220.19" rx="2.38" ry="3.76"/><path class="cls-8" d="M1087.2,267.91c2.14,5.06,4.67,10.75,6.81,15.81l8.58,20.44L1072.22,324l-44.34-19.84,10.87-17a179.21,179.21,0,0,1-6.26-44.15V183.57l43.18-10.1c16.64,1.52,22.85,27.42,22.81,45C1098.91,234.43,1096.48,257.07,1087.2,267.91Z"/><path class="cls-10" d="M1027.88,172.3l1.8,27.8s22.26.6,68.31-5.29c0,0,.72-19.61-.26-27.78Z"/><path class="cls-5" d="M1030.58,176.73c-2.69.13-10.35,1.22-12.76,0-1-.49-4.94-3.72-6.54-4-4.08-.63-5.8-3.07-7.71-6.72-.69-1.32.47-10.49,3.27-12.37s4.63-3.26,7.87-4.2c6.24-1.82,6.66-2.84,12.15-6.33,4.86-3.09,9.71-2.72,14.83-2.25,7.83-7.51,23.63-13.9,30.61-16.5,3.09-1.15,15.79-2.41,18.88-2,6,.83,21.74,3.84,23.7,15.65,1.36,8.21,2.85,13.32-.62,20.88-2.54,5.53-5.92,9-14.1,7.1-5.81,5.37-14.89,2.17-14.89,2.17-7.26,5.24-15.75,3.43-21.11,2,0,0-4.94,4.43-18,3.5C1039.06,179.14,1035.26,177.68,1030.58,176.73Z"/><path class="cls-8" d="M1064.16,170.19a13.85,13.85,0,0,0,1.84-14.36"/><path class="cls-8" d="M1100.15,166.06c3.45-7.44,6.41-12.76,4-20.45"/><path class="cls-8" d="M1020.81,165.18c2.25,7.42,7.38,11.85,9.77,11.55"/><path class="cls-8" d="M1046.13,173.69c-4.35-1.66-5.71-7.63-5.71-7.63"/><path class="cls-5" d="M1088.78,158.68s.48,5.75-3.52,9.55"/><path class="cls-11" d="M1087.45,232.87c8.17-2.55,20.81-6.39,19.09-10.82s-15.57.44-23.18.62"/><path class="cls-8" d="M1063.74,226.13c2.08-.53,8.54-1.13,10.67-1.39"/><line class="cls-8" x1="1063.77" y1="212.79" x2="1072.22" y2="213.39"/><path class="cls-8" d="M1086.58,212.29c5-3,8.45.6,8.45.6"/><path class="cls-8" d="M1087.2,267.91a22,22,0,0,1-6.61,5.85c-5.17,3-18.93,5-33.87-5.85"/><path class="cls-8" d="M1041.68,140.91c3.83.43,11.06.58,14.24-.3,1.29-.35,2.27-.2,3.43-.86L1066,136a41.7,41.7,0,0,1,8.14-3.89c6.22-1.93,13.27-.94,19-4"/><path class="cls-12" d="M1077.64,251.52s4.23,4.71,2.84,10.32"/><path d="M1077.87,251.31a9.47,9.47,0,0,1,1.17,1.36,13.15,13.15,0,0,1,1,1.56,13.77,13.77,0,0,1,.83,2,11,11,0,0,1,.45,2.1,5.44,5.44,0,0,1,.06,1,5.94,5.94,0,0,1,0,.89,6.74,6.74,0,0,1-.22,1.31l-.12.49a.52.52,0,0,1-1-.19v-.06l.05-.45.07-.51,0-.67a5,5,0,0,0,0-.79,7.57,7.57,0,0,0-.07-.88,9.79,9.79,0,0,0-.38-1.88,12.56,12.56,0,0,0-.65-1.84c-.26-.57-.5-1.11-.75-1.54a15.45,15.45,0,0,0-.87-1.44.31.31,0,0,1,.46-.41Z"/><polygon class="cls-13" points="862.85 540.8 818.97 509.39 378.46 508.39 334.58 539.8 862.85 540.8"/><rect class="cls-14" x="316" y="550.63" width="563.67" height="11.33"/><rect class="cls-15" x="323.16" y="561.96" width="549.33" height="50"/><rect class="cls-15" x="323.66" y="611.96" width="547.67" height="9.33"/><rect class="cls-15" x="323.66" y="629.3" width="221" height="138"/><rect class="cls-15" x="544.66" y="629.3" width="270.83" height="138"/><rect class="cls-15" x="323.66" y="771.3" width="221" height="33.89"/><rect class="cls-15" x="544.66" y="771.3" width="270.83" height="33.89"/><rect class="cls-15" x="815.49" y="629.3" width="54.33" height="175.89"/><rect class="cls-16" x="323.66" y="767.3" width="491.83" height="4"/><line class="cls-16" x1="544.66" y1="561.96" x2="544.66" y2="621.3"/><rect class="cls-16" x="327.25" y="621.3" width="541.17" height="8"/><circle class="cls-17" cx="681.83" cy="592.3" r="12" transform="translate(-218.91 658.37) rotate(-45.18)"/><circle class="cls-17" cx="709.52" cy="592.3" r="12"/><path class="cls-18" d="M673.37,600.81s5.93,4.21,9.3.82-9.41-16.09-12.16-13.31"/><path class="cls-18" d="M690.29,583.78s4.25,5.9.88,9.29S675,583.76,677.78,581"/><path class="cls-18" d="M721.52,592.3s-1.19-7.17-6-7.17-4.77,18-.87,18"/><path class="cls-18" d="M697.52,592.3s1.19-7.17,6-7.17,4.77,18,.87,18"/><circle class="cls-17" cx="572.46" cy="592.3" r="12"/><circle class="cls-17" cx="600.15" cy="592.3" r="12"/><path class="cls-18" d="M584.46,592.3s-1.19-7.17-6-7.17-4.77,18-.87,18"/><path class="cls-18" d="M560.46,592.3s1.19-7.17,6-7.17,4.77,18,.87,18"/><path class="cls-18" d="M612.15,592.3s-1.19-7.17-6-7.17-4.77,18-.87,18"/><path class="cls-18" d="M588.15,592.3s1.19-7.17,6-7.17,4.77,18,.87,18"/><circle class="cls-17" cx="461.14" cy="592.3" r="12"/><circle class="cls-17" cx="488.83" cy="592.3" r="12"/><path class="cls-18" d="M473.14,592.3s-1.19-7.17-6-7.17-4.77,18-.87,18"/><path class="cls-18" d="M449.14,592.3s1.19-7.17,6-7.17,4.77,18,.87,18"/><path class="cls-18" d="M500.83,592.3s-1.19-7.17-6-7.17-4.77,18-.87,18"/><path class="cls-18" d="M476.83,592.3s1.19-7.17,6-7.17,4.77,18,.87,18"/><circle class="cls-17" cx="349.6" cy="592.3" r="12"/><circle class="cls-17" cx="377.29" cy="592.3" r="12"/><path class="cls-18" d="M361.6,592.3s-1.19-7.17-6-7.17-4.77,18-.87,18"/><path class="cls-18" d="M337.6,592.3s1.19-7.17,6-7.17,4.77,18,.87,18"/><path class="cls-18" d="M389.29,592.3s-1.19-7.17-6-7.17-4.77,18-.87,18"/><path class="cls-18" d="M365.29,592.3s1.19-7.17,6-7.17,4.77,18,.87,18"/><circle class="cls-17" cx="792.16" cy="592.3" r="12"/><circle class="cls-17" cx="819.85" cy="592.3" r="12"/><path class="cls-18" d="M804.16,592.3s-1.19-7.17-6-7.17-4.77,18-.87,18"/><path class="cls-18" d="M780.16,592.3s1.19-7.17,6-7.17,4.77,18,.87,18"/><path class="cls-18" d="M831.85,592.3s-1.19-7.17-6-7.17-4.77,18-.87,18"/><path class="cls-18" d="M807.85,592.3s1.19-7.17,6-7.17,4.77,18,.87,18"/><rect class="cls-18" x="375.7" y="645.3" width="115.79" height="16"/><rect class="cls-18" x="586.83" y="645.3" width="191.63" height="16"/><path class="cls-8" d="M792.16,640.92v-4.24a1,1,0,0,1,1-1h10.94a1,1,0,0,1,1,.69c1.35,4.07,7.65,24.92-4,26.69-6.59,1-22.62-1.12-22.62-1.12v-17.5s16.63-1.75,16.63-5.62"/><path class="cls-8" d="M573.13,640.92v-4.24a1,1,0,0,0-1-1H561.18a1,1,0,0,0-1,.69c-1.35,4.07-7.65,24.92,4,26.69,6.59,1,22.63-1.12,22.63-1.12v-17.5s-16.62-1.75-16.62-5.62"/><path class="cls-8" d="M505.2,640.92v-4.24a1,1,0,0,1,1-1h10.94a1,1,0,0,1,1,.69c1.35,4.07,7.65,24.92-4,26.69-6.59,1-22.62-1.12-22.62-1.12v-17.5s16.63-1.75,16.63-5.62"/><path class="cls-8" d="M362,640.92v-4.24a1,1,0,0,0-1-1H350.05a1,1,0,0,0-1,.69c-1.35,4.07-7.65,24.92,4,26.69,6.59,1,22.63-1.12,22.63-1.12v-17.5s-16.62-1.75-16.62-5.62"/><circle class="cls-19" cx="843.08" cy="739.05" r="5.92"/><circle class="cls-8" cx="843.08" cy="739.05" r="8.53"/><polygon class="cls-14" points="879.51 550.63 868.43 540.8 327.08 540.8 316 550.63 879.51 550.63"/><rect class="cls-20" x="340.08" y="530.3" width="515" height="2"/><rect class="cls-20" x="361.6" y="516.01" width="474.73" height="2"/><polygon class="cls-20" points="810.58 538.8 778.45 512.3 778.45 510.31 810.58 536.8 810.58 538.8"/><polygon class="cls-20" points="645.08 511.89 857.08 539.8 857.08 537.8 645.08 509.89 645.08 511.89"/><polygon class="cls-20" points="825.33 512.3 667.08 539.8 667.08 537.8 825.33 510.31 825.33 512.3"/><polygon class="cls-20" points="645.08 511.89 442.33 539.8 442.33 537.8 645.08 509.89 645.08 511.89"/><polygon class="cls-20" points="442.33 539.8 351.93 524.29 463.47 511.89 651.83 539.8 651.83 537.8 463.47 509.89 351.93 522.29 442.33 537.8 442.33 539.8"/><polygon class="cls-20" points="502.91 511.89 491.05 539.8 491.05 537.8 502.91 509.89 502.91 511.89"/><polygon class="cls-20" points="385.33 538.8 416.08 511.89 416.08 509.89 385.33 536.8 385.33 538.8"/><polygon class="cls-20" points="600.15 539.8 602.49 510.23 602.49 508.23 600.15 537.8 600.15 539.8"/><polygon class="cls-20" points="690.08 511.89 709.52 539.8 709.52 537.8 690.08 509.89 690.08 511.89"/><polygon class="cls-20" points="334.58 538.8 554.83 510.23 755.83 539.8 755.83 537.8 554.83 508.23 334.58 536.8 334.58 538.8"/><polygon class="cls-20" points="771.58 538.8 843.83 525.55 735.08 511.89 547.58 539.8 371.83 510.23 371.83 508.23 547.58 537.8 735.08 509.89 843.83 523.55 771.58 536.8 771.58 538.8"/><rect class="cls-20" x="374.96" y="507.43" width="447.22" height="3.79"/><rect class="cls-15" x="375.7" y="501.21" width="444.14" height="6.22"/><rect class="cls-14" x="375.7" y="417.93" width="444.14" height="83.28"/><rect class="cls-15" x="823.43" y="805.44" width="19.23" height="32.51"/><rect class="cls-15" x="827.97" y="837.95" width="10.15" height="16.34"/><rect class="cls-15" x="351.99" y="805.44" width="19.23" height="32.51"/><rect class="cls-15" x="356.53" y="837.95" width="10.15" height="16.34"/><line class="cls-20" x1="843.83" y1="525.55" x2="843.83" y2="523.55"/><line class="cls-20" x1="351.93" y1="524.3" x2="351.93" y2="522.3"/><path class="cls-21" d="M846.11,434.59l20,31.94-5,5c-4.35,0-32-30.58-20.86-38.91Z"/><path class="cls-4" d="M867.92,458.14s-9.82,6.4-11.82,8.56S852.72,481.25,845,484l-.39.05c-2.54,3-8.13,2.1-8.13,2.1-2.72,3.75-7.32,1.39-8.95.39l-.86.13c-1.41,2.71-3.42,5.13-5.88,5.85-5.36,1.57-6.7-4-6.7-4a12,12,0,0,1-11.84,2.13c-2-.76-6-3.91,0-20s20.76-21.2,24.33-22.54,23.66-15.17,23.66-15.17Z"/><path class="cls-22" d="M636.54,518.29c3.67,34.38,36.73,37,59.93,37s56.26-2.63,59.93-37Z"/><path class="cls-8" d="M845,436.72s-14.83,10.3-18.4,11.64-18.3,6.47-24.33,22.54-2,19.22,0,20a12,12,0,0,0,11.83-2.12s6.75-4,1.28-6.64c-3.42-1.68-6.55,2.18-8.56,4.41"/><path class="cls-8" d="M814.13,488.76s1.34,5.58,6.7,4,8.48-11.16,8.26-14.06-.22-8.88-4.46-9.57-6,3.1-6.25,10l-1.79,1.89"/><path class="cls-8" d="M864.14,461.81s-6,3-8,5.15-3.37,14.55-11.06,17.28"/><path class="cls-8" d="M836.51,486.39s8.87,1.47,9.37-5.34.83-13.9-5.44-14.09c-2.59-.08-3.64,4.47-3.64,4.47"/><path class="cls-8" d="M827,486.39s6.18,4.61,9.53,0,2.68-16.19-2.85-17.33c-4.11-.85-4.45,2.08-5.32,4"/><path class="cls-8" d="M843.21,453s2.12,8.22-4,14.31"/><path class="cls-21" d="M754.83,506.79l2.28-4.86a9.14,9.14,0,0,1,5-4.67l40.48-15.42,3.27,3.35L765,501a9.14,9.14,0,0,0-5.09,4.88l-2.65,6.72Z"/><path class="cls-21" d="M757.29,514a10.92,10.92,0,0,1-.9,4.29,14.35,14.35,0,0,1-1.74,3,22.25,22.25,0,0,1-4.11,4.15c-7-9.59-28.52-16.57-54.08-16.57s-47.12,7-54.07,16.57a22,22,0,0,1-4.45-4.61l-.08-.13-.48-.76h0a11.69,11.69,0,0,1-1.77-5.95c0-13.81,27.24-25,60.82-25S757.29,500.2,757.29,514Z"/><path class="cls-23" d="M750.54,525.46a41.24,41.24,0,0,1-8,4.9c-11.17,5.3-27.65,8.66-46.05,8.66s-34.88-3.36-46.05-8.66a40.59,40.59,0,0,1-8-4.9c7-9.59,28.52-16.57,54.07-16.57S743.59,515.87,750.54,525.46Z"/><path class="cls-11" d="M818.33,456s-10.22,11.11-11.11,13.09-2,7.34-2.9,9.57-3.35,4.13,0,5.36,10.27-4.24,10.94-10.27L826,467"/><path class="cls-24" d="M730.15,516.05,729,522.13l-50,10.26a5.06,5.06,0,0,1-4.63-1.4l-12.06-12.2.32-4.91Z"/><path class="cls-6" d="M728.45,518.06l-5.91,1.21-15.59-15.83,6.6-1.35a5.89,5.89,0,0,1,5.35,1.63l10.64,10.78A2.12,2.12,0,0,1,728.45,518.06Z"/><polygon class="cls-10" points="722.54 519.26 686.91 526.58 671.32 510.75 706.95 503.44 722.54 519.26"/><path class="cls-6" d="M686.91,526.58l-7.44,1.53a4.57,4.57,0,0,1-4.21-1.27L663,514.41a1.23,1.23,0,0,1,.62-2.08l7.69-1.58Z"/><line class="cls-25" x1="671.96" y1="517.86" x2="675.34" y2="521.3"/><ellipse class="cls-1" cx="718.32" cy="510.23" rx="1.74" ry="2.79" transform="translate(-147.13 675.48) rotate(-46.2)"/><path d="M687,526.08l.35-.75c.23-.47.54-1.15.95-2l1.38-2.74,1.63-3.11c1.12-2.11,2.29-4.21,3.19-5.76s1.55-2.58,1.55-2.58a.29.29,0,0,1,.52.25s-.39,1.15-1.09,2.81-1.68,3.86-2.78,6-2.28,4.24-3.21,5.78c-.46.78-.88,1.41-1.16,1.85l-.46.69a.5.5,0,0,1-.87-.49Z"/><path d="M694.89,520.34s.5-1.06,1.32-2.61,2-3.59,3.12-5.61l1.76-2.95c.57-.94,1.12-1.8,1.58-2.54.94-1.48,1.6-2.44,1.6-2.44a.39.39,0,0,1,.67.4s-.53,1-1.37,2.58c-.43.76-.92,1.66-1.47,2.61l-1.74,3c-1.22,2-2.45,4-3.43,5.43s-1.65,2.41-1.65,2.41a.23.23,0,0,1-.39-.23Z"/><polygon points="718.21 510.89 717.39 509.83 718.42 509.56 719.24 510.63 718.21 510.89"/><path class="cls-26" d="M1092.66,827.9s-2.75,5.61,0,7.93,6.58,5.12,9.5,2.95Z"/><path class="cls-26" d="M1102.16,842.15s.75,12,10.25,14,24.75.75,29.75-2.5c0,0,1.39-.66.94-5.83Z"/><path class="cls-17" d="M1105.16,824.15s16.75-5,23,1.5a104.41,104.41,0,0,0,13.5,11.75c2.25,1.75,2.25,7,2,9.25s-5.5,5.5-21,4.75-19-2.5-20.5-9.25-9.44-11-9.5-14.25a17.31,17.31,0,0,1,1.5-7.75S1103.16,826.4,1105.16,824.15Z"/><path class="cls-8" d="M1112.66,839.81s17.75,2.21,25-1"/><path class="cls-27" d="M1082.59,725.47c1.44,13.39,4.72,27,4.57,40.43-.17,15.87,3.42,29.54,2.83,45.4-.08,2.28.34,15.84,1.44,17.83,6.6-2.83,8.71-6.85,12.56-7.33,10.71-1.34,22.65,3.83,26.26,2.63s-1.19-11.27-.28-15.08c1.35-5.63-2.62-52.49-2.17-63.75.4-9.9,3.54-14.46-.75-23.38Z"/><path class="cls-8" d="M1127.49,743.29c-4.16,4.74-8.45,9.59-14,12.52a51.52,51.52,0,0,1-7.57,3"/><path class="cls-8" d="M1127.79,777.31a30.52,30.52,0,0,1-7.55,8.92"/><path class="cls-26" d="M1039.66,830s.55,6.58-.2,8-2.12,4.46-3.62,4.61-5.5,0-5.5,0Z"/><path class="cls-26" d="M1033,842.53s1.15,5.14-.47,9-6.37,5.66-8.75,6.13a52,52,0,0,1-29-2.62c-2.87-2.12-2.37-8.37-2.37-8.37Z"/><path class="cls-17" d="M1010.35,818.15s-15,16.9-16.65,20.4a18.83,18.83,0,0,0-1.25,8.13s3.94,7.37,28.37,5c7.75-.75,12.5-9.25,13.63-11.75s4.88-5.87,5-7.25.63-7.25,0-9.12l-.62-1.87Z"/><path class="cls-8" d="M1026.7,839.92s-2.87,3.3-5.62,3.38-12,1-21.87-2.33"/><path class="cls-27" d="M1044.5,718.63c.78,9,2.48,17.8,1.42,26.74-.56,4.7-.2,11.2-.42,15.93-.4,8.42-1.59,16.43-1,24.83.5,6.87-.1,13.76-.71,20.62l-.91,10.32c-.18,2.05-.43,14.21-1.78,15.77-2,2.34-7.38-6.34-10.29-7.39-12.41-4.48-12.41-4.48-24.63-.77-1.15.35-5,6.67-5.89,5.88s-1.7-6.89-.67-7.51l-.45-1.35c2.82-13.07,2.3-25.7,2.61-39.07.46-19.79-1.11-36.2,3.24-60.08Z"/><path class="cls-8" d="M1002.28,746.12c3.39,14.68,12.85,18.77,11.76,21.56s-5.87.32-6.93-1.19"/><path class="cls-8" d="M1029.46,794.21c2-.79,3.37-2.59,4.64-4.31,4.5-6.07,9.21-16.95,11.13-24.26"/><path class="cls-28" d="M1217.07,258.34l-95.18-3.26s-6.57-3.68-18.87-4.29c-20.37-1-19.16,2.65-19.24,3.76s-3.29,5.72,17.87,6.42c17.66.58,18.93-2.05,18.93-2.05l96.19,3.14A2.51,2.51,0,0,0,1217.07,258.34Z"/><path class="cls-8" d="M1120.59,258.91s-.09-3.78-18.83-4.62-18.21,1.69-18.21,1.69"/><path class="cls-4" d="M1200.22,275.7c-.6,3.88-.5,19-2,23.38l-16.56,2.12c-3.37,1.33-8.23,0-8.23,0a9.61,9.61,0,0,1-7.46-10.76c.18-1.17.21-4.25.21-4.25s-1.47-2.9-7.78-5.76c-1-.44-5-1.78-7.46-4.82a3.32,3.32,0,0,1,.64-5.1,3.09,3.09,0,0,1-.18-4.84,2.31,2.31,0,0,1,3.22.13c-2.18-1.25-1.81-5.39,1.47-5.45,2.72,0,10.11.17,10.11.17l.1-.33c-3.54-1.2-5.53-3.3-4.77-5.08s1.71-3.06,7.36-2.67c0,0-1.14-3.64,3.94-3.82s5.77,5.26,5.77,5.26c10.52,2.49,14.36,7.34,17.13,10.07C1198.84,267,1200.9,271.36,1200.22,275.7Z"/><path class="cls-8" d="M1198.22,299.08c1-6,1.61-18,2-23.39a15.06,15.06,0,0,0-4.47-11.74c-3.09-3-7.49-8.72-21-10.82-11-1.7-12.18-.41-13.2,2-.91,2.14,1.82,4.42,6.82,5.35s10.58,1.92,14.15,4.27a15.26,15.26,0,0,1,5.15,6.28"/><path class="cls-8" d="M1180.86,276.91s-1.53-6.44-9.68-8.39c-4-1-14.07-2-16.55-2.73-2.18-.67-2.1-4.9.71-5.27,6.47-.85,16.81.66,16.81.66"/><path class="cls-8" d="M1174.27,282.82c-1.22-5.9-6.52-7.31-11.17-8.16-6.63-1.21-10.47-2.89-11.52-4.15s-2-3.4-.18-4.83a2.31,2.31,0,0,1,3.23.13"/><path class="cls-8" d="M1151.58,270.5a3.32,3.32,0,0,0-.63,5.1c2.47,3,15.19,6,15.46,11.68a13.19,13.19,0,0,1-.43,3.15,9.64,9.64,0,0,0,7.47,10.76s.73,3,2.76,4.24"/><path class="cls-8" d="M1178.62,253.89s-.69-5.46-5.77-5.27-3.93,3.82-3.93,3.82"/><path class="cls-8" d="M1173.44,301.2s4.86,1.34,8.23,0"/><path class="cls-10" d="M1002.06,496.68c.43-4.52,2.6-13.66,1.3-18-2.72-9.11,0-14.79,0-24.29,0,0-4.2-11.31-2.68-16.94s2.22-14.71.45-25-2.12-24.89-2.23-29.92-28.09,25.65-56.66,51.4c0,0-33,18.59-38,21.27s-29.88,16-35,16.63a21.42,21.42,0,0,1-8.15-.22c-2.93-20-14.91-30.48-21.2-34.7a2.42,2.42,0,0,1,.34-4.21l63.18-28.73c23-15.24,21.53-20.36,60-61.6,12.82-13.74,26-27.68,42.43-36.74,5.84-3.21,17.57-9.51,23.09-13.24a68.36,68.36,0,0,0,6.25-10.85,59.67,59.67,0,0,0,18.4,13.3c9,4.28,7,14,7,14v189.7Z"/><path class="cls-8" d="M974.38,403.4a98.31,98.31,0,0,1-45.55,14.34"/><path class="cls-10" d="M1130.2,503.46a65.29,65.29,0,0,1,1.36-12.52c1.34-5.69-1.3-25.39-1.36-33.09s1.67-26.76,0-33.8,1.36-34.9,1.36-34.9,6.65,35.93,31.31,34.9c13.42-.56,21.16-9.36,28.45-20.65,13.25-20.51,11.08-73.67,10.3-107.65-4,2.34-10.07,4.17-17.66,4.47-8.16.32-14.28-1.13-19.27-4.06,1.48,29.53,1.18,46.52.43,53.55,0,0-4.88-21.23-10-30.75-4.22-7.83-6.64-11.82-14.26-16.4s-20.19-9.61-29-11c-3.77-.59-7.54-4.35-12.1-7.45-2.39-1.62-6.63-7.21-6.63-7.21-.89-.76-3.24,4.38-11.53,10.08-7.35,5-16.26,5.81-14.94,20.37,0,0-28.2,2.58-38.91,4.92,0,0-1,28.07,0,41.82s3.68,55.55,4.35,63.61.41,36.93,1.08,42.62,1,37.25,1,37.25Z"/><circle class="cls-18" cx="1045.8" cy="329.9" r="2.18"/><circle class="cls-18" cx="1087.1" cy="329.9" r="2.18"/><circle class="cls-18" cx="1045.8" cy="359.53" r="2.18"/><circle class="cls-18" cx="1087.1" cy="359.53" r="2.18"/><circle class="cls-18" cx="1045.8" cy="393.57" r="2.18"/><circle class="cls-18" cx="1087.1" cy="393.57" r="2.18"/><circle class="cls-18" cx="1045.8" cy="427.62" r="2.18"/><circle class="cls-18" cx="1087.1" cy="427.62" r="2.18"/><circle class="cls-18" cx="1045.8" cy="473.66" r="2.18"/><circle class="cls-18" cx="1087.1" cy="473.66" r="2.18"/><path class="cls-8" d="M1122,341.9c7.55,10.27,5.58,30.8,9.6,47.24"/><path class="cls-8" d="M1001,411.22c2.81,12.15,11.8,24.76,22.89,30.46"/><path class="cls-10" d="M1165.13,349.71c-.36,6.7-2.11,34.82-16.2,45.09"/><path class="cls-10" d="M1127.54,358.93s1.74-8.55,5.31-11.67"/><path class="cls-10" d="M1153.07,390.88s-.8,7.48-6.6,11.5"/><path class="cls-8" d="M1029,292.35s13.21,13.32,31.29,15"/><path class="cls-8" d="M1099.77,284.13s-14.77,21.32-33.09,23.23"/><path class="cls-8" d="M1130.59,445.93c-.57,6.46-2.27,15.14-6,20.45-7.53,10.71-15.21,15.72-16.61,14.8-3.4-2.24,1.37-6.6,4.72-8.77"/><path class="cls-8" d="M1008.7,486.6l7.62,6.46c2.37,2,5,4.12,8.08,4.27"/><path class="cls-8" d="M997.6,381.62a32.93,32.93,0,0,0,6.75-15.62"/><path class="cls-8" d="M998.95,382.47a10.43,10.43,0,0,0,10.22-4"/><path class="cls-8" d="M914.57,396.33a63.27,63.27,0,0,0,15.2-1.18"/><path class="cls-8" d="M913.8,397.68a8.47,8.47,0,0,0,6.12,6.76"/><path class="cls-8" d="M1003.4,454.38a17.9,17.9,0,0,0,5.3,6.48"/><path class="cls-29" d="M994.54,732.78c1.27,3.58,33.65,3.18,53.43,3,15.4-.16,39.81-.63,55.19.15,12.78.65,22.9-2.06,36.82-5,0,0-.32-208.68-9.4-269.33-.72-4.81-89.44-2.29-128.53-.95C997.6,496.5,993.27,729.2,994.54,732.78Z"/><line class="cls-30" x1="1009.43" y1="461.92" x2="1009.43" y2="733.74"/><line class="cls-30" x1="1000.97" y1="473.4" x2="1000.97" y2="733.74"/><line class="cls-30" x1="1020" y1="461.92" x2="1020" y2="733.74"/><line class="cls-30" x1="1030.58" y1="461.92" x2="1030.58" y2="733.74"/><line class="cls-30" x1="1041.15" y1="461.92" x2="1041.15" y2="733.74"/><line class="cls-30" x1="1051.72" y1="461.92" x2="1051.72" y2="733.74"/><line class="cls-30" x1="1062.3" y1="461.92" x2="1062.3" y2="733.74"/><line class="cls-30" x1="1072.87" y1="461.92" x2="1072.87" y2="733.74"/><line class="cls-30" x1="1083.44" y1="461.92" x2="1083.44" y2="733.74"/><line class="cls-30" x1="1094.02" y1="461.92" x2="1094.02" y2="735.57"/><line class="cls-30" x1="1104.59" y1="461.92" x2="1104.59" y2="735.92"/><line class="cls-30" x1="1115.16" y1="461.92" x2="1115.16" y2="735.57"/><line class="cls-30" x1="1125.74" y1="461.92" x2="1125.74" y2="733.94"/><line class="cls-30" x1="1135.79" y1="507.43" x2="1135.79" y2="731.85"/><path class="cls-8" d="M994.54,732.78c1.27,3.58,33.65,3.18,53.43,3,15.4-.16,39.81-.63,55.19.15,12.78.65,22.9-2.06,36.82-5,0,0-.32-208.68-9.4-269.33-.72-4.81-89.44-2.29-128.53-.95C997.6,496.5,993.27,729.2,994.54,732.78Z"/><path class="cls-8" d="M913.71,449.33c-16.11,5.94-29.05,5.91-33.07,4.83s-4.69,4,0,5.07"/><path d="M1080.63,535.91q21.65.22,43.3-.1a1.5,1.5,0,0,0,0-3q-21.65.31-43.3.1a1.5,1.5,0,0,0,0,3Z"/><path d="M1010.1,535.42a340.55,340.55,0,0,0,37.94-.84c1.91-.15,1.93-3.15,0-3a340.55,340.55,0,0,1-37.94.84c-1.93-.06-1.93,2.94,0,3Z"/><path class="cls-1" d="M863.29,638.16s.08,9.92.19,24.79l.22,25.41c0,9.3.1,19.21.14,29.13s-.09,19.83-.13,29.13-.19,18-.27,25.41-.18,13.63-.24,18l-.14,6.82a.21.21,0,0,1-.42,0L862.5,790c-.06-4.34-.14-10.53-.24-18s-.17-16.11-.27-25.41-.09-19.21-.13-29.13.1-19.83.14-29.13.16-18,.22-25.41l.19-24.79a.44.44,0,0,1,.87,0Z"/><path class="cls-1" d="M868.49,569.09s.09.55.18,1.51.19,2.34.23,4,0,3.58,0,5.64,0,4.26,0,6.46-.06,4.4-.09,6.46-.06,4-.11,5.64l-.17,5.5a.57.57,0,0,1-1.15,0l-.17-5.5c-.05-1.65-.08-3.58-.11-5.64s-.09-4.26-.09-6.46,0-4.4,0-6.46,0-4,0-5.64.13-3,.23-4,.18-1.51.18-1.51a.58.58,0,0,1,1.15,0Z"/><path class="cls-1" d="M593,648.88l7.75-.2c4.93-.1,12-.17,20.43-.19l62,.23c5.64,0,11.27,0,16.82,0l16.29-.11,15.23-.11h13.65l11.54.09,8.89.17c4.93.13,7.75.25,7.75.25a.49.49,0,0,1,0,1s-2.82.12-7.75.25l-8.89.17-11.54.09H731.5l-15.23-.11L700,650.26c-5.55,0-11.18,0-16.82,0l-62,.23c-8.45,0-15.5-.09-20.43-.19l-7.75-.2a.61.61,0,0,1,0-1.22Z"/><path class="cls-1" d="M803.24,641.73a2.53,2.53,0,0,1,.06.28,6.67,6.67,0,0,1,.08.84,7.55,7.55,0,0,1-.06,1.28,8.14,8.14,0,0,1-1.19,3.43,10.7,10.7,0,0,1-1.33,1.76,12.77,12.77,0,0,1-1.8,1.48l-1,.65L797,652a13.37,13.37,0,0,1-2.18.82,13.75,13.75,0,0,1-2.16.51,14.32,14.32,0,0,1-2,.31l-1.83.15c-.57.05-1.08,0-1.54,0l-1.19,0-1,0a.43.43,0,0,1,0-.85h0l1-.11,1.15-.11c.44-.05.95-.06,1.48-.17l1.73-.29a13.15,13.15,0,0,0,1.9-.43,12.78,12.78,0,0,0,2-.62,11.68,11.68,0,0,0,1.92-.83l.92-.49.83-.59a10.84,10.84,0,0,0,1.47-1.28,11,11,0,0,0,1.07-1.44,10.42,10.42,0,0,0,.76-1.41,13.38,13.38,0,0,0,.43-1.3c.12-.39.18-.75.24-1l.08-.66a2.1,2.1,0,0,0,0-.25.64.64,0,0,1,1.25-.22Z"/><path class="cls-1" d="M566,638.07s0,.09,0,.19.08.28.15.5.16.5.3.8a8.46,8.46,0,0,0,.49,1,10.66,10.66,0,0,0,.7,1.1,8.77,8.77,0,0,0,.94,1.09,14.48,14.48,0,0,0,1.15,1,15.36,15.36,0,0,0,1.34.87,11.54,11.54,0,0,0,1.46.68,15.31,15.31,0,0,0,1.49.51c.5.12,1,.28,1.44.38s.92.17,1.33.25a7.39,7.39,0,0,0,1.14.17l.89.12c.49.06.78.12.78.12h.06a.68.68,0,0,1-.06,1.35s-.3,0-.83,0a13.66,13.66,0,0,1-2.2,0c-.46,0-1-.08-1.47-.15s-1.06-.23-1.63-.37a11.13,11.13,0,0,1-1.7-.59,13.49,13.49,0,0,1-1.68-.83,17,17,0,0,1-1.56-1.06,11.83,11.83,0,0,1-2.36-2.64,11,11,0,0,1-.74-1.34,10,10,0,0,1-.46-1.21c-.12-.36-.19-.69-.26-1s-.09-.49-.1-.66,0-.22,0-.23v-.07a.68.68,0,0,1,1.35-.1Z"/><path class="cls-1" d="M539.66,635.67s.08,7.62.19,19,.19,26.66.3,41.89.12,30.46.17,41.89c0,2.86,0,5.47,0,7.79l-.11,6c-.1,3.33-.18,5.24-.18,5.24a.67.67,0,0,1-1.33,0s-.09-1.9-.18-5.24l-.11-6c0-2.32,0-4.94,0-7.79,0-11.42.11-26.66.17-41.89s.22-30.46.3-41.89.19-19,.19-19a.33.33,0,0,1,.67,0Z"/><path class="cls-1" d="M552.83,775.5l2-.08,5.78-.18,9-.18,11.64-.11c4.27,0,8.89,0,13.77,0h15.37l33.41,0,33.41.14c10.66,0,20.62.11,29.15.19s15.64.11,20.62.21l7.82.13a.33.33,0,0,1,0,.65l-7.82.13c-5,.1-12.09.12-20.62.21s-18.48.16-29.15.19l-33.41.14-33.41,0H595c-4.89,0-9.51,0-13.77,0l-11.64-.11-9-.18-5.78-.18-2-.08a.43.43,0,0,1,0-.86Z"/><path class="cls-1" d="M742.33,775.36s1.72-.09,4.3-.18l4.4-.12c1.61-.05,3.33-.07,5-.08,3.44,0,6.88-.1,9.45,0s4.3.25,4.3.25a.68.68,0,0,1,0,1.35s-1.72.18-4.3.25-6,.06-9.45,0c-1.72,0-3.44,0-5-.08l-4.4-.12c-2.58-.09-4.3-.18-4.3-.18a.57.57,0,0,1,0-1.13Z"/><path class="cls-1" d="M799.12,775.35l11.46-.38a.16.16,0,0,1,.12.05l.58.65c.45.51.25,1,.25,1.52s-.07,1-.12,1.52c-.11,1-.22,2-.43,3a.42.42,0,0,1-.82,0c-.21-1-.32-2-.43-3,0-.51-.09-1-.12-1.52s-.2-1,.25-1.52l.71.71L799.12,776a.32.32,0,0,1,0-.64Z"/><path class="cls-1" d="M349.6,775.39s7.72,0,19.3-.11c5.79,0,12.55-.09,19.79-.22l11.16-.22c3.8-.08,7.66-.11,11.52-.14s7.72,0,11.52,0l11.16.17c7.24.14,14,.15,19.79.21l19.3.17a.38.38,0,0,1,0,.77l-19.3.17c-5.79.07-12.55.08-19.79.21l-11.16.17c-3.8.06-7.66.06-11.52,0s-7.72-.06-11.52-.14l-11.16-.22c-7.24-.13-14-.18-19.79-.22-11.58-.12-19.3-.11-19.3-.11a.28.28,0,0,1,0-.56Z"/><path class="cls-1" d="M486.5,775.2s.66-.1,1.64-.16,2.29-.12,3.6-.11,2.62.07,3.6.12,1.64.14,1.64.14a.74.74,0,0,1,0,1.46s-.65.08-1.64.14-2.29.13-3.6.12-2.62,0-3.6-.11-1.64-.16-1.64-.16a.74.74,0,0,1,0-1.46Z"/><path class="cls-1" d="M540.08,775.93s.08,1.52.14,3.81c0,1.14,0,2.47.08,3.9s0,3,0,4.47,0,3,0,4.47-.06,2.76-.08,3.9c-.06,2.28-.14,3.81-.14,3.81a.75.75,0,0,1-1.5,0s-.08-1.52-.14-3.81c0-1.14-.07-2.47-.08-3.9s0-3,0-4.47,0-3,0-4.47.05-2.76.08-3.9c.06-2.28.14-3.81.14-3.81a.75.75,0,0,1,1.5,0Z"/><path class="cls-1" d="M483.83,648.81a3.86,3.86,0,0,1,.42-.15,6.21,6.21,0,0,1,.92-.16,2.29,2.29,0,0,1,.92.06,1.21,1.21,0,0,1,.42.24.94.94,0,0,1,0,1.33l0,0a1.21,1.21,0,0,1-.42.24,2.3,2.3,0,0,1-.92.06,6.22,6.22,0,0,1-.92-.16,3.85,3.85,0,0,1-.42-.15.74.74,0,0,1,0-1.36Z"/><path class="cls-1" d="M434.16,648.81s.67-.05,1.83-.1,2.83-.11,4.83-.17,4.33-.07,6.83,0l7.83,0,7.83.06,6.83.09,6.67.13a.68.68,0,0,1,0,1.36l-6.67.13-6.83.09-7.83.06-7.83,0c-2.5,0-4.83,0-6.83,0s-3.67-.1-4.83-.17-1.83-.1-1.83-.1a.68.68,0,0,1,0-1.36Z"/><path class="cls-1" d="M384.46,648.73l6.7-.13,6.87-.07,7.87,0c5.36,0,10.72,0,14.74.1l6.7.13a.77.77,0,0,1,0,1.53l-6.7.13c-4,.06-9.38.09-14.74.1l-7.87,0-6.87-.07-6.7-.13a.77.77,0,0,1,0-1.53Z"/><path class="cls-1" d="M497,648.86s.33-.08.91-.17,1.41-.18,2.4-.24,2.15-.07,3.39-.18,2.55-.25,3.84-.47a25,25,0,0,0,3.71-.89,11.68,11.68,0,0,0,1.58-.68,7.11,7.11,0,0,0,1.26-.81,3.64,3.64,0,0,0,1.25-1.75,2.5,2.5,0,0,0,.14-.6l0-.22v-.06a.31.31,0,0,1,.62.06v.26a3.16,3.16,0,0,1-.06.75,4.47,4.47,0,0,1-1.27,2.34,6.9,6.9,0,0,1-1.37,1.1,12.93,12.93,0,0,1-1.7.9,21.57,21.57,0,0,1-3.89,1.25c-1.35.3-2.71.52-4,.68s-2.47.28-3.49.31a15.27,15.27,0,0,1-2.48-.13,7.06,7.06,0,0,1-.94-.19.66.66,0,0,1,0-1.26Z"/><path class="cls-1" d="M352.25,645.79a4.22,4.22,0,0,0,.63.34,13.16,13.16,0,0,0,1.89.71,27.23,27.23,0,0,0,2.83.68c1,.2,2.19.35,3.32.5.57.08,1.14.11,1.71.17s1.12.08,1.66.11c1.08.07,2.09.1,2.95.17s1.59.1,2.09.17.8.1.8.1h0a.77.77,0,0,1,0,1.53s-.29,0-.81.07-1.26.07-2.14.09-1.93,0-3-.17c-.55-.06-1.13-.11-1.71-.19s-1.17-.14-1.76-.25a29.32,29.32,0,0,1-6.36-1.71,13.91,13.91,0,0,1-2-1,5.3,5.3,0,0,1-.72-.53.5.5,0,1,1,.63-.77Z"/><line class="cls-31" x1="630.83" y1="615.42" x2="855.08" y2="615.42"/><path class="cls-1" d="M630.83,615,743,614.71l77.09-.25c10.51,0,19.27-.05,25.4,0,3.07,0,5.48.05,7.12.09l2.52,0a.83.83,0,0,1,0,1.65l-2.52,0c-1.64,0-4.05.07-7.12.09-6.13.06-14.89,0-25.4,0L743,616.13l-112.12-.26a.45.45,0,0,1,0-.9Z"/><line class="cls-31" x1="734.83" y1="554.31" x2="872.5" y2="554.31"/><path class="cls-1" d="M734.83,553.76s8.6-.18,21.51-.28c6.45-.06,14-.12,22-.13s16.67,0,25.27,0l25.27.06,22,.14,21.51.23a.55.55,0,0,1,0,1.1l-21.51.23-22,.14-25.27.06c-8.6,0-17.21,0-25.27,0s-15.59-.06-22-.13c-12.91-.1-21.51-.28-21.51-.28a.55.55,0,0,1,0-1.1Z"/><line class="cls-31" x1="323.66" y1="554.31" x2="461.33" y2="554.31"/><path class="cls-1" d="M323.66,553.76l21.51-.2,22-.13,25.27-.08,25.27,0,11.63,0,10.42.06c6.45.07,11.83.13,15.6.22l5.92.13a.55.55,0,0,1,0,1.1l-5.92.13c-3.76.09-9.14.15-15.6.22l-10.42.06-11.63,0-25.27,0-25.27-.08-22-.13-21.51-.2a.55.55,0,0,1,0-1.1Z"/><line class="cls-31" x1="470.5" y1="554.31" x2="491.05" y2="554.31"/><path class="cls-1" d="M470.5,553.76s1.28-.15,3.21-.27,4.5-.19,7.06-.17,5.14.09,7.07.2,3.21.25,3.21.25a.55.55,0,0,1,0,1.1s-1.28.13-3.21.25-4.5.2-7.07.2-5.14-.05-7.06-.17-3.21-.27-3.21-.27a.55.55,0,0,1,0-1.1Z"/><line class="cls-31" x1="500.83" y1="554.31" x2="521.38" y2="554.31"/><path class="cls-1" d="M500.83,553.71s1.28-.16,3.21-.27,4.5-.16,7.07-.13,5.14.11,7.06.19,3.21.21,3.21.21a.6.6,0,0,1,0,1.19s-1.28.1-3.21.21-4.5.18-7.06.19-5.14,0-7.07-.13-3.21-.27-3.21-.27a.6.6,0,0,1,0-1.19Z"/><path class="cls-1" d="M653.92,533.83s1.26.51,3.52,1.24c1.13.36,2.51.79,4.11,1.22s3.41.91,5.4,1.35,4.16.86,6.45,1.32c1.15.21,2.34.36,3.55.55s2.45.39,3.72.51c2.53.27,5.14.6,7.82.7,1.33.07,2.68.18,4,.22l4.07,0c2.72.08,5.43-.13,8.1-.23l2-.1,2-.21,3.86-.41,1.88-.2,1.83-.31,3.54-.59c1.15-.21,2.28-.33,3.35-.61l3.09-.74,2.85-.68c.9-.21,1.77-.39,2.55-.66l4.1-1.27,3.58-1.1h0a.19.19,0,0,1,.12.36l-3.55,1.21-4.08,1.39c-1.57.55-3.42.93-5.4,1.46l-3.1.79c-1.07.3-2.21.43-3.36.67l-3.56.65-1.84.33-1.89.22-3.88.43-2,.22-2,.11c-2.69.11-5.42.37-8.16.26l-4.1,0c-1.36,0-2.72-.16-4.06-.23-2.69-.12-5.32-.45-7.87-.74-1.28-.12-2.52-.35-3.74-.54s-2.41-.37-3.57-.6c-2.3-.49-4.49-.88-6.47-1.41s-3.8-1-5.4-1.46-3-.94-4.11-1.33c-2.26-.79-3.52-1.34-3.52-1.34a.24.24,0,0,1-.13-.31A.24.24,0,0,1,653.92,533.83Z"/><line class="cls-32" x1="838.12" y1="809.96" x2="838.12" y2="829.96"/><path class="cls-1" d="M838.17,810s.22,5,.35,10c0,1.25.1,2.5.12,3.67s0,2.27-.12,3.2-.14,1.72-.22,2.27-.13.86-.13.86a.05.05,0,0,1-.1,0s-.06-.31-.13-.86-.14-1.33-.22-2.27-.11-2-.12-3.2.08-2.42.12-3.67c.13-5,.35-10,.35-10a.05.05,0,0,1,.1,0Z"/><line class="cls-32" x1="356.53" y1="809.96" x2="356.53" y2="829.96"/><path class="cls-1" d="M356.63,810a16.69,16.69,0,0,1,1,3.12c.11.47.22,1,.29,1.51s.19,1.1.23,1.69.14,1.19.14,1.81l.06,1.87-.06,1.87c0,.62-.1,1.22-.15,1.81s-.15,1.15-.23,1.69-.19,1-.29,1.51a16.82,16.82,0,0,1-1,3.12l0,0a.1.1,0,0,1-.18,0l-.1-10,.1-10a.1.1,0,0,1,.18,0Z"/><line class="cls-32" x1="831.85" y1="809.96" x2="831.85" y2="829.96"/><path class="cls-1" d="M831.95,810s.12,1.25.26,3.12.29,4.37.44,6.87c.07,1.25.22,2.5.24,3.67a23.18,23.18,0,0,1-.24,3.2,16.72,16.72,0,0,1-.7,3.12.11.11,0,0,1-.14.06.11.11,0,0,1-.06-.06,16.75,16.75,0,0,1-.7-3.12,23.11,23.11,0,0,1-.24-3.2c0-1.17.17-2.42.24-3.67.16-2.5.28-5,.44-6.87s.26-3.12.26-3.12a.1.1,0,0,1,.2,0Z"/><line class="cls-32" x1="363.33" y1="809.96" x2="363.33" y2="829.96"/><path class="cls-1" d="M363.38,810s.22,5,.35,10c0,1.25.1,2.5.12,3.67s0,2.27-.12,3.2-.14,1.72-.22,2.27-.13.86-.13.86a.05.05,0,0,1-.1,0s-.06-.31-.13-.86-.14-1.33-.22-2.27-.11-2-.12-3.2.08-2.42.12-3.67c.13-5,.35-10,.35-10a0,0,0,0,1,.05,0A.05.05,0,0,1,363.38,810Z"/><path class="cls-10" d="M1173.71,315"/><path class="cls-10" d="M1202.21,334.22a31.16,31.16,0,0,1-10.95,19.7"/><path class="cls-10" d="M1165.49,315.79s6.17,10.13,13.13,16.84c1.73,1.67,3.26,3.93,2.2,5.18s-4.61,0-9.47-6"/><path d="M798.53,334.77c-12.14-15.38-34.38-24.9-53.13-16a43.76,43.76,0,0,0-10.32,6.77,77.55,77.55,0,0,0-15.33,0c-15.65,1.34-30.84,5.64-45.92,9.8-18,5-39.06,4.75-52.78-9.84-17.88-19-9.2-48.31,9-63.44a72.71,72.71,0,0,1,37.88-15.85c15.14-1.79,30.34.37,45.48,1,20.15.79,47.38-1.34,56.61-22.81,8.32-19.34-7.54-38-24.34-45.74-22-10.17-47.16-6-70.54-7.26-11.87-.66-23.86-2.68-33.7-9.79-10.49-7.58-18.86-21.61-16.72-34.92,1.94-12.09,12.35-20.71,20.54-28.89a1,1,0,0,0-1.41-1.41c-7.59,7.59-16.66,15.28-20.08,25.83-3.21,9.88-.14,20.77,5.34,29.26,12.17,18.83,34.22,21.93,54.89,22.2,24.21.31,51.63-2.69,71.79,13.57,8.58,6.92,15.46,17.1,14.4,28.56-1,10.66-8.67,19.12-17.94,23.74-12.93,6.45-28.4,6.23-42.49,5.49-14.53-.77-29.13-2.53-43.64-.56-21.3,2.88-43.25,15.23-52.53,35.36-8,17.26-4.91,39.29,10.63,51.23,13.77,10.58,32,11.14,48.2,6.76,14.61-4,29.19-8.27,44.28-10a85.85,85.85,0,0,1,16.48-.49,25.26,25.26,0,0,0-6.17,10c-2.41,7.86,2,15.95,9.18,19.51,5.6,2.78,13.66,3.13,18.37-1.61s3.55-13.11.5-18.56c-3.61-6.46-10.14-9.49-17.26-10.76,18.09-15,44-8.18,58.45,9.22,15,18.17,16.09,47.81-4.22,62.66-17,12.46-41,10.91-59.86,3.78-33.5-12.69-75.76-50.8-111.41-23-15.69,12.23-31,35.48-25.09,56.2,2.87,10,10.76,19.36,20.62,23s20.55,1.12,29.84-3c9.82-4.34,14.46-13.63,23.23-19.16,12.39-7.81,26.83,2.87,30.05,15.41,3.44,13.41-6.78,20.44-13.28,30.3-4.56,6.92-3.45,15,.6,22,1.21,2.08,6.53,9.31,8.68,4.2.5-1.17-1.23-2.19-1.73-1-1.26,3-6.5-6.61-7-7.75-2.27-5.71-2.31-11.2,1.12-16.41,5.72-8.69,14.5-14.84,14.26-26.26a27.07,27.07,0,0,0-14.42-22.85c-8.72-4.42-17.44-1.87-24.22,4.57-3.62,3.44-6.69,7.45-10.55,10.65-5.24,4.34-12.33,6.9-18.93,8.28-14.48,3-27.79-4-34.35-17.22-6.42-12.92-2.31-27.44,4.79-39.12,6.53-10.73,15.69-21.07,27.36-26.23,20.58-9.1,43,1.2,61.42,10.6,18,9.16,36,20.68,56.38,23.45,18.58,2.53,40.33-1.23,52.06-17.28C814,374,811,350.6,798.53,334.77Zm-43.75,6.28c1.48,4.72,1.62,10.52-2.8,13.72-4,2.87-9.68,2.48-14,.66-5.06-2.15-9.36-7-9.72-12.69s3.3-11,7.27-14.87l.29-.26C744.36,328.8,752.05,332.36,754.78,341.05Z"/><path class="cls-33" d="M1131.52,172.13c5.48-3.32,12.61-6.17,13-13.5.08-1.29-1.92-1.28-2,0-.5,8.55-15.25,11.47-19.38,18.42a37.22,37.22,0,0,0-4.42,1.61c-5.35,2.34-13.63,8.81-11.17,15.61,1.28,3.54,5.27,5,8.42,6.36,5.46,2.37,11.76,3.93,16.37,7.83,4.81,4.06,5.94,11.56.83,16a7.44,7.44,0,0,1-1.23.85,9.05,9.05,0,0,0-1.93-4.43c-2.59-3.34-9.77-5.77-13.4-2.8-4.67,3.82,0,9.39,4.38,10.38a17.86,17.86,0,0,0,8.68-.17c-1.11,2.87-4.07,5.49-6.83,7-4,2.15-8.48,3.14-12.46,5.26a10.58,10.58,0,0,0-4.25,3.69c-.76,1.24-.71,5.49-1.32,6.05-.95.87.47,2.29,1.41,1.41.73-.67.48-1.6.64-2.49.78-4.47,2.82-6.31,6.78-7.9,3.77-1.52,7.66-2.77,11.19-4.84s6.55-5.33,7.1-9a11.08,11.08,0,0,0,5.58-5.66c3.43-8-1.84-14.49-8.78-18-4.55-2.29-9.49-3.72-14.09-5.91a12.12,12.12,0,0,1-4.18-2.67c-2.74-3.35-.44-6.83,1.63-9.31a18.17,18.17,0,0,1,4.94-4.18,28.12,28.12,0,0,1,5.19-2.32c-.39,1.92,0,4.14,1.53,6.8,2.5,4.32,9,6.2,13.39,3.66s3.79-8.66.11-11.65c-3-2.4-7.07-2.6-11-1.89A20,20,0,0,1,1131.52,172.13ZM1119.2,225.7c-3.51-2.17-2.67-6.67,1.54-6.85a10.82,10.82,0,0,1,6.21,1.88c2.35,1.67,3.25,3.54,3.21,5.39C1126.62,227.34,1121.85,227.33,1119.2,225.7Zm10.54-47.63a10.24,10.24,0,0,1,5.84,1.36c2.9,2,4,6.69.59,8.71-4.48,2.64-10.58-.62-11.53-5.45a7.3,7.3,0,0,1,.29-4A22.68,22.68,0,0,1,1129.74,178.07Z"/><path class="cls-2" d="M334.06,894.14c-2.12-1.24-4.44-.66-6.72-.17-5.3,1.13-10.67,1.93-16.05,2.56-10,1.17-19.79,3.29-30,2.75-10.43-.56-20.66-3.48-31-4.37s-21.08.1-31.59.1c-11.33,0-22.79.45-34.11,0-10.66-.47-21.07-2.91-31.78-3-11.12,0-22,.46-33.07,1.12a40.16,40.16,0,0,1-8.87-.29c-1.09-.18-3.85-.36-4.5-1.22-3.69-4.92,8.85-7.26,11.46-7.74,12.13-2.22,25.09-2.54,37.37-2.85,12.49-.32,24.85-2.81,37.38-3a1,1,0,0,0,0-2c-12.21.2-24.23,2.4-36.4,3-11.45.53-23.13.55-34.51,2.23-4.92.73-16.8,1.74-18.39,8.22-1.38,5.6,9.66,5.79,12.81,5.83,5.82.06,11.57-1.08,17.38-1.22,6.14-.15,12.29,0,18.43,0,12.26,0,24.22,3,36.45,3,12,.05,24,.15,35.92-.06,5.6-.1,11.19-.4,16.79-.39,6.68,0,12.88,1.08,19.44,2.07,12.06,1.82,24.29,3.72,36.49,2.08,6-.81,12-1.85,18.06-2.64,2.87-.38,5.72-.85,8.57-1.33,2.63-.45,7.07-2.26,9.44-.88A1,1,0,0,0,334.06,894.14Z"/><path class="cls-2" d="M62.52,892.23a6.37,6.37,0,0,1-1-.21h0c1.27-.13,1.28-2.13,0-2-1.93.2-5.79,2.61-4.7,5,1.27,2.77,5.17.51,6.26-1.28A1,1,0,0,0,62.52,892.23Zm-3.53,2c-.19,0-.32-.1-.31,0,0-.3.4-.72.77-1a4.69,4.69,0,0,0,.86.49l-.41.23A2,2,0,0,1,59,894.26Z"/><path class="cls-2" d="M36.45,877.53l.07-.27a1,1,0,0,0-1.85-.68,10.32,10.32,0,0,0-7,0c-1.93.79-4.25,3.17-1.91,4.9a10.13,10.13,0,0,0,7.05,1.45c2.51-.49,3.63-2.47,3.71-4.9A1,1,0,0,0,36.45,877.53Zm-8.51,2.77c-.18-.07-.88-.25-1-.46-.23-.5.69-1,1-1.2a5.71,5.71,0,0,1,2.45-.65,10.33,10.33,0,0,1,4.07.66C34,881.71,30.41,881.23,27.94,880.3Z"/><path class="cls-2" d="M1094,873.35c-.6-1.48-2.35-1.5-3.69-1.31a.89.89,0,0,0-.25.09,1,1,0,0,0-.48-.13,11.58,11.58,0,0,0-8.3,3.29,1,1,0,0,0,0,1.41c2.93,3.27,7.34,2.33,10.8.42C1093.39,876.39,1094.63,875,1094,873.35Zm-2.48,1.79c-.14.21-.69.38-.91.48a17.21,17.21,0,0,1-2.34.93,5.14,5.14,0,0,1-4.78-.55,9.68,9.68,0,0,1,6.09-2,.92.92,0,0,0,.56-.19,1,1,0,0,0,.71.16C1091.56,873.86,1092,874.4,1091.5,875.14Z"/><path class="cls-2" d="M1362.22,856h-.67a31.45,31.45,0,0,0-8.23.89c-1.61.43-4.27,1.15-3.94,3.35.29,1.94,2.91,2.46,4.51,2.58a9.06,9.06,0,0,0,7.38-3.12,1.07,1.07,0,0,0-.63-1.72h1.58A1,1,0,0,0,1362.22,856Zm-2.37,2.29a7.29,7.29,0,0,1-5.42,2.56c-.94,0-4-.4-2.33-1.47,2.19-1.37,5.55-1.43,8.32-1.4A.84.84,0,0,0,1359.85,858.29Z"/><path class="cls-2" d="M1324.56,861l-.89,0-.25-.47a1,1,0,0,0-1.81.36c-2.18-.09-4.24,0-6.15,1.6-1.68,1.37-2.82,4.12-.26,5.28,2,.91,4.94,0,6.75-1a5.08,5.08,0,0,0,2.44-2.7,2.52,2.52,0,0,0,.06-1h.1A1,1,0,0,0,1324.56,861Zm-2.62,3.25a4.09,4.09,0,0,1-1.53,1c-1,.46-3,1.21-4.11.73-1.81-.78,1.31-2.75,2.2-3a9.59,9.59,0,0,1,3.82-.16A1.45,1.45,0,0,1,1321.94,864.25Z"/><path class="cls-2" d="M1443.53,892.09c-.46-6.63-13.25-6.72-17.5-6.45-12.95.83-25.56,2.72-38.12-1.35a27.43,27.43,0,0,0-12.58-1.34,39.1,39.1,0,0,0-8.84,1.86.92.92,0,0,0-.93-.81c-10.83-.07-22,0-32.14,4.44-2.43,1.06-10.66,3.48-10.05,7.28s7.83,4.11,10.73,4.26c10,.51,19.92-.48,29.87.74,4.29.53,7.13-.14,11.23-1.22,5.91-1.56,13-.58,19.08-.89,5.52-.28,11-.63,16.57-.49,5.9.14,11.71,1.34,17.62.77C1431.89,898.55,1443.92,897.81,1443.53,892.09Zm-5.33,2.82c-.32.27-1,.22-1.34.4-3.84,1.81-9.46,1.9-13.67,1.77-8.75-.28-17.19-1.08-26-.62-4.24.22-8.47.48-12.72.53-3.31,0-6.59-.24-9.82.59a29.26,29.26,0,0,1-12.7.82,74.65,74.65,0,0,0-10.42-.39c-6.26,0-12.72.47-19-.13-2.14-.21-8.82-.91-5.63-4,2-1.92,7.22-3.62,9.49-4.45,9-3.26,18.43-3.44,27.81-3.39-.14.1-.27.2-.4.3-1,.83.43,2.23,1.41,1.41,2.14-1.79,7.19-2.24,9.86-2.66a24,24,0,0,1,11.43.9,54.54,54.54,0,0,0,21.68,2.9c7.91-.56,16.51-2.17,24.42-1.17,1.51.19,5.75.69,6.43,2.14C1439.51,890.71,1438.72,894.48,1438.2,894.91Z"/><path class="cls-2" d="M958.72,850.26l-.9-.23a1,1,0,0,0-.84,1.78,6.31,6.31,0,0,1-3.69,1.2,1.91,1.91,0,0,1,1.12-1,.92.92,0,0,0,.15,0l.66,0c1.07,0,1.42-1.76.27-2-.1,0-.18,0-.27,0v0H955c-2.26-.15-3.38,1.61-4.17,3.62a1,1,0,0,0,.7,1.23c2.35.71,7.35-.51,7.85-3.34A1,1,0,0,0,958.72,850.26Z"/><path class="cls-2" d="M850.56,851h-1a1,1,0,0,0,0,2h1A1,1,0,0,0,850.56,851Z"/><path class="cls-2" d="M862.56,859h-1a1,1,0,0,0,0,2h1A1,1,0,0,0,862.56,859Z"/><path class="cls-2" d="M869,851.17l-1.49-.17a1,1,0,0,0-1,1,.91.91,0,0,0,0,.14,2.45,2.45,0,0,0-1.91,3,1,1,0,0,0,.7.7c2,.38,4.22-1.51,4.64-3.43A1,1,0,0,0,869,851.17Z"/><path class="cls-2" d="M879.56,858a1,1,0,0,0,0,2A1,1,0,0,0,879.56,858Z"/><path class="cls-2" d="M785.57,859l-.27,0h-.08a4.79,4.79,0,0,0-1.1,0h-.57a.84.84,0,0,0-.81.42,7.33,7.33,0,0,0-3.75,4.16c-.43,1.23.83,2.37,2,2.54a2.24,2.24,0,0,0,2.54-1.86c.26-1.26-1.66-1.79-1.93-.53-.11.51-.37.47-.6.24a5.69,5.69,0,0,1,3-3,11.81,11.81,0,0,0,1.32,0C786.33,860.86,786.78,859.17,785.57,859Z"/><path class="cls-2" d="M180.56,845.23l-.07,0a1,1,0,0,0-.67-1.17c-2.76-.82-6.53.44-6.26,3.83a1.05,1.05,0,0,0,.73,1,6.27,6.27,0,0,0,6.7-1.94A1,1,0,0,0,180.56,845.23Zm-4.91,1.86c.36-1.11,1.75-1.43,3-1.27a1,1,0,0,0,0,.53A4.38,4.38,0,0,1,175.65,847.09Z"/><path class="cls-2" d="M390.75,890.06c-2.71-1.84-6.37,2.14-6.16,4.89a1,1,0,0,0,1,1c2.74.16,5.79-2.14,6-4.95A.85.85,0,0,0,390.75,890.06Zm-3.89,3.71a5.9,5.9,0,0,1,1.75-2,.9.9,0,0,0,.17.85A4.59,4.59,0,0,1,386.86,893.77Z"/><path class="cls-2" d="M1444,853.81c-1.58-2.69-10.24-.53-10.43-1.57-.23-1.27-2.15-.73-1.93.53l.15.83a1,1,0,0,0,.7.7c1.58.38,10-1.08,8.61,2.09-.34.76-3.06,1.48-3.74,1.69-3.61,1.08-5.3-.14-8.51-1.17-3.78-1.22-10.36-1.73-13.74.74-1,.75,0,2.49,1,1.73,4.39-3.2,10.8-.44,15.18.9,3.35,1,7.45-.14,10.38-1.91C1443.34,857.37,1445.23,855.88,1444,853.81Z"/></g></g></svg>