<svg id="thum-frames" xmlns="http://www.w3.org/2000/svg" viewBox="0 0 510 576"><defs><style>.cls-1,.cls-15,.cls-21,.cls-6{fill:none;}.cls-2,.cls-9{fill:#e89f6e;}.cls-16,.cls-3,.cls-8{fill:#fff;}.cls-11,.cls-12,.cls-13,.cls-14,.cls-17,.cls-18,.cls-19,.cls-20,.cls-21,.cls-22,.cls-3,.cls-4,.cls-5,.cls-6,.cls-7,.cls-8,.cls-9{stroke:#000;stroke-width:2px;}.cls-11,.cls-12,.cls-13,.cls-14,.cls-15,.cls-19,.cls-20,.cls-22,.cls-23,.cls-3,.cls-4,.cls-5,.cls-6,.cls-7,.cls-8,.cls-9{stroke-linecap:round;}.cls-17,.cls-18,.cls-19,.cls-20,.cls-21,.cls-22,.cls-23,.cls-3,.cls-5,.cls-6,.cls-9{stroke-miterlimit:10;}.cls-11,.cls-12,.cls-13,.cls-14,.cls-15,.cls-4,.cls-7,.cls-8{stroke-linejoin:round;}.cls-5{fill:#d69365;}.cls-10,.cls-7{fill:#f15a24;}.cls-11{fill:#999;}.cls-12{fill:#1a1a1a;}.cls-13,.cls-24{fill:#e6e6e6;}.cls-14{fill:#ccc;}.cls-15,.cls-23{stroke:#fff;}.cls-17{fill:#4d4d4d;}.cls-18,.cls-19{fill:#333;}.cls-20{fill:#c69c6d;}.cls-22{fill:#134c73;}.cls-23{fill:#333361;}</style></defs><title>principles</title><rect class="cls-1" y="-1" width="510" height="576.03"/><path d="M372.49,67.24s5.24,5.72,5.21,11.14a6.25,6.25,0,0,1-4.84,6.34l-4-13.36V64.51Z"/><path class="cls-2" d="M364.53,121.21c1.58,3.74,3.45,7.94,5,11.68L375.9,148l-22.43,14.65L320.73,148l8-12.52a132.33,132.33,0,0,1-4.62-32.6V58.94L356,51.48c12.29,1.12,16.87,20.25,16.84,33.24C373.18,96.49,371.38,113.21,364.53,121.21Z"/><path class="cls-3" d="M351.17,107.57c-0.55-2.85,10-4.39,10.53-1.49S351.71,110.42,351.17,107.57Z"/><path class="cls-4" d="M322.06,71.14c-9.39,5.15-11.11,20.17-5.74,28.75,7,11.22-.81,16.87,9.31,20.73,2.08-11.88,2.28-30.43,2.28-35.47s12.74-2.5,14.53-8.17c0.29-.92,1.92-7.86-1.87-12.47Z"/><path class="cls-5" d="M332,97.26c-2.88,0-2.88-2.41-2.88-3.82s-5-1.14-5-7.17,4.6-6.77,4.6-6.77c2.82-.4,4.64.87,5.41,3"/><path class="cls-6" d="M330.91,82.91s-4.33-.85-4.33,4.33"/><path class="cls-6" d="M330.91,91.15a2.39,2.39,0,0,1,2.55,2.55"/><path class="cls-7" d="M351.65,107.6c1.61,0.73,2.48,2.81,2.88,4.36,0.66,2.61.16,5.66,4.27,5.64,2.33,0,4.27-1.39,3.67-5.44C361.19,103.57,351.65,107.6,351.65,107.6Z"/><ellipse cx="351.33" cy="87.24" rx="1.76" ry="2.78"/><ellipse cx="367.13" cy="85.98" rx="1.76" ry="2.78"/><path class="cls-6" d="M364.53,121.21c1.58,3.74,3.45,7.94,5,11.68L375.9,148l-22.43,14.65L320.73,148l8-12.52a132.33,132.33,0,0,1-4.62-32.6V58.94L356,51.48c12.29,1.12,16.87,20.25,16.84,33.24C373.18,96.49,371.38,113.21,364.53,121.21Z"/><path class="cls-8" d="M320.73,50.62l1.33,20.53s16.43,0.44,50.44-3.9c0,0,.53-14.48-0.19-20.51Z"/><path class="cls-3" d="M322.72,53.89c-2,.1-7.64.9-9.42,0-0.72-.36-3.65-2.74-4.83-2.93-3-.47-4.28-2.27-5.7-5-0.51-1,.35-7.74,2.41-9.14a19,19,0,0,1,5.81-3.1c4.61-1.34,4.92-2.1,9-4.67,3.59-2.28,7.17-2,11-1.66,5.78-5.55,17.45-10.26,22.6-12.18,2.28-.85,11.66-1.78,13.94-1.46,4.42,0.61,16.05,2.83,17.5,11.55,1,6.06,2.11,9.84-.46,15.42-1.88,4.09-4.37,6.63-10.41,5.25-4.29,4-11,1.61-11,1.61-5.36,3.87-11.63,2.54-15.59,1.45,0,0-3.65,3.27-13.31,2.58C329,55.67,326.18,54.59,322.72,53.89Z"/><path class="cls-6" d="M347.52,49.06a10.22,10.22,0,0,0,1.36-10.6"/><path class="cls-6" d="M374.1,46c2.55-5.49,4.73-9.43,3-15.1"/><path class="cls-6" d="M315.51,45.36c1.66,5.48,5.45,8.75,7.22,8.53"/><path class="cls-6" d="M334.21,51.64C331,50.42,330,46,330,46"/><path class="cls-3" d="M365.7,40.56a9.51,9.51,0,0,1-2.6,7.05"/><path class="cls-9" d="M364.72,95.34c6-1.88,15.37-4.72,14.09-8s-11.5.32-17.12,0.46"/><path class="cls-6" d="M347.21,90.37c1.53-.39,6.31-0.83,7.88-1"/><line class="cls-6" x1="347.23" y1="80.52" x2="353.47" y2="80.96"/><path class="cls-6" d="M364.07,80.15a4.91,4.91,0,0,1,6.24.44"/><path class="cls-6" d="M364.53,121.21a16.21,16.21,0,0,1-4.88,4.32c-3.82,2.23-14,3.66-25-4.32"/><path class="cls-6" d="M330.92,27.44c2.83,0.32,8.17.43,10.52-.22a9.36,9.36,0,0,0,2.53-.64l4.91-2.8a30.79,30.79,0,0,1,6-2.87c4.59-1.42,9.79-.69,14-2.95"/><path class="cls-10" d="M357.47,109.11s3.12,3.48,2.1,7.62"/><path d="M357.71,108.91a6.67,6.67,0,0,1,.9,1,9.2,9.2,0,0,1,1.39,2.61,8.28,8.28,0,0,1,.34,1.58,3.91,3.91,0,0,1,0,.75,4.54,4.54,0,0,1,0,.67,4.91,4.91,0,0,1-.18,1l-0.1.37a0.52,0.52,0,0,1-1-.18v-0.06l0-.33a6,6,0,0,0,.06-0.85,8.82,8.82,0,0,0-.33-2.56,9.16,9.16,0,0,0-.45-1.34c-0.18-.42-0.35-0.81-0.53-1.14-0.34-.66-0.61-1.07-0.61-1.07A0.31,0.31,0,0,1,357.71,108.91Z"/><path class="cls-11" d="M186.51,244.29l14.8,23.59-3.72,3.72c-3.21,0-23.64-22.58-15.4-28.73Z"/><path class="cls-2" d="M202.62,261.68s-7.25,4.73-8.73,6.32-2.49,10.75-8.17,12.76l-0.29,0c-1.88,2.23-6,1.55-6,1.55-2,2.77-5.41,1-6.6.29l-0.63.1c-1,2-2.52,3.79-4.34,4.32-4,1.16-4.94-3-4.94-3a8.85,8.85,0,0,1-8.74,1.57c-1.48-.56-4.45-2.89,0-14.75s15.33-15.65,18-16.64,17.47-11.2,17.47-11.2Z"/><path class="cls-12" d="M31.77,306.09c2.71,25.39,27.12,27.33,44.25,27.33s41.54-1.95,44.25-27.33H31.77Z"/><path class="cls-6" d="M185.72,245.86s-10.95,7.61-13.59,8.6-13.51,4.78-18,16.65-1.48,14.19,0,14.75a8.83,8.83,0,0,0,8.73-1.56s5-2.93.95-4.9c-2.53-1.24-4.84,1.61-6.32,3.26"/><path class="cls-6" d="M162.9,284.28s1,4.12,4.94,3,6.26-8.24,6.1-10.38-0.16-6.56-3.3-7.07-4.45,2.29-4.61,7.4l-1.32,1.4"/><path class="cls-6" d="M199.83,264.39s-4.46,2.21-5.94,3.8-2.49,10.75-8.17,12.76"/><path class="cls-6" d="M179.43,282.54s6.55,1.08,6.92-3.94,0.62-10.26-4-10.4c-1.92-.06-2.69,3.3-2.69,3.3"/><path class="cls-6" d="M172.39,282.54s4.57,3.4,7,0,2-12-2.1-12.8c-3-.63-3.29,1.54-3.93,2.93"/><path class="cls-6" d="M184.37,257.88s1.56,6.07-2.93,10.57"/><path class="cls-11" d="M119.11,297.6l1.68-3.59a6.75,6.75,0,0,1,3.71-3.45l29.89-11.39,2.41,2.47-30.16,11.66a6.75,6.75,0,0,0-3.76,3.6l-2,5Z"/><path class="cls-11" d="M120.93,302.93a8.06,8.06,0,0,1-.66,3.16,10.6,10.6,0,0,1-1.29,2.22,16.43,16.43,0,0,1-3,3.07c-5.13-7.08-21.06-12.23-39.93-12.23s-34.8,5.15-39.93,12.23a16.26,16.26,0,0,1-3.28-3.4l-0.06-.1-0.36-.56h0a8.63,8.63,0,0,1-1.31-4.39c0-10.19,20.11-18.47,44.91-18.47S120.93,292.74,120.93,302.93Z"/><path class="cls-13" d="M115.95,311.38A30.45,30.45,0,0,1,110,315c-8.25,3.92-20.42,6.4-34,6.4s-25.76-2.48-34-6.4a30,30,0,0,1-5.92-3.62c5.13-7.08,21.06-12.23,39.93-12.23S110.82,304.3,115.95,311.38Z"/><path class="cls-9" d="M166,260.13s-7.55,8.2-8.21,9.67-1.48,5.42-2.14,7.07-2.47,3,0,4,7.58-3.13,8.08-7.58l7.91-5.05"/><path class="cls-14" d="M100.89,304.44L100,308.93l-37,7.58a3.74,3.74,0,0,1-3.42-1l-8.9-9L51,302.83Z"/><path class="cls-4" d="M99.64,305.92l-4.36.89L83.76,295.12l4.87-1a4.35,4.35,0,0,1,4,1.21l7.86,8A1.56,1.56,0,0,1,99.64,305.92Z"/><polygon class="cls-8" points="95.27 306.81 68.97 312.21 57.45 300.52 83.76 295.12 95.27 306.81"/><path class="cls-4" d="M69,312.21l-5.49,1.13a3.37,3.37,0,0,1-3.11-.94l-9-9.18a0.91,0.91,0,0,1,.46-1.53l5.68-1.17Z"/><line class="cls-15" x1="57.92" y1="305.78" x2="60.42" y2="308.31"/><ellipse class="cls-16" cx="92.15" cy="300.14" rx="1.29" ry="2.06" transform="translate(-188.25 158.9) rotate(-46.2)"/><path d="M68.89,311.79s0.32-.83.86-2,1.32-2.81,2.17-4.36,1.73-3.09,2.46-4.21,1.26-1.84,1.26-1.84a0.29,0.29,0,0,1,.51.27s-0.29.85-.79,2.09-1.25,2.85-2,4.43-1.66,3.13-2.34,4.28-1.19,1.88-1.19,1.88A0.5,0.5,0,0,1,68.89,311.79Z"/><path d="M74.8,307.58s0.35-.8.93-2,1.4-2.68,2.27-4.17,1.78-3,2.48-4,1.21-1.79,1.21-1.79a0.39,0.39,0,0,1,.67.4s-0.37.78-1,1.92-1.45,2.65-2.36,4.12-1.83,2.92-2.57,4-1.27,1.76-1.27,1.76A0.23,0.23,0,0,1,74.8,307.58Z"/><polygon points="92.08 300.63 91.47 299.85 92.23 299.65 92.83 300.43 92.08 300.63"/><path class="cls-17" d="M368.56,534.7s-2,4.14,0,5.86,4.86,3.78,7,2.17Z"/><path class="cls-17" d="M375.58,545.22s0.55,8.86,7.57,10.34,18.28,0.55,22-1.85c0,0,1-.49.7-4.31Z"/><path class="cls-18" d="M377.79,531.93s12.37-3.69,17,1.11a77.1,77.1,0,0,0,10,8.68c1.66,1.29,1.66,5.17,1.48,6.83s-4.06,4.06-15.51,3.51-14-1.85-15.14-6.83-7-8.09-7-10.52a12.78,12.78,0,0,1,1.11-5.72S376.32,533.59,377.79,531.93Z"/><path class="cls-6" d="M383.33,543.5s13.11,1.63,18.46-.77"/><path class="cls-19" d="M361.13,459.07c1.06,9.89,3.48,19.91,3.38,29.85-0.13,11.72,2.53,21.81,2.09,33.52-0.06,1.68.25,11.7,1.07,13.17,4.88-2.09,6.43-5.06,9.27-5.41,7.91-1,16.73,2.83,19.39,1.94s-0.88-8.32-.21-11.14c1-4.16-1.94-38.76-1.6-47.07,0.3-7.31,2.61-10.68-.56-17.27Z"/><path class="cls-6" d="M394.28,472.23c-3.07,3.5-6.24,7.08-10.36,9.25a38,38,0,0,1-5.59,2.22"/><path class="cls-6" d="M394.51,497.35a22.54,22.54,0,0,1-5.57,6.58"/><path class="cls-17" d="M329.43,536.23s0.4,4.86-.15,5.88-1.57,3.3-2.68,3.4-4.06,0-4.06,0Z"/><path class="cls-17" d="M324.55,545.51s0.85,3.8-.35,6.66-4.71,4.18-6.46,4.52a38.38,38.38,0,0,1-21.41-1.94c-2.12-1.57-1.75-6.18-1.75-6.18Z"/><path class="cls-18" d="M307.79,527.5S296.69,540,295.49,542.56a13.9,13.9,0,0,0-.92,6s2.91,5.44,21,3.69c5.72-.55,9.23-6.83,10.06-8.68s3.6-4.34,3.69-5.35,0.46-5.35,0-6.74l-0.46-1.38Z"/><path class="cls-6" d="M319.86,543.58s-2.12,2.43-4.15,2.49-8.86.77-16.15-1.72"/><path class="cls-19" d="M333,454c0.57,6.62,1.83,13.15,1.05,19.74-0.41,3.47-.15,8.27-0.31,11.76-0.29,6.22-1.18,12.13-.72,18.34a95,95,0,0,1-.52,15.22l-0.67,7.62c-0.13,1.51-.32,10.5-1.32,11.64-1.5,1.73-5.45-4.68-7.6-5.45-9.16-3.31-9.16-3.31-18.18-.57-0.85.26-3.68,4.93-4.35,4.34s-1.25-5.09-.49-5.54l-0.33-1c2.09-9.65,1.7-19,1.93-28.85,0.34-14.62-.82-26.73,2.39-44.36Z"/><path class="cls-6" d="M301.82,474.32c2.5,10.84,9.49,13.86,8.69,15.92s-4.34.24-5.11-.88"/><path class="cls-6" d="M321.89,509.83a8.62,8.62,0,0,0,3.43-3.18c3.32-4.48,6.8-12.51,8.22-17.91"/><path class="cls-20" d="M460.43,114.15l-70.28-2.41s-4.85-2.72-13.93-3.17c-15-.76-14.14,2-14.21,2.78s-2.43,4.23,13.2,4.74c13,0.43,14-1.52,14-1.52l71,2.32A1.85,1.85,0,0,0,460.43,114.15Z"/><path class="cls-6" d="M389.18,114.57s-0.07-2.79-13.91-3.41-13.45,1.25-13.45,1.25"/><path class="cls-2" d="M448,127c-0.44,2.87-.37,14.05-1.48,17.26l-12.22,1.56c-2.49,1-6.08,0-6.08,0a7.1,7.1,0,0,1-5.51-7.95c0.13-.86.16-3.14,0.16-3.14s-1.09-2.14-5.75-4.25c-0.71-.32-3.68-1.31-5.51-3.56a2.45,2.45,0,0,1,.47-3.77,2.28,2.28,0,0,1-.13-3.57,1.71,1.71,0,0,1,2.38.1,2.18,2.18,0,0,1,1.09-4c2,0,7.47.13,7.47,0.13l0.08-.24c-2.61-.89-4.08-2.43-3.52-3.75s1.26-2.26,5.43-2c0,0-.84-2.69,2.91-2.82s4.26,3.88,4.26,3.88c7.77,1.84,10.6,5.42,12.65,7.44A10.32,10.32,0,0,1,448,127Z"/><path class="cls-6" d="M446.51,144.23c0.76-4.43,1.19-13.32,1.48-17.27a11.12,11.12,0,0,0-3.3-8.67c-2.28-2.25-5.53-6.44-15.51-8-8.11-1.26-9-.3-9.75,1.46-0.67,1.58,1.34,3.26,5,3.95s7.81,1.42,10.44,3.15a11.27,11.27,0,0,1,3.8,4.63"/><path class="cls-6" d="M433.69,127.86s-1.13-4.75-7.15-6.19c-3-.71-10.39-1.45-12.22-2-1.61-.49-1.55-3.62.52-3.89,4.78-.63,12.41.49,12.41,0.49"/><path class="cls-6" d="M428.83,132.22c-0.9-4.36-4.82-5.4-8.25-6-4.89-.89-7.73-2.14-8.51-3.07s-1.47-2.51-.13-3.57a1.71,1.71,0,0,1,2.39.09"/><path class="cls-6" d="M412.07,123.13a2.45,2.45,0,0,0-.47,3.77c1.82,2.24,11.21,4.43,11.41,8.63a9.74,9.74,0,0,1-.32,2.33,7.12,7.12,0,0,0,5.52,7.95,5.81,5.81,0,0,0,2,3.13"/><path class="cls-6" d="M432,110.86s-0.51-4-4.26-3.89-2.9,2.82-2.9,2.82"/><path class="cls-6" d="M428.21,145.8s3.59,1,6.08,0"/><path class="cls-8" d="M301.67,290.14c0.32-3.33,1.92-10.09,1-13.3-2-6.73,0-10.92,0-17.94,0,0-3.1-8.35-2-12.51a45.23,45.23,0,0,0,.33-18.47c-1.31-7.61-1.57-18.38-1.64-22.09s-20.74,18.94-41.84,38c0,0-24.34,13.73-28,15.7s-22.06,11.78-25.87,12.28a15.82,15.82,0,0,1-6-.16A36.65,36.65,0,0,0,181.94,246a1.78,1.78,0,0,1,.25-3.11l46.65-21.21c17-11.25,15.9-15,44.31-45.49,9.47-10.14,19.17-20.44,31.33-27.13,4.31-2.37,13-7,17-9.77a50.48,50.48,0,0,0,4.62-8,44.06,44.06,0,0,0,13.59,9.82c6.62,3.16,5.19,10.37,5.19,10.37V291.52Z"/><path class="cls-6" d="M281.22,221.26a72.59,72.59,0,0,1-33.63,10.59"/><path class="cls-8" d="M396.28,295.14a48.21,48.21,0,0,1,1-9.24c1-4.2-1-18.75-1-24.44s1.23-19.76,0-25,1-25.77,1-25.77,4.91,26.53,23.12,25.77c9.91-.41,15.63-6.91,21-15.24,9.79-15.15,8.18-54.4,7.6-79.49a28.6,28.6,0,0,1-13,3.3c-6,.24-10.55-0.83-14.23-3,1.09,21.8.87,34.35,0.32,39.54,0,0-3.61-15.67-7.4-22.7-3.12-5.78-4.9-8.73-10.53-12.11s-14.91-7.1-21.4-8.11c-2.79-.43-5.57-3.21-8.94-5.5-1.77-1.2-4.89-5.33-4.89-5.33-0.66-.56-2.39,3.24-8.51,7.44-5.43,3.73-12,4.29-11,15,0,0-20.82,1.9-28.73,3.63,0,0-.74,20.72,0,30.88s2.72,41,3.21,47,0.3,27.27.8,31.47,0.74,27.5.74,27.5Z"/><circle class="cls-21" cx="333.96" cy="166.98" r="1.61"/><circle class="cls-21" cx="364.46" cy="166.98" r="1.61"/><circle class="cls-21" cx="333.96" cy="188.87" r="1.61"/><circle class="cls-21" cx="364.46" cy="188.87" r="1.61"/><circle class="cls-21" cx="333.96" cy="214" r="1.61"/><circle class="cls-21" cx="364.46" cy="214" r="1.61"/><circle class="cls-21" cx="333.96" cy="239.14" r="1.61"/><circle class="cls-21" cx="364.46" cy="239.14" r="1.61"/><circle class="cls-21" cx="333.96" cy="273.14" r="1.61"/><circle class="cls-21" cx="364.46" cy="273.14" r="1.61"/><path class="cls-6" d="M390.2,175.84c5.57,7.58,4.12,22.74,7.09,34.88"/><path class="cls-6" d="M300.86,227c2.08,9,8.71,18.28,16.9,22.49"/><path class="cls-8" d="M422.07,181.61c-0.26,4.95-1.56,25.71-12,33.29"/><path class="cls-8" d="M394.32,188.42s1.29-6.31,3.92-8.62"/><path class="cls-8" d="M413.17,212s-0.59,5.53-4.87,8.49"/><path class="cls-6" d="M321.54,139.26s9.76,9.83,23.1,11.08"/><path class="cls-6" d="M373.81,133.19s-10.9,15.74-24.44,17.15"/><path class="cls-6" d="M396.57,252.66c-0.42,4.77-1.67,11.18-4.43,15.1-5.56,7.91-11.23,11.61-12.26,10.93-2.51-1.66,1-4.87,3.49-6.48"/><path class="cls-6" d="M306.57,282.7l5.62,4.77c1.75,1.48,3.67,3,6,3.15"/><path class="cls-6" d="M298.37,205.18a24.31,24.31,0,0,0,5-11.53"/><path class="cls-6" d="M299.37,205.8a7.7,7.7,0,0,0,7.55-2.95"/><path class="cls-6" d="M237.07,216a46.72,46.72,0,0,0,11.23-.87"/><path class="cls-6" d="M236.49,217a6.25,6.25,0,0,0,4.52,5"/><path class="cls-6" d="M302.66,258.9a13.22,13.22,0,0,0,3.91,4.78"/><path class="cls-22" d="M296.11,464.47c0.94,2.64,24.84,2.35,39.46,2.2,11.37-.12,29.4-0.47,40.75.11,9.44,0.48,16.91-1.52,27.19-3.66,0,0-.24-154.09-6.94-198.87-0.53-3.55-66-1.69-94.91-.7C298.37,290,295.17,461.83,296.11,464.47Z"/><line class="cls-23" x1="307.11" y1="264.47" x2="307.11" y2="465.18"/><line class="cls-23" x1="300.86" y1="272.94" x2="300.86" y2="465.18"/><line class="cls-23" x1="314.92" y1="264.47" x2="314.92" y2="465.18"/><line class="cls-23" x1="322.72" y1="264.47" x2="322.72" y2="465.18"/><line class="cls-23" x1="330.53" y1="264.47" x2="330.53" y2="465.18"/><line class="cls-23" x1="338.34" y1="264.47" x2="338.34" y2="465.18"/><line class="cls-23" x1="346.14" y1="264.47" x2="346.14" y2="465.18"/><line class="cls-23" x1="353.95" y1="264.47" x2="353.95" y2="465.18"/><line class="cls-23" x1="361.76" y1="264.47" x2="361.76" y2="465.18"/><line class="cls-23" x1="369.56" y1="264.47" x2="369.56" y2="466.53"/><line class="cls-23" x1="377.37" y1="264.47" x2="377.37" y2="466.78"/><line class="cls-23" x1="385.18" y1="264.47" x2="385.18" y2="466.53"/><line class="cls-23" x1="392.99" y1="264.47" x2="392.99" y2="465.33"/><line class="cls-23" x1="400.41" y1="298.08" x2="400.41" y2="490.36"/><path class="cls-6" d="M296.11,464.47c0.94,2.64,24.84,2.35,39.46,2.2,11.37-.12,29.4-0.47,40.75.11,9.44,0.48,16.91-1.52,27.19-3.66,0,0-.24-154.09-6.94-198.87-0.53-3.55-66-1.69-94.91-.7C298.37,290,295.17,461.83,296.11,464.47Z"/><path class="cls-6" d="M236.43,255.18c-11.89,4.39-21.45,4.36-24.42,3.56s-3.46,3,0,3.74"/><path d="M359.68,319.49q16,0.16,32-.07a1.5,1.5,0,0,0,0-3q-16,.23-32,0.07a1.5,1.5,0,0,0,0,3h0Z"/><path d="M307.6,319.14a255.82,255.82,0,0,0,28-.62c1.91-.15,1.93-3.15,0-3a255.82,255.82,0,0,1-28,.62c-1.93-.06-1.93,2.94,0,3h0Z"/><path class="cls-16" d="M44.63,317.51s0.93,0.37,2.6.9c0.84,0.26,1.86.57,3,.89s2.52,0.66,4,1,3.07,0.63,4.76,1,3.49,0.56,5.36.77,3.79,0.44,5.77.52c1,0.05,2,.13,3,0.16l3,0c2,0.06,4-.09,6-0.16l1.47-.07,1.45-.15,2.84-.3,1.39-.15,1.35-.23,2.61-.43a48.44,48.44,0,0,0,4.75-1l2.1-.49c0.67-.15,1.31-0.28,1.89-0.48l3-.92,2.64-.8h0a0.19,0.19,0,0,1,.12.36l-2.62.91-3,1c-1.16.41-2.52,0.7-4,1.1s-3.05.82-4.77,1.09l-2.63.49-1.36.24-1.4.16-2.87.32-1.46.17-1.48.08c-2,.08-4,0.28-6,0.2l-3,0c-1,0-2-.12-3-0.18-2-.09-3.94-0.34-5.82-0.55-0.94-.09-1.86-0.26-2.76-0.41s-1.78-.28-2.64-0.45c-1.7-.36-3.32-0.66-4.78-1.05s-2.81-.74-4-1.1-2.2-.7-3-1c-1.67-.59-2.6-1-2.6-1a0.24,0.24,0,0,1-.13-0.31A0.24,0.24,0,0,1,44.63,317.51Z"/><path class="cls-8" d="M449.46,170.18a23,23,0,0,1-8.08,14.55"/><path class="cls-8" d="M422.34,156.57A73.15,73.15,0,0,0,432,169c1.28,1.23,2.41,2.9,1.62,3.82s-3.41,0-7-4.44"/><path d="M158.51,184.65c-7.91-10-22.4-16.22-34.62-10.45a28.51,28.51,0,0,0-6.73,4.41,50.53,50.53,0,0,0-10,0c-10.2.87-20.09,3.67-29.92,6.38-11.71,3.23-25.45,3.1-34.39-6.41-11.65-12.39-6-31.48,5.86-41.33a47.37,47.37,0,0,1,24.68-10.33c9.86-1.16,19.77.24,29.63,0.63,13.13,0.51,30.87-.88,36.88-14.86,5.42-12.6-4.92-24.74-15.86-29.8-14.32-6.63-30.73-3.88-46-4.73-7.73-.43-15.54-1.75-22-6.38C49.33,66.83,43.88,57.69,45.27,49c1.27-7.88,8-13.49,13.38-18.82a0.65,0.65,0,0,0-.92-0.92c-4.95,4.94-10.85,10-13.09,16.83-2.09,6.43-.09,13.53,3.48,19.07,7.93,12.27,22.29,14.29,35.76,14.46,15.77,0.2,33.64-1.76,46.78,8.84,5.59,4.51,10.07,11.14,9.38,18.61-0.64,6.95-5.65,12.46-11.69,15.47-8.43,4.2-18.5,4.06-27.68,3.57-9.47-.5-19-1.65-28.44-0.37-13.88,1.88-28.18,9.92-34.22,23-5.18,11.25-3.2,25.6,6.93,33.38,9,6.9,20.87,7.26,31.4,4.41,9.52-2.58,19-5.39,28.85-6.49a55.94,55.94,0,0,1,10.74-.32,16.46,16.46,0,0,0-4,6.51c-1.57,5.12,1.3,10.39,6,12.71,3.65,1.81,8.9,2,12-1s2.31-8.54.33-12.09c-2.35-4.21-6.61-6.18-11.25-7,11.79-9.75,28.69-5.33,38.08,6,9.8,11.84,10.48,31.15-2.75,40.83-11.1,8.12-26.74,7.11-39,2.46-21.83-8.27-49.36-33.1-72.59-15-10.22,8-20.21,23.12-16.35,36.62,1.87,6.53,7,12.61,13.44,15s13.39,0.73,19.44-1.94c6.4-2.83,9.42-8.88,15.14-12.48,8.07-5.09,17.48,1.87,19.58,10,2.24,8.74-4.42,13.32-8.65,19.74-3,4.51-2.25,9.79.39,14.32,0.79,1.35,4.25,6.07,5.66,2.74,0.32-.76-0.8-1.43-1.12-0.66-0.82,2-4.23-4.31-4.53-5-1.48-3.72-1.5-7.29.73-10.69,3.73-5.66,9.45-9.67,9.29-17.11a17.63,17.63,0,0,0-9.39-14.89c-5.68-2.88-11.36-1.22-15.78,3-2.36,2.24-4.36,4.86-6.87,6.94-3.41,2.83-8,4.5-12.33,5.39-9.43,2-18.11-2.62-22.38-11.22-4.18-8.42-1.51-17.88,3.12-25.49,4.25-7,10.22-13.73,17.83-17.09,13.41-5.93,28,.78,40,6.91,11.7,6,23.47,13.47,36.73,15.28,12.11,1.65,26.28-.8,33.92-11.26C168.6,210.24,166.66,195,158.51,184.65ZM130,188.74c1,3.08,1.06,6.85-1.82,8.94-2.58,1.87-6.31,1.62-9.1.43-3.3-1.4-6.1-4.59-6.33-8.27s2.15-7.19,4.74-9.69l0.19-.17C123.22,180.76,128.23,183.08,130,188.74Z"/><path class="cls-24" d="M408,35.36c4.76-2.88,10.95-5.36,11.32-11.73,0.07-1.12-1.67-1.11-1.74,0-0.43,7.43-13.24,10-16.83,16a32.32,32.32,0,0,0-3.83,1.4c-4.65,2-11.84,7.65-9.7,13.56,1.11,3.07,4.58,4.34,7.31,5.52,4.74,2.06,10.21,3.42,14.22,6.8,4.17,3.52,5.16,10,.73,13.89a6.46,6.46,0,0,1-1.07.74,7.86,7.86,0,0,0-1.68-3.84c-2.25-2.9-8.48-5-11.64-2.43-4.06,3.32,0,8.15,3.8,9a15.51,15.51,0,0,0,7.53-.15c-1,2.49-3.53,4.77-5.93,6.06C397,92,393.12,92.9,389.67,94.73A9.19,9.19,0,0,0,386,97.94c-0.66,1.07-.62,4.77-1.15,5.26a0.87,0.87,0,0,0,1.23,1.23c0.63-.58.42-1.39,0.56-2.16,0.68-3.88,2.45-5.48,5.89-6.86a72.32,72.32,0,0,0,9.72-4.2c3.06-1.79,5.69-4.63,6.16-7.82a9.62,9.62,0,0,0,4.84-4.91c3-6.92-1.6-12.58-7.62-15.61-3.95-2-8.24-3.23-12.24-5.13a10.52,10.52,0,0,1-3.63-2.32c-2.38-2.91-.38-5.93,1.41-8.09a15.78,15.78,0,0,1,4.29-3.63,24.42,24.42,0,0,1,4.51-2,8.36,8.36,0,0,0,1.33,5.9c2.17,3.76,7.82,5.38,11.62,3.18s3.29-7.52.1-10.12c-2.57-2.09-6.14-2.26-9.57-1.64A17.39,17.39,0,0,1,408,35.36Zm-10.7,46.52c-3.05-1.88-2.32-5.79,1.34-6A9.39,9.39,0,0,1,404,77.55c2,1.45,2.82,3.07,2.79,4.68C403.73,83.3,399.59,83.29,397.29,81.87Zm9.15-41.36a8.89,8.89,0,0,1,5.07,1.18c2.52,1.73,3.49,5.81.51,7.56-3.89,2.3-9.19-.53-10-4.74a6.34,6.34,0,0,1,.25-3.5A19.7,19.7,0,0,1,406.44,40.51Z"/></svg>