<svg id="hero-prototype" xmlns="http://www.w3.org/2000/svg" xmlns:xlink="http://www.w3.org/1999/xlink" viewBox="0 0 1525 920"><defs><style>.cls-1{fill:#fff;}.cls-2,.cls-7{fill:none;}.cls-2{stroke:#e6e6e6;}.cls-12,.cls-2,.cls-7{stroke-linecap:round;}.cls-14,.cls-15,.cls-17,.cls-2,.cls-7{stroke-linejoin:round;}.cls-12,.cls-14,.cls-15,.cls-16,.cls-17,.cls-19,.cls-2,.cls-20,.cls-7{stroke-width:2px;}.cls-3{fill:#b3d9f5;}.cls-4{fill:#d3e6f5;}.cls-5{fill:#7993a6;}.cls-6{fill:#637887;}.cls-12,.cls-14,.cls-15,.cls-16,.cls-17,.cls-19,.cls-20,.cls-7{stroke:#333;}.cls-8{fill:#cf702c;}.cls-9{fill:#b56226;}.cls-10{fill:#8a4b1d;}.cls-11,.cls-19{fill:#333;}.cls-12,.cls-15,.cls-18{fill:#ffb891;}.cls-12,.cls-16,.cls-19,.cls-20{stroke-miterlimit:10;}.cls-13,.cls-14{fill:#0071bc;}.cls-16{fill:#855b33;}.cls-17{fill:#dc1f25;}.cls-20{fill:#7a7a7a;}</style><symbol id="New_Symbol" data-name="New Symbol" viewBox="0 0 4 4"><circle cx="2" cy="2" r="2"/></symbol></defs><title>design-thinking</title><rect class="cls-1" y="0.94" width="1525" height="920"/><use width="4" height="4" transform="translate(247.08 101.74)" xlink:href="#New_Symbol"/><use width="4" height="4" transform="translate(273.59 108.51)" xlink:href="#New_Symbol"/><use width="4" height="4" transform="translate(286.1 82.42)" xlink:href="#New_Symbol"/><use width="4" height="4" transform="translate(1288.5 147.62)" xlink:href="#New_Symbol"/><use width="4" height="4" transform="translate(1284.83 253.74)" xlink:href="#New_Symbol"/><use width="4" height="4" transform="translate(1108.41 387.26)" xlink:href="#New_Symbol"/><use width="4" height="4" transform="translate(802.19 441.17)" xlink:href="#New_Symbol"/><use width="4" height="4" transform="translate(540.67 283.3)" xlink:href="#New_Symbol"/><use width="4" height="4" transform="translate(543.47 164.03)" xlink:href="#New_Symbol"/><use width="4" height="4" transform="translate(547.18 43.21)" xlink:href="#New_Symbol"/><use width="4" height="4" transform="translate(74.83 115.54)" xlink:href="#New_Symbol"/><use width="4" height="4" transform="translate(111.97 330.23)" xlink:href="#New_Symbol"/><use width="4" height="4" transform="translate(167.9 432.55)" xlink:href="#New_Symbol"/><use width="4" height="4" transform="translate(446.94 485.46)" xlink:href="#New_Symbol"/><use width="4" height="4" transform="translate(686.08 499.49)" xlink:href="#New_Symbol"/><use width="4" height="4" transform="translate(920.11 459.11)" xlink:href="#New_Symbol"/><use width="4" height="4" transform="translate(1063.51 403.7)" xlink:href="#New_Symbol"/><use width="4" height="4" transform="translate(1325.66 340.6)" xlink:href="#New_Symbol"/><use width="4" height="4" transform="translate(1493.5 357.46)" xlink:href="#New_Symbol"/><use width="4" height="4" transform="translate(1508.35 230.57)" xlink:href="#New_Symbol"/><use width="4" height="4" transform="translate(1468.77 20.41)" xlink:href="#New_Symbol"/><use width="4" height="4" transform="translate(751.84 154.87)" xlink:href="#New_Symbol"/><use width="4" height="4" transform="translate(841.34 309.25)" xlink:href="#New_Symbol"/><use width="4" height="4" transform="translate(948.6 349.22)" xlink:href="#New_Symbol"/><use width="4" height="4" transform="translate(1079.99 313.37)" xlink:href="#New_Symbol"/><use width="4" height="4" transform="translate(1211.71 119.66)" xlink:href="#New_Symbol"/><use width="4" height="4" transform="translate(48.7 31.83)" xlink:href="#New_Symbol"/><use width="4" height="4" transform="translate(69.61 193.79)" xlink:href="#New_Symbol"/><use width="4" height="4" transform="translate(75.9 371.17)" xlink:href="#New_Symbol"/><use width="4" height="4" transform="translate(98.45 555.65)" xlink:href="#New_Symbol"/><use width="4" height="4" transform="translate(95.79 572.51)" xlink:href="#New_Symbol"/><use width="4" height="4" transform="translate(169.17 566.51)" xlink:href="#New_Symbol"/><use width="4" height="4" transform="translate(286.15 454.27)" xlink:href="#New_Symbol"/><use width="4" height="4" transform="translate(319.92 334.95)" xlink:href="#New_Symbol"/><use width="4" height="4" transform="translate(375.43 244.71)" xlink:href="#New_Symbol"/><use width="4" height="4" transform="translate(668.55 290.65)" xlink:href="#New_Symbol"/><use width="4" height="4" transform="translate(911.65 392.58)" xlink:href="#New_Symbol"/><use width="4" height="4" transform="translate(1098.76 420.45)" xlink:href="#New_Symbol"/><use width="4" height="4" transform="translate(1256.21 473.79)" xlink:href="#New_Symbol"/><use width="4" height="4" transform="translate(1271.01 487.74)" xlink:href="#New_Symbol"/><use width="4" height="4" transform="translate(1324.69 475.94)" xlink:href="#New_Symbol"/><use width="4" height="4" transform="translate(1420.63 351.65)" xlink:href="#New_Symbol"/><use width="4" height="4" transform="translate(1392.74 267.88)" xlink:href="#New_Symbol"/><use width="4" height="4" transform="translate(1249.07 206.79)" xlink:href="#New_Symbol"/><use width="4" height="4" transform="translate(1157.12 226.03)" xlink:href="#New_Symbol"/><use width="4" height="4" transform="translate(921.14 190.78)" xlink:href="#New_Symbol"/><use width="4" height="4" transform="translate(901.73 200.54)" xlink:href="#New_Symbol"/><use width="4" height="4" transform="translate(496.79 245.13)" xlink:href="#New_Symbol"/><use width="4" height="4" transform="translate(343.86 269.04)" xlink:href="#New_Symbol"/><use width="4" height="4" transform="translate(239.66 205.09)" xlink:href="#New_Symbol"/><use width="4" height="4" transform="translate(224.73 187.92)" xlink:href="#New_Symbol"/><use width="4" height="4" transform="translate(200.84 184.24)" xlink:href="#New_Symbol"/><path class="cls-2" d="M69.54,595.65c6.67-5.11,17.26-5.55,25.65-7,43.49-7.65,87.43-12.43,131.15-18.74,43.42-6.27,87.07-9.35,130.51-15.28,34.06-4.65,68.66-10.82,103-12,48-1.66,95.46-6.86,143.62-5.58,45.86,1.21,91.26,5.15,136.93,9.31,162.5,14.82,325.81,28.77,487.15,54,44.36,6.92,89.75,8.53,133.81,16.35,18.83,3.34,37.84,5.35,56.86,7.47,17.38,1.93,39.91,8.52,57.13,5.17"/><polygon class="cls-3" points="1000.68 564.19 1000.68 644.6 992.57 644.6 864.17 644.6 864.17 465.12 864.17 463.33 864.17 455.72 1000.68 455.72 1000.68 559.56 1000.68 564.19"/><polygon class="cls-3" points="992.57 644.6 992.57 665.56 859.91 665.56 859.91 644.6 864.17 644.6 992.57 644.6"/><path class="cls-4" d="M954.2,412.66v34.86H934V407.38h14.9A5.28,5.28,0,0,1,954.2,412.66Z"/><polygon class="cls-3" points="934.05 447.71 893.71 447.71 893.71 407.38 934.05 407.38 934.05 447.52 934.05 447.71"/><polygon class="cls-5" points="893.71 407.38 893.71 447.71 889.23 447.71 889.23 407.38 883.63 407.38 883.63 404.69 883.63 392.61 893.71 392.61 893.71 407.38"/><rect class="cls-3" x="883.63" y="407.38" width="5.6" height="40.34"/><rect class="cls-3" x="878.04" y="407.38" width="5.59" height="40.34"/><polygon class="cls-5" points="878.04 407.38 878.04 447.71 862.68 441.63 846.48 435.18 846.48 404.69 878.04 407.38"/><polygon class="cls-4" points="864.17 465.12 864.17 644.6 859.91 644.6 855.66 644.6 855.66 465.12 864.17 465.12"/><polygon class="cls-5" points="864.17 455.72 864.17 463.33 828.81 449.56 828.81 441.63 864.17 455.72"/><polygon class="cls-6" points="859.91 644.6 859.91 665.56 828.81 632.67 828.81 622.59 855.66 644.6 859.91 644.6"/><polygon class="cls-5" points="855.66 465.12 855.66 644.6 828.81 622.59 818.52 614.16 818.52 449.56 855.66 465.12"/><polygon class="cls-5" points="855.66 465.12 818.52 449.56 828.81 449.56 864.17 463.33 864.17 465.12 855.66 465.12"/><polyline class="cls-7" points="992.57 644.6 1000.68 644.6 1000.68 564.19"/><polyline class="cls-7" points="1000.68 559.56 1000.68 455.72 864.17 455.72 864.17 463.33 864.17 465.12"/><polyline class="cls-7" points="855.66 644.6 828.81 622.59 818.52 614.16 818.52 449.56 855.66 465.12"/><polyline class="cls-7" points="864.17 644.6 864.17 465.12 855.66 465.12 855.66 644.6 859.91 644.6"/><polyline class="cls-7" points="818.52 449.56 828.81 449.56 864.17 463.33"/><polyline class="cls-7" points="828.81 449.56 828.81 441.63 864.17 455.72"/><polygon class="cls-7" points="992.57 644.6 992.57 665.56 859.91 665.56 859.91 644.6 864.17 644.6 992.57 644.6"/><polyline class="cls-7" points="828.81 622.59 828.81 632.67 859.91 665.56"/><polyline class="cls-7" points="878.04 447.71 862.68 441.63 846.48 435.18 846.48 404.69 878.04 407.38"/><polyline class="cls-7" points="883.63 447.71 878.04 447.71 878.04 407.38 883.63 407.38 889.23 407.38 889.23 447.71"/><polyline class="cls-7" points="893.71 407.38 893.71 392.61 883.63 392.61 883.63 404.69 883.63 407.38 883.63 447.71 889.23 447.71 893.71 447.71"/><polyline class="cls-7" points="934.05 447.52 934.05 447.71 893.71 447.71 893.71 407.38 934.05 407.38"/><line class="cls-7" x1="934.05" y1="392.61" x2="934.05" y2="407.38"/><path class="cls-7" d="M954.2,441.63v5.89H934V407.38h14.9a5.28,5.28,0,0,1,5.26,5.28v29Z"/><line class="cls-7" x1="846.48" y1="404.69" x2="883.63" y2="404.69"/><line class="cls-7" x1="828.81" y1="441.63" x2="862.68" y2="441.63"/><line class="cls-7" x1="1000.68" y1="455.72" x2="954.22" y2="441.63"/><path class="cls-7" d="M913.69,479.74c7.91,0.05,16.86,2.6,23.88,0"/><path class="cls-7" d="M942.33,478.54c3.19,1.79,8,1.56,11.94,0"/><polygon class="cls-8" points="695.88 629.82 695.88 681.67 677.98 684.07 677.98 631.62 695.88 629.82"/><polygon class="cls-8" points="695.88 276.24 695.88 629.82 677.98 631.62 677.98 414.09 677.98 276.24 686.93 276.24 695.88 276.24"/><path class="cls-8" d="M686.93,233.48v42.75h-9v-51.7A9,9,0,0,1,686.93,233.48Z"/><polygon class="cls-9" points="677.98 684.07 677.98 709.33 414.8 751.57 414.8 719.47 677.98 684.07"/><polygon class="cls-8" points="677.98 631.62 677.98 684.07 414.8 719.47 414.8 658.04 677.98 631.62"/><polygon class="cls-8" points="677.98 414.09 677.98 631.62 414.8 658.04 414.8 417.67 502.53 416.47 597.36 415.18 609.05 415.02 677.98 414.09"/><polygon class="cls-8" points="677.98 276.24 677.98 414.09 609.05 415.02 609.05 348.37 502.53 348.37 502.53 360.08 502.53 416.47 414.8 417.67 414.8 264.6 414.8 241.32 677.98 250.58 677.98 276.24"/><path class="cls-9" d="M678,224.53v26L414.8,241.32V199.25l249.54,11A14.28,14.28,0,0,1,678,224.53Z"/><polygon class="cls-9" points="609.05 348.37 609.05 415.02 597.36 415.18 597.33 413.11 597.33 360.08 609.05 348.37"/><polygon class="cls-9" points="609.05 348.37 597.33 360.08 502.53 360.08 502.53 348.37 609.05 348.37"/><path class="cls-10" d="M597.33,413.11l0,2.08-94.83,1.29v-56.4h94.8v53Zm-6.07-7.18a2.13,2.13,0,1,0-4.26,0A2.13,2.13,0,0,0,591.26,405.93Zm-4.58-15.11V374.26h-6.27v16.56h6.27Zm-3.81,15.11a2.12,2.12,0,1,0-2.13,2.13A2.12,2.12,0,0,0,582.86,405.93ZM575,390.82V374.26h-6.27v16.56H575Zm-0.57,15.11a2.12,2.12,0,1,0-2.11,2.13A2.12,2.12,0,0,0,574.46,405.93Zm-8.38,0a2.13,2.13,0,1,0-2.13,2.13A2.12,2.12,0,0,0,566.09,405.93Zm-2.47-15.11v-6.27H547.05v6.27h16.56Zm-7.38-19.25a3.58,3.58,0,1,0-3.58,3.58A3.59,3.59,0,0,0,556.24,371.57Zm-10.29,34.36a2.13,2.13,0,1,0-2.13,2.13A2.12,2.12,0,0,0,545.94,405.93Zm-1.34-34.36a3.58,3.58,0,1,0-3.58,3.58A3.59,3.59,0,0,0,544.6,371.57ZM539,405.93a2.12,2.12,0,1,0-2.13,2.13A2.12,2.12,0,0,0,539,405.93Zm-6-34.36a3.58,3.58,0,1,0-3.58,3.58A3.59,3.59,0,0,0,533,371.57Zm-0.9,34.36a2.13,2.13,0,1,0-2.13,2.13A2.12,2.12,0,0,0,532.07,405.93Zm-6.95,0a2.12,2.12,0,1,0-2.13,2.13A2.12,2.12,0,0,0,525.12,405.93Zm-3.8-34.36a3.58,3.58,0,1,0-3.58,3.58A3.59,3.59,0,0,0,521.33,371.57Zm-3.13,34.36a2.13,2.13,0,1,0-2.13,2.13A2.12,2.12,0,0,0,518.19,405.93Zm-6.95,0a2.12,2.12,0,1,0-2.13,2.13A2.12,2.12,0,0,0,511.25,405.93Z"/><path class="cls-11" d="M589.13,403.8a2.13,2.13,0,1,1,0,4.26A2.13,2.13,0,0,1,589.13,403.8Z"/><path class="cls-11" d="M580.73,403.8a2.13,2.13,0,1,1-2.11,2.13A2.12,2.12,0,0,1,580.73,403.8Z"/><path class="cls-11" d="M572.35,403.8a2.13,2.13,0,1,1-2.13,2.13A2.12,2.12,0,0,1,572.35,403.8Z"/><path class="cls-11" d="M564,403.8a2.13,2.13,0,1,1-2.13,2.13A2.12,2.12,0,0,1,564,403.8Z"/><path class="cls-11" d="M543.81,403.8a2.13,2.13,0,1,1-2.13,2.13A2.12,2.12,0,0,1,543.81,403.8Z"/><path class="cls-11" d="M536.87,403.8a2.13,2.13,0,1,1-2.11,2.13A2.12,2.12,0,0,1,536.87,403.8Z"/><path class="cls-11" d="M529.94,403.8a2.13,2.13,0,1,1-2.13,2.13A2.12,2.12,0,0,1,529.94,403.8Z"/><path class="cls-11" d="M523,403.8a2.13,2.13,0,1,1-2.11,2.13A2.12,2.12,0,0,1,523,403.8Z"/><path class="cls-11" d="M516.06,403.8a2.13,2.13,0,1,1-2.13,2.13A2.12,2.12,0,0,1,516.06,403.8Z"/><path class="cls-11" d="M509.12,403.8a2.13,2.13,0,1,1-2.11,2.13A2.12,2.12,0,0,1,509.12,403.8Z"/><polygon class="cls-10" points="414.8 719.47 414.8 751.57 337.21 708.29 337.21 690.43 393.32 722.35 414.8 719.47"/><polygon class="cls-8" points="414.8 658.04 414.8 719.47 393.32 722.35 393.32 660.19 414.8 658.04"/><polygon class="cls-8" points="414.8 417.67 414.8 658.04 393.32 660.19 393.32 264.6 414.8 264.6 414.8 417.67"/><path class="cls-8" d="M414.8,241.32V264.6H393.32V215.26a16,16,0,0,1,5.55-12.12h0a15.81,15.81,0,0,1,10.44-3.88h5.48v42.07Z"/><path class="cls-9" d="M335.28,220.81l63.59-17.67a16,16,0,0,0-5.55,12.12V264.6l-76.09,15.22V244.55A24.63,24.63,0,0,1,335.28,220.81Zm40,9.33c0-1.24-.39-2.24-0.9-2.24s-0.9,1-.9,2.24,0.41,2.24.9,2.24S375.26,231.37,375.26,230.14ZM330.8,241.47c0-1.24-.39-2.24-0.9-2.24s-0.9,1-.9,2.24,0.39,2.24.9,2.24S330.8,242.7,330.8,241.47Z"/><polygon class="cls-9" points="393.32 660.19 393.32 722.35 337.21 690.43 317.23 679.06 317.23 629.82 393.32 660.19"/><path class="cls-9" d="M393.32,264.6V660.19l-76.09-30.36v-350ZM375.26,285c0-1.24-.39-2.24-0.9-2.24s-0.9,1-.9,2.24,0.41,2.24.9,2.24S375.26,286.28,375.26,285ZM330.8,292.8c0-1.24-.39-2.24-0.9-2.24s-0.9,1-.9,2.24,0.39,2.24.9,2.24S330.8,294,330.8,292.8Z"/><path class="cls-11" d="M374.36,227.9c0.5,0,.9,1,0.9,2.24s-0.39,2.24-.9,2.24-0.9-1-.9-2.24S373.88,227.9,374.36,227.9Z"/><path class="cls-11" d="M374.36,282.81c0.5,0,.9,1,0.9,2.24s-0.39,2.24-.9,2.24-0.9-1-.9-2.24S373.88,282.81,374.36,282.81Z"/><ellipse class="cls-11" cx="329.91" cy="241.47" rx="0.9" ry="2.24"/><ellipse class="cls-11" cx="329.91" cy="292.8" rx="0.9" ry="2.24"/><polyline class="cls-7" points="677.98 250.58 677.98 276.24 677.98 414.09"/><polyline class="cls-7" points="414.8 417.67 414.8 264.6 414.8 241.32"/><polyline class="cls-7" points="609.05 415.02 609.05 348.37 502.53 348.37 502.53 360.08 502.53 416.47"/><polyline class="cls-7" points="609.05 348.37 597.33 360.08 597.33 413.11"/><line class="cls-7" x1="597.33" y1="360.08" x2="502.53" y2="360.08"/><path class="cls-7" d="M678,224.53a14.28,14.28,0,0,0-13.64-14.25l-249.54-11v42.07L678,250.58v-26Z"/><polygon class="cls-7" points="677.98 684.07 677.98 709.33 414.8 751.57 414.8 719.47 414.8 658.04 414.8 417.67 502.53 416.47 597.36 415.18 609.05 415.02 677.98 414.09 677.98 631.62 677.98 684.07"/><polygon class="cls-7" points="695.88 629.82 677.98 631.62 414.8 658.04 393.32 660.19 393.32 722.35 414.8 719.47 677.98 684.07 695.88 681.67 695.88 629.82"/><path class="cls-7" d="M398.89,203.14a15.81,15.81,0,0,1,10.44-3.88h5.48"/><path class="cls-7" d="M398.87,203.14l-63.59,17.67a24.63,24.63,0,0,0-18,23.74V629.82l76.09,30.36V215.26a16,16,0,0,1,5.55-12.12"/><line class="cls-7" x1="398.87" y1="203.14" x2="398.89" y2="203.14"/><polyline class="cls-7" points="317.23 279.82 393.32 264.6 414.8 264.6"/><polyline class="cls-7" points="317.23 629.82 317.23 679.06 337.21 690.43 393.32 722.35"/><polyline class="cls-7" points="414.8 751.57 337.21 708.29 337.21 690.43"/><polyline class="cls-7" points="695.88 629.82 695.88 276.24 686.93 276.24 677.98 276.24"/><path class="cls-7" d="M678,224.53a9,9,0,0,1,9,9v42.75"/><path class="cls-7" d="M521.33,371.57a3.58,3.58,0,1,1-3.58-3.58A3.59,3.59,0,0,1,521.33,371.57Z"/><path class="cls-7" d="M533,371.57a3.58,3.58,0,1,1-3.58-3.58A3.59,3.59,0,0,1,533,371.57Z"/><path class="cls-7" d="M544.6,371.57A3.58,3.58,0,1,1,541,368,3.59,3.59,0,0,1,544.6,371.57Z"/><path class="cls-7" d="M556.24,371.57a3.58,3.58,0,1,1-3.58-3.58A3.59,3.59,0,0,1,556.24,371.57Z"/><rect class="cls-7" x="568.77" y="374.26" width="6.27" height="16.56"/><rect class="cls-7" x="547.05" y="384.55" width="16.56" height="6.27"/><rect class="cls-7" x="580.41" y="374.26" width="6.27" height="16.56"/><ellipse class="cls-11" cx="1025.48" cy="261.75" rx="1.25" ry="1.66"/><path class="cls-12" d="M975.17,441.89s2.68,1.86,4.31,1.77a9.07,9.07,0,0,0,4.56-1.17c1.25-.86,3.17-3.94,1.83-6.33l-1-2-8.24,5Z"/><line class="cls-12" x1="979.38" y1="439.19" x2="981.62" y2="439.35"/><path class="cls-12" d="M984.2,436.19s5.63,2.18,8.76,2l3.13-.15,1.22-8-14.07.4Z"/><path class="cls-12" d="M978.54,428s-9.83,3.07-11.89,5.24c-1,1-.13,6.54,1.66,7.32"/><path class="cls-12" d="M992.78,432.95a32.9,32.9,0,0,1-.7,8.1c-0.51,2-4.11,5.83-3.65,7.88,1.07,4.79,5.12-.45,7.2-3.58,3.28-4.94,3.78-8.75,7-14.85,2-3.8,36.19-26.35,37.32-28.52,11.84-22.77-2-36.17-2-36.17-3.1,4.76-14.13,25.67-17.37,30.38-4.89,7.11-12,13.94-17.89,20.13s-13.33,7.61-21.22,10.65c0,0-7.56,5.76-9.91,7s0.77,7.08.77,7.08"/><path class="cls-12" d="M989.22,433.89c-10.36,2.17-18.11,17.91-20.71,16.28-1.87-1.17-1.2-4.06,4.42-11.67,0,0,6.37-6.37,7.69-7"/><path class="cls-13" d="M1065.86,291.14a3.19,3.19,0,0,0-.23,1C1065.7,291.84,1065.81,291.37,1065.86,291.14Zm-9.26,2.88,2.94-1c-0.61-3.06,4-3.47,6.36-2a2.62,2.62,0,0,1,4-1.34c0.55,2.11-.52,4.44-1.79,4.85,5.66-.13,2.83,8.63-1.11,6.21,4.53,3.1-1.16,8.13-1.9,4.26,0.27,3.78-4.15,6.64-4.06,2.22-1.34,4-6.93,3.13-3.78.25-3.74,1.84-3.29-3.17-.84-4.82-5.35,1.11-3-4.24.52-5.08C1054.78,296.76,1053.92,294,1056.61,294Z"/><path class="cls-13" d="M1042,297.19c3.08-4,8.47-5,11.69-8.09-2.86,6.09-10,13.73-15.72,20C1039,304.94,1039.24,300.77,1042,297.19Z"/><path class="cls-14" d="M1136.6,576.17c0,0.25-.4.47-1.16,0.64-3.83.81-16.06,0.56-19.18,0.56-8.1,0-16.26.7-24.38,1.24l-4,.23a135.45,135.45,0,0,1-23.56-.32c-0.77-.08-1.54-0.18-2.3-0.23a142.42,142.42,0,0,0-22.84-.32c-6.75.35-22.58-6.57-22.58-6.57,1.72-.71,2.72-3.06,3.26-4.74,0.05-.19.1-0.38,0.15-0.57s0.16-.57.2-0.79,0.07-.32.1-0.5c-7.71-.83-13.08,2.06-20.23-2.23l-0.18-.11,0.59-.58c1.78-1.52,1.18-11.1,1.76-15.1,0.95-6.53,2.14-13,3.09-19.58,3.45-24,9.61-47.79,14-71.77,2.48-13.69,4.35-27.84,8-41.29,1.31-4.79,3.24-9.68,5-14.61,2.64-7.11,5-14.3,5.1-21.46l0.59-17.9c0-6.68-.61-11-4-16.7-5.93-9.78-10.16-15.48-3-26.24a81.53,81.53,0,0,1,6.85-8.12c5.7-6.25,12.85-13.89,15.72-20v0c1.06-2.24,1.52-4.25,1.14-5.91v-0.07c10.7,0.48,22.06-2.55,27.06-13.1,3.33,8.18,10.13,14.55,17.08,19.89l1.78,1.35c6.63,5.43,11.35,17.85,7.17,26s-11.93,68-11.93,68c-0.35,3.15,3.13,11,4.73,14.8,2.43,5.81,4.35,11.86,6.3,18,3.88,12.19,7.55,24.84,10.45,37.34A684,684,0,0,1,1132,544.13C1132.39,548.4,1139.6,575.42,1136.6,576.17Z"/><path class="cls-7" d="M1020.25,565.29c-0.07.27-.13,0.54-0.2,0.79"/><path class="cls-7" d="M1035.75,400.72c-0.48,32.83-6.36,65.36-10.17,97.89-1.77,15-2.36,30.15-3.69,45.2-0.48,5.35-.16,14.2-1.54,21"/><path class="cls-7" d="M1039.93,264.66c-1,.11-1.92.29-2.84,0.47"/><path class="cls-7" d="M1026,235.77c-0.13-.32-0.25-0.65-0.4-0.95"/><path class="cls-7" d="M1039.93,269.75c1.88-.22,3.84-0.38,5.36-1.51"/><path class="cls-7" d="M1054.24,276.69c4.37-1.25,7.29-3.9,10.75-7.86"/><path class="cls-7" d="M1054.24,276.69v-0.08"/><path class="cls-7" d="M1038,309.08c1.06-4.14,1.25-8.31,4-11.89,3.08-4,8.47-5,11.69-8.09a0.06,0.06,0,0,0,0,0,4.93,4.93,0,0,0,.52-0.54"/><path class="cls-15" d="M1081.92,270c-5,10.56-16.36,13.58-27.06,13.1-0.19,0,.18,0,0,0-0.11-2.1-.57-4.28-0.62-6.4a13.7,13.7,0,0,1-2.08.5c-7.61,1.35-10-3.58-12.24-7.44a16.51,16.51,0,0,0-1.67.23c-0.59-1.68-1.2-2.3-1-4.17l-0.15-.68a22.06,22.06,0,0,1-6,.65c0.15-2.51.92-5,.52-7.68-0.55-3.71-2-2.94-3.15-5.82a17.84,17.84,0,0,1-1.1-5c-0.33-3.83-.07-8-1.34-11.46l0.8-.34c10,3.24,17.43,14.8,29.68,12.4,4-.79,8.33-6.22,12.24-3,4.1,3.38.82,8.65-2.54,10.88l1.78,0.59c3.9,1,7.67,1.9,11.75,2.93a34.58,34.58,0,0,0,.48,4.84A28.34,28.34,0,0,0,1081.92,270Z"/><path class="cls-16" d="M1079.72,259.23c-4.08-1-7.85-1.91-11.75-2.93l-1.78-.59c3.36-2.23,6.64-7.5,2.54-10.88-3.91-3.22-8.21,2.2-12.24,3-12.25,2.4-19.73-9.15-29.68-12.4l-0.8.34c1.26,3.47,1,7.63,1.34,11.46l-1.13.13C1023,242.59,1018,240,1019,233c0.82-5.43,5.68-10.93,9.87-14.32,9.16-7.42,19.79-10.14,31-7.17,10.57,2.82,18.8,7.52,20.55,19.1C1081.94,240.27,1079.3,249.8,1079.72,259.23Z"/><path class="cls-7" d="M1079.92,259.29l-0.2-.05"/><path class="cls-7" d="M1031,249.75c2.4-1.2,8.36-1.5,10.15,0"/><path class="cls-7" d="M1065.9,291c-2.36-1.45-7-1-6.36,2a3.62,3.62,0,0,0,.16.59"/><path class="cls-7" d="M1065.59,292.27a1.18,1.18,0,0,0,0-.16c0.07-.27.18-0.73,0.23-1"/><path class="cls-7" d="M1065.86,291.14a3.19,3.19,0,0,0-.23,1"/><path class="cls-7" d="M1065.86,291.14a0.25,0.25,0,0,1,0-.11"/><path class="cls-7" d="M1065.08,304.53a2.06,2.06,0,0,1,.05.47v0c0.73,3.87,6.43-1.16,1.9-4.26,3.94,2.42,6.77-6.34,1.11-6.21,1.27-.41,2.35-2.74,1.79-4.85a2.62,2.62,0,0,0-4,1.34"/><path class="cls-7" d="M1057.47,294.09a5.2,5.2,0,0,0-.86-0.07c-2.69,0-1.83,2.74.36,3.56-3.56.84-5.87,6.19-.52,5.08-2.45,1.65-2.9,6.66.84,4.82-3.15,2.88,2.43,3.72,3.78-.25-0.09,4.42,4.33,1.56,4.06-2.22"/><path class="cls-7" d="M1046.35,246.76c5.71,2.43,11.17,11.08,8.5,17.46"/><path class="cls-17" d="M1095.13,639.64c11.49,8,2.29,21.91,2.69,33.21h-2.69c-1.31-1.83-1-10.31-2.85-14.16a21.53,21.53,0,0,0-10.58,1.63l-4.5,2c1.22-4.33,1.45-8,0-12l5.4-2.52C1086.76,646.23,1091.84,642.41,1095.13,639.64Z"/><path class="cls-15" d="M1095.58,638.83l-0.45.81c-3.29,2.77-8.38,6.59-12.53,8.15l-5.4,2.52c-1-2.7-2.3-10.66-2.3-10.66,1.79-12.12,2.83-24.31,5.21-33,2.27-8.34,3.51-19.76,7.86-26.85l-0.05-.91c1.31-.07,2.63-0.14,4-0.23l0.13,2a117.1,117.1,0,0,0,.21,31.15C1093.4,620.48,1092.7,630.63,1095.58,638.83Z"/><path class="cls-18" d="M1088.21,579.75c-4.35,7.09-5.58,18.52-7.86,26.86-2.38,8.72-3.42,20.91-5.21,33,0,0.15,0,.29-0.07.44a132.1,132.1,0,0,1-4.59,21,12,12,0,0,1-14.9-11.64,12.54,12.54,0,0,1,.23-2.36c0.72-1.5,1.38-3,2-4.58a80.93,80.93,0,0,0,3.53-11.28c3.81-16.13,4-36,.93-52.37l0.05-.57c0.75,0.05,1.52.14,2.3,0.23a135.48,135.48,0,0,0,23.56.32Z"/><path class="cls-7" d="M1057.8,642.51a80.93,80.93,0,0,0,3.53-11.28c3.81-16.13,4-36,.93-52.37l0.05-.57c0.75,0.05,1.52.14,2.3,0.23a135.48,135.48,0,0,0,23.56.32l0.05,0.91c-4.35,7.09-5.58,18.52-7.86,26.86-2.38,8.72-3.42,20.91-5.21,33,0,0.15,0,.29-0.07.44"/><path class="cls-18" d="M1074.83,640.08a131.06,131.06,0,0,1-4.59,21l-0.41,1.2c-6,4.64-26.41,16-24.06,1.4,1.87-3.2,3.63-6.26,5.32-8.73a58.26,58.26,0,0,0,4.49-7.88c0.71-1.49,1.37-3,2-4.55a12,12,0,0,1,9.81-5.09A11.87,11.87,0,0,1,1074.83,640.08Z"/><path class="cls-17" d="M1069.84,662.3a52,52,0,0,1-2.48,6.05c-5.75,11.78-15.47,18.78-33.19,14.11a2.23,2.23,0,0,0-1.49-.82c4.8-3.66,9.15-11.11,13.1-17.94C1043.43,678.31,1063.88,666.94,1069.84,662.3Z"/><path class="cls-7" d="M1069.84,662.3c-6,4.64-26.41,16-24.06,1.4,1.87-3.2,3.63-6.26,5.32-8.73a58.25,58.25,0,0,0,4.49-7.88c0.71-1.49,2.31-4.86,2.9-6.39"/><path class="cls-17" d="M1081.37,660.21c-1.59,5.61-4.15,11.71-4.28,18.76-0.28,0-2.13,0-2.4,0-1-4.44-1.4-8.93-3-13.16a7.54,7.54,0,0,0-4.33,2.56l0,0a52,52,0,0,0,2.48-6.05l0.41-1.2a131.06,131.06,0,0,0,4.59-21c0-.15.05-0.29,0.07-0.44l0.53,0.09a18.89,18.89,0,0,1,6.34,8.11C1083.23,651.84,1082.59,655.87,1081.37,660.21Z"/><path class="cls-13" d="M1117.11,343c-0.89-7-3.42-14.5-6.34-21.94l0.37-1.93c3.43-8.21-.55-20.53-7.16-26-4-3.24-8.5-5.25-13.76-4.51-3.29.47-12.9,7.37-11.9,9l3.6,40.3c0.74,7,2.4,11.13,5.35,17,6.64-1.24,18.54-4.43,25.06-7.16,1.68-.46,5.35-1.49,4.77-4.77"/><path class="cls-18" d="M1088,355c2.1,4.16,1,8.45,3.49,11.94-3-.29-5.4-0.41-8.11-0.55-13.44-.66-26.46-1.76-39.66-3-7.9-.74-23.83-0.45-27.35,9.14v1.14c-5.22,2.93-8.73,6.11-14.4,8.18a9.82,9.82,0,0,0,5.38,1.21c3.3,0,7.41.58,10.73,0.58a19,19,0,0,0,4.77-.61,1.38,1.38,0,0,0,1.19,1.21c4.58,0.54,10.79-1.53,15.18-4.78,5.78-4.27,8.09-3.84,15.55-2.4,11.67,2.26,22.65,8.14,34.61,9,3.86,0.27,17,2.37,17.6,1.78,0,0,10.17-13.89,4.18-44.16,0,0-5.44,1-13.43,6.56-6.82,4.78-10.44,4.78-10.44,4.78"/><path class="cls-7" d="M1003.13,381.81c5.36-2.68,10.29-6.62,15.51-9.55,4.23-2.37,8.75-4.58,12.53-7.76"/><path class="cls-7" d="M1001.94,381.81a9.82,9.82,0,0,0,5.38,1.21c1.61-.22,3.38-0.85,5.06-1.26s3.37-1.85,5.06-2.48a20.75,20.75,0,0,0,3.12-1c1.33-.74,2.38-2.08,4.06-1.83"/><path class="cls-7" d="M1008.5,383c3.3,0,6.23.6,9.55,0.6a19,19,0,0,0,4.77-.61c1.74-.41,4.75-0.94,6-2.37"/><path class="cls-7" d="M1016.34,372.49c3.52-9.6,19.45-9.89,27.35-9.14,13.2,1.24,26.23,2.35,39.66,3,6,0.29,13.27,1.58,19.45,1.14"/><path class="cls-7" d="M1083.7,298.86c-1.12,13.43-3.19,25.53-1.77,39.11,0.74,7,2.56,9.92,5.51,15.78,2.1,4.16,1.57,9.66,4,13.15"/><path class="cls-7" d="M1087.28,355c6.64-1.24,13.16-7.27,19.69-10,1.61-.67,7.24-3.18,8.83-1.82,2.35,2-1.78,4.19-3.46,4.65"/><path class="cls-7" d="M1111.15,343.62c3.44,11.87,2.56,33.51-4.18,44.16"/><path class="cls-7" d="M1024,384.2c4.54,0.8,10.79-1.53,15.18-4.78,5.78-4.27,8.09-3.84,15.55-2.4,11.67,2.26,22.65,8.14,34.61,9,3.86,0.27,17,2.37,17.6,1.78"/><path class="cls-7" d="M1078.32,297.67c-1-1.61,8.61-8.52,11.9-9,5.25-.75,9.8,1.26,13.76,4.51,6.61,5.42,10.59,17.75,7.16,26"/><path class="cls-7" d="M1102.2,299.46c4.83,13.75,13.14,29.54,14.92,43.56"/><path class="cls-19" d="M1001.94,381.22h-5.37l-10.14-9.55c5.28-2.2,24.88-1.72,29.91.82v1.14l-13.2,8.18c-1.79,0-4.77-.6-6.56-0.6"/><path class="cls-7" d="M1083.7,298.86c-1.12,13.43-3.19,25.53-1.77,39.11,0.74,7,2.56,9.92,5.51,15.78,2.1,4.16,1.57,9.66,4,13.15"/><path class="cls-7" d="M1087.28,355c6.64-1.24,13.16-7.27,19.69-10,1.61-.67,7.24-3.18,8.83-1.82,2.35,2-1.78,4.19-3.46,4.65"/><path class="cls-7" d="M1111.15,319.15c3.43-8.21-.55-20.53-7.16-26-4-3.24-8.5-5.25-13.76-4.51-3.29.47-12.9,7.37-11.9,9"/><path class="cls-7" d="M1102.2,299.46c4.83,13.75,13.14,29.54,14.92,43.56"/><path class="cls-7" d="M1083.7,298.86c-1.12,13.43-3.19,25.53-1.77,39.11,0.74,7,2.56,9.92,5.51,15.78,2.1,4.16,1.57,9.66,4,13.15"/><path class="cls-7" d="M1078.32,297.67c-1-1.61,8.61-8.52,11.9-9,5.25-.75,9.8,1.26,13.76,4.51,6.61,5.42,10.59,17.75,7.16,26"/><path class="cls-7" d="M1102.2,299.46c4.83,13.75,13.14,29.54,14.92,43.56"/><path class="cls-20" d="M985.83,371.07c-1.35,2.09-.81,7.67-1.1,11.25,3.15-.27,7.07-1.65,10.43-1a1.2,1.2,0,0,0,1.46-1.08C997,373,993.57,370.41,985.83,371.07Z"/><ellipse class="cls-11" cx="1037.99" cy="257.28" rx="1.34" ry="1.79"/><path class="cls-7" d="M1038.12,269.28c2.33-.44,5-0.27,7-1.73"/></svg>