<svg xmlns="http://www.w3.org/2000/svg" xmlns:xlink="http://www.w3.org/1999/xlink" viewBox="0 0 1525 965.05"><defs><style>.cls-1{fill:#fff;}.cls-2{fill:#dcc2a1;}.cls-2,.cls-4{stroke:#333;stroke-linecap:round;stroke-linejoin:round;stroke-width:2px;}.cls-3{fill:#966d38;opacity:0.2;}.cls-4{fill:none;}.cls-5{fill:#acb3b9;}.cls-6{fill:#71939b;}.cls-7{fill:#4a868b;}.cls-8{fill:#3e4534;}.cls-9{fill:#dfe0e2;}.cls-10{fill:#e6e7eb;}.cls-11{fill:#d9dddc;}.cls-12{fill:#b0b1b3;}.cls-13{fill:#9aa49c;}.cls-14{fill:#4f6c70;}.cls-15{fill:#e3e5e2;}.cls-16{fill:#a6b0a8;}.cls-17{fill:#779196;}.cls-18{fill:#233d42;}</style><symbol id="New_Symbol" data-name="New Symbol" viewBox="0 0 4 4"><circle cx="2" cy="2" r="2"/></symbol></defs><title>hero-define</title><g id="Layer_2" data-name="Layer 2"><g id="hero-define"><rect class="cls-1" y="45.05" width="1525" height="920"/><path class="cls-2" d="M680.14,174.29s-19.5,1.8-25.13,3.19c-3.78.93-7.57,2-11.39,2.68-6.14,1.17-11.17,3.52-17.08,5.22-3.79,1.09-7.65,1.66-11.37,3-4.82,1.75-9,4.57-13.7,6.47s-8.94,1.48-13,4.58c-5.27,4-9.52,5.42-15.51,8.29a134.88,134.88,0,0,0-12.44,6.68c-3.64,2.26-6.23,5.67-9.54,8.38-8.15,6.65-17.84,11.32-24.91,19.3-3.36,3.79-7.63,5.42-11.12,9-2.76,2.82-4.75,5.31-8,7.71-7.78,5.83-13.12,14.52-18.34,22.54-4.63,7.13-9.84,13.58-13.34,21.38-1.92,4.29-4.75,7.95-7,12-2.73,4.94-4.47,10.44-7.15,15.46-4.77,8.94-7.81,17.86-11.9,27a137.25,137.25,0,0,0-8.63,26c-1.85,8.63-6,16.26-6.36,25-.18,4.93-1.5,9.52-1.62,14.45-.12,5.16.06,10.35.06,15.51q0,12.66,0,25.33c0,9.63.16,19.95,1.84,29.43.6,3.4,2.09,6.58,2.63,10,.5,3.23.07,6.43.22,9.66.19,4.1,1.64,8.16,2.4,12.19a77.81,77.81,0,0,0,4,13.25c1.61,4.31,2.19,8.89,4,13.11,1.66,3.8,3.44,7.15,4.27,11.28.79,3.91.83,8.07,2.21,11.82,2.47,6.73,6,12.84,8.71,19.36,2,4.71,6,10.49,9.33,14.45,5,6,10.35,11.9,16,17.43,3,3,4.85,6.51,7.72,9.49,2.59,2.69,6.28,5.12,9.27,7.31a48.28,48.28,0,0,1,6.46,6c3.66,3.75,8.5,5.8,12.38,9.18,3.53,3.07,5.24,7.59,9.1,10.41,3,2.2,5.63,4,8.47,6.42,3.45,3,7.41,5.2,10.87,8.18,4.63,4,8.08,6.56,13.78,8.92,7.55,3.13,15.95,6.9,24,7.81,8.63,1,17.83,6,25.85,9.37,9.18,3.9,18,5.55,27.77,7.18,8.82,1.47,18.75,3.69,27.65,4,15.92.56,32-.06,47.93-.06,7.59,0,15.41.54,23,.06,3.3-.21,6.3-1.53,9.63-1.72,4.85-.28,9.92.73,14.72,0a48.58,48.58,0,0,0,9.41-3c4.58-1.76,8.85-2.22,13.6-3.12,3.32-.63,5.43-2.63,8.57-4,4.08-1.8,8.58-2.7,12.85-3.86a124.79,124.79,0,0,0,21.67-7.8c7.22-3.55,13.8-8.76,20.85-12.65,12.59-6.93,25.25-12.44,35.31-23,2.79-2.93,5.17-6.07,8.24-8.71,2.27-2,5.09-3.89,6.71-6.5,1.85-3,2-5.51,4.58-8.18a64.24,64.24,0,0,0,7.58-8.88C922,619.74,929.1,612.28,935,603.9c2-2.91,4.93-4.7,6.94-7.57,1.24-1.77,2-4.14,3-6.07,2.4-4.59,4.38-9.76,7.12-14a92.29,92.29,0,0,0,7.54-14.54c1.08-2.64,1.49-5.55,2.68-8.15,2.15-4.69,2.69-6.07,3.15-11.29s4.07-9.72,4.77-14.93,3.09-10.39,3.19-15.77c.09-4.75,1.34-8.75,1.56-13.28.25-5.25,0-10.58,0-15.84s.91-11.24.08-16.29c-1.1-6.69-3.38-13.29-3.23-20.35.13-6.33-2.23-12-3-18.27-.72-5.68.72-11.68-.08-17.34-.3-2.1-1.31-3.67-1.72-5.73-.5-2.51.45-5.37.16-7.92s-1.77-4.71-2.5-7.15c-.82-2.74-.45-5.3-1-8.14-2.37-11.4-7.91-21.26-11.91-32-1.8-4.83-4-9.43-5.89-14.15-1.19-3-2.24-3.88-4-6.26-2-2.65-2.66-6.45-3.83-9.5-1.32-3.44-3.55-5.18-5.71-8-1.86-2.43-2-4.65-3.26-7.33-1.63-3.34-4.84-5.9-6.79-9.06-1.73-2.82-3.24-5.57-5.6-8a99.43,99.43,0,0,0-12.25-10.24c-2.19-1.64-4.51-3-6.66-4.61-2.6-2-4-5.08-6.3-7.26a59.33,59.33,0,0,1-6.3-6.69c-1.71-2.1-3.58-2.72-5.52-4.32-2.38-2-3.28-4.95-5.44-7.1-2.66-2.67-6.06-4.21-8.63-7.07-1.19-1.32-2.49-2.45-3.64-3.8a41.93,41.93,0,0,0-7.21-6.39c-5.13-4-9.8-7.57-15.2-11-4.25-2.72-9.82-4.8-14.62-6.7-5.29-2.08-9.93-4.37-15.11-6.35-2.58-1-4.15-2.89-6.53-4-2.2-1-4.9-.86-7.23-1.87a127.48,127.48,0,0,1-11.88-5.67c-3-1.7-5-2.93-8.51-3.61-3.35-.65-5.72-1.85-8.83-3-4.11-1.57-8.28-3.08-12.41-4.6-4.39-1.62-8.92-3.08-13.4-4.38-6-1.73-12.3-1.54-18.18-3.15-9.52-2.61-21.69-.79-31.58-.79-3.66,0-7.33.05-11,0"/><path class="cls-3" d="M879.23,263.85c-1.78,0-3.09,1.83-4.31,2.93-2.78,2.51-5.44,4.35-6.77,7.9-2.8,7.48-3.15,16.54-3.11,24.4,0,8.1,0,16.2,0,24.31,0,4.11-.38,8.39.1,12.46.45,3.79,1.12,7.18,1.09,11.06-.06,7-1.06,15,.25,21.92,2.17,11.42-.19,23.3.86,34.89.22,2.4,1.18,4.53,1.29,7s0,4.67,0,7q0,8.18,0,16.36c0,3.83.44,7.95,0,11.75a22.25,22.25,0,0,1-1.55,5.24c-.81,2.34-1,4.77-1.75,7.14a68.23,68.23,0,0,1-4.1,11.05,43.23,43.23,0,0,1-8,11.06c-3,3.06-5.25,6.42-8.51,9.3-3.8,3.36-8.24,7.59-11,11.87a93.75,93.75,0,0,0-7,12.64c-2.37,5.43-5.46,10.47-8.39,15.67-3.07,5.46-6.89,10.21-9.72,15.8-3.49,6.89-9.27,12.15-13.68,18.42a108.63,108.63,0,0,1-12.56,14.54c-6.06,6.08-13.22,10.33-19.69,15.8a173.7,173.7,0,0,1-16.58,12.33c-6.88,4.53-14,10.16-21.91,12.7-7.48,2.39-13.61,7.73-21.12,10.22-6.63,2.19-13.19,3.43-19.56,6.33-4.32,2-8.91,2.28-13.56,2.35a41.06,41.06,0,0,0-13.06,2.57c-10.41,3.47-20.23,4.94-31,6.21-8.2,1-16.37,0-24.55.67-8.68.74-17.36,1.06-26,2.14s-17.68-1.13-26,1c-5.49,1.42-11.7-.69-14.34,5.41-.79,1.82-2.12,5.31-.85,7.45,1.89,3.16,8.3,4.11,11,6.8,1.46,1.47,2.17,4.12,4.17,5a17,17,0,0,0,2.42.27,9.85,9.85,0,0,1,3.07,1.65c4.21,2.68,10.1,4.44,14.77,6.48,5.22,2.28,9.35,6.15,14.78,7.92,6.06,2,11.61,4.51,18,5.79,6.09,1.23,11.88,3.65,18,4.74,2.92.52,5.72-.09,8.57.87,3.34,1.13,5.61,2.58,9.19,3,6.61.8,12.94,2.82,19.54,3.5,7.19.74,14.4,2.44,21.52,3.67s14.15.88,21.36.88c3,0,6,0,9,0,4.53,0,8.66-1,13.12-1.25a74.77,74.77,0,0,0,9.08-.52c3.32-.56,6.74-.12,10-.75,3.77-.72,7-2.76,10.87-3.25a103,103,0,0,0,11.06-1.94c6.48-1.56,12.89-3.35,19.29-5.13s13-2.53,19.41-4.42c6.1-1.81,12.92-2.41,18.74-4.94,7.19-3.13,14.31-6.28,21.54-9.48,2.55-1.13,5-1.79,7.39-3.33,2.82-1.82,5.4-4,8.15-5.93,5.68-4,11.44-7.54,17-11.7,2.63-2,5.81-3.52,8.2-5.79s4.3-4.9,7-7.06c6.34-5.07,12.19-10.42,16.65-17.28,3.28-5,6.35-9.91,10.05-14.65,2.16-2.76,4.67-5.15,6.85-7.9,1.91-2.41,3-5.3,5.46-7.29,4.9-4,7.92-9.1,11.26-14.52,3.59-5.82,7.82-11,11.45-16.76,3.15-5,4.74-10.49,7.53-15.69,3-5.58,3.85-10.88,4.7-17.1.75-5.5,1.81-10.91,2.46-16.39.32-2.71.9-5.19,1.08-7.93.15-2.22,1-4.14,1.24-6.35,1-9.82-1.64-20.26,0-30,1.77-10.26,1.08-21,1.08-31.52,0-5.48.51-11.22-.1-16.64-.73-6.41-3-12.1-4.33-18.33-1.24-5.72-3.46-10.55-5.28-16-2-6.14-3.94-11.62-7.33-17-1.59-2.56-1.85-5.2-3-7.91-1.27-3-2.68-5.75-3.87-8.8-.8-2.06-2.22-3.76-3.05-5.79-1.19-2.9-1.15-6.12-2-9.1a49.1,49.1,0,0,0-3.06-7.08c-.86-1.91-.91-3.94-1.77-5.79-1-2-2.81-3.46-3.82-5.53s-1.55-4.22-2.86-6.14-3.06-3.48-4-5.87-1.26-4.69-2-7c-.77-2.59-2.28-4.35-3.8-6.48s-2.78-4.93-4.24-7.3a56.64,56.64,0,0,0-18.22-17.81c-2.2-1.33-4.55-2.67-6.75-4.08-1.18-.76-2.22-2.09-3.37-2.71-2-1.06-3.18-.41-4.76-2.57Z"/><use width="4" height="4" transform="translate(53.41)" xlink:href="#New_Symbol"/><use width="4" height="4" transform="translate(178.43 28.41)" xlink:href="#New_Symbol"/><use width="4" height="4" transform="translate(441.61 81.44)" xlink:href="#New_Symbol"/><use width="4" height="4" transform="translate(306.61 200.4)" xlink:href="#New_Symbol"/><use width="4" height="4" transform="translate(201.21 356.36)" xlink:href="#New_Symbol"/><use width="4" height="4" transform="translate(232.77 631.32)" xlink:href="#New_Symbol"/><use width="4" height="4" transform="translate(346.96 848.24)" xlink:href="#New_Symbol"/><use width="4" height="4" transform="translate(603.85 861.34)" xlink:href="#New_Symbol"/><use width="4" height="4" transform="translate(918.56 865.8)" xlink:href="#New_Symbol"/><use width="4" height="4" transform="translate(1180.85 783.12)" xlink:href="#New_Symbol"/><use width="4" height="4" transform="translate(1293.8 463.38)" xlink:href="#New_Symbol"/><use width="4" height="4" transform="translate(1251.57 162.7)" xlink:href="#New_Symbol"/><use width="4" height="4" transform="translate(776.24 111.72)" xlink:href="#New_Symbol"/><use width="4" height="4" transform="translate(640.96 68.86)" xlink:href="#New_Symbol"/><use width="4" height="4" transform="translate(630.64 62.63)" xlink:href="#New_Symbol"/><use width="4" height="4" transform="translate(1050.51 16.83)" xlink:href="#New_Symbol"/><use width="4" height="4" transform="translate(1119.32 210.77)" xlink:href="#New_Symbol"/><use width="4" height="4" transform="translate(1323.93 263.31)" xlink:href="#New_Symbol"/><use width="4" height="4" transform="translate(1414.57 85.94)" xlink:href="#New_Symbol"/><use width="4" height="4" transform="translate(1316.49 58.3)" xlink:href="#New_Symbol"/><use width="4" height="4" transform="translate(1307.42 104.13)" xlink:href="#New_Symbol"/><use width="4" height="4" transform="translate(1380.1 298.01)" xlink:href="#New_Symbol"/><use width="4" height="4" transform="translate(1429.39 636.18)" xlink:href="#New_Symbol"/><use width="4" height="4" transform="translate(1411.26 840.35)" xlink:href="#New_Symbol"/><use width="4" height="4" transform="translate(1257.83 894.71)" xlink:href="#New_Symbol"/><use width="4" height="4" transform="translate(1248.95 804.21)" xlink:href="#New_Symbol"/><use width="4" height="4" transform="translate(1230.51 546.09)" xlink:href="#New_Symbol"/><use width="4" height="4" transform="translate(1153.87 353.67)" xlink:href="#New_Symbol"/><use width="4" height="4" transform="translate(1343.74 398.66)" xlink:href="#New_Symbol"/><use width="4" height="4" transform="translate(1390.3 548.91)" xlink:href="#New_Symbol"/><use width="4" height="4" transform="translate(296.23 566.6)" xlink:href="#New_Symbol"/><use width="4" height="4" transform="translate(139.08 572.76)" xlink:href="#New_Symbol"/><use width="4" height="4" transform="translate(178.3 698.98)" xlink:href="#New_Symbol"/><use width="4" height="4" transform="translate(321.55 753.06)" xlink:href="#New_Symbol"/><use width="4" height="4" transform="translate(210.12 804.65)" xlink:href="#New_Symbol"/><use width="4" height="4" transform="translate(87.79 882.83)" xlink:href="#New_Symbol"/><use width="4" height="4" transform="translate(212.99 914.59)" xlink:href="#New_Symbol"/><use width="4" height="4" transform="translate(444.7 917.32)" xlink:href="#New_Symbol"/><use width="4" height="4" transform="translate(423.96 784.6)" xlink:href="#New_Symbol"/><use width="4" height="4" transform="translate(147.95 774.48)" xlink:href="#New_Symbol"/><use width="4" height="4" transform="translate(75.44 730.64)" xlink:href="#New_Symbol"/><use width="4" height="4" transform="translate(59.04 523.21)" xlink:href="#New_Symbol"/><use width="4" height="4" transform="translate(57.6 275.41)" xlink:href="#New_Symbol"/><use width="4" height="4" transform="translate(60.52 124.95)" xlink:href="#New_Symbol"/><use width="4" height="4" transform="translate(119.8 132.49)" xlink:href="#New_Symbol"/><use width="4" height="4" transform="translate(149.86 249.79)" xlink:href="#New_Symbol"/><use width="4" height="4" transform="translate(119.42 409.07)" xlink:href="#New_Symbol"/><use width="4" height="4" transform="translate(231.39 446.61)" xlink:href="#New_Symbol"/><use width="4" height="4" transform="translate(255.24 123.47)" xlink:href="#New_Symbol"/><use width="4" height="4" transform="translate(300.45 38.99)" xlink:href="#New_Symbol"/><path class="cls-4" d="M727.43,396.53c-9.36.08-21,3.62-24.49,13.4-1.1,3.08-2,11.66-.42,14.66,2.09,3.84,4.85,5.29,8.76,7,2.11.93,3.61.64,6,1.13,2.51.52,3.4,1.48,6.23,1.65a18.11,18.11,0,0,0,4,.07c1.09-.26,1.42-1.35,2.41-1.53,2.3-.41,3.74-.2,5.74-1.25,3-1.57,4.24-4.09,6.39-6.45,1.54-1.7,3.53-2.63,4.77-4.66s1.27-3.49,1.12-5.92c-.17-2.75-1.75-4.21-1.89-6.77l-2.55-.61c-.09-4.19-5.18-6-7.83-7.93-1.37-1-1.73-2.31-3.42-2.87-2.45-.82-4.47.66-6.39,1.65"/><path class="cls-4" d="M558.8,337.45c-13.65,3.7-11.27,10.5-6.29,19.73,3.94,7.28,5.88,12.31,15,6.68,12.71-7.89,5.08-29.77-10.25-25.62"/><path class="cls-4" d="M521,462.76c-4,3.07-12.58,3.2-16.18,7.45-3,3.54-3.91,12-4.31,16.55-1.18,13.42,2.93,16,12.81,22.32,6.69,4.29,17.41,6.69,22.59-.3,3.38-4.56,7.79-22.17,7.18-27.88-.87-8.08-15.51-23.73-23.66-16.57"/><path class="cls-4" d="M668.35,592c-3.14,5.9-25.53,2.19-21.16,14.18,1.87,5.13,21.49,12.09,26.38,11,11.47-2.49,13-12.26,8.36-20.48-2.15-3.82-1.66-7.46-7.27-7.88-4.29-.32-6.67,1.87-7.09,5.51"/><path class="cls-4" d="M861.44,470.65c-5.73,5.07-15.37,5.7-19.09,12.59-4,7.36.73,14.2,9.24,11.47,7.66-2.45,23.06-20.41,9.85-24.07"/><path class="cls-4" d="M862.23,393.41c-5-.39-11,3.62-11.08,8.88-.09,4.07,4.78,7.51,6.19,11.61,1.49,4.32-2.33,6.55,3.29,10.24,4,2.6,6.54,1.84,9.28-1,8.11-8.3,2.64-30.52-9.47-29.73"/><path class="cls-4" d="M791.82,259.17c-2.24-1.21-5.89.08-8.34,1.57s-3.71,1.84-4.53,4.74c-.61,2.18,1.32,4.7.89,6.22-.74,2.6-3.5,4.18-4.31,6.93a24.26,24.26,0,0,0-.53,6.43c.61,9.88,7,13.78,13.79,19.31,3.63,2.94,8.74,7.64,12.47,8.93,4.61,1.6,12.3,3,17.1.95,3.07-1.32,2.94-2.86,4.41-4.63,1.15-1.38,3.13-2.84,3.94-4.36,1.3-2.45.22-3.18.59-4.88.17-.8-.27-1.58.19-3.06.57-1.87,3.34-3.55,4-5.69a13.8,13.8,0,0,0,.16-6.19c-.5-2-2.24-3.68-3.29-5-.59-.75-2.23-.12-2.9-1.05s.79-3.47-.06-4.36c-1-1.06-10.36-4.72-11.36-4.32-3.83-4.3-6.39-5.41-11.19-8.42-.47.58-1.64,1.1-2.11,1.68-3.48-1.3-5.29-6-9.46-5.31"/><path class="cls-5" d="M887.25,663.64l.26,1c-1.2.56-2,1.83-3.11,2.57a31.55,31.55,0,0,0-4.16,3.83c-2.09,2-1.93,1.13-2.65-1.35a33.73,33.73,0,0,0-1.77-3.83c1-.11,1.93-.87,2.91-1.16,1.21-.36,2.56-.39,3.7-.66s2.28-.05,3.34-.3c.64-.15,1.71-1.47,1.91-.19Z"/><path class="cls-6" d="M953.75,683.51a28.78,28.78,0,0,1,0,3.94h0c-.69.83-1.76,1.3-2.48,2.12s-1.13,1.8-1.75,2.65-1.42,1.41-2,2.19a38.47,38.47,0,0,1-3,3.54,6,6,0,0,1-.76.62c-.26-2-.63-2.92-1-5.06-.17-1.13-.33-2.38-.61-3.5-.74-3-1.86-5.85-2.38-8.89a10.46,10.46,0,0,0-1.35-3l.2-.11s9.21-5.65,12.67-7.92c.24,1.2.35,2.32.58,3.54.27,1.46.74,2.93.92,4.42,0,.47-.15,1-.06,1.46s.47.95.56,1.5,0,.91.08,1.39A7.93,7.93,0,0,1,953.75,683.51Z"/><path class="cls-7" d="M967.24,671.31c-.84.89-1.67,1.8-2.48,2.72h0c0-1.88.38-2.89,0-4.75a34.94,34.94,0,0,1-1-5,10.23,10.23,0,0,0-.34-3.15l-.06-.14,1.72-1.41c2.76-2.28,5.2-4.81,8-6.92.25,3.41.19,6.86.19,10.38v.33l.58.25c-.38.42-.76.85-1.11,1.32-1,1.29-2.22,2.35-3.14,3.61-.33.45-.45,1.11-.81,1.53S967.68,670.85,967.24,671.31Z"/><path class="cls-8" d="M889.74,664.35a9.68,9.68,0,0,1,3.28.49,2.31,2.31,0,0,0,.44,1.46c.2.24,1,.4,1.28.69.52.45.79,1.16,1.31,1.63.88.8,2.78,2,1.57,3.62a9.07,9.07,0,0,1-1.4.59c-.37.22-.78.62-1.15.85-1,.65-2.23.91-3.35,1.51-.78.42-1.74,1.64-2.51,1.76-.57-1.2.41-1.6.42-2.56,0-.3-.52-1.27-.58-1.7a11.66,11.66,0,0,1,0-1.67c0-1.11,0-2.22,0-3.33a5.74,5.74,0,0,1,0-1.37c.1-.4.66-.69.67-1a7.76,7.76,0,0,0-.18-.87Z"/><path class="cls-9" d="M827.86,633.51c1.48-.55,2.76-1.5,4.31-1.9A25.38,25.38,0,0,0,837,629.9a47.11,47.11,0,0,1,4.86-1.86c4.47-1.67,9.26-2.38,13.51-4.54,1.22-.62,2.32-.37,3.61-.58s2.43-.62,3.63-.9c2.57-.58,5-.87,7.43-2s5.16-1.46,7.76-2.37c1.17-.4,2.23-1,3.44-1.27s2.69-.37,4-.71c1.8-.46,3.55-.73,5.34-1.14,2.28-.53,4.34-1.28,6.62-1.6a16.73,16.73,0,0,0,3.1-1.16l.23-.08.25-.07c.69-.16,1.35-.07,2.06-.2,1.55-.28,2.67-.91,4.28-.89a17.91,17.91,0,0,0,3.1-.51,16.91,16.91,0,0,0,2-.1c.63-.16,1.31-.47,2-.66l.09-.35c.08-.25.48-.45.85-.6l.1.22a10.59,10.59,0,0,0,1.27,2.72,6.42,6.42,0,0,1,.26,2,16.06,16.06,0,0,0,1,2.78c.5,1.4,1.61,2.48,1.94,4s1.25,2.79,1.81,4.33,1,3.4,1.51,5c.34,1.05.3,2,.73,3s.63,1.92,1,2.89a16.87,16.87,0,0,1,1,2.23c.16.81-.12,1.64,0,2.45.22,1,.86,2,1.12,3s.51,2.16.87,3.22c1,3,2.23,6,2.93,9.09.78,3.42,2.48,6.3,3.43,9.73.82,2.9,1.69,5.78,2.76,8.58.48,1.28.69,2.65,1.23,3.89.09.21.19.41.3.61a10.46,10.46,0,0,1,1.35,3c.52,3,1.64,5.94,2.38,8.89.28,1.12.44,2.37.61,3.5.32,2.14.69,3,1,5.06a3.79,3.79,0,0,0-1,.94,8.73,8.73,0,0,0-3.53,1,27.37,27.37,0,0,1-4.45,1.5l-1,.26c-3.81,1-7.66,2-11.5,2.8-2,.41-3.62,1.39-5.67,1.42s-3.44,1.38-5.33,1.52-3.74,1.46-5.77,1.52a20.93,20.93,0,0,0-5,.61c-2,.51-3.85,1.2-5.81,1.88s-3.93.83-5.81,1.48c-3.84,1.31-7.69,2.17-11.53,3.51-3.47,1.21-6.89,2.47-10.58,2.49-2.24,0-4.26,1.31-6.46,1.78-1.76.37-3.66.58-5.36,1.09s-3.06.47-4.65.87a15,15,0,0,0-2.67,1.29,6.35,6.35,0,0,1-2.5.47c-2,.17-3.85,1.24-5.87,1.47-1.16.14-2.37-.19-3.47.33a3.12,3.12,0,0,0,.34-.59l-.49-.24a9.21,9.21,0,0,0,.12-3.19,27.69,27.69,0,0,0-.88-4.76,66.59,66.59,0,0,1-2.14-9.3c-.23-1.64-.76-3.26-1-4.91a24.06,24.06,0,0,0-.14-2.68c-.2-.9-.72-1.7-.86-2.62-.52-3.44-1.57-6.81-2.08-10.26-.46-3-2.31-6-3-9-.61-2.8-1.68-5.36-2.38-8.16s-1.5-5.69-2.11-8.61-2.35-5.61-3-8.51c-.17-.77-.68-1.35-.9-2.1a12.12,12.12,0,0,0-.6-2.08c-.7-1.42-1.33-2.92-2-4.34a34.32,34.32,0,0,0-1.61-3.36,4,4,0,0,1-.9-1.59,8.7,8.7,0,0,0-.48-1.45,10.57,10.57,0,0,1-.5-1.51l.07-.49c.66-.17,1.27-.94,1.92-1a20.25,20.25,0,0,1,3.1-.52,14.4,14.4,0,0,0,3.58-.65,33.07,33.07,0,0,1,3.44-.47,24.35,24.35,0,0,0,4.33-.83Zm39.21,56.18.15.59a33.08,33.08,0,0,1,3.84-1.8c1.11-.32,2.17-.06,3.28-.52a15.6,15.6,0,0,1,3.21-1.1c3.92-.81,7.63-1.83,11.56-2.59,2.65-.51,5.2-.81,7.83-1.44,2.06-.48,4-1.27,6.12-1.64S916.43,678,917.2,678l.19-.7c-.64-3-.74-6-1.65-9v-.66c0-1.85-1.12-3-1.72-4.69-.43-1.19-.08-2-.24-3.16a24.84,24.84,0,0,0-2.21-6.3c-.86-2-2.44-4.43-3-6.54a8.49,8.49,0,0,0-.61-2.14c-.46-.86-2.06-1.93-1.86-3l-.33-.16.28-.39c-1.55.44-3.23.11-4.61.77a17.36,17.36,0,0,1-3.64,1.6,44.43,44.43,0,0,0-4.83,1.53c-1.84.69-3.77.67-5.67,1.32s-4.1,1.28-6.13,2c-1.57.53-3,1.33-4.57,1.9s-3.13.69-4.65,1.28c-3.05,1.19-6.22,2-9.37,2.88-1.24.36-2.88.42-3.8,1.15h-1c.24,6.86,4.27,12.92,5.26,19.66a18.3,18.3,0,0,0,.73,4.08,11.79,11.79,0,0,1,.65,4.24c0,2.33,1,4.39,1.52,6.62.4.09.56-.11.5-.61Z"/><path class="cls-10" d="M989,622.72a14.26,14.26,0,0,1-2.39.63l-.85.2c-.11-.5-.24-1-.39-1.45-.36-1.13-.9-2.23-1.18-3.39-.35-1.4-.46-2.87-.81-4.27-.18-.72-.52-1.35-.73-2.06-.28-.89-.28-1.84-.54-2.75-.34-1.23-.8-2.4-1.07-3.66-.55-2.51-1.14-5-1.9-7.52a4.81,4.81,0,0,1,1.05-.44c1-.18,2-.36,3-.57,3.8-.8,7.51-2,11.36-2.5a59.41,59.41,0,0,0,6.67-1.39,16.83,16.83,0,0,1,1.42,2.79,18.58,18.58,0,0,1,.54,2.65,30,30,0,0,0,1.15,3.26c.73,2.47,1,5,1.61,7.43.22,1,1,1.77,1.22,2.64.12.55-.16,1.17-.06,1.73s.47.81.54,1.12c.14.63.19,1.11.29,1.58a118.22,118.22,0,0,1-16.45,4.92A12,12,0,0,0,989,622.72Z"/><path class="cls-9" d="M781,668.77a33.13,33.13,0,0,0,6.77.25c1.29,0,2.66-.11,4-.12V669c-.15.61.25,1,.49,1.46a15.19,15.19,0,0,1,1.05,3.5c.28,1.16,1.14,2,1.48,3.14s.61,2.29,1,3.43a42.82,42.82,0,0,1,1.49,8,28.29,28.29,0,0,0,.63,2.84c.27,1.17.2,2.31.42,3.46a25.52,25.52,0,0,1,.46,4.94,9.15,9.15,0,0,0,0,2,5.28,5.28,0,0,1,.46,1.79c0,2.81,0,5.63,0,8.44l-9,5.33-.45-.77c0-1.5,0-3,0-4.5,0-2-.79-3.57-1-5.49-.26-2.09.17-4-.48-6-.29-.95-.34-1.93-.61-2.87a13.9,13.9,0,0,1-.92-2.68c-.14-1.59.08-2.78-.46-4.32a24.94,24.94,0,0,1-1-3.35c-.27-1.36-.32-2.79-.6-4.14s-1.06-2.29-1.29-3.56l-.21-2.44a19.36,19.36,0,0,0-.79-2.13c-.38-1.18-.69-2.33-1.12-3.49-.34-.91-.21-1.69-.46-2.51-.17-.58-.7.21-.55-.41Z"/><path class="cls-11" d="M1071.72,570.8a2.51,2.51,0,0,1,.34,1.59c0,1.4.66,2.73.86,4.12a12.58,12.58,0,0,0,.68,3.86,7.24,7.24,0,0,1,.76,1.62c.12.57,0,1.12.11,1.7a7,7,0,0,0,1,2.26c.32.58.17.82.3,1.4a13.71,13.71,0,0,0,1.2,2.35,7.81,7.81,0,0,1,.49,3.32l.15,1.49a3.49,3.49,0,0,0-1,.25,33.67,33.67,0,0,1-3.94,1.18c-1.94.5-3.82,1.18-5.76,1.66-1,.25-1.77.74-2.72,1a26.53,26.53,0,0,0-3.53,1.17,9.7,9.7,0,0,1-3.51.91,8,8,0,0,0-3.26,1,7.06,7.06,0,0,1-2.46.64,29,29,0,0,0-2.9,1c-.71.17-1.82-.28-2,.72l-.26,0c-.06-.49,0-1-.13-1.45-.14-.72-.54-1.37-.75-2.07-.46-1.48-.3-3.05-.72-4.51a38,38,0,0,0-1.13-3.67,24,24,0,0,1-1.26-4.34c-.31-1.47-.84-2.84-1.16-4.32s-1-3.12-1.18-4.8a8.68,8.68,0,0,1-.41-2.2l0-.06a11.18,11.18,0,0,1,1.11-.38,3,3,0,0,1,.41-.09c.82-.18,1.65-.25,2.48-.47,3.06-.81,6.06-1.68,9.14-2.32,2.06-.43,4.06-.91,6.15-1.28.81-.15,1.57-.11,2.38-.31.36-.09.7-.17,1.05-.24a10.27,10.27,0,0,1,1.37-.19c.89-.06,1.73-.29,2.61-.34.59,0,1.19.07,1.78,0a6.58,6.58,0,0,0,1.07-.23Z"/><path class="cls-8" d="M893,664.84a9.68,9.68,0,0,0-3.28-.49l-.21.05a14.34,14.34,0,0,0-.49-1.65c-.47-.89-1.65-1.29-2.16-2.4-.43-.91-.91-1.67-1.32-2.48-.56-1.11-.38-1.08.18-2.18l.77.11c.8-.4,1.64.13,2.45-.08a6.41,6.41,0,0,0,1.44-.7c.79-.4,2.21-.45,2.72-1.08a61.53,61.53,0,0,0-.07,6.93c0,.61,0,1.22,0,1.82S893,664.12,893,664.84Z"/><path class="cls-7" d="M978.41,648.17a21.05,21.05,0,0,0,3.66-2.65h.18a8.5,8.5,0,0,0,.93,3.32,6.91,6.91,0,0,1,.56,1.68c.1.54.43,1.32.51,2l-.51,0c-.21.93-1.7,1.94-2.38,2.62a4.38,4.38,0,0,1-.39.36c-.41.33-.85.6-1.23,1-.57.54-.57,1.15-1,1.72-.28.36-.65.48-1,.8a28.76,28.76,0,0,0-2,2.53c-.63.73-1.29,1.38-1.93,2.08l-.58-.25V663c0-3.52.06-7-.19-10.38.44-.33.88-.65,1.34-1C976,650.61,976.72,649.06,978.41,648.17Z"/><path class="cls-11" d="M1001,593.39s0,0,0,0Zm-24-2.85c.46-.21.92-.35,1.4-.52a12.51,12.51,0,0,1,1.5-.33,26,26,0,0,1,2.87-.69c.91-.09,1.82.1,2.73,0,.74-.08,1.47-.19,2.21-.27,1.18-.12,2.13-.91,3.29-1a9.22,9.22,0,0,0,2.6-.32,29.8,29.8,0,0,1,5.76-1.44,50.53,50.53,0,0,0,6.27-1.71c.65-.2,1.3-.27,1.93-.51a23.44,23.44,0,0,1,2.39-1c.76-.19,1.58,0,2.36-.21,1-.21,2.05-.46,3.07-.72,1.63-.42,3.34-.45,5-.85a22.56,22.56,0,0,1,2.48-.65c.75-.11,1.4-.46,2.15-.59,1.52-.26,3.47-.15,4.83-.91a3.56,3.56,0,0,1,2.12-.45,11.85,11.85,0,0,0,2.42-.51,17.18,17.18,0,0,0,2-.59,6.85,6.85,0,0,1,1.63-.26,6.35,6.35,0,0,0,1.34-.37l0,.06a8.68,8.68,0,0,0,.41,2.2c.23,1.68.83,3.17,1.18,4.8s.85,2.85,1.16,4.32a24,24,0,0,0,1.26,4.34,38,38,0,0,1,1.13,3.67c.42,1.46.26,3,.72,4.51.21.7.61,1.35.75,2.07.09.48.07,1,.13,1.45a3,3,0,0,0,.11.64c.2.71.62,1.34.76,2.08s.07,1.42.2,2.12a9.26,9.26,0,0,0,.3,1.15,17.42,17.42,0,0,1,.82,2.66c.23,1.44.56,2.82.83,4.26.33,1.68.48,3.32.91,5a35.4,35.4,0,0,1,.92,4.56,12.26,12.26,0,0,0,.27,2.18,7.61,7.61,0,0,1,.48,1.92,12,12,0,0,0,.63,3.15,9,9,0,0,1,1,2.76c.08,1.07.49,2.09.62,3.16,0,.11,0,.22,0,.33l.34.33a.74.74,0,0,0,.33,0c0,2.69.84,5.13,1.26,7.74.15,1,.25,1.9.48,2.85.07.28.23.37.26.79a3.15,3.15,0,0,0,.6,2.2l0-.09a.86.86,0,0,0,.25.57l-.27.27a7.42,7.42,0,0,0-2.25.67,24,24,0,0,1-3.36.66c-.92.13-1.71.26-2.67.33a13.53,13.53,0,0,0-3.26.89l-.07-.22c-.1-1.2.34-2.33.33-3.53,0-.94,0-1.89,0-2.83a23.69,23.69,0,0,1,.26-4.61,10.55,10.55,0,0,0,.08-2l0-.34h.15c1.09-.06,2.13-.24,3.21-.32l.33-.33v-.33a11.11,11.11,0,0,0-.41-3.67,4.71,4.71,0,0,1-.24-1.05,13.79,13.79,0,0,0-.62-1.88c-.35-1.35-.47-2.8-.73-4.18s-.23-2.63-.57-3.89a9.88,9.88,0,0,1-.44-2,12.4,12.4,0,0,0,0-1.83,36.43,36.43,0,0,1-.94-3.77,13,13,0,0,0-.87-3,27.5,27.5,0,0,1-1.8-7.33,6,6,0,0,0-.32-2.21c-.17-.43-.33-.8-.46-1.21,0-.18-.1-.37-.14-.58a16.58,16.58,0,0,0-1.09-4.33c-.62-1.36-.37-3.07-.84-4.52a29.9,29.9,0,0,0-1.81-4.51,14.08,14.08,0,0,1-1.41-4.31l-.55.1c-.06-.32-.13-.63-.22-.95a6,6,0,0,1-.09-1.18h-.06a11.77,11.77,0,0,0-2,.66c-.33.2-.62.63-1,.78s-1-.09-1.57-.11c-1.78-.05-3.42.28-5.17.33a37.51,37.51,0,0,0-6.28,1,24.27,24.27,0,0,0-2.67.54,9.47,9.47,0,0,1-1.45.48,39.74,39.74,0,0,0-4.79.85c-2.53.71-5.06,1.16-7.57,1.89-.93.27-1.87.53-2.81.77a59.41,59.41,0,0,1-6.67,1.39c-3.85.53-7.56,1.7-11.36,2.5-1,.21-2,.39-3,.57a4.81,4.81,0,0,0-1.05.44c-.22-.7-.45-1.39-.69-2.08-.54-1.5-.7-3.23-1.34-4.66a4,4,0,0,1-.37-.85v0a1.94,1.94,0,0,1,.07-.33.37.37,0,0,1,.23-.13A.52.52,0,0,1,977.06,590.54Z"/><path class="cls-5" d="M889,666.32a5.74,5.74,0,0,0,0,1.37c0,1.11,0,2.22,0,3.33a11.66,11.66,0,0,0,0,1.67c.06.43.58,1.4.58,1.7,0,1-1,1.36-.42,2.56.77-.12,1.73-1.34,2.51-1.76,1.12-.6,2.32-.86,3.35-1.51.37-.23.78-.63,1.15-.85a9.07,9.07,0,0,0,1.4-.59c1.21-1.66-.69-2.82-1.57-3.62-.52-.47-.79-1.18-1.31-1.63-.33-.29-1.08-.45-1.28-.69a2.31,2.31,0,0,1-.44-1.46l.14,0c1.69.33,3.39,0,5.09.3,2.08.32,4.63,1,6.76.42-.36-1.68-.73-3.45-1.21-5-.26-.85.33-1.33-.69-1.66s-1.07.54-1.76.67c-1.73.34-3.35.09-5.09.56a24.57,24.57,0,0,1-3.21.68,61.53,61.53,0,0,1,.07-6.93c-.51.63-1.93.68-2.72,1.08a6.41,6.41,0,0,1-1.44.7c-.81.21-1.65-.32-2.45.08l-.77-.11c-.56,1.1-.74,1.07-.18,2.18.41.81.89,1.57,1.32,2.48.51,1.11,1.69,1.51,2.16,2.4a14.34,14.34,0,0,1,.49,1.65,7.76,7.76,0,0,1,.18.87C889.7,665.63,889.14,665.92,889,666.32Zm-21.82,24-.15-.59h-.66c.06.5-.1.7-.5.61-.48-2.23-1.48-4.29-1.52-6.62a11.79,11.79,0,0,0-.65-4.24,18.3,18.3,0,0,1-.73-4.08c-1-6.74-5-12.8-5.26-19.66h1c.92-.73,2.56-.79,3.8-1.15,3.15-.91,6.32-1.69,9.37-2.88,1.52-.59,3.12-.72,4.65-1.28s3-1.37,4.57-1.9c2-.69,4.1-1.27,6.13-2s3.83-.63,5.67-1.32a44.43,44.43,0,0,1,4.83-1.53,17.36,17.36,0,0,0,3.64-1.6c1.38-.66,3.06-.33,4.61-.77l-.28.39.33.16c-.2,1.08,1.4,2.15,1.86,3a8.49,8.49,0,0,1,.61,2.14c.59,2.11,2.17,4.51,3,6.54a24.84,24.84,0,0,1,2.21,6.3c.16,1.14-.19,2,.24,3.16.6,1.65,1.7,2.84,1.72,4.69v.66c.91,3,1,6,1.65,9l-.19.7c-.77,0-12,2.78-14.14,3.18s-4.06,1.16-6.12,1.64c-2.63.63-5.18.93-7.83,1.44-3.93.76-7.64,1.78-11.56,2.59a15.6,15.6,0,0,0-3.21,1.1c-1.11.46-2.17.2-3.28.52A33.08,33.08,0,0,0,867.22,690.28Zm20.29-25.66-.26-1,.43-.11c-.2-1.28-1.27,0-1.91.19-1.06.25-2.33.06-3.34.3s-2.49.3-3.7.66c-1,.29-1.92,1-2.91,1.16a33.73,33.73,0,0,1,1.77,3.83c.72,2.48.56,3.31,2.65,1.35a31.55,31.55,0,0,1,4.16-3.83C885.51,666.45,886.31,665.18,887.51,664.62Z"/><path class="cls-12" d="M1037.74,607a9.69,9.69,0,0,0-.3-2.15,14.84,14.84,0,0,1,0-2.83,55.25,55.25,0,0,0-.08-6.81c-.28-2.27-.12-4.53-.55-6.76l.55-.1a14.08,14.08,0,0,0,1.41,4.31,29.9,29.9,0,0,1,1.81,4.51c.47,1.45.22,3.16.84,4.52a16.58,16.58,0,0,1,1.09,4.33c0,.21.09.4.14.58l-.21.07a.63.63,0,0,1-.67-.19c-.35.38-1.16.15-1.65.25-.66.14-1.34.49-2,.69l-.67.19a2.53,2.53,0,0,1,0-.28Z"/><path class="cls-8" d="M903.11,659c1,.33.43.81.69,1.66.48,1.52.85,3.29,1.21,5-2.13.55-4.68-.1-6.76-.42-1.7-.27-3.4,0-5.09-.3l-.14,0c0-.72,0-1.52,0-2.15s0-1.21,0-1.82a24.57,24.57,0,0,0,3.21-.68c1.74-.47,3.36-.22,5.09-.56C902,659.5,902.14,658.64,903.11,659Z"/><path class="cls-9" d="M804.34,669.91a3.83,3.83,0,0,0,.9,0V670c-.13,1.11,1.29,3.06,1.59,4.27s1.13,1.78,1.62,2.78a26.85,26.85,0,0,1,.91,2.84,14.41,14.41,0,0,1,.78,2c.2.9,0,1.76.21,2.64a23.9,23.9,0,0,1,.89,4.23c.15,3,.5,5.73.5,8.74,0,1.35,0,2.69,0,4a31.52,31.52,0,0,1-.48,3.36q-6,3.52-12,7.08c0-2.81,0-5.63,0-8.44a5.28,5.28,0,0,0-.46-1.79,9.15,9.15,0,0,1,0-2,25.52,25.52,0,0,0-.46-4.94c-.22-1.15-.15-2.29-.42-3.46a28.29,28.29,0,0,1-.63-2.84,42.82,42.82,0,0,0-1.49-8c-.37-1.14-.64-2.28-1-3.43s-1.2-2-1.48-3.14a15.19,15.19,0,0,0-1.05-3.5c-.24-.47-.64-.85-.49-1.46v-.12a16.56,16.56,0,0,1,1.88.09,34.69,34.69,0,0,0,4.48.53c1.4,0,2.81-.07,4.2,0A12.28,12.28,0,0,1,804.34,669.91Z"/><path class="cls-6" d="M961.34,652.67c.22,1,.6,2,.9,3-3.4,2.44-7,4.59-10.44,6.95-.55.38-1.08.8-1.62,1.25a6.59,6.59,0,0,1-.47-1.82,16,16,0,0,0-.06-3,20.79,20.79,0,0,1-.92-3,34.39,34.39,0,0,0-1-5.91c-.51-1.7-1.16-3.35-1.63-5.11-.43-1.56-.92-3.12-1.37-4.67-.54-1.87-1.11-4-1.8-5.81-.39-1-1-2-1.42-3-.3-.82-.41-1.69-.76-2.5a46.62,46.62,0,0,0-2.66-6c-1.26-2-1.84-4.48-3-6.58-.52-.94-.85-1.2-.85-2.26a3.42,3.42,0,0,1,.57.07c1.85.39,3.54,1,5.42,1.37a7.71,7.71,0,0,1,3,.85c.42.3.55.76,1.06,1,.81.31,1.8-.1,2.63.11,1.22.31,2.16,1.36,3.31,1.88h0c.2.51.29,1.14.46,1.54a37.39,37.39,0,0,1,2.16,4.52c1,3.41,2.94,6.56,3.74,10,.71,3,2.19,5.86,2.78,8.9a18.85,18.85,0,0,0,1.38,4C961.36,649.82,961,651.2,961.34,652.67Z"/><path class="cls-9" d="M806.83,674.29c-.3-1.21-1.72-3.16-1.59-4.27V670a6.84,6.84,0,0,1,1.7,0c.67.16,1.07.39,1.76.52a32,32,0,0,0,5.54,0l2-.2a24.16,24.16,0,0,0,.64,3.85c.53,1.67.86,3.41,1.36,5.1.57,1.92,1.42,3.73,1.89,5.66.35,1.49.93,2.9,1.37,4.34.53,1.7.86,3.51,1.37,5.25a28.53,28.53,0,0,0,1.08,2.75,3.63,3.63,0,0,1,.22.86l-1.77.18-11.14,6.57a31.52,31.52,0,0,0,.48-3.36c0-1.34,0-2.68,0-4,0-3-.35-5.77-.5-8.74a23.9,23.9,0,0,0-.89-4.23c-.2-.88,0-1.74-.21-2.64a14.41,14.41,0,0,0-.78-2,26.85,26.85,0,0,0-.91-2.84C808,676.07,807.1,675.44,806.83,674.29Z"/><path class="cls-13" d="M1061.5,618.78c-.31.92-.9,1.68-1.23,2.59s-.86,1.59-1.12,2.46a19,19,0,0,1-1,3.19c-.25.49-.65.84-.88,1.35a9.61,9.61,0,0,0-.45,2.33c-.22,1.11-.93,2-1.2,3a25.63,25.63,0,0,1-1.08,3.66,4.75,4.75,0,0,0-.5,2.28h0c-.13-1.07-.54-2.09-.62-3.16a9,9,0,0,0-1-2.76,12,12,0,0,1-.63-3.15,7.61,7.61,0,0,0-.48-1.92,12.26,12.26,0,0,1-.27-2.18,35.4,35.4,0,0,0-.92-4.56c-.43-1.68-.58-3.32-.91-5-.27-1.44-.6-2.82-.83-4.26a17.42,17.42,0,0,0-.82-2.66,15.28,15.28,0,0,0,2.27,1.18c.54.24.94.6,1.45.83a14.16,14.16,0,0,1,2.61,1.31,21.11,21.11,0,0,0,4,2c.9.39,1.83.14,2.69.51a7.8,7.8,0,0,1,1.08.59,1.11,1.11,0,0,1,.42.43.09.09,0,0,1,0,.05A7.9,7.9,0,0,1,1061.5,618.78Z"/><path class="cls-10" d="M978.41,596.37c.24.69.47,1.38.69,2.08a2.53,2.53,0,0,1-.7.24,8.06,8.06,0,0,1-1,3.58,17.46,17.46,0,0,0-.73,2.76,14.82,14.82,0,0,0-.58,2.5,12.51,12.51,0,0,1-1.35,3.41c-.25.51-.37,1-.57,1.5s-.43,1.5-.75,1.58l-.61.06a7.18,7.18,0,0,1-.06-1.07c0-1.07-.29-2-.35-3s0-2.15,0-3.21a14.1,14.1,0,0,1,0-2.43,24.43,24.43,0,0,1,1.36-4.44c.34-.83.46-1.69.72-2.56.33-1.06,1.09-1.95,1.46-3,.3-.83.23-1.66.57-2.51a5.08,5.08,0,0,0,.2-1,4,4,0,0,0,.37.85C977.71,593.14,977.87,594.87,978.41,596.37Z"/><path class="cls-13" d="M1084.15,608.6a6.43,6.43,0,0,1,.27.73,12.34,12.34,0,0,1,0,1.36l.14.43a14.5,14.5,0,0,1-2.54.43c-.25,0-.5.07-.74.12-1.18.25-2.17.85-3.35,1.1s-2.49.73-3.81.88a36.87,36.87,0,0,0-7,2,26.42,26.42,0,0,1-3.51,1,5.9,5.9,0,0,1-.94,0h0a1.65,1.65,0,0,0-.49.06c0,.07,0,.14,0,.2a.09.09,0,0,0,0-.05,1.11,1.11,0,0,0-.42-.43l.08-.11c.09-.42.78-1,1.06-1.37,1-1.27,1.88-2.63,3-3.9s1.48-2.35,2.33-3.56c.56-.81,1.34-1.38,1.94-2.15.38-.49.67-1,1.05-1.54a24,24,0,0,1,3-2.8c1-1,2-1.86,3-2.77a6.09,6.09,0,0,0,.94-1.23,12.33,12.33,0,0,1,1.46-1.43,10.1,10.1,0,0,0,.89-1.09,2.82,2.82,0,0,1,.41-.43,7.61,7.61,0,0,0,.93-.39h.12c.64-.15.52.41.55.84a10.6,10.6,0,0,0,.33,2c.42,1.85.42,3.72.73,5.59,0,.21.06.41.1.62a22,22,0,0,1,.5,4.65A5,5,0,0,0,1084.15,608.6Z"/><path class="cls-14" d="M1082.5,614a5.45,5.45,0,0,1-.43-2l-.06-.47a14.5,14.5,0,0,0,2.54-.43l.26-.08a18.09,18.09,0,0,1,3.76-1.33c1-.13,2-.18,3-.35a20.35,20.35,0,0,0,2.78-1c.86-.31,1.68-.12,2.5-.34.22-.06.22-.21.44-.28a10.58,10.58,0,0,1,1.38,0,6.11,6.11,0,0,0,1.73-.54,3.47,3.47,0,0,1,.29.73c.12.45.13,1,.22,1.47.15.87.39,1.73.51,2.6s.44,1.54.58,2.37c.09.53,0,1.08.14,1.61a14.06,14.06,0,0,1,.6,2.08l-.1.63c-.39-.06-.61-.22-1-.31a11.34,11.34,0,0,0-2.18,0,26.79,26.79,0,0,1-5-.07c-3.42-.67-7.18-.26-10.68-.26l-.32.11a15.29,15.29,0,0,1-.7-2.54A14.27,14.27,0,0,0,1082.5,614Z"/><path class="cls-15" d="M1084.81,611l-.26.08-.14-.43a12.34,12.34,0,0,0,0-1.36,6.43,6.43,0,0,0-.27-.73,5,5,0,0,1-.08-1.23,22,22,0,0,0-.5-4.65c0-.21-.08-.41-.1-.62v0c1.12-.09,2.54-1.54,3.24-2.22a24.64,24.64,0,0,1,4.37-3.51,24.45,24.45,0,0,0,3.37-2.61c.35-.32,1.47-1.45,1.91-1.36a13.33,13.33,0,0,0,.45,1.92c.48,1.44.67,2.94,1.13,4.37a23.27,23.27,0,0,1,1,3.76,15.38,15.38,0,0,0,.56,2.12c.15.49.18,1,.34,1.53a7.12,7.12,0,0,0,.52,1.08,6.11,6.11,0,0,1-1.73.54,10.58,10.58,0,0,0-1.38,0c-.22.07-.22.22-.44.28-.82.22-1.64,0-2.5.34a20.35,20.35,0,0,1-2.78,1c-1,.17-2,.22-3,.35A18.09,18.09,0,0,0,1084.81,611Z"/><path class="cls-9" d="M790.19,717.29l-7.57,4.46c-7.87,4.64-7.54-14.86-8.48-19.44a209.11,209.11,0,0,0-7.91-28.25c-.82-2.3-1.67-4.91-.54-7.07l.06-.24c.49.28,1,.66,1.49.9,1.1.51,1.55.12,2.71-.09a33.33,33.33,0,0,1,5.29,0,20.28,20.28,0,0,1,5,1.07c-.15.62.38-.17.55.41.25.82.12,1.6.46,2.51.43,1.16.74,2.31,1.12,3.49a19.36,19.36,0,0,1,.79,2.13l.21,2.44c.23,1.27,1,2.31,1.29,3.56s.33,2.78.6,4.14a24.94,24.94,0,0,0,1,3.35c.54,1.54.32,2.73.46,4.32a13.9,13.9,0,0,0,.92,2.68c.27.94.32,1.92.61,2.87.65,2.09.22,4,.48,6,.23,1.92,1,3.47,1,5.49,0,1.5,0,3,0,4.5Z"/><path class="cls-13" d="M1086.42,633.38a4,4,0,0,0-.35-.36l.06.28a.6.6,0,0,0,.29.08h-.14a11.41,11.41,0,0,0-1.78.3,37.21,37.21,0,0,0-3.73.66c-1.86.64-3.78,1-5.61,1.69-1.45.56-3,0-4.39.62-1.58.69-3.12.82-4.7,1.38a9.56,9.56,0,0,1-3,1,9.8,9.8,0,0,0-2.35.22,21.2,21.2,0,0,1-3.93.78,8.28,8.28,0,0,0-1.22,0c-.32.06-.54.26-.83.31a.74.74,0,0,1-.33,0l-.34-.33c0-.11,0-.22,0-.33h0a4.75,4.75,0,0,1,.5-2.28,25.63,25.63,0,0,0,1.08-3.66c.27-1.09,1-1.94,1.2-3a9.61,9.61,0,0,1,.45-2.33c.23-.51.63-.86.88-1.35a19,19,0,0,0,1-3.19c.26-.87.8-1.61,1.12-2.46s.92-1.67,1.23-2.59a7.9,7.9,0,0,0,.59-1.84c0-.06,0-.13,0-.2a1.65,1.65,0,0,1,.49-.06h0a4.66,4.66,0,0,0,1.94,1.38c1.21.5,1.65,1.58,2.75,2.3s2.54,1.23,3.75,2,2.47,1.24,3.67,2a16.16,16.16,0,0,0,1.84.86c.64.3,1.2.78,1.83,1.13,1.36.74,2.32,2.06,3.67,2.86,1,.56,1.76,1.22,2.73,1.79a17.68,17.68,0,0,0,1.94,1.11c.34.15.89.29,1,.67a.55.55,0,0,1,0,.26,2.11,2.11,0,0,1-.74.32h-.63Z"/><path class="cls-6" d="M964.86,626.32c.75.61.88,1.9,1.12,2.7a38.53,38.53,0,0,0,2.15,4.38c.82,1.79,1.71,3.77,2.36,5.61.72,2,.83,4.06,1.37,6.12.24.91.44,1.83.61,2.75a16,16,0,0,1-1.68,1.5c-1.62,1.21-3.33,2.18-4.9,3.49-1.18,1-2.4,1.91-3.65,2.79-.3-1-.68-2-.9-3-.31-1.47,0-2.85-.58-4.29a18.85,18.85,0,0,1-1.38-4c-.59-3-2.07-5.88-2.78-8.9-.8-3.44-2.75-6.59-3.74-10A37.39,37.39,0,0,0,950.7,621c-.17-.4-.26-1-.46-1.54l.29.12c1.79.64,3.32,1.56,5.2,2.07,3,.81,6.2,1.36,9,3l.82.47Z"/><path class="cls-16" d="M1084.5,633.69a11.41,11.41,0,0,1,1.78-.3h.17a2,2,0,0,0,.6,0,2.11,2.11,0,0,0,.74-.32.55.55,0,0,0,0-.26l.09,0a4.48,4.48,0,0,1,.22.86c.25,1.07.84,2,1.1,3.09.12.49.15,1.09.3,1.56s.44.69.54,1.08a13.92,13.92,0,0,0,.39,1.75,9.76,9.76,0,0,1,.52,1.61,33.5,33.5,0,0,0,2,5.49,21.67,21.67,0,0,1,.88,3.55l-.3,0a12.68,12.68,0,0,0-1.91.58,4.7,4.7,0,0,1-1.65.32c-.52,0-1,.26-1.48.35-.33,0-.65,0-1,.06a40,40,0,0,0-5,1.27c-1,.34-2.08.73-3.06,1.16-1.55.68-3.26.58-4.86,1.17a44.67,44.67,0,0,1-5.09,1.43c-.71.16-1.33.15-2,.25a19.11,19.11,0,0,1-2.63.67c-.68,0-2-.3-2.6.19a9.53,9.53,0,0,0-1-1.47c-1-1-2.28-1.65-3.14-2.86-.12-.16-.29-.31-.43-.48a.86.86,0,0,1-.25-.57l0,.09a3.15,3.15,0,0,1-.6-2.2c0-.42-.19-.51-.26-.79-.23-1-.33-1.87-.48-2.85-.42-2.61-1.22-5-1.26-7.74.29,0,.51-.25.83-.31a8.28,8.28,0,0,1,1.22,0,21.2,21.2,0,0,0,3.93-.78,9.8,9.8,0,0,1,2.35-.22,9.56,9.56,0,0,0,3-1c1.58-.56,3.12-.69,4.7-1.38,1.42-.62,2.94-.06,4.39-.62,1.83-.72,3.75-1.05,5.61-1.69A37.21,37.21,0,0,1,1084.5,633.69Z"/><path class="cls-17" d="M994.36,657.42a.48.48,0,0,1-.16.08c-.53-1.46-.7-3-1.29-4.46a15.41,15.41,0,0,1-1-3.68,31.27,31.27,0,0,0-1.35-4.48c-.56-1.77-.87-3.69-1.29-5.5-.32-1.37-.69-2.74-1-4.12s-.93-3-1.18-4.5a20,20,0,0,0-.38-2.66c-.18-.58-.3-1.14-.43-1.74-.19-.91-.37-1.88-.6-2.81l.85-.2a14.26,14.26,0,0,0,2.39-.63,12,12,0,0,1,2.47-1,118.22,118.22,0,0,0,16.45-4.92,4.54,4.54,0,0,0,.36,1.1,8.54,8.54,0,0,1,.85,2.49c.08.41-.19.9-.09,1.31.26,1.06,1.19,1.69,1.48,2.74.1.38-.19.87-.11,1.26.22,1,.63,2,.89,3a35.4,35.4,0,0,1,1.18,5,26,26,0,0,0,.3,3.67c.46,1.92,1.32,3.44,1.65,5.33.42,2.41,1.64,5.15,1.35,7.67l.18,1.67c-1.57.46-3.17.65-4.72,1.17-1.34.45-2.67.52-4,1.09s-2.36.23-3.56.72a22.28,22.28,0,0,1-3.93,1.11,24.28,24.28,0,0,0-3.07.66,9.55,9.55,0,0,1-1.86.65Z"/><path class="cls-13" d="M1087.9,631.67a3.38,3.38,0,0,1,.17.51,0,0,0,0,1,0,0v.36l-.24.1a.14.14,0,0,1,0,.06l-.09,0c-.12-.38-.67-.52-1-.67a17.68,17.68,0,0,1-1.94-1.11c-1-.57-1.77-1.23-2.73-1.79-1.35-.8-2.31-2.12-3.67-2.86-.63-.35-1.19-.83-1.83-1.13a16.16,16.16,0,0,1-1.84-.86c-1.2-.76-2.51-1.26-3.67-2s-2.56-1.22-3.75-2-1.54-1.8-2.75-2.3a4.66,4.66,0,0,1-1.94-1.38,5.9,5.9,0,0,0,.94,0,26.42,26.42,0,0,0,3.51-1,36.87,36.87,0,0,1,7-2c1.32-.15,2.53-.61,3.81-.88s2.17-.85,3.35-1.1c.24-.05.49-.09.74-.12l.06.47a5.45,5.45,0,0,0,.43,2,14.27,14.27,0,0,1,.22,1.56,15.29,15.29,0,0,0,.7,2.54c.26.75.53,1.49.73,2.22.76,2.79,1.65,5.61,2.6,8.34C1087.1,629.69,1087.56,630.7,1087.9,631.67Z"/><path class="cls-18" d="M981.85,641.66a5.63,5.63,0,0,1,.4,1.35,15.5,15.5,0,0,1,0,2.26,1.93,1.93,0,0,0,0,.24h-.18a21.05,21.05,0,0,1-3.66,2.65c-1.69.89-2.41,2.44-4,3.51-.46.31-.9.63-1.34,1a47.21,47.21,0,0,0-.58-4.76,15.86,15.86,0,0,1,1.9-1.71c1.28-.91,2.68-1.88,4.05-2.67,1.12-.64,1.86-2.15,3.32-1.81Z"/><path class="cls-18" d="M972.47,647.88a47.21,47.21,0,0,1,.58,4.76c-2.81,2.11-5.25,4.64-8,6.92L963.32,661a5.21,5.21,0,0,1-.58-2.45,8.56,8.56,0,0,0-.5-2.86c1.25-.88,2.47-1.8,3.65-2.79,1.57-1.31,3.28-2.28,4.9-3.49A16,16,0,0,0,972.47,647.88Z"/><path class="cls-18" d="M812.24,647c0-1.55-.52-3-.5-4.55,0-1.12,0-2.25,0-3.38a8.7,8.7,0,0,1,.48,1.45,4,4,0,0,0,.9,1.59,34.32,34.32,0,0,1,1.61,3.36c.69,1.42,1.32,2.92,2,4.34a12.12,12.12,0,0,1,.6,2.08c.22.75.73,1.33.9,2.1.65,2.9,2.4,5.61,3,8.51s1.39,5.71,2.11,8.61,1.77,5.36,2.38,8.16c.65,3,2.5,5.94,3,9,.51,3.45,1.56,6.82,2.08,10.26.14.92.66,1.72.86,2.62a24.06,24.06,0,0,1,.14,2.68c.2,1.65.73,3.27,1,4.91a66.59,66.59,0,0,0,2.14,9.3,27.69,27.69,0,0,1,.88,4.76,9.21,9.21,0,0,1-.12,3.19c-.8-.09-1.65-2.76-2-3.47a21.84,21.84,0,0,1-1.5-2.88c-.19-.5-.64-1.1-.88-1.6a21.37,21.37,0,0,1-.73-2.22c-.26-.71-.89-1.11-1.17-1.76s-.32-1.59-.54-2.3c-.77-2.57-2.19-4.89-3-7.49a27.47,27.47,0,0,1-1.52-4.68c-.06-.52-.05-1-.11-1.45a3.63,3.63,0,0,0-.22-.86,28.53,28.53,0,0,1-1.08-2.75c-.51-1.74-.84-3.55-1.37-5.25-.44-1.44-1-2.85-1.37-4.34-.47-1.93-1.32-3.74-1.89-5.66-.5-1.69-.83-3.43-1.36-5.1a24.16,24.16,0,0,1-.64-3.85A11.56,11.56,0,0,0,816,669a24.81,24.81,0,0,1-.75-5.14c0-1.37-.32-2.77-.48-4.13-.18-1.53-1-2.79-1-4.41,0-1.43-.95-2.36-1-3.88S812.29,648.54,812.24,647Z"/><path class="cls-10" d="M1037.44,604.87a9.69,9.69,0,0,1,.3,2.15l-.33.33a2.53,2.53,0,0,0,0,.28c-1.66.44-3.38.7-5,1.31-2.3.84-4.7,1.33-7,2.08a23.1,23.1,0,0,1-3.59,1c-1.45.2-2.6,1.07-4,1.47-3.32,1-6.59,2.1-9.86,3.26-.1-.47-.15-.95-.29-1.58-.07-.31-.46-.67-.54-1.12s.18-1.18.06-1.73c-.2-.87-1-1.68-1.22-2.64-.57-2.48-.88-5-1.61-7.43a30,30,0,0,1-1.15-3.26,18.58,18.58,0,0,0-.54-2.65,16.83,16.83,0,0,0-1.42-2.79c.94-.24,1.88-.5,2.81-.77,2.51-.73,5-1.18,7.57-1.89a39.74,39.74,0,0,1,4.79-.85,9.47,9.47,0,0,0,1.45-.48,24.27,24.27,0,0,1,2.67-.54,37.51,37.51,0,0,1,6.28-1c1.75,0,3.39-.38,5.17-.33.62,0,1.09.32,1.57.11s.65-.58,1-.78a11.77,11.77,0,0,1,2-.66h.06a6,6,0,0,0,.09,1.18c.09.32.16.63.22.95.43,2.23.27,4.49.55,6.76a55.25,55.25,0,0,1,.08,6.81A14.84,14.84,0,0,0,1037.44,604.87Z"/><path class="cls-18" d="M1046.07,633.79c-.38-1.67-1.14-3.14-1.66-4.77a44.62,44.62,0,0,1-1.67-5.73,5,5,0,0,0-.59-1.31c-.1-.52-.24-1-.39-1.54s-.47-1-.71-1.5c-.46-1.25-.77-2.57-1.22-3.83-.57-1.61-1.13-3.28-1.76-4.85a7.16,7.16,0,0,1-.65-2.63l.67-.19c.66-.2,1.34-.55,2-.69.49-.1,1.3.13,1.65-.25a.63.63,0,0,0,.67.19l.21-.07c.13.41.29.78.46,1.21a6,6,0,0,1,.32,2.21,27.5,27.5,0,0,0,1.8,7.33,13,13,0,0,1,.87,3,36.43,36.43,0,0,0,.94,3.77,12.4,12.4,0,0,1,0,1.83,9.88,9.88,0,0,0,.44,2c.34,1.26.33,2.6.57,3.89s.38,2.83.73,4.18a13.79,13.79,0,0,1,.62,1.88,4.71,4.71,0,0,0,.24,1.05,11.11,11.11,0,0,1,.41,3.67c-.15-1.79-1.53-3.31-2.34-4.85A16.61,16.61,0,0,1,1046.07,633.79Z"/><path class="cls-10" d="M994.07,658c.13.52-.35.85-.57,1.27s-.29,1-.47,1.43l-2.82.23a8.25,8.25,0,0,0-1.54-1.19c-1-.53-2-1-3-1.49a20.8,20.8,0,0,1-2.65-1.5c-.43-.28-1.13-1-1.59-1.08l-.44-.19a4.38,4.38,0,0,0,.39-.36c.68-.68,2.17-1.69,2.38-2.62l.51,0c-.08-.65-.41-1.43-.51-2a6.91,6.91,0,0,0-.56-1.68,8.5,8.5,0,0,1-.93-3.32,1.93,1.93,0,0,1,0-.24,15.5,15.5,0,0,0,0-2.26,5.63,5.63,0,0,0-.4-1.35c0-.12-.08-.24-.12-.38a6.41,6.41,0,0,0-.49-1.76,6.61,6.61,0,0,1-.49-1.76c-.57-2.07-1.48-4-2.12-6.13a2.76,2.76,0,0,0-1.77-2.23l-.12-.05c-.47-.46-.29-1.1-.41-1.68a8.2,8.2,0,0,0-.43-1.17,11.4,11.4,0,0,1-.49-1.33,29.68,29.68,0,0,1-1.34-4.77c-.07-.92-.5-1.7-.64-2.59a14.35,14.35,0,0,0-.36-2.5,5.94,5.94,0,0,1-.27-1.23l.61-.06c.32-.08.58-1.21.75-1.58s.32-1,.57-1.5a12.51,12.51,0,0,0,1.35-3.41,14.82,14.82,0,0,1,.58-2.5,17.46,17.46,0,0,1,.73-2.76,8.06,8.06,0,0,0,1-3.58,2.53,2.53,0,0,0,.7-.24c.76,2.47,1.35,5,1.9,7.52.27,1.26.73,2.43,1.07,3.66.26.91.26,1.86.54,2.75.21.71.55,1.34.73,2.06.35,1.4.46,2.87.81,4.27.28,1.16.82,2.26,1.18,3.39.15.47.28,1,.39,1.45.23.93.41,1.9.6,2.81.13.6.25,1.16.43,1.74a20,20,0,0,1,.38,2.66c.25,1.51.89,3,1.18,4.5s.64,2.75,1,4.12c.42,1.81.73,3.73,1.29,5.5a31.27,31.27,0,0,1,1.35,4.48,15.41,15.41,0,0,0,1,3.68c.59,1.43.76,3,1.29,4.46Z"/><path class="cls-18" d="M962.74,658.52a5.21,5.21,0,0,0,.58,2.45c-3.7,3-7.41,6-11.4,8.7l-.65.43c0-.06,0-.13,0-.19a26.81,26.81,0,0,1-.48-3.9,7.94,7.94,0,0,0-.57-2.15c.54-.45,1.07-.87,1.62-1.25,3.45-2.36,7-4.51,10.44-6.95A8.56,8.56,0,0,1,962.74,658.52Z"/><path class="cls-17" d="M1047.73,637.84c.81,1.54,2.19,3.06,2.34,4.85V643l-.33.33c-1.08.08-2.12.26-3.21.32h-.15a16,16,0,0,0-2,.33,21.9,21.9,0,0,0-4.29,1.59,16.71,16.71,0,0,1-4.3,1c-.7.11-1.39.32-2.09.39a11.27,11.27,0,0,0-1.64.09c-2.64.67-5.29,1.55-7.88,2.44-1.38.47-2.74,1.12-4.14,1.52s-2.77.58-4.14,1l-.18-1.67c.29-2.52-.93-5.26-1.35-7.67-.33-1.89-1.19-3.41-1.65-5.33a26,26,0,0,1-.3-3.67,35.4,35.4,0,0,0-1.18-5c-.26-1-.67-2-.89-3-.08-.39.21-.88.11-1.26-.29-1-1.22-1.68-1.48-2.74-.1-.41.17-.9.09-1.31a8.54,8.54,0,0,0-.85-2.49,4.54,4.54,0,0,1-.36-1.1c3.27-1.16,6.54-2.3,9.86-3.26,1.41-.4,2.56-1.27,4-1.47a23.1,23.1,0,0,0,3.59-1c2.35-.75,4.75-1.24,7-2.08,1.65-.61,3.37-.87,5-1.31a7.16,7.16,0,0,0,.65,2.63c.63,1.57,1.19,3.24,1.76,4.85.45,1.26.76,2.58,1.22,3.83.24.5.48,1,.71,1.5s.29,1,.39,1.54a5,5,0,0,1,.59,1.31,44.62,44.62,0,0,0,1.67,5.73c.52,1.63,1.28,3.1,1.66,4.77A16.61,16.61,0,0,0,1047.73,637.84Z"/><path class="cls-6" d="M981.73,641.28c0,.14.08.26.12.38l-.11,0c-1.46-.34-2.2,1.17-3.32,1.81-1.37.79-2.77,1.76-4.05,2.67a15.86,15.86,0,0,0-1.9,1.71c-.17-.92-.37-1.84-.61-2.75-.54-2.06-.65-4.09-1.37-6.12-.65-1.84-1.54-3.82-2.36-5.61A38.53,38.53,0,0,1,966,629c-.24-.8-.37-2.09-1.12-2.7l.69-1.22a32.89,32.89,0,0,0,7.8,3.31,18.7,18.7,0,0,1,3.39.94l.12.05a2.76,2.76,0,0,1,1.77,2.23c.64,2.11,1.55,4.06,2.12,6.13a6.61,6.61,0,0,0,.49,1.76A6.41,6.41,0,0,1,981.73,641.28Z"/><path class="cls-6" d="M917.25,608.51a4.12,4.12,0,0,1,1.44.51c.87.36,1.7.59,2.54,1a5.87,5.87,0,0,0,3,.48,4,4,0,0,1,2.48.62,5.52,5.52,0,0,0,1.12.79c.19.07,1.2,0,1.44.19.76.54.54,1.39,1.51,1.83s2.3.18,3.44.26c0,1.06.33,1.32.85,2.26,1.18,2.1,1.76,4.57,3,6.58a46.62,46.62,0,0,1,2.66,6c.35.81.46,1.68.76,2.5.38,1,1,2,1.42,3,.69,1.83,1.26,3.94,1.8,5.81.45,1.55.94,3.11,1.37,4.67.47,1.76,1.12,3.41,1.63,5.11a34.39,34.39,0,0,1,1,5.91,20.79,20.79,0,0,0,.92,3,16,16,0,0,1,.06,3,6.59,6.59,0,0,0,.47,1.82,7.94,7.94,0,0,1,.57,2.15,26.81,26.81,0,0,0,.48,3.9c0,.06,0,.13,0,.19-3.46,2.27-12.67,7.92-12.67,7.92l-.2.11c-.11-.2-.21-.4-.3-.61-.54-1.24-.75-2.61-1.23-3.89-1.07-2.8-1.94-5.68-2.76-8.58-.95-3.43-2.65-6.31-3.43-9.73-.7-3.08-1.94-6.12-2.93-9.09-.36-1.06-.61-2.13-.87-3.22s-.9-2-1.12-3c-.16-.81.12-1.64,0-2.45a16.87,16.87,0,0,0-1-2.23c-.37-1-.61-1.93-1-2.89s-.39-2-.73-3c-.51-1.62-.92-3.41-1.51-5s-1.46-2.71-1.81-4.33-1.44-2.57-1.94-4a16.06,16.06,0,0,1-1-2.78,6.42,6.42,0,0,0-.26-2,10.59,10.59,0,0,1-1.27-2.72l-.1-.22.46-.19C916,608.75,916.61,608.44,917.25,608.51Z"/><path class="cls-13" d="M1062.8,615c-.28.33-1,1-1.06,1.37l-.08.11a7.8,7.8,0,0,0-1.08-.59c-.86-.37-1.79-.12-2.69-.51a21.11,21.11,0,0,1-4-2,14.16,14.16,0,0,0-2.61-1.31c-.51-.23-.91-.59-1.45-.83a15.28,15.28,0,0,1-2.27-1.18,9.26,9.26,0,0,1-.3-1.15c-.13-.7-.07-1.42-.2-2.12s-.56-1.37-.76-2.08a3,3,0,0,1-.11-.64l.26,0c.21-1,1.32-.55,2-.72a29,29,0,0,1,2.9-1,7.06,7.06,0,0,0,2.46-.64,8,8,0,0,1,3.26-1,9.7,9.7,0,0,0,3.51-.91,26.53,26.53,0,0,1,3.53-1.17c.95-.27,1.74-.76,2.72-1,1.94-.48,3.82-1.16,5.76-1.66a33.67,33.67,0,0,0,3.94-1.18,3.49,3.49,0,0,1,1-.25c.72-.08,1.41,0,2.19-.15a7.51,7.51,0,0,0,1.06-.28,2.82,2.82,0,0,0-.41.43,10.1,10.1,0,0,1-.89,1.09,12.33,12.33,0,0,0-1.46,1.43,6.09,6.09,0,0,1-.94,1.23c-1.05.91-2,1.81-3,2.77a24,24,0,0,0-3,2.8c-.38.51-.67,1-1.05,1.54-.6.77-1.38,1.34-1.94,2.15-.85,1.21-1.37,2.43-2.33,3.56S1063.84,613.71,1062.8,615Z"/><path class="cls-7" d="M1040.11,645.6a21.9,21.9,0,0,1,4.29-1.59,16,16,0,0,1,2-.33l0,.34a10.55,10.55,0,0,1-.08,2,23.69,23.69,0,0,0-.26,4.61c0,.94,0,1.89,0,2.83,0,1.2-.43,2.33-.33,3.53l.07.22c-.31.11-.63.2-.94.28-2.44.6-4.79,1.37-7.19,2.17-3.21,1.06-6.47,2-9.63,3.34a20.73,20.73,0,0,1-5,1.62,28.48,28.48,0,0,0-4.16,1.2c-1.75.52-3.37,1.17-5.14,1.56-1.09.24-2.14.78-3.21,1.13-.9.29-1.81.31-2.7.56-.49.14-.54.36-1.12.18a4.53,4.53,0,0,1-1.35-.85,11.62,11.62,0,0,0-3.59-1.42,14.44,14.44,0,0,1-2.72-1,27.91,27.91,0,0,0-2.79-1.54c-1.53-.68-3.05-1.5-4.51-2.33a8.71,8.71,0,0,1-1.57-1.22l2.82-.23c.18-.45.25-1,.47-1.43s.7-.75.57-1.27l.13-.52a.48.48,0,0,0,.16-.08h.45a9.55,9.55,0,0,0,1.86-.65,24.28,24.28,0,0,1,3.07-.66,22.28,22.28,0,0,0,3.93-1.11c1.2-.49,2.36-.19,3.56-.72s2.63-.64,4-1.09c1.55-.52,3.15-.71,4.72-1.17,1.37-.4,2.78-.59,4.14-1s2.76-1.05,4.14-1.52c2.59-.89,5.24-1.77,7.88-2.44a11.27,11.27,0,0,1,1.64-.09c.7-.07,1.39-.28,2.09-.39A16.71,16.71,0,0,0,1040.11,645.6Z"/><path class="cls-7" d="M956,684.06c-.78,1.07-1.41,2.39-2.23,3.39a28.78,28.78,0,0,0,0-3.94,7.93,7.93,0,0,0-.4-1.1c-.1-.48,0-.92-.08-1.39s-.45-1-.56-1.5.11-1,.06-1.46c-.18-1.49-.65-3-.92-4.42-.23-1.22-.34-2.34-.58-3.54l.65-.43c4-2.69,7.7-5.66,11.4-8.7l.06.14a10.23,10.23,0,0,1,.34,3.15,34.94,34.94,0,0,0,1,5c.42,1.86,0,2.87,0,4.75h0c-1.61,1.81-3.18,3.66-4.79,5.47A54.36,54.36,0,0,0,956,684.06Z"/><path class="cls-4" d="M765.69,667c-1.13,2.16-.28,4.77.54,7.07a209.11,209.11,0,0,1,7.91,28.25c.94,4.58.61,24.08,8.48,19.44l7.57-4.46,9-5.33q6-3.54,12-7.08l11.14-6.57"/><path class="cls-4" d="M765.24,666.52a3.82,3.82,0,0,1,.51.23c.49.28,1,.66,1.49.9,1.1.51,1.55.12,2.71-.09a33.33,33.33,0,0,1,5.29,0,20.28,20.28,0,0,1,5,1.07l.75.18a33.13,33.13,0,0,0,6.77.25c1.29,0,2.66-.11,4-.12a16.56,16.56,0,0,1,1.88.09,34.69,34.69,0,0,0,4.48.53c1.4,0,2.81-.07,4.2,0a12.28,12.28,0,0,1,2,.41,3.83,3.83,0,0,0,.9,0,6.84,6.84,0,0,1,1.7,0c.67.16,1.07.39,1.76.52a32,32,0,0,0,5.54,0"/><path class="cls-4" d="M811.74,638v1.07c0,1.13,0,2.26,0,3.38,0,1.57.45,3,.5,4.55s.43,2.9.49,4.46,1,2.45,1,3.88c.05,1.62.84,2.88,1,4.41.16,1.36.43,2.76.48,4.13A24.81,24.81,0,0,0,816,669a11.56,11.56,0,0,1,.25,1.28,24.16,24.16,0,0,0,.64,3.85c.53,1.67.86,3.41,1.36,5.1.57,1.92,1.42,3.73,1.89,5.66.35,1.49.93,2.9,1.37,4.34.53,1.7.86,3.51,1.37,5.25a28.53,28.53,0,0,0,1.08,2.75,3.63,3.63,0,0,1,.22.86c.06.47,0,.93.11,1.45a27.47,27.47,0,0,0,1.52,4.68c.81,2.6,2.23,4.92,3,7.49.22.71.25,1.63.54,2.3s.91,1,1.17,1.76a21.37,21.37,0,0,0,.73,2.22c.24.5.69,1.1.88,1.6a21.84,21.84,0,0,0,1.5,2.88c.37.71,1.22,3.38,2,3.47a9.21,9.21,0,0,0,.12-3.19,27.69,27.69,0,0,0-.88-4.76,66.59,66.59,0,0,1-2.14-9.3c-.23-1.64-.76-3.26-1-4.91a24.06,24.06,0,0,0-.14-2.68c-.2-.9-.72-1.7-.86-2.62-.52-3.44-1.57-6.81-2.08-10.26-.46-3-2.31-6-3-9-.61-2.8-1.68-5.36-2.38-8.16s-1.5-5.69-2.11-8.61-2.35-5.61-3-8.51c-.17-.77-.68-1.35-.9-2.1a12.12,12.12,0,0,0-.6-2.08c-.7-1.42-1.33-2.92-2-4.34a34.32,34.32,0,0,0-1.61-3.36,4,4,0,0,1-.9-1.59,8.7,8.7,0,0,0-.48-1.45,10.57,10.57,0,0,1-.5-1.51"/><path class="cls-4" d="M811.31,637.09c.66-.17,1.27-.94,1.92-1a20.25,20.25,0,0,1,3.1-.52,14.4,14.4,0,0,0,3.58-.65,33.07,33.07,0,0,1,3.44-.47,24.35,24.35,0,0,0,4.33-.83l.18-.07c1.48-.55,2.76-1.5,4.31-1.9A25.38,25.38,0,0,0,837,629.9a47.11,47.11,0,0,1,4.86-1.86c4.47-1.67,9.26-2.38,13.51-4.54,1.22-.62,2.32-.37,3.61-.58s2.43-.62,3.63-.9c2.57-.58,5-.87,7.43-2s5.16-1.46,7.76-2.37c1.17-.4,2.23-1,3.44-1.27s2.69-.37,4-.71c1.8-.46,3.55-.73,5.34-1.14,2.28-.53,4.34-1.28,6.62-1.6a16.73,16.73,0,0,0,3.1-1.16l.23-.08.25-.07c.69-.16,1.35-.07,2.06-.2,1.55-.28,2.67-.91,4.28-.89a17.91,17.91,0,0,0,3.1-.51,16.91,16.91,0,0,0,2-.1c.63-.16,1.31-.47,2-.66,0,.22-.13.31-.46.27"/><path class="cls-4" d="M836.24,726a1.28,1.28,0,0,0-.11.2,3.12,3.12,0,0,1-.34.59c1.1-.52,2.31-.19,3.47-.33,2-.23,3.84-1.3,5.87-1.47a6.35,6.35,0,0,0,2.5-.47,15,15,0,0,1,2.67-1.29c1.59-.4,3.06-.39,4.65-.87s3.6-.72,5.36-1.09c2.2-.47,4.22-1.77,6.46-1.78,3.69,0,7.11-1.28,10.58-2.49,3.84-1.34,7.69-2.2,11.53-3.51,1.88-.65,3.91-.82,5.81-1.48s3.78-1.37,5.81-1.88a20.93,20.93,0,0,1,5-.61c2-.06,3.73-1.36,5.77-1.52s3.4-1.49,5.33-1.52,3.66-1,5.67-1.42c3.84-.8,7.69-1.81,11.5-2.8l1-.26a27.37,27.37,0,0,0,4.45-1.5,8.73,8.73,0,0,1,3.53-1"/><path class="cls-4" d="M915.24,608.52a10.59,10.59,0,0,0,1.27,2.72,6.42,6.42,0,0,1,.26,2,16.06,16.06,0,0,0,1,2.78c.5,1.4,1.61,2.48,1.94,4s1.25,2.79,1.81,4.33,1,3.4,1.51,5c.34,1.05.3,2,.73,3s.63,1.92,1,2.89a16.87,16.87,0,0,1,1,2.23c.16.81-.12,1.64,0,2.45.22,1,.86,2,1.12,3s.51,2.16.87,3.22c1,3,2.23,6,2.93,9.09.78,3.42,2.48,6.3,3.43,9.73.82,2.9,1.69,5.78,2.76,8.58.48,1.28.69,2.65,1.23,3.89.09.21.19.41.3.61a10.46,10.46,0,0,1,1.35,3c.52,3,1.64,5.94,2.38,8.89.28,1.12.44,2.37.61,3.5.32,2.14.69,3,1,5.06,0,.14,0,.29,0,.44"/><path class="cls-4" d="M942.74,699.52a3.79,3.79,0,0,1,1-.94,6,6,0,0,0,.76-.62,38.47,38.47,0,0,0,3-3.54c.63-.78,1.45-1.37,2-2.19s1.06-1.85,1.75-2.65,1.79-1.29,2.48-2.12h0c.82-1,1.45-2.32,2.23-3.39a54.36,54.36,0,0,1,4-4.56c1.61-1.81,3.18-3.66,4.79-5.47.81-.92,1.64-1.83,2.48-2.72.44-.46,1.11-.78,1.52-1.25s.48-1.08.81-1.53c.92-1.26,2.19-2.32,3.14-3.61.35-.47.73-.9,1.11-1.32.64-.7,1.3-1.35,1.93-2.08a28.76,28.76,0,0,1,2-2.53c.35-.32.72-.44,1-.8.43-.57.43-1.18,1-1.72.38-.37.82-.64,1.23-1a4.38,4.38,0,0,0,.39-.36c.68-.68,2.17-1.69,2.38-2.62"/><path class="cls-4" d="M950.24,619.45l.29.12c1.79.64,3.32,1.56,5.2,2.07,3,.81,6.2,1.36,9,3l.82.47a32.89,32.89,0,0,0,7.8,3.31,18.7,18.7,0,0,1,3.39.94l.12.05a2.76,2.76,0,0,1,1.77,2.23c.64,2.11,1.55,4.06,2.12,6.13a6.61,6.61,0,0,0,.49,1.76,6.41,6.41,0,0,1,.49,1.76c0,.14.08.26.12.38a5.63,5.63,0,0,1,.4,1.35,15.5,15.5,0,0,1,0,2.26,1.93,1.93,0,0,0,0,.24,8.5,8.5,0,0,0,.93,3.32,6.91,6.91,0,0,1,.56,1.68c.1.54.43,1.32.51,2a1.93,1.93,0,0,1,0,.54"/><path class="cls-4" d="M914.74,609l-.45-.12c.08-.25.48-.45.85-.6l.46-.19c.43.64,1,.33,1.65.4a4.12,4.12,0,0,1,1.44.51c.87.36,1.7.59,2.54,1a5.87,5.87,0,0,0,3,.48,4,4,0,0,1,2.48.62,5.52,5.52,0,0,0,1.12.79c.19.07,1.2,0,1.44.19.76.54.54,1.39,1.51,1.83s2.3.18,3.44.26a3.42,3.42,0,0,1,.57.07c1.85.39,3.54,1,5.42,1.37a7.71,7.71,0,0,1,3,.85c.42.3.55.76,1.06,1,.81.31,1.8-.1,2.63.11,1.22.31,2.16,1.36,3.31,1.88"/><path class="cls-4" d="M934.24,614v.18c0,1.06.33,1.32.85,2.26,1.18,2.1,1.76,4.57,3,6.58a46.62,46.62,0,0,1,2.66,6c.35.81.46,1.68.76,2.5.38,1,1,2,1.42,3,.69,1.83,1.26,3.94,1.8,5.81.45,1.55.94,3.11,1.37,4.67.47,1.76,1.12,3.41,1.63,5.11a34.39,34.39,0,0,1,1,5.91,20.79,20.79,0,0,0,.92,3,16,16,0,0,1,.06,3,6.59,6.59,0,0,0,.47,1.82,7.94,7.94,0,0,1,.57,2.15,26.81,26.81,0,0,0,.48,3.9c0,.06,0,.13,0,.19.24,1.2.35,2.32.58,3.54.27,1.46.74,2.93.92,4.42,0,.47-.15,1-.06,1.46s.47.95.56,1.5,0,.91.08,1.39a7.93,7.93,0,0,1,.4,1.1,28.78,28.78,0,0,1,0,3.94v.07"/><path class="cls-4" d="M949.74,619l0-.3a1.37,1.37,0,0,1,.53.72h0c.2.51.29,1.14.46,1.54a37.39,37.39,0,0,1,2.16,4.52c1,3.41,2.94,6.56,3.74,10,.71,3,2.19,5.86,2.78,8.9a18.85,18.85,0,0,0,1.38,4c.6,1.44.27,2.82.58,4.29.22,1,.6,2,.9,3a8.56,8.56,0,0,1,.5,2.86,5.21,5.21,0,0,0,.58,2.45l.06.14a10.23,10.23,0,0,1,.34,3.15,34.94,34.94,0,0,0,1,5c.42,1.86,0,2.87,0,4.75"/><path class="cls-4" d="M973.24,663.35V663"/><path class="cls-4" d="M964.24,626a1.38,1.38,0,0,1,.62.3c.75.61.88,1.9,1.12,2.7a38.53,38.53,0,0,0,2.15,4.38c.82,1.79,1.71,3.77,2.36,5.61.72,2,.83,4.06,1.37,6.12.24.91.44,1.83.61,2.75a47.21,47.21,0,0,1,.58,4.76c.25,3.41.19,6.86.19,10.38"/><path class="cls-4" d="M780.24,668.52a.64.64,0,0,1,0,.07c-.15.62.38-.17.55.41.25.82.12,1.6.46,2.51.43,1.16.74,2.31,1.12,3.49a19.36,19.36,0,0,1,.79,2.13l.21,2.44c.23,1.27,1,2.31,1.29,3.56s.33,2.78.6,4.14a24.94,24.94,0,0,0,1,3.35c.54,1.54.32,2.73.46,4.32a13.9,13.9,0,0,0,.92,2.68c.27.94.32,1.92.61,2.87.65,2.09.22,4,.48,6,.23,1.92,1,3.47,1,5.49,0,1.5,0,3,0,4.5"/><path class="cls-4" d="M791.74,669c-.15.61.25,1,.49,1.46a15.19,15.19,0,0,1,1.05,3.5c.28,1.16,1.14,2,1.48,3.14s.61,2.29,1,3.43a42.82,42.82,0,0,1,1.49,8,28.29,28.29,0,0,0,.63,2.84c.27,1.17.2,2.31.42,3.46a25.52,25.52,0,0,1,.46,4.94,9.15,9.15,0,0,0,0,2,5.28,5.28,0,0,1,.46,1.79c0,2.81,0,5.63,0,8.44V712"/><path class="cls-4" d="M805.24,670c-.13,1.11,1.29,3.06,1.59,4.27s1.13,1.78,1.62,2.78a26.85,26.85,0,0,1,.91,2.84,14.41,14.41,0,0,1,.78,2c.2.9,0,1.76.21,2.64a23.9,23.9,0,0,1,.89,4.23c.15,3,.5,5.73.5,8.74,0,1.35,0,2.69,0,4a31.52,31.52,0,0,1-.48,3.36,4.37,4.37,0,0,0,0,.64"/><path class="cls-4" d="M840.74,705a1.3,1.3,0,0,1,1,1,2.21,2.21,0,0,0,.07,1.08,16.19,16.19,0,0,1,.84,2.33c.25,1.31,0,2.48.44,3.77a8.83,8.83,0,0,1,.66,2.4,11.87,11.87,0,0,0,.09,2.46,6.28,6.28,0,0,1,.39,2c0,1.5,0,3,0,4.5"/><path class="cls-4" d="M847.24,703.52c0,1.38.68,2.6,1,4a18.87,18.87,0,0,0,1,3.42,8.93,8.93,0,0,1,.46,2.09,10.55,10.55,0,0,1,.54,2c0,.66,0,1.34,0,2v5.5"/><path class="cls-4" d="M853.24,702.52l.41.09c.26.82,0,1.58.38,2.41a9.3,9.3,0,0,1,1.17,3,31.39,31.39,0,0,0,.79,4.54,15.92,15.92,0,0,1,.25,4c0,.64-.08,1.32,0,1.95s1.45,3.79-.47,3.05"/><path class="cls-4" d="M900.24,612c0-.09.05-.17.07-.26s0-.13,0-.19a.35.35,0,0,1,.18.11,11.56,11.56,0,0,1,1.13,2.09c.35.63.84,1.1,1.22,1.72a17.3,17.3,0,0,1,.73,2.06c.45,1,1.12,2,1.63,2.93,1.07,2-.2,5.29,1.49,7"/><path class="cls-4" d="M905.24,611c.14.67.61.65,1,1.08,1,1.07.69,2.59,1.29,3.89,1.27,2.79,3.13,5.75,2.71,9"/><path class="cls-4" d="M910.24,610l-.44.11c.19.55.59.57.94,1,.69.92.53,2.33,1,3.37.51,1.2,1.17,2.19,1.57,3.45a15.81,15.81,0,0,1,.46,5"/><path class="cls-4" d="M918.24,685c1.14,1.22,1.71,3.32,2.31,4.83a45.68,45.68,0,0,1,1.81,6.67,27.31,27.31,0,0,1,.88,8"/><path class="cls-4" d="M923.74,683.52c0,1.61.38,1.23,1.19,2.29s.75,2.63,1.31,3.74a9,9,0,0,1,1,3c.1.73.4,1.27.52,2,.08.48-.14,1-.06,1.48.13.69.49,1.24.56,2,.12,1.32,0,2.72,0,4.05"/><line class="cls-4" x1="933.74" y1="702.29" x2="933.74" y2="702.28"/><path class="cls-4" d="M933.74,702.28V702"/><path class="cls-4" d="M928.74,683.52c.93.2,1.28,1.28,1.6,2.06a30.77,30.77,0,0,1,1.84,6.48c.3,1.69,1.15,3.15,1.46,4.87a28.8,28.8,0,0,1,.1,5.09"/><path class="cls-4" d="M825.34,636c.73,2.91,2.13,6,2.4,9"/><path class="cls-4" d="M827.74,633.52c0-.05.06-.05.12,0a9.18,9.18,0,0,1,1.63,2.72c.72,2.24.57,5.27,1.75,7.29"/><path class="cls-4" d="M833.33,632.66c.27,1.81.93,3.56,1.26,5.37a9.39,9.39,0,0,0,2,4.66l.19-.17"/><path class="cls-4" d="M976.7,590.86a5.08,5.08,0,0,1-.2,1c-.34.85-.27,1.68-.57,2.51-.37,1.06-1.13,2-1.46,3-.26.87-.38,1.73-.72,2.56a24.43,24.43,0,0,0-1.36,4.44,14.1,14.1,0,0,0,0,2.43c0,1.06-.08,2.15,0,3.21s.37,2,.35,3a7.18,7.18,0,0,0,.06,1.07,5.94,5.94,0,0,0,.27,1.23,14.35,14.35,0,0,1,.36,2.5c.14.89.57,1.67.64,2.59a29.68,29.68,0,0,0,1.34,4.77,11.4,11.4,0,0,0,.49,1.33,8.2,8.2,0,0,1,.43,1.17c.12.58-.06,1.22.41,1.68"/><path class="cls-4" d="M977.07,590.35l-.27.06,0,.1a1.94,1.94,0,0,0-.07.33"/><path class="cls-4" d="M977.07,591a.87.87,0,0,0,0-.48.52.52,0,0,0-.06-.16.37.37,0,0,0-.3.46v0a4,4,0,0,0,.37.85c.64,1.43.8,3.16,1.34,4.66.24.69.47,1.38.69,2.08.76,2.47,1.35,5,1.9,7.52.27,1.26.73,2.43,1.07,3.66.26.91.26,1.86.54,2.75.21.71.55,1.34.73,2.06.35,1.4.46,2.87.81,4.27.28,1.16.82,2.26,1.18,3.39.15.47.28,1,.39,1.45.23.93.41,1.9.6,2.81.13.6.25,1.16.43,1.74a20,20,0,0,1,.38,2.66c.25,1.51.89,3,1.18,4.5s.64,2.75,1,4.12c.42,1.81.73,3.73,1.29,5.5a31.27,31.27,0,0,1,1.35,4.48,15.41,15.41,0,0,0,1,3.68c.59,1.43.76,3,1.29,4.46a.48.48,0,0,0,.16-.08c.11-.14,0-.38-.29-.73"/><path class="cls-4" d="M994.74,657.69a2.68,2.68,0,0,1,.07-.27,9.55,9.55,0,0,0,1.86-.65,24.28,24.28,0,0,1,3.07-.66,22.28,22.28,0,0,0,3.93-1.11c1.2-.49,2.36-.19,3.56-.72s2.63-.64,4-1.09c1.55-.52,3.15-.71,4.72-1.17,1.37-.4,2.78-.59,4.14-1s2.76-1.05,4.14-1.52c2.59-.89,5.24-1.77,7.88-2.44a11.27,11.27,0,0,1,1.64-.09c.7-.07,1.39-.28,2.09-.39a16.71,16.71,0,0,0,4.3-1,21.9,21.9,0,0,1,4.29-1.59,16,16,0,0,1,2-.33h.15c1.09-.06,2.13-.24,3.21-.32"/><path class="cls-4" d="M978.07,598.69a.92.92,0,0,0,.33,0,2.53,2.53,0,0,0,.7-.24,4.81,4.81,0,0,1,1.05-.44c1-.18,2-.36,3-.57,3.8-.8,7.51-2,11.36-2.5a59.41,59.41,0,0,0,6.67-1.39c.94-.24,1.88-.5,2.81-.77,2.51-.73,5-1.18,7.57-1.89a39.74,39.74,0,0,1,4.79-.85,9.47,9.47,0,0,0,1.45-.48,24.27,24.27,0,0,1,2.67-.54,37.51,37.51,0,0,1,6.28-1c1.75,0,3.39-.38,5.17-.33.62,0,1.09.32,1.57.11s.65-.58,1-.78a11.77,11.77,0,0,1,2-.66"/><path class="cls-4" d="M1037.07,585.35a17.27,17.27,0,0,0,.26,3,14.08,14.08,0,0,0,1.41,4.31,29.9,29.9,0,0,1,1.81,4.51c.47,1.45.22,3.16.84,4.52a16.58,16.58,0,0,1,1.09,4.33c0,.21.09.4.14.58.13.41.29.78.46,1.21a6,6,0,0,1,.32,2.21,27.5,27.5,0,0,0,1.8,7.33,13,13,0,0,1,.87,3,36.43,36.43,0,0,0,.94,3.77,12.4,12.4,0,0,1,0,1.83,9.88,9.88,0,0,0,.44,2c.34,1.26.33,2.6.57,3.89s.38,2.83.73,4.18a13.79,13.79,0,0,1,.62,1.88,4.71,4.71,0,0,0,.24,1.05,11.11,11.11,0,0,1,.41,3.67V643"/><path class="cls-4" d="M976.74,590.69a2.3,2.3,0,0,1,.32-.15c.46-.21.92-.35,1.4-.52a12.51,12.51,0,0,1,1.5-.33,26,26,0,0,1,2.87-.69c.91-.09,1.82.1,2.73,0,.74-.08,1.47-.19,2.21-.27,1.18-.12,2.13-.91,3.29-1a9.22,9.22,0,0,0,2.6-.32,29.8,29.8,0,0,1,5.76-1.44,50.53,50.53,0,0,0,6.27-1.71c.65-.2,1.3-.27,1.93-.51a23.44,23.44,0,0,1,2.39-1c.76-.19,1.58,0,2.36-.21,1-.21,2.05-.46,3.07-.72,1.63-.42,3.34-.45,5-.85a22.56,22.56,0,0,1,2.48-.65c.75-.11,1.4-.46,2.15-.59,1.52-.26,3.47-.15,4.83-.91a3.56,3.56,0,0,1,2.12-.45,11.85,11.85,0,0,0,2.42-.51,17.18,17.18,0,0,0,2-.59,6.85,6.85,0,0,1,1.63-.26,6.35,6.35,0,0,0,1.34-.37,11.18,11.18,0,0,1,1.11-.38,3,3,0,0,1,.41-.09c.82-.18,1.65-.25,2.48-.47,3.06-.81,6.06-1.68,9.14-2.32,2.06-.43,4.06-.91,6.15-1.28.81-.15,1.57-.11,2.38-.31.36-.09.7-.17,1.05-.24a10.27,10.27,0,0,1,1.37-.19c.89-.06,1.73-.29,2.61-.34.59,0,1.19.07,1.78,0a6.58,6.58,0,0,0,1.07-.23,3.4,3.4,0,0,1,.65-.13h.37l1.11,0"/><path class="cls-4" d="M1040.07,576.69a1.76,1.76,0,0,0,.84-.53,11.6,11.6,0,0,0,1.67-2.81c1-1.95,2-3.75,3.17-5.6,1.5-2.47,2.71-5.09,4.44-7.43l.22-.3"/><path class="cls-4" d="M1072.05,568.82a.64.64,0,0,1,.32.46l-.28.07h0"/><path class="cls-4" d="M1050.41,560.35h-.2l0,0a3.58,3.58,0,0,0,1.86.88,13,13,0,0,1,2,.41,18.09,18.09,0,0,0,2,.59c1.43.39,2.82.88,4.27,1.25a14.51,14.51,0,0,1,1.77.76c.63.25,1.32.26,2,.48a13.09,13.09,0,0,1,2.62,1.23l0,0a17.21,17.21,0,0,0,2.63,1.41c.58.27,1.14.62,1.67.92a10.58,10.58,0,0,1,1,.47"/><path class="cls-4" d="M1049.91,560.85s.14-.2.35-.46l0,0a12.27,12.27,0,0,1,2.45-2.34c1.48-.81,3-1.53,4.42-2.41,1-.6,2-1.24,3-1.82a25.59,25.59,0,0,0,2.47-1.34c1.8-1.35,4-1.72,5.85-3.12a23.41,23.41,0,0,1,2.82-1.75l1-.57c.86-.53,1.88-.82,2.7-1.39a16.8,16.8,0,0,0,1.62-1.42c1.6-1.41,3.9-2,5.5-3.49"/><path class="cls-4" d="M1072.35,547.67c0,.15,0,.3,0,.44-.06.64-.25,1.27-.28,1.92-.11,2.76,0,5.57,0,8.34,0,.55,0,1.1-.05,1.64-.1,1.51-.28,3-.28,4.54,0,.78,0,1.55,0,2.33a13.43,13.43,0,0,0,.3,1.94h0a4.91,4.91,0,0,1,0,.53,1.88,1.88,0,0,1,0,.34"/><path class="cls-4" d="M1072.41,554.35c-.2.4-.12-4.64-.08-6.24,0-.22,0-.37,0-.44v0"/><path class="cls-4" d="M1062.07,571.35c0-.09,0-.18.07-.27l.54-.12c.13-1.55,2.44-2.83,3.33-4l.76-1c.69-.91,1.36-1.83,2.12-2.67a8.39,8.39,0,0,0,1.18-1.34,3.29,3.29,0,0,1,.65-.74c.32-.28.75-.7,1-.92,0-.22.07-.34.28-.34h.05a.45.45,0,0,0,.36-.18c0,.06,0,.13,0,.19"/><path class="cls-4" d="M1079.53,531.35h.19"/><path class="cls-4" d="M1079.72,531.35h-.15"/><path class="cls-4" d="M1079.72,531.35h0"/><path class="cls-4" d="M1079.07,530.69a1.24,1.24,0,0,0,.18.79,4.27,4.27,0,0,1,.32.7c.15.57.14,1.19.31,1.76a16.48,16.48,0,0,0,1,2c.52,1.08.44,2.35,1.14,3.36a15.63,15.63,0,0,1,1.34,2.26,26.43,26.43,0,0,0,1.75,3.44,9.54,9.54,0,0,0,1,1.27c.25.26.65,1,.84,1.06a8,8,0,0,0,.32-1c.17-.65.3-1.25.51-1.88a9.45,9.45,0,0,0,.58-3.16,6.16,6.16,0,0,0-.26-2.66,12.62,12.62,0,0,0-1.34-2.27,8.79,8.79,0,0,0-1.75-1.58c-.61-.44-1.33-.66-1.92-1.15-.2-.16-.29-.41-.47-.58a6.64,6.64,0,0,0-1.19-.75,5.36,5.36,0,0,0-1.74-.92"/><path class="cls-4" d="M1104.07,599.29v.06c0,.48,0,.92,0,1.34a14.51,14.51,0,0,0,.73,4.21,13.64,13.64,0,0,1,.61,1.43c.14.75-.09,1.21.29,2a7.57,7.57,0,0,1,.66,1.18c.15.45.17.93.35,1.37s.5.78.62,1.17-.07.89,0,1.35.46.6.63,1,.09.55.26.81.4.3.56.52.31.52.49.76.76,1.2,1,1.22c.18-.82.5-1.63.67-2.46a17.36,17.36,0,0,0,0-1.76,14.36,14.36,0,0,0,.38-1.7,2.85,2.85,0,0,0-.28-1,7.07,7.07,0,0,1-.07-1.37,1.83,1.83,0,0,0-.32-1,1.88,1.88,0,0,1-.63-1c0-.27,0-.54-.08-.82-.22-.59-.87-.9-1.3-1.37a18.69,18.69,0,0,0-1.69-1.64c-1-.87-1.62-3.12-2.6-4.06,0,.07,0,1.15,0,1.23"/><path class="cls-4" d="M1115.37,667.14c-.41-.29-.76-.66-.63-1.12"/><path class="cls-4" d="M1115.37,667.14a3.37,3.37,0,0,1-.29.93,8.64,8.64,0,0,0-.68,3.62c0,1.82,0,3.65,0,5.48s-.34,3.42-.34,5.18a8.69,8.69,0,0,1,0,1.69c-.11.46-.58.65-.29,1.21.53-.27.54-.86.92-1.25a7.7,7.7,0,0,1,1.28-.73,3,3,0,0,0,.83-.92,9.19,9.19,0,0,0,.84-1.13A10.91,10.91,0,0,1,1118,680a1.07,1.07,0,0,1,.34-.36,10.31,10.31,0,0,0,.69-1.52,8.49,8.49,0,0,0,.39-3.43c-.14-.78-.39-1.53-.6-2.36s.19-1.63-.14-2.24c-.16-.31-.64-.64-.85-1a4.18,4.18,0,0,0-1.66-1.49A8.49,8.49,0,0,1,1115.37,667.14Z"/><path class="cls-4" d="M1115.41,666.69v-.22a4.3,4.3,0,0,1,0,.67"/><path class="cls-4" d="M1054.07,639.69a4.75,4.75,0,0,1,.5-2.28,25.63,25.63,0,0,0,1.08-3.66c.27-1.09,1-1.94,1.2-3a9.61,9.61,0,0,1,.45-2.33c.23-.51.63-.86.88-1.35a19,19,0,0,0,1-3.19c.26-.87.8-1.61,1.12-2.46s.92-1.67,1.23-2.59a7.9,7.9,0,0,0,.59-1.84.09.09,0,0,0,0-.05,1.11,1.11,0,0,0-.42-.43,7.8,7.8,0,0,0-1.08-.59c-.86-.37-1.79-.12-2.69-.51a21.11,21.11,0,0,1-4-2,14.16,14.16,0,0,0-2.61-1.31c-.51-.23-.91-.59-1.45-.83a15.28,15.28,0,0,1-2.27-1.18l0,0"/><path class="cls-4" d="M1061.74,616.35c.09-.42.78-1,1.06-1.37,1-1.27,1.88-2.63,3-3.9s1.48-2.35,2.33-3.56c.56-.81,1.34-1.38,1.94-2.15.38-.49.67-1,1.05-1.54a24,24,0,0,1,3-2.8c1-1,2-1.86,3-2.77a6.09,6.09,0,0,0,.94-1.23,12.33,12.33,0,0,1,1.46-1.43,10.1,10.1,0,0,0,.89-1.09,2.82,2.82,0,0,1,.41-.43,5.8,5.8,0,0,1,1.26-.73"/><path class="cls-4" d="M1062.63,616.68a4.66,4.66,0,0,0,1.94,1.38c1.21.5,1.65,1.58,2.75,2.3s2.54,1.23,3.75,2,2.47,1.24,3.67,2a16.16,16.16,0,0,0,1.84.86c.64.3,1.2.78,1.83,1.13,1.36.74,2.32,2.06,3.67,2.86,1,.56,1.76,1.22,2.73,1.79a17.68,17.68,0,0,0,1.94,1.11c.34.15.89.29,1,.67a.55.55,0,0,1,0,.26,2.11,2.11,0,0,1-.74.32,2,2,0,0,1-.6,0h-.17l-.21,0"/><path class="cls-4" d="M1062.41,616a1.17,1.17,0,0,0,.21.66"/><path class="cls-4" d="M1062.07,617l0-.08c0-.06,0-.13,0-.2a1.65,1.65,0,0,1,.49-.06h0a5.9,5.9,0,0,0,.94,0,26.42,26.42,0,0,0,3.51-1,36.87,36.87,0,0,1,7-2c1.32-.15,2.53-.61,3.81-.88s2.17-.85,3.35-1.1c.24-.05.49-.09.74-.12a14.5,14.5,0,0,0,2.54-.43l.26-.08a18.09,18.09,0,0,1,3.76-1.33c1-.13,2-.18,3-.35a20.35,20.35,0,0,0,2.78-1c.86-.31,1.68-.12,2.5-.34.22-.06.22-.21.44-.28a10.58,10.58,0,0,1,1.38,0,6.11,6.11,0,0,0,1.73-.54,10.74,10.74,0,0,1,1.36-.51,11.89,11.89,0,0,1,3.31-.63"/><path class="cls-4" d="M1082.07,593.69h-.21c.64-.15.52.41.55.84a10.6,10.6,0,0,0,.33,2c.42,1.85.42,3.72.73,5.59,0,.21.06.41.1.62a22,22,0,0,1,.5,4.65,5,5,0,0,0,.08,1.23,6.43,6.43,0,0,1,.27.73,12.34,12.34,0,0,1,0,1.36"/><path class="cls-4" d="M1088.07,632.18a3.38,3.38,0,0,0-.17-.51c-.34-1-.8-2-1.15-3-1-2.73-1.84-5.55-2.6-8.34-.2-.73-.47-1.47-.73-2.22a15.29,15.29,0,0,1-.7-2.54,14.27,14.27,0,0,0-.22-1.56,5.45,5.45,0,0,1-.43-2"/><path class="cls-4" d="M1088.07,632.23v.36a.73.73,0,0,0,0-.36"/><path class="cls-4" d="M1088.07,632.23a0,0,0,0,0,0,0"/><path class="cls-4" d="M1088.07,632v.16"/><path class="cls-4" d="M1039.41,576.69a8.68,8.68,0,0,0,.41,2.2c.23,1.68.83,3.17,1.18,4.8s.85,2.85,1.16,4.32a24,24,0,0,0,1.26,4.34,38,38,0,0,1,1.13,3.67c.42,1.46.26,3,.72,4.51.21.7.61,1.35.75,2.07.09.48.07,1,.13,1.45a3,3,0,0,0,.11.64c.2.71.62,1.34.76,2.08s.07,1.42.2,2.12a9.26,9.26,0,0,0,.3,1.15,17.42,17.42,0,0,1,.82,2.66c.23,1.44.56,2.82.83,4.26.33,1.68.48,3.32.91,5a35.4,35.4,0,0,1,.92,4.56,12.26,12.26,0,0,0,.27,2.18,7.61,7.61,0,0,1,.48,1.92,12,12,0,0,0,.63,3.15,9,9,0,0,1,1,2.76c.08,1.07.49,2.09.62,3.16,0,.11,0,.22,0,.33"/><path class="cls-4" d="M1086.66,633.37h.75"/><path class="cls-4" d="M1086.43,633.38h.21"/><path class="cls-4" d="M1054.41,640.35a.74.74,0,0,0,.33,0c.29,0,.51-.25.83-.31a8.28,8.28,0,0,1,1.22,0,21.2,21.2,0,0,0,3.93-.78,9.8,9.8,0,0,1,2.35-.22,9.56,9.56,0,0,0,3-1c1.58-.56,3.12-.69,4.7-1.38,1.42-.62,2.94-.06,4.39-.62,1.83-.72,3.75-1.05,5.61-1.69a37.21,37.21,0,0,1,3.73-.66,11.41,11.41,0,0,1,1.78-.3h.14"/><path class="cls-4" d="M1046.41,604c.21-1,1.32-.55,2-.72a29,29,0,0,1,2.9-1,7.06,7.06,0,0,0,2.46-.64,8,8,0,0,1,3.26-1,9.7,9.7,0,0,0,3.51-.91,26.53,26.53,0,0,1,3.53-1.17c.95-.27,1.74-.76,2.72-1,1.94-.48,3.82-1.16,5.76-1.66a33.67,33.67,0,0,0,3.94-1.18,3.49,3.49,0,0,1,1-.25c.72-.08,1.41,0,2.19-.15a7.51,7.51,0,0,0,1.06-.28,7.61,7.61,0,0,0,.93-.39"/><path class="cls-4" d="M1054.74,640.35h0c0,2.69.84,5.13,1.26,7.74.15,1,.25,1.9.48,2.85.07.28.23.37.26.79a3.15,3.15,0,0,0,.6,2.2l0-.09"/><path class="cls-4" d="M1086.43,633.38a.5.5,0,0,0,.21,0h0l.08,0"/><path class="cls-4" d="M1086.07,633l.06.28a.6.6,0,0,0,.29.08"/><path class="cls-4" d="M1086.07,633a4,4,0,0,1,.35.36h0a0,0,0,0,1,0,0l.29.29"/><path class="cls-4" d="M1087.07,631.69c.12.38.28.24.5.54a2,2,0,0,1,.26.46.14.14,0,0,1,0,.06,4.48,4.48,0,0,1,.22.86c.25,1.07.84,2,1.1,3.09.12.49.15,1.09.3,1.56s.44.69.54,1.08a13.92,13.92,0,0,0,.39,1.75,9.76,9.76,0,0,1,.52,1.61,33.5,33.5,0,0,0,2,5.49,21.67,21.67,0,0,1,.88,3.55c0,.07,0,.15,0,.22l.27.06"/><path class="cls-4" d="M1057.37,653.83v0a.86.86,0,0,0,.25.57c.14.17.31.32.43.48.86,1.21,2.1,1.81,3.14,2.86a9.53,9.53,0,0,1,1,1.47,3.91,3.91,0,0,0,.36.47c.46.5,1.07.84,1.55,1.32,1,1,1.6,2.42,2.65,3.37.33.31.78.45,1.08.78s.52.82.87,1.18c.5.52,1.28.77,1.75,1.25.3.31.35.69.62,1s.74.5,1,.79c.67.74,1.25,1.51,2,2.25l0,0"/><path class="cls-4" d="M1057.74,654a.58.58,0,0,1-.37-.19h0a.65.65,0,0,0,0-.13"/><path class="cls-4" d="M1074,671.81h0l.34-.31c1.29-1.17,4.32-3.77,5.18-4.62,1.34-1.32,2.4-2.87,3.72-4.19.93-.94,2.13-1.36,3.09-2.3.62-.61,1.34-1.07,2-1.65a4.93,4.93,0,0,0,.58-.64c.27-.33.51-.67.8-1a32.22,32.22,0,0,1,2.75-2.48c.42-.38.77-.83,1.19-1.21.14-.12.31-.23.48-.35a1.17,1.17,0,0,0,.55-.68c-.21-.06-.31,0-.29.31"/><path class="cls-4" d="M1062.07,659.35a.34.34,0,0,1,.12-.12c.59-.49,1.92-.17,2.6-.19a19.11,19.11,0,0,0,2.63-.67c.71-.1,1.33-.09,2-.25a44.67,44.67,0,0,0,5.09-1.43c1.6-.59,3.31-.49,4.86-1.17,1-.43,2-.82,3.06-1.16a40,40,0,0,1,5-1.27c.34-.06.66,0,1-.06.51-.09,1-.3,1.48-.35a4.7,4.7,0,0,0,1.65-.32,12.68,12.68,0,0,1,1.91-.58l.3,0a2.49,2.49,0,0,1,.47,0l-.15.29"/><path class="cls-4" d="M1074.07,672a.83.83,0,0,1,0-.22s0-.09,0-.13a.71.71,0,0,1,.09-.28,1.22,1.22,0,0,0,.24.1c1.16.45,2.6,0,3.86.23a13.24,13.24,0,0,0,1.5.31c.5,0,1,0,1.5,0,1,0,2.16.19,3.19.32s2.21.44,3.33.61c.91.13,1.82,0,2.72,0a23.08,23.08,0,0,0,2.63.35,12.21,12.21,0,0,0,2.34-.07,4.44,4.44,0,0,1,1.3-.28c.38,0,.72.33,1.16.37a11.27,11.27,0,0,0,1.16,0,14.33,14.33,0,0,1,2,.37,1.6,1.6,0,0,0,.53,0h0a13.86,13.86,0,0,1,1.35-.33c.33,0,.71,0,1,0a7.77,7.77,0,0,0,1.6-.07c.34-.06,1-.44,1.34-.21s.28.53.73.64a8.82,8.82,0,0,0,1,0c.6.06,1,.25,1.67.33s1.13.52,1.82.65a5.84,5.84,0,0,1,1.83.36"/><path class="cls-4" d="M1082.41,653.69l-.31.06a.84.84,0,0,0,.37.61,7.6,7.6,0,0,0,1.45.7,57.46,57.46,0,0,1,5,3c.29.19.59.37.89.54.76.43,1.64.59,2.39,1.06.46.29.77.71,1.19,1s3.06,1.26,4.32,2c.38.23.64.45.69.63"/><path class="cls-4" d="M1093.41,651.69a.36.36,0,0,0,0,.09c.14.37.43.7.61,1.08l.09.2c.42.89.75,1.82,1.09,2.74.83,2.29,1.79,4.58,2.48,6.92.14.42.25.83.36,1.25.39,1.57,1,3,1.32,4.64a7,7,0,0,0,1,2.34,11.58,11.58,0,0,1,1.24,2.73v0c0-.1,0-.21.07-.32"/><path class="cls-4" d="M981.41,655.69c.46.09,1.16.8,1.59,1.08a20.8,20.8,0,0,0,2.65,1.5c1,.46,2,1,3,1.49a8.25,8.25,0,0,1,1.54,1.19,8.71,8.71,0,0,0,1.57,1.22c1.46.83,3,1.65,4.51,2.33a27.91,27.91,0,0,1,2.79,1.54,14.44,14.44,0,0,0,2.72,1,11.62,11.62,0,0,1,3.59,1.42,4.53,4.53,0,0,0,1.35.85c.58.18.63,0,1.12-.18.89-.25,1.8-.27,2.7-.56,1.07-.35,2.12-.89,3.21-1.13,1.77-.39,3.39-1,5.14-1.56a28.48,28.48,0,0,1,4.16-1.2,20.73,20.73,0,0,0,5-1.62c3.16-1.32,6.42-2.28,9.63-3.34,2.4-.8,4.75-1.57,7.19-2.17.31-.08.63-.17.94-.28a13.53,13.53,0,0,1,3.26-.89c1-.07,1.75-.2,2.67-.33a24,24,0,0,0,3.36-.66,7.42,7.42,0,0,1,2.25-.67h.06"/><path class="cls-4" d="M1046.41,644a10.55,10.55,0,0,1-.08,2,23.69,23.69,0,0,0-.26,4.61c0,.94,0,1.89,0,2.83,0,1.2-.43,2.33-.33,3.53"/><path class="cls-4" d="M994.07,658c.13.52-.35.85-.57,1.27s-.29,1-.47,1.43"/><path class="cls-4" d="M978.41,598.35c0,.12,0,.23,0,.34a8.06,8.06,0,0,1-1,3.58,17.46,17.46,0,0,0-.73,2.76,14.82,14.82,0,0,0-.58,2.5,12.51,12.51,0,0,1-1.35,3.41c-.25.51-.37,1-.57,1.5s-.43,1.5-.75,1.58"/><path class="cls-4" d="M986.57,623.35a14.26,14.26,0,0,0,2.39-.63,12,12,0,0,1,2.47-1,118.22,118.22,0,0,0,16.45-4.92c3.27-1.16,6.54-2.3,9.86-3.26,1.41-.4,2.56-1.27,4-1.47a23.1,23.1,0,0,0,3.59-1c2.35-.75,4.75-1.24,7-2.08,1.65-.61,3.37-.87,5-1.31l.67-.19c.66-.2,1.34-.55,2-.69.49-.1,1.3.13,1.65-.25a.63.63,0,0,0,.67.19"/><path class="cls-4" d="M1036.42,586a1.86,1.86,0,0,1,0,.34,6,6,0,0,0,.09,1.18c.09.32.16.63.22.95.43,2.23.27,4.49.55,6.76a55.25,55.25,0,0,1,.08,6.81,14.84,14.84,0,0,0,0,2.83,9.69,9.69,0,0,1,.3,2.15"/><path class="cls-4" d="M1037.41,607.35a2.53,2.53,0,0,0,0,.28,7.16,7.16,0,0,0,.65,2.63c.63,1.57,1.19,3.24,1.76,4.85.45,1.26.76,2.58,1.22,3.83.24.5.48,1,.71,1.5s.29,1,.39,1.54a5,5,0,0,1,.59,1.31,44.62,44.62,0,0,0,1.67,5.73c.52,1.63,1.28,3.1,1.66,4.77a16.61,16.61,0,0,0,1.66,4c.81,1.54,2.19,3.06,2.34,4.85"/><path class="cls-4" d="M1071.74,571c0-.07,0-.15,0-.22a2.51,2.51,0,0,1,.34,1.59c0,1.4.66,2.73.86,4.12a12.58,12.58,0,0,0,.68,3.86,7.24,7.24,0,0,1,.76,1.62c.12.57,0,1.12.11,1.7a7,7,0,0,0,1,2.26c.32.58.17.82.3,1.4a13.71,13.71,0,0,0,1.2,2.35,7.81,7.81,0,0,1,.49,3.32"/><path class="cls-4" d="M1083.41,602.35l.06-.25v0c1.12-.09,2.54-1.54,3.24-2.22a24.64,24.64,0,0,1,4.37-3.51,24.45,24.45,0,0,0,3.37-2.61c.35-.32,1.47-1.45,1.91-1.36a13.33,13.33,0,0,0,.45,1.92c.48,1.44.67,2.94,1.13,4.37a23.27,23.27,0,0,1,1,3.76,15.38,15.38,0,0,0,.56,2.12c.15.49.18,1,.34,1.53a7.12,7.12,0,0,0,.52,1.08,3.47,3.47,0,0,1,.29.73c.12.45.13,1,.22,1.47.15.87.39,1.73.51,2.6s.44,1.54.58,2.37c.09.53,0,1.08.14,1.61a14.06,14.06,0,0,1,.6,2.08"/><path class="cls-4" d="M1083.74,618c3.5,0,7.26-.41,10.68.26a26.79,26.79,0,0,0,5,.07,11.34,11.34,0,0,1,2.18,0c.44.09.66.25,1,.31a1.8,1.8,0,0,0,.43,0"/><path class="cls-4" d="M885.74,655.69c-.56,1.1-.74,1.07-.18,2.18.41.81.89,1.57,1.32,2.48.51,1.11,1.69,1.51,2.16,2.4a14.34,14.34,0,0,1,.49,1.65,7.76,7.76,0,0,1,.18.87c0,.36-.57.65-.67,1a5.74,5.74,0,0,0,0,1.37c0,1.11,0,2.22,0,3.33a11.66,11.66,0,0,0,0,1.67c.06.43.58,1.4.58,1.7,0,1-1,1.36-.42,2.56.77-.12,1.73-1.34,2.51-1.76,1.12-.6,2.32-.86,3.35-1.51.37-.23.78-.63,1.15-.85a9.07,9.07,0,0,0,1.4-.59c1.21-1.66-.69-2.82-1.57-3.62-.52-.47-.79-1.18-1.31-1.63-.33-.29-1.08-.45-1.28-.69a2.31,2.31,0,0,1-.44-1.46c0-.72,0-1.52,0-2.15s0-1.21,0-1.82a61.53,61.53,0,0,1,.07-6.93c-.51.63-1.93.68-2.72,1.08a6.41,6.41,0,0,1-1.44.7c-.81.21-1.65-.32-2.45.08,0,.18-.07.37-.1.55"/><path class="cls-4" d="M887.07,663.69l.18-.05.43-.11c-.2-1.28-1.27,0-1.91.19-1.06.25-2.33.06-3.34.3s-2.49.3-3.7.66c-1,.29-1.92,1-2.91,1.16a33.73,33.73,0,0,1,1.77,3.83c.72,2.48.56,3.31,2.65,1.35a31.55,31.55,0,0,1,4.16-3.83c1.11-.74,1.91-2,3.11-2.57a2.69,2.69,0,0,1,.9-.27"/><path class="cls-4" d="M891.07,661a15.6,15.6,0,0,0,2-.15,24.57,24.57,0,0,0,3.21-.68c1.74-.47,3.36-.22,5.09-.56.69-.13.79-1,1.76-.67s.43.81.69,1.66c.48,1.52.85,3.29,1.21,5-2.13.55-4.68-.1-6.76-.42-1.7-.27-3.4,0-5.09-.3l-.14,0a9.68,9.68,0,0,0-3.28-.49"/><path class="cls-4" d="M906.07,641.85c-.2,1.08,1.4,2.15,1.86,3a8.49,8.49,0,0,1,.61,2.14c.59,2.11,2.17,4.51,3,6.54a24.84,24.84,0,0,1,2.21,6.3c.16,1.14-.19,2,.24,3.16.6,1.65,1.7,2.84,1.72,4.69"/><path class="cls-4" d="M915.74,668.35c.91,3,1,6,1.65,9"/><path class="cls-4" d="M858.41,655.69h.34c.92-.73,2.56-.79,3.8-1.15,3.15-.91,6.32-1.69,9.37-2.88,1.52-.59,3.12-.72,4.65-1.28s3-1.37,4.57-1.9c2-.69,4.1-1.27,6.13-2s3.83-.63,5.67-1.32a44.43,44.43,0,0,1,4.83-1.53,17.36,17.36,0,0,0,3.64-1.6c1.38-.66,3.06-.33,4.61-.77l-.28.39"/><path class="cls-4" d="M857.74,655c0,.22,0,.45,0,.68.24,6.86,4.27,12.92,5.26,19.66a18.3,18.3,0,0,0,.73,4.08,11.79,11.79,0,0,1,.65,4.24c0,2.33,1,4.39,1.52,6.62.4.09.56-.11.5-.61"/><path class="cls-4" d="M867.07,689.69l.15.59a33.08,33.08,0,0,1,3.84-1.8c1.11-.32,2.17-.06,3.28-.52a15.6,15.6,0,0,1,3.21-1.1c3.92-.81,7.63-1.83,11.56-2.59,2.65-.51,5.2-.81,7.83-1.44,2.06-.48,4-1.27,6.12-1.64S916.43,678,917.2,678c0,0,0,0,0,0"/><path class="cls-4" d="M913.74,647.69a7.62,7.62,0,0,0,.78,3.21,38.53,38.53,0,0,1,2.55,11.45"/><path class="cls-4" d="M917.74,648.35v-1.13c-.2,1.54.45,3.56.78,5,.81,3.52,2,6.45,1.89,10.13"/><path class="cls-4" d="M920.41,646.35l.55.11c1.45,5.63,4.81,11.94,3.45,17.89"/><path class="cls-4" d="M841.07,699.69c1.87.25,2.89-1,4.66-1.31a26,26,0,0,1,2.79,0,14.73,14.73,0,0,0,3.9-1.05c2.87-1,5.8-1,8.67-2a54.53,54.53,0,0,1,8.65-2.19c2.89-.47,5.73-1.17,8.61-1.66s5.89-1.64,8.76-1.83c2.42-.16,4.6-1,7-1.43s4.67-.27,7-.71a26.19,26.19,0,0,0,6.86-2.58c1.84-.91,3.77-.41,5.68-1.1a45.14,45.14,0,0,1,4.73-1.87c1.27-.31,2.53-.61,3.76-1,3-1,5.88-2.34,8.92-3.28,1.11-.34,2.31-.42,3.41-.81.72-.25,1.33-.83,2-1.07"/><path class="cls-4" d="M938.6,678s9.21-5.65,12.67-7.92l.65-.43c4-2.69,7.7-5.66,11.4-8.7l1.72-1.41c2.76-2.28,5.2-4.81,8-6.92.44-.33.88-.65,1.34-1,1.61-1.07,2.33-2.62,4-3.51a21.05,21.05,0,0,0,3.66-2.65"/><path class="cls-4" d="M941.74,669.69c.77-.15.57-.48,1.14-.84a15.84,15.84,0,0,1,2.18-1.13,26,26,0,0,0,5.12-3.86c.54-.45,1.07-.87,1.62-1.25,3.45-2.36,7-4.51,10.44-6.95,1.25-.88,2.47-1.8,3.65-2.79,1.57-1.31,3.28-2.28,4.9-3.49a16,16,0,0,0,1.68-1.5,15.86,15.86,0,0,1,1.9-1.71c1.28-.91,2.68-1.88,4.05-2.67,1.12-.64,1.86-2.15,3.32-1.81"/><path class="cls-4" d="M1001,593.39a.61.61,0,0,1,.14.16,16.83,16.83,0,0,1,1.42,2.79,18.58,18.58,0,0,1,.54,2.65,30,30,0,0,0,1.15,3.26c.73,2.47,1,5,1.61,7.43.22,1,1,1.77,1.22,2.64.12.55-.16,1.17-.06,1.73s.47.81.54,1.12c.14.63.19,1.11.29,1.58a4.54,4.54,0,0,0,.36,1.1,8.54,8.54,0,0,1,.85,2.49c.08.41-.19.9-.09,1.31.26,1.06,1.19,1.69,1.48,2.74.1.38-.19.87-.11,1.26.22,1,.63,2,.89,3a35.4,35.4,0,0,1,1.18,5,26,26,0,0,0,.3,3.67c.46,1.92,1.32,3.44,1.65,5.33.42,2.41,1.64,5.15,1.35,7.67"/><path class="cls-4" d="M1001,593.39l0,0S1001,593.38,1001,593.39Z"/><path class="cls-4" d="M1001.74,593a1.12,1.12,0,0,0-.71.37"/><path class="cls-4" d="M750.11,771.39C781.54,764.82,811.91,753,843,745c51.88-13.31,102.2-31.42,153.79-45.63"/><path class="cls-4" d="M642.11,717.39c12.7-2.43,25.64-7.76,38.09-11.45,19.52-5.79,38.91-12.2,58.55-17.56,19.06-5.21,38-10.92,57.34-15.16,17.79-3.92,37.54-5.29,54.69-11.15"/><path class="cls-4" d="M679.45,718.72c5.76-3.25,12.87-3.85,19.21-5.6,15.17-4.19,30-9.41,45.29-13.24,14.26-3.58,28.08-8.35,42.29-12.13,17.47-4.65,37.34-7.21,53.88-14.35"/><path class="cls-4" d="M776.78,660.72c17.93-2,35.67-8.94,53.33-12.67"/><path class="cls-4" d="M889.45,602.72c19.57-7,40.66-11.68,60.78-17.15,20.48-5.57,43.4-6.67,63.22-13.52"/><path class="cls-4" d="M1074.78,671.39c-15.91,4.25-32.78,5.94-49.33,7.33"/><path class="cls-4" d="M914.11,715.39c29.93-10,61.85-15,91.33-26"/><path class="cls-4" d="M742.78,728.72c20.68-3.79,41.63-12.83,62-18.55,8.13-2.28,16.7-5.09,24.64-6.78"/><path class="cls-4" d="M760.11,704.72c-11.82-1.75-13.29-16-19.48-23.25-12.17-14.17-41.72-14.51-57.3-7.66-12.77,5.62-21.08,15.59-19.29,30.2,2,16.49,17.58,26.51,32.74,29.82,7.88,1.72,21.09,1.66,20.82-9.9-.31-13.26-25-17.67-35.09-16.64-21.81,2.23-30.76,26.84-48.11,37.75-16.29,10.24-37.83,13.74-56.38,8.76-15.84-4.25-52.83-26.67-37-48.57,5.35-7.39,22.29-10.89,30.52-10.63,9.95.32,20,5.45,25.62,13.81,10.69,16,.41,34.76-13.18,44.6-18.16,13.16-42.22,26.38-64.63,29.6-25.22,3.62-54.08-13.6-74.53-26.73-34.23-22-103.23-23.65-121.69,20.57-4.3,10.29-4.87,23.33-4.22,34.37.8,13.46,9.31,21.48,20.45,28.23,20.07,12.15,57.46,6,52-24-6.44-35.37-39.51-50.54-72.61-51.55-17-.52-33.59,0-50.3,3.26-9.11,1.79-22.56,10.14-31.72,7.3"/></g></g></svg>