<svg id="home-empathize" xmlns="http://www.w3.org/2000/svg" xmlns:xlink="http://www.w3.org/1999/xlink" viewBox="0 0 510 576"><defs><style>.cls-1{fill:#fff;}.cls-2{fill:#b3d9f5;}.cls-3{fill:#6ebcf5;}.cls-4{fill:#855b33;}.cls-5{fill:#333;}.cls-6{fill:#fff2e6;}.cls-7{fill:none;stroke:#333;stroke-linecap:round;stroke-linejoin:round;stroke-width:2px;}</style><symbol id="New_Symbol" data-name="New Symbol" viewBox="0 0 4 4"><circle cx="2" cy="2" r="2"/></symbol></defs><title>design-thinking</title><rect class="cls-1" width="510" height="576"/><use width="4" height="4" transform="translate(41.23 37.63)" xlink:href="#New_Symbol"/><use width="4" height="4" transform="translate(253.74 37.57)" xlink:href="#New_Symbol"/><use width="4" height="4" transform="translate(462.5 46.7)" xlink:href="#New_Symbol"/><use width="4" height="4" transform="translate(370.74 130.89)" xlink:href="#New_Symbol"/><use width="4" height="4" transform="translate(188.66 39.03)" xlink:href="#New_Symbol"/><use width="4" height="4" transform="translate(125.55 117.41)" xlink:href="#New_Symbol"/><use width="4" height="4" transform="translate(79.98 218.03)" xlink:href="#New_Symbol"/><use width="4" height="4" transform="translate(232.54 321.94)" xlink:href="#New_Symbol"/><use width="4" height="4" transform="translate(408.25 400.38)" xlink:href="#New_Symbol"/><use width="4" height="4" transform="translate(440.05 320.45)" xlink:href="#New_Symbol"/><use width="4" height="4" transform="translate(402.36 228.7)" xlink:href="#New_Symbol"/><use width="4" height="4" transform="translate(190.24 388.44)" xlink:href="#New_Symbol"/><use width="4" height="4" transform="translate(48.84 404.74)" xlink:href="#New_Symbol"/><use width="4" height="4" transform="translate(112.28 245.6)" xlink:href="#New_Symbol"/><path class="cls-2" d="M353.2,295.69l1.45,2.9a13.47,13.47,0,0,1-2.81,1.42c-3.64,1.39-8.13,1.58-12.32,1.45a2.82,2.82,0,0,0-.16-0.71,1.62,1.62,0,0,0-.87.68c-0.58,0-1.16,0-1.74-.06-1.77-14.13-3.84-27.84-8.77-41.16-3.35-9.13-7.55-17.77-11.68-26.61-0.52-1.13-1.13-2.26-1.77-3.42l5-1.71a3.5,3.5,0,0,0,.58,1,19,19,0,0,1,2.64,3.32c1.1,1.94,1.58,3.94,2.84,5.71a13.69,13.69,0,0,0,6.61,5c8.32,3.42,10.58-10.06,8.1-15.58l1.55-.55A147.52,147.52,0,0,1,349.62,258C351.33,270.62,353.2,282.88,353.2,295.69Z"/><path class="cls-3" d="M339.52,301.46c4.19,0.13,8.68-.06,12.32-1.45l0.65,1.45a23.66,23.66,0,0,1,0,4,20.24,20.24,0,0,0-.77,2.48c-0.16,1.23.16,2.39-.13,3.61s-1.13,2.35-1.32,3.61,0,1.9-.48,3a26.33,26.33,0,0,0-1.64,4.19c-0.45,1.68-1.19,2.32-2,3.71-0.68,1.13-1,2.61-1.61,3.84a35,35,0,0,1-4.64,6.84c-1.64,1.9-4.06,3.58-4.74,0a7.56,7.56,0,0,1,.58-3.61,37.17,37.17,0,0,1,1.06-4.35c1-2.45,2.74-5.06,1.84-7.81-1.32.39-4.58,4.52-5.68,2.13-0.87-2,1.13-5.52,1.55-7.23,0.16-.71-0.26-1.52-0.1-2.23,0.13-.52.58-0.65,0.71-1.13a20.07,20.07,0,0,1,1.55-3.9c0.58-1.42.61-5.52,1.81-7.23C338.81,301.46,339.17,301.46,339.52,301.46Z"/><path class="cls-2" d="M302.14,205.63H302a13.87,13.87,0,0,0-1.39,2.39,16.85,16.85,0,0,1-3.06-3.19c-1.55-1.84-2.06-4.06-3.45-5.9s-2-2.74-2.23-5.23c-0.19-2.32-1.55-4.1-1.64-6.45s0-4.55.06-6.84c0-2.74-1.26-4.68-.23-7.32,0.65-1.61.94-3.16,1.58-4.84,0.48-1.19,2.23-2.64,1.84-4l4.81-.9a86.38,86.38,0,0,1,12.48,8.19c7.93,6.26,11.32,16.71,16.45,25.42a187.76,187.76,0,0,1,14.58,30.38l-1.55.55c-1.23-2.68-2.35-6.1-4.23-8.64a25.65,25.65,0,0,0-2.84-2.77,4.27,4.27,0,0,0-1.77-1.45c-0.81-.29-2.1.16-2.39-0.81l-0.06,0c-0.52,2.48-4,1.23-5.64,1.55-1.9.39-3.48,2.32-4.23,3.9a9,9,0,0,0-.65,5,13.42,13.42,0,0,0,1,3.71l-5,1.71C310,222.31,303.08,213.89,302.14,205.63Z"/><path class="cls-2" d="M340.3,227.92c2.48,5.52.23,19-8.1,15.58a13.69,13.69,0,0,1-6.61-5c-1.26-1.77-1.74-3.77-2.84-5.71a19,19,0,0,0-2.64-3.32,3.5,3.5,0,0,1-.58-1,13.42,13.42,0,0,1-1-3.71,9,9,0,0,1,.65-5c0.74-1.58,2.32-3.52,4.23-3.9,1.68-.32,5.13.94,5.64-1.55l0.06,0c0.29,1,1.58.52,2.39,0.81a4.27,4.27,0,0,1,1.77,1.45,25.65,25.65,0,0,1,2.84,2.77C337.94,221.82,339.07,225.24,340.3,227.92Z"/><path class="cls-2" d="M280.14,86.74c20.77,1.06,35.54,23.58,32.67,43.22-1.55,10.48-8.87,27.61-20.87,26.64l-0.68-.16a5.38,5.38,0,0,0-.23-4c-1.45-2.42-6.45-3.9-11-4.52l1.06-2.87c3,1.32,8.35.81,12.16,0.61,1.61-8.71,8.16-15.1,8-24.38a29.05,29.05,0,0,0-.68-5.74c-2.23-10.64-10-20.64-20.8-20.64Z"/><path class="cls-1" d="M229.15,252a1.05,1.05,0,0,1-.45.35c-0.06-1.16-.13-2.35-0.13-3.55-0.16-6.55.13-13.61-1.32-19.55a4,4,0,0,0,.58-0.61l0.06-.71c9.81,1,20.32,1.94,30.09,1.32,0-.19,0-0.42,0-0.61h0.06c4.68-1.94,12.9,1.55,17.9,2a54.79,54.79,0,0,0,.58-8.35l1.64,0c4.13,0.06,7.26,1.64,11,3.13,1.64,0.65,3.74,1,5.19,1.68,1.29,0.65,3.23,2.9,4.81,2.45l0.71-.13c1.55,7.87,3.74,15.84,3,22.67l0.35,0c1,0.55,2.13.45,3.06,1a10.47,10.47,0,0,1,1.13,1.26c0.29,0.23,1.1.06,1.32,0.32,0.87,1.19.32,6.84,0.16,8.32a31.33,31.33,0,0,1-2.35,7.32c-0.55,1.39-2.87,6.13-4.77,5.9-0.06-.23-0.1-0.48-0.16-0.71l-1,.13c-0.26-3-1.48-5.9-1.42-8.81l-1.9-1.39a3.29,3.29,0,0,0,1.06-.16c0.16-1.48.74-2.74,0.84-4.23,0.06-1.13-.48-2.81.42-3.64l0.06-.19c-0.68-.23-1.35-0.52-1.94-0.65a24,24,0,0,1-3.61-1.26c-0.71-.32-1.48-1.1-2.16-1.35-0.48-.16-1,0-1.48-0.1-1-.29-2.06-0.71-3.16-1.06a17.18,17.18,0,0,0-5.26-1.1,30.28,30.28,0,0,1-5.1-.71,26.8,26.8,0,0,0-4.9-.71c-1.52-.1-2.74-0.71-4.26-0.77-3.48-.13-6.35-0.71-9.87-0.71-1.52,0-3,0-4.52,0-1.87,0-3.58.68-5.45,0.74-1.55.06-2.77,0.58-4.29,0.74s-3-.16-4.48.13c-1.74.32-3.48,1.13-5.23,1.29-1.16.13-2.42-.39-3.42,0.42-0.19-.16-0.39-0.29-0.55-0.42l-0.26-.1a1.43,1.43,0,0,0-.19.52Z"/><path class="cls-2" d="M261.08,320l-1.55,2.32c0.1,1.55-1,2.71-1.29,4.16-0.29,1.29-.16,2.48-0.55,3.81-1.26,4.23-2.61,8.32-3.74,12.58-0.81,3.06-2.35,5.84-3.06,8.77a109.61,109.61,0,0,1-4,11.74c-1.26,3.29-2.48,6.77-3.94,10s-2.23,6.74-3.58,10-2.32,7-3.87,10.32c-1.42,3.1-1.9,6.32-3.52,9.39-1.13,2.13-2.23,4.29-3.23,6.48a55.44,55.44,0,0,1-3.77,7.9c-1.19,1.77-1.64,3.55-2.71,5.35a48.47,48.47,0,0,0-2.9,7.06c-3.1,8.13-6.32,16.1-8.48,24.42-0.32,1.26-.55,2.61-0.87,3.68s-0.58,2.29-.9,3.45c-0.42,1.55-1.35,2.77-1.84,4.32-0.42,1.32-.29,2.55-0.84,3.77-1.13,2.45-1.55,5.16-2.35,7.81-1.19,3.77-1.16,7.9-2.9,11.48a10,10,0,0,0,0-2.19c-0.16-.68-0.65-0.71-0.77-1.39-0.32-1.29,0-2.29-.84-3.48a27.45,27.45,0,0,0-2.45-2.29,4.91,4.91,0,0,0-3.16-1.81c-1.52-.35-2.13-0.26-2.94-1.06a6.72,6.72,0,0,0-4.64,1.42,6.39,6.39,0,0,1,.19-1c0.26-.77.48-1.55,0.81-2.32,0.61-1.52.84-3.1,1.52-4.68,0.55-1.23,1.13-2.29,1.64-3.55a19.22,19.22,0,0,0,.52-2.58c0.16-.68.61-1.06,0.77-1.74s-0.1-1.19,0-1.77c0.06-.29.45-0.35,0.48-0.58a11.41,11.41,0,0,0,.16-2.35,6.2,6.2,0,0,1,.55-2,12.37,12.37,0,0,0,.16-2.45c0.06-1,.61-1.52.77-2.42a16.38,16.38,0,0,0,0-2.52c0-1.9.74-3.45,0.71-5.42,0-1.71.71-3,.74-4.68,0-1.45,0-2.9,0-4.32,0-3.29-.39-6.84,0-10.1a33.46,33.46,0,0,1,1.29-4.68c0.39-1.58.52-3.16,0.9-4.68,0.77-3.06,1.35-6.48,2.16-9.74,3.19-12.81,7-25.38,10.45-38.16,0.55-2.13.58-4.35,1.26-6.55a49.38,49.38,0,0,0,1.32-5.74c0.35-2,.74-4,1.19-5.93a28.71,28.71,0,0,0,.9-4.87c0.06-.84-0.13-1.71,0-2.52s0.61-1.61.77-2.52c0.26-1.39-.32-3-0.06-4.35,0.16-.9.68-1.58,0.77-2.52a21.92,21.92,0,0,0,0-2.52,37.71,37.71,0,0,1,0-4.68c0.19-1.9,1.06-3.77,1.39-5.71s0.45-3.55.87-5.42,1-3.81,1.55-5.81c0.39-1.29.48-2.61,0.87-3.87a16.26,16.26,0,0,0,1-3.29,47.73,47.73,0,0,1,1.32-6.93c0.77-2.77.9-5.45,1.45-8.29a41.81,41.81,0,0,1,1.61-7.16c0.55-1.42,1.39-3.06,0-4.32l-0.13-.61c0.06,0,.13,0,0.19-0.06,0.81-.35,1.23-1.84,1.58-2.74,0.9-2.13,1.55-4.26,2.61-6.35a3.21,3.21,0,0,0,.45-2.84l2.52-.35h34.93c3.42,0,6.84-.23,10.1.55,1.32,0.32,2.64,0,4,.32s2.9,0.94,4.39,1.29a16.9,16.9,0,0,1,2.64.87c1.1,0.52,1.9.26,3.1,0.52,1.58,0.39,2.87,1.55,4.55,1.55l1.9,1.39c-0.06,2.9,1.16,5.81,1.42,8.81v0.1c0.35,4.39,1.29,8.61,1.42,13,0.06,1.9.74,3.35,1.13,5.16,0.55,2.39.29,4.74,0.32,7.19,0,2.1.68,4.06,0.77,6.16s0,4.1,0,6.1c0,8.35-.06,16.68,0,25,0,3.35-.74,6.52-0.71,9.9a20.89,20.89,0,0,1-.74,5.26,28.88,28.88,0,0,0-.68,6.87c0,2-.71,3.81-0.77,5.74-0.1,1.68,0,3.39,0,5,0,3.29-.74,6.26-0.74,9.58,0,1.42.06,2.87,0,4.29,0,2-.68,3.84-0.77,5.77-0.13,3.55-.71,6.84-0.68,10.35,0,3,.16,6.13,0,9.13a93.34,93.34,0,0,1-1.42,9.48c-1.16,7.19-2.94,14.32-4.23,21.55-0.68,4-.87,8.19-1.64,12.19-0.71,3.58-1.48,7.29-2.1,10.93-0.39,2.13-.35,4.42-0.68,6.55-0.26,1.61-1,3.1-1.32,4.68-0.26,1.32,0,2.55-.13,3.9-0.16,1.74-.81,3.1-0.74,4.9l-1.45,2.16a6.44,6.44,0,0,0,2.13,2.35c0.58,0.39,1.29.48,1.87,0.94s0.71,1.1,1.23,1.58c1.48,1.55,3.84,2.84,5.58,4.13s3.32,2.29,4.84,3.42c2.06,1.55,1.71,3.26,1.64,5.58v2.42c-2.39.16-4.81,0.32-7.26,0.45-1.32.06-2.39,0.65-3.68,0.77s-2.68.06-4.06,0.32c-2.48.48-4.84,0.13-7.35,0.32-1.77.16-3.23,0.77-5,.77a25.39,25.39,0,0,1-5.42-.35c-1.58-.35-3.13-0.68-4.74-0.9l0.45-2.61c1.19-1.26.1-10.71,0.32-12.51a35.15,35.15,0,0,0,.74-5.23,44.31,44.31,0,0,1,.58-8c1.55-9.35.87-19.19,0.87-28.77,0-4.35-.74-8.48-0.71-12.84V390.45a54.17,54.17,0,0,0-.58-10.48,34.51,34.51,0,0,1-.13-4.84c-0.06-1.45-.65-2.71-0.77-4.16s0.16-3.13,0-4.68-0.68-2.77-.74-4.32c-0.1-3,0-5.93,0-8.9V328.81c0-1.42.06-2.87,0-4.29s-0.52-1.84-1.64-2.71A28.51,28.51,0,0,0,261.08,320Z"/><path class="cls-4" d="M301.33,121.32c0.13,9.29-6.42,15.68-8,24.38-3.81.19-9.19,0.71-12.16-.61L280.08,148c-3.52-.48-6.74-0.42-7.68.16-3.9-1.52-8.87-1.87-13.64-2.16l0.06-.87c4.55-8.16,1.35-19.26,1.32-29.16,0-7.74,1.9-14.77,11.06-19a20.78,20.78,0,0,1,8.64-2c10.81,0,18.58,10,20.8,20.64A29.05,29.05,0,0,1,301.33,121.32Z"/><path class="cls-1" d="M299.88,229.47l-0.71.13c-1.58.45-3.52-1.81-4.81-2.45-1.45-.71-3.55-1-5.19-1.68-3.71-1.48-6.84-3.06-11-3.13l-1.64,0c0-2.64-.16-5.32-0.39-8l1.23-.1a14.27,14.27,0,0,1,5.68.77c0.87,0.39,1.48.52,2.39,0.84a17.83,17.83,0,0,0,2.1.71,34.34,34.34,0,0,1,5.35,1.52c1,0.39,2.68,1.61,3.84,1.81h0.06a1.06,1.06,0,0,0,.45,0h1.32A67,67,0,0,0,299.88,229.47Z"/><path class="cls-5" d="M299.59,257.46c-0.9.84-.35,2.52-0.42,3.64-0.1,1.48-.68,2.74-0.84,4.23a3.29,3.29,0,0,1-1.06.16c-1.68,0-3-1.16-4.55-1.55-1.19-.26-2,0-3.1-0.52a16.9,16.9,0,0,0-2.64-.87c-1.48-.35-2.94-0.94-4.39-1.29s-2.64,0-4-.32c-3.26-.77-6.68-0.55-10.1-0.55H233.6l-2.52.35a17.62,17.62,0,0,0-1.48-3.26,7.92,7.92,0,0,1-.06-5.32,1.43,1.43,0,0,1,.19-0.52l0.26,0.1c0.16,0.13.35,0.26,0.55,0.42,1-.81,2.26-0.29,3.42-0.42,1.74-.16,3.48-1,5.23-1.29,1.52-.29,3,0,4.48-0.13s2.74-.68,4.29-0.74c1.87-.06,3.58-0.71,5.45-0.74,1.52,0,3,0,4.52,0,3.52,0,6.39.58,9.87,0.71,1.52,0.06,2.74.68,4.26,0.77a26.8,26.8,0,0,1,4.9.71,30.28,30.28,0,0,0,5.1.71,17.18,17.18,0,0,1,5.26,1.1c1.1,0.35,2.13.77,3.16,1.06,0.48,0.13,1-.06,1.48.1,0.68,0.26,1.45,1,2.16,1.35a24,24,0,0,0,3.61,1.26c0.58,0.13,1.26.42,1.94,0.65Z"/><path class="cls-1" d="M300.66,208a23.08,23.08,0,0,0-2.06,11.9h-1.84c-1.16-.19-2.87-1.42-3.84-1.81a34.34,34.34,0,0,0-5.35-1.52,17.83,17.83,0,0,1-2.1-.71c-0.9-.32-1.52-0.45-2.39-0.84a14.27,14.27,0,0,0-5.68-.77l-1.23.1c-0.71-9.26-2.06-18.71-.45-27.48,1.06-5.61,10.1-17.51,14-26.13l0.77,0.19c1.9-.19,4.77.87,7.81,2.42l-4.81.9c0.39,1.32-1.35,2.77-1.84,4-0.65,1.68-.94,3.23-1.58,4.84-1,2.64.26,4.58,0.23,7.32,0,2.29-.16,4.58-0.06,6.84s1.45,4.13,1.64,6.45c0.23,2.48.84,3.35,2.23,5.23s1.9,4.06,3.45,5.9A16.85,16.85,0,0,0,300.66,208Z"/><path class="cls-1" d="M297.27,219.92a1.06,1.06,0,0,1-.45,0h0.45Z"/><path class="cls-6" d="M291,152.48a5.38,5.38,0,0,1,.23,4,21.15,21.15,0,0,1-1.52,4.32c-3.94,8.61-13,20.51-14,26.13-1.61,8.77-.26,18.22.45,27.48,0.23,2.68.39,5.35,0.39,8a54.79,54.79,0,0,1-.58,8.35c-5-.48-13.22-4-17.9-2H258c0.68-15.1-1.68-29.9-1.42-44.7,0.29-14.58,10.55-24.38,15.8-35.87,0.94-.58,4.16-0.65,7.68-0.16C284.59,148.57,289.59,150.06,291,152.48Z"/><path class="cls-2" d="M280.14,86.74l-0.29,8.19a20.78,20.78,0,0,0-8.64,2c-9.16,4.19-11.1,11.22-11.06,19,0,9.9,3.23,21-1.32,29.16l-0.06.87c-1.77-.13-3.52-0.23-5.16-0.39-1-1.68-7.26-12.26-8.32-19.77a37.06,37.06,0,0,1,4.35-23.74c6.26-11.68,16.48-15.48,29.35-15.35C279.37,86.71,279.76,86.74,280.14,86.74Z"/><path class="cls-6" d="M253.6,145.57c1.64,0.16,3.39.26,5.16,0.39,4.77,0.29,9.74.65,13.64,2.16-5.26,11.48-15.51,21.29-15.8,35.87-0.26,14.8,2.1,29.61,1.42,44.7,0,0.19,0,.42,0,0.61-9.77.61-20.29-.35-30.09-1.32l-4-.39c-7.61-.71-14.93,2.55-17.58-3a11.14,11.14,0,0,1-.9-3.45,139.08,139.08,0,0,1-.58-20.22c0.13-4.32.35-8.58,0.61-12.58,1.13-17.84,14.84-32.45,27.38-44v-0.74c5.06-1.45,12.13.68,17.68,1.55C251.5,145.35,252.53,145.48,253.6,145.57Z"/><path class="cls-5" d="M231.08,260.75a3.21,3.21,0,0,1-.45,2.84c-1.06,2.1-1.71,4.23-2.61,6.35-0.35.9-.77,2.39-1.58,2.74-0.06,0-.13,0-0.19.06a18,18,0,0,1-3.48-.13c-0.9,0-2.87.39-3.64-.1-1.1-.68-0.68-2.42-0.68-3.48,0-1.23,0-2.42,0-3.61a44,44,0,0,1,.77-4.52c0.39-3.29.06-6.87,1.39-9.9,1.13-2.64,5.64-3.23,7.93-2.16h0c0,1.19.06,2.39,0.13,3.55a1.05,1.05,0,0,0,.45-0.35l0.39,0.13a7.92,7.92,0,0,0,.06,5.32A17.62,17.62,0,0,1,231.08,260.75Z"/><path class="cls-3" d="M227.25,229.31c-1.58,1.42-6,4.93-8,7-4.52,4.45-8.35,9.9-12,15.1a126.63,126.63,0,0,0-11.87,22c-3,6.84-4.52,17.74-8.87,23.19a3,3,0,0,0-1.23,2.39l-2.1-.35c-1.9.48-12.42-.16-17.29-2.16a13.22,13.22,0,0,1-1.35-.68c1.39-7.45,5.1-14.74,7.45-22.06a280.71,280.71,0,0,1,12.9-32l0.61,0.29c-0.9,2.06.71,4.87,2.42,6a12.8,12.8,0,0,0,3,1.16c1.35,0.39.94,0.68,2.32-.1a19.35,19.35,0,0,0,5.16-5.32c0.74-1.1.77-2.48,1.32-3.64s1.61-2.35,2.29-3.64c1.23-2.32,2.55-4.52,3.61-6.9,0.94-2.1.68-2.68-.29-4.42l1-.52c2.64,5.55,10,2.29,17.58,3l4,0.39-0.06.71A4,4,0,0,1,227.25,229.31Z"/><path class="cls-3" d="M206.34,224.6l-1,.52c-0.06-.16-0.19-0.35-0.29-0.55a24.23,24.23,0,0,0-1.81-3.39c-0.77-.9-1.74-1-2.77-1.35-2.32-.9-3.06-0.29-5.32.9l-0.16-.1q2.76-5.56,5.42-11c1.42-2.94,2.9-5.81,4.45-8.68a139.08,139.08,0,0,0,.58,20.22A11.14,11.14,0,0,0,206.34,224.6Z"/><path class="cls-3" d="M185.48,242l-0.61-.29c3.26-7.13,6.71-14.16,10.13-21.09l0.16,0.1c2.26-1.19,3-1.81,5.32-.9,1,0.39,2,.45,2.77,1.35a24.23,24.23,0,0,1,1.81,3.39c0.1,0.19.23,0.39,0.29,0.55,1,1.74,1.23,2.32.29,4.42-1.06,2.39-2.39,4.58-3.61,6.9-0.68,1.29-1.64,2.35-2.29,3.64s-0.58,2.55-1.32,3.64a19.35,19.35,0,0,1-5.16,5.32c-1.39.77-1,.48-2.32,0.1a12.8,12.8,0,0,1-3-1.16C186.19,246.89,184.57,244.08,185.48,242Z"/><path class="cls-3" d="M200.31,501.54V504h-6.74c-4.26,0-8.32.52-12.55,0.68l0-1.39c-1.16-2.45.65-4.77,1.61-7.19a24.44,24.44,0,0,0,2-9c0-2.48-.58-5.77.81-7.84a6,6,0,0,1,1-1.16A6.72,6.72,0,0,1,191,476.6c0.81,0.81,1.42.71,2.94,1.06a4.91,4.91,0,0,1,3.16,1.81,27.45,27.45,0,0,1,2.45,2.29c0.87,1.19.52,2.19,0.84,3.48,0.13,0.68.61,0.71,0.77,1.39a10,10,0,0,1,0,2.19,38.7,38.7,0,0,1,0,4.32c-0.16,1.39-.77,2.1-0.74,3.61S200.76,500.24,200.31,501.54Z"/><path class="cls-3" d="M185.28,301.49c0.19,1.58.74,2.52,0.74,4.29,0,3.16,0,7.1-4.35,6.52-2.42-.32-1.77-1.29-2.1-3.29-0.19-1.16-1.19-3.71-2.23-1.84,0,0-.52,2.16-0.52,2.23-0.29,1.13-.1,2.26-0.32,3.42-0.35,1.74-1.32,3.13-1.84,4.68s-0.42,2.23-1.77,3.26-2.81.87-4.16,1.61c-1.81,1-2.61.55-4.16-.9a6.93,6.93,0,0,1-2.16-2.87,18.87,18.87,0,0,1-.16-4.87,29.15,29.15,0,0,1,0-5c0.16-1.06.65-1.81,0.74-2.87a12.58,12.58,0,0,1,.52-2.71c0.39-1.26.65-2.61,1.1-3.81,0.32-.94,1-1.64,1.19-2.64l0.1-.23c4.87,2,15.39,2.64,17.29,2.16l2.1,0.35A13.06,13.06,0,0,0,185.28,301.49Z"/><path class="cls-7" d="M183.15,298.59c-1.9.48-12.42-.16-17.29-2.16a13.22,13.22,0,0,1-1.35-.68c1.39-7.45,5.1-14.74,7.45-22.06a280.71,280.71,0,0,1,12.9-32c3.26-7.13,6.71-14.16,10.13-21.09q2.76-5.56,5.42-11c1.42-2.94,2.9-5.81,4.45-8.68"/><path class="cls-7" d="M232.86,144.38c-12.55,11.51-26.26,26.13-27.38,44-0.26,4-.48,8.26-0.61,12.58a139.08,139.08,0,0,0,.58,20.22,11.14,11.14,0,0,0,.9,3.45c2.64,5.55,10,2.29,17.58,3l4,0.39c9.81,1,20.32,1.94,30.09,1.32,0-.19,0-0.42,0-0.61,0.68-15.1-1.68-29.9-1.42-44.7,0.29-14.58,10.55-24.38,15.8-35.87-3.9-1.52-8.87-1.87-13.64-2.16-1.77-.13-3.52-0.23-5.16-0.39-1.06-.1-2.1-0.23-3.06-0.39-5.55-.87-12.61-3-17.68-1.55"/><path class="cls-7" d="M258.08,228.69c4.68-1.94,12.9,1.55,17.9,2a54.79,54.79,0,0,0,.58-8.35c0-2.64-.16-5.32-0.39-8-0.71-9.26-2.06-18.71-.45-27.48,1.06-5.61,10.1-17.51,14-26.13a21.15,21.15,0,0,0,1.52-4.32,5.38,5.38,0,0,0-.23-4c-1.45-2.42-6.45-3.9-11-4.52-3.52-.48-6.74-0.42-7.68.16"/><path class="cls-7" d="M280.08,148l1.06-2.87c3,1.32,8.35.81,12.16,0.61,1.61-8.71,8.16-15.1,8-24.38a29.05,29.05,0,0,0-.68-5.74c-2.23-10.64-10-20.64-20.8-20.64a20.78,20.78,0,0,0-8.64,2c-9.16,4.19-11.1,11.22-11.06,19,0,9.9,3.23,21-1.32,29.16"/><path class="cls-7" d="M253.76,145.8a1.28,1.28,0,0,1-.16-0.23c-1-1.68-7.26-12.26-8.32-19.77a37.06,37.06,0,0,1,4.35-23.74c6.26-11.68,16.48-15.48,29.35-15.35,0.39,0,.77,0,1.16,0,20.77,1.06,35.54,23.58,32.67,43.22-1.55,10.48-8.87,27.61-20.87,26.64"/><path class="cls-7" d="M290.53,161c1.9-.19,4.77.87,7.81,2.42a86.38,86.38,0,0,1,12.48,8.19c7.93,6.26,11.32,16.71,16.45,25.42a187.76,187.76,0,0,1,14.58,30.38A147.52,147.52,0,0,1,349.62,258c1.71,12.58,3.58,24.84,3.58,37.64"/><path class="cls-7" d="M302,204.89a5.84,5.84,0,0,0,.1.74c0.94,8.26,7.9,16.68,12.39,24.55,0.65,1.16,1.26,2.29,1.77,3.42,4.13,8.84,8.32,17.48,11.68,26.61,4.93,13.32,7,27,8.77,41.16,0.58,0,1.16,0,1.74.06,0.32,0,.68,0,1,0,4.19,0.13,8.68-.06,12.32-1.45a13.47,13.47,0,0,0,2.81-1.42"/><path class="cls-7" d="M186,297.14a7.08,7.08,0,0,0,.45-0.58c4.35-5.45,5.9-16.35,8.87-23.19a126.63,126.63,0,0,1,11.87-22c3.64-5.19,7.48-10.64,12-15.1,2.06-2.06,6.45-5.58,8-7a4,4,0,0,0,.58-0.61"/><path class="cls-7" d="M227.12,228.69a3.43,3.43,0,0,1,.13.61c1.45,5.93,1.16,13,1.32,19.55,0,1.19.06,2.39,0.13,3.55a1.05,1.05,0,0,0,.45-0.35c0.26-.42-0.06-1,0.13-1.74"/><path class="cls-7" d="M302,205.63a13.87,13.87,0,0,0-1.39,2.39,23.08,23.08,0,0,0-2.06,11.9,67,67,0,0,0,1.29,9.55c1.55,7.87,3.74,15.84,3,22.67a17.76,17.76,0,0,1-.81,3.94"/><path class="cls-7" d="M230,251.76c0.16,0.13.35,0.26,0.55,0.42,1-.81,2.26-0.29,3.42-0.42,1.74-.16,3.48-1,5.23-1.29,1.52-.29,3,0,4.48-0.13s2.74-.68,4.29-0.74c1.87-.06,3.58-0.71,5.45-0.74,1.52,0,3,0,4.52,0,3.52,0,6.39.58,9.87,0.71,1.52,0.06,2.74.68,4.26,0.77a26.8,26.8,0,0,1,4.9.71,30.28,30.28,0,0,0,5.1.71,17.18,17.18,0,0,1,5.26,1.1c1.1,0.35,2.13.77,3.16,1.06,0.48,0.13,1-.06,1.48.1,0.68,0.26,1.45,1,2.16,1.35a24,24,0,0,0,3.61,1.26c0.58,0.13,1.26.42,1.94,0.65a6.17,6.17,0,0,0,1.52.39c0.06,0.19.1,0.39,0.16,0.58"/><path class="cls-7" d="M228.54,248.85c-2.29-1.06-6.81-.48-7.93,2.16-1.32,3-1,6.61-1.39,9.9a44,44,0,0,0-.77,4.52c0,1.19,0,2.39,0,3.61,0,1.06-.42,2.81.68,3.48,0.77,0.48,2.74.1,3.64,0.1a18,18,0,0,0,3.48.13c0.06,0,.13,0,0.19-0.06,0.81-.35,1.23-1.84,1.58-2.74,0.9-2.13,1.55-4.26,2.61-6.35a3.21,3.21,0,0,0,.45-2.84,17.62,17.62,0,0,0-1.48-3.26,7.92,7.92,0,0,1-.06-5.32,1.43,1.43,0,0,1,.19-0.52A3.84,3.84,0,0,1,230,251"/><path class="cls-7" d="M233.6,260.4h34.93c3.42,0,6.84-.23,10.1.55,1.32,0.32,2.64,0,4,.32s2.9,0.94,4.39,1.29a16.9,16.9,0,0,1,2.64.87c1.1,0.52,1.9.26,3.1,0.52,1.58,0.39,2.87,1.55,4.55,1.55a3.29,3.29,0,0,0,1.06-.16c0.16-1.48.74-2.74,0.84-4.23,0.06-1.13-.48-2.81.42-3.64-0.16,0-.29,0-0.42,0"/><path class="cls-7" d="M245.82,313.72a20.81,20.81,0,0,0,2.74.87c0.74,0.26,1.48,1.06,2.29,1.32a67.9,67.9,0,0,1,7.39,2.68,16.72,16.72,0,0,1,2.84,1.45,28.51,28.51,0,0,1,2.58,1.77c1.13,0.87,1.58,1.23,1.64,2.71s0,2.87,0,4.29v24.26c0,3-.13,5.93,0,8.9,0.06,1.55.65,2.81,0.74,4.32s-0.16,3.13,0,4.68,0.71,2.71.77,4.16a34.51,34.51,0,0,0,.13,4.84,54.17,54.17,0,0,1,.58,10.48v48.06c0,4.35.71,8.48,0.71,12.84,0,9.58.68,19.42-.87,28.77a44.31,44.31,0,0,0-.58,8,35.15,35.15,0,0,1-.74,5.23c-0.23,1.81.87,11.26-.32,12.51a0.41,0.41,0,0,1-.19.13c-0.06-.42-0.13-0.87-0.16-1.32"/><path class="cls-7" d="M299.17,266.88c-0.06,2.9,1.16,5.81,1.42,8.81v0.1c0.35,4.39,1.29,8.61,1.42,13,0.06,1.9.74,3.35,1.13,5.16,0.55,2.39.29,4.74,0.32,7.19,0,2.1.68,4.06,0.77,6.16s0,4.1,0,6.1c0,8.35-.06,16.68,0,25,0,3.35-.74,6.52-0.71,9.9a20.89,20.89,0,0,1-.74,5.26,28.88,28.88,0,0,0-.68,6.87c0,2-.71,3.81-0.77,5.74-0.1,1.68,0,3.39,0,5,0,3.29-.74,6.26-0.74,9.58,0,1.42.06,2.87,0,4.29,0,2-.68,3.84-0.77,5.77-0.13,3.55-.71,6.84-0.68,10.35,0,3,.16,6.13,0,9.13a93.34,93.34,0,0,1-1.42,9.48c-1.16,7.19-2.94,14.32-4.23,21.55-0.68,4-.87,8.19-1.64,12.19-0.71,3.58-1.48,7.29-2.1,10.93-0.39,2.13-.35,4.42-0.68,6.55-0.26,1.61-1,3.1-1.32,4.68-0.26,1.32,0,2.55-.13,3.9-0.16,1.74-.81,3.1-0.74,4.9"/><path class="cls-7" d="M190.35,475.86a3.93,3.93,0,0,0,.68.74c0.81,0.81,1.42.71,2.94,1.06a4.91,4.91,0,0,1,3.16,1.81,27.45,27.45,0,0,1,2.45,2.29c0.87,1.19.52,2.19,0.84,3.48,0.13,0.68.61,0.71,0.77,1.39a10,10,0,0,1,0,2.19,38.7,38.7,0,0,1,0,4.32c-0.16,1.39-.77,2.1-0.74,3.61s0.32,3.48-.13,4.77c-0.19-.16-0.39-0.29-0.58-0.45"/><path class="cls-7" d="M207.83,504h-0.9"/><path class="cls-7" d="M149.29,504c1-1.35,1.71-.48,2.87-0.16A10.43,10.43,0,0,0,155,504a47.19,47.19,0,0,1,8,.55c5,0.84,10.71.16,15.8,0.16,0.74,0,1.48,0,2.23,0,4.23-.16,8.29-0.68,12.55-0.68h13.35"/><path class="cls-7" d="M181,503.24c-1.16-2.45.65-4.77,1.61-7.19a24.44,24.44,0,0,0,2-9c0-2.48-.58-5.77.81-7.84a6,6,0,0,1,1-1.16A6.72,6.72,0,0,1,191,476.6a6.22,6.22,0,0,1,.77,0"/><path class="cls-7" d="M226.37,273.37c1.39,1.26.55,2.9,0,4.32a41.81,41.81,0,0,0-1.61,7.16c-0.55,2.84-.68,5.52-1.45,8.29a47.73,47.73,0,0,0-1.32,6.93,16.26,16.26,0,0,1-1,3.29c-0.39,1.26-.48,2.58-0.87,3.87-0.55,2-1.1,3.84-1.55,5.81s-0.58,3.61-.87,5.42-1.19,3.81-1.39,5.71a37.71,37.71,0,0,0,0,4.68,21.92,21.92,0,0,1,0,2.52c-0.1.94-.61,1.61-0.77,2.52-0.26,1.39.32,3,.06,4.35-0.16.9-.68,1.58-0.77,2.52s0.1,1.68,0,2.52a28.71,28.71,0,0,1-.9,4.87c-0.45,2-.84,3.94-1.19,5.93a49.38,49.38,0,0,1-1.32,5.74c-0.68,2.19-.71,4.42-1.26,6.55-3.45,12.77-7.26,25.35-10.45,38.16-0.81,3.26-1.39,6.68-2.16,9.74-0.39,1.52-.52,3.1-0.9,4.68a33.46,33.46,0,0,0-1.29,4.68c-0.39,3.26,0,6.81,0,10.1,0,1.42.06,2.87,0,4.32,0,1.68-.77,3-0.74,4.68,0,2-.68,3.52-0.71,5.42a16.38,16.38,0,0,1,0,2.52c-0.16.9-.71,1.45-0.77,2.42a12.37,12.37,0,0,1-.16,2.45,6.2,6.2,0,0,0-.55,2,11.41,11.41,0,0,1-.16,2.35c0,0.23-.42.29-0.48,0.58-0.13.58,0.1,1.23,0,1.77s-0.61,1.06-.77,1.74a19.22,19.22,0,0,1-.52,2.58c-0.52,1.26-1.1,2.32-1.64,3.55-0.68,1.58-.9,3.16-1.52,4.68-0.32.77-.55,1.55-0.81,2.32a6.39,6.39,0,0,0-.19,1c-0.19,1.1-.35,2.45-1.06,2.87"/><path class="cls-7" d="M259.53,322.36c0.1,1.55-1,2.71-1.29,4.16-0.29,1.29-.16,2.48-0.55,3.81-1.26,4.23-2.61,8.32-3.74,12.58-0.81,3.06-2.35,5.84-3.06,8.77a109.61,109.61,0,0,1-4,11.74c-1.26,3.29-2.48,6.77-3.94,10s-2.23,6.74-3.58,10-2.32,7-3.87,10.32c-1.42,3.1-1.9,6.32-3.52,9.39-1.13,2.13-2.23,4.29-3.23,6.48a55.44,55.44,0,0,1-3.77,7.9c-1.19,1.77-1.64,3.55-2.71,5.35a48.47,48.47,0,0,0-2.9,7.06c-3.1,8.13-6.32,16.1-8.48,24.42-0.32,1.26-.55,2.61-0.87,3.68s-0.58,2.29-.9,3.45c-0.42,1.55-1.35,2.77-1.84,4.32-0.42,1.32-.29,2.55-0.84,3.77-1.13,2.45-1.55,5.16-2.35,7.81-1.19,3.77-1.16,7.9-2.9,11.48"/><path class="cls-7" d="M344.91,505.41h-1.06"/><path class="cls-7" d="M250.15,507.57a100.53,100.53,0,0,1,15.06.9c1.61,0.23,3.16.55,4.74,0.9a25.39,25.39,0,0,0,5.42.35c1.81,0,3.26-.61,5-0.77,2.52-.19,4.87.16,7.35-0.32,1.39-.26,2.71-0.19,4.06-0.32s2.35-.71,3.68-0.77c2.45-.13,4.87-0.29,7.26-0.45s4.84-.26,7.29-0.26h11.45c4.23,0,8.61.32,12.81,0.06,3.52-.23,6.9-1.48,10.48-1.48"/><path class="cls-7" d="M302.75,505.15v-0.48"/><path class="cls-7" d="M285.46,486.67a6.44,6.44,0,0,0,2.13,2.35c0.58,0.39,1.29.48,1.87,0.94s0.71,1.1,1.23,1.58c1.48,1.55,3.84,2.84,5.58,4.13s3.32,2.29,4.84,3.42c2.06,1.55,1.71,3.26,1.64,5.58"/><path class="cls-7" d="M339.52,302.91a3.66,3.66,0,0,0,0-1.45,2.82,2.82,0,0,0-.16-0.71,1.62,1.62,0,0,0-.87.68c-1.19,1.71-1.23,5.81-1.81,7.23a20.07,20.07,0,0,0-1.55,3.9c-0.13.48-.58,0.61-0.71,1.13-0.16.71,0.26,1.52,0.1,2.23-0.42,1.71-2.42,5.26-1.55,7.23,1.1,2.39,4.35-1.74,5.68-2.13,0.9,2.74-.87,5.35-1.84,7.81a37.17,37.17,0,0,0-1.06,4.35,7.56,7.56,0,0,0-.58,3.61c0.68,3.58,3.1,1.9,4.74,0a35,35,0,0,0,4.64-6.84c0.58-1.23.94-2.71,1.61-3.84,0.81-1.39,1.55-2,2-3.71a26.33,26.33,0,0,1,1.64-4.19c0.48-1.13.26-1.77,0.48-3s1-2.42,1.32-3.61,0-2.39.13-3.61a20.24,20.24,0,0,1,.77-2.48,23.66,23.66,0,0,0,0-4"/><path class="cls-7" d="M165.12,297.14l0.65-.48c-0.16,1-.87,1.71-1.19,2.64-0.45,1.19-.71,2.55-1.1,3.81a12.58,12.58,0,0,0-.52,2.71c-0.1,1.06-.58,1.81-0.74,2.87a29.15,29.15,0,0,0,0,5,18.87,18.87,0,0,0,.16,4.87,6.93,6.93,0,0,0,2.16,2.87c1.55,1.45,2.35,1.9,4.16.9,1.35-.74,2.87-0.61,4.16-1.61s1.26-1.81,1.77-3.26,1.48-2.94,1.84-4.68c0.23-1.16,0-2.29.32-3.42,0-.06.52-2.23,0.52-2.23,1-1.87,2,.68,2.23,1.84,0.32,2-.32,3,2.1,3.29,4.39,0.58,4.32-3.35,4.35-6.52,0-1.77-.55-2.71-0.74-4.29a13.06,13.06,0,0,1,0-2.55,3,3,0,0,1,1.23-2.39,0.65,0.65,0,0,1,.26-0.13"/><path class="cls-7" d="M296.82,219.92a1.06,1.06,0,0,0,.45,0h-0.45"/><path class="cls-7" d="M296.82,219.92h-0.06"/><path class="cls-7" d="M277.4,214.28a14.27,14.27,0,0,1,5.68.77c0.87,0.39,1.48.52,2.39,0.84a17.83,17.83,0,0,0,2.1.71,34.34,34.34,0,0,1,5.35,1.52c1,0.39,2.68,1.61,3.84,1.81"/><path class="cls-7" d="M278.21,222.34c4.13,0.06,7.26,1.64,11,3.13,1.64,0.65,3.74,1,5.19,1.68,1.29,0.65,3.23,2.9,4.81,2.45"/><path class="cls-7" d="M301.59,208.63a4.24,4.24,0,0,1-.94-0.61,16.85,16.85,0,0,1-3.06-3.19c-1.55-1.84-2.06-4.06-3.45-5.9s-2-2.74-2.23-5.23c-0.19-2.32-1.55-4.1-1.64-6.45s0-4.55.06-6.84c0-2.74-1.26-4.68-.23-7.32,0.65-1.61.94-3.16,1.58-4.84,0.48-1.19,2.23-2.64,1.84-4"/><path class="cls-7" d="M303.2,252.18c1,0.55,2.13.45,3.06,1a10.47,10.47,0,0,1,1.13,1.26c0.29,0.23,1.1.06,1.32,0.32,0.87,1.19.32,6.84,0.16,8.32a31.33,31.33,0,0,1-2.35,7.32c-0.55,1.39-2.87,6.13-4.77,5.9-0.06-.23-0.1-0.48-0.16-0.71"/><path class="cls-7" d="M186.28,240.89a2.72,2.72,0,0,0-.81,1.13c-0.9,2.06.71,4.87,2.42,6a12.8,12.8,0,0,0,3,1.16c1.35,0.39.94,0.68,2.32-.1a19.35,19.35,0,0,0,5.16-5.32c0.74-1.1.77-2.48,1.32-3.64s1.61-2.35,2.29-3.64c1.23-2.32,2.55-4.52,3.61-6.9,0.94-2.1.68-2.68-.29-4.42-0.06-.16-0.19-0.35-0.29-0.55a24.23,24.23,0,0,0-1.81-3.39c-0.77-.9-1.74-1-2.77-1.35-2.32-.9-3.06-0.29-5.32.9"/><path class="cls-7" d="M329,214.28c-0.52,2.48-4,1.23-5.64,1.55-1.9.39-3.48,2.32-4.23,3.9a9,9,0,0,0-.65,5,13.42,13.42,0,0,0,1,3.71,3.5,3.5,0,0,0,.58,1,19,19,0,0,1,2.64,3.32c1.1,1.94,1.58,3.94,2.84,5.71a13.69,13.69,0,0,0,6.61,5c8.32,3.42,10.58-10.06,8.1-15.58-1.23-2.68-2.35-6.1-4.23-8.64a25.65,25.65,0,0,0-2.84-2.77,4.27,4.27,0,0,0-1.77-1.45c-0.81-.29-2.1.16-2.39-0.81a1.87,1.87,0,0,1-.06-0.77"/></svg>