<svg xmlns="http://www.w3.org/2000/svg" viewBox="0 0 1525 920"><defs><style>.cls-1{isolation:isolate;}.cls-2,.cls-26{fill:#fff;}.cls-10,.cls-11,.cls-12,.cls-15,.cls-16,.cls-18,.cls-19,.cls-20,.cls-28,.cls-3,.cls-32,.cls-33,.cls-40,.cls-5,.cls-6,.cls-8,.cls-9{fill:none;}.cls-13,.cls-14,.cls-15,.cls-16,.cls-17,.cls-18,.cls-19,.cls-20,.cls-21,.cls-22,.cls-23,.cls-24,.cls-26,.cls-27,.cls-29,.cls-3,.cls-30,.cls-31,.cls-32,.cls-34,.cls-35,.cls-36,.cls-37,.cls-38,.cls-42,.cls-8{stroke:#000;}.cls-19,.cls-20,.cls-21,.cls-24,.cls-26,.cls-27,.cls-28,.cls-29,.cls-3,.cls-30,.cls-31,.cls-32,.cls-33,.cls-34,.cls-38,.cls-40{stroke-linecap:round;}.cls-3,.cls-30,.cls-31,.cls-32,.cls-33,.cls-35,.cls-36,.cls-8{stroke-linejoin:round;}.cls-13,.cls-14,.cls-15,.cls-16,.cls-17,.cls-19,.cls-20,.cls-21,.cls-22,.cls-23,.cls-24,.cls-26,.cls-27,.cls-28,.cls-29,.cls-3,.cls-30,.cls-31,.cls-32,.cls-33,.cls-34,.cls-35,.cls-36,.cls-37,.cls-38,.cls-42,.cls-8{stroke-width:2px;}.cls-3{opacity:0.2;}.cls-4{mix-blend-mode:multiply;}.cls-5,.cls-6{stroke:#e6e6e6;stroke-dasharray:1 10;}.cls-10,.cls-11,.cls-12,.cls-13,.cls-14,.cls-15,.cls-17,.cls-18,.cls-20,.cls-21,.cls-22,.cls-23,.cls-24,.cls-26,.cls-27,.cls-28,.cls-29,.cls-34,.cls-37,.cls-38,.cls-40,.cls-42,.cls-5,.cls-6,.cls-9{stroke-miterlimit:10;}.cls-5{stroke-width:26px;}.cls-6{stroke-width:20px;}.cls-7{fill:#f2f2c4;}.cls-9{stroke:#f15a24;}.cls-10,.cls-11,.cls-12,.cls-9{stroke-width:21px;}.cls-10{stroke:#66abe2;}.cls-11{stroke:#e1ee21;}.cls-12{stroke:#7fd17c;}.cls-14,.cls-30,.cls-43{fill:#e6e6e6;}.cls-16,.cls-19{stroke-linejoin:bevel;}.cls-17{fill:#e1ee21;}.cls-18{stroke-width:3px;}.cls-21{fill:#603813;}.cls-22{fill:#66abe2;}.cls-23{fill:#7fd17c;}.cls-24,.cls-25{fill:#735436;}.cls-27,.cls-42{fill:#f15a24;}.cls-28{stroke:#0071bc;}.cls-29{fill:#0071bc;}.cls-31{fill:#fcee95;}.cls-33,.cls-40{stroke:#fff;}.cls-34{fill:#4d4d4d;}.cls-35{fill:#cf702c;}.cls-37,.cls-38,.cls-39{fill:#f7b363;}.cls-41{fill:#ccc;}</style></defs><title>hero-show</title><g class="cls-1"><g id="Layer_2" data-name="Layer 2"><g id="hero-frames"><rect class="cls-2" width="1525" height="920"/></g><g id="heros"><line class="cls-3" x1="86" y1="682" x2="1439" y2="682"/><line class="cls-3" x1="86" y1="719" x2="1439" y2="719"/><g class="cls-4"><path class="cls-5" d="M452,516.84H439.68a31.9,31.9,0,0,1-31.9-31.9V398.16"/><path class="cls-5" d="M499,414.32a31.9,31.9,0,0,0-31.9,31.9v29.56"/><path class="cls-5" d="M605.68,402.57V343a31.9,31.9,0,0,0-31.9-31.9h-10.1"/><path class="cls-5" d="M619.11,414.32h39.44a31.9,31.9,0,0,1,31.9,31.9V462.8a31.9,31.9,0,0,1-31.9,31.9"/><path class="cls-5" d="M475.14,310.21H439.68a31.9,31.9,0,0,0-31.9,31.9v4"/><line class="cls-6" x1="556.75" y1="414.32" x2="590.82" y2="414.32"/><line class="cls-5" x1="592.94" y1="494.7" x2="567.91" y2="494.7"/><line class="cls-5" x1="527.88" y1="344" x2="527.88" y2="375.64"/><line class="cls-5" x1="527.88" y1="435.23" x2="527.88" y2="475.79"/></g><rect class="cls-7" x="474.37" y="322.42" width="89.31" height="21.04"/><path class="cls-7" d="M474.37,322c1.78,0,1.78.51,3.57.51s1.79.69,3.57.69,1.79-1.36,3.57-1.36,1.78.39,3.57.39,1.79.88,3.57.88,1.79-.49,3.57-.49,1.79-.19,3.57-.19,1.79.34,3.57.34,1.79-1,3.57-1,1.78.89,3.57.89,1.79-.45,3.57-.45,1.78,1,3.57,1,1.79-.77,3.57-.77,1.78-.78,3.57-.78,1.79.8,3.57.8,1.79-.36,3.57-.36,1.79.12,3.57.12,1.79.31,3.57.31,1.79-.76,3.57-.76,1.79-.12,3.57-.12,1.79,1,3.57,1,1.79.52,3.57.52,1.79-1.6,3.57-1.6,1.79.85,3.58.85,1.79.7,3.58.7"/><path class="cls-8" d="M474.37,322c1.78,0,1.78.51,3.57.51s1.79.69,3.57.69,1.79-1.36,3.57-1.36,1.78.39,3.57.39,1.79.88,3.57.88,1.79-.49,3.57-.49,1.79-.19,3.57-.19,1.79.34,3.57.34,1.79-1,3.57-1,1.78.89,3.57.89,1.79-.45,3.57-.45,1.78,1,3.57,1,1.79-.77,3.57-.77,1.78-.78,3.57-.78,1.79.8,3.57.8,1.79-.36,3.57-.36,1.79.12,3.57.12,1.79.31,3.57.31,1.79-.76,3.57-.76,1.79-.12,3.57-.12,1.79,1,3.57,1,1.79.52,3.57.52,1.79-1.6,3.57-1.6,1.79.85,3.58.85,1.79.7,3.58.7"/><rect class="cls-7" x="592.94" y="508.99" width="64.29" height="8.05"/><path class="cls-7" d="M592.94,509.43c1.78,0,1.78-.79,3.57-.79s1.79-.18,3.57-.18,1.78-.08,3.57-.08,1.78,1,3.57,1,1.78-.12,3.57-.12,1.79,0,3.57,0,1.78-.76,3.57-.76,1.79,1,3.57,1,1.78-.73,3.57-.73,1.79.1,3.57.1,1.79.76,3.57.76,1.79-.22,3.57-.22,1.79-.65,3.57-.65,1.79-.07,3.57-.07,1.79.1,3.57.1,1.79-.21,3.57-.21,1.79.54,3.58.54,1.79-.72,3.58-.72"/><path class="cls-8" d="M592.94,509.43c1.78,0,1.78-.79,3.57-.79s1.79-.18,3.57-.18,1.78-.08,3.57-.08,1.78,1,3.57,1,1.78-.12,3.57-.12,1.79,0,3.57,0,1.78-.76,3.57-.76,1.79,1,3.57,1,1.78-.73,3.57-.73,1.79.1,3.57.1,1.79.76,3.57.76,1.79-.22,3.57-.22,1.79-.65,3.57-.65,1.79-.07,3.57-.07,1.79.1,3.57.1,1.79-.21,3.57-.21,1.79.54,3.58.54,1.79-.72,3.58-.72"/><rect class="cls-7" x="452.05" y="523.51" width="115.87" height="21.04"/><g class="cls-4"><line class="cls-9" x1="556.75" y1="414.32" x2="590.82" y2="414.32"/><path class="cls-9" d="M475.14,310.21H439.68a31.9,31.9,0,0,0-31.9,31.9v4"/><path class="cls-10" d="M452,516.84H439.68a31.9,31.9,0,0,1-31.9-31.9V398.16"/><path class="cls-9" d="M499,414.32a31.9,31.9,0,0,0-31.9,31.9v29.56"/><path class="cls-10" d="M605.68,402.57V343a31.9,31.9,0,0,0-31.9-31.9h-10.1"/><path class="cls-11" d="M619.11,414.32h39.44a31.9,31.9,0,0,1,31.9,31.9V462.8a31.9,31.9,0,0,1-31.9,31.9"/><line class="cls-10" x1="592.94" y1="494.7" x2="567.91" y2="494.7"/><line class="cls-12" x1="527.88" y1="344" x2="527.88" y2="375.64"/><line class="cls-12" x1="527.88" y1="435.23" x2="527.88" y2="475.79"/></g><rect class="cls-13" x="409.89" y="555.88" width="11" height="124"/><rect class="cls-13" x="715.56" y="555.88" width="11" height="124"/><polygon class="cls-14" points="723.56 827.53 718.56 827.53 716.56 679.88 725.56 679.88 723.56 827.53"/><polygon class="cls-14" points="417.89 827.53 412.89 827.53 410.89 679.88 419.89 679.88 417.89 827.53"/><g class="cls-4"><path class="cls-15" d="M452,528.38H439.68a43.5,43.5,0,0,1-43.45-43.45V398.16h23.1v86.78a20.37,20.37,0,0,0,20.35,20.35H452Z"/><path class="cls-15" d="M478.61,475.79h-23.1V446.22A43.5,43.5,0,0,1,499,402.78v23.1a20.37,20.37,0,0,0-20.35,20.35Z"/><path class="cls-15" d="M617.23,402.57h-23.1V343a20.37,20.37,0,0,0-20.35-20.35h-10.1v-23.1h10.1A43.5,43.5,0,0,1,617.23,343Z"/><path class="cls-15" d="M658.55,506.25v-23.1a20.37,20.37,0,0,0,20.35-20.35V446.22a20.37,20.37,0,0,0-20.35-20.35H619.11v-23.1h39.44A43.5,43.5,0,0,1,702,446.22V462.8A43.5,43.5,0,0,1,658.55,506.25Z"/><path class="cls-15" d="M419.33,346.1h-23.1v-4a43.5,43.5,0,0,1,43.45-43.45h35.46v23.1H439.68a20.37,20.37,0,0,0-20.35,20.35Z"/><rect class="cls-15" x="556.75" y="402.78" width="34.07" height="23.1"/><rect class="cls-15" x="567.91" y="483.15" width="25.02" height="23.1"/><rect class="cls-15" x="516.33" y="344" width="23.1" height="31.64"/><rect class="cls-15" x="516.33" y="435.23" width="23.1" height="40.56"/></g><polygon class="cls-16" points="592.94 544.55 592.94 516.84 602.46 516.84 592.94 544.55"/><polygon class="cls-16" points="658.38 544.55 658.38 516.84 648.85 516.84 658.38 544.55"/><circle class="cls-17" cx="407.29" cy="372.04" r="29.93"/><path class="cls-17" d="M499,397.58a28.87,28.87,0,1,1,57.74,0Z"/><line class="cls-18" x1="716.34" y1="629.33" x2="703.67" y2="555.88"/><line class="cls-18" x1="420.81" y1="629.33" x2="433.47" y2="555.88"/><polygon class="cls-19" points="721.06 831.54 726.1 836.16 716.02 836.16 721.06 831.54"/><path class="cls-20" d="M718.56,827.91a2.52,2.52,0,1,0,5,0"/><polyline class="cls-20" points="725.1 835.16 725.1 836.88 717.02 836.88 717.02 835.16"/><polygon class="cls-19" points="415.39 831.54 420.43 836.16 410.35 836.16 415.39 831.54"/><path class="cls-20" d="M412.89,827.91a2.52,2.52,0,1,0,5,0"/><polyline class="cls-20" points="419.43 836.16 419.43 836.88 411.35 836.88 411.35 836.16"/><circle cx="719.81" cy="683.52" r="1.25"/><circle cx="719.81" cy="694.58" r="1.25"/><circle cx="719.81" cy="705.64" r="1.25"/><rect class="cls-13" x="683.34" y="556.9" width="11" height="102.98"/><polygon class="cls-14" points="691.34 807.53 686.34 807.53 684.34 659.88 693.34 659.88 691.34 807.53"/><polygon class="cls-19" points="688.84 811.54 693.88 816.16 683.8 816.16 688.84 811.54"/><path class="cls-20" d="M686.34,807.91a2.52,2.52,0,1,0,5,0"/><polyline class="cls-20" points="692.88 815.16 692.88 816.88 684.8 816.88 684.8 815.16"/><circle cx="687.59" cy="663.52" r="1.25"/><circle cx="687.59" cy="674.58" r="1.25"/><circle cx="687.59" cy="685.64" r="1.25"/><rect class="cls-13" x="441.66" y="556.9" width="11" height="102.98"/><polygon class="cls-14" points="449.66 807.53 444.66 807.53 442.66 659.88 451.66 659.88 449.66 807.53"/><polygon class="cls-19" points="447.16 811.54 452.2 816.16 442.12 816.16 447.16 811.54"/><path class="cls-20" d="M444.66,807.91a2.52,2.52,0,1,0,5,0"/><polyline class="cls-20" points="451.2 815.16 451.2 816.88 443.12 816.88 443.12 815.16"/><circle cx="445.91" cy="663.52" r="1.25"/><circle cx="445.91" cy="674.58" r="1.25"/><circle cx="445.91" cy="685.64" r="1.25"/><circle cx="416.41" cy="683.52" r="1.25"/><circle cx="416.41" cy="694.58" r="1.25"/><circle cx="416.41" cy="705.64" r="1.25"/><rect class="cls-21" x="390.89" y="544.55" width="354.67" height="13.33"/><rect x="452.05" y="538.5" width="116.15" height="6.05"/><rect class="cls-22" x="499.01" y="397.89" width="57.74" height="37.34"/><rect class="cls-15" x="475.14" y="275" width="88.54" height="69"/><rect class="cls-15" x="592.94" y="475.79" width="65.44" height="41.05"/><rect class="cls-15" x="452.05" y="475.79" width="115.87" height="68.76"/><path class="cls-7" d="M452,524.08c1.81,0,1.81-1.37,3.62-1.37s1.81.65,3.62.65,1.81-.6,3.62-.6,1.81,1.35,3.62,1.35,1.81-.67,3.62-.67,1.81.31,3.62.31,1.81-.76,3.62-.76,1.81-.19,3.62-.19,1.81.95,3.62.95,1.81-1.28,3.62-1.28,1.81.65,3.62.65,1.81,1.24,3.62,1.24,1.81-1.06,3.62-1.06,1.81.63,3.62.63,1.81.16,3.62.16,1.81-.15,3.62-.15,1.81-1.48,3.62-1.48,1.81,1.89,3.62,1.89,1.81.19,3.62.19,1.81-1.46,3.62-1.46,1.81-.65,3.62-.65,1.81,1.09,3.62,1.09,1.81-.44,3.62-.44,1.81.47,3.62.47,1.81.48,3.62.48h3.62c1.81,0,1.81-1.31,3.62-1.31s1.81,1.76,3.62,1.76,1.81-.87,3.62-.87,1.81.24,3.62.24,1.81-.11,3.63-.11,1.81-.38,3.63-.38"/><path class="cls-8" d="M452,524.08c1.81,0,1.81-1.37,3.62-1.37s1.81.65,3.62.65,1.81-.6,3.62-.6,1.81,1.35,3.62,1.35,1.81-.67,3.62-.67,1.81.31,3.62.31,1.81-.76,3.62-.76,1.81-.19,3.62-.19,1.81.95,3.62.95,1.81-1.28,3.62-1.28,1.81.65,3.62.65,1.81,1.24,3.62,1.24,1.81-1.06,3.62-1.06,1.81.63,3.62.63,1.81.16,3.62.16,1.81-.15,3.62-.15,1.81-1.48,3.62-1.48,1.81,1.89,3.62,1.89,1.81.19,3.62.19,1.81-1.46,3.62-1.46,1.81-.65,3.62-.65,1.81,1.09,3.62,1.09,1.81-.44,3.62-.44,1.81.47,3.62.47,1.81.48,3.62.48h3.62c1.81,0,1.81-1.31,3.62-1.31s1.81,1.76,3.62,1.76,1.81-.87,3.62-.87,1.81.24,3.62.24,1.81-.11,3.63-.11,1.81-.38,3.63-.38"/><rect x="475.14" y="275" width="88.54" height="6.27"/><line class="cls-15" x1="452.05" y1="477.64" x2="567.91" y2="477.64"/><line class="cls-15" x1="592.94" y1="477.64" x2="656.74" y2="477.64"/><circle class="cls-23" cx="605.68" cy="415.7" r="19.66"/><path class="cls-13" d="M855.11,207.29s-7.17-13.88,4.7-22.7h1.82L857,207.29Z"/><path class="cls-24" d="M907.27,270c-.39-2.84-4.21-22.77-4.6-25.6l-39.46,8.1c0,4.75-.23,22.73,0,27.47l3.65,4.27Z"/><path class="cls-24" d="M861.63,179.81a84.6,84.6,0,0,0-5.2,18.55C853.56,214.26,850,251,870.62,255.7c26.65,6.07,43.67-25.19,47.71-35.24.7-1.75,1.37-3.52,2-5.31l1.09-21.27-54.17-20.12-5.59,6"/><path d="M920.12,215.7c-.39,1.15-.81,2.28-1.26,3.41-.84-8.27-11.77-.25-13.49-.88a1.2,1.2,0,0,1-1-1.63,67.31,67.31,0,0,1,2.31-9.82,2.85,2.85,0,0,0-.47-3.43c-3.11-4.07-3.5-5.1-5.23-9.92a57.3,57.3,0,0,1,5.3,2.81C912.09,199.83,917.2,203.35,920.12,215.7Z"/><path class="cls-25" d="M705.71,306.44l-14.06,13.87a17.26,17.26,0,0,0-2.54-4.06c-1.52-1.59-3.87-1.43-7.62-1.06a108.44,108.44,0,0,1-13.28.46,179.89,179.89,0,0,1-21.62-1.74,3.27,3.27,0,0,1-2-1,2.15,2.15,0,0,1,.68-2.76,2.93,2.93,0,0,1,1.27-.31c-2.37,0-4.32,0-5-.11a2.4,2.4,0,0,1-1.89-.86,2.21,2.21,0,0,1,.64-2.82,4.17,4.17,0,0,1,2.31-.49h-2.93a2.43,2.43,0,0,1-1.89-.89,2.18,2.18,0,0,1,.76-2.77,4.64,4.64,0,0,1,2.8-.51c1.42,0,2.72.08,3.95.11-2.48-.12-3.6-1.14-3.6-2.31,0-1.92,2.67-2.19,3.63-2.16,7.34.21,14.31.35,21.45.56h0c-4.18-1.07-2.77-5.15-1.11-5.48s7.17.41,10,.5,7.84,0,10.76,0a17.8,17.8,0,0,1,7.95,1.48C698.85,296.33,704.09,301.62,705.71,306.44Z"/><path class="cls-26" d="M846.77,805.77c.33-2.11,1.5-13.84-.08-19.58l30.58-2.41c.14,10.5.17,20.91,1.4,31.15l-3,4.68h-29Z"/><path class="cls-27" d="M796.79,825.62c2.78-.36,8-.86,10.44-1.85,14.2-5.74,39.18-18.18,39.18-18.18.2.17,7.7,6.68,11.82,8.91,4.35,2.35,9.4,3.72,14.27,2.86a16.43,16.43,0,0,0,6.17-2.44l1.11-.36a34.62,34.62,0,0,1,1.53,19.91l-34.62,3.47L798,836.54"/><path class="cls-26" d="M888.14,790.61l-7.07,24.66L891,822l18.47-1.17s-.75-20.41,2.39-30.24Z"/><path class="cls-20" d="M798,836.54l-9.24-.27L781.89,833a10.62,10.62,0,0,1,6.95-6.65c2.5-.67,5.15-.39,7.71-.72l.24,0C797.86,827.66,799.95,832.55,798,836.54Z"/><path class="cls-28" d="M781.89,833h0"/><path class="cls-26" d="M881.31,834.47a32,32,0,0,1-1.59,5.24,3.36,3.36,0,0,1-1,1.52,3.52,3.52,0,0,1-1.58.55c-9.73,1.64-19.69.83-29.56.9-3.43,0-6.87.15-10.29.5-3.17.33-6.31.85-9.48,1.17-10.67,1.07-21.42-.18-32.07-1.42l-10.84-1.27a4.59,4.59,0,0,1-2.14-.62,3.77,3.77,0,0,1-1.34-2.36,9.77,9.77,0,0,1,.43-5.66c.42.07,13.27,2,23.84,2.75,10.75.75,25.5-1.75,33.75-1.38s30.56.27,35.15.08A54.6,54.6,0,0,1,881.31,834.47Z"/><path class="cls-29" d="M927,532c4.25,43.1-7.43,86.81-1.43,129.71,2.39,39.69,1.73,88.77-3.46,132.44-11.54,2.74-28,.71-37.93-5.76,2.6-17,5.17-34,5.67-51.12.31-10.78-.2-21.58-.84-32.35-2.79-46.41-9.17-74.37-17.12-120.18-3,17.7-8.18,46-5.85,87.67,1.57,9.15,2.64,16,4.21,25.11.93,5.38,8.89,74,9.55,85.85l-.76.46c-12,.73-25,1.64-37,2.73l-.45-.94c-4.24-34.71-12.47-69.42-16.71-104.12A1112.63,1112.63,0,0,1,817,523.27Z"/><polygon class="cls-30" points="841.27 793.94 881.31 791.61 881.08 782.77 879.07 782.87 841.6 785.66 840.27 786.77 841.27 793.94"/><path class="cls-30" d="M884.21,788.42l-.89-.82L881,796.71s9.16,5.56,23.16,6.31,17.67-.92,17.67-.92l1.44-8.17-1.18.25S897.64,798.08,884.21,788.42Z"/><path class="cls-31" d="M868.37,281.65c13.09-7,27.25-13.32,38.4-23.15,0,0,5.54,10.21,6.69,14.11,0,0,38.12,23.23,43.48,31.22s8.59,7.65,10.88,27.27,6.17,52.09,2.7,86.41c-2.68,26.55-14.15,70-21.3,92.53-.52,1.64-6.12,6.25-6.57,7.58a46.56,46.56,0,0,1-2.69,7.1s-4.58.3-12.82-1.61-13.9,8.56-13.9,8.56c-6,3.94-62.29,4.27-76.69,1.45-14.55-2.85-21.85-6.09-22.27-6.58s-.93-113.82,6.86-166.23c-12.65,18-20.6,34.23-47.73,34.16-26.13-.06-68.53-48.63-75.63-58.41-1.27-1.75,0-6.17,0-6.17l-7.29-8.37,15-15.5,7.28,5.32c15.07,13.69,42.5,39.41,47.63,42S771.71,357,777,354.89c5.94-2.41,9.68-8.21,13-13.68l30.59-50c10.33-14.08,26.76-14,34.08-14.45l7.07-13.7a69.35,69.35,0,0,0,6.56,18.56"/><path class="cls-32" d="M821.13,360.31c2-13.45,5-32.54,7.59-44.79"/><path class="cls-32" d="M854.68,276.28a43.13,43.13,0,0,1-1.4,14.07,57.35,57.35,0,0,0,13.57-9.7"/><path class="cls-32" d="M868.37,280.31c1.33,3.66,10.4,14.46,10.4,14.46,14.46-7.15,23.12-13.18,34.69-22.17"/><path class="cls-32" d="M867.82,280c-6.76,30.05-15.12,65.68-18.74,96.26-1.45,12.23-2.39,24.51-3.33,36.79-3.07,40-4.91,83.65-3.64,120.83"/><path class="cls-32" d="M908.36,343.45c-2.71,10.93-4.62,34.68-5.3,35.32-.49.47-15.38,4.94-15.68,4.91s-11.35-8.57-11.72-9.42,2.72-22.25,4.14-32Z"/><path class="cls-20" d="M937.73,514.77"/><path class="cls-20" d="M865.32,647.67c.67,24.26-10.57,34.22-17.88,38.69"/><path class="cls-20" d="M866,671.93a37.29,37.29,0,0,1-7.7,17.38"/><path class="cls-20" d="M926.57,674a29.35,29.35,0,0,1-6.49,12.31"/><path class="cls-32" d="M777.29,355.77c1.49,3.71,4.3,5.4,7.93,7.06a47.42,47.42,0,0,0,11.55,3.08"/><path class="cls-32" d="M776.11,355.77a14.24,14.24,0,0,0,3.27,9.67,28.19,28.19,0,0,0,2,2.13"/><path class="cls-32" d="M773.91,356.12c-3.5,7.38-3.16,15.15.08,22.65"/><path class="cls-32" d="M823.68,343.34c-.68-4.79-2.52-10.72-5.45-14.56"/><path class="cls-32" d="M932.25,370.76c-2.7-5.19-5.16-8.15-5.59-14"/><line class="cls-32" x1="713.7" y1="312.2" x2="699.94" y2="327.11"/><path class="cls-27" d="M887.11,816.8a49.09,49.09,0,0,0-5-1.53c-3.54-.94-2.89,6.91-4.86,9.91s-8.16,12-8.16,12c-9.38,8.64-6,18.32-6,18.32,1.26,3,5.11,3.85,8.39,4.16q4.24.4,8.5.62a58.29,58.29,0,0,0,15.66-.82c5.12-1.14,10.08-3.57,13.46-7.59s4.93-9.74,3.21-14.69c.94-7,.07-8.72-1.18-15.64-.07-.37-.18-.8-.53-.95s-.78.12-1.15.28a3.25,3.25,0,0,1-3.55-1.17,18.32,18.32,0,0,1-2-3.48,13.19,13.19,0,0,0-6-5.7,6.18,6.18,0,0,0-3.89-.66,8,8,0,0,0-3.31,2C889,813.3,888.81,815.34,887.11,816.8Z"/><path class="cls-20" d="M873.89,213.14,863,223.36a4.46,4.46,0,0,0-1.27,1.63,1.53,1.53,0,0,0,.52,1.84,2.18,2.18,0,0,0,1,.2,46.06,46.06,0,0,0,8.47-.5"/><path class="cls-20" d="M867.33,236.93a10.64,10.64,0,0,0,8.39,2.77,15.24,15.24,0,0,0,8.21-3.64"/><path class="cls-20" d="M705.71,306.48c-1.61-4.82-6.86-10.11-11.4-12.39a17.7,17.7,0,0,0-7.95-1.49c-2.92,0-7.92.08-10.75,0s-8.33-.83-10-.5-3.07,4.41,1.1,5.49"/><path class="cls-20" d="M645.74,301.52c-2.83,0-4.11-1.08-4.11-2.33,0-1.92,2.67-2.18,3.63-2.16,7.35.21,14.31.34,21.45.55,2.72-.55,5.89-.55,7.81.26a46.44,46.44,0,0,1,6.44-.43l1.48-1.24"/><path class="cls-20" d="M665.77,301.92c-10-.44-14.5-.19-24.49-.52a4.64,4.64,0,0,0-2.8.51,2.19,2.19,0,0,0-.76,2.77,2.48,2.48,0,0,0,1.89.89H643"/><path class="cls-20" d="M664,305.59c-9.55,0-11.63.19-20.93,0a4.89,4.89,0,0,0-2.8.49,2.22,2.22,0,0,0-.64,2.82,2.4,2.4,0,0,0,1.89.85c2.35.2,22,.19,22,.19"/><path class="cls-20" d="M648.83,309.89c-1.13,0-2.77-.21-3.59.28a2.16,2.16,0,0,0-.68,2.76,3.2,3.2,0,0,0,2,1,180,180,0,0,0,21.62,1.74,107.24,107.24,0,0,0,13.28-.46c3.75-.37,5.35-.5,7.2.7s3,4.38,3,4.38"/><path class="cls-24" d="M911,525.6s-6.49,8.38-8.34,12.12-5,5.24-5.57,5.92-.77,1.56,0,3,3.94,2.24,6.25.65l1.9-1.25Z"/><path class="cls-24" d="M916.89,512.22s-8.2,19-9.17,21.49-3.15,5.76-3.31,6.54-1,10.36-1,10.36-1.52,7.9,6.46,6.31A3.29,3.29,0,0,0,913.3,560a5.25,5.25,0,0,0,4.6-2.65s.81,4.63,5.72,2.7c1.67-.66,2.14-3.64,2.14-3.64a3,3,0,0,0,4.63.93c2.22-1.5,2.06-6.85,2.37-9a52.28,52.28,0,0,1,1.25-5.45s3.11-9,4-12.77,0-15.63,0-15.63Z"/><path class="cls-20" d="M917.9,557.37s1-6.72,1.45-11.82"/><line class="cls-20" x1="927.06" y1="545.56" x2="925.76" y2="556.44"/><path class="cls-20" d="M909.87,556.9s.21-8.57,1.17-13"/><path class="cls-31" d="M932.39,339.11c-1.07,24.29.43,58.8,3.51,82.91C927.67,454,915,513.55,915,513.55a18.36,18.36,0,0,0,12.15,9.55c8.24,1.91,12.82,1.61,12.82,1.61a46.56,46.56,0,0,0,2.69-7.1c.44-1.33,6-5.94,6.57-7.58,7.15-22.57,18.61-66,21.3-92.53,3.47-34.32-.41-66.79-2.7-86.41"/><path class="cls-32" d="M937,422.74a55.79,55.79,0,0,0,8.5-3.93,18.68,18.68,0,0,0,6.66-6.45c.38-.66.66-1.62.07-2.1a1.52,1.52,0,0,0-.9-.27,5.9,5.9,0,0,0-5.09,2.53"/><path class="cls-32" d="M935.57,425.8a13.58,13.58,0,0,0,6.76-.13"/><circle class="cls-33" cx="864.6" cy="317.83" r="1.06"/><circle class="cls-33" cx="857.6" cy="356.12" r="1.06"/><circle class="cls-33" cx="848.49" cy="482.44" r="1.06"/><circle class="cls-33" cx="849.55" cy="436.61" r="1.06"/><circle class="cls-33" cx="852.72" cy="395.46" r="1.06"/><path class="cls-26" d="M912.95,842.8a16.67,16.67,0,0,1-3.84,9c-3.38,4-8.35,6.45-13.46,7.59a58.22,58.22,0,0,1-15.66.82c-2.83-.15-5.67-.35-8.49-.62-3.28-.31-7.13-1.12-8.39-4.16a16.37,16.37,0,0,1,.22-9.58,0,0,0,0,1,0,0c.24-.41,5.16-8.31,20.14-4.85,6.5,1.5,10.5,5,10.5,8.25,0,0,9.25-.75,12.25-2.75A58.16,58.16,0,0,1,912.95,842.8Z"/><path class="cls-20" d="M879.52,833s6.81-12.08,7.59-16.23"/><path class="cls-20" d="M905.9,819.68s-2.17,6.78-8.5,16.86"/><path class="cls-20" d="M879.9,832.34a25,25,0,0,1,18,3.39"/><path class="cls-20" d="M899.52,833s-5.38-6.5-17.91-3.84"/><path class="cls-20" d="M883.31,825.88s9.83-3.23,17.95,4"/><path class="cls-20" d="M902.75,827s-6.05-6.37-17.58-5"/><path class="cls-20" d="M886.21,819.61s11.36-3.29,17.77,4.81"/><path class="cls-20" d="M813.89,827.12s22.75-9,32.84-15.08c2.37-1.43,5.15-1.88,6.86-.64"/><line class="cls-20" x1="812.89" y1="821.39" x2="816.73" y2="825.62"/><line class="cls-20" x1="817.59" y1="819.3" x2="822.02" y2="823.5"/><line class="cls-34" x1="823.49" y1="816.6" x2="827.89" y2="820.77"/><line class="cls-34" x1="829.72" y1="813.68" x2="833.89" y2="818.15"/><line class="cls-34" x1="835.42" y1="810.96" x2="839.45" y2="815.15"/><line class="cls-34" x1="840.84" y1="808.65" x2="844.08" y2="812.84"/><path class="cls-20" d="M863.34,845.87s3.72,7.9,30.64,3.4"/><path class="cls-20" d="M889.8,712s2.46,17,10.46,29"/><line class="cls-20" x1="871.91" y1="584.77" x2="868.37" y2="569.27"/><path class="cls-20" d="M875.18,291s-8.75,54.57-10.58,66.17-7.85,51.48-9.84,176.71"/><path class="cls-32" d="M671.69,308.36l2.81-5.34s7.34,5.2,13.76,1.33"/><path class="cls-32" d="M917.7,501s4.75,10,21.24,11.26"/><line class="cls-32" x1="906.33" y1="354.54" x2="878.24" y2="353.08"/><line class="cls-20" x1="683.14" y1="298.02" x2="680.96" y2="297.43"/><ellipse cx="863.07" cy="207.94" rx="1.45" ry="2.91"/><ellipse cx="884.92" cy="213.14" rx="1.45" ry="2.91"/><path class="cls-35" d="M924.82,191.86c.53,12.65-3.7,26.36-3.7,26.36-1.75-13.27-8.5-18.84-14.78-22.38-9.72-5.46-38.73-14.26-44-14.56-4.58-.26-4.1,5.89-4.1,5.89S843.11,177.3,843,175.09c-.08-1.82-1.11-4.41,19.78.66a49.67,49.67,0,0,1,14.62-15c15.46-4.72,38.42,5.58,44.84,19.11A31.47,31.47,0,0,1,924.82,191.86Z"/><path d="M848.7,175.42a16.17,16.17,0,0,1,1.62,0c.51,0,1.13.08,1.83.18s1.5.18,2.36.33c1.72.28,3.7.7,5.81,1.22s4.35,1.08,6.59,1.67c4.47,1.2,8.88,2.57,12.18,3.62s5.47,1.84,5.47,1.84a.29.29,0,0,1-.17.55l-5.56-1.51-5.7-1.53-6.55-1.69c-2.23-.56-4.47-1.1-6.57-1.57l-5.75-1.24-4.06-.87-1.53-.3h0a.37.37,0,0,1,.06-.73Z"/><ellipse cx="919.61" cy="187.95" rx="0.72" ry="1.47" transform="translate(-7.09 38.84) rotate(-2.41)"/><ellipse cx="922.74" cy="192.8" rx="0.72" ry="1.47" transform="translate(-7.29 38.98) rotate(-2.41)"/><path class="cls-20" d="M914.54,170.51s.64,4.29-5.27,20.93"/><polygon class="cls-36" points="894.03 170.02 890.3 177.52 872.81 173.46 877.66 166.07 894.03 170.02"/><path class="cls-32" d="M917.08,205.24a3.67,3.67,0,0,0,1.47-4c-.67-2.74-2.47-10.89-39.48-21.18-6.53-1.82-11.89-3.22-16.27-4.28"/><path class="cls-32" d="M901,193.43c1.73,4.82,2.11,5.85,5.23,9.92a2.86,2.86,0,0,1,.47,3.43,67.59,67.59,0,0,0-2.31,9.81,1.61,1.61,0,0,0,.06,1,1.59,1.59,0,0,0,.93.64c2,.73,11-7.39,13.56.7"/><path class="cls-24" d="M909,234.09a3.74,3.74,0,0,0,7.27-1.36c.11-1.29-.24-4.29.73-5.39s4.38-2.75,5.29-5.5c.79-2.35.78-5.9-1.42-7.19s-7,.14-8.4,3.58"/><path class="cls-32" d="M914.56,221.7s2-3.66,3.58-3,1.18,1.95.43,2.77"/><path class="cls-32" d="M909,230.52s1.07-2.94,3.47-1.47"/><path class="cls-20" d="M863.21,252.52q0,7.13.33,14.25"/><path class="cls-32" d="M881.81,201.64s7.55-.57,9.12,4.63"/><path class="cls-32" d="M860,198.11s7.55-.57,9.12,4.63"/><path class="cls-20" d="M781.88,835.73s19.22,2.95,28.22,3.16,23.83-1.71,28-1.58,31-.15,31-.15"/><path class="cls-20" d="M862.59,849.58s5.27,6.36,20.73,4.7,24.79-4,29.31-9.51"/><path class="cls-37" d="M672.93,311.44c-.45,1.34-6.6.8-13.31-2.13-6.91-3-4.28-6.35-4.28-6.35l16.09,5.46a2.38,2.38,0,0,1,1.49,3Z"/><path class="cls-26" d="M686.31,299.27l.83,3.33s2.45-.18,2.45,1.43c0,2.28-2.88,1.89-2.88,1.89l-2.25,0-2.64-1,0-4.56Z"/><path class="cls-26" d="M652,302.36s-4.45,1.44-3.83,3.29c.75,2.26,5.81-.32,5.81-.32"/><path class="cls-2" d="M672.89,308.59a66.5,66.5,0,0,1-8.93.62s-13,.42-13-16c0-8.58,8.63-14.14,15.33-14.74,4-.37,6.16.81,8.68.79s4.61-1.42,8.47-.57c5.91,1.31,11.86,7.08,11.53,17.07-.08,2.29-2.12,4.15-9.1,4.2-1.31,0-3.67,1.84-3.67,1.84l.32,2.17s2.18-.07,2.18,1.2a2.36,2.36,0,0,1-2,2.32c-1.92,0-1.8-.91-4.24-1.55C678.48,305.94,674.34,308.58,672.89,308.59Z"/><path class="cls-38" d="M690.23,281.26a2.18,2.18,0,1,0-3.68-2.35"/><path class="cls-39" d="M653.59,305.17c14.29-2.93,14.26-11.38,20-12.33,5.61-.92,8.49,8.64,8.68,9.26l0-.29s2.36-1.83,3.67-1.84c7-.05,9-1.92,9.1-4.21.33-10-5.62-15.76-11.53-17.07-3.86-.86-6,.55-8.47.56s-4.66-1.16-8.69-.79c-6.7.61-15.14,6.17-15.33,14.74C650.85,299.13,652,302.86,653.59,305.17Z"/><path class="cls-20" d="M663.52,309.19s-13.67.25-12.52-16c.6-8.56,8.63-14.14,15.33-14.74,4-.37,6.16.81,8.68.79s4.61-1.42,8.47-.57c5.91,1.31,11.86,7.08,11.53,17.07-.08,2.29-2.12,4.15-9.1,4.2-1.31,0-3.67,1.84-3.67,1.84l.32,2.17s2.23.7,2.18,2a1.55,1.55,0,0,1-2,1.55c-.66.16-1.4-.1-2.59-.8a2.33,2.33,0,0,0-2.48,0C673.1,309.85,663.52,309.19,663.52,309.19Z"/><ellipse cx="686.88" cy="290.83" rx="1.28" ry="1.92" transform="translate(-2.1 5.01) rotate(-0.42)"/><path d="M691.74,295.1h-1.27c-.9,0-1.34.88-.7,1.39l.91.72a.86.86,0,0,0,1.08,0l.77-.74C693.07,295.9,692.6,295.09,691.74,295.1Z"/><path class="cls-38" d="M683.78,282.85a2.18,2.18,0,1,0-4.07,1.58"/><path class="cls-2" d="M661.51,409.94l.39,0c.26,0,.62-.06,1.11,0a15.34,15.34,0,0,1,1.74.08,21,21,0,0,1,2.23.34,23.09,23.09,0,0,1,2.58.68,27.88,27.88,0,0,1,2.78,1.06c.94.42,1.9.88,2.84,1.42s1.89,1.09,2.82,1.69a15.52,15.52,0,0,1,2.55,2.1,22.79,22.79,0,0,1,2.07,2.44,21.06,21.06,0,0,1,1.58,2.54,22.47,22.47,0,0,1,1.1,2.44c.29.78.51,1.5.68,2.15s.27,1.22.34,1.7a10.94,10.94,0,0,1,.13,1.11l0,.39a.15.15,0,0,1-.29,0h0l-.07-.38c-.05-.25-.1-.61-.21-1.07s-.25-1-.44-1.64-.45-1.31-.77-2.05a22.64,22.64,0,0,0-2.82-4.67,26.57,26.57,0,0,0-2-2.3c-.76-.72-1.52-1.44-2.33-2.15a16.23,16.23,0,0,0-2.61-1.84,23.92,23.92,0,0,0-2.81-1.3,32,32,0,0,0-5.29-1.42c-1.58-.27-2.91-.42-3.83-.53l-1.48-.18a.29.29,0,0,1,0-.57Z"/><path class="cls-2" d="M607.36,337l-.11-.92c-.06-.59-.18-1.39-.36-2.37s-.47-2.09-.8-3.28a37.31,37.31,0,0,0-1.36-3.62c-.29-.59-.55-1.2-.87-1.76s-.64-1.11-1-1.65-.65-1-1-1.49-.65-.89-1-1.27a23.45,23.45,0,0,0-1.57-1.82l-.63-.67h0a.18.18,0,0,1,.24-.26l.72.59c.23.19.49.43.79.72s.64.6,1,1,.7.8,1.07,1.25.73,1,1.11,1.47a29.37,29.37,0,0,1,2,3.48c.27.63.57,1.24.78,1.88s.42,1.27.6,1.88.33,1.21.42,1.8.19,1.12.24,1.63a17.31,17.31,0,0,1,.13,2.46l0,.92a.2.2,0,0,1-.39,0Z"/><path class="cls-2" d="M412.95,315.14l.67-.77c.21-.25.5-.53.82-.86s.7-.68,1.13-1.06.9-.75,1.4-1.17,1.05-.81,1.64-1.2,1.19-.8,1.83-1.17,1.3-.74,2-1.1a36.51,36.51,0,0,1,4.07-1.74,25,25,0,0,1,3.74-1,12.69,12.69,0,0,1,1.53-.21,11.76,11.76,0,0,1,1.19-.08h1a.27.27,0,0,1,0,.53h0l-1,.09a11.2,11.2,0,0,0-1.14.15c-.44.05-.93.17-1.47.29a27.27,27.27,0,0,0-3.58,1.08,35.58,35.58,0,0,0-3.93,1.74c-.64.36-1.3.67-1.92,1.05s-1.23.74-1.8,1.11c-1.14.76-2.2,1.5-3,2.2s-1.54,1.28-2,1.74l-.74.71a.27.27,0,0,1-.39-.37Z"/><path class="cls-2" d="M613.07,403.57l.45.26a7.24,7.24,0,0,1,1.15.87,9.09,9.09,0,0,1,1.36,1.52,11.42,11.42,0,0,1,1.12,2,11.86,11.86,0,0,1,.6,2.26,8.8,8.8,0,0,1,.09,1.07,8,8,0,0,1,0,1,7.48,7.48,0,0,1-.23,1.41l-.15.52a.3.3,0,0,1-.58-.12v0l.06-.5a8.7,8.7,0,0,0,.08-1.32,7.24,7.24,0,0,0,0-.88c0-.31-.09-.63-.13-1a10.88,10.88,0,0,0-.59-2,11.38,11.38,0,0,0-1-1.88c-.2-.27-.38-.55-.57-.79a7.21,7.21,0,0,0-.57-.66,8.93,8.93,0,0,0-1-.9l-.41-.33a.3.3,0,0,1,.34-.49Z"/><path class="cls-2" d="M533.91,376.49l.6,0a4.32,4.32,0,0,1,.71.08,5.39,5.39,0,0,1,.92.2,7.34,7.34,0,0,1,1,.37,10.41,10.41,0,0,1,1.1.55,9.64,9.64,0,0,1,1.07.76,11.48,11.48,0,0,1,1,.91,10,10,0,0,1,.86,1.05,10.58,10.58,0,0,1,.68,1.12,9.44,9.44,0,0,1,.48,1.13,7.37,7.37,0,0,1,.28,1.07,4.84,4.84,0,0,1,.13.92,4.4,4.4,0,0,1,0,.72l0,.62a.29.29,0,0,1-.58,0v0l-.06-.57a3.84,3.84,0,0,0-.1-.65,6,6,0,0,0-.19-.82,6.51,6.51,0,0,0-.33-.94,10.86,10.86,0,0,0-.47-1,12,12,0,0,0-1.41-2,10.52,10.52,0,0,0-.89-.84,10.67,10.67,0,0,0-1-.71,9.55,9.55,0,0,0-1-.55,6.53,6.53,0,0,0-.92-.39,5.36,5.36,0,0,0-.8-.25,3.69,3.69,0,0,0-.64-.14l-.59-.09a.29.29,0,0,1,.05-.58Z"/><path class="cls-2" d="M418.44,352.58l.82.43.93.51c.16.09.4.21.58.34l.61.42a14.76,14.76,0,0,1,2.6,2.38,15.44,15.44,0,0,1,2.24,3.38,17.87,17.87,0,0,1,.78,1.9c.22.64.4,1.28.56,1.9a27.65,27.65,0,0,1,.54,3.45,32.57,32.57,0,0,1,.14,3.38.25.25,0,0,1-.25.24.25.25,0,0,1-.24-.22l-.1-.91c-.06-.58-.16-1.41-.31-2.39a28.94,28.94,0,0,0-.68-3.31c-.16-.59-.34-1.2-.56-1.81a16.84,16.84,0,0,0-.77-1.79,16.59,16.59,0,0,0-2.07-3.19,17.61,17.61,0,0,0-2.36-2.36l-.56-.43c-.18-.15-.33-.24-.52-.36l-.88-.59-.76-.52a.25.25,0,0,1,.25-.42Z"/><path class="cls-2" d="M414.77,487.66s0,.41.09,1.1a26.68,26.68,0,0,0,.48,2.84c.25,1.17.63,2.52,1.08,4l.71,2.21c.25.75.49,1.53.79,2.23a6.23,6.23,0,0,0,1.19,1.88,20.19,20.19,0,0,0,1.67,1.55c1.15,1,2.2,1.9,3.17,2.6a19.57,19.57,0,0,0,2.42,1.54c.61.32,1,.46,1,.46a.29.29,0,0,1-.2.55h0s-.39-.13-1.06-.42a16.37,16.37,0,0,1-2.61-1.46,38.13,38.13,0,0,1-3.31-2.55,21,21,0,0,1-1.77-1.6,6.77,6.77,0,0,1-1.39-2.16c-.32-.79-.55-1.56-.79-2.32l-.69-2.24a40.1,40.1,0,0,1-1-4.06,23,23,0,0,1-.33-3c0-.72,0-1.12,0-1.12v0a.29.29,0,0,1,.59,0Z"/><path class="cls-2" d="M533,466.31l.19-3c.11-1.77.24-4.14.3-6.51l.06-3.48c0-1.11,0-2.15,0-3,0-1.78,0-3,0-3a.28.28,0,0,1,.28-.28.28.28,0,0,1,.28.25s.16,1.19.27,3,.17,4.18.1,6.57-.27,4.77-.5,6.55-.43,3-.43,3a.28.28,0,0,1-.32.23A.28.28,0,0,1,533,466.31Z"/><path class="cls-40" d="M532.22,361.33"/><path class="cls-2" d="M532.74,356.31l0-1.09c0-.65,0-1.52,0-2.38l-.08-2.38c0-.65,0-1.09,0-1.09a.33.33,0,0,1,.33-.33.34.34,0,0,1,.32.25,11,11,0,0,1,.22,1.09,18.08,18.08,0,0,1,.22,2.44,20.58,20.58,0,0,1-.09,2.45c-.07.67-.15,1.1-.15,1.1h0a.35.35,0,0,1-.69-.06Z"/><path class="cls-2" d="M562.89,409.1a2.67,2.67,0,0,1,.31-.12,3.18,3.18,0,0,1,.69-.12,1.41,1.41,0,0,1,.69,0,.9.9,0,0,1,.31.2.34.34,0,0,1,0,.46.9.9,0,0,1-.31.2,1.41,1.41,0,0,1-.69,0,3.18,3.18,0,0,1-.69-.12,2.68,2.68,0,0,1-.31-.12.26.26,0,0,1,0-.46Z"/><path class="cls-2" d="M569.31,409.11S570,409,571,409s2.41-.12,3.78-.14,2.75,0,3.78,0,1.72.1,1.72.1a.3.3,0,0,1,0,.59s-.69.08-1.72.15-2.41.11-3.78.13-2.75,0-3.78,0-1.72-.08-1.72-.08a.3.3,0,0,1,0-.59Z"/><path class="cls-40" d="M687.22,435"/><path class="cls-2" d="M688.1,440.66s.1,1.39.2,3.49.19,4.88.26,7.67.09,5.58.07,7.68-.05,3.49-.05,3.49a.28.28,0,0,1-.55,0s-.1-1.39-.2-3.49-.19-4.88-.26-7.67-.08-5.58-.07-7.68,0-3.49,0-3.49a.28.28,0,0,1,.55,0Z"/><path class="cls-2" d="M663.55,487.35l.37,0a8.7,8.7,0,0,0,.92-.15,12,12,0,0,0,2.67-.84,14.84,14.84,0,0,0,2.41-1.42c.31-.23.57-.43.74-.57l.28-.23h0a.24.24,0,0,1,.35.31,5.51,5.51,0,0,1-.86,1.09,7.67,7.67,0,0,1-2.53,1.72,8.49,8.49,0,0,1-3,.68,7.36,7.36,0,0,1-1,0l-.37,0a.24.24,0,0,1,0-.47Z"/><path class="cls-2" d="M571.56,487.73s.81-.07,2-.12,2.84-.09,4.47-.1c.81,0,1.63,0,2.39,0s1.47,0,2.08.07c1.22.05,2,.13,2,.13a.27.27,0,0,1,0,.55s-.81.08-2,.13c-.61,0-1.32.07-2.08.07s-1.57,0-2.39,0c-1.62,0-3.25,0-4.47-.1s-2-.12-2-.12a.27.27,0,0,1,0-.55Z"/><path class="cls-2" d="M439.39,304.78s.88-.06,2.19-.11,3.06-.08,4.81-.09c.88,0,1.75,0,2.57,0s1.59,0,2.24.06c1.31,0,2.19.12,2.19.12a.3.3,0,0,1,0,.6s-.87.08-2.19.12c-.66,0-1.42.06-2.24.06s-1.7,0-2.57,0c-1.75,0-3.5,0-4.81-.09s-2.19-.11-2.19-.11a.3.3,0,0,1,0-.6Z"/><path class="cls-2" d="M414.16,411s0,.21.09.52.09.73.11,1.15a9.85,9.85,0,0,1,0,1.15,1.17,1.17,0,0,1-.21.52.35.35,0,0,1-.49.06l-.06-.06a1.17,1.17,0,0,1-.21-.52,10,10,0,0,1,0-1.15c0-.42.06-.83.11-1.15s.09-.52.09-.52a.28.28,0,0,1,.55,0Z"/><path class="cls-2" d="M413.86,420s0,.35.09.89.09,1.24.09,1.95a15.15,15.15,0,0,1,0,1.95,5.26,5.26,0,0,1-.15.89.31.31,0,0,1-.6,0,5.26,5.26,0,0,1-.15-.89,15.15,15.15,0,0,1,0-1.95c0-.71.06-1.42.09-1.95s.09-.89.09-.89a.3.3,0,0,1,.6,0Z"/><path class="cls-2" d="M414.13,431.32l.29,3.9c.14,2.34.27,5.47.32,8.6,0,1.56,0,3.13,0,4.6s0,2.84-.09,4-.1,2.15-.13,2.83l-.06,1.07a.29.29,0,0,1-.57,0l-.06-3.9c0-2.34-.05-5.46-.09-8.58l-.19-12.49a.28.28,0,0,1,.57,0Z"/><path class="cls-2" d="M472.68,468.67s-.14-1-.21-2.6c-.06-.78,0-1.69-.07-2.67s0-2,0-3.06c0-2.08.08-4.17.13-5.73s.13-2.6.13-2.6a.21.21,0,0,1,.43,0s.07,1,.13,2.6.12,3.65.13,5.73c0,1,0,2.08,0,3.06s0,1.89-.07,2.67c-.06,1.56-.21,2.6-.21,2.6a.22.22,0,0,1-.43,0Z"/><path class="cls-2" d="M473.79,417.29l.47-.5c.3-.31.75-.76,1.32-1.26s1.25-1.06,2-1.62a26.39,26.39,0,0,1,2.53-1.57,19.71,19.71,0,0,1,2.74-1.19,15.49,15.49,0,0,1,2.52-.65,12.79,12.79,0,0,1,1.83-.21l.7,0a.23.23,0,0,1,0,.46h0l-.67.13c-.42.07-1,.21-1.73.4a24.3,24.3,0,0,0-2.37.78,24.62,24.62,0,0,0-2.6,1.19,33.37,33.37,0,0,0-4.53,2.9c-.59.45-1.08.81-1.42,1.09l-.54.43a.23.23,0,0,1-.31-.34Z"/><path class="cls-2" d="M548.63,404s.17,1.14.35,2.86.34,4,.43,6.3.11,4.59,0,6.31-.2,2.87-.2,2.87a.51.51,0,0,1-1,0s-.21-1.14-.39-2.85-.33-4-.39-6.3-.06-4.59,0-6.31.16-2.87.16-2.87a.5.5,0,0,1,1,0Z"/><path class="cls-2" d="M549.25,425.51a1.67,1.67,0,0,1,.13.29,2.24,2.24,0,0,1,.11.63,1.45,1.45,0,0,1-.09.63,1.05,1.05,0,0,1-.15.29.64.64,0,0,1-.9.1l-.1-.1a1,1,0,0,1-.15-.29,1.44,1.44,0,0,1-.09-.63,2.22,2.22,0,0,1,.11-.63,1.64,1.64,0,0,1,.13-.29.59.59,0,0,1,.81-.19A.6.6,0,0,1,549.25,425.51Z"/><path class="cls-2" d="M544.55,404.49s.1.67.2,1.66.19,2.33.21,3.66,0,2.67,0,3.67-.17,1.67-.17,1.67a.51.51,0,0,1-1,0s-.12-.66-.23-1.66-.17-2.33-.18-3.66,0-2.67.08-3.67.14-1.67.14-1.67a.5.5,0,0,1,1,0Z"/><path class="cls-32" d="M481.37,513.45q14.48-18,29.3-35.69"/><path class="cls-32" d="M503.27,501.37q9.4-12.16,19.91-23.41"/><path class="cls-32" d="M607.33,503.85q4.53-7.1,9.65-13.78"/><path class="cls-32" d="M613,506.42c7-10.82,14.07-19.13,21-30.55"/><path class="cls-32" d="M634.1,515.91c4.52-6.09,7.83-9.66,11.05-14.94"/><path class="cls-32" d="M475.14,333.87q14.48-18,29.3-35.69"/><path class="cls-32" d="M518.86,314.54q4.53-7.1,9.65-13.78"/><path class="cls-32" d="M524.55,317.11c7-10.82,14.07-19.13,21-30.55"/><path class="cls-41" d="M1366.56,641.41c-.5.66-1,1.48-1.54,2.25s-1,1.61-1.46,2.44-.93,1.66-1.35,2.52-.85,1.7-1.23,2.58-.75,1.75-1.11,2.63-.65,1.78-1,2.67-.55,1.81-.83,2.71-.44,1.82-.67,2.74-.33,1.84-.51,2.76-.21,1.85-.33,2.77-.09,1.85-.14,2.77,0,2,0,3v11.73c-3.57,0,8,0-8,0h0v-.43h0l8-.19c0,.6,0,1,0,1.4s0,.85-.05,1.26c0,.83-.13,1.66-.24,2.48a35.05,35.05,0,0,1-1,4.87,29.23,29.23,0,0,1-4.37,9.18,25.58,25.58,0,0,1-7.66,7,27.44,27.44,0,0,1-4.65,2.24c-.8.29-1.6.58-2.41.79l-1.23.34-1.07.26c-2.83.69-5.74,1.34-8.63,2l-8.61,1.89q-8.61,1.88-17.23,3.64l-34.48,7-17.25,3.45-8.63,1.71a16.88,16.88,0,0,0-6.41,2.8,27.26,27.26,0,0,0-5.6,5,32.25,32.25,0,0,0-4.14,6.44c-.3.57-.51,1.2-.77,1.79s-.53,1.19-.72,1.82l-.58,1.89a15.54,15.54,0,0,0-.53,1.92c-.26,1.33-.59,2.57-.81,4l-.7,4.34c-.87,5.72-1.71,11.51-2.51,17.3l-2.36,17.4-2.29,17.42c-.75,5.81-1.5,11.62-2.31,17.42s-1.69,11.6-2.63,17.38-2,11.56-3.21,17.31l-4.8-.57c.17-5.89.57-11.74,1-17.6s1-11.69,1.66-17.52,1.34-11.65,2.06-17.47l2.17-17.46,2.25-17.46c.76-5.82,1.56-11.64,2.42-17.51l.67-4.34c.23-1.5.61-3.1.92-4.65a21,21,0,0,1,.62-2.32l.7-2.31c.23-.77.59-1.51.88-2.27s.58-1.52,1-2.25a41,41,0,0,1,5.3-8.34,36.1,36.1,0,0,1,7.44-6.71,32.07,32.07,0,0,1,4.44-2.51c.79-.35,1.6-.68,2.47-1l.78-.24.15,0,.07,0,.35-.08.27-.05,1.08-.21,8.62-1.69L1263,720l34.45-6.93,17.2-3.52,8.58-1.79c2.83-.61,5.65-1.21,8.52-1.88l1.07-.24.89-.24c.61-.14,1.19-.36,1.77-.56a19.07,19.07,0,0,0,3.28-1.53,17.46,17.46,0,0,0,5.25-4.71,21.6,21.6,0,0,0,3.24-6.57,26.88,26.88,0,0,0,.84-3.72c.1-.63.17-1.27.22-1.89,0-.31,0-.63.06-.93s0-.66,0-.79l8-.19h0v.43h0c-16,0-4.43,0-8,0V673.2c0-1,0-2,0-3.12s0-2.22.17-3.31.21-2.2.39-3.28.36-2.17.6-3.23.49-2.13.78-3.18.6-2.1,1-3.12.69-2.06,1.11-3.05.8-2,1.26-3,.91-2,1.39-2.92,1-1.91,1.53-2.85,1.09-1.87,1.67-2.78,1.18-1.81,1.9-2.77Z"/><path class="cls-41" d="M1317.37,825.5s-.12-1.35-.27-3.72-.39-5.74-.57-9.8-.4-8.79-.55-13.85c-.08-2.53-.17-5.15-.22-7.81l-.16-8.07c-.08-5.41-.14-10.81-.15-15.88,0-2.53,0-5,0-7.31s0-4.52.06-6.55c.05-4.05.16-7.43.21-9.8s.13-3.72.13-3.72h8s.06,1.35.13,3.72.16,5.74.21,9.8c0,2,0,4.22.06,6.55s0,4.77,0,7.31c0,5.07-.06,10.47-.15,15.88l-.16,8.07c0,2.66-.13,5.28-.22,7.81-.15,5.07-.35,9.8-.55,13.85s-.44,7.43-.57,9.8-.27,3.72-.27,3.72Z"/><path class="cls-41" d="M1332.15,732.53l8.23,0,21.69.24c4.49.07,9.35.14,14.53.32l4,.16,2.1.12c.68.05,1.29.08,2.06.16a31.67,31.67,0,0,1,9.3,2.12,26.07,26.07,0,0,1,8.48,5.69l1.74,1.87c.52.66,1,1.33,1.52,2,.25.34.51.67.74,1l.64,1.05,1.27,2.12a68.24,68.24,0,0,1,6.2,18l8.14,34,3.76,15.71c1.18,5,2.28,9.73,3.24,14.11s1.82,8.4,2.54,12,1.33,6.69,1.79,9.27c1,5.15,1.4,8.12,1.4,8.12l-5.19,1.26s-1-2.84-2.49-7.85c-.77-2.5-1.66-5.55-2.66-9.06s-2.09-7.47-3.24-11.8-2.36-9-3.6-14l-3.88-15.68L1406,769.28a64.24,64.24,0,0,0-5.38-15.63l-1-1.65-.49-.83c-.17-.27-.37-.5-.55-.75l-1.1-1.49-1.22-1.31a17.19,17.19,0,0,0-5.56-3.79,22.93,22.93,0,0,0-6.73-1.53c-.57-.07-1.3-.11-1.94-.16l-1.87-.12-3.83-.17-14.41-.48-29.84-.84Z"/><path class="cls-15" d="M1366.56,641.41c-.5.67-1,1.48-1.54,2.26s-1,1.61-1.47,2.43-.93,1.67-1.35,2.52-.85,1.7-1.23,2.58-.75,1.74-1.11,2.62-.64,1.79-1,2.68-.55,1.8-.83,2.7-.45,1.83-.68,2.74-.33,1.84-.51,2.76-.21,1.84-.33,2.76-.08,1.85-.14,2.77,0,2,0,3v11.74h0c0,.27,0,.5,0,.77q0,.65-.06,1.26c-.05.84-.13,1.66-.24,2.48a35.59,35.59,0,0,1-1,4.87,29.23,29.23,0,0,1-4.37,9.18,25.51,25.51,0,0,1-7.67,7,27.89,27.89,0,0,1-4.64,2.24c-.8.28-1.6.58-2.41.78l-1.24.35-1.06.25c-2.84.69-5.74,1.35-8.63,2l-8.62,1.9q-8.61,1.88-17.23,3.64l-34.48,7-17.25,3.45-8.63,1.71a17,17,0,0,0-6.41,2.8,27.57,27.57,0,0,0-5.6,5,32.64,32.64,0,0,0-4.14,6.44c-.3.57-.5,1.2-.77,1.79s-.53,1.19-.72,1.82l-.58,1.89a16,16,0,0,0-.53,1.92c-.27,1.33-.6,2.57-.82,4l-.7,4.34c-.87,5.72-1.71,11.5-2.51,17.3l-2.36,17.4-2.29,17.42c-.74,5.81-1.49,11.62-2.3,17.42s-1.69,11.6-2.64,17.38-2,11.57-3.21,17.32l-4.8-.58c.17-5.88.57-11.74,1-17.59s1-11.69,1.66-17.52,1.34-11.65,2.06-17.47l2.17-17.46,2.25-17.47c.77-5.82,1.57-11.63,2.42-17.51l.67-4.35c.23-1.5.62-3.1.92-4.64a21.75,21.75,0,0,1,.63-2.33l.7-2.31c.23-.77.58-1.51.88-2.27s.58-1.51,1-2.24a40.75,40.75,0,0,1,5.3-8.35,36.08,36.08,0,0,1,7.44-6.71,31.48,31.48,0,0,1,4.44-2.5c.79-.35,1.6-.69,2.47-1l.78-.25.15,0,.07,0,.35-.08.27,0,1.07-.21,8.62-1.69L1263,720l34.45-6.93,17.2-3.52,8.57-1.79c2.83-.61,5.65-1.21,8.52-1.88l1.07-.25.89-.23c.61-.15,1.19-.36,1.77-.56a19.27,19.27,0,0,0,3.28-1.53,16,16,0,0,0,2.86-2.09,15.73,15.73,0,0,0,2.39-2.63,21.23,21.23,0,0,0,3.24-6.57,25.69,25.69,0,0,0,.84-3.72c.1-.63.18-1.26.22-1.89,0-.31,0-.63.06-.93s0-.39,0-.55V673.2c0-1,0-2,0-3.12s0-2.22.17-3.32.22-2.19.4-3.28.36-2.16.59-3.23.49-2.13.79-3.18.59-2.1,1-3.12.69-2.06,1.12-3.05.8-2,1.26-3,.9-2,1.39-2.92,1-1.91,1.53-2.85,1.1-1.86,1.68-2.78,1.18-1.82,1.9-2.77Z"/><path class="cls-15" d="M1356.38,684.94h0v-.44C1356.38,684.66,1356.38,684.81,1356.38,684.94Z"/><path class="cls-15" d="M1317.37,825.5s-.12-1.35-.27-3.72-.39-5.74-.57-9.8-.4-8.79-.55-13.85c-.08-2.53-.17-5.15-.22-7.81s-.11-5.36-.16-8.07c-.08-5.41-.14-10.81-.15-15.88,0-2.53,0-5,0-7.31s0-4.52.06-6.55c.05-4.05.16-7.43.21-9.8s.13-3.72.13-3.72h8s.06,1.35.13,3.72.16,5.74.21,9.8c0,2,0,4.22.06,6.55s0,4.77,0,7.31c0,5.07-.06,10.47-.15,15.88-.05,2.7-.11,5.41-.16,8.07s-.14,5.28-.22,7.81c-.15,5.07-.35,9.8-.55,13.85s-.44,7.43-.57,9.8-.27,3.72-.27,3.72Z"/><path class="cls-15" d="M1332.16,732.53l8.23,0,21.69.24c4.49.07,9.35.14,14.53.32l4,.16,2.1.12c.68.05,1.29.08,2.06.16a31.67,31.67,0,0,1,9.3,2.12,26.08,26.08,0,0,1,8.48,5.69l1.74,1.87c.52.66,1,1.33,1.52,2,.25.34.51.67.74,1l.64,1.05,1.27,2.12a68.22,68.22,0,0,1,6.2,18l8.14,34,3.76,15.71c1.18,5,2.28,9.73,3.24,14.11s1.82,8.4,2.54,12,1.33,6.69,1.79,9.27c1,5.15,1.4,8.12,1.4,8.12l-5.19,1.26s-1-2.84-2.49-7.85c-.77-2.5-1.66-5.55-2.66-9.06s-2.09-7.47-3.24-11.8-2.36-9-3.6-14l-3.88-15.68L1406,769.28a64.26,64.26,0,0,0-5.38-15.63l-1-1.65-.49-.83c-.17-.27-.37-.5-.55-.75l-1.1-1.49-1.22-1.31a17.18,17.18,0,0,0-5.56-3.79,22.92,22.92,0,0,0-6.73-1.53c-.57-.07-1.3-.11-1.94-.16l-1.87-.12-3.83-.17-14.41-.48-29.84-.84Z"/><polygon class="cls-19" points="1300.12 910.63 1305.16 915.25 1295.08 915.25 1300.12 910.63"/><path class="cls-20" d="M1297.62,907a2.52,2.52,0,1,0,5,0"/><polyline class="cls-20" points="1304.16 914.25 1304.16 915.96 1296.08 915.96 1296.08 914.25"/><polygon class="cls-19" points="1200.87 871.76 1205.91 876.38 1195.83 876.38 1200.87 871.76"/><path class="cls-20" d="M1198.37,868.13a2.52,2.52,0,1,0,5,0"/><polyline class="cls-20" points="1204.91 875.38 1204.91 877.1 1196.83 877.1 1196.83 875.38"/><polygon class="cls-19" points="1319.87 829.9 1324.91 834.52 1314.83 834.52 1319.87 829.9"/><path class="cls-20" d="M1317.37,826.27a2.52,2.52,0,1,0,5,0"/><polyline class="cls-20" points="1323.91 833.52 1323.91 835.24 1315.83 835.24 1315.83 833.52"/><polygon class="cls-19" points="1432.87 865.48 1437.91 870.09 1427.83 870.09 1432.87 865.48"/><path class="cls-20" d="M1430.37,861.85a2.52,2.52,0,1,0,5,0"/><polyline class="cls-20" points="1436.91 869.09 1436.91 870.81 1428.83 870.81 1428.83 869.09"/><path class="cls-41" d="M1404.12,652.75s0,1.34,0,3.85c0,1.26,0,2.8,0,4.62q0,.68,0,1.42V663c0-.17,0,.45,0-.38l.05.37c0,.23.07.55.12.72s.2.61.28.95l.47,1.56c1.33,4.34,3.2,9.77,5.2,16s4.22,13.37,6,21.53l.59,3.15c.17,1.08.31,2.2.46,3.32.08.55.08,1.18.13,1.77l0,.9,0,.45v.34c0-.16,0,.34,0,.33l-.08,1.6,0,.81-.15,1.07a18.74,18.74,0,0,1-.4,2.12c-.19.67-.39,1.35-.61,2s-.59,1.34-.91,2-.8,1.29-1.22,1.93a16,16,0,0,1-7.39,5.33,22.41,22.41,0,0,1-4.2,1c-.34,0-.69.09-1,.12l-.85.08-1.71.21-7.11.89L1377.12,735l-30.73,3.83-15.8,2-8,1-4,.5-1.91.24-.43.11-.62.21a11.58,11.58,0,0,0-4.66,3.53,21.38,21.38,0,0,0-3.12,5.81,36.8,36.8,0,0,0-1.56,7l-.21,1.82-.1.91,0,.93-.13,3.76-.42,31-.76,54.9c-.16,8-.3,15.4-.43,21.93l-.47,16.9-.39,10.88-.17,3.85-6.24,0-.07-3.85c0-2.51-.07-6.19-.12-10.88s0-10.38,0-16.91.08-13.89.12-21.93c.18-16.07.39-34.82.61-54.9.12-10,.23-20.42.36-31a54.22,54.22,0,0,1,2.45-17,29.26,29.26,0,0,1,4.45-8.23,19.61,19.61,0,0,1,8-6c.43-.15.84-.3,1.28-.43a13.59,13.59,0,0,1,1.53-.34l2.08-.27,4-.5,8-1,15.8-2,30.72-3.89,14.68-1.86,7.11-.9,1.79-.22.9-.09.73-.09a14.23,14.23,0,0,0,2.56-.6,7.68,7.68,0,0,0,3.52-2.49c.18-.31.38-.59.57-.89s.3-.68.46-1l.34-1.13a10.63,10.63,0,0,0,.21-1.08l.11-.53,0-.8.08-1.6c0-.08,0,.35,0,.13v-.26l0-.34,0-.68c0-.46,0-.88-.09-1.37-.13-1-.24-1.89-.38-2.83l-.52-2.84c-1.6-7.56-3.75-14.55-5.69-20.72s-3.77-11.53-5.17-16.16l-.5-1.72c-.19-.74-.37-1.48-.52-2.18-.07-.34-.08-.53-.12-.8l-.05-.37c0-.86,0-.27,0-.47v-.32q0-.73,0-1.42c0-1.82,0-3.37,0-4.62,0-2.51,0-3.85,0-3.85Z"/><path class="cls-15" d="M1404.12,652.75s0,1.34,0,3.85c0,1.26,0,2.8,0,4.62q0,.68,0,1.42V663c0-.17,0,.45,0-.38l.05.37c0,.23.07.55.12.72s.2.61.28.95l.47,1.56c1.33,4.34,3.2,9.77,5.2,16s4.22,13.37,6,21.53l.59,3.15c.17,1.08.31,2.2.46,3.32.08.55.08,1.18.13,1.77l0,.9,0,.45v.34c0-.16,0,.34,0,.33l-.08,1.6,0,.81-.15,1.07a18.63,18.63,0,0,1-.4,2.12c-.19.67-.39,1.35-.61,2s-.59,1.34-.91,2-.8,1.29-1.22,1.93a16,16,0,0,1-7.39,5.33,22.41,22.41,0,0,1-4.2,1c-.34,0-.69.09-1,.12l-.85.08-1.71.21-7.11.89L1377.12,735l-30.73,3.83-15.8,2-8,1-4,.5-1.91.24-.43.11-.62.21a11.58,11.58,0,0,0-4.66,3.53,21.37,21.37,0,0,0-3.12,5.81,36.8,36.8,0,0,0-1.56,7l-.21,1.82-.1.91,0,.93-.13,3.76c-.14,10.55-.28,20.92-.42,31-.28,20.09-.54,38.83-.76,54.9l-.43,21.93-.47,16.9-.39,10.88-.17,3.85-6.24,0-.07-3.85c0-2.51-.07-6.19-.12-10.88s0-10.38,0-16.91.08-13.89.12-21.93c.18-16.07.39-34.82.61-54.9.12-10,.23-20.42.36-31a54.22,54.22,0,0,1,2.45-17,29.27,29.27,0,0,1,4.45-8.23,19.61,19.61,0,0,1,8-6c.43-.15.84-.3,1.28-.43a13.53,13.53,0,0,1,1.53-.34l2.08-.27,4-.5,8-1,15.8-2,30.72-3.89,14.68-1.86,7.11-.9,1.79-.22.9-.09.73-.09a14.23,14.23,0,0,0,2.56-.6,7.68,7.68,0,0,0,3.52-2.49c.18-.31.38-.59.57-.89s.3-.68.46-1l.34-1.13a10.51,10.51,0,0,0,.21-1.08l.11-.53,0-.8.08-1.6c0-.08,0,.35,0,.13v-.26l0-.34,0-.68c0-.46,0-.88-.09-1.37-.13-1-.24-1.89-.38-2.83l-.52-2.84c-1.6-7.56-3.75-14.55-5.68-20.72s-3.77-11.53-5.17-16.16l-.5-1.72c-.19-.74-.37-1.48-.52-2.18-.07-.34-.08-.53-.12-.8l-.05-.37c0-.86,0-.27,0-.47v-.32q0-.73,0-1.42c0-1.82,0-3.37,0-4.62,0-2.51,0-3.85,0-3.85Z"/><path class="cls-2" d="M1356.68,648s-.4,1.27-1.09,3.14-1.68,4.33-2.47,6.83a31.35,31.35,0,0,0-.91,3.72,24.87,24.87,0,0,0-.38,3.3,20.41,20.41,0,0,0,0,2.35c0,.57.08.89.08.89a.28.28,0,0,1-.25.31.28.28,0,0,1-.3-.2,8.73,8.73,0,0,1-.21-.91,13.07,13.07,0,0,1-.25-2.45,18.76,18.76,0,0,1,.3-3.46,28.81,28.81,0,0,1,1-3.83c.84-2.55,2-5,2.75-6.79s1.31-3,1.31-3a.2.2,0,0,1,.26-.11A.21.21,0,0,1,1356.68,648Z"/><path class="cls-2" d="M1340.38,705l1.61-1a21,21,0,0,0,3.28-2.37,9.55,9.55,0,0,0,1.38-1.59,11.19,11.19,0,0,0,.9-1.58,10,10,0,0,0,.47-1.2l.14-.48a.24.24,0,0,1,.3-.16.24.24,0,0,1,.17.2,3.22,3.22,0,0,1,0,.55,4.84,4.84,0,0,1-.25,1.43,6.71,6.71,0,0,1-.94,1.82,10.52,10.52,0,0,1-1.56,1.71,16.28,16.28,0,0,1-3.57,2.28c-1,.5-1.73.78-1.73.78a.24.24,0,0,1-.31-.12A.24.24,0,0,1,1340.38,705Z"/><path class="cls-2" d="M1412.8,701.47l.36.83a9.61,9.61,0,0,1,.36,1,11.24,11.24,0,0,1,.38,1.32c.13.48.25,1,.34,1.57s.2,1.16.27,1.77a36.14,36.14,0,0,1,.23,3.89,23.56,23.56,0,0,1-.32,3.88,30.91,30.91,0,0,1-.73,3.32,12.64,12.64,0,0,1-.43,1.3,9.49,9.49,0,0,1-.43,1,5.65,5.65,0,0,1-.37.59l-.14.21a.25.25,0,1,1-.42-.28h0l0,0,.13-.18a5.16,5.16,0,0,0,.36-.52,8.23,8.23,0,0,0,.41-.91,9.94,9.94,0,0,0,.38-1.26,12.93,12.93,0,0,0,.29-1.54c.09-.55.12-1.14.16-1.74s.06-1.23.06-1.87,0-1.28,0-1.93a35.17,35.17,0,0,0-.17-3.79,29.78,29.78,0,0,0-.45-3.27c-.09-.48-.18-.91-.28-1.28a9.08,9.08,0,0,0-.27-1l-.27-.86a.25.25,0,0,1,.47-.18Z"/><path class="cls-2" d="M1399.56,655.3s0,.28,0,.77,0,1.15-.07,2a45.83,45.83,0,0,0,.3,6,57.25,57.25,0,0,0,1.11,6l.65,2.7a.16.16,0,0,1-.32.09s-.36-1.05-.84-2.66a57.18,57.18,0,0,1-1.46-6,31,31,0,0,1-.42-3.28,18.94,18.94,0,0,1,0-2.9,8.6,8.6,0,0,1,.15-1.16,7.6,7.6,0,0,1,.18-.87c.12-.47.2-.74.2-.74a.26.26,0,0,1,.5.08Z"/><path class="cls-2" d="M1384.29,737.2l.57-.08a10.76,10.76,0,0,1,1.56-.07,13.82,13.82,0,0,1,4.62.93,16.82,16.82,0,0,1,4.11,2.33,6.76,6.76,0,0,1,1.1,1.1c.23.3.35.49.35.49a.24.24,0,0,1-.32.34h0s-.19-.1-.5-.3-.73-.49-1.22-.85a17.38,17.38,0,0,0-3.85-2.26,17.7,17.7,0,0,0-2.26-.76,15.4,15.4,0,0,0-2.06-.36,11.12,11.12,0,0,0-1.48-.07h-.58a.23.23,0,0,1,0-.46Z"/><path class="cls-2" d="M1403.91,747.5l.41.52c.25.33.63.83,1,1.44a29.82,29.82,0,0,1,2.51,4.74,29.06,29.06,0,0,1,1.59,5.12,21.84,21.84,0,0,1,.38,2.41.27.27,0,0,1-.52.09l-.17-.64c-.1-.41-.27-1-.46-1.67s-.47-1.48-.74-2.32-.63-1.73-1-2.61-.75-1.75-1.15-2.55-.77-1.55-1.13-2.16-.63-1.14-.86-1.5l-.34-.57a.27.27,0,0,1,.44-.3Z"/><path class="cls-2" d="M1412.46,774.45l-.12-.84c-.06-.5-.18-1.16-.3-1.81s-.3-1.29-.37-1.79a6.56,6.56,0,0,1-.11-.84.31.31,0,0,1,.29-.32.31.31,0,0,1,.26.13,3.84,3.84,0,0,1,.4.79,7.59,7.59,0,0,1,.47,1.87,11.21,11.21,0,0,1,.12,1.93c0,.53-.07.87-.07.87h0a.3.3,0,0,1-.59,0Z"/><path class="cls-2" d="M1410.88,767.25l-.15-.54c-.08-.32-.19-.75-.31-1.17s-.25-.85-.33-1.17a5.46,5.46,0,0,1-.11-.55.4.4,0,0,1,.74-.27,3.77,3.77,0,0,1,.25.52,6.93,6.93,0,0,1,.38,1.21c.1.45.19.91.25,1.25l.05.57a.4.4,0,0,1-.78.15Z"/><path class="cls-2" d="M1304.3,755.66l-.1.85c-.08.54-.15,1.31-.25,2.23s-.16,2-.27,3.16-.13,2.4-.18,3.63c-.09,2.48-.1,5-.1,6.83s0,3.11,0,3.11a.23.23,0,0,1-.23.23.23.23,0,0,1-.23-.2s-.16-1.24-.3-3.11c-.06-.94-.12-2-.15-3.21s0-2.43,0-3.68.15-2.51.26-3.68.29-2.26.46-3.19a28.1,28.1,0,0,1,.72-3.05h0a.18.18,0,0,1,.35.08Z"/><path class="cls-2" d="M1303.39,778.39s0,.25.09.6.06.83.09,1.31,0,1,0,1.31,0,.61,0,.61a.32.32,0,0,1-.61.07,4.53,4.53,0,0,1-.17-.6,7.58,7.58,0,0,1-.09-2.71,4.34,4.34,0,0,1,.13-.61h0a.32.32,0,0,1,.61,0Z"/><path class="cls-2" d="M1303.5,784.13a1.61,1.61,0,0,1,.14.44,3.44,3.44,0,0,1,.06,1,7.14,7.14,0,0,1-.09,1c-.05.26-.11.44-.11.44a.3.3,0,0,1-.37.2.3.3,0,0,1-.2-.2s-.05-.18-.11-.44a7.14,7.14,0,0,1-.09-1,3.42,3.42,0,0,1,.06-1,1.6,1.6,0,0,1,.14-.44.32.32,0,0,1,.57,0Z"/><path class="cls-2" d="M1319.25,772.19a1.6,1.6,0,0,1,.14.44,3.42,3.42,0,0,1,.06,1,7.14,7.14,0,0,1-.09,1c-.05.26-.11.44-.11.44a.3.3,0,0,1-.57,0s-.05-.18-.11-.44a7.14,7.14,0,0,1-.09-1,3.44,3.44,0,0,1,.06-1,1.61,1.61,0,0,1,.14-.44.32.32,0,0,1,.57,0Z"/><path class="cls-2" d="M1300.84,860.08l.09-1.24c0-.78.07-1.91.11-3.26.06-2.71.09-6.33.13-10,0-1.81.06-3.62.09-5.32s.09-3.29.14-4.65.14-2.49.19-3.29l.1-1.25a.24.24,0,0,1,.48,0h0v1.24c0,.79,0,1.92,0,3.28s0,2.94,0,4.64,0,3.51,0,5.32c0,3.63-.14,7.25-.32,10-.08,1.36-.2,2.5-.28,3.29l-.16,1.24a.28.28,0,0,1-.56-.06Z"/><path class="cls-2" d="M1318.53,744.05s.13,1.62.27,4.06.24,5.69.31,8.94.11,6.5.15,8.93,0,4.06,0,4.06a.34.34,0,0,1-.69,0l-.08-1.12c0-.71-.13-1.73-.18-2.95s-.12-2.64-.15-4.17-.07-3.15-.07-4.78c0-3.25,0-6.5,0-8.94s0-4.06,0-4.06a.19.19,0,0,1,.38,0Z"/><path class="cls-2" d="M1212.12,767,1213,761l.94-6.23a49,49,0,0,1,1.66-7.09c.2-.6.4-1.17.65-1.76s.49-1.12.77-1.68a28.23,28.23,0,0,1,1.83-3.12,26.11,26.11,0,0,1,4.22-4.8,24.36,24.36,0,0,1,3.62-2.69c.46-.29.84-.49,1.09-.64l.39-.22a.3.3,0,0,1,.31.52h0l-.37.23c-.24.15-.6.36-1,.67a28,28,0,0,0-7.41,7.46,27.34,27.34,0,0,0-1.74,3c-.26.52-.51,1.07-.74,1.64s-.44,1.11-.64,1.68a48,48,0,0,0-1.71,6.93l-1.11,6.19-1.13,6a.22.22,0,0,1-.44-.07Z"/><path class="cls-2" d="M1206,809.22l.6-3.57.6-3.65c.22-1.34.45-2.76.65-4.19s.44-2.86.61-4.2l.5-3.67.49-3.59a.19.19,0,0,1,.21-.16.19.19,0,0,1,.17.19s0,1.45-.15,3.63c-.08,1.09-.16,2.36-.32,3.71s-.33,2.8-.54,4.23-.47,2.87-.72,4.21-.54,2.58-.78,3.64c-.5,2.12-.91,3.52-.91,3.52a.22.22,0,0,1-.27.16A.23.23,0,0,1,1206,809.22Z"/><path class="cls-2" d="M1204.92,816.87s0-.35.08-.84.16-1.16.27-1.82c.2-1.32.46-2.64.46-2.64a.32.32,0,0,1,.63,0h0s0,.35,0,.86a14.81,14.81,0,0,1-.15,1.89,11,11,0,0,1-.4,1.85,5.86,5.86,0,0,1-.3.81h0a.32.32,0,0,1-.61-.15Z"/><path class="cls-2" d="M1204.25,820.91a3.43,3.43,0,0,1-.1-.42,4.67,4.67,0,0,1,0-.95,2.83,2.83,0,0,1,.18-.93,1.42,1.42,0,0,1,.21-.39.35.35,0,0,1,.49,0,.36.36,0,0,1,.12.18,1.71,1.71,0,0,1,0,.42,4.42,4.42,0,0,1-.07.87c0,.31-.09.63-.13.87s-.09.4-.09.4a.32.32,0,0,1-.62,0Z"/><path class="cls-2" d="M1209.3,785a3.54,3.54,0,0,1-.1-.42,4.66,4.66,0,0,1,0-.95,2.82,2.82,0,0,1,.18-.93,1.42,1.42,0,0,1,.21-.39.35.35,0,0,1,.49,0,.36.36,0,0,1,.12.18,1.72,1.72,0,0,1,0,.42,4.46,4.46,0,0,1-.07.87c0,.31-.09.63-.13.87s-.09.4-.09.4a.32.32,0,0,1-.62,0Z"/><path class="cls-42" d="M1383.87,579.25s27.25,4,35.25,10.25,6,19.5,4.75,25-3.25,19.75-4,21.75-2,20-30,16.5-40-9.75-45.75-12.25-14.75-9.5-13.25-25.5,3-16.75,3.75-19.5,5.23-17.5,23.75-17.5C1372.62,578,1383.87,579.25,1383.87,579.25Z"/><path class="cls-42" d="M1284.62,700.5s13-1.75,24,2.5,42.75,15.25,61.25,17.5c9.27,1.13,11,1.81,11,5.51s-9,3.24-48.78,9.49c-10,1.58-32.47,16.38-40.47,16.38-12.75,0-63.18-17.86-73-21.37-5.81-2.08-9.81-9.91,3.25-20C1232.87,702,1272.62,702,1284.62,700.5Z"/><path class="cls-2" d="M1285,747.2l1.29.1c.41,0,.89,0,1.46,0s1.2,0,1.89-.09a35,35,0,0,0,4.67-.8c.85-.2,1.71-.46,2.59-.72s1.77-.55,2.65-.86c1.77-.61,3.51-1.3,5.17-1.91l4.52-1.67,4.44-1.56a.12.12,0,0,1,.09.23l-4.31,1.89-4.45,1.87c-1.62.68-3.38,1.38-5.15,2-.89.33-1.79.63-2.68.92s-1.79.51-2.66.71-1.72.36-2.54.47-1.59.16-2.31.19a19.12,19.12,0,0,1-2,0c-.58,0-1.09-.12-1.51-.17-.81-.14-1.27-.25-1.27-.25h0a.19.19,0,0,1,.06-.38Z"/><path class="cls-2" d="M1221.18,727.09s2.93.76,7.27,2.06,10.11,3.11,15.86,5l15.77,5.26,7.15,2.43h0a.29.29,0,0,1-.17.55l-2-.6c-1.26-.39-3.08-.93-5.23-1.62L1244,735.07l-15.8-5.14c-4.3-1.4-7.19-2.29-7.19-2.29a.29.29,0,0,1-.19-.36A.29.29,0,0,1,1221.18,727.09Z"/><path class="cls-2" d="M1416.35,591.78a6.38,6.38,0,0,1,.75.5,9.15,9.15,0,0,1,1.71,1.67,11.3,11.3,0,0,1,.91,1.33,6.62,6.62,0,0,1,.41.79c.11.27.25.52.35.82a14,14,0,0,1,.89,3.79,23.23,23.23,0,0,1,0,3.85c-.1,1.22-.27,2.34-.44,3.3-.35,1.91-.66,3.16-.66,3.16a.3.3,0,0,1-.36.22.3.3,0,0,1-.23-.33l.42-3.17c.13-.95.25-2.06.3-3.24a22.38,22.38,0,0,0,0-3.69,15.94,15.94,0,0,0-.75-3.55c-.08-.27-.22-.55-.32-.82s-.21-.48-.33-.74a10.62,10.62,0,0,0-.75-1.3,10.92,10.92,0,0,0-1.45-1.73c-.39-.37-.65-.58-.65-.58a.18.18,0,0,1,.2-.3Z"/><path class="cls-2" d="M1412,642.84a8,8,0,0,0,.65-.65,7.77,7.77,0,0,0,1.25-2,16.57,16.57,0,0,0,.95-3.29c.24-1.25.4-2.62.63-4,.41-2.73.87-5.46,1.23-7.51l.64-3.4a.17.17,0,0,1,.35,0l-.34,3.44c-.23,2.06-.56,4.81-.93,7.55-.18,1.37-.35,2.74-.62,4a13.26,13.26,0,0,1-1.13,3.47,7.22,7.22,0,0,1-1.56,2.12,6,6,0,0,1-.77.61.28.28,0,0,1-.36-.43Z"/><path class="cls-2" d="M1352.12,581.25l1.57-.1c1-.05,2.43-.14,4.15-.19s3.73-.08,5.88-.06,4.45.12,6.74.24,4.58.38,6.72.64,4.12.61,5.82.94c.85.16,1.62.32,2.3.5s1.28.3,1.76.44l1.52.42a.18.18,0,0,1-.08.36h0l-1.55-.29c-1-.19-2.39-.42-4.08-.68s-3.67-.49-5.8-.75c-1.06-.11-2.16-.23-3.28-.32l-3.39-.26c-2.28-.16-4.56-.28-6.7-.35s-4.14-.15-5.86-.17l-5.72-.1a.13.13,0,0,1,0-.26Z"/><path class="cls-2" d="M1348.59,727.79l4.1-.83c2.46-.47,5.75-1.07,9-1.63,1.64-.3,3.3-.55,4.84-.8s3-.46,4.24-.63c2.48-.35,4.15-.53,4.15-.53a.26.26,0,0,1,.08.51s-1.63.37-4.1.84c-1.23.23-2.67.51-4.21.77s-3.19.56-4.84.81c-3.3.53-6.6,1-9.09,1.38l-4.15.54a.21.21,0,0,1-.07-.42Z"/><ellipse class="cls-43" cx="1392" cy="643.13" rx="1.63" ry="2.38"/><ellipse class="cls-43" cx="1382.49" cy="601.44" rx="1.63" ry="2.38"/><ellipse class="cls-43" cx="1358.37" cy="634.92" rx="1.63" ry="2.38"/><path class="cls-41" d="M111.33,570.6c.65.87,1.17,1.66,1.71,2.49s1,1.65,1.5,2.49.94,1.69,1.37,2.55.86,1.73,1.25,2.61.77,1.78,1.13,2.67.66,1.82,1,2.73.57,1.86.86,2.79.47,1.9.7,2.85.36,1.93.53,2.9.23,2,.35,2.94.1,2,.15,3,0,1.86,0,2.78v10.43c-3.57,0,8,0-8,0h0v-.38h0l8,.19c0,.32,0,1,.07,1.48s.11,1.1.2,1.65.21,1.09.31,1.64.29,1.07.42,1.6a18.27,18.27,0,0,0,2.84,5.68,7.61,7.61,0,0,0,1,1.18A7.74,7.74,0,0,0,127.8,628c.4.32.77.66,1.17,1l1.3.82a7.64,7.64,0,0,0,1.39.71,13.79,13.79,0,0,0,1.45.62l1.55.47.76.23,1,.22c2.55.59,5.05,1.12,7.56,1.67l7.62,1.59,15.28,3.12,30.62,6.15,15.32,3,7.66,1.5,1,.19.24,0,.34.08.06,0,.14,0,.72.22c.79.27,1.52.57,2.24.89a28.93,28.93,0,0,1,4,2.27,32.58,32.58,0,0,1,6.72,6.06,36.92,36.92,0,0,1,4.77,7.52c.6,1.34,1.15,2.7,1.64,4.07s.9,2.76,1.19,4.16.62,2.83.82,4.17l.59,3.86c.76,5.23,1.47,10.4,2.14,15.58l2,15.52L251,729.27c.64,5.17,1.26,10.35,1.82,15.53s1,10.38,1.42,15.58.69,10.41.78,15.65l-4.8.57c-1.15-5.1-2.08-10.24-3-15.37s-1.67-10.29-2.39-15.44-1.4-10.32-2.06-15.48l-2-15.48c-1.38-10.29-2.79-20.66-4.34-30.82l-.62-3.86c-.2-1.23-.49-2.32-.72-3.49a13.43,13.43,0,0,0-.47-1.68l-.51-1.66c-.4-1.07-.84-2.13-1.31-3.16a28.15,28.15,0,0,0-3.61-5.61,23.73,23.73,0,0,0-4.87-4.33,14.58,14.58,0,0,0-5.52-2.41L211,656.28l-15.33-3.07L165.07,647q-7.66-1.57-15.31-3.24l-7.66-1.69c-2.57-.59-5.16-1.17-7.68-1.79l-.95-.23c-.4-.11-.74-.22-1.11-.34l-2.18-.7a22.08,22.08,0,0,1-2.13-.94A14,14,0,0,1,126,637l-2-1.3c-.62-.49-1.21-1-1.81-1.54a14.53,14.53,0,0,1-1.66-1.7A14.22,14.22,0,0,1,119,630.6a25.94,25.94,0,0,1-4-8.29c-.18-.73-.38-1.46-.53-2.19s-.29-1.46-.37-2.21-.18-1.48-.22-2.23a24.12,24.12,0,0,1,0-2.42l8,.19h0v.38h0c-16,0-4.43,0-8,0V603.41c0-.88,0-1.87,0-2.63s0-1.62-.13-2.43-.15-1.62-.29-2.43-.27-1.62-.45-2.42-.37-1.61-.59-2.41-.45-1.6-.73-2.38-.53-1.58-.86-2.35-.62-1.56-1-2.32-.71-1.52-1.08-2.27-.78-1.49-1.19-2.22-.85-1.44-1.29-2.15-.92-1.4-1.35-2Z"/><path class="cls-41" d="M144.3,738.77s-.12-1.2-.27-3.3-.39-5.11-.57-8.71-.4-7.81-.55-12.31c-.08-2.25-.17-4.58-.22-6.94l-.16-7.17c-.08-4.8-.14-9.61-.15-14.11,0-2.25,0-4.43,0-6.49l.06-5.82c.05-3.6.16-6.61.21-8.71s.13-3.3.13-3.3h8s.06,1.2.13,3.3.16,5.11.21,8.71l.06,5.82c0,2.06,0,4.24,0,6.49,0,4.5-.06,9.31-.15,14.11l-.16,7.17c0,2.36-.14,4.69-.22,6.94-.15,4.5-.35,8.71-.55,12.31s-.44,6.61-.57,8.71-.27,3.3-.27,3.3Z"/><path class="cls-41" d="M136,663.7l-26.51.78-12.8.44-3.4.15-1.65.1c-.57,0-1.23.09-1.72.15a19.88,19.88,0,0,0-5.84,1.32,14.78,14.78,0,0,0-4.78,3.26L78.24,671l-1,1.29c-.16.22-.33.42-.48.65l-.43.72-.87,1.44a56.91,56.91,0,0,0-4.73,13.76l-7.53,30.4-3.45,13.94c-1.11,4.43-2.18,8.61-3.22,12.46s-2,7.37-2.92,10.48-1.71,5.82-2.42,8c-1.38,4.45-2.27,7-2.27,7l-5.19-1.26s.36-2.64,1.18-7.23c.4-2.3.93-5.07,1.55-8.25s1.37-6.76,2.22-10.65,1.81-8.1,2.86-12.54l3.33-14L62.13,687a60.89,60.89,0,0,1,5.56-16.12L68.83,669l.58-.95c.21-.31.45-.61.67-.92.46-.61.9-1.21,1.37-1.81L73,663.64a23.67,23.67,0,0,1,7.7-5.17,28.64,28.64,0,0,1,8.4-1.91c.7-.07,1.23-.1,1.84-.15l1.88-.11,3.53-.14c4.61-.16,8.93-.22,12.92-.28l19.28-.19h7.31Z"/><path class="cls-15" d="M105.3,575.15c.44.6.92,1.32,1.37,2s.89,1.43,1.31,2.16.83,1.48,1.2,2.24.76,1.51,1.09,2.29.67,1.55,1,2.33.57,1.59.86,2.38.49,1.6.74,2.4.4,1.63.6,2.44.29,1.64.45,2.45.19,1.64.29,2.45.07,1.64.12,2.46,0,1.76,0,2.64v10.43h0c0,.24,0,.44,0,.68s0,.76.05,1.12c0,.75.12,1.48.21,2.2a31.63,31.63,0,0,0,.89,4.33,26,26,0,0,0,3.88,8.16,22.67,22.67,0,0,0,6.82,6.25,24.78,24.78,0,0,0,4.12,2c.71.25,1.42.52,2.14.69l1.1.31.94.22c2.52.61,5.1,1.2,7.67,1.78l7.66,1.69q7.65,1.67,15.31,3.24l30.65,6.22,15.33,3.07,7.67,1.52a15.1,15.1,0,0,1,5.7,2.49,24.5,24.5,0,0,1,5,4.43,29,29,0,0,1,3.68,5.72c.27.51.44,1.07.68,1.59s.47,1.06.64,1.62l.52,1.68a14.25,14.25,0,0,1,.47,1.71c.24,1.18.53,2.28.73,3.53l.62,3.86c.77,5.08,1.52,10.22,2.23,15.38l2.1,15.46,2,15.48c.66,5.16,1.32,10.33,2,15.48s1.5,10.31,2.35,15.45,1.76,10.28,2.85,15.39l4.27-.52c-.15-5.23-.51-10.43-.9-15.63s-.92-10.39-1.48-15.57-1.19-10.35-1.83-15.53l-1.93-15.52-2-15.53c-.68-5.17-1.4-10.34-2.15-15.56l-.6-3.87c-.2-1.33-.55-2.76-.82-4.12a19.33,19.33,0,0,0-.56-2.07l-.62-2.05c-.2-.68-.52-1.34-.78-2s-.52-1.34-.84-2a36.22,36.22,0,0,0-4.71-7.42,32.07,32.07,0,0,0-6.61-6,28,28,0,0,0-3.95-2.22c-.7-.31-1.42-.61-2.2-.87l-.69-.22-.13,0-.06,0-.31-.07-.24,0-1-.19-7.66-1.5-15.33-3-30.62-6.16-15.29-3.13-7.62-1.59c-2.52-.54-5-1.08-7.57-1.67l-1-.22-.79-.2c-.54-.13-1.06-.32-1.57-.5a17.12,17.12,0,0,1-2.92-1.36,14.25,14.25,0,0,1-2.54-1.86,14,14,0,0,1-2.12-2.34,18.87,18.87,0,0,1-2.88-5.84,22.83,22.83,0,0,1-.75-3.31c-.09-.56-.16-1.12-.2-1.68,0-.28,0-.56-.05-.83s0-.35,0-.49V603.41c0-.92,0-1.75,0-2.77s0-2-.15-3-.2-1.95-.36-2.92-.32-1.92-.52-2.87-.44-1.89-.7-2.83-.52-1.87-.84-2.77-.61-1.83-1-2.71-.71-1.79-1.12-2.66-.8-1.73-1.24-2.6-.89-1.7-1.36-2.53-1-1.65-1.49-2.47-1-1.62-1.69-2.46Z"/><path class="cls-15" d="M114.35,613.84h0v-.39C114.35,613.59,114.35,613.73,114.35,613.84Z"/><path class="cls-15" d="M149,738.77s.11-1.2.24-3.3.35-5.11.51-8.71.36-7.81.49-12.31c.07-2.25.15-4.58.19-6.94l.14-7.17c.07-4.8.12-9.61.13-14.11,0-2.25,0-4.43,0-6.49s0-4-.06-5.82c0-3.6-.15-6.61-.19-8.71s-.12-3.3-.12-3.3h-7.11s-.06,1.2-.12,3.3-.14,5.11-.19,8.71c0,1.8,0,3.75-.06,5.82s0,4.24,0,6.49c0,4.5.06,9.31.13,14.11l.14,7.17c0,2.36.12,4.69.19,6.94.13,4.5.31,8.71.49,12.31s.39,6.61.51,8.71.24,3.3.24,3.3Z"/><path class="cls-15" d="M135.88,656.14l-7.31,0-19.28.21c-4,.06-8.31.12-12.91.29l-3.52.14L91,656.9c-.6,0-1.15.07-1.83.15a28.15,28.15,0,0,0-8.26,1.88A23.18,23.18,0,0,0,73.37,664l-1.54,1.66c-.46.58-.9,1.18-1.35,1.78-.22.3-.45.59-.66.9l-.57.94-1.13,1.88a60.63,60.63,0,0,0-5.51,16l-7.23,30.25-3.34,14c-1.05,4.44-2,8.65-2.88,12.54s-1.61,7.47-2.26,10.64-1.18,5.95-1.59,8.24c-.85,4.58-1.24,7.21-1.24,7.21l4.61,1.12s.86-2.52,2.21-7c.69-2.22,1.47-4.94,2.37-8.05s1.86-6.64,2.88-10.49,2.09-8,3.2-12.46l3.45-13.94L70.3,688.8a57.11,57.11,0,0,1,4.78-13.89l.88-1.47.44-.74c.15-.24.33-.44.49-.67l1-1.32,1.08-1.16a15.27,15.27,0,0,1,4.94-3.37,20.37,20.37,0,0,1,6-1.36c.51-.06,1.15-.1,1.73-.15l1.66-.1,3.41-.15,12.8-.43,26.52-.75Z"/><polygon class="cls-19" points="164.35 814.43 159.87 818.53 168.83 818.53 164.35 814.43"/><path class="cls-20" d="M166.58,811.21a2.24,2.24,0,1,1-4.47,0"/><polyline class="cls-20" points="160.76 817.65 160.76 819.17 167.94 819.17 167.94 817.65"/><polygon class="cls-19" points="252.56 779.89 248.09 783.99 257.05 783.99 252.56 779.89"/><path class="cls-20" d="M254.79,776.66a2.24,2.24,0,0,1-4.47,0"/><polyline class="cls-20" points="248.97 783.1 248.97 784.63 256.16 784.63 256.16 783.1"/><polygon class="cls-19" points="146.8 742.68 142.32 746.79 151.28 746.79 146.8 742.68"/><path class="cls-20" d="M149,739.46a2.24,2.24,0,1,1-4.47,0"/><polyline class="cls-20" points="143.21 745.9 143.21 747.42 150.39 747.42 150.39 745.9"/><polygon class="cls-19" points="46.37 774.3 41.89 778.4 50.85 778.4 46.37 774.3"/><path class="cls-20" d="M48.59,771.07a2.24,2.24,0,0,1-4.47,0"/><polyline class="cls-20" points="42.78 777.51 42.78 779.04 49.96 779.04 49.96 777.51"/><path class="cls-41" d="M79.47,585.23s0,1.19,0,3.42c0,1.12,0,2.49,0,4.11q0,.61,0,1.26v.29l0,.46,0,.33c0,.24,0,.41-.11.72-.14.65-.29,1.33-.47,2l-.45,1.53c-1.25,4.13-2.86,8.87-4.6,14.37s-3.62,11.69-5,18.37l-.46,2.51L68,637.1c-.06.42,0,.79-.08,1.19l0,.59,0,.3v.22c0,.22,0-.22,0-.14l.08,1.42,0,.71.1.44a8.87,8.87,0,0,0,.18.9l.29,1c.14.28.27.55.39.84s.32.48.47.74a6.37,6.37,0,0,0,2.91,2.06,12.2,12.2,0,0,0,2.18.51l.63.08.8.08,1.6.2,6.32.8,13,1.65,27.31,3.46,14,1.78,7.07.9,3.54.45,1.86.24a12.43,12.43,0,0,1,1.42.32c.41.12.79.26,1.18.39a17.88,17.88,0,0,1,7.34,5.48,26.46,26.46,0,0,1,4,7.45,48.62,48.62,0,0,1,2.2,15.25l.31,27.52.54,48.8.09,19.49c0,5.8-.05,10.86-.07,15l-.13,9.67-.07,3.42-6.24,0-.16-3.42-.38-9.67-.45-15-.4-19.49-.69-48.8-.38-27.52-.11-3.32c0-1.11-.21-2.15-.3-3.22a32.27,32.27,0,0,0-1.37-6.1,18.57,18.57,0,0,0-2.7-5,9.84,9.84,0,0,0-3.95-3l-.52-.17-.32-.08-1.68-.21-3.54-.44-7.07-.88-14-1.75-27.31-3.4-13-1.62-6.32-.79L75,656.22l-.76-.07-.91-.11a20.37,20.37,0,0,1-3.82-.9,14.65,14.65,0,0,1-6.78-4.9c-.39-.58-.77-1.17-1.12-1.77s-.57-1.23-.83-1.84-.38-1.23-.56-1.84a17.05,17.05,0,0,1-.36-1.94l-.14-1,0-.72-.07-1.42s0-.48,0-.32v-.31l0-.41,0-.82c0-.53,0-1.1.12-1.6.14-1,.26-2,.41-3l.53-2.81c1.58-7.29,3.56-13.6,5.34-19.18S69.5,600.89,70.68,597l.41-1.38a6.62,6.62,0,0,1,.23-.77c0-.14.07-.43.1-.63l0-.33c0,.83,0,.21,0,.38V594q0-.65,0-1.26c0-1.62,0-3,0-4.11,0-2.23,0-3.42,0-3.42Z"/><path class="cls-15" d="M71.92,585.23s0,1.19,0,3.42c0,1.12,0,2.49,0,4.11q0,.61,0,1.26v.29c0-.15,0,.4,0-.34l0,.33c0,.2-.06.49-.1.64s-.17.54-.25.84l-.42,1.39c-1.18,3.86-2.85,8.69-4.62,14.24s-3.75,11.88-5.32,19.14l-.53,2.8c-.15,1-.27,2-.41,3-.07.49-.08,1.05-.11,1.58l0,.8,0,.4v.3c0-.14,0,.31,0,.29l.07,1.42,0,.72.14.95a16.56,16.56,0,0,0,.35,1.88c.17.6.35,1.2.54,1.79s.53,1.19.81,1.79.71,1.15,1.08,1.72a14.19,14.19,0,0,0,6.57,4.74,19.92,19.92,0,0,0,3.73.88l.9.11.76.07,1.52.19,6.32.79,13,1.62,27.31,3.4,14,1.75,7.07.88,3.54.44,1.69.22.38.1.55.18a10.29,10.29,0,0,1,4.14,3.14,19,19,0,0,1,2.78,5.17,32.71,32.71,0,0,1,1.39,6.19l.18,1.62.09.81,0,.83.11,3.35c.13,9.37.25,18.6.37,27.52.25,17.85.48,34.51.68,48.8l.38,19.49.42,15,.35,9.67.15,3.42,5.54,0,.06-3.42.11-9.67c0-4.17,0-9.22,0-15s-.07-12.35-.11-19.49c-.16-14.28-.35-30.94-.54-48.8-.1-8.93-.21-18.15-.32-27.52a48.19,48.19,0,0,0-2.18-15.1,26,26,0,0,0-4-7.31,17.43,17.43,0,0,0-7.15-5.34c-.38-.13-.75-.27-1.14-.38a12,12,0,0,0-1.36-.3l-1.85-.24-3.54-.45-7.07-.89-14-1.78-27.31-3.46-13-1.65-6.32-.8-1.59-.2-.8-.08-.65-.08a12.64,12.64,0,0,1-2.27-.53A6.83,6.83,0,0,1,69,645.55c-.16-.27-.33-.53-.5-.8s-.26-.6-.41-.9l-.3-1a9.34,9.34,0,0,1-.19-1l-.1-.47,0-.71-.08-1.42c0-.07,0,.31,0,.11v-.23l0-.3,0-.6c0-.41,0-.79.08-1.21.12-.85.21-1.68.34-2.52l.47-2.52c1.42-6.71,3.33-12.93,5.05-18.42s3.35-10.25,4.6-14.36l.45-1.53c.17-.65.33-1.31.46-1.94.06-.3.07-.48.11-.71l0-.33c0-.77,0-.24,0-.42V594q0-.65,0-1.26c0-1.62,0-3,0-4.11,0-2.23,0-3.42,0-3.42Z"/><path class="cls-2" d="M114.45,580.85s.44,1.09,1.18,2.69,1.72,3.76,2.46,6A25.5,25.5,0,0,1,119,593a16.46,16.46,0,0,1,.26,3.08,11.42,11.42,0,0,1-.23,2.18,7.41,7.41,0,0,1-.2.81.28.28,0,0,1-.55-.11l.06-.79a18.79,18.79,0,0,0,0-2.08,22.56,22.56,0,0,0-.34-2.92,27.94,27.94,0,0,0-.8-3.3c-.7-2.22-1.57-4.41-2.18-6.07s-1-2.8-1-2.8a.2.2,0,0,1,.13-.26A.21.21,0,0,1,114.45,580.85Z"/><path class="cls-2" d="M128.37,632.1s-.62-.25-1.54-.69a14.28,14.28,0,0,1-3.19-2,9.41,9.41,0,0,1-1.4-1.53,5.85,5.85,0,0,1-.84-1.63,4.2,4.2,0,0,1-.21-1.29,2.7,2.7,0,0,1,0-.49.24.24,0,0,1,.28-.2.25.25,0,0,1,.19.16l.14.42a9.72,9.72,0,0,0,.43,1.06,10.56,10.56,0,0,0,.79,1.39,8.41,8.41,0,0,0,1.22,1.4,19.05,19.05,0,0,0,2.9,2.11l1.42.88a.24.24,0,0,1,.08.32A.24.24,0,0,1,128.37,632.1Z"/><path class="cls-2" d="M64.65,628.7l-.23.77a17.39,17.39,0,0,0-.47,2,26.79,26.79,0,0,0-.39,2.91,31.27,31.27,0,0,0-.14,3.36c0,.57,0,1.15,0,1.71s0,1.12,0,1.66a15.47,15.47,0,0,0,.38,2.91,8.61,8.61,0,0,0,.33,1.12,7.22,7.22,0,0,0,.37.81,4.58,4.58,0,0,0,.32.46l.11.16,0,0a.25.25,0,1,1-.41.3h0l-.12-.19a5,5,0,0,1-.33-.53,8.47,8.47,0,0,1-.39-.87,11.38,11.38,0,0,1-.38-1.15,28.67,28.67,0,0,1-.67-3,20.09,20.09,0,0,1-.3-3.45,32.24,32.24,0,0,1,.21-3.46,22.38,22.38,0,0,1,.56-3,9.88,9.88,0,0,1,.35-1.17,8.61,8.61,0,0,1,.32-.88l.32-.73a.25.25,0,0,1,.47.18Z"/><path class="cls-2" d="M76.45,587.43s.08.24.19.66a6.59,6.59,0,0,1,.16.78,7.39,7.39,0,0,1,.14,1,16.33,16.33,0,0,1,0,2.58,27.16,27.16,0,0,1-.38,2.92,50.79,50.79,0,0,1-1.32,5.31c-.43,1.42-.75,2.36-.75,2.36a.16.16,0,0,1-.32-.09l.57-2.4a50.74,50.74,0,0,0,1-5.31,43.67,43.67,0,0,0,.27-5.32c0-.73,0-1.31,0-1.75s0-.68,0-.68a.26.26,0,0,1,.5-.08Z"/><path class="cls-2" d="M89.51,660.73H89a9.88,9.88,0,0,0-1.31.07,14,14,0,0,0-1.82.32,15.93,15.93,0,0,0-2,.68,15.47,15.47,0,0,0-3.41,2c-.44.31-.82.57-1.09.74s-.45.25-.45.25h0a.24.24,0,0,1-.33-.11.25.25,0,0,1,0-.23s.1-.17.3-.44a5.66,5.66,0,0,1,1-1,14.93,14.93,0,0,1,3.66-2.08,12.24,12.24,0,0,1,4.13-.82,9.52,9.52,0,0,1,1.39.07l.51.07a.23.23,0,0,1,0,.46Z"/><path class="cls-2" d="M72.52,669.73l-.29.51c-.2.32-.45.78-.75,1.34s-.64,1.22-1,1.92-.7,1.48-1,2.26-.63,1.56-.88,2.31-.5,1.45-.66,2.06-.33,1.12-.42,1.48l-.16.56a.27.27,0,0,1-.33.19.27.27,0,0,1-.19-.28,18.73,18.73,0,0,1,.32-2.14,25.24,25.24,0,0,1,1.4-4.56,25.94,25.94,0,0,1,2.25-4.21c.35-.54.69-1,.92-1.28l.37-.46a.27.27,0,0,1,.44.3Z"/><path class="cls-2" d="M64,693.39a7.41,7.41,0,0,1-.07-.78,9.56,9.56,0,0,1,.1-1.72,6.35,6.35,0,0,1,.42-1.67,3.15,3.15,0,0,1,.38-.7.31.31,0,0,1,.43-.06.32.32,0,0,1,.12.25,5,5,0,0,1-.08.75c-.05.44-.21,1-.32,1.59s-.22,1.16-.27,1.6l-.12.74a.3.3,0,0,1-.59,0Z"/><path class="cls-2" d="M65.18,686.86l0-.51c0-.31.13-.71.22-1.11a5.71,5.71,0,0,1,.34-1.08,3.06,3.06,0,0,1,.23-.46.41.41,0,0,1,.74.27,4.27,4.27,0,0,1-.09.49c-.06.29-.17.66-.29,1s-.21.75-.28,1L66,687h0a.4.4,0,0,1-.78-.15Z"/><path class="cls-2" d="M161,676.63a23.89,23.89,0,0,1,.66,2.71c.15.82.32,1.79.42,2.83s.21,2.16.23,3.27,0,2.23,0,3.28-.09,2-.14,2.85c-.13,1.67-.28,2.77-.28,2.77a.23.23,0,0,1-.26.2.23.23,0,0,1-.2-.23s0-1.11,0-2.77,0-3.86-.1-6.06c0-1.1-.08-2.2-.16-3.23s-.13-2-.23-2.81-.14-1.5-.21-2l-.08-.76a.18.18,0,0,1,.35-.08Z"/><path class="cls-2" d="M162,696.87a3.53,3.53,0,0,1,.13.54,6.22,6.22,0,0,1-.08,2.41,3.74,3.74,0,0,1-.16.53.32.32,0,0,1-.42.17.32.32,0,0,1-.19-.24s0-.22-.06-.54,0-.74,0-1.16,0-.84.09-1.16.09-.53.09-.53a.32.32,0,0,1,.61,0Z"/><path class="cls-2" d="M161.89,702a1.32,1.32,0,0,1,.14.39,2.71,2.71,0,0,1,.06.86,5.66,5.66,0,0,1-.09.86c-.05.23-.11.39-.11.39a.3.3,0,0,1-.57,0s-.05-.16-.11-.39a5.66,5.66,0,0,1-.09-.86,2.71,2.71,0,0,1,.06-.86,1.32,1.32,0,0,1,.14-.39.33.33,0,0,1,.57,0Z"/><path class="cls-2" d="M147.9,691.39a1.32,1.32,0,0,1,.14.39,2.72,2.72,0,0,1,.06.86,5.66,5.66,0,0,1-.09.86c-.05.23-.11.39-.11.39a.3.3,0,0,1-.57,0s-.05-.16-.11-.39a5.66,5.66,0,0,1-.09-.86,2.72,2.72,0,0,1,.06-.86,1.32,1.32,0,0,1,.14-.39.33.33,0,0,1,.46-.11A.34.34,0,0,1,147.9,691.39Z"/><path class="cls-2" d="M163.19,769.55l-.15-1.1c-.07-.71-.19-1.72-.26-2.93-.16-2.42-.25-5.64-.29-8.87,0-1.61,0-3.22,0-4.73s0-2.92,0-4.12l0-2.91v-1.1a.24.24,0,0,1,.48,0s.18,1.61.28,4c0,1.21.11,2.62.13,4.13s.05,3.12.08,4.73l.11,8.84c0,1.21.05,2.2.08,2.9l.07,1.11a.28.28,0,0,1-.56.06Z"/><path class="cls-2" d="M148.35,666.39l0,3.61V678c0,1.45,0,2.89-.06,4.25s-.08,2.62-.13,3.71c-.1,2.17-.24,3.61-.24,3.61h0a.34.34,0,0,1-.69,0s0-1.44,0-3.61.07-5,.13-7.94.17-5.78.3-7.95.25-3.61.25-3.61a.19.19,0,0,1,.2-.17A.19.19,0,0,1,148.35,666.39Z"/><path class="cls-2" d="M242.15,686.88l-1-5.37-1-5.5a42.66,42.66,0,0,0-1.53-6.15c-.17-.5-.37-1-.57-1.49s-.43-1-.66-1.46a24.19,24.19,0,0,0-1.54-2.67,25,25,0,0,0-6.56-6.63c-.38-.27-.7-.46-.92-.6l-.33-.21h0a.3.3,0,0,1,.31-.52l.35.19c.23.13.56.3,1,.56a21.49,21.49,0,0,1,3.23,2.39,23.11,23.11,0,0,1,3.76,4.27,25.21,25.21,0,0,1,1.63,2.78c.25.5.48,1,.69,1.5s.4,1,.58,1.57a43.52,43.52,0,0,1,1.48,6.31l.83,5.54.75,5.41a.22.22,0,0,1-.44.07Z"/><path class="cls-2" d="M247.63,724.39s-.37-1.23-.82-3.12c-.22-.94-.47-2-.7-3.24s-.44-2.46-.64-3.74-.34-2.56-.47-3.77-.2-2.33-.27-3.3c-.12-1.93-.11-3.23-.11-3.23a.19.19,0,0,1,.19-.19.19.19,0,0,1,.19.16l.46,3.19.46,3.26c.16,1.19.36,2.46.55,3.73s.38,2.54.58,3.73l.53,3.25.51,3.18a.22.22,0,0,1-.18.26A.23.23,0,0,1,247.63,724.39Z"/><path class="cls-2" d="M248.38,731.24a4.78,4.78,0,0,1-.28-.72,9.08,9.08,0,0,1-.36-1.65,12.45,12.45,0,0,1-.12-1.68c0-.46,0-.77,0-.77h0a.32.32,0,0,1,.63,0s.25,1.18.43,2.34c.1.58.19,1.17.23,1.62s.05.75.05.75a.32.32,0,0,1-.61.15Z"/><path class="cls-2" d="M249,734.68l-.09-.36c0-.21-.1-.49-.13-.76a3.34,3.34,0,0,1-.06-.77,1.37,1.37,0,0,1,.05-.37h0a.36.36,0,0,1,.45-.23.36.36,0,0,1,.15.1,1.18,1.18,0,0,1,.2.35,2.31,2.31,0,0,1,.17.83,3.86,3.86,0,0,1,0,.85,2.85,2.85,0,0,1-.1.38h0a.32.32,0,0,1-.62,0Z"/><path class="cls-2" d="M244.49,702.74l-.09-.36c0-.21-.1-.49-.13-.76a3.33,3.33,0,0,1-.06-.77,1.38,1.38,0,0,1,.05-.37h0a.36.36,0,0,1,.45-.23.36.36,0,0,1,.15.1,1.18,1.18,0,0,1,.2.35,2.31,2.31,0,0,1,.17.83,3.86,3.86,0,0,1,0,.85,2.88,2.88,0,0,1-.1.38h0a.32.32,0,0,1-.62,0Z"/><path class="cls-42" d="M89.92,519.91S65.7,523.46,58.59,529s-5.33,17.33-4.22,22.22,2.89,17.55,3.56,19.33,1.78,17.78,26.66,14.66,35.55-8.67,40.66-10.89,13.11-8.44,11.78-22.66-2.67-14.89-3.33-17.33S129,518.8,112.58,518.8C99.92,518.8,89.92,519.91,89.92,519.91Z"/><path class="cls-42" d="M178.13,627.67s-11.55-1.56-21.33,2.22-38,13.55-54.44,15.55c-8.24,1-9.8,1.61-9.78,4.9s8,2.88,43.35,8.44c8.91,1.4,28.86,14.55,36,14.55,11.33,0,56.16-15.87,64.88-19,5.17-1.85,8.72-8.8-2.89-17.78C224.12,629,188.79,629,178.13,627.67Z"/><path class="cls-2" d="M177.8,669.54s-.41.1-1.13.23c-.37,0-.83.13-1.34.16a16.81,16.81,0,0,1-1.74,0,21.45,21.45,0,0,1-4.32-.58c-.78-.18-1.57-.38-2.37-.63s-1.59-.53-2.38-.82c-1.58-.59-3.14-1.21-4.58-1.82L156,664.44c-2.3-1-3.82-1.7-3.82-1.7a.12.12,0,0,1,.09-.23s1.59.53,4,1.37l4,1.47c1.47.54,3,1.15,4.6,1.69.78.27,1.57.52,2.35.76s1.55.46,2.3.64a32.08,32.08,0,0,0,4.14.72c.61.06,1.18.08,1.68.09s.93,0,1.29,0l1.15-.08a.19.19,0,0,1,.06.38Z"/><path class="cls-2" d="M234.67,651.83s-2.56.79-6.39,2l-14,4.58c-5.11,1.65-10.22,3.3-14.07,4.5s-6.43,2-6.43,2a.29.29,0,0,1-.17-.55h0l6.34-2.17c3.81-1.31,8.91-3,14-4.68s10.23-3.27,14.1-4.41,6.47-1.82,6.47-1.82a.29.29,0,0,1,.35.2A.29.29,0,0,1,234.67,651.83Z"/><path class="cls-2" d="M61.26,531.33s-.23.18-.57.52a9.84,9.84,0,0,0-1.27,1.54,9.39,9.39,0,0,0-.66,1.15c-.11.23-.19.41-.29.65s-.21.49-.28.73a14.31,14.31,0,0,0-.66,3.14,19.84,19.84,0,0,0,0,3.27c0,1.05.15,2,.26,2.88l.36,2.82a.3.3,0,0,1-.26.34.3.3,0,0,1-.33-.23s-.29-1.11-.6-2.81c-.15-.85-.3-1.85-.4-2.94a20.74,20.74,0,0,1,0-3.43,12.34,12.34,0,0,1,.8-3.39c.09-.27.21-.49.32-.73a5.78,5.78,0,0,1,.37-.7,10.19,10.19,0,0,1,.82-1.18,8.07,8.07,0,0,1,1.54-1.49A5.51,5.51,0,0,1,61,531h0a.18.18,0,0,1,.2.3Z"/><path class="cls-2" d="M64.61,576.84a5.24,5.24,0,0,1-.69-.54,6.4,6.4,0,0,1-1.4-1.89,11.66,11.66,0,0,1-1-3.09c-.24-1.16-.39-2.38-.55-3.59-.33-2.44-.61-4.88-.81-6.71s-.29-3.06-.29-3.06a.17.17,0,0,1,.35,0s.25,1.21.59,3,.74,4.24,1.11,6.67c.21,1.21.35,2.44.56,3.54A15,15,0,0,0,63.3,574a7,7,0,0,0,1.09,1.78,7.23,7.23,0,0,0,.57.58.28.28,0,0,1-.36.43Z"/><path class="cls-2" d="M118.14,521.93l-5.09.11c-1.52,0-3.3.09-5.2.16s-3.93.17-6,.32l-3,.23c-1,.08-2,.18-2.92.28-1.88.23-3.65.41-5.15.66s-2.76.43-3.63.59l-1.37.25h0a.18.18,0,0,1-.08-.36l1.35-.38c.87-.22,2.1-.56,3.61-.84s3.27-.62,5.17-.85,3.94-.44,6-.57,4.08-.18,6-.21,3.7,0,5.23.07,2.8.13,3.69.18l1.4.1a.13.13,0,0,1,0,.26Z"/><path class="cls-2" d="M121.21,652.32s-1.48-.17-3.69-.46-5.15-.73-8.08-1.21c-1.47-.22-2.93-.48-4.3-.72s-2.65-.48-3.74-.69c-2.19-.42-3.64-.76-3.64-.76a.26.26,0,0,1,.08-.51s1.48.15,3.69.46c1.1.15,2.39.33,3.77.55s2.84.44,4.3.71c2.93.5,5.85,1,8,1.47s3.64.75,3.64.75a.21.21,0,0,1-.07.42Z"/><ellipse class="cls-43" cx="82.7" cy="576.68" rx="1.44" ry="2.11"/><ellipse class="cls-43" cx="91.15" cy="539.63" rx="1.44" ry="2.11"/><ellipse class="cls-43" cx="112.58" cy="569.38" rx="1.44" ry="2.11"/></g></g></g></svg>