<svg xmlns="http://www.w3.org/2000/svg" viewBox="0 0 511 577"><defs><style>.cls-1{fill:#fff;stroke-miterlimit:10;}.cls-1,.cls-6{stroke:#333;}.cls-2{fill:#b3d9f5;}.cls-3{fill:#d3e6f5;}.cls-4{fill:#7993a6;}.cls-5{fill:#637887;}.cls-6{fill:none;stroke-linecap:round;stroke-linejoin:round;stroke-width:2px;}.cls-7{fill:#0071bc;}.cls-8{fill:#ffb891;}.cls-9{fill:#dc1f25;}.cls-10{fill:#855b33;}.cls-11{fill:#333;}.cls-12{fill:#7a7a7a;}</style></defs><title>home-prototype</title><g id="Layer_2" data-name="Layer 2"><g id="home-prototype"><rect class="cls-1" x="0.5" y="0.5" width="510" height="576"/><polygon class="cls-2" points="279.85 397.8 279.85 474.86 272.08 474.86 149.02 474.86 149.02 302.85 149.02 301.13 149.02 293.84 279.85 293.84 279.85 393.36 279.85 397.8"/><polygon class="cls-2" points="272.08 474.86 272.08 494.95 144.93 494.95 144.93 474.86 149.02 474.86 272.08 474.86"/><path class="cls-3" d="M216,286V247.51H230a5.27,5.27,0,0,1,5.27,5.27V286Z"/><polygon class="cls-2" points="215.99 286.17 177.33 286.17 177.33 247.51 215.99 247.51 215.99 285.98 215.99 286.17"/><polygon class="cls-4" points="177.33 247.51 177.33 286.17 173.04 286.17 173.04 247.51 167.67 247.51 167.67 244.93 167.67 233.35 177.33 233.35 177.33 247.51"/><rect class="cls-2" x="167.67" y="247.51" width="5.37" height="38.66"/><rect class="cls-2" x="162.31" y="247.51" width="5.35" height="38.66"/><polygon class="cls-4" points="162.31 247.51 162.31 286.17 147.59 280.33 132.06 274.16 132.06 244.93 162.31 247.51"/><polygon class="cls-3" points="149.02 302.85 149.02 474.86 144.93 474.86 140.87 474.86 140.87 302.85 149.02 302.85"/><polygon class="cls-4" points="149.02 293.84 149.02 301.13 115.13 287.93 115.13 280.33 149.02 293.84"/><polygon class="cls-5" points="144.93 474.86 144.93 494.95 115.13 463.43 115.13 453.77 140.87 474.86 144.93 474.86"/><polygon class="cls-4" points="140.87 302.85 140.87 474.86 115.13 453.77 105.26 445.69 105.26 287.93 140.87 302.85"/><polygon class="cls-4" points="140.87 302.85 105.26 287.93 115.13 287.93 149.02 301.13 149.02 302.85 140.87 302.85"/><polyline class="cls-6" points="272.08 474.86 279.85 474.86 279.85 397.8"/><polyline class="cls-6" points="279.85 393.36 279.85 293.84 149.02 293.84 149.02 301.13 149.02 302.85"/><polyline class="cls-6" points="140.87 474.86 115.13 453.77 105.26 445.69 105.26 287.93 140.87 302.85"/><polyline class="cls-6" points="149.02 474.86 149.02 302.85 140.87 302.85 140.87 474.86 144.93 474.86"/><polyline class="cls-6" points="105.26 287.93 115.13 287.93 149.02 301.13"/><polyline class="cls-6" points="115.13 287.93 115.13 280.33 149.02 293.84"/><polygon class="cls-6" points="272.08 474.86 272.08 494.95 144.93 494.95 144.93 474.86 149.02 474.86 272.08 474.86"/><polyline class="cls-6" points="115.13 453.77 115.13 463.43 144.93 494.95"/><polyline class="cls-6" points="162.31 286.17 147.59 280.33 132.06 274.16 132.06 244.93 162.31 247.51"/><polyline class="cls-6" points="167.67 286.17 162.31 286.17 162.31 247.51 167.67 247.51 173.04 247.51 173.04 286.17"/><polyline class="cls-6" points="177.33 247.51 177.33 233.35 167.67 233.35 167.67 244.93 167.67 247.51 167.67 286.17 173.04 286.17 177.33 286.17"/><polyline class="cls-6" points="215.99 285.98 215.99 286.17 177.33 286.17 177.33 247.51 215.99 247.51"/><line class="cls-6" x1="215.99" y1="233.35" x2="215.99" y2="247.51"/><path class="cls-6" d="M216,247.51H230a5.27,5.27,0,0,1,5.27,5.27V286H216Z"/><line class="cls-6" x1="132.06" y1="244.93" x2="167.67" y2="244.93"/><line class="cls-6" x1="115.13" y1="280.33" x2="147.59" y2="280.33"/><line class="cls-6" x1="249.58" y1="284.66" x2="235.32" y2="280.33"/><path class="cls-6" d="M196.48,316.86c7.58.05,16.16,2.49,22.89,0"/><path class="cls-6" d="M223.93,315.71c3.05,1.72,7.69,1.49,11.44,0"/><path class="cls-7" d="M297.83,399.19c1.32-6.49,1-15,1.48-20.11,1.27-14.43,1.84-28.95,3.53-43.33,3.65-31.18,9.28-62.35,9.75-93.82l-3.17-1.17c2.52-6.81,4.84-13.71,4.89-20.57l-2.16-.07c.24-.17.48-.33.7-.5,5.54-4.1,7.76-3.69,14.89-2.3,11.19,2.16,21.72,7.79,33.19,8.6,1.82.12,5.8.69,9.44,1.15-.33,3,3,10.48,4.53,14.16,2.33,5.58,4.17,11.38,6,17.26,3.72,11.69,7.24,23.82,10,35.79a654.08,654.08,0,0,1,13.85,85.09c.41,4.1,6.19,30.56,3.31,31.28l0,0c-3.67.79-15.39.55-18.38.55-7.76,0-15.58.67-23.37,1.18-1.27.09-2.54.15-3.79.22a130.43,130.43,0,0,1-22.58-.31c-.74-.09-1.48-.17-2.2-.22a136.92,136.92,0,0,0-21.89-.31c-6.26.33-17.06-.33-21.21-5.75l.72-.55A17.22,17.22,0,0,0,297.83,399.19Z"/><path class="cls-7" d="M314.74,154.1C319,149.45,324.07,144,327.42,139l3.93,1c-.93.74-.05,2.47,1.58,3.09-3.41.81-5.63,5.94-.5,4.87-2.35,1.58-2.78,6.38.81,4.62-3,2.76,2.33,3.57,3.62-.24-.09,4.24,4.15,1.49,3.9-2.13.7,3.71,6.16-1.12,1.82-4.08,2.81,1.73,5-2.49,3.74-4.7l4-.41c0-1.9,8.48-7.91,11.48-8.34a15.47,15.47,0,0,1,10.66,2.49,25.3,25.3,0,0,1,2.52,1.82c6.35,5.2,10.16,17,6.86,24.88l-.94.38c3,7.62,5.75,15.31,6.67,22.51l-1.27.1c-.81-.69-2.69-.34-4.53.24-1.63.51-3.21,1.2-3.93,1.51-6.07,2.52-12.11,8-18.27,9.44,1.49,3.83,1.25,8.51,3.4,11.58l0,.14c-2.68-.26-5.32-.53-7.76-.65-12.87-.63-25.36-1.7-38-2.88q-1.08-.1-2.32-.15l.05-1c0-6.4-.58-10.59-3.88-16-5.68-9.37-9.75-14.84-2.83-25.15A78.81,78.81,0,0,1,314.74,154.1Z"/><path class="cls-8" d="M386.25,184.84c2.26,1.94-1.7,4-3.31,4.46l-.17,0c-.29-1.46-.62-2.8-1-4l-.07-.22C383.56,184.5,385.45,184.16,386.25,184.84Z"/><path class="cls-8" d="M283.39,222.87c-.38.09-.74.15-1.1.21a9.12,9.12,0,0,1-4.68-.93l.67-.24a122.13,122.13,0,0,0,11.15-6.9c.67-.43,1.32-.84,2-1.24s1.15-.69,1.73-1c4-2.26,8.37-4.39,12-7.43l-.12-.93a50.55,50.55,0,0,1,9.78-.34q1.24.05,2.32.15c12.65,1.18,25.14,2.25,38,2.88,2.44.12,5.08.39,7.76.65l0-.14c-2.14-3.07-1.9-7.76-3.4-11.58,6.16-1.41,12.2-6.91,18.27-9.44.72-.31,2.3-1,3.93-1.51l.07.22c.36,1.24.69,2.57,1,4,2.44,11.93,2.49,30.32-3.26,39.43l-2.4-1c-1.22,0-3.88-.31-6.74-.67-3.64-.46-7.62-1-9.44-1.15-11.46-.81-22-6.43-33.19-8.6-7.14-1.39-9.35-1.8-14.89,2.3-.22.17-.46.33-.7.5a27.63,27.63,0,0,1-5.56,2.92,16.48,16.48,0,0,1-8.29,1.17l-.31-1.36-.84.19a18.32,18.32,0,0,1-4.58.58c-3.17,0-6-.57-9.15-.57Z"/><path class="cls-7" d="M329.82,134.91c1-2.14,1.46-4.07,1.08-5.66v-.07c10.16.53,18.07-.09,22.87-10.23l3.47-1.54c3.31,7,9.51,12,15.84,16.88l-.67.86a15.47,15.47,0,0,0-10.66-2.49c-3,.43-11.48,6.43-11.48,8.34l-4,.41a2.76,2.76,0,0,0-2.68-1.25c1.22-.39,2.25-2.63,1.72-4.65a2.51,2.51,0,0,0-3.86,1.29c-2.26-1.39-6.67-1-6.09,1.94l-2.81.93a2,2,0,0,0-1.24.33l-3.93-1a30.5,30.5,0,0,0,2.39-4.08A.06.06,0,0,0,329.82,134.91Z"/><path class="cls-9" d="M369.51,470.91c11,7.67,2.2,21,2.57,31.83h-2.57c-1.25-1.75-1-9.88-2.73-13.57a20.64,20.64,0,0,0-10.14,1.56l-.33-.1c1.17-4.15,1.78-8,.39-11.86l.79-.05C361.48,477.23,366.35,473.57,369.51,470.91Z"/><path class="cls-8" d="M369.94,470.14l-.43.77c-3.16,2.66-8,6.31-12,7.81l-.79.05a18.14,18.14,0,0,0-6.07-7.77l-.51-.09c1.72-11.62,2.71-23.3,5-31.66,2.18-8,3.36-18.94,7.53-25.74l-.05-.88c1.25-.07,2.52-.14,3.79-.22l.12,2a112.24,112.24,0,0,0,.21,29.86C367.84,452.55,367.17,462.28,369.94,470.14Z"/><path class="cls-8" d="M362.59,412.64l.05.88c-4.17,6.79-5.35,17.74-7.53,25.74-2.28,8.36-3.28,20-5,31.66a122,122,0,0,1-4.86,21.72C339.55,497.08,320,508,322.2,494c1.78-3.07,3.48-6,5.1-8.37a69.52,69.52,0,0,0,9.57-22.75c3.65-15.46,3.86-34.54.89-50.19l.05-.55c.72.05,1.46.14,2.2.22A130.43,130.43,0,0,0,362.59,412.64Z"/><path class="cls-8" d="M313.88,112a21,21,0,0,1-5.78.62c.14-2.4.88-4.82.5-7.36-.53-3.55-1.89-2.81-3-5.58a16.87,16.87,0,0,1-1-4.84c-.33-3.67-.07-7.65-1.29-11l.77-.33c9.54,3.11,16.71,14.17,28.45,11.87,3.86-.75,8-6,11.74-2.87,3.93,3.24.79,8.29-2.44,10.43l1.72.57c3.74,1,7.34,1.82,11.26,2.81a32.6,32.6,0,0,0,.46,4.63,25.79,25.79,0,0,0,2,6.45L353.77,119c-4.8,10.14-12.71,10.76-22.87,10.23l-.5,0c-.1-2-.05-4.08-.09-6.11a14.06,14.06,0,0,1-2,.48c-7.29,1.29-9.87-1.29-12-5l-.24-2.08c-.38.05-.74.1-1.08.17-.57-1.61-1.15-2.2-1-4Z"/><path class="cls-9" d="M345.26,492.64a122,122,0,0,0,4.86-21.72l.51.09a18.14,18.14,0,0,1,6.07,7.77c1.39,3.83.77,7.7-.39,11.86-1.53,5.39-4,11.22-4.1,18-.27,0-2,0-2.3,0-.93-4.26-1.34-8.56-2.85-12.61a7.2,7.2,0,0,0-4.15,2.45l0,0A50.57,50.57,0,0,0,345.26,492.64Z"/><path class="cls-10" d="M303.24,83.83c1.22,3.33,1,7.31,1.29,11l-1.08.12c-3.07-4.56-7.89-7.09-6.88-13.73C297.35,76,302,70.72,306,67.48c8.79-7.1,19-9.71,29.74-6.86,10.12,2.69,18,7.21,19.7,18.31,1.41,9.21-1.12,18.36-.72,27.4-3.91-1-7.52-1.84-11.26-2.81l-1.72-.57c3.23-2.14,6.37-7.19,2.44-10.43-3.76-3.09-7.88,2.11-11.74,2.87-11.74,2.3-18.91-8.77-28.45-11.87Z"/><path class="cls-7" d="M341.49,136.8a2.51,2.51,0,0,1,3.86-1.29c.53,2-.5,4.26-1.72,4.65a2.76,2.76,0,0,1,2.68,1.25c1.29,2.21-.93,6.43-3.74,4.7,4.34,3-1.12,7.79-1.82,4.08.26,3.62-4,6.37-3.9,2.13-1.29,3.81-6.64,3-3.62.24-3.59,1.77-3.16-3-.81-4.62-5.13,1.06-2.92-4.07.5-4.87-1.63-.62-2.51-2.35-1.58-3.09a2,2,0,0,1,1.24-.33l2.81-.93C334.81,135.8,339.22,135.41,341.49,136.8Zm-.26,1c.07-.26.17-.7.22-.93A3.06,3.06,0,0,0,341.23,137.83Z"/><path class="cls-9" d="M345.26,492.64a50.57,50.57,0,0,1-2.39,5.8c-5.51,11.29-14.83,18-31.81,13.52a2.09,2.09,0,0,0-1.42-.79c4.6-3.52,8.77-10.66,12.56-17.19C320,508,339.55,497.08,345.26,492.64Z"/><path class="cls-7" d="M329.8,134.95a30.5,30.5,0,0,1-2.39,4.08c-3.35,4.94-8.42,10.42-12.68,15.07,1-4,1.2-8,3.86-11.39C321.55,138.88,326.71,137.95,329.8,134.95Z"/><path class="cls-8" d="M270.62,278.26c-1.82-1.68-9.3,1.24-12,3.14-1.13.79-3.11,2.9-5,4.48-2.26,1.84-4.43,2.93-5,.22l.53-.12c2.11-7.05,9.88-10,15.49-13.76,6.78-4.55,11.79-9.8,17.4-15.73s11.38-12.08,16.06-18.89c3.11-4.51,5.56-10,8.53-14.55a27.63,27.63,0,0,0,5.56-2.92l2.16.07c-.05,6.86-2.37,13.76-4.89,20.57-1.29,3.52-2.66,7-3.77,10.47l-.48-.15c-3.74,3.64-8.85,6.69-12.87,10.3-7.43,6.67-12.78,15.24-18.15,23.34-1.3,2-3.77,5.56-5.32,5.78l-.72-.22c-.39-.36-.63-1.24-.63-2.81,0-2,2.3-4.67,2.78-6.62A15.24,15.24,0,0,0,270.62,278.26Z"/><path class="cls-7" d="M309.42,240.76l3.17,1.17c-.46,31.47-6.09,62.65-9.75,93.82-1.7,14.38-2.26,28.9-3.53,43.33-.46,5.15-.15,13.62-1.48,20.11-7.17-.65-12.68,1.87-19.39-2.16l.39-.67c1.72-1.46,1.13-10.64,1.7-14.46.91-6.26,2-12.47,3-18.77,3.31-23,9.21-45.8,13.38-68.79,2.39-13.13,4.17-26.68,7.7-39.57.33-1.17.67-2.35,1.06-3.53C306.76,247.78,308.13,244.28,309.42,240.76Z"/><path class="cls-11" d="M288,212.76l1.42,2.25a122.13,122.13,0,0,1-11.15,6.9l-.67.24-.48-.24v-.57h-5.18c.7-6.85-1.42-9.76-7.43-9.81C271,210.17,283.76,210.62,288,212.76Z"/><path class="cls-12" d="M264.51,211.53c6,.05,8.13,3,7.43,9.81l-.05.51c-3.47-1.41-7.84.24-11.26.55.27-3.43.12-7.43,1-10.79h.58A20.61,20.61,0,0,1,264.51,211.53Z"/><path class="cls-6" d="M278.27,221.91a122.13,122.13,0,0,0,11.15-6.9c.67-.43,1.32-.84,2-1.24s1.15-.69,1.73-1c4-2.26,8.37-4.39,12-7.43"/><path class="cls-6" d="M277.12,221.91l.48.24a9.12,9.12,0,0,0,4.68.93c.36-.05.72-.12,1.1-.21,1.24-.29,2.52-.7,3.76-1,1.72-.41,3.23-1.77,4.84-2.37a19.55,19.55,0,0,0,3-1c1.29-.7,2.28-2,3.9-1.77"/><path class="cls-6" d="M283.42,223.06c3.16,0,6,.57,9.15.57a18.32,18.32,0,0,0,4.58-.58l.84-.19c1.66-.38,3.88-.91,4.87-2.08"/><path class="cls-6" d="M290.94,213c2-5.35,7.94-7.69,14.1-8.56a50.55,50.55,0,0,1,9.78-.34q1.24.05,2.32.15c12.65,1.18,25.14,2.25,38,2.88,2.44.12,5.08.39,7.76.65a67.27,67.27,0,0,0,10.9.43"/><path class="cls-6" d="M355.49,142.41c-1.08,12.87-3.05,24.47-1.7,37.47.7,6.74,2.45,9.51,5.28,15.13a7.56,7.56,0,0,1,.45,1c1.49,3.83,1.25,8.51,3.4,11.58"/><path class="cls-6" d="M358.92,196.17c.21,0,.39-.09.6-.14,6.16-1.41,12.2-6.91,18.27-9.44.72-.31,2.3-1,3.93-1.51,1.84-.58,3.72-.93,4.53-.24,2.26,1.94-1.7,4-3.31,4.46"/><path class="cls-6" d="M381.79,185.31c.36,1.24.69,2.57,1,4,2.44,11.93,2.49,30.32-3.26,39.43"/><path class="cls-6" d="M298.3,224.21a16.48,16.48,0,0,0,8.29-1.17,27.63,27.63,0,0,0,5.56-2.92c.24-.17.48-.33.7-.5,5.54-4.1,7.76-3.69,14.89-2.3,11.19,2.16,21.72,7.79,33.19,8.6,1.82.12,5.8.69,9.44,1.15,2.87.36,5.53.67,6.74.67a1.29,1.29,0,0,0,.69-.1"/><path class="cls-6" d="M329.8,134.95a30.5,30.5,0,0,1-2.39,4.08c-3.35,4.94-8.42,10.42-12.68,15.07a78.81,78.81,0,0,0-6.57,7.77c-6.91,10.31-2.85,15.79,2.83,25.15,3.29,5.42,3.9,9.61,3.88,16"/><path class="cls-6" d="M330.9,129.25c.38,1.6-.07,3.52-1.08,5.66"/><path class="cls-6" d="M314.31,220.19c-.05,6.86-2.37,13.76-4.89,20.57-1.29,3.52-2.66,7-3.77,10.47-.39,1.18-.74,2.37-1.06,3.53-3.53,12.89-5.32,26.44-7.7,39.57-4.17,23-10.07,45.76-13.38,68.79-.91,6.3-2,12.51-3,18.77-.57,3.83,0,13-1.7,14.46"/><path class="cls-6" d="M312.59,241.93c-.46,31.47-6.09,62.65-9.75,93.82-1.7,14.38-2.26,28.9-3.53,43.33-.46,5.15-.15,13.62-1.48,20.11a17.22,17.22,0,0,1-2.4,6.31"/><path class="cls-6" d="M278.27,396.93l.17.1c6.71,4,12.22,1.51,19.39,2.16a4.21,4.21,0,0,1,.46,0"/><path class="cls-6" d="M294.28,405.51a3.17,3.17,0,0,0,.43.55c4.15,5.42,14.95,6.07,21.21,5.75a136.92,136.92,0,0,1,21.89.31c.72.05,1.46.14,2.2.22a130.43,130.43,0,0,0,22.58.31c1.25-.07,2.52-.14,3.79-.22,7.79-.51,15.61-1.18,23.37-1.18,3,0,14.71.24,18.38-.55.74-.15,1.15-.36,1.12-.6"/><path class="cls-6" d="M370.36,227.05v0c-.33,3,3,10.48,4.53,14.16,2.33,5.58,4.17,11.38,6,17.26,3.72,11.69,7.24,23.82,10,35.79a654.08,654.08,0,0,1,13.85,85.09c.41,4.1,6.19,30.56,3.31,31.28"/><path class="cls-6" d="M304,83.5c9.54,3.11,16.71,14.17,28.45,11.87,3.86-.75,8-6,11.74-2.87,3.93,3.24.79,8.29-2.44,10.43"/><path class="cls-6" d="M302.86,82.92c.14.29.26.6.38.91,1.22,3.33,1,7.31,1.29,11a16.87,16.87,0,0,0,1,4.84c1.13,2.76,2.49,2,3,5.58.38,2.54-.36,5-.5,7.36a21,21,0,0,0,5.78-.62c.88-.17,1.75-.34,2.71-.45"/><path class="cls-6" d="M314,112.62c-.17,1.8.41,2.39,1,4,.34-.07.7-.12,1.08-.17,2-.24,4-.31,5.66-1.49"/><path class="cls-6" d="M316.31,118.53c2.14,3.72,4.72,6.3,12,5a14.06,14.06,0,0,0,2-.48c4.19-1.2,7-3.74,10.3-7.53"/><path class="cls-6" d="M330.32,123v.09c0,2,0,4.1.09,6.11l.5,0c10.16.53,18.07-.09,22.87-10.23"/><path class="cls-6" d="M314.31,155.57c.15-.5.29-1,.43-1.48,1-4,1.2-8,3.86-11.39,3-3.83,8.12-4.75,11.2-7.76a.06.06,0,0,0,0,0,4.73,4.73,0,0,0,.5-.51"/><path class="cls-6" d="M350.34,141.26a.41.41,0,0,1-.07-.26c0-1.9,8.48-7.91,11.48-8.34a15.47,15.47,0,0,1,10.66,2.49,25.3,25.3,0,0,1,2.52,1.82c6.35,5.2,10.16,17,6.86,24.88"/><path class="cls-6" d="M373.21,143c2.14,6.13,5,12.66,7.64,19.25,3,7.62,5.75,15.31,6.67,22.51"/><path class="cls-6" d="M303.45,94.93c-3.07-4.56-7.89-7.09-6.88-13.73C297.35,76,302,70.72,306,67.48c8.79-7.1,19-9.71,29.74-6.86,10.12,2.69,18,7.21,19.7,18.31,1.41,9.21-1.12,18.36-.72,27.4a32.6,32.6,0,0,0,.46,4.63,25.79,25.79,0,0,0,2,6.45c3.31,7,9.51,12,15.84,16.88l.14.1"/><path class="cls-6" d="M343.48,103.51c3.74,1,7.34,1.82,11.26,2.81l.19.05"/><path class="cls-6" d="M308,97.23c2.3-1.15,8-1.44,9.73,0"/><path class="cls-6" d="M261.68,211.61c-.93,3.36-.77,7.36-1,10.79,3.41-.31,7.79-2,11.26-.55l.05-.51c.7-6.85-1.42-9.76-7.43-9.81a20.61,20.61,0,0,0-2.25.09"/><path class="cls-6" d="M262.26,212.2a12.67,12.67,0,0,1,2.25-.67c6.45-1.36,19.25-.91,23.49,1.24"/><path class="cls-6" d="M272,221.34h5.15"/><path class="cls-6" d="M249.1,286c2.11-7.05,9.88-10,15.49-13.76,6.78-4.55,11.79-9.8,17.4-15.73s11.38-12.08,16.06-18.89c3.11-4.51,5.56-10,8.53-14.55"/><path class="cls-6" d="M248.54,286a.32.32,0,0,0,0,.12c.58,2.71,2.75,1.61,5-.22,1.9-1.58,3.88-3.69,5-4.48,2.73-1.9,10.21-4.82,12-3.14a1.73,1.73,0,0,1,.22.27"/><path class="cls-6" d="M271.41,272.82c-.6,1.41-.62,3.47-.79,5.44a15.24,15.24,0,0,1-.38,2.57c-.48,2-2.78,4.62-2.78,6.62,0,1.58.24,2.45.63,2.81a.76.76,0,0,0,.72.22c1.54-.22,4-3.81,5.32-5.78,5.37-8.1,10.72-16.66,18.15-23.34,4-3.6,9.13-6.66,12.87-10.3"/><path class="cls-6" d="M309.45,511.32l.19-.15c4.6-3.52,8.77-10.66,12.56-17.19,1.78-3.07,3.48-6,5.1-8.37a69.52,69.52,0,0,0,9.57-22.75c3.65-15.46,3.86-34.54.89-50.19"/><path class="cls-6" d="M309.45,511.32c-.24,0-.12-.15.19-.15a2.09,2.09,0,0,1,1.42.79c17,4.48,26.3-2.23,31.81-13.52a50.57,50.57,0,0,0,2.39-5.8,122,122,0,0,0,4.86-21.72c1.72-11.62,2.71-23.3,5-31.66,2.18-8,3.36-18.94,7.53-25.74"/><path class="cls-6" d="M342.91,498.45a7.2,7.2,0,0,1,4.15-2.45c1.51,4,1.92,8.36,2.85,12.61.26,0,2,0,2.3,0,.12-6.76,2.57-12.59,4.1-18,1.17-4.15,1.78-8,.39-11.86a18.14,18.14,0,0,0-6.07-7.77"/><path class="cls-6" d="M322.32,493.31c-.05.22-.09.45-.12.67-2.25,14,17.35,3.11,23.06-1.34l.22-.19"/><path class="cls-6" d="M356.64,490.73a20.64,20.64,0,0,1,10.14-1.56c1.73,3.69,1.48,11.82,2.73,13.57h2.57c-.38-10.83,8.44-24.16-2.57-31.83-3.16,2.66-8,6.31-12,7.81"/><path class="cls-6" d="M366.5,414.38a112.24,112.24,0,0,0,.21,29.86c1.13,8.32.46,18.05,3.23,25.91"/><path class="cls-6" d="M341.49,136.8c-2.26-1.39-6.67-1-6.09,1.94a3.47,3.47,0,0,0,.15.57"/><path class="cls-6" d="M341.19,138a1.13,1.13,0,0,0,0-.15c.07-.26.17-.7.22-.93"/><path class="cls-6" d="M341.45,136.9a3.06,3.06,0,0,0-.22.93"/><path class="cls-6" d="M341.45,136.9a.24.24,0,0,1,0-.1"/><path class="cls-6" d="M340.7,149.74a2,2,0,0,1,.05.45v0c.7,3.71,6.16-1.12,1.82-4.08,2.81,1.73,5-2.49,3.74-4.7a2.76,2.76,0,0,0-2.68-1.25c1.22-.39,2.25-2.63,1.72-4.65a2.51,2.51,0,0,0-3.86,1.29"/><path class="cls-6" d="M333.4,139.73a5,5,0,0,0-.82-.07,2,2,0,0,0-1.24.33c-.93.74-.05,2.47,1.58,3.09-3.41.81-5.63,5.94-.5,4.87-2.35,1.58-2.78,6.38.81,4.62-3,2.76,2.33,3.57,3.62-.24-.09,4.24,4.15,1.49,3.9-2.13"/><path class="cls-6" d="M322.75,94.37c5.47,2.33,10.71,10.62,8.15,16.73"/><polyline class="cls-6" points="253.58 285.88 268.1 290.27 268.82 290.49 279.85 293.84"/><ellipse class="cls-11" cx="315.16" cy="103.8" rx="1.29" ry="1.72"/></g></g></svg>