<svg xmlns="http://www.w3.org/2000/svg" viewBox="0 0 510 576.03"><defs><style>.cls-1,.cls-20,.cls-25,.cls-28{fill:#fff;}.cls-2,.cls-21,.cls-27,.cls-9{fill:none;}.cls-11,.cls-12,.cls-14,.cls-15,.cls-16,.cls-17,.cls-19,.cls-2,.cls-21,.cls-22,.cls-23,.cls-24,.cls-25,.cls-26,.cls-27,.cls-28,.cls-3,.cls-4,.cls-5,.cls-6,.cls-7,.cls-8,.cls-9{stroke:#000;stroke-width:2px;}.cls-11,.cls-12,.cls-14,.cls-19,.cls-2,.cls-22,.cls-23,.cls-24,.cls-25,.cls-26,.cls-28,.cls-3,.cls-4,.cls-5,.cls-6,.cls-7,.cls-9{stroke-miterlimit:10;}.cls-3{fill:#e6e6e6;}.cls-4{fill:#f15a24;}.cls-5{fill:#003c63;}.cls-10,.cls-6,.cls-8{fill:#e1ee21;}.cls-13,.cls-16,.cls-7{fill:#d9ab77;}.cls-11,.cls-12,.cls-15,.cls-16,.cls-17,.cls-19,.cls-27,.cls-28,.cls-7,.cls-9{stroke-linecap:round;}.cls-15,.cls-16,.cls-17,.cls-21,.cls-27,.cls-8{stroke-linejoin:round;}.cls-11{fill:#c69c6d;}.cls-12{fill:#753724;}.cls-14,.cls-17,.cls-18,.cls-19{fill:#0071bc;}.cls-15{fill:#42210b;}.cls-20{opacity:0.3;}.cls-22{fill:#ccc;}.cls-23{fill:#22b573;}.cls-24{fill:#b3b3b3;}</style></defs><title>home-break</title><g id="Layer_2" data-name="Layer 2"><g id="thum-frames"><rect class="cls-1" width="510" height="576.03"/></g><g id="thums"><rect class="cls-2" x="243.33" y="220.8" width="2.31" height="67.03" transform="translate(-4.97 4.88) rotate(-1.13)"/><circle class="cls-3" cx="244.49" cy="288.78" r="8.6"/><circle class="cls-4" cx="243.83" cy="220.81" r="5.68"/><path class="cls-5" d="M386.63,110.43c-1.09,1.1-3,2.11-6.6,2.23-7.77.27-46.89-.28-58.83-8.82a22.38,22.38,0,0,0-2.62-1.6c.51-1,7.63-1.45,13.28-1.65,6.39-.22,15.56,0,21.84-.17s11.18-.32,14.5.09,18.22,2.8,18.41,8.19A10,10,0,0,1,386.63,110.43Z"/><path class="cls-6" d="M251.43,81s.13,3.3-.91,4-2.52-.12-3.25-1.12-.55-3.22-.6-4.46V75.89h4.76Z"/><path class="cls-6" d="M252.1,84.28a3.17,3.17,0,0,0,2.8,1.84c1.18,0,1.61-.77,2.11-1.84V82.77l-4.91-2.92Z"/><path class="cls-6" d="M246.85,78.67A4.33,4.33,0,0,1,245.77,81c-.86.74-2.31.94-3,0a5.93,5.93,0,0,1-.95-3.22A24.55,24.55,0,0,1,243,68.32l16.66.1V75l-12.84,3.69"/><path class="cls-6" d="M246.85,78.67"/><path class="cls-7" d="M279.75,91l-14,6.34c-.46-1.14-1.54-3.59-2.62-6.34,0,0,9.36-.28,16-6.34A33,33,0,0,1,279.75,91Z"/><path class="cls-8" d="M279.21,84.62c-6.69,6.05-16,6.34-16,6.34a55.7,55.7,0,0,1-2.41-7.29,27,27,0,0,1-6.43-1.47,41.53,41.53,0,0,1-6.2-2.77c-4.35-2.38-7.14-5.37-6.81-7.19s3.1-2,5.45-.8c5.82,3,10.5,3.43,11.5,2.33,1.64-1.82.89-5.17-3.45-5.17-7.74-.21-11.61-.27-19.37-.63-2.09-.09-4.25-1.38-4.25-3.79s5.13-2.29,6.76-2.35c8.24-.32,24.93.18,27.18,1C272.49,65.57,277.61,75.5,279.21,84.62Z"/><path class="cls-9" d="M277.94,79.44a46.69,46.69,0,0,1-7.66,4.22s-4.49,2.07.76,5.39"/><path class="cls-9" d="M273.91,70.66a12.33,12.33,0,0,1-5.41,3.63"/><path class="cls-10" d="M256.61,226.49a73.21,73.21,0,0,0-12.79-4.14,23.41,23.41,0,0,1-6.94-3.14,2.79,2.79,0,0,1-3.74,1c-2.41-1.69-4.91-4.22-4.34-7.11a14.32,14.32,0,0,0,.66-2.65c0-1.14-.73-2.28-.37-3.37.55-1.65,3.2-1.95,3.5-3.66.14-.81-.34-1.7,0-2.44s1.55-.88,2.44-1.14c1.49-.44,2.56-1.73,3.9-2.5,2.4-1.37,5.37-1,8.1-.55s3.39.94,5.91,2.29c4.62,2.47,9.78,7.56,14.54,9.75Z"/><path class="cls-9" d="M267.5,208.82c-4.76-2.2-9.92-7.28-14.54-9.75-2.52-1.35-3.09-1.83-5.91-2.29s-5.7-.82-8.1.55c-1.35.77-2.41,2.06-3.9,2.5-.89.26-2,.31-2.44,1.14s.12,1.63,0,2.44c-.29,1.71-3,2-3.5,3.66-.36,1.08.37,2.22.37,3.37a14.32,14.32,0,0,1-.66,2.65c-.58,2.89,1.93,5.42,4.34,7.11,1.12.78,3,1.36,3.58.13"/><path class="cls-11" d="M381.5,569.5h-5.26c-1.16,0-5.74-.29-11.58-.55-.81,0-1.65-2-2.5-2-9.12-.35-20,2.44-26.49,2.56a183.83,183.83,0,0,1-23-1.28v-4.92c11.6,2.86,23.58,1.22,35.58.08,6.77-.64,7.78-.5,14.49.09,1.53.13,17.16.08,18.4,0Z"/><path class="cls-12" d="M381.13,541.74v21.74h-4.36c-3.26-.14-12.5.14-14,0-6.7-.58-7.72-.73-14.49-.09-12,1.13-24,2.77-35.58-.08-.89-3.82.55-11.15,5.81-11.15a34.33,34.33,0,0,0,9.19-.38c8.06-1.69,13.1-11,19.31-10Z"/><path class="cls-9" d="M329.33,551.34s15.89.06,15.89,11.26"/><path class="cls-9" d="M338.56,553.28s11.47-7.38,13.53-11.61"/><path class="cls-9" d="M335.26,552.16s12-8.05,13.37-10.49"/><line class="cls-12" x1="339.99" y1="549.88" x2="334.22" y2="548.68"/><line class="cls-12" x1="342.88" y1="547.51" x2="337.11" y2="546.31"/><line class="cls-12" x1="345.77" y1="545.15" x2="339.99" y2="543.95"/><path class="cls-12" d="M381,547.51s-16.83-.07-16.83,16.09"/><path class="cls-11" d="M401.77,569.5H396.5c-1.16,0-5.74-.29-11.58-.55-.81,0-1.65-2-2.5-2-9.12-.35-20,2.44-26.49,2.56a183.83,183.83,0,0,1-23-1.28v-4.92c11.6,2.86,23.58,1.22,35.58.08,6.77-.64,7.78-.5,14.49.09,1.53.13,17.16.08,18.4,0Z"/><path class="cls-12" d="M401.4,541.74v21.74H397c-3.26-.14-12.5.14-14,0-6.7-.58-7.72-.73-14.49-.09-12,1.13-24,2.77-35.58-.08-.89-3.82.55-11.15,5.81-11.15a34.33,34.33,0,0,0,9.19-.38c8.06-1.69,13.1-11,19.31-10Z"/><path class="cls-9" d="M349.6,551.34s15.89.06,15.89,11.26"/><path class="cls-9" d="M358.83,553.28s11.47-7.38,13.53-11.61"/><path class="cls-9" d="M355.53,552.16s12-8.05,13.37-10.49"/><line class="cls-12" x1="360.26" y1="549.88" x2="354.49" y2="548.68"/><line class="cls-12" x1="363.15" y1="547.51" x2="357.38" y2="546.31"/><line class="cls-12" x1="366.03" y1="545.15" x2="360.26" y2="543.95"/><path class="cls-12" d="M401.24,547.51s-16.83-.07-16.83,16.09"/><polygon class="cls-13" points="378.43 158.23 346.65 178.26 345.51 133.38 377.73 133.38 378.43 158.23"/><path class="cls-14" d="M336.28,200.54l-9.33-2-5.41-5.7C287.11,172,271.6,134.11,263.65,99.66a4.6,4.6,0,0,1,2.46-5.17c3.36-1.64,7.91-3.92,11.47-5.37a4.41,4.41,0,0,1,5.65,2.23l10.21,21.91a47.12,47.12,0,0,1,2,4.75,44.26,44.26,0,0,0,2.17,6.35,22.21,22.21,0,0,0,3.22,4.33c5.31,6,10.72,12.25,16.37,17.94,1.33.46,2.28,1.6,3.45,2.38a17.09,17.09,0,0,0,3.5,1.56c3,1.14,9,3.33,11.64,5.23"/><path class="cls-15" d="M335.94,211.92c-1.52,0-3.22,0-4.32-1.06-1.31-1.25-1.2-3.33-1.09-5.15a51.29,51.29,0,0,0-.33-9.85l-1-43.1a66.68,66.68,0,0,1-3.57-13.62,22.19,22.19,0,0,1-.27-6c.24-1.92.89-3.78,1.1-5.7.33-3.08-.48-6.15-.94-9.22s.9-12.32,1.94-15.24a22.32,22.32,0,0,1,1.64-3.36h13.63l6.48,102.75-6.74,9.56Z"/><path class="cls-16" d="M376.72,128.93a31.64,31.64,0,0,1-13,24.61,28.86,28.86,0,0,1-11.67,4.56c-22.75,2.65-22.48-32.65-23-52.34L333,99.62h34.77l10.69,13.6Z"/><path class="cls-15" d="M325.22,112c15.2,3.09,28.49-11.6,28.49-11.6l14.46.29L372.23,115a2.89,2.89,0,0,0,1.07,1.83,1.94,1.94,0,0,0,2.11-.29c.59-.46,1-3,1.34-3.63l-.21,12.19,3.13,63.9,34.83.64s.7-13.4-2-18.38-7.44-6.89-8.34-12a24.21,24.21,0,0,0-7.31-12.71c-2.82-2.37-4.95-9.55-4.72-11.8.49-4.81-1.45-9.56-2.17-14.35a18.1,18.1,0,0,0-.9-4,29.39,29.39,0,0,0-2.2-3.93,23.62,23.62,0,0,1-3.1-9.63V98H329.05S324.74,104.49,325.22,112Z"/><path class="cls-7" d="M375.47,116.9a3.46,3.46,0,0,1,6.49,1.69c0,1.44-.92,2.77-.86,4.21a18.8,18.8,0,0,1-.55,4.55c-1.33,5.67-5.7,3.31-6,1"/><ellipse cx="353.95" cy="125.38" rx="1.35" ry="2.4"/><ellipse cx="338.6" cy="125.38" rx="1.35" ry="2.4"/><path class="cls-17" d="M346.65,158.23s-11.79,8.22-10.37,22.08c0,0,1.71,1,5.5,1"/><path class="cls-9" d="M317.22,146.63s-7.46-1.86-13.36-1.09"/><path class="cls-9" d="M315.27,151.32s-6.93-2.26-20.4-.11"/><path class="cls-18" d="M332.93,400.46c.65-12.28,1.84-47.45,1.29-52.62-1.8-17,3.75-39.91,2.84-57-.69-13,.81-24.56.81-37.61a51.8,51.8,0,0,1-10.13,2.92,50.26,50.26,0,0,1-16-.25c-18.79-3-40.13-13.89-54.67-26.15-.58-5-1-10.54,1.87-14.66,2.34-3.32,6.34-5,10.14-6.38,7.52,3.63,18.37,7.47,26.65,8.52a48.08,48.08,0,0,1,5.57.81A30.87,30.87,0,0,1,310,222.1q6.22-.06,12.45.14c5.46-2,10.45-8.84,13.87-13.48,1.08-11.91,6.85-32.94,10.33-46.27l.93,14.79a11.51,11.51,0,0,1,1.33-3.06,13.27,13.27,0,0,1,3.09-3.14l21.87-17.75c3.63-2.95,8-8.74,11.09-12.29l7.76,9c3.45,2.57,6.2,9.23,9.9,14.62,11,16,14.89,30.63,14.37,49.26-.22,7.66-4.09,22-3.43,29.62.24,2.76.71,5.53.36,8.27-.54,4.24-3,8-4.09,12.11-2.55,9.37.79,30.83-4.94,38.66l0,8.83s1.27,27.63,1.37,37.76"/><path class="cls-9" d="M321.9,222.43c5.67-1.79,10.88-8.88,14.41-13.67"/><path class="cls-9" d="M370,299.35c9,.68,19,1.07,25.9-4.67"/><path class="cls-18" d="M337.87,253.21c0,13-1.51,24.59-.81,37.62.91,17.1-2.29,38.16-2.83,57-.15,5.2-1.07,18.91-1.47,31.21-.17,5.22,1,43.7,1.68,47.55s2.3,51.05,3.43,54.13,4,39.25,4,39.25-.69,13.82-.58,16.39.47,6.71.47,6.71,11.14,2.68,14.21,5.19l7-6.54S396,563.48,401.4,563.48l.91-8.92s-1.22-13.27-1.29-17.5-2.31-18.81-2.31-18.81c1.46-12.65-1.52-36.61-1.52-36.61,1.87-3.85-.68-16.55-.76-19.63s2.35-58.5,3.54-64.67,5.36-38.08,6.23-48.17-1.37-37.76-1.37-37.76l0-8.83c5.73-7.84,2.4-29.29,4.94-38.66,1.12-4.12,3.56-7.87,4.1-12.1.35-2.74-.12-5.51-.36-8.27-.66-7.63,3.22-22,3.43-29.62.52-18.62-3.34-33.24-14.37-49.26-3.71-5.38-6.45-12-9.9-14.62l-7.76-9c-3,3.55-7.46,9.34-11.09,12.29L352,171.08a13.18,13.18,0,0,0-3.09,3.14,11.23,11.23,0,0,0-1.33,3.06l-.93-14.79c-3.48,13.33-9.25,34.37-10.33,46.27Z"/><path class="cls-9" d="M333.07,222.77Q321.55,222,310,222.1"/><path class="cls-9" d="M408.43,237.21a31.85,31.85,0,0,1-23.48,17.39"/><path class="cls-9" d="M365,179.64c1.25-1.23,2.88-2.55,4.56-2a13.13,13.13,0,0,1,1.77.94,4.07,4.07,0,0,0,5.16-1.66"/><path class="cls-9" d="M289,247.76a53.93,53.93,0,0,0-7.74-14.87"/><path class="cls-9" d="M386.61,151.22c1.78,6.77,5.52,9.08,6.25,15.62s1,11.35,3.83,14.62"/><line class="cls-19" x1="285.17" y1="95.5" x2="272.16" y2="101.6"/><path class="cls-9" d="M378.26,234.17a16,16,0,0,0,11,3"/><path class="cls-9" d="M314,226.34c-3.76-3.48-7.75-7.09-12.72-8.32a48.05,48.05,0,0,0-5.57-.81c-8.27-1.06-19.13-4.9-26.65-8.52-3.8,1.42-7.81,3.06-10.15,6.38-2.9,4.12-2.45,9.65-1.87,14.66,14.54,12.27,35.88,23.2,54.67,26.16a50.39,50.39,0,0,0,16,.25c6.18-1,12-3.6,17.69-6.15,18.48-8.24,37.16-16.61,53.1-29.06"/><path class="cls-9" d="M361.65,180.68c-7.8,4.39-13.34,11.8-18.65,19l-6.69,9.08c-3.53,4.79-8.74,11.88-14.41,13.67"/><path class="cls-9" d="M336.82,204.62c4.58-16.43,8.7-16,10.68-26.73"/><path class="cls-9" d="M340,301.41a22.47,22.47,0,0,1-.48,7.37"/><path class="cls-9" d="M344.73,302.44c-.3,2-.29,5.34-.59,7.3"/><path class="cls-9" d="M349.78,303.71v7.83"/><path class="cls-9" d="M355.94,305v6.67"/><path class="cls-9" d="M361.07,307a34,34,0,0,0,0,6.16"/><path class="cls-9" d="M366.19,307l-.29,6.93"/><path class="cls-9" d="M369.79,307.3v6.93"/><path class="cls-9" d="M375.69,307.56v6.16"/><path class="cls-9" d="M380.82,307.56v6.16"/><path class="cls-9" d="M385.2,307a28.07,28.07,0,0,0,.24,6.15"/><path class="cls-9" d="M389.8,306.53v6.67"/><path class="cls-9" d="M394.42,305.51l.63,7.7"/><line class="cls-9" x1="399.58" y1="305" x2="399.69" y2="311.68"/><path class="cls-9" d="M362.92,541.74s-1.65-12.38-.4-19.31-.42-20.14-.42-20.14-3.23-27.58-4.74-39.51,0-45.41,0-45.41,1.39-41.88,1.25-45c-.14-3.38-2.68-36.31-2.68-36.31"/><path class="cls-9" d="M337.87,253.21c0,13-1.51,24.59-.81,37.62.91,17.1-2.29,38.16-2.83,57-.15,5.2-1.07,18.91-1.47,31.21-.17,5.22,1,43.7,1.68,47.55s2.3,51.05,3.43,54.13,4,39.25,4,39.25-.69,13.82-.58,16.39.47,6.71.47,6.71,11.14,2.68,14.21,5.19l7-6.54s33.2,21.74,38.48,21.74l.86-8.23a11,11,0,0,0,.05-1.57c-.11-2.88-.48-12.93-.54-16.54-.08-4.23-3.06-18.9-3.06-18.9,1.46-12.65-1.52-36.61-1.52-36.61,1.87-3.85-.68-16.55-.76-19.63s2.35-58.5,3.54-64.67,5.36-38.08,6.23-48.17-1.37-37.76-1.37-37.76l0-8.83c5.73-7.84,2.4-29.29,4.94-38.66,1.12-4.12,3.56-7.87,4.1-12.1.35-2.74-.12-5.51-.36-8.27-.66-7.63,3.22-22,3.43-29.62.52-18.62-3.34-33.24-14.37-49.26-3.71-5.38-6.45-12-9.9-14.62l-7.76-9c-3,3.55-7.46,9.34-11.09,12.29L351,171.9a9.49,9.49,0,0,0-2.15,2.45,11.26,11.26,0,0,0-1.25,2.93l-.93-14.79c-3.48,13.33-9.25,34.37-10.33,46.27"/><path class="cls-9" d="M341.83,520s.84,5.42,3.5,8.11"/><path class="cls-9" d="M398.7,518.24S396,526.85,392,530.12s-5.29-.19-4.71-1.35,2-2.43,2.6-3.91"/><path class="cls-9" d="M388.65,549.3c5.7,4,10.36,6.6,13.11,6.8"/><path class="cls-9" d="M397.19,481.64a37.54,37.54,0,0,1-4.85,8.08"/><path class="cls-9" d="M385.13,331.65s-4.08,22,13.44,22.51"/><path class="cls-9" d="M337.63,307.56s28.27,12.44,67.19,3.84"/><path class="cls-9" d="M404.87,302.57c-31.36,10.63-68-2.39-68-2.39"/><path class="cls-9" d="M409.81,263.91c-1.66,4.78-7.55,11.45-9.54,12.86"/><path class="cls-9" d="M343.13,301.63c.23-3.56,0-21.84,1-29.73s.3-21.47.3-21.47"/><circle class="cls-9" cx="348.09" cy="290.22" r="1.44"/><circle class="cls-9" cx="349.54" cy="258.91" r="1.44"/><circle class="cls-9" cx="343.12" cy="196.37" r="1.44"/><path class="cls-2" d="M343.89,173s-6.82,4.63-7.62,7.32"/><path class="cls-14" d="M352,171.08c2.89.21,4.15,1.89,5.37,4.52a4,4,0,0,0,1.13,1.76c1.06.73,2.48,0,3.53-.75,9.58-6.7,30.08-25.13,30.69-26.57,1-2.49-5.38-9.63-6.1-9.63-2.61,0-6.69.64-9.3.66l.42,8.48L352,171.08"/><path class="cls-14" d="M386.61,140.41c-1.56,2.82-8.88,9.14-8.88,9.14"/><path class="cls-9" d="M233.69,215.13c1.74,3.31,6.5,6.37,10.14,7.22a73.21,73.21,0,0,1,12.79,4.14"/><path class="cls-9" d="M232.92,217.64a4.86,4.86,0,0,0,2.85.48"/><path class="cls-9" d="M263.32,206.34s-6,.27-10.11,7.84c-1.24,2.31.93,4.56,4.17,4"/><path class="cls-9" d="M252.1,198.6a20,20,0,0,0-9.56,9.42"/><path class="cls-7" d="M352,117.63s4.35-.77,5.36,1.8"/><path class="cls-7" d="M338.6,118.48s-4,.06-5.27,2.76"/><path class="cls-20" d="M368.57,125.76l7.51-9.66h-9.24S369.47,116.1,368.57,125.76Z"/><path class="cls-20" d="M368,116.88c-.5-1.94-17-3-25.16-3s-13,2.08-14.87,3-3.22,14,4,17,8.3-4.62,8.3-4.62.74-3.87,2.48-3.87,2.11,9.18,9.79,9.18A53.32,53.32,0,0,0,368,131.76S369.34,122.29,368,116.88Z"/><path class="cls-2" d="M368,116.88c-.5-1.94-17-3-25.16-3s-13,2.08-14.87,3-3.31,14.33,4,17,8.3-4.62,8.3-4.62.74-3.87,2.48-3.87,2.11,9.18,9.79,9.18a52.28,52.28,0,0,0,14.49-2.45,1.81,1.81,0,0,0,1.16-1.57C368.43,127.78,369,121.1,368,116.88Z"/><path class="cls-9" d="M328.57,120.93s-.48,9.54,3,12.77"/><path class="cls-9" d="M366.07,118.66s.93,13.38-.78,13.92"/><path class="cls-1" d="M338.76,116.07s1.16-.15,2.91-.28,4.09-.18,6.43-.1c1.17,0,2.34.1,3.43.2s2.11.21,3,.35c1.74.25,2.88.53,2.88.53a.23.23,0,0,1,.17.28.23.23,0,0,1-.23.18s-1.17-.05-2.9-.18c-.87-.05-1.88-.12-3-.2l-3.4-.2c-1.16-.06-2.32-.09-3.4-.12s-2.1-.05-3-.05l-2.91,0a.2.2,0,0,1-.19-.2A.2.2,0,0,1,338.76,116.07Z"/><path class="cls-1" d="M364.26,125.76a5.88,5.88,0,0,1,.14,1.19,11.08,11.08,0,0,1,0,1.18c0,.39-.08.78-.15,1.17,0,.19-.06.39-.11.58l-.08.3a1.59,1.59,0,0,1,0,.16l0,.08-.08.16.06-.14a1.4,1.4,0,0,1-.4.68,1.38,1.38,0,0,1-.66.32,4.52,4.52,0,0,1-1.13,0h0a.11.11,0,0,1-.07-.2,2,2,0,0,1,.55-.27,3.55,3.55,0,0,0,.46-.2.64.64,0,0,0,.37-.52l.06-.14,0,0v-.06l0-.12.05-.27c0-.19.08-.37.12-.56.07-.37.16-.75.24-1.12s.18-.75.28-1.12l.3-1.12a.1.1,0,0,1,.12-.07A.1.1,0,0,1,364.26,125.76Z"/><path class="cls-1" d="M358.77,116.89a1.45,1.45,0,0,1,.25-.28,1,1,0,0,1,.52-.25.46.46,0,0,1,.49.19,1.33,1.33,0,0,1,.2.38,1.23,1.23,0,0,1-.06.91,1.33,1.33,0,0,1-.25.35.46.46,0,0,1-.51.12,1,1,0,0,1-.48-.32,1.44,1.44,0,0,1-.21-.32A.82.82,0,0,1,358.77,116.89Z"/><path class="cls-1" d="M361.09,117.05a1.47,1.47,0,0,1,.21-.1,1.37,1.37,0,0,1,.44-.05.59.59,0,0,1,.42.12.56.56,0,0,1,.17.17.45.45,0,0,1-.08.57.56.56,0,0,1-.21.11.59.59,0,0,1-.44,0,1.37,1.37,0,0,1-.41-.17,1.48,1.48,0,0,1-.18-.15.31.31,0,0,1,0-.44Z"/><path class="cls-1" d="M334.84,131.83a1.68,1.68,0,0,1,.2-.37.91.91,0,0,1,.47-.36.4.4,0,0,1,.26,0,.59.59,0,0,1,.24.18,1.75,1.75,0,0,1,.25.43.73.73,0,0,1,0,.46,1.76,1.76,0,0,1-.19.46.59.59,0,0,1-.21.21.4.4,0,0,1-.26,0,.91.91,0,0,1-.51-.29,1.68,1.68,0,0,1-.25-.34A.48.48,0,0,1,334.84,131.83Z"/><path class="cls-1" d="M333.29,132.08A1.73,1.73,0,0,1,333,132a2.28,2.28,0,0,1-.75-.44,4.22,4.22,0,0,1-.4-.41,3.64,3.64,0,0,1-.39-.5,7,7,0,0,1-.63-1.2,7.46,7.46,0,0,1-.57-2.42,3.91,3.91,0,0,1,.09-1.15.13.13,0,0,1,.16-.1.14.14,0,0,1,.09.07,10,10,0,0,1,.43,1c.23.61.45,1.43.71,2.24.12.4.27.8.41,1.16a4.53,4.53,0,0,0,.48.94,2.14,2.14,0,0,0,.52.51,1.62,1.62,0,0,0,.25.15.11.11,0,0,1-.06.2Z"/><path class="cls-1" d="M340.53,123.37a4.92,4.92,0,0,1,.14-.61,3.56,3.56,0,0,1,.7-1.27,2.11,2.11,0,0,1,.7-.52,1.6,1.6,0,0,1,.79-.13,1.1,1.1,0,0,1,.71.34.23.23,0,1,1-.21.4,1.27,1.27,0,0,0-.46.08,2,2,0,0,0-.39.19,2.45,2.45,0,0,0-.43.32,8,8,0,0,0-.79.91c-.23.28-.4.46-.4.46a.2.2,0,0,1-.35-.16Z"/><path class="cls-21" d="M368.57,125.76l7.51-9.66h-9.24S369.47,116.1,368.57,125.76Z"/><path class="cls-7" d="M342.91,130.56q-3,.47-6,1.06a3.8,3.8,0,0,0-1.49.53,2.39,2.39,0,0,0-.39,3.19,3.89,3.89,0,0,0,3.1,1.5,11.51,11.51,0,0,0,3.5-.6"/><path class="cls-14" d="M322.05,97.66s-1.56-10.56,5.37-10.56V98Z"/><path class="cls-14" d="M386.63,110.43a10,10,0,0,0,0-1.73c-.19-5.39-15.09-7.79-18.41-8.19s-8.21-.26-14.5-.09-15.46-.05-21.84.17c-5.65.2-12.77.66-13.28,1.65-1.28-.69-1.89-1-1.22-1.57A64.26,64.26,0,0,1,326,95.89s-3.22-22,17.48-27.37c0,0,1.65-4.86,4.42-4.95s10.41-.79,19.8,5.49,16.59,11.15,17.51,31.37L387,101l.18,5.33s.76.51.79,1A4.43,4.43,0,0,1,386.63,110.43Z"/><path class="cls-2" d="M372.27,98l-.17-5a1.78,1.78,0,0,0-1.44-1.68L365,90.25a1.78,1.78,0,0,0-1.94,1l-2,4.09c-23.59-4.08-35,.58-35,.58"/><path class="cls-9" d="M376.24,101.6s1.49-3.09-12.14-5.65"/><path class="cls-2" d="M378.55,102.72l-.12-3.37a.86.86,0,0,1,1.13-.84l5.69,1.92.19,5.32"/><rect class="cls-3" x="142.5" y="42.02" width="81.31" height="515.42"/><polygon class="cls-22" points="223.81 277.29 278.06 304.72 278.06 557.45 223.81 557.45 223.81 277.29"/><rect class="cls-4" x="223.81" y="57.93" width="4.91" height="14.91"/><rect class="cls-4" x="223.81" y="83.62" width="4.91" height="14.91"/><rect class="cls-23" x="223.81" y="109.31" width="4.91" height="14.91"/><line class="cls-9" x1="225.04" y1="143.87" x2="231.74" y2="150.57"/><line class="cls-9" x1="225.04" y1="162.34" x2="231.74" y2="169.05"/><rect class="cls-24" x="232.28" y="454.57" width="36.78" height="57.98" rx="6.25" ry="6.25"/><rect class="cls-25" x="255.83" y="476.12" width="10.11" height="14.88"/><rect class="cls-24" x="142.5" y="557.45" width="12.06" height="12.06"/><rect class="cls-24" x="211.75" y="557.45" width="24.35" height="12.06"/><rect class="cls-24" x="266.13" y="557.45" width="12.06" height="12.06"/><circle class="cls-26" cx="180.96" cy="86.41" r="13.08"/><circle class="cls-2" cx="180.96" cy="86.41" r="16.56"/><circle class="cls-26" cx="180.96" cy="129.73" r="13.08"/><circle class="cls-2" cx="180.96" cy="129.73" r="16.56"/><rect class="cls-2" x="164.4" y="35.99" width="35.42" height="6.03"/><path class="cls-6" d="M195.3,17V36H168.93V17a13.18,13.18,0,0,1,26.37,0Z"/><line class="cls-27" x1="347.58" y1="177.28" x2="346.65" y2="158.23"/><path class="cls-1" d="M368.77,73.53a5.94,5.94,0,0,1,.62.2,10.61,10.61,0,0,1,1.61.76A12.75,12.75,0,0,1,373,76a16.54,16.54,0,0,1,2,2.08c.27.36.57.77.84,1.15s.5.78.73,1.17c.45.77.83,1.5,1.14,2.13.6,1.27.94,2.14.94,2.14h0a.5.5,0,0,1-.88.47l-.36-.53-.92-1.4-1.28-2-.74-1.07c-.26-.36-.51-.7-.81-1.07a21.6,21.6,0,0,0-1.71-1.94,18.27,18.27,0,0,0-1.69-1.49,13.68,13.68,0,0,0-1.31-.9l-.54-.32a.5.5,0,0,1,.37-.92Z"/><path class="cls-1" d="M332.74,97.5s1.32-.1,3.31-.17c1,0,2.15-.09,3.39-.1s2.56-.07,3.89-.07c2.65,0,5.29,0,7.28,0l3.31,0a.5.5,0,0,1,0,1s-1.32.14-3.31.28l-3.4.18-3.9.1c-1.33,0-2.65,0-3.9,0s-2.41,0-3.4-.06c-2-.06-3.32-.16-3.32-.16a.5.5,0,0,1,0-1Z"/><path class="cls-1" d="M369.36,92.41h.27a1.23,1.23,0,0,1,.59.22,1.78,1.78,0,0,1,.49.6,2.43,2.43,0,0,1,.21.69,2.72,2.72,0,0,1,0,1.18,1.8,1.8,0,0,1-.2.48.55.55,0,0,1-1-.09l0,0a1.55,1.55,0,0,1-.1-.45,2.56,2.56,0,0,1,0-.43c0-.15,0-.31,0-.46a2.9,2.9,0,0,0-.1-.57v-.08s0,0,0,0,0,0,0,0a.5.5,0,1,1-.08-1Z"/><path class="cls-1" d="M348.8,65.19a17.36,17.36,0,0,1,2.08-.25c.63,0,1.36-.06,2.14,0a24.32,24.32,0,0,1,2.46.18,19.65,19.65,0,0,1,2.44.45,10.65,10.65,0,0,1,1.1.31c.34.12.68.21,1,.34a10.77,10.77,0,0,1,1.4.64l.51.28a.5.5,0,0,1-.41.91h0l-.52-.19c-.32-.14-.8-.28-1.36-.47-.28-.1-.6-.18-.93-.27s-.68-.18-1-.27c-.73-.18-1.52-.33-2.31-.47-1.59-.27-3.2-.45-4.42-.53s-2-.12-2-.12a.24.24,0,0,1-.24-.25A.25.25,0,0,1,348.8,65.19Z"/><path class="cls-9" d="M348.2,69.32s11-3.8,19.55-.26"/><circle class="cls-28" cx="370.9" cy="208.52" r="9.52"/><path class="cls-1" d="M220.43,46.62s.13,4,.23,10c0,3,.12,6.48.12,10.22s0,7.73,0,11.71,0,8-.05,11.71-.09,7.23-.12,10.22-.11,5.48-.14,7.23l-.08,2.74a.6.6,0,0,1-1.2,0l-.08-2.74c0-1.74-.08-4.24-.14-7.23s-.08-6.48-.12-10.22,0-7.73-.05-11.71,0-8,0-11.71.09-7.23.12-10.22c.1-6,.23-10,.23-10a.6.6,0,0,1,1.2,0Z"/><path class="cls-1" d="M186.25,8.79a2.58,2.58,0,0,1,.61,0,4.06,4.06,0,0,1,1.49.39,4.56,4.56,0,0,1,.88.52,6.16,6.16,0,0,1,.85.76,7.23,7.23,0,0,1,.71,1,6.39,6.39,0,0,1,.53,1.09,6,6,0,0,1,.35,1.13,6,6,0,0,1,.17,1.11,7.17,7.17,0,0,1,0,1c0,.33-.06.63-.09.91a4.33,4.33,0,0,1-.15.76c-.05.22-.12.42-.17.57a5.25,5.25,0,0,1-.19.49.55.55,0,0,1-1,0l0,0s-.09-.17-.22-.46-.27-.7-.46-1.16c-.09-.23-.2-.48-.28-.75s-.21-.52-.3-.8-.2-.55-.31-.82a8.49,8.49,0,0,0-.33-.81c-.11-.27-.24-.52-.35-.76s-.25-.47-.35-.72-.24-.45-.37-.64l-.36-.59-.35-.5-.3-.39a4.16,4.16,0,0,0-.28-.35.5.5,0,1,1,.24-1Z"/><path d="M354.58,147.06a9.23,9.23,0,0,1-6.07,2c-1.29-.08-1.28,1.92,0,2a11.31,11.31,0,0,0,7.48-2.61C357,147.65,355.57,146.25,354.58,147.06Z"/></g></g></svg>