<svg xmlns="http://www.w3.org/2000/svg" viewBox="0 0 510 576.03"><defs><style>.cls-1{isolation:isolate;}.cls-19,.cls-2{fill:#fff;}.cls-10,.cls-11,.cls-13,.cls-14,.cls-17,.cls-18,.cls-19,.cls-20,.cls-22,.cls-23,.cls-24,.cls-25,.cls-3,.cls-5,.cls-6,.cls-7{stroke:#000;}.cls-11,.cls-13,.cls-14,.cls-17,.cls-18,.cls-20,.cls-22,.cls-23,.cls-24,.cls-3,.cls-5{stroke-miterlimit:10;}.cls-10,.cls-11,.cls-13,.cls-14,.cls-18,.cls-19,.cls-20,.cls-22,.cls-23,.cls-24,.cls-25,.cls-3,.cls-5,.cls-6,.cls-7{stroke-width:2px;}.cls-4,.cls-6{fill:#b3b3b3;}.cls-20,.cls-22,.cls-23,.cls-24,.cls-25,.cls-5,.cls-7{fill:none;}.cls-11,.cls-14,.cls-19,.cls-22,.cls-23,.cls-24,.cls-5,.cls-6,.cls-7{stroke-linecap:round;}.cls-10,.cls-19,.cls-25,.cls-6,.cls-7{stroke-linejoin:round;}.cls-8{fill:#718e52;}.cls-9{fill:#25252f;}.cls-10,.cls-13,.cls-14{fill:#42506d;}.cls-11{fill:#e67551;}.cls-12,.cls-17,.cls-18{fill:#f8c5a4;}.cls-15{mix-blend-mode:multiply;}.cls-16{fill:#e6e6e6;}.cls-17{stroke-width:1.9px;}.cls-21{fill:#ccc;}.cls-22{stroke-dasharray:0 3.44;}.cls-23{stroke-dasharray:0 3.44;}.cls-24{stroke-dasharray:0 3.83;}</style></defs><title>home-guess</title><g class="cls-1"><g id="Layer_2" data-name="Layer 2"><g id="thum-frames"><rect class="cls-2" width="510" height="576.03"/></g><g id="thums"><path class="cls-3" d="M273.15,49.58s2.76,2.55,3.57,20.06"/><path class="cls-4" d="M336.38,483c-.11.52-.72.86-.82,1.39l-.39,1.87c-.12.61.19,1.31.06,1.93s-.69,1.24-.83,1.92c-2.09,10.37-4.36,21.62-6.21,30.76-.12.61.18,1.37.06,2s-.69,1.18-.82,1.83c-.18.86-.18.89-.34,1.69-.11.52,0,1.91-.11,2.39s-.71,1.66-.81,2.16c-1.15,5.66-1.72,8.5-1.72,8.5s-9.53,28.56-69,28.56-70.86-25.13-70.86-25.13l-1.68-8.48c-.13-.61-.8-1.27-.93-1.93s.29-1.22.16-1.86c-.16-.87-.35-1.77-.53-2.71-.14-.69-.7-1.42-.84-2.16-.18-.89.06-1.79-.13-2.73-2-9.84-4.37-21.93-6.59-32.89-.13-.64-.72-1.12-.84-1.75s.2-1.45.07-2.09c-.22-1.09-.43-2.16-.64-3.21-.13-.62-.57-1.15-.69-1.76-.18-.84,0-1.75-.19-2.57-2.14-10.5-3.36-16.65-3.65-17.35,4.1,4.1,19.39,11.67,86.6,11.41,63.44-.23,85.71-10.1,85.71-10.1-.19.94-1.89,6.75-4.17,18.12C336.14,481.49,336.51,482.36,336.38,483Z"/><path class="cls-4" d="M340.46,462.71s-22.27,9.86-85.71,10.1c-67.22.26-82.5-7.31-86.6-11.41a5.17,5.17,0,0,1-.13-6.54c8.48-12.65,75.5-12.79,85.78-12.79,0,0,86.8.29,89.15,15.81C343.27,460,343.14,461.54,340.46,462.71Z"/><path class="cls-5" d="M340.46,462.72c-.19.93-1.88,6.75-4.18,18.11-.13.66.23,1.52.09,2.2-.11.52-.71.86-.82,1.4l-.38,1.88c-.12.61.18,1.31.05,1.93s-.7,1.25-.83,1.93l-6.21,30.75c-.12.62.18,1.37.06,2s-.69,1.18-.82,1.82l-.34,1.7c-.1.51,0,1.91-.11,2.39s-.71,1.66-.81,2.15l-1.72,8.51s-9.54,28.55-69,28.55-70.87-25.13-70.87-25.13l-1.68-8.48c-.12-.62-.79-1.26-.92-1.93s.3-1.22.17-1.86l-.54-2.71c-.14-.7-.69-1.42-.84-2.15-.18-.89.06-1.79-.13-2.73-2-9.84-4.37-21.93-6.58-32.9-.13-.64-.71-1.12-.84-1.75s.2-1.45.07-2.09l-.65-3.2c-.13-.62-.57-1.15-.69-1.76-.17-.85,0-1.75-.19-2.57-2.14-10.5-3.36-16.65-3.64-17.35"/><path class="cls-6" d="M204.73,474l-16.26-1.18s-5.5,0-5.33,11.35c.09,6.31,5.5,11.43,16.19,12.67s15.61-.61,15.51-8S211.1,473.9,204.73,474Zm-5.32,19.41c-8.39-.64-13-4.25-13.09-9.29-.11-7.27,2.76-8,3.72-8.6l16.13,2.31s4.85,1.83,5,10.74C211.24,495,207.39,494,199.41,493.41Z"/><path class="cls-6" d="M190.42,469.6c0,2.28-2.14,1.63-2.1,4.3,0,1.27,1.8,1.75,3.33,2s14.51,1.94,14.51,1.94a3.34,3.34,0,0,1-1.69-2.77c0-1.9,1.63-1.34,1.6-3.41A154.32,154.32,0,0,1,190.42,469.6Z"/><path class="cls-7" d="M342.95,457.89c.32,2.14.19,3.66-2.49,4.83,0,0-22.27,9.85-85.71,10.1-67.22.26-82.5-7.31-86.6-11.41a5.17,5.17,0,0,1-.13-6.54c8.48-12.65,75.5-12.79,85.78-12.79C253.8,442.07,340.6,442.37,342.95,457.89Z"/><path class="cls-5" d="M318.72,535.83s-18.67,19.23-70.29,17.32"/><path class="cls-5" d="M296.43,543.06s-37.41,13.52-85.28,0"/><path class="cls-5" d="M327.29,494.85S286.91,518.5,192.8,500"/><path class="cls-7" d="M340.6,458.62c.73-1.74,1.11-14.2-86.33-14.2s-84.62,11.1-83.79,13.47"/><path class="cls-8" d="M256.32,337.59c.32,5.67,1.89,13.47,3.12,19,1.45,6.52,3.29,10.69,4.32,17.29l3,19.12c1,6.67,3.4,19.19,3.92,25.92.61,7.84-.81,9.88-1,17.74-.57,19.47.41,12.57-1.58,32,0,0,13.93.22,21.15-.56s13.4-1.91,13.4-1.91c3.3-34.68,5.41-137.82,6-172.66H203.34c-.52,44.08.73,132.59.94,172.72,0,0,5,.61,13.08,1.5,8.48.94,21.24,0,21.24,0-.28-23.07-.47-14.09.8-37.13A190.48,190.48,0,0,1,242,405.76c1.36-7.24,3.47-16.55,4-23.89,1.58-20.86,11.5-43.75,10.88-62.07"/><path class="cls-5" d="M238.6,467.74c-.28-23.07-.47-14.09.8-37.13A190.48,190.48,0,0,1,242,405.76c1.36-7.24,3.47-16.55,4-23.89,1.58-20.86,11.5-43.75,10.88-62.07"/><path class="cls-5" d="M203.34,293.51c-.52,44.08.73,132.59.94,172.72"/><path class="cls-5" d="M302.62,466.16c3.3-34.68,5.41-137.82,6-172.66"/><path class="cls-5" d="M255,336.66c.32,5.67,3.2,14.4,4.43,19.95,1.45,6.52,3.29,10.69,4.32,17.29l3,19.12c1,6.67,3.4,19.19,3.92,25.92.61,7.84-.81,9.88-1,17.74-.57,19.47.41,12.57-1.58,32"/><path class="cls-5" d="M289.54,397.1c1.05,31.69,2.17,38.3-.32,69.9"/><path class="cls-5" d="M212,395.51c-.53,31.42-.47,40.09.43,71.5"/><path class="cls-5" d="M238.6,447.66c-3.89-5.66-9.17-12.87-11.64-19.28-.36-.94-.49-2.34.48-2.61.65-.18,1.27.38,1.68.92,1.12,1.46,4.81,6.76,5.32,8.52"/><path class="cls-5" d="M256.89,343.93a40.89,40.89,0,0,0,9,12.3"/><path class="cls-5" d="M272.57,439.45a17.38,17.38,0,0,0,8.1-10.7"/><path class="cls-5" d="M270.82,423.85a8,8,0,0,0,5.8-3.9"/><path class="cls-9" d="M284.34,122.23c-.64,5-2.54,9.81-4.25,14.6C268.23,170.1,265.48,206,266.2,241.3c.35,17.14,1.49,34.24,2.73,51.34-6.92.67-16.48-.5-23.55-.06q.86-21.11,1.71-42.21l.08-.27c.25-18.79.5-37.66-2.05-56.28-.65-4.75-1.48-9.46-2.31-14.18q-1.48-8.42-3-16.84c-1.06-6-2.12-12-3.59-18-1.82-7.36-4.28-14.61-5-22.15s.39-15.64,5.1-21.59l40.23.75C282.34,107,285,117.19,284.34,122.23Z"/><path class="cls-10" d="M236.31,101.08c-4.7,6-5.85,14-5.09,21.59s3.22,14.8,5,22.15c1.47,5.93,2.53,12,3.59,18l3,16.84c.83,4.72,1.66,9.43,2.31,14.18,2.55,18.62,2.3,37.49,2.05,56.28l-.07.27-6,148.49.11.2-19.36-.92c-6.29-.3-12.72-.63-18.57-2.95a4.29,4.29,0,0,1-2.19-1.51,4.58,4.58,0,0,1-.5-2.14,291.85,291.85,0,0,1-.07-38.47c.19-3,.43-5.94.62-8.91a285.56,285.56,0,0,0-.12-38.22v.6a111.77,111.77,0,0,1-21.3,0,4.35,4.35,0,0,1-2.36-.7c-1.15-.91-1.1-2.64-.94-4.1l.74-7-.09-.42a494,494,0,0,1,3.77-87c.58-4.41,1.23-8.82,1.62-13.26.77-8.7.55-17.48,1.58-26.16s3.42-17.45,8.76-24.36h-.06c.52-2.73,1.18-5.59,3-7.67,2.29-2.56,6-3.45,8.39-5.89a2.56,2.56,0,0,0,.75-1.17,3.58,3.58,0,0,0-.36-1.92,9.37,9.37,0,0,1,1.43-8.7c1.66-2.13,4.15-3.41,6.56-4.63l15.3-7.74a6,6,0,0,0,1.92-1.31,7.33,7.33,0,0,0,1.13-2.43,16.76,16.76,0,0,1,7.07-8.67l34.55-1.68c3.57-.59,6,3.34,8.13,6.23a21.22,21.22,0,0,0,12.77,8c2.2.43,4.53.52,6.49,1.61,5.38,3,4.74,11.12,8.57,15.94,2.33,2.93,6.08,4.33,8.92,6.77,4.7,4,6.45,10.44,7.86,16.47,12,51.74,16.48,107.1,11.51,160,0,0,0,5.59-26.68-.71-.54,30.46.24,51.19-.36,81.65a11,11,0,0,1-.71,4.47c-1.28,2.75-4.51,3.92-7.44,4.69a98.72,98.72,0,0,1-28.75,3.14c.49-18.48-.47-32-.47-52.83-1.32-35.3-5.39-70.48-6.11-105.8s2-71.2,13.89-104.48c1.71-4.78,3.61-9.56,4.25-14.6s-2-15.21-7.8-20.4Z"/><path class="cls-11" d="M237.78,100.72c-3.47,4.77-3.8,11.2-2.59,17s3.75,11.17,5.59,16.77c5,15,4.82,31.24,8.08,46.74.47,2.25,1.66,5,4,4.92,2-.08,3.12-2.39,3.74-4.33q5.31-16.66,9.73-33.59c1.66-6.36,3.23-12.75,5.47-18.93,1.76-4.87,3.93-9.62,4.92-14.7s.66-10.67-2.26-14.94a9.62,9.62,0,0,0-3.67-3.32,13,13,0,0,0-4.77-1,57.37,57.37,0,0,0-28.28,5.39"/><path class="cls-7" d="M269,180.69q6.41-12.47,13-24.85a64.83,64.83,0,0,1,3.95-6.76c3.08-4.42,7.18-8,11.24-11.54l-3-2.16c.91-1.68,3.16-1.94,4.91-2.73a14.59,14.59,0,0,0,3.3-2.31l7-5.93"/><path class="cls-5" d="M276.54,101.83l7.32,5.07a6.66,6.66,0,0,1,1.83,1.64c.64.94.76,2.17,1.46,3.07,1,1.33,3,1.53,4.32,2.53,1.17.86,1.86,2.28,3.09,3.05,1.75,1.1,4.31.74,5.66,2.31"/><path class="cls-5" d="M295.9,128.9c2.51-1.7,4.24-1.66,5.23-4.53a29.92,29.92,0,0,0,1.37-8.95,14.46,14.46,0,0,0-.46-4.79,5.69,5.69,0,0,0-3-3.6"/><path class="cls-5" d="M283.61,128.9c1.6.76,2.55,2.4,3.48,3.9s2.11,3.07,3.84,3.46"/><path class="cls-5" d="M309.79,145.24c1.06,9.28,2.12,18.62,1.5,27.94-.38,5.77-1.41,11.53-1.08,17.3"/><path class="cls-5" d="M311.44,164.64c.39-8.39,8.11-13.2,8.17-21.6"/><path class="cls-7" d="M204.52,126.86c2.37,4.76,8.71,6.22,12.38,9.62l-2.12.9a175.26,175.26,0,0,1,17.56,20c4,5.33,7.77,11.06,9.16,17.56.61,2.83,1.33,6.79,2.1,9.22"/><path class="cls-5" d="M212.55,134.31a30.22,30.22,0,0,0,.84,10.45c.35,1.33,1,2.82,2.28,3.21a3.55,3.55,0,0,0,3-.81,5.66,5.66,0,0,0,2.43-3.53"/><path class="cls-5" d="M295.05,136.57a41.34,41.34,0,0,0,2.33,12.92,5.21,5.21,0,0,0,1,1.84,1.93,1.93,0,0,0,1.88.65,2.34,2.34,0,0,0,1.25-1.13,11.19,11.19,0,0,0,1.14-5.83,75.06,75.06,0,0,0-1.5-14.92"/><path class="cls-5" d="M261.39,119.8a6.12,6.12,0,0,1,6.35,2.89,21.69,21.69,0,0,1,2.4,10.06"/><path class="cls-5" d="M252.22,186.07c-.32-5.92-.14-11.2,0-17.13l.23-9.63c.08-3.12.15-6.24.46-9.34.78-7.75,1.77-9.77,3.38-17.39"/><path class="cls-5" d="M246.9,119.32c-1.3.24-2.36,1.51-3.08,2.61a9.81,9.81,0,0,0-1.19,4c-.41,2.73-1.43,5.83-1.85,8.56"/><path class="cls-5" d="M256.29,186.12c2-4.15,3.85-8.27,5.39-12,1.29-3.11,2.29-6.33,3.47-9.49,1.48-4,3.25-7.82,5-11.68,3.25-7.1,6.52-14.23,10.94-20.67"/><path class="cls-5" d="M249.28,186.43a87.54,87.54,0,0,0-7.8-14"/><path class="cls-7" d="M233.2,105.45a29.67,29.67,0,0,1-7.07,6.29,18.63,18.63,0,0,0-2.73,1.9c-1.37,1.26-2.19,3-3.55,4.29-2,1.91-5,2.53-7.06,4.43-.63.59-1.16,1.29-1.77,1.91a9.54,9.54,0,0,1-3.31,2.19"/><path class="cls-7" d="M213.07,128.54l6.1,4.2"/><circle class="cls-2" cx="257.11" cy="149.86" r="1.22"/><circle class="cls-2" cx="260.81" cy="128.9" r="1.22"/><circle class="cls-2" cx="255.85" cy="170.18" r="1.19"/><circle cx="242.88" cy="206.7" r="1.19"/><circle cx="222.46" cy="138.6" r="1.19"/><circle cx="289.22" cy="139.36" r="1.19"/><circle cx="240.78" cy="275.25" r="1.19"/><circle cx="238.41" cy="345.83" r="1.19"/><circle cx="242.88" cy="241.86" r="1.19"/><circle cx="239.59" cy="310.89" r="1.19"/><rect class="cls-5" x="290.09" y="247.99" width="19.54" height="13.69"/><rect class="cls-5" x="203.3" y="247.99" width="19.54" height="13.69"/><path class="cls-5" d="M268.93,292.65c-6.92.67-16.48-.5-23.55-.06"/><path class="cls-12" d="M334,302.56l-25.53-1.24c-.79,6.06-2.23,21.27,1.08,22s2.31-8.35,2.6-10.65c.18-1.51-.1-5.58,2-5.35s2,5.26,2,7c-.1,2.92-.26,6.77-1.18,9.53a10.26,10.26,0,0,1-5.55,6.45c-1.19.46-2.73.89-2.91,2.14a1.93,1.93,0,0,0,1.32,1.95,4.15,4.15,0,0,0,2.5-.05,9.32,9.32,0,0,0,1.58-.59l-.12.17a2.67,2.67,0,0,0,2.3,2.72c1.64.18,3.39-1.28,5-3.57-.19,1.66.69,2.13,1.7,2.19,1.75.1,3.71-2.43,5.24-6l0,.07c1.35,1.65,2.86,1.13,3.71-.3a16.82,16.82,0,0,0,1.81-5.53A140,140,0,0,0,334,302.56ZM319,333"/><path class="cls-7" d="M311.68,333.92a2.67,2.67,0,0,0,2.3,2.72c4.9.55,10.88-13.63,10.56-20.71"/><path class="cls-7" d="M319,333.07c-.19,1.66.69,2.13,1.7,2.19,3.67.21,8.15-11,8-18.86"/><path class="cls-7" d="M308.36,301.94c-.79,6.06-2.15,20.64,1.16,21.33s2.31-8.35,2.59-10.65c.18-1.5-.09-5.58,2-5.35s2,5.26,2,7c-.1,2.92-.25,6.76-1.19,9.54a10.22,10.22,0,0,1-5.55,6.44c-1.18.47-2.73.89-2.91,2.15a1.92,1.92,0,0,0,1.32,1.94,4.11,4.11,0,0,0,2.5,0c3.71-1,6.54-4.16,8.1-7.68s2-7.41,2.33-11.23"/><path class="cls-7" d="M326,329.38c1.35,1.65,2.86,1.13,3.71-.3a16.93,16.93,0,0,0,1.81-5.53,128.28,128.28,0,0,0,2.34-20.12"/><path class="cls-12" d="M180.33,323.55a16.82,16.82,0,0,0,1.81,5.53c.85,1.43,2.36,2,3.71.3l0-.07c1.54,3.52,3.49,6.05,5.24,6,1-.06,1.88-.53,1.7-2.19,1.61,2.29,3.36,3.75,5,3.57a2.67,2.67,0,0,0,2.3-2.72l-.12-.17a9.32,9.32,0,0,0,1.58.59,4.15,4.15,0,0,0,2.5.05,1.93,1.93,0,0,0,1.32-1.95c-.18-1.25-1.72-1.68-2.91-2.14a10.26,10.26,0,0,1-5.55-6.45c-.92-2.77-1.08-6.61-1.18-9.53-.06-1.78-.07-6.81,2-7s1.78,3.84,2,5.35c.28,2.29-.71,11.34,2.6,10.65s1.87-15.9,1.08-22l-25.53,1.24A140,140,0,0,0,180.33,323.55ZM192.79,333"/><path class="cls-7" d="M200.13,333.92a2.67,2.67,0,0,1-2.3,2.72c-4.9.55-10.88-13.63-10.56-20.71"/><path class="cls-7" d="M192.83,333.07c.19,1.66-.69,2.13-1.7,2.19-3.67.21-8.15-11-8-18.86"/><path class="cls-7" d="M203.45,301.94c.79,6.06,2.15,20.64-1.16,21.33s-2.31-8.35-2.59-10.65c-.18-1.5.09-5.58-2-5.35s-2,5.26-2,7c.1,2.92.25,6.76,1.19,9.54a10.22,10.22,0,0,0,5.55,6.44c1.18.47,2.73.89,2.91,2.15a1.92,1.92,0,0,1-1.32,1.94,4.11,4.11,0,0,1-2.5,0c-3.71-1-6.54-4.16-8.1-7.68s-2-7.41-2.33-11.23"/><path class="cls-7" d="M185.86,329.38c-1.35,1.65-2.86,1.13-3.71-.3a16.93,16.93,0,0,1-1.81-5.53A128.28,128.28,0,0,1,178,303.43"/><path class="cls-13" d="M336.44,307.39c0-1.15-1.4-1.69-2.54-1.92-9.22-1.85-16-4-24.71-1.75a1,1,0,0,1-1.28-1.1c.86-8.13,1.82-31.08,1.72-38.36-.33-24.63,1.15-47.93.58-73.78"/><path class="cls-5" d="M310.27,231.86A107.52,107.52,0,0,0,328.64,226"/><path class="cls-5" d="M310.64,235.68a18.49,18.49,0,0,0,9.17.3"/><path class="cls-14" d="M176.64,304.26c5.91-2.64,11.71-1.48,18.1-1,2.41.18,6.62,0,9.3.09-.24-9.43-1.85-16.26-1.59-24.46,1.38-42.61,1.48-85.21,2.87-127.82"/><path class="cls-5" d="M203.3,237.66a47.65,47.65,0,0,1-12.12-8.76"/><path class="cls-5" d="M188.44,236.38A25.21,25.21,0,0,0,203,242.3"/><path class="cls-7" d="M197.24,148.63a43.22,43.22,0,0,0,7.23,18.23"/><g class="cls-15"><path class="cls-16" d="M329.22,246.69l-.28.37a5,5,0,0,0-.47,1,7.72,7.72,0,0,0,.15,4.22c.23.87.61,1.83,1,2.88a16.5,16.5,0,0,1,1,3.54,8.61,8.61,0,0,1,0,2.08,10.76,10.76,0,0,1-.43,2,16.21,16.21,0,0,0-.87,3.51,11.18,11.18,0,0,0,.53,3.47,14.62,14.62,0,0,1,.64,3.88,14.35,14.35,0,0,1-.54,3.69c-.29,1.11-.6,2.11-.85,3a24.11,24.11,0,0,0-.58,2.48,9.59,9.59,0,0,0-.14,1.9,7.51,7.51,0,0,0,.15,1.2l.09.42v.06a.5.5,0,0,1-1,.26l-.16-.47a7,7,0,0,1-.32-1.37,14.22,14.22,0,0,1,.39-4.87c.21-1,.47-2,.68-3a15.16,15.16,0,0,0,.34-3.22,13.75,13.75,0,0,0-.66-3.45,13,13,0,0,1-.63-4.11,17.53,17.53,0,0,1,1-4,7.41,7.41,0,0,0,.4-3.27,18,18,0,0,0-.76-3.21c-.33-1.05-.67-2.07-.88-3.08a8.56,8.56,0,0,1,.27-5,5.13,5.13,0,0,1,.78-1.28l.32-.34a.5.5,0,0,1,.76.65Z"/></g><g class="cls-15"><path class="cls-16" d="M220.71,189l-.11.37a8.53,8.53,0,0,0-.22,1,11.46,11.46,0,0,0,.06,3.65,32.75,32.75,0,0,0,1.37,5.16,31.14,31.14,0,0,1,1.58,6.31,12.58,12.58,0,0,1-.07,3.48c0,.28-.11.6-.18.84s-.16.58-.25.83c-.18.53-.38,1-.59,1.52-.88,1.92-1.82,3.49-2.32,4.92a10.33,10.33,0,0,0-.51,2,6.23,6.23,0,0,0,0,1.54,5.44,5.44,0,0,0,.18,1l.11.33,0,0a.5.5,0,0,1-.92.38l-.19-.38a5.5,5.5,0,0,1-.38-1.14,9,9,0,0,1,.2-4.18,46.72,46.72,0,0,1,2.05-5.21c.18-.45.34-.9.48-1.36.07-.24.12-.44.18-.67s.09-.47.13-.72a10.89,10.89,0,0,0,0-2.93,38.9,38.9,0,0,0-1.42-6,26,26,0,0,1-1.11-5.57,11.39,11.39,0,0,1,.41-4.11,6.73,6.73,0,0,1,.42-1.09l.17-.35a.5.5,0,0,1,.93.36Z"/></g><g class="cls-15"><path class="cls-16" d="M290.48,171.3l.13.53c.08.35.23.84.33,1.5s.24,1.47.37,2.39.22,2,.28,3.1c.13,2.27.16,4.91.33,7.69a37.1,37.1,0,0,0,1.26,8.47c.16.61.55,1.07.6,1h.09s-.06,0,0,0a.38.38,0,0,0,.14-.07,1.56,1.56,0,0,0,.42-.52,6.13,6.13,0,0,0,.52-1.78c.1-.65.15-1.34.19-2,.15-2.79.22-5.41.25-7.65s0-4.12,0-5.43l0-2.07a.33.33,0,0,1,.66-.06h0s.14.74.31,2.06.41,3.19.54,5.46.23,4.92.17,7.76a11,11,0,0,1-.85,4.68,3.53,3.53,0,0,1-1,1.2,2.42,2.42,0,0,1-.86.42,2.25,2.25,0,0,1-.58.07h-.21l-.26,0a2.51,2.51,0,0,1-1.47-1.11,5,5,0,0,1-.58-1.29,30.23,30.23,0,0,1-.9-4.56c-.16-1.51-.24-3-.27-4.42,0-2.86.09-5.48.09-7.72,0-1.12,0-2.14,0-3s-.08-1.69-.15-2.33-.12-1.16-.16-1.51l-.06-.54a.37.37,0,0,1,.72-.13Z"/></g><g class="cls-15"><path class="cls-16" d="M287,290.72l.27,1.54c.09.49.15,1.11.24,1.81s.13,1.49.21,2.36c.11,1.72.14,3.74.14,5.88s0,4.42,0,6.68c0,1.13,0,2.26.12,3.36s.17,2.18.3,3.22l.23,1.52.28,1.44c.08.47.22.91.32,1.35s.2.91.31,1.2a1.57,1.57,0,0,0,.14.3s.06.06,0,0l.12.1h0l0,0a.69.69,0,0,0,.51,0,1.07,1.07,0,0,0,.47-.34,2,2,0,0,0,.32-.54,5.81,5.81,0,0,0,.27-1l.08-.39h0a.5.5,0,0,1,1,.09v.42a5.58,5.58,0,0,1-.13,1.27,3.36,3.36,0,0,1-.38,1,2.52,2.52,0,0,1-1,.91,2.26,2.26,0,0,1-1.64.2l-.24-.09-.28-.15-.12-.08a2.09,2.09,0,0,1-.23-.21,2.5,2.5,0,0,1-.49-.78c-.21-.51-.29-.89-.43-1.36s-.28-.93-.37-1.42-.22-1-.31-1.52l-.23-1.6c-.12-1.09-.23-2.21-.28-3.35s-.08-2.29-.08-3.44c0-2.3.09-4.59.16-6.72l.07-3.07c0-1,0-1.89,0-2.74s0-1.63-.08-2.3-.07-1.27-.13-1.77l-.16-1.56a.5.5,0,0,1,1-.14Z"/></g><g class="cls-15"><path class="cls-16" d="M214.54,342l.24.4a12.39,12.39,0,0,1,.63,1.22,13.49,13.49,0,0,1,.73,2,14,14,0,0,1,.5,2.72,15.49,15.49,0,0,1-.89,6.84,29.52,29.52,0,0,0-1.12,3.46,8.76,8.76,0,0,0,0,3.52,17.3,17.3,0,0,0,1.14,3.5c.49,1.15,1.06,2.22,1.61,3.34a8.62,8.62,0,0,1,1,3.64,4.47,4.47,0,0,1-1.31,3.31,5.2,5.2,0,0,1-1.32.83,3.56,3.56,0,0,0-.91.56.93.93,0,0,0-.29.64c0,.27,0,.61,0,.95a1.67,1.67,0,0,1-.42,1,1.46,1.46,0,0,1-.73.46,1,1,0,0,1-.87-.18.44.44,0,0,1,.25-.76l.36,0s0,0,0,0a.6.6,0,0,0,.33-.55c0-.22,0-.52,0-.93a2.08,2.08,0,0,1,.57-1.34c.73-.75,1.68-1,2.19-1.5a3.31,3.31,0,0,0,.83-2.39,7.31,7.31,0,0,0-.92-3c-.53-1-1.17-2.17-1.71-3.36a17.26,17.26,0,0,1-1.29-3.81,10.35,10.35,0,0,1,0-4.14,30.44,30.44,0,0,1,1.15-3.66,14.82,14.82,0,0,0,.76-3.23,15.45,15.45,0,0,0,.1-3,17.42,17.42,0,0,0-.83-4.39c-.17-.52-.31-.89-.43-1.19l-.17-.43a.5.5,0,0,1,.89-.45Z"/></g><g class="cls-15"><path class="cls-16" d="M282,198.31l0,1.28c0,.4,0,.87.1,1.43s.11,1.18.19,1.86c.17,1.37.45,3,.71,4.7a51.48,51.48,0,0,1,.6,5.54,27.81,27.81,0,0,1,0,2.88l-.05.72-.07.68c-.06.47-.12.93-.21,1.37-.33,1.76-.71,3.34-.93,4.69a18.74,18.74,0,0,0-.35,3.26c0,.39,0,.7,0,.91l0,.32v0a.5.5,0,0,1-1,.11l-.06-.35c0-.23-.09-.56-.13-1a19.1,19.1,0,0,1,.07-3.5c.15-1.43.46-3,.68-4.75l.16-1.28.06-.68,0-.65a26,26,0,0,0,0-2.69c-.12-1.81-.37-3.64-.59-5.38l-.29-2.52c-.07-.81-.12-1.58-.16-2.29s-.06-1.37,0-2,.06-1.1.08-1.52c.08-.82.16-1.28.16-1.28v0a.5.5,0,0,1,1,.07Z"/></g><g class="cls-15"><path class="cls-16" d="M186.45,246.14l-.27.38c-.08.12-.21.27-.31.45s-.15.36-.25.57a6.73,6.73,0,0,0-.4,1.77,15.1,15.1,0,0,0,0,2.47c.09.92.22,1.92.44,3l.66,3.38c.24,1.18.45,2.43.6,3.72a17.37,17.37,0,0,1,0,4,34.09,34.09,0,0,1-.62,3.89c-.26,1.25-.56,2.47-.85,3.64-.6,2.33-1.16,4.48-1.54,6.34-.19.93-.38,1.78-.49,2.54s-.22,1.42-.28,2-.09,1-.12,1.27l0,.45v0a.5.5,0,0,1-1,0v-.47c0-.31,0-.76,0-1.33s0-1.27.12-2.06.15-1.68.31-2.64c.3-1.92.75-4.14,1.24-6.49.25-1.17.52-2.38.74-3.6a35.4,35.4,0,0,0,.54-3.66,17.77,17.77,0,0,0,0-3.63c-.13-1.21-.32-2.41-.51-3.6a49.46,49.46,0,0,1-.79-6.62c0-.5,0-1,0-1.45a13.22,13.22,0,0,1,.18-1.32,8,8,0,0,1,.71-2.1c.17-.29.32-.54.46-.75s.27-.3.38-.41l.31-.34a.5.5,0,0,1,.77.63Z"/></g><path class="cls-17" d="M231.1,68.8a7.45,7.45,0,0,0-4.07.67,2.56,2.56,0,0,0-1.46,2.64c.28,1.29,1.81,2.12,2.43,3.33.94,1.82-.38,3.9-.19,5.87a1.51,1.51,0,0,0,.27.81,2.08,2.08,0,0,0,1.25.62c1.16.23,2.63-.08,3-1"/><path class="cls-17" d="M237.58,95.17l-.26,6.49a22.39,22.39,0,0,0,8.8,17,22,22,0,0,1,4.09,3.34c3.75,4.59,2.69,7.21,6.08,10.61,0,0,1.19-9.24,3.14-11l2-1.77a19.5,19.5,0,0,0,4.74-4.69l2.7-3.37a24.3,24.3,0,0,0,3.65-5.51c.87-2,1.7-5.49.8-7.51l-.47-4.24Z"/><path class="cls-17" d="M277.79,68a5.84,5.84,0,0,1,3.2-.83,2.89,2.89,0,0,1,2,4.48A7,7,0,0,0,282,73a3.16,3.16,0,0,0-.11,1.24l.1,2.32a7.18,7.18,0,0,1-.14,2.25,2.43,2.43,0,0,1-1.39,1.68,1.49,1.49,0,0,1-1.89-.77"/><ellipse class="cls-18" cx="254.95" cy="72.58" rx="24.29" ry="32.31"/><path class="cls-3" d="M273.28,48.68s2.76,2.55,3.57,20.06a2.91,2.91,0,0,0,.47,1.74,1,1,0,0,0,1.57.08c.14-.22.15,5.21.16,4.94l.17-7.59a1.23,1.23,0,0,1,.15-.68c.43-.63,1.54,0,2.14-.51,0,0,4.22-3.57,4.23-8.35S280.25,45.8,273.28,48.68Z"/><path class="cls-5" d="M262.31,61.82a3.36,3.36,0,0,1,5.34,1.32"/><path class="cls-5" d="M245.23,61.67A4.63,4.63,0,0,0,241,64.47"/><path class="cls-5" d="M256.21,82.22q-4.5.13-9-.09a3,3,0,0,1-2.26-.78,1.86,1.86,0,0,1,.43-2.66c4.71-2.43,4.71-2.43,10.42-7.13"/><ellipse cx="265.48" cy="68.8" rx="1.38" ry="2.63"/><ellipse cx="244.13" cy="68.8" rx="1.38" ry="2.63"/><circle class="cls-19" cx="254.74" cy="90.27" r="2.26"/><path class="cls-7" d="M170.48,457.89c1,2.93,16.7,6.21,16.7,6.21,87.77,12.53,152.57-3.46,153.42-5.48"/><path class="cls-3" d="M242.35,45.76c-1.12,5.18-1.84,9.12-6.79,12.47-.56.38-4.48,12.35-5,11.56-.78-1.12-2.3,0-3.55.15,0,0-7.22-20,6.09-28.77a25.09,25.09,0,0,1,7.58-3.26c.62-2.48,5.1-7.44,15.51-8.39s20.9,4,23,10.3-6,12.46-6,12.46-3-5.64-7.81-7.92C265.34,44.36,251.4,51.5,242.35,45.76Z"/><path class="cls-20" d="M220.14,58.54l-4.23.46a13.74,13.74,0,0,1-5.18-.1,4.19,4.19,0,0,1-2.46-1.64,2.39,2.39,0,0,1,.09-2.81,3.35,3.35,0,0,1,.81-.61c2.67-1.57,5.94-2.29,8-4.61A14.26,14.26,0,0,0,219,46.38c.68-1.27,1.06-5,1.73-6.25"/><path class="cls-20" d="M285.27,39.58a12.67,12.67,0,0,0,3,3.4,12.91,12.91,0,0,0,3.36,1.6c1.69.58,3.48,1.11,4.74,2.38s1.7,3.55.41,4.78a4.64,4.64,0,0,1-2.27,1,34.45,34.45,0,0,1-7.92.77"/><path class="cls-20" d="M271.4,21.88c1.49-1.22,4.85-5.07,3-6.57s-4.51,3-5.46,5.05"/><path class="cls-20" d="M232.85,24.95c-1.8-1-5-4.27-3.06-5.85s5,2.55,5.84,3.61"/><path class="cls-21" d="M256.35,37.45c-9.24.25-20.06,1.53-29.46,7.21l1.06,18a9.52,9.52,0,0,1-9.06-6.4,13.31,13.31,0,0,1-.52-4.62,42.74,42.74,0,0,1,2.53-11.57,23.2,23.2,0,0,1,2.22-5.22,24.49,24.49,0,0,1,4.13-4.6l5.38-5.06a16.89,16.89,0,0,1,3.17-2.53,16.92,16.92,0,0,1,4.07-1.45l7.32-1.92a16.28,16.28,0,0,1,6-.79c3.82-.72,8.1.38,11.75,1.73a50.66,50.66,0,0,1,10.23,5.56,22.93,22.93,0,0,1,2.95,2.22,23.52,23.52,0,0,1,4.49,6.55c2.85,5.45,5.82,13.08,4.28,19a11.13,11.13,0,0,1-6,6.74c1.28-8.81-.26-10.79-1.71-16.87C273.83,41.07,265.59,37.21,256.35,37.45Z"/><ellipse class="cls-22" cx="235.08" cy="32.59" rx="8.18" ry="3.38" transform="translate(9.89 107.51) rotate(-26.29)"/><ellipse class="cls-23" cx="255.39" cy="26.62" rx="8.18" ry="3.38" transform="translate(-0.94 11.45) rotate(-2.56)"/><line class="cls-5" x1="277.88" y1="32.92" x2="277.88" y2="32.92"/><path class="cls-24" d="M274.2,31.88c-2.47-1-4-2.43-3.79-3.71.17-1,1.36-1.69,3.11-2"/><line class="cls-5" x1="275.43" y1="25.98" x2="275.43" y2="25.98"/><path class="cls-25" d="M279.13,43.52c2.71,6.09,1.71,16.87,1.71,16.87,6.82,0,6.73-8.54,6.73-8.54,1.54-6-1.36-12.41-4.21-17.87-1.23-2.36-7.43-15.43-30.37-15.43s-31.68,19.78-32.27,21.58a42.74,42.74,0,0,0-2.53,11.57,13.31,13.31,0,0,0,.52,4.62c1.22,3.77,4.22,6.5,8.18,6.4,0,0,.15-6.57,0-18"/><path class="cls-20" d="M287.92,49.29s-10.32-11.69-34-11.69S220,51.09,218.26,54.15"/><path class="cls-5" d="M287.48,53.19s-7.08,51.47-31.79,51.47c-28.72,0-35.81-52.81-35.81-52.81"/><path class="cls-20" d="M249.28,18.55a6,6,0,0,1-2.34-2.18,44,44,0,0,1-3.13-5c-.35-.65-.84-1.4-1.65-1.33a1.74,1.74,0,0,0-1.39,1.32,3.4,3.4,0,0,0,.18,1.84,19.58,19.58,0,0,0,3.53,6.61"/></g></g></g></svg>