<svg xmlns="http://www.w3.org/2000/svg" viewBox="0 0 510 576.03"><defs><style>.cls-1,.cls-14,.cls-26,.cls-5{fill:#fff;}.cls-2{fill:#0071bc;}.cls-11,.cls-12,.cls-13,.cls-14,.cls-17,.cls-18,.cls-19,.cls-2,.cls-20,.cls-21,.cls-22,.cls-23,.cls-24,.cls-25,.cls-26,.cls-4,.cls-5,.cls-8,.cls-9{stroke:#000;}.cls-10,.cls-11,.cls-12,.cls-13,.cls-14,.cls-17,.cls-18,.cls-19,.cls-2,.cls-20,.cls-21,.cls-26,.cls-4,.cls-5,.cls-8,.cls-9{stroke-miterlimit:10;}.cls-10,.cls-13,.cls-19,.cls-2,.cls-20,.cls-21,.cls-22,.cls-23,.cls-25,.cls-4,.cls-5,.cls-8,.cls-9{stroke-width:1.99px;}.cls-3{fill:#c69c6d;}.cls-10,.cls-11,.cls-12,.cls-13,.cls-17,.cls-25,.cls-4{fill:none;}.cls-12,.cls-17,.cls-18,.cls-19,.cls-20,.cls-21,.cls-22,.cls-23,.cls-24,.cls-25,.cls-4{stroke-linecap:round;}.cls-6{fill:#333;}.cls-7,.cls-8{fill:#e6e6e6;}.cls-9{fill:#666;}.cls-10{stroke:red;}.cls-11{stroke-width:1.97px;}.cls-12{stroke-width:3.32px;stroke-dasharray:0 3.99;}.cls-14{stroke-width:2.66px;}.cls-15{fill:#ff7bac;}.cls-16{fill:#ffb8bb;}.cls-17,.cls-18{stroke-width:2.27px;}.cls-19{fill:#22a48e;}.cls-21,.cls-23,.cls-24{fill:#ccc;}.cls-22,.cls-23,.cls-24,.cls-25{stroke-linejoin:round;}.cls-24{stroke-width:2px;}.cls-26{stroke-width:2.06px;}</style></defs><title>home-pencils</title><g id="Layer_2" data-name="Layer 2"><g id="thum-frames"><rect class="cls-1" width="510" height="576.03"/></g><g id="thums"><rect class="cls-2" x="210.32" y="277.64" width="9.23" height="173.51" transform="translate(-47.79 32.8) rotate(-7.86)"/><path class="cls-1" d="M216.09,359.14s-.13-.48-.33-1.33-.49-2.06-.75-3.52-.63-3.16-.89-5l-.84-5.75-.63-5.78c-.21-1.84-.28-3.58-.4-5.06s-.12-2.73-.16-3.6,0-1.37,0-1.37h.09l2.06,15.7,2,15.71Z"/><path class="cls-3" d="M382.85,224.6l10.25.77c1.13-2,.24-4.59-1.43-6.11a15,15,0,0,0-6.08-2.87c-7-2.08-14.44-4.27-19.52-9.56-2.65-2.76-4.47-6.19-6.53-9.41a71.17,71.17,0,0,0-23.84-23c-3.21-13.74-15.7-24.76-20.65-38-2.39-6.37-3.11-13.22-4.74-19.82s-4.43-13.3-9.83-17.43h-12.1L284,132.14l18.28,29.64s2.6,8.74,7.07,13.68,5.89,10.6,7.31,13,5.89,11.79,21.69,19.1,17.21,11.35,23.34,14.28c0,0,1.43,6,7.07,8,7.87,2.82,7,7.91,10.45,9.19l4.13-3.71a55.29,55.29,0,0,1-4.78-7.58C379,224,382.85,224.6,382.85,224.6Z"/><path class="cls-4" d="M300.48,99.21c5.4,4.13,8.2,10.83,9.83,17.43s2.35,13.45,4.74,19.82c5,13.21,17.44,24.23,20.65,38"/><path class="cls-4" d="M335.7,174.43a71.23,71.23,0,0,1,23.84,23c2.06,3.23,3.88,6.65,6.53,9.41,5.08,5.29,12.49,7.48,19.52,9.56,2.17.64,4.42,1.34,6.08,2.87s2.55,4.16,1.42,6.12"/><path class="cls-4" d="M302.3,161.78s2.59,8.74,7.07,13.68,5.89,10.6,7.31,13,5.89,11.79,21.69,19.1,17.21,11.35,23.34,14.28"/><path class="cls-4" d="M361.71,216.47s-.47,9.74,7.07,13.36,7,7.91,10.45,9.18l4.13-3.71s-5.92-8.65-7.45-14.57"/><path class="cls-4" d="M382.85,224.61s-3.88-1.25-3.19,4.18"/><path class="cls-2" d="M347.36,451.68c-7.39-15.57-14.56-41-21.32-75.53-5-25.63-7.92-47-8-47.24l6.61-.43c.11.84,11.59,84.3,28.69,120.33Z"/><path class="cls-5" d="M351.7,451l-.23-1.62a2.26,2.26,0,0,1,1.92-2.56l3.86-.54a3.08,3.08,0,0,1,.86,6.1l-3.86.54A2.26,2.26,0,0,1,351.7,451Z"/><circle class="cls-5" cx="353.86" cy="450.25" r="4.8"/><path class="cls-3" d="M254.24,239.68c18.41,22,26.57,37.69,28.09,45.88,1,5.52,1.72,8.79,1.77,14.4.09,10.28-.45,10.58-3.39,20.43h0c3.16,15.77,1.16,34.93-1.57,50.78s-6.63,31.53-8.17,47.53l-17.23-1.61c1.54-9.48,2-23.3.15-32.73-.95-4.95-2.35-9.81-3.13-14.78-1.63-10.28-.6-20.8,1.14-31.06.79-4.64,1.72-9.42.64-14-.47-2-1.29-3.83-1.84-5.77a42.5,42.5,0,0,1-1.21-13.86L238.7,289.68c-4.35-6.14-28.5-26.52-30.85-33.66Z"/><path d="M207,256.52c7.69,10.69,17.11,19.51,26.4,28.74,4.25,4.22,7.47,9.17,10.92,14.05,1.35,1.91,3,3.7,3.67,5.94s.37,4.39.55,6.63a39.47,39.47,0,0,0,1.91,9.3c2.81,8.5.36,16.48-.68,25.08a85.37,85.37,0,0,0,0,23.59c1.25,7.9,3.67,15.44,4.13,23.47a113.17,113.17,0,0,1-1.14,23.51c-.19,1.26,1.73,1.8,1.92.53,2.23-14.55,1.22-28.21-1.9-42.49a84.59,84.59,0,0,1-1.05-28.62c.94-7.73,3.54-15.73,1.34-23.45-1.23-4.3-2.48-8.09-2.67-12.67-.19-4.42.36-5.13-2.23-8.78-3.66-5.17-7-10.75-11.33-15.39-9.5-10.21-19.93-19-28.15-30.44-.74-1-2.47,0-1.72,1Z"/><path d="M278.57,330.68c5.1-16.95,9.62-34.09,2.91-51.34-5.81-14.94-16.41-28.16-26.55-40.37-.82-1-2.22.43-1.41,1.41,9.88,11.9,20.33,24.9,26,39.49,6.59,16.85,2.07,33.71-2.91,50.27a1,1,0,0,0,1.92.53Z"/><path d="M279.75,320.66c6.2,32.92-6.47,65.57-9.78,98-.13,1.28,1.87,1.27,2,0,3.33-32.71,16-65.4,9.71-98.58-.24-1.26-2.16-.73-1.92.53Z"/><path d="M259.61,334.46A15.35,15.35,0,0,0,264.5,339a1,1,0,0,0,1-1.72,13.05,13.05,0,0,1-4.17-3.84c-.73-1-2.46-.05-1.72,1Z"/><path d="M260,343.49a174.59,174.59,0,0,1-1.84,36.88c-.2,1.26,1.72,1.8,1.92.53A177.55,177.55,0,0,0,262,343.49c-.07-1.28-2.06-1.28-2,0Z"/><path class="cls-1" d="M275,428.45c-1.3-1.23-2.07-4-2.75-5.18-.38-.64-.19-1.08-.15-1.82a11.87,11.87,0,0,0-.32-1.47c-.15-.87-1.51-.67-2.4-.67a60.06,60.06,0,0,1-16.21-2.2,127.78,127.78,0,0,1-3.63,13l1.33,3.5,8.39.77Z"/><path d="M275.75,427.75c-1.86-2.32-1.77-4.71-2.78-7.3-.34-.85-.35-1.41-1.25-1.94-1.36-.8-4.46-.22-5.88-.3a61.08,61.08,0,0,1-12.35-2.06,1,1,0,0,0-1.23.7c-.53,2.69-1.31,5.34-2.08,8-1.27,4.31-1.72,5.12-.22,9.07a1.05,1.05,0,0,0,1,.73c3.73.34,7.25,1.27,10.78-.06l13.61-5.13c1.19-.45.67-2.38-.53-1.92l-12.93,4.87a8.86,8.86,0,0,1-4.06.88c-1.36,0-2.75-.25-4.11-.38a19.37,19.37,0,0,1-1.93-.18c-.94-.18-.49-.19,0,.4-2.45-2.77.27-7.5,1.08-10.41.32-1.14.47-3.26,1.1-4.27s0-.56,1.6.33c1.74,1,5.5,1,7.52,1.24,1.76.18,6.79-.55,8,1,.29.39.51,2.93.81,3.67a17.25,17.25,0,0,0,2.48,4.51C275.15,430.16,276.55,428.74,275.75,427.75Z"/><path class="cls-6" d="M249.59,430.11c-.71,2.2-4.74,4.71-5.55,12.73s1.24,9.82,3.13,11.29l16.2,1a31.22,31.22,0,0,1,6.52.85c1.6.44,3.13,1.14,4.72,1.63,5.32,1.62,11,.76,16.53-.1l6.46-1a20,20,0,0,0,6-1.59,6.76,6.76,0,0,0,3.8-4.63c.42-2.5-1.15-5-3.24-6.42a21.24,21.24,0,0,0-7.07-2.64c-5.57-1.38-11.32-3.07-15.52-7-1.6-1.49-3.24-2.91-4.89-4.34s-2.32-2.62-6.75-2.38c-1.43.08-2.89.89-4.27,1.26-1.76.47-3.25,1.61-4.91,2.34a11.65,11.65,0,0,1-10.87-.86Z"/><path d="M248.63,429.84c-1.66,4-4.52,6.57-5.33,11.09-.65,3.66-1.08,8.52,1.12,11.79,2.46,3.67,6.88,2.64,10.85,2.87,3.74.22,7.53.29,11.25.76,4,.5,7.56,2.43,11.56,2.92,6.5.8,13.4-.8,19.79-1.88,4.13-.7,9.55-2,10.48-6.92.82-4.33-3-7.6-6.62-9-7.13-2.81-14-3.28-20.07-8.54-3.68-3.18-6.46-7-11.74-6.46-2.74.28-5.43,1.6-7.86,2.8-4.77,2.36-7.53,1.49-12.19-.11-1.22-.42-1.74,1.51-.53,1.92,4.55,1.57,7.82,2.78,12.52.55,3.14-1.5,6.83-3.74,10.48-3.07,2.67.49,4.73,2.93,6.7,4.69a35.53,35.53,0,0,0,14.73,8.08c3,.84,9.09,1.39,10.85,4.16l.3,7.22a10,10,0,0,1-4.51,2.22,37.69,37.69,0,0,1-4.68.82c-8.45,1.35-15.7,2.44-24-.25-6.08-2-12.84-1.66-19.16-2-2.54-.15-5.15.38-6.62-2-1.69-2.74-1.24-7-.73-10,.8-4.59,3.66-7.1,5.33-11.09C251,429.19,249.12,428.67,248.63,429.84Z"/><path d="M267,429.52c2.6.22,4.08,3.13,5.68,4.79a20.56,20.56,0,0,0,4.3,3.48c3.5,2,7.45,2.13,11.39,2.06a1,1,0,0,0,0-2c-5.94.1-10.57-.92-14.73-5.45-2.05-2.24-3.44-4.6-6.64-4.88-1.28-.11-1.27,1.89,0,2Z"/><path d="M275.42,453.47c-1.68-11.75,17.51-5.51,23.48-6.47,1.26-.2.73-2.13-.53-1.92-6.39,1-13.08-2.68-19.38-.11-3.82,1.56-6.08,4.94-5.49,9,.18,1.27,2.1.73,1.92-.53Z"/><path d="M246.4,433.87c.45,2.36,4.69,3.39,6.66,3.71a14.55,14.55,0,0,0,9.09-1.52c1.14-.58.14-2.31-1-1.72a12.4,12.4,0,0,1-6.54,1.41c-1.21-.08-6-.79-6.28-2.42-.24-1.26-2.16-.73-1.92.53Z"/><path class="cls-7" d="M268.17,456.67a28.08,28.08,0,0,0,0,5.53,1.46,1.46,0,0,0,.39.94c.26.22.64.17,1,.21,3.69.49,11.37.83,11.37.83s8.58-.66,15.17-1a.9.9,0,0,0,1-1,38,38,0,0,0,.21-5.77Z"/><path d="M267.17,456.67c-.15,3.05-1.12,6.83,2.37,7.68a48.61,48.61,0,0,0,11.37.83c4.5-.05,9.14-.49,13.62-.88,4.69-.41,3.85-3.21,3.79-7.88a1,1,0,0,0-1-1l-29.16.24a1,1,0,0,0,0,2l26.9-.22c.4,0,1.52-.21,1.87,0a11,11,0,0,1-1.53,3.87c-2.23,2.37-9.39,1.56-12.81,1.77a43.88,43.88,0,0,1-5.41-.07,27.86,27.86,0,0,1-5.52-.4c-3.11-.87-2.64-3.09-2.5-5.92C269.23,455.39,267.23,455.39,267.17,456.67Z"/><path d="M280.45,458.48a28.33,28.33,0,0,1-.49,5.45,1,1,0,0,0,1.92.53,31.07,31.07,0,0,0,.56-6c.07-1.28-1.92-1.28-2,0Z"/><path d="M279.38,437.62c.37-1.71,2.61-1.13,3.77-.79a1,1,0,0,0,.53-1.92c-2.27-.65-5.59-.74-6.23,2.19-.27,1.25,1.65,1.79,1.92.53Z"/><path d="M276.33,435.93a3.5,3.5,0,0,1,3.72-1.49c1.25.29,1.78-1.63.53-1.92a5.56,5.56,0,0,0-6,2.41c-.7,1.08,1,2.08,1.72,1Z"/><path d="M273.41,432.74c.08-1.15,3.7-.92,4.36-.88,1.28.08,1.28-1.91,0-2-2.16-.14-6.16,0-6.35,2.87-.08,1.28,1.91,1.28,2,0Z"/><path d="M271.22,430.46c.66-.94,2.22-1.72,3.33-1.15s2.15-1.14,1-1.72c-2.15-1.09-4.74,0-6.06,1.87-.74,1.05,1,2,1.72,1Z"/><path d="M254,423.75c2.38.78,5.06.67,7.53.8,1.28.07,1.28-1.93,0-2-2.31-.12-4.79,0-7-.73-1.22-.4-1.75,1.52-.53,1.92Z"/><path d="M253.41,427.37a22.16,22.16,0,0,0,5.59.38c1.28-.08,1.28-2.07,0-2a20,20,0,0,1-5.06-.31c-1.25-.24-1.79,1.68-.53,1.92Z"/><path class="cls-5" d="M271.82,461.53l-39.18-13.2-.75-4.36,41.29,13.1a2.33,2.33,0,0,1,1.7,2.35h0A2.33,2.33,0,0,1,271.82,461.53Z"/><path d="M260.69,404.08a4.83,4.83,0,0,1,.48,2.83,2.8,2.8,0,0,1-1.25,1.77c-1,.82.43,2.23,1.41,1.41a4.43,4.43,0,0,0,1.81-2.88,7.16,7.16,0,0,0-.73-4.14c-.58-1.15-2.3-.14-1.72,1Z"/><path d="M265.41,442.5a9.53,9.53,0,0,0-2.1,8.69,1,1,0,0,0,1.92-.53,7.43,7.43,0,0,1,1.59-6.75c.84-1-.57-2.38-1.41-1.41Z"/><path d="M262,431.43c2.89,3.62,5.77,8.2,10.21,10.06,3.13,1.31,7.2.9,7.63-3,.14-1.27-1.86-1.26-2,0-.38,3.5-5.26,1.13-6.49.31a16.65,16.65,0,0,1-3-2.69c-1.76-1.92-3.33-4-5-6.06-.8-1-2.2.42-1.41,1.41Z"/><path d="M266.16,298.41a30.93,30.93,0,0,1,4.59-6.68c.86-1-.55-2.36-1.41-1.41a32.93,32.93,0,0,0-4.9,7.08c-.58,1.14,1.14,2.15,1.72,1Z"/><path class="cls-8" d="M171.5,314.68a23.67,23.67,0,0,0-4.94-1.25c-21.29-3-38.79,23.93-42.27,70.59-3,39.74,6.69,75.73,24.42,87.92-21.44-7.66-33.59-47-30.32-91,3.48-46.66,21-73.56,42.27-70.59A25.57,25.57,0,0,1,171.5,314.68Z"/><path class="cls-9" d="M161.77,300.46c-35.31-4.93-51.26,44.67-52.92,88.88-1.57,41.51,10.24,90.89,45.25,95.77,26.87,3.75,48.93-30.26,52.28-77.25C209.38,365.73,200.65,305.89,161.77,300.46ZM195.37,410c-2.25,32.16-17.48,66.48-42,63.11a23,23,0,0,1-4.6-1.12h0c-21.44-7.66-33.59-47-30.32-91,3.48-46.66,21-73.56,42.27-70.59a25.57,25.57,0,0,1,10.84,4.3C186.52,324.86,199.34,353.24,195.37,410Z"/><path class="cls-8" d="M343.73,553.1a29.57,29.57,0,0,1-4.32.08c-30.76-1.63-52.79-53.62-53.24-114.27-.45-60.18,18.73-96.57,45.7-95.07a28.82,28.82,0,0,1,4.29.57c-24.68,2.42-41.81,38.05-41.39,95C295.2,497.19,315.22,547.12,343.73,553.1Z"/><rect class="cls-2" x="182.88" y="375.16" width="4.62" height="82.11" transform="translate(-268.42 458.33) rotate(-71.32)"/><polygon class="cls-2" points="148.4 404.02 144.19 402.11 203.18 273.25 207.38 275.16 148.4 404.02"/><polygon class="cls-2" points="305.33 297.99 199 279.84 200.78 269.74 307.11 287.88 305.33 297.99"/><rect class="cls-2" x="184.99" y="371.38" width="164.54" height="10.26" transform="translate(-192.02 424) rotate(-60.53)"/><rect class="cls-2" x="301.02" y="271.97" width="10.26" height="48.24" transform="translate(-38.99 46.54) rotate(-8.17)"/><path class="cls-10" d="M224.08,429.37"/><line class="cls-10" x1="337.61" y1="555.27" x2="337.6" y2="555.27"/><path class="cls-5" d="M352.16,454.65l-27.85,4-1.13-7.78,27.85-4a3.93,3.93,0,0,1,4.46,3.33h0A3.93,3.93,0,0,1,352.16,454.65Z"/><ellipse class="cls-10" cx="217.35" cy="449.22" rx="1.55" ry="2.05"/><path class="cls-11" d="M224.24,477.09c-16.86-1.2-83.93-55.23-85.7-72.75-.94-9.34,2.21-18.51,9.28-18.51,6.53,0,80.74,28,80.74,28"/><path class="cls-10" d="M155.38,474.3l.5,0"/><path class="cls-12" d="M246.49,445.29c0,17.56-9.41,31.8-21,31.8-.41,0-.81,0-1.21-.05v.05c-13.88-1-61.8-37.79-79.28-60.54a38.12,38.12,0,0,1-6.42-12.21c-1.67-5.49.26-10.63,2.36-14.17h0a10,10,0,0,1,5.16-4.12l.07,0a7.44,7.44,0,0,1,1.68-.18,19.13,19.13,0,0,1,3.86.79c16.65,4.5,75.85,26.82,76.87,27.21h0C238.71,416.11,246.49,429.32,246.49,445.29Z"/><path class="cls-7" d="M247.15,445.29c0,1-1.36,2-1.42,3s1.17,2.13,1,3.11-1.6,1.78-1.78,2.75.88,2.27.63,3.22-1.82,1.55-2.14,2.48.54,2.37.15,3.27-2,1.25-2.51,2.11.13,2.44-.42,3.25-2.23.84-2.87,1.58-.4,2.42-1.13,3.07-2.36.26-3.17.8-1.09,2.21-2,2.6-2.28-.55-3.25-.34-1.82,1.63-2.83,1.63-1.86-1.42-2.83-1.63-2.33.74-3.25.34-1.14-2-2-2.6-2.41-.11-3.17-.8-.46-2.3-1.13-3.08-2.29-.74-2.87-1.58.07-2.35-.42-3.25-2.1-1.17-2.51-2.1.48-2.31.15-3.27-1.88-1.5-2.14-2.48.82-2.22.63-3.22-1.66-1.75-1.78-2.75,1.11-2.1,1-3.11-1.42-1.94-1.42-3,1.36-2,1.42-3-1.17-2.13-1-3.11,1.6-1.78,1.78-2.75-.88-2.27-.63-3.22,1.82-1.55,2.14-2.48-.54-2.37-.15-3.27,2-1.25,2.51-2.11-.13-2.44.42-3.25,2.23-.84,2.87-1.58.4-2.42,1.13-3.07,2.36-.26,3.17-.8,1.09-2.21,2-2.6,2.28.55,3.25.34,1.82-1.63,2.83-1.63,1.86,1.42,2.83,1.63,2.33-.74,3.25-.34,1.14,2,2,2.6,2.41.11,3.17.8.46,2.3,1.13,3.08,2.29.74,2.87,1.58-.07,2.35.42,3.25,2.1,1.17,2.51,2.1-.48,2.31-.15,3.27,1.88,1.5,2.14,2.48-.82,2.22-.63,3.22,1.66,1.75,1.78,2.75-1.11,2.1-1,3.11S247.15,444.28,247.15,445.29Z"/><path class="cls-13" d="M247.15,445.29c0,1-1.36,2-1.42,3s1.17,2.13,1,3.11-1.6,1.78-1.78,2.75.88,2.27.63,3.22-1.82,1.55-2.14,2.48.54,2.37.15,3.27-2,1.25-2.51,2.11.13,2.44-.42,3.25-2.23.84-2.87,1.58-.4,2.42-1.13,3.07-2.36.26-3.17.8-1.09,2.21-2,2.6-2.28-.55-3.25-.34-1.82,1.63-2.83,1.63-1.86-1.42-2.83-1.63-2.33.74-3.25.34-1.14-2-2-2.6-2.41-.11-3.17-.8-.46-2.3-1.13-3.08-2.29-.74-2.87-1.58.07-2.35-.42-3.25-2.1-1.17-2.51-2.1.48-2.31.15-3.27-1.88-1.5-2.14-2.48.82-2.22.63-3.22-1.66-1.75-1.78-2.75,1.11-2.1,1-3.11-1.42-1.94-1.42-3,1.36-2,1.42-3-1.17-2.13-1-3.11,1.6-1.78,1.78-2.75-.88-2.27-.63-3.22,1.82-1.55,2.14-2.48-.54-2.37-.15-3.27,2-1.25,2.51-2.11-.13-2.44.42-3.25,2.23-.84,2.87-1.58.4-2.42,1.13-3.07,2.36-.26,3.17-.8,1.09-2.21,2-2.6,2.28.55,3.25.34,1.82-1.63,2.83-1.63,1.86,1.42,2.83,1.63,2.33-.74,3.25-.34,1.14,2,2,2.6,2.41.11,3.17.8.46,2.3,1.13,3.08,2.29.74,2.87,1.58-.07,2.35.42,3.25,2.1,1.17,2.51,2.1-.48,2.31-.15,3.27,1.88,1.5,2.14,2.48-.82,2.22-.63,3.22,1.66,1.75,1.78,2.75-1.11,2.1-1,3.11S247.15,444.28,247.15,445.29Z"/><circle class="cls-14" cx="145.53" cy="402.03" r="4.8"/><path class="cls-7" d="M159,401.52c0,.5-.68,1-.71,1.47s.58,1.06.52,1.54-.79.89-.89,1.37.44,1.13.31,1.6-.91.77-1.07,1.23.27,1.18.07,1.63-1,.62-1.25,1,.06,1.21-.21,1.61-1.11.42-1.43.79-.2,1.2-.56,1.53-1.17.13-1.58.39-.54,1.1-1,1.29-1.13-.27-1.61-.17-.91.81-1.41.81-.93-.71-1.41-.81-1.16.37-1.62.17-.57-1-1-1.29-1.2-.05-1.58-.4-.23-1.14-.56-1.53-1.14-.37-1.42-.79,0-1.17-.21-1.61-1-.58-1.25-1,.24-1.15.07-1.62-.94-.74-1.07-1.23.41-1.11.31-1.6-.82-.87-.89-1.37.55-1,.52-1.55-.71-1-.71-1.47.68-1,.71-1.47-.58-1.06-.52-1.54.79-.89.89-1.37-.44-1.13-.31-1.6.91-.77,1.07-1.23-.27-1.18-.07-1.63,1-.62,1.25-1-.06-1.21.21-1.61,1.11-.42,1.43-.79.2-1.2.56-1.53,1.17-.13,1.58-.39.54-1.1,1-1.29,1.13.27,1.61.17.91-.81,1.41-.81.93.71,1.41.81,1.16-.37,1.62-.17.57,1,1,1.29,1.2.05,1.58.4.23,1.14.56,1.53,1.14.37,1.42.79,0,1.17.21,1.61,1,.58,1.25,1-.24,1.15-.07,1.62.94.74,1.07,1.23-.41,1.11-.31,1.6.82.87.89,1.37-.55,1-.52,1.55S159,401,159,401.52Z"/><path class="cls-13" d="M159,401.52c0,.5-.68,1-.71,1.47s.58,1.06.52,1.54-.79.89-.89,1.37.44,1.13.31,1.6-.91.77-1.07,1.23.27,1.18.07,1.63-1,.62-1.25,1,.06,1.21-.21,1.61-1.11.42-1.43.79-.2,1.2-.56,1.53-1.17.13-1.58.39-.54,1.1-1,1.29-1.13-.27-1.61-.17-.91.81-1.41.81-.93-.71-1.41-.81-1.16.37-1.62.17-.57-1-1-1.29-1.2-.05-1.58-.4-.23-1.14-.56-1.53-1.14-.37-1.42-.79,0-1.17-.21-1.61-1-.58-1.25-1,.24-1.15.07-1.62-.94-.74-1.07-1.23.41-1.11.31-1.6-.82-.87-.89-1.37.55-1,.52-1.55-.71-1-.71-1.47.68-1,.71-1.47-.58-1.06-.52-1.54.79-.89.89-1.37-.44-1.13-.31-1.6.91-.77,1.07-1.23-.27-1.18-.07-1.63,1-.62,1.25-1-.06-1.21.21-1.61,1.11-.42,1.43-.79.2-1.2.56-1.53,1.17-.13,1.58-.39.54-1.1,1-1.29,1.13.27,1.61.17.91-.81,1.41-.81.93.71,1.41.81,1.16-.37,1.62-.17.57,1,1,1.29,1.2.05,1.58.4.23,1.14.56,1.53,1.14.37,1.42.79,0,1.17.21,1.61,1,.58,1.25,1-.24,1.15-.07,1.62.94.74,1.07,1.23-.41,1.11-.31,1.6.82.87.89,1.37-.55,1-.52,1.55S159,401,159,401.52Z"/><path class="cls-14" d="M139,403.72l-.23-1.62a2.26,2.26,0,0,1,1.92-2.56l3.86-.54a3.08,3.08,0,1,1,.86,6.1l-3.86.54A2.26,2.26,0,0,1,139,403.72Z"/><path class="cls-14" d="M143.54,405.67a2.56,2.56,0,0,1-2.56,2.56h-4.24c-3.08,0-3.2,4.63-.12,4.74h.51C144.18,413,143.54,405.67,143.54,405.67Z"/><path class="cls-14" d="M141.49,399.27a5,5,0,0,1,.86,6.1"/><path class="cls-15" d="M215.56,245.89c-20.68,10.31-26.69,4.77-32.74,3.08-5.38-1.5-12.31-9.39-14.58-10.78l38.67,1.39,8,1.9Z"/><path d="M215.06,245c-8.55,4.16-17.92,7.8-27.36,4.61-2.92-1-6-1.94-8.6-3.65-3.76-2.52-6.66-6.08-10.35-8.66-1.05-.74-2.05,1-1,1.72,4.37,3.05,7.64,7.52,12.5,9.94a51.77,51.77,0,0,0,8.15,3c9.52,2.82,19.16-1.07,27.67-5.21,1.15-.56.14-2.28-1-1.72Z"/><path class="cls-9" d="M400.19,461.4c-.56-53.47-17.37-128-65.85-130.72a41.22,41.22,0,0,0-7.16.21h0a37.51,37.51,0,0,0-6.07,1.24l-.45.13h0c-33.39,10.27-44.68,66.5-42.54,116.18,2.27,52.52,21.82,113.54,65.48,116C377.06,566.28,400.81,521,400.19,461.4Zm-56.46,91.06a29.41,29.41,0,0,1-4.32.08c-30.77-1.63-52.79-53.62-53.24-114.26-.45-60.18,18.72-96.57,45.7-95.07a28.31,28.31,0,0,1,4.29.56c22.92,4.78,48.44,38.23,49.44,123.31C386.06,506.6,372,549.88,343.73,552.46Z"/><path class="cls-2" d="M319,455.41c-18.52-40.13-22.6-117.63-22.76-120.91l6.66-.33c0,.2,1,20.11,4.29,44.62,4.28,32.25,10.46,57.78,17.87,73.83Z"/><path class="cls-2" d="M325.59,330.89a37.51,37.51,0,0,0-6.07,1.24l-.45.13a5.52,5.52,0,0,0-4.4-1.58c-5.1.33-8.45,2.58-11.42,5.36-1.23,1.15-3.42.51-5.35.61-.94,0-1.83,0-1.83-.93l-.34-5.31c0-2.9,0-4.81,2.44-6.38A30.86,30.86,0,0,1,310.77,320a25.35,25.35,0,0,1,8,.63c3.78,1,6.6,2,6.6,5.94Z"/><path class="cls-5" d="M316.73,320.21l-12.61,1.89c-.77.13-1.05-.49-1.2-1.37a1.51,1.51,0,0,1,1.13-1.81l11.25-1.84a1.51,1.51,0,0,1,1.65,1.35C317.1,319.31,317.5,320.08,316.73,320.21Z"/><path d="M303.35,336.33c0-2.28-.48-4.52-.51-6.8a1,1,0,0,0-2,0c0,2.28.48,4.52.51,6.8a1,1,0,0,0,2,0Z"/><path d="M302.76,327.22c.11-2.23,3-4.08,5-4.41,1.26-.22.73-2.14-.53-1.92-2.9.5-6.3,3.21-6.46,6.34-.07,1.28,1.93,1.28,2,0Z"/><path class="cls-16" d="M229.46,37.48s-23.16-3.68-30.74,24.9c0,0-18.19-5.2-24.68,4.76a31.16,31.16,0,0,0-22.3,24,41.8,41.8,0,0,0-16.24,35.08s-12.56,14.51-5.2,37.89c0,0-10.83,29,3.25,48.07,0,0-.87,19.27,22.52,26.42,0,0,10.18,13.42,26.2,12.13,0,0,24.9,13.21,42.44,5,0,0,21.65,2.6,28.58-7.8,0,0,5.38,1.52,13-1.68,6.58-2.75,12.82-12.61,14.89-20,0,0,7.15-5.2,10.39-9.31,0,0,19.05-1.22,24.9-27.72,0,0,14.94-12.34,14.51-26.2,0,0,18.41-20.35,10.61-47,0,0,6.5-21.22-7.58-40.27,0,0-.87-23.6-18.62-30.31a20.25,20.25,0,0,0-17.54-15.37s-21.65-22.52-43.31-3.9c0,0-7.36,2.6-5.85,8.66C248.74,34.88,238.11,31.85,229.46,37.48Z"/><path class="cls-17" d="M229.46,37.48s-23.16-3.68-30.74,24.9c0,0-18.19-5.2-24.68,4.76a31.16,31.16,0,0,0-22.3,24,41.8,41.8,0,0,0-16.24,35.08s-12.56,14.51-5.2,37.89c0,0-10.83,29,3.25,48.07,0,0-.87,19.27,22.52,26.42,0,0,10.18,13.42,26.2,12.13,0,0,24.9,13.21,42.44,5,0,0,21.65,2.6,28.58-7.8a21.46,21.46,0,0,0,13-1.68c9.94-4.9,12.7-12.17,14.89-20,0,0,7.15-5.2,10.39-9.31,0,0,19.16-1.07,24.9-27.72,0,0,14.94-12.34,14.51-26.2,0,0,18.41-20.35,10.61-47,0,0,6.5-21.22-7.58-40.27,0,0-.87-23.6-18.62-30.31a20.25,20.25,0,0,0-17.54-15.37s-21.65-22.52-43.31-3.9c0,0-7.36,2.6-5.85,8.66C248.74,34.88,238.11,31.85,229.46,37.48Z"/><path class="cls-17" d="M138.83,176.61s7.94,16.54.5,30.31"/><path class="cls-17" d="M229.46,37.48a38.08,38.08,0,0,0-5.4,4.33c-6.47,6.81-5.8,18.09,3.66,25"/><path class="cls-17" d="M190.29,78.68c3.87,27.9-29.5,17.45-31.49,38-2.23,23,28.69,11.93,51.08,29.6"/><path class="cls-17" d="M181,149.43s3.8,10.39-4.81,10.29"/><path class="cls-17" d="M163.75,194.29c-17.07,23.89,10.93,41.68,29.92,34.93"/><path class="cls-17" d="M174,67.15C182.7,65.74,188,73.43,188,73.43"/><path class="cls-17" d="M209.89,66.82s-24.69,22.79-8.55,43"/><path class="cls-17" d="M248.74,34.88s8.88,1.52,17.54,10.61c0,0,21.44,10.61,26.63,33.35,0,0,13.42,11,12.34,32,0,0,8,10.78,5.63,23.25a34,34,0,0,1-.43,25.18s1.52,13.28-5.2,20.43c0,0,.43,11.26-5.85,17.11,0,0,3.71,8.22-7.8,20.14"/><path class="cls-17" d="M268.88,62.38S287,77,286.85,91.18c-.11,15.24-4.54,18.62-8.23,22.52-12.13,12.84-36.57,3-46.44-5.2"/><path class="cls-17" d="M256.64,47.49C241.28,66.41,277.73,81.11,271,96.4"/><path class="cls-17" d="M254.16,133.09c-5.57-3.25-15.92-7.68-21.64-6.83-11.59,1.71-10.85,14-10.85,14"/><path class="cls-17" d="M245.51,157.93s-14.83-.56-22.32-11"/><path class="cls-17" d="M241.81,174.75c-19.49-2.86-25.2-15-25.2-15"/><path class="cls-17" d="M181,157.44s34.72,16.47,41.14-7.58c2.12-7.92-2-17.36-11.88-23.88a55.21,55.21,0,0,0-32.65-9.27"/><path class="cls-17" d="M262.6,119.89s11.74,17.52-.44,25.15c-9.09,5.69-24.22-5.1-24.22-5.1"/><path class="cls-17" d="M254.74,184.27c-14.29,11.85-38.48,2.91-52.88-14.22"/><path class="cls-17" d="M294.76,187.32c-7.56,3.66-35.61,11.22-39.31-2.56-3.26-12.15,5.39-20.83,8.5-23.2,5.51-4.21,20.87-10.82,33.68-14.15"/><path class="cls-17" d="M234.26,229.62a24.77,24.77,0,0,1-25.91-13.12"/><path class="cls-17" d="M216.26,248.38s-13.26,4.2-16.79-4.4"/><path class="cls-17" d="M272.66,178.88s10-3,20.85-5.2c9.6-1.95,11.74,6.07,11.74,6.07"/><path class="cls-17" d="M310.45,159.31s-4.33,7.46-23.25,6.16"/><path class="cls-17" d="M135.5,126.26c2.59,15.38,22.79,10.76,23.19-6.36"/><path class="cls-17" d="M254.59,26.22s8.88.22,10.61,7.58"/><path class="cls-17" d="M271.54,26.22s7.73,8.23,26.36,3.9"/><path class="cls-17" d="M279.37,37.48s-4,9.19-15.25,5.89"/><path class="cls-17" d="M317.17,53.72a9.9,9.9,0,0,1-1.73-8.23"/><path class="cls-17" d="M279.37,55.28s-2.69-8.92,6.62-13.47,18.84,3.68,22.09,10,11.48,29.54,17.76,23.82c5-4.55-4.76-10.56-4.76-10.56"/><path class="cls-17" d="M334.06,75.81c-.22,4.55,2.81,16.24-1.3,17.54s-4.33-7.36-9.31-8.77"/><path class="cls-17" d="M293.52,55.89s8.56,4.87,9.61,9.15-2.85,10.75,4.95,15.31,12.56,1.76,14.07,16.48-5,22.08-5,22.08"/><path class="cls-17" d="M322.38,99.41c7.16,14.29,12.55,10.39,12.55,10.39,2.92-2.92,1.29-10.39,1.29-10.39"/><path class="cls-17" d="M325.83,116.7s6.51.46,9.1-6.9"/><path class="cls-17" d="M309.08,118.13s7.11-1.75,10.9,3.84c6.71,9.92,1.08,20.59,5.85,25.43"/><path class="cls-17" d="M303.13,94.89s8.45-3.28,9.95,6.69"/><path class="cls-17" d="M294.76,49s2.48,7.74-5.75,9.46"/><path class="cls-17" d="M341.63,116.08c-2.17,8.44-7.15,7.58-8.88,11.26s-.18,6.31,3.92,6.3"/><path class="cls-17" d="M330.38,138.65c3.89,8.76-.87,11.43.65,24.42"/><path class="cls-17" d="M319.33,171.08s6.05-1.22,11.69-8"/><path class="cls-17" d="M318.25,153.2s2.47,14-8.62,17.88"/><path class="cls-17" d="M316.18,131.24s2.55,6.93-3.1,11.48"/><path class="cls-17" d="M315.19,178.88s-7.55,6.95-4.73,10.42,6.06,0,6.06,0"/><path class="cls-17" d="M304.93,196a10.89,10.89,0,0,0,5.52-6.69"/><path class="cls-18" d="M214,247.8l25.86,5.79s3.25,1.31,2.12,6.64c-.44,2.09-9.59.57-15.74.95s-8.85.62-8.85.62l-2.12-4.7-2.18-3.89-.78-3.81A1.39,1.39,0,0,1,214,247.8Z"/><path class="cls-17" d="M209.83,139.95"/><path class="cls-17" d="M310.89,134.14c-4.1-7.61-19.75-4.37-30.3,4.51"/><path class="cls-17" d="M305.26,110.89c-3.13-3.6-15.63-1-18.06,2.37"/><path class="cls-17" d="M286.67,95.62a6.63,6.63,0,0,0,8.44,0"/><path class="cls-17" d="M153.51,178.88"/><path class="cls-17" d="M156.07,159.31"/><path class="cls-17" d="M168.15,165s.41,12.73-4.89,19.13c0,0-7,8-14.84,2.79"/><path class="cls-17" d="M299.41,196.85c-6.33,4.33-19.27,7.21-28.4,6.06"/><path class="cls-17" d="M288.66,209.39c-6.52,2.17-17.93,2.91-24.55,3.18-15.59-.65-14-10.4-14-10.4"/><path class="cls-17" d="M267.69,232.79s-33.5-1.24-37.12-34.68"/><path class="cls-17" d="M281.22,226.3c1.95-8.12-5.12-12.63-11.87-14.06"/><path class="cls-17" d="M142.81,196s1.1,10,16.14,7.73"/><path class="cls-17" d="M259.52,102.08c-9.19-1.51-31.8-22.34-41.51-5.68-11.82,20.28,19.78,30,19.78,30"/><path class="cls-17" d="M257.08,87.39c-24.82-22.68-45.32-9.07-48,.36"/><path class="cls-17" d="M138.92,149.43s23.53-3.59,35.12,3"/><path class="cls-17" d="M136,163.07s23.45-4.27,35,2.33"/><path class="cls-4" d="M202.61,223.71s3.51,6.45,13.09,1.43"/><path class="cls-4" d="M253.29,247.95s-4.57-.66-7.23-2.28"/><path class="cls-19" d="M264.31,9.21c6.45-.74,35.55,1.08,43.76,29.41,1,3.53,2.07,14.78-2.59,20s-16.94,6.2-25.07,5.61-18.53-2.45-23.66-8-8.48-8-10.12-8.25-4.67-1.16-5.72-6.21-4.09-11.16.46-20.34S258.87,9.84,264.31,9.21Z"/><path class="cls-20" d="M283.44,40.44s5.65,7.07,6.49,14.36c.08.67-.65,1-.93.47s-5.07-8.79-8.83-13.3C280.18,42,279.77,39.51,283.44,40.44Z"/><path class="cls-20" d="M264.17,22.75s10.71,6.8,13.22,10.16c0,0-2.83.83-4,.46s-9.32-7.69-11.47-9.23C261.91,24.14,262.12,22.59,264.17,22.75Z"/><path class="cls-20" d="M254.28,34s5.29,1,7.3,4.45c0,0-.69.92-2.91.55s-5.51-3.85-5.51-3.85A1.68,1.68,0,0,1,254.28,34Z"/><path class="cls-20" d="M269.5,46.88S273,49,278.15,54.8c.48.54-.21,1.13-1.25,1a18.16,18.16,0,0,1-3.1-1l-5.69-5.75S266.82,46.43,269.5,46.88Z"/><path class="cls-20" d="M295,38.48s3.49,8.9,2.6,14.17c0,0-2.32-10.19-4.34-13.31A1.44,1.44,0,0,1,295,38.48Z"/><path class="cls-20" d="M282.13,23s5.52,3.73,7.25,7a2.17,2.17,0,0,1-1.88-.82C286.78,28.21,282.13,23,282.13,23Z"/><path class="cls-4" d="M249.34,13.62S286.06,18.24,294.64,61"/><path class="cls-4" d="M298.76,61.42C298.52,47.53,287.25,8.66,250.59,13"/><path class="cls-4" d="M302.17,60.09s3.33-28.41-14.87-40.63c-17.57-11.81-27.77-9.07-32.22-8.28"/><path class="cls-4" d="M305.4,55s4.84-34-32.51-45.77"/><path class="cls-4" d="M247.93,15.85s26.4,10.36,43,43"/><path class="cls-4" d="M286.16,61.09a92.63,92.63,0,0,0-22.62-26.92c-14.85-11.78-18.86-15.65-18.86-15.65"/><path class="cls-4" d="M242,23.66c.49,2.74,14.42,15.39,18.12,18S280,61.21,280,61.21"/><path class="cls-4" d="M275.35,60s-30.9-19.72-35.6-34.48"/><path class="cls-4" d="M278.13,20c1.14,0,2.29-.46,3.4-.2a5,5,0,0,1,2.29,1.55,33.39,33.39,0,0,1,5.84,8.16"/><path class="cls-4" d="M301,53.26c-.33.88-.78,1.87-1.69,2.09"/><path class="cls-4" d="M270.57,46.54a5.28,5.28,0,0,1,3.36.22"/><path class="cls-4" d="M250.19,30.91a5.12,5.12,0,0,1,2.32-.86c1.29,0,2.38.88,3.33,1.75a25.81,25.81,0,0,1,5,5.47"/><path class="cls-4" d="M243.89,20.39a11.31,11.31,0,0,0,1.79,5.84"/><path class="cls-4" d="M258.09,17.14a4.66,4.66,0,0,1-2.71.72"/><path class="cls-4" d="M269.32,12.73a19.74,19.74,0,0,0-4.44-.66"/><path class="cls-4" d="M296.82,24.8a1.84,1.84,0,0,0,.25-1.38,1.63,1.63,0,0,0-.47-.61,7.87,7.87,0,0,0-1.2-.89"/><path class="cls-4" d="M303.3,33.64a1.21,1.21,0,0,0-.66-.16.44.44,0,0,0-.39.47"/><path d="M329.09,495.18a7.51,7.51,0,0,1-.77.09,12.23,12.23,0,0,1-2.18,0,11.11,11.11,0,0,1-3.3-.86,10.42,10.42,0,0,1-3.62-2.62l-.21-.23c-.09-.08.07.08.17.06a.25.25,0,0,0,.23-.14.3.3,0,0,0,0-.15l0,.12c.09.41.19.78.3,1.19a25.7,25.7,0,0,0,.81,2.45,25.19,25.19,0,0,0,2.54,4.9c.27.39.55.79.84,1.17l.22.28.11.14.06.07.07.1,0,.07a1.16,1.16,0,0,1-1.13,1.72,1.17,1.17,0,0,1-.38-.11l-.14-.07c-.89-.48-1.83-1-2.71-1.61a42.58,42.58,0,0,1-5.14-3.91,35.83,35.83,0,0,1-4.47-4.75,25,25,0,0,1-1.83-2.67l-.4-.7-.2-.35,0-.09c.16.26-.1-.14.12.18a1.19,1.19,0,0,0,.38.31,1.23,1.23,0,0,0,.41.13,1.17,1.17,0,0,0,.76-.16,1.22,1.22,0,0,0,.53-.69,1.2,1.2,0,0,0,0-.4v0l0,.18.11.72c.27,1.87.66,3.7,1.06,5.41s.88,3.32,1.35,4.79,1,2.81,1.46,4c.22.59.47,1.13.69,1.64s.42,1,.62,1.38c.38.84.71,1.48.93,1.92l.33.69h0a.14.14,0,0,1-.24.16l-.52-.57c-.34-.37-.83-.92-1.39-1.67a29.86,29.86,0,0,1-1.93-2.79,37.16,37.16,0,0,1-2.1-3.89,40.62,40.62,0,0,1-1.89-4.89,36.24,36.24,0,0,1-1.34-5.73l-.09-.75,0-.19,0-.2a1.75,1.75,0,0,1,.07-.58,1.73,1.73,0,0,1,1.88-1.23,1.69,1.69,0,0,1,.59.18,1.65,1.65,0,0,1,.53.43,1.61,1.61,0,0,1,.22.34l0,.08.17.32.33.64c.47.84,1,1.69,1.51,2.51a30.74,30.74,0,0,0,3.87,4.66,40.47,40.47,0,0,0,4.68,4c.83.6,1.64,1.14,2.51,1.67l0,0h0a.64.64,0,0,0-.65.06.62.62,0,0,0-.15.83c0,.05,0,0,0,0l0,0v0l-.06-.08-.11-.16-.23-.32c-.3-.43-.58-.86-.84-1.3a25.12,25.12,0,0,1-2.41-5.34,27,27,0,0,1-.69-2.62c-.09-.42-.17-.86-.23-1.27l0-.19a.79.79,0,0,1,.08-.45.81.81,0,0,1,.72-.45.78.78,0,0,1,.44.13l.12.1,0,0,.08.09.18.22a9.54,9.54,0,0,0,3.16,2.61,11.13,11.13,0,0,0,3.06,1,11.82,11.82,0,0,0,2.09.19,7.23,7.23,0,0,0,.74,0,.14.14,0,0,1,.16.13A.15.15,0,0,1,329.09,495.18Z"/><path class="cls-21" d="M396.49,230.92c0,6.29-7.78,11.44-17,18.12-7.06,5.12-20.51,13.18-35.23,16.64h0a62.13,62.13,0,0,1-9.69,1.53,6.25,6.25,0,0,0,.27-7.86h.1a46.1,46.1,0,0,0,7.65-1c22.27-4.77,46.26-24.39,46.58-29l-4.28,5.27-3.74-5.47-1-1.91,1.27-2.53h7.78C393.66,224.68,396.49,224.63,396.49,230.92Z"/><path class="cls-22" d="M387.88,224.68v-1.37H380.1s-2,.55,0,3.9,3.53,5.58,3.53,5.58h3.16S383.44,224.68,387.88,224.68Z"/><path class="cls-21" d="M329.46,267.33"/><path class="cls-21" d="M334.58,267.2"/><path class="cls-23" d="M334.85,259.34"/><path class="cls-24" d="M330.52,257h0l8.67.9a6.25,6.25,0,0,1-1.29,12.43l-10.43-1.08-20-2.08.81,7.7c-7.07,2.19-10.65,1.19-10.65,1.19l-2.78-13.28c-1.33-6,.34-9.45,4.83-9Z"/><path class="cls-4" d="M329.86,269.36a6.25,6.25,0,0,0,0-12.49"/><line class="cls-21" x1="307.49" y1="267.33" x2="300.48" y2="266.55"/><path class="cls-21" d="M329,266.55a4,4,0,1,0,0-8.06h-.09a28.5,28.5,0,0,1-10.08-2.41c-9.78-4.51-13.31-14.41-26.62-24.5-17.54-13.31-41.15-8-41.15-8s-19.27,4.21-31.92,11.88a3.57,3.57,0,0,0-1.72,3.08,3.62,3.62,0,0,0,5.42,3.15c16.74-9.49,31.21-11.65,31.21-11.65s22.78-3.59,36.85,8.62c6.4,5.55,11.27,12.08,16.68,17.42,5.7,5.63,12,10,21.34,10.44"/><path class="cls-20" d="M261.36,231.11a48.48,48.48,0,0,0-7.06.46A99.91,99.91,0,0,0,223.61,243a5.12,5.12,0,0,1-2.53.66,5.16,5.16,0,0,1-5.07-6.25,5.07,5.07,0,0,1,2.34-3.3c12.73-7.73,31.6-11.9,32.39-12.07a44,44,0,0,1,9.59-1.08C267,220.94,265.29,231.11,261.36,231.11Z"/><path class="cls-3" d="M253,229.12c.94,2.81,1.69,4.66,1.12,5.76s-3.81,3.42-6.46,3.37c0,0-4.15,5.89-7.92,1.72-.42,1.9-2.91,3.33-5,3.33h-.27a3,3,0,0,1-2.57-1.31c-3.36,1.71-5.43-1.68-8.54-4.09s-4.57-3.18-4.39-7.86a17.37,17.37,0,0,0-.94-5.37,51.62,51.62,0,0,0-10.65-6.29c-3.63-1.62-7.43-2.92-11.63-4.39a210.28,210.28,0,0,1-45-22,10.07,10.07,0,0,1-3-2.53,8.83,8.83,0,0,1-1.27-3.87c-1.11-8,2.37-15.75,6.68-22.61,3.82-6.08,14.9-19.93,24.42-29,6.16.2,19.09,5.13,29.58,9.69.07,0,0-.51,0-.51s-15.68,27.38-23.51,31.82c1,1.35,2.1,2.72,3.27,4.16s2.46,3,4,4.65c2.7,3,12.58,11.54,15.59,14.23,6,3.19,13.2,6.79,20.28,10.09s14.05,6.3,19.62,8.29a73.29,73.29,0,0,1,12.51,5.8l-8.56,1.37A25.77,25.77,0,0,1,253,229.12Z"/><path class="cls-4" d="M216.54,220.68s2.58,5.64,2.43,9.36c-.18,4.68,1.29,5.45,4.39,7.86s5.17,5.8,8.53,4.08"/><path class="cls-4" d="M228.23,236s4.06,7.2,6.23,7.33,4.87-1.34,5.3-3.32"/><path class="cls-4" d="M234.42,232.06s4.05,7.71,6.31,8.07,4-1.88,4-1.88"/><path class="cls-13" d="M247.69,238.25s-4.39,5.88-8.16,1.71"/><path class="cls-4" d="M240,225.51s2.51,4.51,3.3,6,2.75,6.44,5.4,6.49a6.73,6.73,0,0,0,5.45-3.12c.56-1.09-.18-2.95-1.12-5.75s-1.64-4.89-5.88-8.87"/><path class="cls-4" d="M245.72,231.75a30,30,0,0,0,4.61-1.85"/><path class="cls-4" d="M177.58,134.06c-9.8,9.1-20.48,22.68-24.41,28.95-4.31,6.86-7.79,14.59-6.68,22.61a8.79,8.79,0,0,0,1.27,3.87,10.11,10.11,0,0,0,3,2.53,210.15,210.15,0,0,0,45,22c8.4,2.92,15.18,5.22,22.28,10.68"/><path class="cls-4" d="M175.2,165.29c6.84,6.86,9.19,11.39,15.68,18.59,2.7,3,12.58,11.54,15.59,14.23"/><path class="cls-25" d="M194.16,191.09c8.3,5.43,36.12,19.67,52.21,25.4a73.38,73.38,0,0,1,12.51,5.8s-6.34.45-8.56,1.37"/><path class="cls-4" d="M206.47,144.44s-15,26.18-22.82,30.63"/><path d="M224.25,228.71a3.57,3.57,0,0,0,.85,4.35,1,1,0,0,0,1.41,0,1,1,0,0,0,0-1.41,1.59,1.59,0,0,1-.53-1.94c.56-1.15-1.15-2.16-1.72-1Z"/><path d="M231.53,226.54a1.79,1.79,0,0,1,2.05-1.51,1,1,0,0,0,1-1,1,1,0,0,0-1-1,3.72,3.72,0,0,0-4,3,1,1,0,0,0,.7,1.23,1,1,0,0,0,1.23-.7Z"/><path d="M239.78,222.34a3.69,3.69,0,0,1,.7-2.54c.74-1.05-1-2-1.72-1a5.43,5.43,0,0,0-1,3.55c.1,1.27,2.1,1.28,2,0Z"/><path class="cls-17" d="M158.8,116.71c-2.23,23,28.69,11.93,51.08,29.6"/><path d="M369,425.06a71.93,71.93,0,0,1,3.13,8.91c.43,1.52.81,3,1.18,4.58l.49,2.32c.18.77.28,1.55.43,2.33s.27,1.56.36,2.35l.3,2.36.21,2.37c.08.79.11,1.58.14,2.37s.08,1.59.09,2.38v2.38c0,1.59-.14,3.18-.21,4.77L373,461.7c.11-.35.22-.83.31-1.26s.17-.9.23-1.35c.14-.91.23-1.83.31-2.75s.1-1.86.11-2.79c0-.46,0-.93,0-1.4s0-.93,0-1.4c0-.93-.06-1.87-.12-2.8s-.15-1.87-.2-2.8l-.24-2.8-.29-2.8v-.12a1.35,1.35,0,0,1,2.55-.73,12.06,12.06,0,0,1,.48,1.16c.13.37.26.74.37,1.11.23.74.39,1.49.54,2.24a30.55,30.55,0,0,1,.54,4.5c0,.75.06,1.5,0,2.25s0,1.49-.11,2.23-.16,1.48-.24,2.22-.24,1.46-.37,2.19a.14.14,0,0,1-.28,0h0c0-.74-.09-1.47-.12-2.2s-.1-1.45-.19-2.18-.14-1.44-.26-2.15-.22-1.42-.33-2.13a42.29,42.29,0,0,0-1-4.14c-.2-.67-.43-1.34-.68-2-.12-.33-.25-.64-.39-1s-.29-.64-.41-.84l2.54-.85c.16,1,.33,1.91.47,2.87s.25,1.92.33,2.89.17,1.94.17,2.91,0,1.95,0,2.92c0,.49,0,1,0,1.46s0,1-.09,1.46c-.07,1-.17,1.95-.29,2.92s-.27,1.94-.47,2.91c-.09.48-.21,1-.33,1.45s-.24.94-.45,1.5a1.11,1.11,0,0,1-2.15-.47v0c.13-1.54.35-3.07.4-4.62l.11-2.32c0-.77,0-1.55,0-2.32s0-1.55,0-2.33l-.1-2.33-.19-2.32c-.05-.78-.15-1.55-.24-2.32s-.16-1.55-.29-2.32l-.35-2.31c-.27-1.54-.56-3.07-.9-4.59a71.41,71.41,0,0,0-2.58-9,.14.14,0,0,1,.08-.19A.15.15,0,0,1,369,425.06Z"/><path d="M147.75,442.14c-3.07-2.64-6.13-5.27-9.12-8l.8-.32a28.9,28.9,0,0,0,.3,3.62,25.88,25.88,0,0,0,.76,3.54,12.38,12.38,0,0,0,3.41,6l-1.16,1.14c-2.12-2.42-4.19-4.87-6.21-7.38-1-1.26-2-2.53-3-3.85-.47-.66-.95-1.33-1.39-2-.23-.34-.44-.71-.66-1.08a13.19,13.19,0,0,1-.6-1.2l2.15-.64c.13.53.29,1.1.46,1.65s.34,1.11.52,1.66q.55,1.65,1.19,3.27a64.08,64.08,0,0,0,2.94,6.28,52.66,52.66,0,0,0,3.65,5.81c.34.45.68.91,1,1.35s.73.86,1.09,1.29a27.54,27.54,0,0,0,2.4,2.36l0,0a1.3,1.3,0,0,1-1.65,2,30.16,30.16,0,0,1-2.81-2.47,31.39,31.39,0,0,1-2.44-2.8,37.34,37.34,0,0,1-3.86-6.25,53.2,53.2,0,0,1-2.78-6.72q-.59-1.71-1.09-3.45c-.16-.58-.32-1.16-.47-1.75s-.29-1.17-.42-1.79a1.13,1.13,0,0,1,2.11-.73l0,.08c.16.32.25.62.45,1s.35.66.56,1c.39.66.83,1.32,1.26,2,.89,1.3,1.82,2.59,2.77,3.86C140,442,142,444.55,144,447l0,0a.81.81,0,0,1-1.18,1.11,10.88,10.88,0,0,1-2.33-3.22,17.26,17.26,0,0,1-1.27-3.64,27.12,27.12,0,0,1-.61-3.74,29.79,29.79,0,0,1-.12-3.78h0a.47.47,0,0,1,.8-.31c1.39,1.44,2.85,2.85,4.3,4.26l4.35,4.23a.14.14,0,0,1-.19.21Z"/><path d="M155.9,331.53a6.74,6.74,0,0,0-.79.33c-.24.13-.54.27-.86.47a12.2,12.2,0,0,0-1,.7,12.64,12.64,0,0,0-1.11,1A15.23,15.23,0,0,0,151,335.2c-.35.44-.7.91-1,1.4a15.76,15.76,0,0,0-.9,1.54,10.29,10.29,0,0,0-.7,1.65c-.18.57-.41,1.09-.57,1.63s-.44,1-.66,1.48-.43.93-.65,1.34-.43.8-.6,1.15-.36.65-.52.89a8.55,8.55,0,0,1-.54.78h0a.16.16,0,0,1-.28-.06,7.18,7.18,0,0,1-.18-.93,10.14,10.14,0,0,1-.08-2.44c.05-.5.11-1,.22-1.61a11,11,0,0,1,.54-1.73,9.26,9.26,0,0,1,.94-1.71c.34-.57.76-1.11,1.15-1.66a18,18,0,0,1,1.27-1.56,16.61,16.61,0,0,1,1.41-1.35,13.21,13.21,0,0,1,1.47-1.07,13.88,13.88,0,0,1,1.41-.78,13.06,13.06,0,0,1,1.26-.5,8.19,8.19,0,0,1,1-.28,7,7,0,0,1,.9-.13.14.14,0,0,1,.05.28Z"/><path class="cls-7" d="M160.09,423.95l-.47,1.77H158v-1.45a9.28,9.28,0,0,0-3.11.4,1.82,1.82,0,0,0-1.13.79,37.3,37.3,0,0,0-.7,5.74,56.33,56.33,0,0,0,7.29,12.74A12.27,12.27,0,0,0,162,446c.63.48.75,1.15,4,1l1-1.79h1.7l-.51,1.64h2.65l.83-1.47h2.31l-.51,1.47h1.88l1-1.22Z"/><path d="M159.13,423.68c-.43,1.62.47,1-1.09,1l1,1v-1.45a1,1,0,0,0-1-1c-3.69.11-5.11.73-5.61,4.34-.61,4.4,1,7.19,3.25,11.06,1.56,2.65,3.82,7.67,6.91,9,1.05.45,3,.73,4,.12,1.75-1.09,0-1.58,2.12-1.58l-1-1.26-.51,1.64a1,1,0,0,0,1,1.26h2.65a1,1,0,0,0,.86-.49c.78-1.39.31-1,2.28-1l-1-1.26-.51,1.47a1,1,0,0,0,1,1.26c2,0,2.32,0,3.61-1.52a1,1,0,0,0,.16-1.21l-16.25-21.68c-.76-1-2.49,0-1.72,1l9.5,12.68,5.49,7.32a8,8,0,0,1,1.2,1.6c-.45-1.28.4-.67-.47-.21a11.75,11.75,0,0,1-1.52,0l1,1.26.51-1.47a1,1,0,0,0-1-1.26h-2.31a1,1,0,0,0-.86.49c-.79,1.4-.33,1-2.62,1l1,1.26.51-1.64a1,1,0,0,0-1-1.26H167a1,1,0,0,0-.86.49c-1.32,2.3-3,1.23-4.41-.6a60.26,60.26,0,0,1-4.57-6.9c-2-3.57-6.14-11.73.9-11.95l-1-1v1.45a1,1,0,0,0,1,1h1.58a1,1,0,0,0,1-.73l.47-1.77A1,1,0,0,0,159.13,423.68Z"/><path class="cls-3" d="M230.9,298.5c-.24,5.61-2.9,10.89-6.44,15.24-3,3.74-6.74,6.91-9.85,10.6a89.07,89.07,0,0,0-8.79,13.44l-10.46,18.33L187.4,370c-2.39,4.17-4.85,8.88-3.7,13.55h-17v-8c2.86-8.68,3.31-17.94,4.32-27s2.71-18.4,7.69-26.07c2.94-4.54,6.91-8.3,10.83-12l5.53-5.25-3.47-12.49c-12.49-16.9-24.69-33.85-27.8-54.62,4.27,2,14.05,6.13,20.67,6.21,14.55.17,20.28-7.28,20.42-13.86h0c6.85,14.95,15.34,36.49,21.8,51.61C228.91,287.32,231.15,292.8,230.9,298.5Z"/><path class="cls-1" d="M184.94,406.08c1.14-1.27.48-3.45.32-5.15l-.47-5.11a11.82,11.82,0,0,1-.07-1.48,8.46,8.46,0,0,0,0-1.81c-.08-.42-.27-.82-.36-1.24-.25-1.16.25-2.37.08-3.55-.2-1.48-1.43-2.88-1-4.31l-.21,0a23.73,23.73,0,0,1-8.52-1.44,13.38,13.38,0,0,1-4.33-2.25,16.67,16.67,0,0,1-1.64-1.67l-2.5-2.79-.06.11c-.09.93-.85,1.64-1.22,2.49a10.1,10.1,0,0,0-.51,2.23c-.58,3-2.65,5.45-4.65,7.76l-.69,18.89,13.73,4.36Z"/><path d="M185.8,406.59c1.51-3,.32-6.67.07-9.91-.15-1.93-.2-3.86-.32-5.79-.15-2.36-1.05-5.2-1-7.46a1,1,0,0,0-1-1A30.41,30.41,0,0,1,175,381c-3.53-1.28-5.6-3.75-8-6.46a1,1,0,0,0-1.57.2,26.2,26.2,0,0,0-1.7,3.93,21.85,21.85,0,0,1-1.88,5c-.68,1.12-2.33,2.33-2.78,3.52a13.6,13.6,0,0,0-.34,4.12l-.56,15.37a1,1,0,0,0,.73,1l6.87,2.18c2,.62,4.79,2.17,6.87,2.18,1.8,0,4-1.45,5.64-2.13l6.91-2.88c1.17-.49.65-2.42-.53-1.92l-6,2.51c-1.38.57-2.77,1.12-4.13,1.72-.36.16-2.2.78-1.43.76-2,.06-4.88-1.55-6.78-2.15-2.08-.66-4.89-1.05-6.78-2.15,1.21.7.39,1,.7-.56a24,24,0,0,0,.13-3.7l.32-8.94c.1-2.62-.14-3.89,1.36-5.83,2.7-3.47,3.17-7.23,5.11-11l-1.57.2c2.22,2.49,4.09,4.83,7.14,6.28a23.4,23.4,0,0,0,5.12,1.63c1.14.24,3.63.05,4.57.52q1.7-.2.08.45a4.14,4.14,0,0,0,.56,1.69c0,2.09.37,4.3.51,6.41.23,3.46,2.1,9.45.5,12.64C183.51,406.73,185.23,407.74,185.8,406.59Z"/><path d="M167.63,375.87c4-13,3.18-26.68,6.47-39.77,3.62-14.37,14.1-23,24.42-32.79.93-.88-.48-2.29-1.41-1.41-9.57,9.07-19.88,17.36-24,30.37-4.43,14-3,29-7.4,43.07-.38,1.23,1.54,1.75,1.92.53Z"/><path d="M204,231c5.8,12.74,11,25.72,16.38,38.65,2.41,5.82,5.09,11.59,7.27,17.5,3.26,8.83,2.69,16.93-3,24.65-4.28,5.83-10,10.34-14.16,16.33s-7.61,12.75-11.28,19.16l-10.94,19.16c-3.15,5.51-6.58,10.83-5.57,17.41.19,1.26,2.12.73,1.92-.53-1.3-8.47,6.64-18.1,10.66-25.15q5.67-9.94,11.35-19.87a99.16,99.16,0,0,1,14.85-19.81c4.29-4.49,8.18-9.43,9.71-15.58,3-12.12-5.4-25.25-9.87-36.07-5.09-12.33-10.11-24.71-15.64-36.86-.53-1.17-2.25-.15-1.72,1Z"/><path d="M193.12,293.18c-12.39-16.78-25-34.26-28.4-55.32-.21-1.26-2.13-.73-1.92.53,3.44,21.22,16.11,38.89,28.6,55.8.75,1,2.49,0,1.72-1Z"/><polygon class="cls-26" points="212.04 446.85 193.11 440.68 192.36 436.32 212.28 441.94 212.04 446.85"/><ellipse class="cls-13" cx="221.55" cy="445.38" rx="2.78" ry="7.61"/><path class="cls-5" d="M219.2,450.6c1.23,0,2.22-2.37,2.22-5.3s-1-5.3-2.22-5.3l-5.13,1.2v8Z"/><path class="cls-6" d="M159.9,387.85a34,34,0,0,0,.14,6.25c.7,5,4.31,10.29,8.32,13.28a13,13,0,0,1,2.67-5c.73-.72,3.78-3.93,7.37-3.48s4.69,2.29,5.62,4.38a37.68,37.68,0,0,1,1.26,4.69,306.66,306.66,0,0,1,8,32,10.68,10.68,0,0,1,.27,3.63,3.7,3.7,0,0,1-2,2.89,12.38,12.38,0,0,1-3.79.94c-6.75-.54-11.16-1.38-17.35-4.1-2.75-1.21-6.57-4.36-7.86-7.08a14.12,14.12,0,0,1-1-3.64L159,417.62a12.77,12.77,0,0,0-.61-2.49,20.48,20.48,0,0,0-1.69-3,17.49,17.49,0,0,1-2.27-11.45,31.68,31.68,0,0,1,5.47-12.88"/><path d="M158.9,387.85c-.3,8.21,2.23,15,8.76,20.23a1,1,0,0,0,1.67-.44c2-5.46,10.47-12.2,13.84-3.61,1.8,4.59,2.84,9.74,4.13,14.51q2.42,8.91,4.29,18c.72,3.47,1.2,8.91-2.94,9.88-2.73.64-6.78-.46-9.44-1.06-5.23-1.19-10.92-3.14-14.36-7.51s-3.34-11.48-4.26-16.69a33.07,33.07,0,0,0-1.33-6.38c-1-2.62-2.85-4.74-3.58-7.53-1.74-6.72,1.46-13.36,5-18.86.7-1.08-1-2.08-1.72-1-3.91,6-7.08,13.09-5.24,20.4,1.08,4.29,3.77,7.59,4.57,12s1.44,8.82,2.32,13.2c1.22,6.08,5.54,9.84,11.19,12.11,5.28,2.12,13.64,5,19.22,2.76s3-9.25,2-13.77c-2-9.49-4.67-18.82-7.28-28.15-1.23-4.4-3.38-8.48-8.74-8-5,.46-8.09,4.93-9.69,9.18l1.67-.44c-6.11-4.92-8.46-11.11-8.18-18.82,0-1.28-1.95-1.28-2,0Z"/><path d="M167.29,427.89a21.36,21.36,0,0,0,12.18,9.39,1,1,0,0,0,.53-1.92,19.25,19.25,0,0,1-11-8.47c-.67-1.09-2.39-.09-1.72,1Z"/><path d="M181.5,430.51a13.42,13.42,0,0,1,6.88.2,1,1,0,0,0,.53-1.92,15.58,15.58,0,0,0-7.94-.2c-1.25.29-.72,2.21.53,1.92Z"/><path d="M156.2,392.62a18,18,0,0,0,11.69,19.44c1.21.43,1.73-1.5.53-1.92a16,16,0,0,1-10.3-17c.18-1.26-1.74-1.8-1.92-.53Z"/><path d="M168.44,408.47a99.09,99.09,0,0,0,3.3,12.26c.74,2.32.8,4.52,3,5.83a1,1,0,0,0,1-1.72c-1.91-1.12-2.66-6.25-3.28-8.28a77,77,0,0,1-2.14-8.62c-.23-1.26-2.15-.73-1.92.53Z"/><path d="M174.88,423.86a16.35,16.35,0,0,1,13.76.35c1.15.56,2.16-1.16,1-1.72a18.54,18.54,0,0,0-15.77-.35c-1.18.5-.16,2.22,1,1.72Z"/><path d="M173.42,422.12a12.74,12.74,0,0,1,14.74-.55c1.08.7,2.08-1,1-1.72a14.62,14.62,0,0,0-16.75.55c-1,.75,0,2.49,1,1.72Z"/><path d="M172.19,418.13c4.69-3.46,10.16-4.31,15.08-.79,1,.75,2-1,1-1.72-5.42-3.89-11.87-3.07-17.1.79-1,.75,0,2.49,1,1.72Z"/><path d="M171.11,414.43c4.68-3,9.58-4,14.82-1.91,1.19.47,1.71-1.46.53-1.92-5.71-2.25-11.27-1.12-16.36,2.11-1.08.69-.08,2.41,1,1.72Z"/><path d="M170.8,411c4.28-3.22,9.88-4.72,14.28-.8,1,.85,2.37-.55,1.41-1.41-5-4.49-11.61-3.33-16.69.49-1,.76,0,2.49,1,1.72Z"/><path d="M169.43,408.35c3.09-3.07,11.48-5.72,14.4-1.39.71,1.06,2.44.06,1.72-1-3.76-5.56-13.44-3.09-17.53,1a1,1,0,0,0,1.41,1.41Z"/><path d="M175,426.66c4.34,1.07,12.75,3.2,15.6-1.56a1,1,0,0,0-1.72-1c-2.08,3.48-10.27,1.4-13.35.64-1.25-.31-1.78,1.62-.53,1.92Z"/><ellipse class="cls-5" cx="214.07" cy="445.21" rx="1.88" ry="4.02"/><path d="M165.7,411.34c.79,4,1.84,8,2.85,11.91a1,1,0,0,0,1.92-.53c-1-4-2.06-7.9-2.85-11.91-.25-1.26-2.17-.73-1.92.53Z"/><path d="M164,446.75c.32-1.9,1.16-4,1.22-5.89,0-1.65-.2-1.7-1.33-3.33-2.9-4.2-5.51-8.6-8.21-12.93-.68-1.09-2.4-.09-1.72,1,2.15,3.45,4.25,6.94,6.47,10.34,1,1.5,2.61,3.16,2.75,5,.11,1.54-.85,3.68-1.11,5.23-.21,1.26,1.71,1.8,1.92.53Z"/><ellipse cx="158.04" cy="435.85" rx="1.15" ry="1.92"/><path d="M190.61,289.74c1.2,4.42,4.73,11.43,2.44,15.88-.59,1.14,1.13,2.15,1.72,1,2.68-5.21-.85-12.28-2.24-17.42a1,1,0,0,0-1.92.53Z"/><path d="M203.38,306.41c1,2.7,1.79,5.52,3,8.13.75,1.67,1.82,3.12,3.7,3.51,1.25.26,1.79-1.66.53-1.92-2-.42-2.59-2.77-3.2-4.47l-2.07-5.78c-.43-1.2-2.36-.68-1.92.53Z"/><path d="M198.24,322.39l2.11,3.12c.71,1.06,2.44.06,1.72-1L200,321.38c-.71-1.06-2.44-.06-1.72,1Z"/><path d="M200.48,336a328.3,328.3,0,0,1-17.62,30.78c-.7,1.08,1,2.08,1.72,1A328.3,328.3,0,0,0,202.2,337c.58-1.14-1.14-2.15-1.72-1Z"/><path d="M166.16,392.6a17.81,17.81,0,0,0,12.6,2c1.26-.21.73-2.13-.53-1.92a15.61,15.61,0,0,1-11.06-1.84,1,1,0,0,0-1,1.72Z"/><path d="M177.23,391.21a46.5,46.5,0,0,0,6.68-.13c1.27-.12,1.28-2.11,0-2a46.5,46.5,0,0,1-6.68.13c-1.28-.07-1.28,1.93,0,2Z"/><path class="cls-4" d="M146.28,213.17s5.37,28.14,38.16,31.16c20.93,1.92,23.62-15.4,17.61-21.35,0,0-6.38-7.18-27.91-7.76"/><path d="M182.82,255.09c3,6.3,6.05,12.53,11.08,17.45.92.9,2.33-.51,1.41-1.41-4.91-4.81-7.88-10.91-10.77-17-.55-1.16-2.27-.15-1.72,1Z"/><path class="cls-4" d="M248.71,237.49"/><path class="cls-4" d="M243.63,253.72"/><path class="cls-5" d="M296.7,276.19l12.68-1.27c.77-.09,1,.55,1.13,1.42a1.51,1.51,0,0,1-1.22,1.75L298,279.38a1.51,1.51,0,0,1-1.58-1.43C296.29,277.08,295.93,276.28,296.7,276.19Z"/><path class="cls-17" d="M175.2,83.6s-25.2,8.11-28.93,39.23"/><path class="cls-17" d="M209.89,109.8s0,12.22-16.75,8.61"/><path class="cls-1" d="M248.1,281.35l6.69.89c4,.52,9.35,1.3,14.69,2.06,2.67.38,5.35.7,7.85,1.1s4.8.92,6.77,1.38c3.95.92,6.54,1.78,6.54,1.78l0,.19s-2.73,0-6.76-.47c-2-.21-4.36-.51-6.85-.93s-5.12-1-7.77-1.55c-5.29-1-10.59-2.06-14.55-2.9l-6.61-1.36Z"/><path class="cls-1" d="M288.41,334.91s-.26.59-.74,1.6c-.24.51-.56,1.11-.91,1.8s-.77,1.47-1.22,2.31-1,1.75-1.53,2.69-1.21,1.9-1.86,2.91-1.31,2-1.93,3.14-1.22,2.22-1.8,3.36-1.16,2.27-1.76,3.38l-1.77,3.23c-1.16,2.09-2.3,4-3.32,5.63s-1.88,3-2.5,3.9l-1,1.45-.08,0,.75-1.59c.5-1,1.2-2.44,2.11-4.12s2-3.65,3.19-5.71l1.9-3.16c.66-1.07,1.34-2.15,2-3.22s1.36-2.16,2-3.24,1.21-2.18,1.74-3.25,1-2.11,1.58-3.07,1.06-1.85,1.55-2.67,1-1.57,1.38-2.22.78-1.23,1.1-1.69c.63-.93,1-1.45,1-1.45Z"/><path class="cls-1" d="M307.15,283.86a2.46,2.46,0,0,1,.19.29,8.4,8.4,0,0,1,.4.78,7.19,7.19,0,0,1,.38,1.12c0,.21.12.42.14.64l.11.67a11.07,11.07,0,0,1,.06,1.33,7.36,7.36,0,0,1-.11,1.18,8.68,8.68,0,0,1-.21.85,2.52,2.52,0,0,1-.12.33h-.09l-.47-3.58-.37-3.59Z"/><path class="cls-1" d="M308.75,298.87s.09.18.22.49.31.75.46,1.29a18.47,18.47,0,0,1,.47,1.85c.06.34.15.69.19,1.05l.16,1.09c.07.74.14,1.47.15,2.17a18.91,18.91,0,0,1,0,1.91c0,.56-.12,1-.15,1.36s-.1.52-.1.52H310l-.73-5.86-.64-5.87Z"/><circle class="cls-5" cx="321.55" cy="455.05" r="4.8"/><path class="cls-5" d="M313.43,457.25l-.23-1.62a2.26,2.26,0,0,1,1.92-2.56l3.86-.54a3.08,3.08,0,1,1,.86,6.1l-3.86.54A2.26,2.26,0,0,1,313.43,457.25Z"/><path class="cls-14" d="M318,459.2a2.56,2.56,0,0,1-2.56,2.56h-4.24c-3.08,0-3.2,4.63-.12,4.74h.51C318.66,466.5,318,459.2,318,459.2Z"/><path class="cls-5" d="M316,452.8a5,5,0,0,1,.86,6.1"/></g></g></svg>