<svg xmlns="http://www.w3.org/2000/svg" xmlns:xlink="http://www.w3.org/1999/xlink" viewBox="0 0 510 576"><defs><style>.cls-1{fill:#fff;}.cls-2,.cls-6{stroke:#333;stroke-miterlimit:10;}.cls-3{fill:#8c8c8c;}.cls-4{fill:#3d3d3d;}.cls-5{fill:#d6d6d6;}.cls-6{fill:none;}</style><symbol id="New_Symbol" data-name="New Symbol" viewBox="0 0 4 4"><circle cx="2" cy="2" r="2"/></symbol></defs><title>home-intro</title><g id="Layer_2" data-name="Layer 2"><g id="home-intro"><rect class="cls-1" width="510" height="576"/><path class="cls-2" d="M366.57,152.63a.81.81,0,0,0,1.4.8A.81.81,0,0,0,366.57,152.63Z"/><path class="cls-2" d="M382,150.54l-.13.23a.81.81,0,0,0,1.4.8l.13-.23A.81.81,0,0,0,382,150.54Z"/><path class="cls-2" d="M340.52,182.14c.54,3.19-.46,7.11-1,10.27-.49,2.78-1,5.45-1.33,8.26a147.1,147.1,0,0,0-.88,16.88,190.12,190.12,0,0,1-1.24,23.2c-.86,6.8-2.6,13.54-3,20.39-.84,14.19-1.45,28.38-3.12,42.51-.84,7.07-1.46,14.17-2.42,21.21-.7,5.08-2.7,11.49-1.81,16.56.18,1,1.73.59,1.56-.43-.55-3.16.61-7.16,1-10.26.39-2.79.88-5.58,1.14-8.38.7-7.6,1.8-15.18,2.6-22.78,1.45-13.69,1.4-27.51,2.86-41.17.76-7.08,2.53-14,3.16-21.13s.49-14.36.88-21.53c.33-6,.57-11.95,1.26-17.86.6-5.19,2.76-10.92,1.88-16.16C341.9,180.68,340.34,181.12,340.52,182.14Z"/><path class="cls-2" d="M42,396.48a.81.81,0,0,0,1.4.8A.81.81,0,0,0,42,396.48Z"/><path d="M357.06,57.65c16.53,6.23,29.43,20,36.09,36.19a.74.74,0,0,1,.4.19c1.35,1.2,2,2.72,3.24,4.06.87,1,2,1.73,2.88,2.65a16.55,16.55,0,0,1,3.45,5.27c.64,1.53,1,2.4.28,3.34a.48.48,0,0,1,.07.12,49.92,49.92,0,0,1,3,14.32c.24,4.5.45,9.32,1,13.91.55,1.87.81,3.73,1.28,5.67.72,3,1.85,5.83,2.75,8.74,1.55,5,2.18,10.18,3.51,15.2,1.11,4.21.49,8.58,1.57,12.85.55,2.19,1.22,4.36,1.76,6.55s.63,4.25,1.65,6.22c2.39,4.61,3.25,9.92,4.88,14.84,1.49,4.45,3.19,8.82,4.76,13.23,1.94,5.46,3.39,11,4.88,16.58,1.15,4.32,2.67,8.49,3.62,12.85.55,2.49,1.5,4.78,2.2,7.21s.85,5,1.45,7.54c1.15,4.71,2.12,9.51,3.49,14.17,1.54,5.25,2.81,10.64,4.87,15.71a110.28,110.28,0,0,1,4.77,13.82c2.76,10.49,5.84,20.88,8.65,31.36,2.64,9.8,5.34,19.49,8.19,29.22,1.38,4.73,3.2,9.4,4.3,14.18.36,1.6,1.41,2.92,1.87,4.49a4.75,4.75,0,0,1,.06,2.84c-.12.33-.31.69-.66.75a1,1,0,0,1-.62-.13,5.11,5.11,0,0,1-2.14-1.91,2.2,2.2,0,0,1,1.55-.2c.2-1.71-1.22-3.9-1.74-5.5-.63-1.93-1.17-3.89-1.77-5.84-1.66-5.38-2.91-10.88-4.6-16.23C464.54,351,461.76,340,458.54,329c-2.88-9.77-4.69-19.91-8.33-29.45a210.89,210.89,0,0,1-8.62-28.33c-4.22-18.52-9-37.23-15.52-55.11-1.81-5-3.52-9.92-4.94-15a42.62,42.62,0,0,0-2.61-7.4,12.22,12.22,0,0,1-1.16-3.13c-1-4.63-2.72-9.34-3.28-14-.23-1.87-.05-3.75-.17-5.63-.13-2.2-1.09-3.8-1.62-5.82-.61-2.31-.49-4.88-1-7.24a69.27,69.27,0,0,0-1.91-6.79c-.83-2.61-1.82-5.21-2.43-7.89-.08-.39-.15-.77-.23-1.16a.63.63,0,0,1-.47-.56c-.17-1.09-.29-2.2-.4-3.31-.08-.28-.16-.57-.27-.85-1.69-4.38-2.14-9-3.12-13.65a56.41,56.41,0,0,0-1.93-6.75c-.41-1.21-.56-3.26-1.21-4.6l-.21.33a.74.74,0,0,1-1.29.07c1.72,18.37-6.79,37.33-20.17,50.79a.74.74,0,0,1-.16.86,8.64,8.64,0,0,1-2.41,1.61,65.28,65.28,0,0,1-19.4,12.4c-15.37,6.18-31.83,4.49-45.62-2.89q-3.67,12.8-7.33,25.62l-47.62,166.4-47.78,167c-.29,1-1.85.6-1.57-.4l27-94.31,47.79-167q14-49.05,28.1-98.09a60.12,60.12,0,0,1-25.53-28.89.77.77,0,0,1-.37-.92,64.84,64.84,0,0,1-3.68-13.09.84.84,0,0,1-.13-.69,79.6,79.6,0,0,1,5.37-42.9.82.82,0,0,1-.27-1c.36-.78.74-1.55,1.13-2.3l-.38-.33s0,0,0,.06l-.19.34a.75.75,0,0,1-.06.65l-.18.32a.78.78,0,0,1-.09.11,52.51,52.51,0,0,1-4.68,5.65c-2.46,2.81-4.72,5.76-7.13,8.62a181.14,181.14,0,0,1-13.66,15c-5.35,5-9.55,11.36-14.38,16.89s-9.14,11.53-13.67,17.33c-16.23,20.76-31.6,42.29-47.21,63.52-3.47,4.71-6.8,9.62-10.65,14-4.28,4.91-8.69,9.79-12.62,15-7.69,10.18-15,20.67-22.66,30.85-7.87,10.39-16.49,20.17-24.51,30.43s-15.94,20.62-23.85,31c-7.76,10.15-16.6,19.55-24.56,29.57-4,5-7.59,10.26-11.09,15.64-1.88,2.88-4.11,5.61-5.65,8.7-1.28,2.55-2.31,5.18-3.71,7.69a.81.81,0,0,1-1.4-.8c1.75-3.14,2.94-6.58,4.82-9.63s4.12-6.13,6.12-9.22A160.18,160.18,0,0,1,64.9,361c9.24-11.13,18.71-22.13,27.55-33.58,7.91-10.27,15.7-20.68,23.94-30.69,8.7-10.58,17.47-21.11,25.41-32.28,7.16-10.09,14.19-20.58,22.46-29.81,8.56-9.53,16.17-19.91,23.74-30.24,15.37-21,31.2-41.58,46.67-62.46,3.72-5,7.67-9.71,11.67-14.53,4.12-5,8-10.17,12.72-14.55,1.31-1.22,2.58-2.52,3.82-3.86a.74.74,0,0,1,.07-.62c5.26-9.57,12.62-18.05,17.83-27.63a.75.75,0,0,1,.13-.16.84.84,0,0,1,.18-.82c1.47-1.88,2.27-4.4,4.55-5.47a11.88,11.88,0,0,1,3.22-.76c1.46-.24,2.82-.76,4.27-1a.86.86,0,0,1,.63.14C309.38,55.84,334.78,49.25,357.06,57.65Zm37.5,45.52C388.75,80.43,370.63,61,347.2,56.57c-23.84-4.56-48.6,7-60.12,28.2a.8.8,0,0,1,.2.76,2.07,2.07,0,0,1-.07.21.82.82,0,0,1-.18.32,78,78,0,0,0-6.46,44.41c.64.19,1,.71,1.73,1.35a51.26,51.26,0,0,0,6.18,4.67c4.95,3.08,10.56,4.61,16,6.63,4,1.48,8,2.89,12.06,4.13q4.9-17.23,9.77-34.46a4.2,4.2,0,0,1-2.26-5.14.86.86,0,0,1-.13-.86,75.25,75.25,0,0,0,2.54-9.33c.6-2.32,1.33-6,3.38-7.59a5.25,5.25,0,0,1,7.6,1,.79.79,0,0,1,.1-.46A.75.75,0,0,1,338,90a17.19,17.19,0,0,1,.87-2.4.75.75,0,0,1,.06-.2l.09-.15a.81.81,0,0,1,1.4.8c-1.73,3.53-1.92,8-2.87,11.79-.83,3.27-1.41,6.59-2.21,9.86a6.08,6.08,0,0,1-1.3,2.73h0a.81.81,0,0,1-1.26.86c-1.29.5-2.94.28-4.91-.15Q323,130.43,318,147.68a116,116,0,0,0,12.34,2.94c8.31,1.47,16.85,1.85,25.16,3.38a51.08,51.08,0,0,0,29.87-3,83.4,83.4,0,0,0,5.1-9.11C396.49,129.42,398,116.59,394.56,103.16ZM396,99.6A14,14,0,0,1,394.7,98a66.22,66.22,0,0,1,3,12.88,7,7,0,0,0,.79-.24l.3-.37a.76.76,0,0,1,.89-.15c1.21-.59,2.38-1.4,2.47-2,.25-1.51-2-4.28-2.89-5.46A35.33,35.33,0,0,0,396,99.6Zm6.13,10.88a16.56,16.56,0,0,1-1.41.93,16.66,16.66,0,0,1,.82,3.17c.58,2.3,1.62,4.43,2.16,6.75.69,3,1.1,6.15,1.71,9.23-.09-1.38-.2-2.77-.35-4.13-.32-2.95-.19-5.91-.73-8.83A47,47,0,0,0,402.1,110.48Zm-65.24-16c.1-2.07-1.72-5.41-4.67-3.92a24.18,24.18,0,0,0-3,3.65c-1.05,1.83-1.22,4.11-1.83,6.1-.47,1.5-.79,3.1-1.2,4.64l.13-.07c3.39-1.56,5.9,2.67,7.12,5.77a5.42,5.42,0,0,0,.42-1.51.81.81,0,0,1-.09-.16l-.1-.37a.72.72,0,0,1,.37-.87c0-.15,0-.3.08-.43.46-2.1,1-4.2,1.51-6.29a.68.68,0,0,1-.48-.73l0-.59a.83.83,0,0,1,1-.78c.21-.92.41-1.84.59-2.77q.13-.64.24-1.31A.76.76,0,0,1,336.86,94.48ZM292.3,74.34a30.48,30.48,0,0,0-5.55,1.32c-1.93.76-2.94,3-4.14,4.75a12.21,12.21,0,0,0,1.75,1.7c.51.49,1,1,1.53,1.5A54.57,54.57,0,0,1,292.3,74.34ZM329.45,107a.77.77,0,0,1,0,.41c-.39,1.36-.77,2.71-1.16,4.07.27,0,.58,0,.77.1a6.46,6.46,0,0,0,3,.13C331.57,110.16,330.61,107.77,329.45,107ZM327,110.15l.78-2.73-2,1ZM282,81.95c-4,7.35-9.32,14-13.92,21.12,1.1-1.32,2.18-2.63,3.26-3.92,2.26-2.69,4.3-5.48,6.64-8.08a60.43,60.43,0,0,0,4.69-5.53.75.75,0,0,1,.08-.57l.67-1.17a.75.75,0,0,1,.28-.29C283.09,83,282.46,82.44,282,81.95Zm92.38,82.44a72.42,72.42,0,0,0,9.45-11c-16.63,6.12-33.66,1.25-50.83-.67a91.73,91.73,0,0,1-15.43-3.28q-1.38,4.87-2.77,9.72c2.12.67,4.24,1.33,6.4,1.82,3.81.85,7.61,1.66,11.42,2.52a184.3,184.3,0,0,0,18.77,3,80.65,80.65,0,0,0,12.73.46,24.64,24.64,0,0,0,6.76-1.25C371.6,165.42,373.07,164.95,374.35,164.39Zm-3.34,3c-1,.25-1.9.45-2.72.65-3.81.91-8.12.76-12,.51a215.61,215.61,0,0,1-21.54-2.86c-6.94-1.14-13.63-3.22-20.37-5.1q-1.91,6.67-3.81,13.33a52.89,52.89,0,0,0,53-1.26A61.7,61.7,0,0,0,371,167.35Zm-57.76-8.71q1.38-4.84,2.76-9.69c-3.3-1-6.54-2.14-9.65-3.3-5-1.85-10.11-3.44-14.89-5.74a37.74,37.74,0,0,1-6.19-3.7c-.81-.6-2.83-2.78-4.32-3.73a63.6,63.6,0,0,0,3.49,12c3.55,2.37,6.45,5.46,10.26,7.61a52.34,52.34,0,0,0,14,5.3C310.24,157.74,311.74,158.19,313.24,158.65Zm-4.12,14.45,3.69-12.94c-1.72-.47-3.43-.92-5.16-1.33a50.84,50.84,0,0,1-13.13-5,99.74,99.74,0,0,1-8.59-5.93,58.09,58.09,0,0,0,23.19,25.16Z"/><path class="cls-3" d="M347.2,56.57c23.42,4.47,41.54,23.86,47.36,46.6,3.44,13.43,1.94,26.26-4.06,38.72a83.4,83.4,0,0,1-5.1,9.11,51.08,51.08,0,0,1-29.87,3c-8.31-1.53-16.85-1.91-25.16-3.38A116,116,0,0,1,318,147.68q4.92-17.24,9.8-34.51c2,.43,3.62.65,4.91.15a.81.81,0,0,0,1.26-.86h0a6.08,6.08,0,0,0,1.3-2.73c.8-3.28,1.38-6.6,2.21-9.86,1-3.78,1.14-8.26,2.87-11.79a.81.81,0,0,0-1.4-.8l-.09.15a.75.75,0,0,0-.06.2A17.19,17.19,0,0,0,338,90a.75.75,0,0,0-.43.35.79.79,0,0,0-.1.46,5.25,5.25,0,0,0-7.6-1c-2.05,1.54-2.78,5.27-3.38,7.59a75.25,75.25,0,0,1-2.54,9.33.86.86,0,0,0,.13.86,4.2,4.2,0,0,0,2.26,5.14Q321.4,130,316.5,147.23c-4.07-1.24-8.08-2.64-12.06-4.13-5.41-2-11-3.55-16-6.63a51.26,51.26,0,0,1-6.18-4.67c-.74-.64-1.09-1.16-1.73-1.35A78,78,0,0,1,287,86.05a.82.82,0,0,0,.18-.32,2.07,2.07,0,0,0,.07-.21.8.8,0,0,0-.2-.76C298.6,63.56,323.36,52,347.2,56.57ZM328.43,88.93a.81.81,0,0,0-1.4-.8A.81.81,0,0,0,328.43,88.93Zm-2.37,8.56a.81.81,0,0,0-1.4-.8l-.13.23a.81.81,0,0,0,1.4.8Zm-2.51,8.79a.81.81,0,0,0-1.4-.8l-.13.23a.81.81,0,0,0,1.4.8Zm21.92,44.88a.82.82,0,0,0-1-.57l-.06,0c-.89-.34-1.63,1-.72,1.42a1.51,1.51,0,0,0,1.22.11A.83.83,0,0,0,345.48,151.15Zm-61.1-19.51a.86.86,0,1,0-1.13.31l.22.06a.79.79,0,0,0,.77-.21Zm15,8.55a.81.81,0,0,0-1.4-.8l-.14.24a.81.81,0,0,0,1.4.8Z"/><path class="cls-4" d="M394.7,98A14,14,0,0,0,396,99.6a35.33,35.33,0,0,1,3.25,3.12c.89,1.18,3.14,4,2.89,5.46-.09.56-1.26,1.36-2.47,2a.76.76,0,0,0-.89.15l-.3.37a7,7,0,0,1-.79.24A66.22,66.22,0,0,0,394.7,98Z"/><path class="cls-4" d="M400.69,111.41a16.56,16.56,0,0,0,1.41-.93,47,47,0,0,1,2.2,7.12c.54,2.92.4,5.88.73,8.83.15,1.37.26,2.75.35,4.13-.61-3.08-1-6.24-1.71-9.23-.54-2.32-1.57-4.46-2.16-6.75A16.66,16.66,0,0,0,400.69,111.41Z"/><path class="cls-4" d="M332.19,90.57c2.95-1.49,4.77,1.85,4.67,3.92a.76.76,0,0,0,.06.36q-.12.67-.24,1.31c-.18.93-.37,1.85-.59,2.77a.83.83,0,0,0-1,.78l0,.59a.68.68,0,0,0,.48.73c-.51,2.1-1.05,4.19-1.51,6.29,0,.13,0,.28-.08.43a.72.72,0,0,0-.37.87l.1.37a.81.81,0,0,0,.09.16,5.42,5.42,0,0,1-.42,1.51c-1.22-3.1-3.73-7.33-7.12-5.77l-.13.07c.41-1.55.74-3.15,1.2-4.64.61-2,.77-4.28,1.83-6.1A24.18,24.18,0,0,1,332.19,90.57Z"/><path d="M327,88.13a.81.81,0,0,1,1.4.8A.81.81,0,0,1,327,88.13Z"/><path d="M324.66,96.69a.81.81,0,0,1,1.4.8l-.13.23a.81.81,0,0,1-1.4-.8Z"/><path class="cls-4" d="M286.75,75.66a30.48,30.48,0,0,1,5.55-1.32,54.57,54.57,0,0,0-6.42,9.26c-.51-.5-1-1-1.53-1.5a12.21,12.21,0,0,1-1.75-1.7C283.81,78.68,284.82,76.42,286.75,75.66Z"/><path class="cls-4" d="M329.45,107.46a.77.77,0,0,0,0-.41c1.17.73,2.12,3.12,2.65,4.71a6.46,6.46,0,0,1-3-.13c-.19-.05-.5-.06-.77-.1C328.69,110.17,329.07,108.81,329.45,107.46Z"/><path class="cls-4" d="M327.79,107.42l-.78,2.73-1.24-1.74Z"/><path class="cls-4" d="M268,103.07C272.64,96,277.92,89.3,282,81.95c.5.5,1.12,1.05,1.71,1.57a.75.75,0,0,0-.28.29L282.73,85a.75.75,0,0,0-.08.57A60.43,60.43,0,0,1,278,91.07c-2.34,2.6-4.38,5.39-6.64,8.08C270.23,100.43,269.15,101.75,268,103.07Z"/><path d="M322.15,105.48a.81.81,0,0,1,1.4.8l-.13.23a.81.81,0,0,1-1.4-.8Z"/><path class="cls-5" d="M383.8,153.35a72.42,72.42,0,0,1-9.45,11c-1.27.56-2.75,1-3.5,1.27a24.64,24.64,0,0,1-6.76,1.25,80.65,80.65,0,0,1-12.73-.46,184.3,184.3,0,0,1-18.77-3c-3.81-.86-7.61-1.67-11.42-2.52-2.17-.49-4.29-1.15-6.4-1.82q1.39-4.85,2.77-9.72A91.73,91.73,0,0,0,333,152.68C350.14,154.6,367.17,159.47,383.8,153.35Z"/><path d="M344.48,150.59a.81.81,0,1,1,.44,1.56,1.51,1.51,0,0,1-1.22-.11c-.91-.44-.17-1.76.72-1.42Z"/><path class="cls-5" d="M368.29,168c.82-.2,1.75-.4,2.72-.65a61.7,61.7,0,0,1-7.41,5.28,52.89,52.89,0,0,1-53,1.26q1.91-6.66,3.81-13.33c6.74,1.87,13.43,4,20.37,5.1a215.61,215.61,0,0,0,21.54,2.86C360.16,168.76,364.48,168.91,368.29,168Z"/><path d="M283.42,130.37a.81.81,0,0,1,1,1.28l-.15.17a.79.79,0,0,1-.77.21l-.22-.06A.81.81,0,0,1,283.42,130.37Z"/><path class="cls-5" d="M316,149q-1.39,4.85-2.76,9.69c-1.5-.46-3-.91-4.53-1.25a52.34,52.34,0,0,1-14-5.3c-3.8-2.15-6.71-5.24-10.26-7.61a63.6,63.6,0,0,1-3.49-12c1.49,1,3.51,3.13,4.32,3.73a37.74,37.74,0,0,0,6.19,3.7c4.78,2.29,9.94,3.89,14.89,5.74C309.46,146.82,312.7,147.95,316,149Z"/><path d="M298,139.4a.81.81,0,0,1,1.4.8l-.14.24a.81.81,0,0,1-1.4-.8Z"/><path class="cls-5" d="M312.82,160.15l-3.69,12.94a58.09,58.09,0,0,1-23.19-25.16,99.74,99.74,0,0,0,8.59,5.93,50.84,50.84,0,0,0,13.13,5C309.39,159.23,311.1,159.68,312.82,160.15Z"/><path class="cls-6" d="M344.48,150.59l-.06,0c-.89-.34-1.63,1-.72,1.42a1.51,1.51,0,0,0,1.22.11.81.81,0,1,0-.44-1.56Z"/><path class="cls-6" d="M298,139.4l-.14.24a.81.81,0,0,0,1.4.8l.14-.24A.81.81,0,0,0,298,139.4Z"/><path class="cls-6" d="M283.42,130.37a.81.81,0,0,0-.18,1.59l.22.06a.79.79,0,0,0,.77-.21l.15-.17A.81.81,0,0,0,283.42,130.37Z"/><path class="cls-6" d="M322.15,105.48l-.13.23a.81.81,0,0,0,1.4.8l.13-.23A.81.81,0,0,0,322.15,105.48Z"/><path class="cls-6" d="M324.66,96.69l-.13.23a.81.81,0,0,0,1.4.8l.13-.23A.81.81,0,0,0,324.66,96.69Z"/><path class="cls-6" d="M327,88.13a.81.81,0,0,0,1.4.8A.81.81,0,0,0,327,88.13Z"/><path class="cls-6" d="M357.06,57.65c-22.28-8.39-47.68-1.81-63.32,15.07a.86.86,0,0,0-.63-.14c-1.45.24-2.81.75-4.27,1a11.88,11.88,0,0,0-3.22.76c-2.28,1.07-3.08,3.59-4.55,5.47a.84.84,0,0,0-.18.82.75.75,0,0,0-.13.16c-5.21,9.58-12.57,18.05-17.83,27.63a.74.74,0,0,0-.07.62c-1.24,1.34-2.51,2.64-3.82,3.86-4.76,4.38-8.6,9.58-12.72,14.55-4,4.81-7.95,9.5-11.67,14.53-15.47,20.87-31.3,41.5-46.67,62.46-7.57,10.34-15.18,20.71-23.74,30.24-8.28,9.23-15.3,19.72-22.46,29.81-7.93,11.17-16.71,21.7-25.41,32.28-8.24,10-16,20.42-23.94,30.69C83.61,338.89,74.15,349.89,64.9,361a160.18,160.18,0,0,0-11.13,15.21c-2,3.09-4.19,6.08-6.12,9.22s-3.07,6.49-4.82,9.63a.81.81,0,0,0,1.4.8c1.4-2.51,2.43-5.14,3.71-7.69,1.54-3.09,3.78-5.82,5.65-8.7,3.5-5.38,7.09-10.62,11.09-15.64,8-10,16.8-19.41,24.56-29.57,7.91-10.35,15.83-20.7,23.85-31s16.64-20,24.51-30.43c7.7-10.18,15-20.67,22.66-30.85,3.93-5.19,8.34-10.07,12.62-15,3.85-4.42,7.18-9.33,10.65-14,15.61-21.23,31-42.76,47.21-63.52,4.53-5.79,8.82-11.8,13.67-17.33s9-11.85,14.38-16.89a181.14,181.14,0,0,0,13.66-15c2.42-2.85,4.67-5.8,7.13-8.62A52.51,52.51,0,0,0,284.27,86a.78.78,0,0,0,.09-.11l.18-.32a.75.75,0,0,0,.06-.65l.19-.34s0,0,0-.06l.38.33c-.39.75-.77,1.52-1.13,2.3a.82.82,0,0,0,.27,1A79.6,79.6,0,0,0,279,131.1a.84.84,0,0,0,.13.69,64.84,64.84,0,0,0,3.68,13.09.77.77,0,0,0,.37.92,60.12,60.12,0,0,0,25.53,28.89q-14,49-28.1,98.09l-47.79,167-27,94.31c-.29,1,1.28,1.39,1.57.4l47.78-167,47.62-166.4q3.66-12.81,7.33-25.62c13.79,7.38,30.26,9.07,45.62,2.89a65.28,65.28,0,0,0,19.4-12.4,8.64,8.64,0,0,0,2.41-1.61.74.74,0,0,0,.16-.86c13.38-13.46,21.88-32.42,20.17-50.79a.74.74,0,0,0,1.29-.07l.21-.33c.64,1.34.8,3.39,1.21,4.6a56.41,56.41,0,0,1,1.93,6.75c1,4.6,1.43,9.27,3.12,13.65.11.28.19.57.27.85.1,1.11.23,2.22.4,3.31a.63.63,0,0,0,.47.56c.08.39.15.77.23,1.16.6,2.68,1.6,5.29,2.43,7.89a69.27,69.27,0,0,1,1.91,6.79c.48,2.36.36,4.93,1,7.24.53,2,1.49,3.62,1.62,5.82.12,1.88-.06,3.75.17,5.63.56,4.7,2.3,9.41,3.28,14a12.22,12.22,0,0,0,1.16,3.13,42.62,42.62,0,0,1,2.61,7.4c1.42,5.09,3.13,10.05,4.94,15,6.56,17.89,11.3,36.59,15.52,55.11a210.89,210.89,0,0,0,8.62,28.33c3.64,9.54,5.45,19.68,8.33,29.45,3.22,10.94,6,22,9.42,32.86,1.69,5.36,2.94,10.86,4.6,16.23.6,1.94,1.14,3.9,1.77,5.84.52,1.59,1.94,3.79,1.74,5.5a2.2,2.2,0,0,0-1.55.2,5.11,5.11,0,0,0,2.14,1.91,1,1,0,0,0,.62.13c.34-.07.54-.42.66-.75a4.75,4.75,0,0,0-.06-2.84c-.47-1.56-1.51-2.89-1.87-4.49-1.1-4.78-2.93-9.46-4.3-14.18-2.85-9.73-5.55-19.43-8.19-29.22-2.81-10.48-5.9-20.87-8.65-31.36A110.28,110.28,0,0,0,450.08,295c-2.06-5.07-3.33-10.46-4.87-15.71-1.37-4.66-2.34-9.46-3.49-14.17-.6-2.49-.74-5.08-1.45-7.54s-1.66-4.72-2.2-7.21c-1-4.36-2.46-8.54-3.62-12.85-1.49-5.59-2.94-11.12-4.88-16.58-1.57-4.42-3.27-8.79-4.76-13.23-1.63-4.93-2.5-10.23-4.88-14.84-1-2-1.13-4.08-1.65-6.22s-1.2-4.36-1.76-6.55c-1.08-4.27-.46-8.63-1.57-12.85-1.33-5-2-10.19-3.51-15.2-.89-2.91-2-5.78-2.75-8.74-.47-1.94-.73-3.8-1.28-5.67-.52-4.59-.73-9.41-1-13.91a49.92,49.92,0,0,0-3-14.32.48.48,0,0,0-.07-.12c.7-.94.37-1.81-.28-3.34a16.55,16.55,0,0,0-3.45-5.27c-.92-.92-2-1.68-2.88-2.65-1.2-1.34-1.88-2.87-3.24-4.06a.74.74,0,0,0-.4-.19C386.49,77.61,373.59,63.88,357.06,57.65Z"/><path class="cls-6" d="M284.35,82.1a12.21,12.21,0,0,1-1.75-1.7c1.2-1.72,2.22-4,4.14-4.75a30.48,30.48,0,0,1,5.55-1.32,54.57,54.57,0,0,0-6.42,9.26C285.37,83.1,284.87,82.59,284.35,82.1Z"/><path class="cls-6" d="M283.39,83.8,282.73,85a.75.75,0,0,0-.08.57A60.43,60.43,0,0,1,278,91.07c-2.34,2.6-4.38,5.39-6.64,8.08-1.08,1.29-2.16,2.61-3.26,3.92C272.64,96,277.92,89.3,282,81.95c.5.5,1.12,1.05,1.71,1.57A.75.75,0,0,0,283.39,83.8Z"/><path class="cls-6" d="M284.43,144.49a63.6,63.6,0,0,1-3.49-12c1.49,1,3.51,3.13,4.32,3.73a37.74,37.74,0,0,0,6.19,3.7c4.78,2.29,9.94,3.89,14.89,5.74,3.12,1.16,6.36,2.3,9.65,3.3q-1.39,4.85-2.76,9.69c-1.5-.46-3-.91-4.53-1.25a52.34,52.34,0,0,1-14-5.3C290.89,150,288,146.86,284.43,144.49Z"/><path class="cls-6" d="M296.08,162.74a57.79,57.79,0,0,1-10.14-14.8,99.74,99.74,0,0,0,8.59,5.93,50.84,50.84,0,0,0,13.13,5c1.73.4,3.44.86,5.16,1.33l-3.69,12.94A57.57,57.57,0,0,1,296.08,162.74Z"/><path class="cls-6" d="M363.59,172.64a52.89,52.89,0,0,1-53,1.26q1.91-6.66,3.81-13.33c6.74,1.87,13.43,4,20.37,5.1a215.61,215.61,0,0,0,21.54,2.86c3.9.24,8.21.4,12-.51.82-.2,1.75-.4,2.72-.65A61.7,61.7,0,0,1,363.59,172.64Z"/><path class="cls-6" d="M374.35,164.39c-1.27.56-2.75,1-3.5,1.27a24.64,24.64,0,0,1-6.76,1.25,80.65,80.65,0,0,1-12.73-.46,184.3,184.3,0,0,1-18.77-3c-3.81-.86-7.61-1.67-11.42-2.52-2.17-.49-4.29-1.15-6.4-1.82q1.39-4.85,2.77-9.72A91.73,91.73,0,0,0,333,152.68c17.17,1.92,34.2,6.79,50.83.67A72.42,72.42,0,0,1,374.35,164.39Z"/><path class="cls-6" d="M404.3,117.61c.54,2.92.4,5.88.73,8.83.15,1.37.26,2.75.35,4.13-.61-3.08-1-6.24-1.71-9.23-.54-2.32-1.57-4.46-2.16-6.75a16.66,16.66,0,0,0-.82-3.17,16.56,16.56,0,0,0,1.41-.93A47,47,0,0,1,404.3,117.61Z"/><path class="cls-6" d="M396,99.6a35.33,35.33,0,0,1,3.25,3.12c.89,1.18,3.14,4,2.89,5.46-.09.56-1.26,1.36-2.47,2a.76.76,0,0,0-.89.15l-.3.37a7,7,0,0,1-.79.24,66.22,66.22,0,0,0-3-12.88A14,14,0,0,0,396,99.6Z"/><path class="cls-6" d="M394.56,103.16c3.44,13.43,1.94,26.26-4.06,38.72a83.4,83.4,0,0,1-5.1,9.11,51.08,51.08,0,0,1-29.87,3c-8.31-1.53-16.85-1.91-25.16-3.38A116,116,0,0,1,318,147.68q4.92-17.24,9.8-34.51c2,.43,3.62.65,4.91.15a.81.81,0,0,0,1.26-.86h0a6.08,6.08,0,0,0,1.3-2.73c.8-3.28,1.38-6.6,2.21-9.86,1-3.78,1.14-8.26,2.87-11.79a.81.81,0,0,0-1.4-.8l-.09.15a.75.75,0,0,0-.06.2A17.19,17.19,0,0,0,338,90a.75.75,0,0,0-.43.35.79.79,0,0,0-.1.46,5.25,5.25,0,0,0-7.6-1c-2.05,1.54-2.78,5.27-3.38,7.59a75.25,75.25,0,0,1-2.54,9.33.86.86,0,0,0,.13.86,4.2,4.2,0,0,0,2.26,5.14Q321.4,130,316.5,147.23c-4.07-1.24-8.08-2.64-12.06-4.13-5.41-2-11-3.55-16-6.63a51.26,51.26,0,0,1-6.18-4.67c-.74-.64-1.09-1.16-1.73-1.35A78,78,0,0,1,287,86.05a.82.82,0,0,0,.18-.32,2.07,2.07,0,0,0,.07-.21.8.8,0,0,0-.2-.76C298.6,63.56,323.36,52,347.2,56.57,370.63,61,388.75,80.43,394.56,103.16Z"/><path class="cls-6" d="M329.45,107.46a.77.77,0,0,0,0-.41c1.17.73,2.12,3.12,2.65,4.71a6.46,6.46,0,0,1-3-.13c-.19-.05-.5-.06-.77-.1C328.69,110.17,329.07,108.81,329.45,107.46Z"/><path class="cls-6" d="M327,110.15l-1.24-1.74,2-1Z"/><path class="cls-6" d="M326.27,104.89l-.13.07c.41-1.55.74-3.15,1.2-4.64.61-2,.77-4.28,1.83-6.1a24.18,24.18,0,0,1,3-3.65c2.95-1.49,4.77,1.85,4.67,3.92a.76.76,0,0,0,.06.36q-.12.67-.24,1.31c-.18.93-.37,1.85-.59,2.77a.83.83,0,0,0-1,.78l0,.59a.68.68,0,0,0,.48.73c-.51,2.1-1.05,4.19-1.51,6.29,0,.13,0,.28-.08.43a.72.72,0,0,0-.37.87l.1.37a.81.81,0,0,0,.09.16,5.42,5.42,0,0,1-.42,1.51C332.17,107.56,329.66,103.33,326.27,104.89Z"/><use width="4" height="4" transform="translate(59.04 33.11)" xlink:href="#New_Symbol"/><use width="4" height="4" transform="translate(54.39 175.89)" xlink:href="#New_Symbol"/><use width="4" height="4" transform="translate(37.77 345.61)" xlink:href="#New_Symbol"/><use width="4" height="4" transform="translate(179.15 438.74)" xlink:href="#New_Symbol"/><use width="4" height="4" transform="translate(312.79 473.31)" xlink:href="#New_Symbol"/><use width="4" height="4" transform="translate(407.58 490.39)" xlink:href="#New_Symbol"/><use width="4" height="4" transform="translate(432.06 295.78)" xlink:href="#New_Symbol"/><use width="4" height="4" transform="translate(455.83 48.23)" xlink:href="#New_Symbol"/><use width="4" height="4" transform="translate(287.48 13.59)" xlink:href="#New_Symbol"/><use width="4" height="4" transform="translate(192.84 189.33)" xlink:href="#New_Symbol"/><use width="4" height="4" transform="translate(347.51 334.88)" xlink:href="#New_Symbol"/><use width="4" height="4" transform="translate(426.35 463.8)" xlink:href="#New_Symbol"/><use width="4" height="4" transform="translate(463.8 538.48)" xlink:href="#New_Symbol"/><use width="4" height="4" transform="translate(306.81 546.11)" xlink:href="#New_Symbol"/><use width="4" height="4" transform="translate(114.57 539.96)" xlink:href="#New_Symbol"/><use width="4" height="4" transform="translate(66.12 491.44)" xlink:href="#New_Symbol"/></g></g></svg>