<svg xmlns="http://www.w3.org/2000/svg" viewBox="0 0 1525 920"><defs><style>.cls-1{isolation:isolate;}.cls-2,.cls-20,.cls-31{fill:#fff;}.cls-3{fill:#1a1a1a;}.cls-30,.cls-4,.cls-6{fill:#b3b3b3;}.cls-22,.cls-25,.cls-33,.cls-34,.cls-35,.cls-5,.cls-7{fill:none;}.cls-10,.cls-11,.cls-13,.cls-14,.cls-17,.cls-18,.cls-19,.cls-20,.cls-21,.cls-22,.cls-23,.cls-24,.cls-25,.cls-26,.cls-27,.cls-28,.cls-29,.cls-30,.cls-31,.cls-33,.cls-34,.cls-35,.cls-5,.cls-6,.cls-7{stroke:#000;}.cls-11,.cls-14,.cls-20,.cls-24,.cls-25,.cls-26,.cls-27,.cls-28,.cls-33,.cls-34,.cls-5,.cls-6,.cls-7{stroke-linecap:round;}.cls-11,.cls-13,.cls-14,.cls-17,.cls-18,.cls-19,.cls-21,.cls-22,.cls-23,.cls-24,.cls-25,.cls-26,.cls-27,.cls-28,.cls-29,.cls-30,.cls-31,.cls-33,.cls-34,.cls-5{stroke-miterlimit:10;}.cls-10,.cls-11,.cls-13,.cls-14,.cls-18,.cls-19,.cls-20,.cls-21,.cls-22,.cls-23,.cls-24,.cls-26,.cls-27,.cls-28,.cls-29,.cls-30,.cls-31,.cls-33,.cls-34,.cls-35,.cls-5,.cls-6,.cls-7{stroke-width:2px;}.cls-10,.cls-20,.cls-35,.cls-6,.cls-7{stroke-linejoin:round;}.cls-8{fill:#718e52;}.cls-9{fill:#25252f;}.cls-10,.cls-13,.cls-14{fill:#42506d;}.cls-11{fill:#e67551;}.cls-12,.cls-17,.cls-18{fill:#f8c5a4;}.cls-15{mix-blend-mode:multiply;}.cls-16,.cls-23,.cls-24{fill:#e6e6e6;}.cls-17{stroke-width:1.9px;}.cls-21{fill:#dc1f25;}.cls-25{stroke-width:3px;}.cls-27,.cls-32{fill:#ccc;}.cls-28{fill:#999;}.cls-29{fill:#bdccd4;}.cls-33{stroke-dasharray:0 3.57;}.cls-34{stroke-dasharray:0 3.6;}.cls-36{font-size:36px;font-family:FaktPro-Normal, Fakt Pro;}.cls-37{letter-spacing:0.01em;}.cls-38{letter-spacing:-0.01em;}.cls-39{letter-spacing:0em;}.cls-40{letter-spacing:-0.01em;}</style></defs><title>hero-guess</title><g class="cls-1"><g id="Layer_2" data-name="Layer 2"><g id="hero-frames"><rect class="cls-2" width="1525" height="920"/></g><g id="heros"><path class="cls-3" d="M1406.28,848.21l4.59.48c2.93.29,7.1.73,12.12,1.29,2.51.27,5.22.6,8.09,1s5.89.82,9,1.33,6.34,1.16,9.59,2a32.36,32.36,0,0,1,4.88,1.65,7.5,7.5,0,0,1,2.39,1.59l.07.08.07.09.1.12a4.1,4.1,0,0,1,.25.37,2.48,2.48,0,0,1,.33.93,2,2,0,0,1-.19,1.12,2.47,2.47,0,0,1-.6.76,7.74,7.74,0,0,1-2.55,1.29c-.83.28-1.65.51-2.46.73a32.43,32.43,0,0,0-4.6,1.49,3.48,3.48,0,0,0-1.54,1.15.94.94,0,0,0-.11.64,2.22,2.22,0,0,0,.33.78,1.88,1.88,0,0,0,.63.38,6.75,6.75,0,0,0,1,.32,19.72,19.72,0,0,0,2.26.36c3.07.32,6.13.38,9,.54a56,56,0,0,1,8.18.88,13.68,13.68,0,0,1,3.57,1.18,5.08,5.08,0,0,1,1.46,1.12,5.86,5.86,0,0,1,1,1.42,3.77,3.77,0,0,1,.11,3.15,4.51,4.51,0,0,1-1.77,2,8.63,8.63,0,0,1-3.36,1.14,11.75,11.75,0,0,1-1.23.11h0a.33.33,0,0,1,0-.66,11.22,11.22,0,0,0,1.17-.15,7.92,7.92,0,0,0,3-1.13,3.75,3.75,0,0,0,1.4-1.63,2.85,2.85,0,0,0-.15-2.4,4.87,4.87,0,0,0-.84-1.16,4,4,0,0,0-1.22-.87,12.67,12.67,0,0,0-3.31-1,62.46,62.46,0,0,0-8-.64c-2.88-.11-5.92-.1-9.12-.37a21.21,21.21,0,0,1-2.45-.35,8.32,8.32,0,0,1-1.28-.37,3.07,3.07,0,0,1-1.37-.94,3.78,3.78,0,0,1-.62-1.45,2.64,2.64,0,0,1,.28-1.74,5,5,0,0,1,2.27-1.89,30.52,30.52,0,0,1,4.87-1.65c.8-.23,1.6-.45,2.36-.72a6.34,6.34,0,0,0,1.93-.94c.22-.2.2-.25.19-.31a.72.72,0,0,0-.1-.24l-.1-.15-.1-.12,0,0,0,0a6,6,0,0,0-1.81-1.13,30.69,30.69,0,0,0-4.59-1.49c-3.16-.81-6.35-1.36-9.44-1.91-6.18-1.1-12-1.83-17-2.59s-9.15-1.34-12-1.84-4.56-.81-4.56-.81h0a.41.41,0,0,1,.12-.8Z"/><path class="cls-3" d="M608.74,866.89l1.87.06,5.28.11c4.56.08,11.07.11,18.9.53a72.42,72.42,0,0,1,12.68,1.54,15.37,15.37,0,0,1,1.72.55,5.56,5.56,0,0,1,1.78,1,2.33,2.33,0,0,1,.73,1.22,2.12,2.12,0,0,1-.25,1.46,2.65,2.65,0,0,1-.45.58,3.14,3.14,0,0,1-.47.38,5.54,5.54,0,0,1-.94.51,16.55,16.55,0,0,1-3.67,1c-1.22.2-2.44.34-3.67.45-4.92.45-10,.54-15.07.79-2.55.12-5.12.27-7.67.53a34.9,34.9,0,0,0-7.43,1.39,4.35,4.35,0,0,0-2.54,1.71l0,.06s0-.07,0,0l0,.06a.75.75,0,0,0,0,.18,1,1,0,0,0,0,.2,1,1,0,0,0,.19.48,3.81,3.81,0,0,0,1.17,1,33.08,33.08,0,0,0,7,2.65c2.45.73,4.92,1.39,7.33,2.33a11.36,11.36,0,0,1,3.52,2,3.5,3.5,0,0,1,.73,1,2.5,2.5,0,0,1,.27,1.33,2.34,2.34,0,0,1-.51,1.28,3.58,3.58,0,0,1-.87.78,12.34,12.34,0,0,1-3.62,1.4c-1.2.3-2.39.51-3.56.7-2.35.36-4.66.58-6.9.76-4.48.35-8.72.52-12.63.62-7.82.17-14.33.16-18.89.18l-7.16,0a.32.32,0,0,1-.33-.32.33.33,0,0,1,.31-.33l7.16-.21c4.56-.13,11.07-.26,18.86-.61,3.9-.18,8.12-.39,12.55-.8,2.22-.21,4.49-.46,6.78-.84,1.14-.2,2.29-.42,3.41-.71a11,11,0,0,0,3.11-1.23,2,2,0,0,0,.49-.43.69.69,0,0,0,.16-.4,1.22,1.22,0,0,0-.51-.95,10,10,0,0,0-3-1.61c-2.28-.86-4.74-1.51-7.2-2.23-1.24-.36-2.48-.73-3.73-1.16a19.85,19.85,0,0,1-3.72-1.64,5.51,5.51,0,0,1-1.73-1.54,2.88,2.88,0,0,1-.49-1.32,2.64,2.64,0,0,1,0-.77,2.16,2.16,0,0,1,.07-.29l0-.06s0-.1,0-.12l.07-.16a4.13,4.13,0,0,1,1.66-1.82,9.79,9.79,0,0,1,1.95-.92,36.48,36.48,0,0,1,7.86-1.53c2.61-.28,5.2-.44,7.77-.58,5.13-.28,10.18-.41,15-.8,1.2-.11,2.39-.23,3.54-.41a14.89,14.89,0,0,0,3.22-.81,3.68,3.68,0,0,0,.61-.32,1.29,1.29,0,0,0,.21-.17c.09-.1,0,0,.09-.1s.07-.19.08-.2a.51.51,0,0,0-.16-.22,3.86,3.86,0,0,0-1.17-.66,13.52,13.52,0,0,0-1.5-.49,48.92,48.92,0,0,0-6.29-1.08c-2.07-.25-4.09-.43-6-.58-3.88-.3-7.45-.47-10.62-.62l-8.21-.41c-4.55-.22-7.16-.47-7.16-.47a.45.45,0,0,1,.05-.9Z"/><path class="cls-3" d="M925.26,829.44s-1.76,0-4.83,0-7.45-.07-12.7-.17-11.38-.21-17.92-.09c-3.27.06-6.65.16-10,.52a28,28,0,0,0-4.94.89,4.09,4.09,0,0,0-1.78.93c-.1.19-.08,0-.06.6a1.41,1.41,0,0,0,.29.62,3.29,3.29,0,0,0,1.77.84c.77.18,1.61.27,2.47.39a22.22,22.22,0,0,1,2.65.47,6.15,6.15,0,0,1,2.7,1.28,2.93,2.93,0,0,1,.91,1.42,3.62,3.62,0,0,1,.09,1.61,2.49,2.49,0,0,1-1,1.47,5.53,5.53,0,0,1-1.25.73,21,21,0,0,1-5,1.29,92.08,92.08,0,0,1-9.5.84c-3,.14-5.87.2-8.5.24-5.26.06-9.64.08-12.69.17-1.53,0-2.72.1-3.53.15s-1.23.11-1.23.11a.56.56,0,1,1-.15-1.11h0s.45-.06,1.28-.12,2-.11,3.58-.15l12.7-.23c2.62-.07,5.46-.16,8.46-.32a90.92,90.92,0,0,0,9.35-.92,19.89,19.89,0,0,0,4.64-1.23c.69-.28,1.34-.83,1.38-1.15a2.05,2.05,0,0,0-.1-.93,1.37,1.37,0,0,0-.5-.69,4.78,4.78,0,0,0-2-.69c-.8-.12-1.65-.18-2.52-.27a20.76,20.76,0,0,1-2.7-.43,5.08,5.08,0,0,1-2.81-1.53,3.26,3.26,0,0,1-.72-1.76c0-.15,0-.23,0-.35v-.16a2,2,0,0,1,0-.35,2.23,2.23,0,0,1,.46-1,5.56,5.56,0,0,1,2.75-1.56,29.6,29.6,0,0,1,5.3-.91c3.49-.32,6.9-.39,10.2-.41,6.59,0,12.72.24,18,.43l12.68.5c3.06.1,4.81.12,4.81.12a.46.46,0,0,1,0,.92Z"/><path d="M341,801.75s-.85,0-2.44,0-3.92.13-6.87.42c-1.47.15-3.1.36-4.85.68a27.85,27.85,0,0,0-5.48,1.54,10.12,10.12,0,0,0-2.61,1.53,4.6,4.6,0,0,0-1,1.13,1.92,1.92,0,0,0-.16.32l-.07.16c0,.09,0-.08,0,0v.05l0,.11c0,.06,0,.16,0,.19s0,0,0,0,.06.11.07.17a2.74,2.74,0,0,0,1.17.78,11.49,11.49,0,0,0,1.62.54,33.8,33.8,0,0,0,3.6.7c5,.7,10.53,1,16.36,1.19l18.38.55c6.38.23,13,.42,19.71,1.15a45.89,45.89,0,0,1,5.08.82,13,13,0,0,1,2.6.85,2.82,2.82,0,0,1,1.65,1.5,2.56,2.56,0,0,1,.14.63,2.52,2.52,0,0,1-.07.61,2.32,2.32,0,0,1-.2.49,1.4,1.4,0,0,1-.16.27l-.1.13a2.53,2.53,0,0,1-.22.27,4.47,4.47,0,0,1-.65.58,6.91,6.91,0,0,1-1.26.75,16.11,16.11,0,0,1-2.56.92,41.74,41.74,0,0,1-5.13,1c-3.42.48-6.83.71-10.23.9s-6.78.3-10.13.4c-6.7.2-13.29.33-19.64.63-3.18.15-6.29.35-9.33.65a53.41,53.41,0,0,0-8.72,1.42,10.22,10.22,0,0,0-3.61,1.62l-.31.29-.3.37a4.52,4.52,0,0,0-.5.76,2.5,2.5,0,0,0-.29,1.52,4.61,4.61,0,0,0,2.2,2.55,23.85,23.85,0,0,0,3.36,1.74c2.31,1,4.63,1.77,6.78,2.94a4.47,4.47,0,0,1,1.53,1.29,1.51,1.51,0,0,1,.19,1.31,1.54,1.54,0,0,1-.29.54l-.09.12-.09.09,0,0-.16.14a5.75,5.75,0,0,1-.65.53l-.8.47a14.53,14.53,0,0,1-1.54.63,29.92,29.92,0,0,1-5.8,1.15c-1.8.19-3.45.31-4.95.37-3,.14-5.33.13-6.92.15l-2.44,0h0a.27.27,0,0,1,0-.54l2.45-.12c1.59-.07,3.93-.16,6.89-.36,1.48-.1,3.11-.26,4.88-.49a29,29,0,0,0,5.55-1.24,13.84,13.84,0,0,0,1.36-.6l.6-.35a5,5,0,0,0,.61-.52l.15-.14,0,0,0,0,0-.05c0-.07.12-.14.1-.19a.16.16,0,0,1,0-.07s0,0,0-.06-.05-.1-.07-.16a3.53,3.53,0,0,0-1.13-.85c-2-1-4.33-1.77-6.7-2.78a25.15,25.15,0,0,1-3.6-1.8,8.93,8.93,0,0,1-1.71-1.36,4.29,4.29,0,0,1-1.19-2.12,4,4,0,0,1,.4-2.5,6.4,6.4,0,0,1,.64-1l.36-.46c.15-.15.3-.31.45-.45a8,8,0,0,1,2-1.22,16.67,16.67,0,0,1,2.15-.77c5.82-1.6,12-1.94,18.41-2.32s13-.5,19.67-.73,13.49-.49,20.15-1.35a39.89,39.89,0,0,0,4.88-.93,14.25,14.25,0,0,0,2.24-.79,5,5,0,0,0,.93-.54,3.9,3.9,0,0,0,.31-.25,1.48,1.48,0,0,0,.18-.22l.1-.13c-.05.08,0,0,0,0s0-.11.05-.1,0,0,0,0,0,0,0,0a2.37,2.37,0,0,0-.69-.46,11.28,11.28,0,0,0-2.2-.72,44.15,44.15,0,0,0-4.86-.8c-6.59-.75-13.19-1-19.55-1.23s-12.54-.47-18.39-.77-11.39-.66-16.49-1.45a35,35,0,0,1-3.74-.78,12,12,0,0,1-1.8-.64,3.76,3.76,0,0,1-1.66-1.26,1.88,1.88,0,0,1-.24-.63,2.82,2.82,0,0,1,0-.4,1.27,1.27,0,0,1,0-.23l0-.1v-.05a1.38,1.38,0,0,1,0-.14l.1-.23a3,3,0,0,1,.23-.44,5.72,5.72,0,0,1,1.23-1.39,11.14,11.14,0,0,1,2.94-1.63A28.76,28.76,0,0,1,326.7,802c1.79-.29,3.44-.46,4.93-.58,3-.23,5.34-.23,6.94-.21s2.45.07,2.45.07h0a.25.25,0,0,1,0,.5Z"/><path d="M212.87,811.08l-10.45.58c-3.32.19-7.36.45-12,.8a141.86,141.86,0,0,0-15.37,1.9,37.83,37.83,0,0,0-4.14,1,12.69,12.69,0,0,0-2,.79,3.45,3.45,0,0,0-1.4,1.1,2.71,2.71,0,0,0-.15.39s0,.05,0,.09a.62.62,0,0,0,.34.33,6.51,6.51,0,0,0,2,.62c1.49.29,3.09.43,4.72.6a32.36,32.36,0,0,1,5.06.82,7.23,7.23,0,0,1,1.35.51,3.25,3.25,0,0,1,1.34,1.14c.09.16.17.32.24.49a5.15,5.15,0,0,1,.1.54,2.73,2.73,0,0,1-.12,1,4.49,4.49,0,0,1-.8,1.45,4.81,4.81,0,0,1-.45.51c-.21.19-.42.37-.63.55a9.62,9.62,0,0,1-1.25.75,14.59,14.59,0,0,1-2.61,1,38.21,38.21,0,0,1-5.34,1.05c-3.58.5-7.21.72-10.83,1.13-1.81.2-3.62.44-5.39.82a15.09,15.09,0,0,0-4.94,1.79,3,3,0,0,0-.5.36,3.06,3.06,0,0,0-.44.41,3.84,3.84,0,0,0-.37.45l-.26.42-.06.17c0,.06,0,.12,0,.1s0,0,0,0,0,.07,0,.11a.34.34,0,0,0,.1.14,2.68,2.68,0,0,0,.9.6,21.26,21.26,0,0,0,5.28,1.27c3.71.5,7.5.73,11.29.92,7.59.36,15.2.44,22.7.67,3.75.12,7.47.25,11.16.62.92.1,1.84.21,2.76.38.46.08.92.19,1.39.32a3.69,3.69,0,0,1,1.44.73,1.28,1.28,0,0,1,.32.5,1.08,1.08,0,0,1,0,.67l-.06.15a.92.92,0,0,1-.08.13l-.1.14a2.49,2.49,0,0,1-.21.29,4.41,4.41,0,0,1-1.24,1,10.61,10.61,0,0,1-2.66,1A70.17,70.17,0,0,1,191,845.44c-1.71.11-3.4.21-5,.48a10.53,10.53,0,0,0-2.31.6,2.66,2.66,0,0,0-.89.56,1,1,0,0,0-.23.37.73.73,0,0,1-.05.15v.15h0a1.52,1.52,0,0,0,.7.53,6.8,6.8,0,0,0,1.08.38,20.94,20.94,0,0,0,2.3.48c1.55.25,3.1.4,4.63.52,3.06.24,6,.35,8.88.43,5.7.15,10.93.15,15.57.14l12-.06c6.66,0,10.47,0,10.47,0a.29.29,0,0,1,0,.57s-3.8,0-10.46,0l-12,.12c-4.64,0-9.88.05-15.59-.07-2.86-.07-5.84-.16-8.92-.39-1.54-.12-3.11-.26-4.7-.5a21.71,21.71,0,0,1-2.4-.49,7.6,7.6,0,0,1-1.21-.43,2.12,2.12,0,0,1-1.14-1,1.79,1.79,0,0,1-.07-.29v-.15a1.72,1.72,0,0,1,.1-.44,1.82,1.82,0,0,1,.4-.67,3.46,3.46,0,0,1,1.17-.78,11.31,11.31,0,0,1,2.51-.68c1.69-.29,3.39-.41,5.11-.54a69.7,69.7,0,0,0,10.35-1.12,9.62,9.62,0,0,0,2.37-.88,3.72,3.72,0,0,0,.88-.68,1.94,1.94,0,0,0,.19-.26l.09-.14s.07-.1,0,0h0s0,0,0,0,0,0-.05,0a3,3,0,0,0-1-.44c-.41-.11-.84-.21-1.28-.28-.87-.15-1.77-.26-2.68-.34-3.63-.33-7.34-.42-11.08-.51-7.48-.16-15.1-.17-22.73-.46-3.81-.15-7.63-.35-11.44-.87a22.58,22.58,0,0,1-5.72-1.38,4.1,4.1,0,0,1-1.42-1,1.66,1.66,0,0,1-.3-.44,1.6,1.6,0,0,1-.19-.55,1.73,1.73,0,0,1,0-.66.92.92,0,0,1,.06-.24l.06-.17a5.74,5.74,0,0,1,2.14-2.48,11.41,11.41,0,0,1,2.69-1.33,24.36,24.36,0,0,1,2.77-.82c1.86-.44,3.71-.72,5.54-1,3.67-.48,7.29-.8,10.78-1.27a41,41,0,0,0,5.07-1,12.68,12.68,0,0,0,2.28-.84,7.76,7.76,0,0,0,1-.57l.35-.29a3.57,3.57,0,0,0,.41-.45,2.77,2.77,0,0,0,.45-.77c0-.24.09-.35,0-.45A3.12,3.12,0,0,0,179,822a31,31,0,0,0-4.74-.81c-1.62-.19-3.24-.35-4.87-.68a8,8,0,0,1-2.51-.87,2.28,2.28,0,0,1-1.11-1.41,2,2,0,0,1,0-1.06,1.59,1.59,0,0,1,.12-.32l.06-.13,0-.07a1.29,1.29,0,0,1,.08-.16,4.92,4.92,0,0,1,2.11-1.74,14.28,14.28,0,0,1,2.21-.87,37.6,37.6,0,0,1,4.35-1,143.07,143.07,0,0,1,15.58-1.65c4.64-.29,8.69-.41,12-.52l10.46-.31a.37.37,0,0,1,0,.73Z"/><path class="cls-4" d="M1074,838.07c-.1.49-.67.81-.77,1.31l-.36,1.76c-.11.57.18,1.24.06,1.82s-.65,1.17-.78,1.81c-2,9.76-4.1,20.36-5.85,29-.11.57.17,1.29.06,1.84s-.65,1.11-.77,1.72c-.17.81-.17.84-.32,1.59-.1.49,0,1.8-.1,2.25s-.67,1.57-.76,2c-1.08,5.33-1.62,8-1.62,8s-9,26.89-64.9,26.89-66.67-23.66-66.67-23.66l-1.58-8c-.12-.57-.75-1.19-.87-1.82s.28-1.15.15-1.75c-.15-.82-.33-1.67-.5-2.55-.13-.65-.66-1.33-.79-2s.06-1.69-.12-2.57c-1.84-9.26-4.11-20.65-6.2-31-.12-.61-.67-1.06-.79-1.64s.19-1.37.07-2c-.21-1-.41-2-.61-3-.12-.58-.54-1.08-.65-1.65-.17-.79,0-1.64-.18-2.42-2-9.88-3.17-15.67-3.43-16.34,3.86,3.86,18.24,11,81.49,10.74,59.69-.22,80.65-9.51,80.65-9.51-.18.88-1.78,6.35-3.93,17.06C1073.79,836.62,1074.13,837.43,1074,838.07Z"/><path class="cls-4" d="M1077.85,818.93s-21,9.29-80.65,9.51c-63.24.24-77.63-6.88-81.49-10.74a4.87,4.87,0,0,1-.12-6.15c8-11.91,71-12,80.72-12,0,0,81.68.28,83.88,14.89C1080.5,816.4,1080.38,817.83,1077.85,818.93Z"/><path class="cls-5" d="M1077.85,818.94c-.18.88-1.77,6.35-3.93,17.05-.13.62.22,1.43.09,2.07s-.67.81-.77,1.32l-.36,1.77c-.12.57.17,1.24.05,1.82s-.65,1.18-.78,1.82l-5.84,29c-.12.58.17,1.29.05,1.85s-.65,1.11-.77,1.71l-.32,1.6c-.1.48,0,1.79-.1,2.25s-.67,1.57-.76,2l-1.62,8s-9,26.89-64.9,26.89-66.68-23.66-66.68-23.66l-1.58-8c-.11-.58-.74-1.19-.87-1.82s.28-1.15.16-1.75l-.51-2.55c-.13-.66-.65-1.34-.79-2-.17-.84.05-1.69-.12-2.57-1.84-9.26-4.11-20.65-6.2-31-.12-.6-.67-1.05-.79-1.64s.18-1.36.06-2l-.61-3c-.12-.58-.53-1.08-.65-1.65-.16-.8,0-1.65-.18-2.42-2-9.89-3.16-15.68-3.42-16.34"/><path class="cls-6" d="M950.14,829.55l-15.3-1.11s-5.18,0-5,10.69c.09,5.94,5.18,10.77,15.23,11.93s14.69-.58,14.59-7.5S956.14,829.47,950.14,829.55Zm-5,18.28c-7.9-.6-12.25-4-12.32-8.75-.1-6.84,2.6-7.5,3.5-8.1l15.18,2.17s4.56,1.73,4.69,10.11C956.27,849.35,952.64,848.4,945.13,847.83Z"/><path class="cls-6" d="M936.68,825.42c0,2.14-2,1.54-2,4,0,1.19,1.7,1.65,3.13,1.87s13.65,1.83,13.65,1.83a3.14,3.14,0,0,1-1.59-2.61c0-1.79,1.54-1.26,1.51-3.21A145.11,145.11,0,0,1,936.68,825.42Z"/><path class="cls-7" d="M1080.2,814.39c.3,2,.18,3.45-2.34,4.55,0,0-21,9.28-80.65,9.51-63.25.24-77.63-6.89-81.48-10.75a4.87,4.87,0,0,1-.12-6.15c8-11.91,71-12,80.72-12C996.31,799.5,1078,799.78,1080.2,814.39Z"/><path class="cls-5" d="M1057.4,887.78s-17.57,18.1-66.14,16.31"/><path class="cls-5" d="M1036.43,894.59s-35.2,12.73-80.24,0"/><path class="cls-5" d="M1065.47,849.19s-38,22.27-126.55,4.89"/><path class="cls-7" d="M1078,815.08c.69-1.64,1-13.37-81.23-13.37s-79.62,10.45-78.84,12.68"/><path class="cls-8" d="M998.68,701.12a126.75,126.75,0,0,0,2.93,17.9c1.36,6.14,3.09,10.06,4.07,16.28l2.83,18c1,6.28,3.2,18.07,3.69,24.41.57,7.39-.77,9.3-1,16.71-.54,18.33.39,11.84-1.48,30.09,0,0,13.1.21,19.9-.53s12.61-1.8,12.61-1.8c3.11-32.65,5.09-129.77,5.62-162.57h-99c-.49,41.51.69,124.84.89,162.63,0,0,4.7.57,12.31,1.41,8,.88,20,0,20,0-.27-21.72-.44-13.27.75-35a179.47,179.47,0,0,1,2.41-23.4c1.28-6.82,3.26-15.58,3.78-22.5,1.49-19.64,10.82-41.2,10.24-58.45"/><path class="cls-5" d="M982,823.67c-.27-21.72-.44-13.27.75-35a179.47,179.47,0,0,1,2.41-23.4c1.28-6.82,3.26-15.58,3.78-22.5,1.49-19.64,10.82-41.2,10.24-58.45"/><path class="cls-5" d="M948.84,659.61c-.49,41.51.69,124.84.89,162.63"/><path class="cls-5" d="M1042.25,822.18c3.11-32.65,5.09-129.77,5.62-162.57"/><path class="cls-5" d="M997.44,700.24c.3,5.34,3,13.56,4.17,18.78,1.36,6.14,3.09,10.06,4.07,16.28l2.83,18c1,6.28,3.2,18.07,3.69,24.41.57,7.39-.77,9.3-1,16.71-.54,18.33.39,11.84-1.48,30.09"/><path class="cls-5" d="M1029.94,757.16c1,29.84,2,36.06-.3,65.82"/><path class="cls-5" d="M956.94,755.65c-.49,29.58-.45,37.75.4,67.32"/><path class="cls-5" d="M982,804.76c-3.66-5.33-8.63-12.12-11-18.15-.34-.88-.46-2.2.45-2.46.62-.17,1.19.36,1.58.87,1.05,1.37,4.52,6.36,5,8"/><path class="cls-5" d="M999.22,707.09a38.5,38.5,0,0,0,8.47,11.58"/><path class="cls-5" d="M1014,797a16.37,16.37,0,0,0,7.62-10.08"/><path class="cls-5" d="M1012.33,782.34a7.51,7.51,0,0,0,5.45-3.67"/><path class="cls-9" d="M1025.05,498.34c-.6,4.74-2.39,9.24-4,13.75-11.17,31.33-13.75,65.12-13.07,98.37.33,16.14,1.4,32.24,2.56,48.34-6.51.63-15.5-.47-22.16-.06Q989.2,638.87,990,619l.07-.25c.23-17.69.47-35.46-1.93-53-.61-4.47-1.39-8.91-2.17-13.35q-1.39-7.93-2.79-15.86c-1-5.67-2-11.34-3.38-16.93-1.71-6.93-4-13.76-4.74-20.86s.37-14.73,4.79-20.33l37.85.7C1023.17,484,1025.65,493.6,1025.05,498.34Z"/><path class="cls-10" d="M979.86,478.43c-4.42,5.6-5.51,13.23-4.79,20.33s3,13.93,4.74,20.86c1.38,5.59,2.38,11.26,3.38,16.93L986,552.4c.78,4.44,1.56,8.88,2.17,13.35,2.4,17.53,2.17,35.3,1.93,53L990,619l-5.67,139.82.11.19-18.21-.87c-5.92-.28-12-.59-17.47-2.77a4,4,0,0,1-2.06-1.43,4.31,4.31,0,0,1-.47-2,275,275,0,0,1-.07-36.23c.18-2.8.4-5.59.58-8.39a269.07,269.07,0,0,0-.11-36v.57a105.1,105.1,0,0,1-20,0,4.09,4.09,0,0,1-2.22-.66c-1.08-.86-1-2.49-.89-3.86l.7-6.63-.09-.4a465.42,465.42,0,0,1,3.54-81.94c.55-4.16,1.16-8.31,1.52-12.48.72-8.2.52-16.46,1.48-24.63s3.22-16.43,8.25-22.94h-.06c.49-2.58,1.11-5.26,2.86-7.22,2.15-2.41,5.63-3.25,7.9-5.55a2.41,2.41,0,0,0,.7-1.1,3.37,3.37,0,0,0-.34-1.81,8.83,8.83,0,0,1,1.35-8.19c1.56-2,3.9-3.21,6.17-4.36l14.4-7.29a5.66,5.66,0,0,0,1.81-1.24,6.9,6.9,0,0,0,1.07-2.29,15.78,15.78,0,0,1,6.65-8.16l32.51-1.58c3.36-.56,5.6,3.15,7.65,5.87a20,20,0,0,0,12,7.52c2.07.4,4.26.49,6.1,1.52,5.06,2.82,4.46,10.47,8.07,15,2.19,2.76,5.72,4.08,8.39,6.37,4.42,3.8,6.07,9.83,7.39,15.51,11.33,48.71,15.5,100.85,10.83,150.64,0,0,0,5.27-25.1-.67-.51,28.68.22,48.2-.34,76.88a10.34,10.34,0,0,1-.67,4.21c-1.21,2.59-4.24,3.69-7,4.41a92.83,92.83,0,0,1-27.05,3c.46-17.4-.44-30.09-.44-49.75-1.24-33.24-5.07-66.36-5.75-99.62s1.9-67,13.07-98.37c1.61-4.5,3.4-9,4-13.74s-1.88-14.32-7.34-19.21Z"/><path class="cls-11" d="M981.24,478.08c-3.27,4.49-3.57,10.55-2.44,16s3.52,10.51,5.26,15.79c4.67,14.16,4.54,29.42,7.6,44,.45,2.12,1.57,4.72,3.73,4.63,1.92-.08,2.94-2.25,3.52-4.08q5-15.69,9.16-31.62c1.56-6,3-12,5.14-17.82,1.65-4.58,3.7-9.06,4.63-13.84s.63-10.05-2.13-14.07a9.05,9.05,0,0,0-3.45-3.13,12.19,12.19,0,0,0-4.49-.95,54,54,0,0,0-26.61,5.08"/><path class="cls-7" d="M1010.65,553.39q6-11.74,12.21-23.4a61.06,61.06,0,0,1,3.71-6.36c2.9-4.16,6.76-7.53,10.58-10.86l-2.83-2c.86-1.59,3-1.83,4.62-2.57A13.73,13.73,0,0,0,1042,506l6.58-5.58"/><path class="cls-5" d="M1017.71,479.13l6.89,4.77a6.27,6.27,0,0,1,1.72,1.54c.6.89.72,2,1.37,2.89,1,1.25,2.79,1.44,4.06,2.38,1.1.81,1.75,2.15,2.9,2.88,1.64,1,4.06.69,5.32,2.17"/><path class="cls-5" d="M1035.92,504.62c2.36-1.6,4-1.57,4.92-4.26a28.19,28.19,0,0,0,1.29-8.43,13.63,13.63,0,0,0-.43-4.51,5.36,5.36,0,0,0-2.83-3.39"/><path class="cls-5" d="M1024.36,504.62c1.51.71,2.4,2.26,3.28,3.68s2,2.89,3.61,3.26"/><path class="cls-5" d="M1049,520c1,8.74,2,17.53,1.42,26.31-.36,5.43-1.32,10.85-1,16.29"/><path class="cls-5" d="M1050.55,538.27c.37-7.9,7.63-12.42,7.69-20.34"/><path class="cls-7" d="M949.94,502.7c2.23,4.48,8.2,5.86,11.65,9.06l-2,.85a165,165,0,0,1,16.52,18.86c3.76,5,7.31,10.41,8.62,16.54.57,2.66,1.25,6.39,2,8.68"/><path class="cls-5" d="M957.51,509.72a28.47,28.47,0,0,0,.79,9.84c.33,1.25.91,2.66,2.15,3a3.34,3.34,0,0,0,2.78-.76,5.33,5.33,0,0,0,2.29-3.32"/><path class="cls-5" d="M1035.13,511.84a39,39,0,0,0,2.19,12.16,4.9,4.9,0,0,0,.91,1.74,1.82,1.82,0,0,0,1.77.61,2.2,2.2,0,0,0,1.18-1.06,10.54,10.54,0,0,0,1.07-5.49,70.72,70.72,0,0,0-1.41-14.05"/><path class="cls-5" d="M1003.45,496a5.76,5.76,0,0,1,6,2.72,20.44,20.44,0,0,1,2.26,9.48"/><path class="cls-5" d="M994.82,558.45c-.3-5.57-.13-10.54,0-16.13l.22-9.07c.07-2.94.14-5.87.44-8.79.73-7.3,1.67-9.2,3.18-16.38"/><path class="cls-5" d="M989.82,495.6a5.11,5.11,0,0,0-2.9,2.46,9.24,9.24,0,0,0-1.12,3.73c-.39,2.57-1.35,5.49-1.74,8.06"/><path class="cls-5" d="M998.66,558.49c1.92-3.91,3.62-7.79,5.07-11.28,1.21-2.93,2.15-6,3.26-8.93,1.39-3.74,3.05-7.37,4.71-11,3.06-6.68,6.13-13.4,10.29-19.46"/><path class="cls-5" d="M992.06,558.79a82.44,82.44,0,0,0-7.33-13.17"/><path class="cls-7" d="M976.93,482.54a27.93,27.93,0,0,1-6.65,5.92,17.53,17.53,0,0,0-2.57,1.79c-1.29,1.19-2.06,2.84-3.34,4-1.91,1.8-4.72,2.38-6.64,4.17-.6.56-1.09,1.22-1.66,1.8a9,9,0,0,1-3.12,2.06"/><path class="cls-7" d="M958,504.28l5.74,4"/><circle class="cls-2" cx="999.42" cy="524.35" r="1.15"/><circle class="cls-2" cx="1002.91" cy="504.62" r="1.15"/><circle class="cls-2" cx="998.24" cy="543.49" r="1.12"/><circle cx="986.04" cy="577.87" r="1.12"/><circle cx="966.83" cy="513.75" r="1.12"/><circle cx="1029.64" cy="514.47" r="1.12"/><circle cx="984.06" cy="642.42" r="1.12"/><circle cx="981.83" cy="708.88" r="1.12"/><circle cx="986.04" cy="610.99" r="1.12"/><circle cx="982.95" cy="675.98" r="1.12"/><rect class="cls-5" x="1030.46" y="616.76" width="18.39" height="12.89"/><rect class="cls-5" x="948.8" y="616.76" width="18.39" height="12.89"/><path class="cls-5" d="M1010.55,658.8c-6.51.63-15.5-.47-22.16-.06"/><path class="cls-7" d="M1247.7,692.77"/><path class="cls-12" d="M1071.74,668.14l-24-1.17c-.74,5.7-2.1,20,1,20.68s2.18-7.86,2.44-10c.17-1.42-.09-5.25,1.84-5s1.92,5,1.86,6.63c-.09,2.75-.24,6.37-1.11,9a9.65,9.65,0,0,1-5.22,6.07c-1.12.44-2.56.84-2.74,2a1.82,1.82,0,0,0,1.24,1.83,3.9,3.9,0,0,0,2.35-.05,8.76,8.76,0,0,0,1.48-.55l-.12.16a2.52,2.52,0,0,0,2.17,2.56c1.54.17,3.19-1.21,4.71-3.36-.17,1.56.65,2,1.6,2.06,1.65.09,3.49-2.29,4.93-5.61l0,.07c1.27,1.56,2.69,1.06,3.5-.29a15.84,15.84,0,0,0,1.71-5.21A132,132,0,0,0,1071.74,668.14Zm-14.07,28.68"/><path class="cls-7" d="M1050.78,697.67a2.51,2.51,0,0,0,2.17,2.56c4.61.52,10.24-12.84,9.93-19.5"/><path class="cls-7" d="M1057.65,696.86c-.17,1.56.65,2,1.6,2.06,3.45.2,7.67-10.39,7.57-17.76"/><path class="cls-7" d="M1047.65,667.55c-.74,5.7-2,19.43,1.09,20.09s2.18-7.87,2.44-10c.17-1.41-.09-5.25,1.84-5s1.92,5,1.87,6.63c-.09,2.75-.24,6.37-1.12,9a9.63,9.63,0,0,1-5.22,6.06c-1.11.44-2.56.84-2.74,2a1.81,1.81,0,0,0,1.24,1.83,3.86,3.86,0,0,0,2.35,0c3.49-1,6.16-3.92,7.62-7.23a32.89,32.89,0,0,0,2.19-10.58"/><path class="cls-7" d="M1064.21,693.39c1.27,1.55,2.69,1.06,3.5-.29a15.94,15.94,0,0,0,1.7-5.21,120.86,120.86,0,0,0,2.21-18.94"/><path class="cls-13" d="M1074.07,672.69c0-1.09-1.32-1.59-2.39-1.81-8.67-1.74-15-3.81-23.25-1.65a1,1,0,0,1-1.21-1c.81-7.66,1.71-29.26,1.62-36.12-.31-23.19,1.08-45.13.55-69.47"/><path class="cls-5" d="M1049.44,601.57a101.12,101.12,0,0,0,17.29-5.53"/><path class="cls-5" d="M1049.8,605.16a17.38,17.38,0,0,0,8.63.28"/><path class="cls-12" d="M942.35,668.8c.53,1.06.42,7.27.41,8.45a37.43,37.43,0,0,1-1,8.26,25.52,25.52,0,0,1-2.83,7.48,3.82,3.82,0,0,1-2.87,2c-1.56.07-2.25-1.45-2.35-2.48a2.75,2.75,0,0,1-3.19,2.19,2.37,2.37,0,0,1-2.13-2.58,2.29,2.29,0,0,1-2.92,1.73,3.16,3.16,0,0,1-2.16-2.8,2.2,2.2,0,0,1-3.43-.36,3.56,3.56,0,0,1-.08-2.77c.16-.64.86-2.33,1-3h0a3.67,3.67,0,0,1-1.64-.93c-.86-1.41.77-8.85,1-9.26s6.24-5,9.34-5.74Z"/><path class="cls-5" d="M931.75,674.55c-.28,6.12-3.45,6.44-5,6.8"/><path class="cls-5" d="M924.52,681.1c2.36.35,3.54.15,5.86,1.13,3.47,1.47,2,4.59,1.31,4.94S920,685.43,919.09,684s.77-8.85,1-9.26,6.24-5,9.34-5.74"/><path class="cls-5" d="M920.73,684.95c-.16.64-.86,2.33-1,3a3.56,3.56,0,0,0,.08,2.77,2.2,2.2,0,0,0,3.43.36"/><path class="cls-5" d="M928.3,692.11a2.29,2.29,0,0,1-2.92,1.73,3.16,3.16,0,0,1-2.16-2.8l1.36-4.55"/><path class="cls-5" d="M933.61,692.5a2.75,2.75,0,0,1-3.19,2.19,2.37,2.37,0,0,1-2.13-2.58l1.65-4.71"/><path class="cls-5" d="M933.61,692.5c.1,1,.79,2.55,2.35,2.48a3.82,3.82,0,0,0,2.87-2,25.52,25.52,0,0,0,2.83-7.48"/><path class="cls-5" d="M933.61,692.5c1.08-3.43,1.67-5,2.41-8.2.13-.59.86-3.75-1.34-4.24-1.48-.32-2.78,1.14-3.4,2.65"/><path class="cls-5" d="M935.89,685.15c.35-1,1.49-3.83,3-3.58,2,.32-.77,6.61-1.26,7.65"/><path class="cls-5" d="M942.42,668.91c1,4.78-.13,14-.76,16.68"/><path class="cls-5" d="M941.68,677.25a13.72,13.72,0,0,1-4,0"/><path class="cls-14" d="M925.71,670.74c5.56-2.49,9-2.39,15-1.94,2.26.17,6.23,0,8.75.08-.23-8.88-1.74-15.31-1.49-23,1.3-40.12,1.4-80.23,2.7-120.35"/><path class="cls-5" d="M948.8,607a44.84,44.84,0,0,1-11.4-8.25"/><path class="cls-5" d="M934.82,605.82a23.72,23.72,0,0,0,13.73,5.58"/><path class="cls-7" d="M943.1,523.2a40.72,40.72,0,0,0,6.8,17.16"/><g class="cls-15"><path class="cls-16" d="M1067.3,615.55l-.26.35a4.76,4.76,0,0,0-.43,1,7.25,7.25,0,0,0,.15,4c.22.82.58,1.72.95,2.7a15.49,15.49,0,0,1,.94,3.34,8.59,8.59,0,0,1-.36,3.87,15.24,15.24,0,0,0-.81,3.29,10.48,10.48,0,0,0,.5,3.25,13.8,13.8,0,0,1,.6,3.66,13.49,13.49,0,0,1-.51,3.49c-.27,1-.57,2-.81,2.85a23.06,23.06,0,0,0-.55,2.33,9,9,0,0,0-.14,1.78,7.13,7.13,0,0,0,.13,1.13l.08.4V653a.5.5,0,0,1-1,.26l-.15-.45a6.65,6.65,0,0,1-.31-1.3,13.4,13.4,0,0,1,.35-4.6c.2-.91.44-1.87.63-2.86a14.29,14.29,0,0,0,.32-3,12.92,12.92,0,0,0-.62-3.24,12.27,12.27,0,0,1-.6-3.89,16.54,16.54,0,0,1,.93-3.74,6.94,6.94,0,0,0,.38-3.06,17,17,0,0,0-.71-3c-.31-1-.63-2-.83-2.91a8.1,8.1,0,0,1,.26-4.74,4.86,4.86,0,0,1,.75-1.21l.3-.32a.5.5,0,0,1,.76.65Z"/></g><g class="cls-15"><path class="cls-16" d="M965.21,561.26l-.1.35a8,8,0,0,0-.2.93A10.81,10.81,0,0,0,965,566a31.17,31.17,0,0,0,1.3,4.85,29.17,29.17,0,0,1,1.49,6,11.91,11.91,0,0,1-.07,3.29c0,.26-.11.57-.17.79s-.15.55-.23.79c-.17.5-.36,1-.56,1.43-.83,1.81-1.72,3.28-2.19,4.63a9.74,9.74,0,0,0-.48,1.85,5.83,5.83,0,0,0,0,1.44,5.13,5.13,0,0,0,.16.9l.1.31,0,0a.5.5,0,0,1-.92.38l-.18-.36a5.21,5.21,0,0,1-.36-1.08,8.48,8.48,0,0,1,.18-4,43.77,43.77,0,0,1,1.93-4.91c.17-.42.32-.85.45-1.28.07-.22.11-.42.16-.63s.09-.44.12-.67a10.22,10.22,0,0,0,0-2.74,37,37,0,0,0-1.33-5.6,24.41,24.41,0,0,1-1-5.26,10.75,10.75,0,0,1,.4-3.88,6.3,6.3,0,0,1,.4-1l.16-.33a.5.5,0,0,1,.93.36Z"/></g><g class="cls-15"><path class="cls-16" d="M1030.85,544.54l.12.49c.07.33.22.79.32,1.42a41.18,41.18,0,0,1,.62,5.17c.12,2.14.16,4.63.32,7.24a35,35,0,0,0,1.19,8,2.77,2.77,0,0,0,.31.7c.12.18.2.21.21.21h0a.3.3,0,0,0,.11-.06,1.41,1.41,0,0,0,.37-.47,9.67,9.67,0,0,0,.66-3.56c.14-2.63.21-5.09.24-7.2s0-3.88,0-5.11,0-1.95,0-1.95a.33.33,0,0,1,.66-.07h0s.13.7.3,1.94.39,3,.53,5.14.23,4.63.17,7.31a10.38,10.38,0,0,1-.8,4.43,3.38,3.38,0,0,1-.94,1.15,2.33,2.33,0,0,1-.83.41,2.17,2.17,0,0,1-.56.06h-.2l-.25,0a2.42,2.42,0,0,1-1.42-1.07,4.72,4.72,0,0,1-.55-1.23,28.49,28.49,0,0,1-.85-4.31c-.15-1.43-.23-2.83-.25-4.17,0-2.69.1-5.16.09-7.27,0-1.05,0-2,0-2.87s-.07-1.59-.13-2.19-.11-1.09-.14-1.42l-.06-.51a.37.37,0,0,1,.72-.13Z"/></g><g class="cls-15"><path class="cls-16" d="M933,615l-.25.36c-.08.12-.19.26-.29.43s-.14.34-.23.53a6.32,6.32,0,0,0-.37,1.66,14.36,14.36,0,0,0,0,2.32c.09.86.21,1.8.42,2.81l.62,3.18c.23,1.11.43,2.29.57,3.51a16.37,16.37,0,0,1,0,3.77,32,32,0,0,1-.58,3.67c-.25,1.18-.53,2.32-.8,3.42-.57,2.19-1.1,4.22-1.46,6-.18.87-.36,1.67-.47,2.38s-.21,1.33-.27,1.85c-.12,1-.16,1.62-.16,1.62v0a.5.5,0,0,1-1,0v-.44c0-.29,0-.72,0-1.25s0-1.19.11-1.94.14-1.59.29-2.49c.28-1.81.7-3.9,1.16-6.11.24-1.1.48-2.24.69-3.39a33.33,33.33,0,0,0,.51-3.44,16.76,16.76,0,0,0,0-3.41c-.12-1.14-.3-2.27-.48-3.38a46.26,46.26,0,0,1-.74-6.24c0-.47,0-.93,0-1.36a12.44,12.44,0,0,1,.17-1.24,7.53,7.53,0,0,1,.67-2c.16-.27.3-.51.43-.71s.26-.28.36-.39l.3-.32a.5.5,0,0,1,.77.63Z"/></g><path class="cls-13" d="M946.62,671.89a2.88,2.88,0,0,0,2.87-3"/><g class="cls-15"><path class="cls-16" d="M1027.63,657l.26,1.45c.09.46.14,1,.23,1.71s.13,1.41.2,2.22c.11,1.62.14,3.52.14,5.54s0,4.16,0,6.29c0,1.06,0,2.12.11,3.16s.16,2.05.28,3l.22,1.43.27,1.35c.07.44.2.86.3,1.27s.19.86.29,1.12a1.36,1.36,0,0,0,.12.27l0,0,.06.05h0l0,0a.63.63,0,0,0,.44,0,1,1,0,0,0,.43-.3,1.81,1.81,0,0,0,.3-.49,5.43,5.43,0,0,0,.26-.94l.07-.37h0a.5.5,0,0,1,1,.09v.4a5.23,5.23,0,0,1-.12,1.21,3.2,3.2,0,0,1-.36.91,2.42,2.42,0,0,1-.95.88,2.14,2.14,0,0,1-1.58.19l-.23-.08-.27-.15-.16-.12-.18-.17a2.45,2.45,0,0,1-.46-.75c-.2-.48-.27-.84-.41-1.29s-.26-.88-.35-1.34-.21-.94-.29-1.43l-.21-1.51c-.11-1-.21-2.08-.26-3.15s-.08-2.16-.08-3.24c0-2.17.08-4.32.16-6.33s.08-3.87.08-5.46c0-.79,0-1.53-.07-2.17s-.06-1.19-.12-1.66l-.15-1.47a.5.5,0,0,1,1-.14Z"/></g><g class="cls-15"><path class="cls-16" d="M959.4,705.25l.23.37a11.51,11.51,0,0,1,.6,1.15,12.58,12.58,0,0,1,.69,1.89,13.08,13.08,0,0,1,.48,2.57,14.58,14.58,0,0,1-.84,6.46,27.85,27.85,0,0,0-1.05,3.25,8.21,8.21,0,0,0,0,3.3,16.3,16.3,0,0,0,1.07,3.29c.46,1.08,1,2.08,1.51,3.15a8.16,8.16,0,0,1,.94,3.44,4.24,4.24,0,0,1-1.24,3.14,4.91,4.91,0,0,1-1.25.79,3.34,3.34,0,0,0-.84.52.84.84,0,0,0-.27.58c0,.25,0,.57,0,.89a1.6,1.6,0,0,1-.4.93,1.4,1.4,0,0,1-.7.44,1,1,0,0,1-.84-.18.45.45,0,0,1,.29-.79H958s0,0,0,0a.54.54,0,0,0,.29-.49c0-.21,0-.48,0-.87a2,2,0,0,1,.54-1.29c.7-.71,1.59-.91,2.06-1.41a3.08,3.08,0,0,0,.76-2.23,6.86,6.86,0,0,0-.87-2.83c-.5-1-1.1-2-1.61-3.16a16.26,16.26,0,0,1-1.21-3.6,9.79,9.79,0,0,1,0-3.92,28.69,28.69,0,0,1,1.08-3.45,13.92,13.92,0,0,0,.71-3,14.52,14.52,0,0,0,.1-2.78,16.54,16.54,0,0,0-.77-4.12c-.16-.49-.29-.84-.4-1.12l-.16-.41a.5.5,0,0,1,.89-.45Z"/></g><g class="cls-15"><path class="cls-16" d="M1022.88,570l0,1.21c0,.37,0,.81.1,1.34s.1,1.11.18,1.75c.17,1.29.43,2.78.68,4.42a47.83,47.83,0,0,1,.56,5.22,26.17,26.17,0,0,1,0,2.72l0,.68-.07.64c-.06.45-.12.88-.2,1.29-.31,1.65-.68,3.14-.88,4.41a17.66,17.66,0,0,0-.34,3.06c0,.37,0,.66,0,.85v.34a.5.5,0,0,1-1,.11l-.06-.33c0-.21-.09-.53-.12-.93a18,18,0,0,1,.06-3.3c.14-1.35.42-2.87.63-4.48l.15-1.2.06-.64,0-.61a24.44,24.44,0,0,0,0-2.53c-.12-1.71-.35-3.43-.55-5.06s-.36-3.19-.42-4.54a23.5,23.5,0,0,1,.06-3.28c.08-.78.16-1.21.16-1.21v0a.5.5,0,0,1,1,.08Z"/></g><path class="cls-17" d="M975,448a7,7,0,0,0-3.83.63,2.42,2.42,0,0,0-1.37,2.48c.27,1.21,1.7,2,2.29,3.13.89,1.71-.35,3.67-.18,5.53a1.43,1.43,0,0,0,.26.76,2,2,0,0,0,1.18.59c1.09.21,2.47-.08,2.85-1"/><path class="cls-17" d="M981.06,472.86l-.25,6.11a21.09,21.09,0,0,0,8.28,16,20.7,20.7,0,0,1,3.85,3.14c3.53,4.32,2.53,6.79,5.72,10,0,0,1.12-8.7,3-10.37l1.84-1.67a18.35,18.35,0,0,0,4.46-4.42l2.54-3.17a22.88,22.88,0,0,0,3.44-5.19c.82-1.92,1.6-5.17.75-7.07l-.44-4Z"/><path class="cls-17" d="M1018.88,447.24a5.49,5.49,0,0,1,3-.78,2.72,2.72,0,0,1,1.89,4.22,6.57,6.57,0,0,0-.9,1.29,3,3,0,0,0-.1,1.16l.1,2.18a6.76,6.76,0,0,1-.13,2.12,2.29,2.29,0,0,1-1.31,1.58,1.4,1.4,0,0,1-1.78-.72"/><ellipse class="cls-18" cx="997.4" cy="451.59" rx="22.86" ry="30.42"/><path class="cls-19" d="M1014.64,429.09s2.6,2.4,3.36,18.89a2.74,2.74,0,0,0,.44,1.64,1,1,0,0,0,1.48.08c.13-.21.14,4.9.15,4.65l.16-7.15a1.15,1.15,0,0,1,.14-.64c.41-.59,1.45,0,2-.48,0,0,4-3.36,4-7.86S1021.2,426.38,1014.64,429.09Z"/><path class="cls-5" d="M1004.32,441.46a3.16,3.16,0,0,1,5,1.25"/><path class="cls-5" d="M988.25,441.32a4.36,4.36,0,0,0-4,2.63"/><path class="cls-5" d="M998.58,460.67q-4.23.12-8.47-.08a2.81,2.81,0,0,1-2.13-.73,1.75,1.75,0,0,1,.4-2.5c4.43-2.28,4.43-2.28,9.8-6.72"/><path class="cls-19" d="M985.66,425.49c-1.06,4.88-1.73,8.58-6.39,11.74-.53.36-4.21,11.63-4.73,10.89-.74-1.06-2.16,0-3.34.15,0,0-6.79-18.81,5.73-27.09a23.6,23.6,0,0,1,7.14-3.07c.58-2.33,4.8-7,14.59-7.9s19.66,3.77,21.6,9.7-5.61,11.73-5.61,11.73-2.81-5.31-7.34-7.46C1007.3,424.17,994.17,430.89,985.66,425.49Z"/><ellipse cx="1007.3" cy="448.03" rx="1.3" ry="2.48"/><ellipse cx="987.22" cy="448.03" rx="1.3" ry="2.48"/><circle class="cls-20" cx="997.2" cy="468.25" r="2.13"/><path class="cls-7" d="M917.92,814.39c1,2.76,15.72,5.85,15.72,5.85,82.59,11.8,143.55-3.26,144.35-5.16"/><path d="M1132.56,867s-3-.33-8.4-.38a50.81,50.81,0,0,0-9.54.72,15.9,15.9,0,0,0-2.66.77,4,4,0,0,0-2.06,1.5,1.56,1.56,0,0,0-.18,1.11c0,.17.06.17.08.23a.45.45,0,0,0,.11.19,1.73,1.73,0,0,0,.4.41,7.26,7.26,0,0,0,2.85,1c2.19.38,4.59.47,7.08.7a36.9,36.9,0,0,1,3.84.52,10.25,10.25,0,0,1,4,1.51,4,4,0,0,1,1.84,3.15l0,.31c0,.07,0-.05,0,.18v.19a2.68,2.68,0,0,1-.24.79,4.25,4.25,0,0,1-1.95,1.7,13,13,0,0,1-2.09.78,50,50,0,0,1-8.54,1.36c-5.78.51-11.75.69-17.79.86s-12.2.23-18.22.85a25.06,25.06,0,0,0-4.34.79,5.29,5.29,0,0,0-.9.36,1.15,1.15,0,0,0-.39.29s0,0,0,0,0-.22,0-.09v.07l0,.14c0,.07,0,.25,0,.23s0,0,0,0,.11.11.15.18l.3.21a5.83,5.83,0,0,0,1.87.54,20,20,0,0,0,2.17.19c1.48.06,3,0,4.49,0a70.07,70.07,0,0,1,9.11.11,13.15,13.15,0,0,1,2.34.48,4.35,4.35,0,0,1,2.26,1.53,2.82,2.82,0,0,1,.49,1.45l0,.19a1.25,1.25,0,0,1,0,.17v.07a1.67,1.67,0,0,1-.06.35,2.45,2.45,0,0,1-.38.82,5.09,5.09,0,0,1-2.11,1.51,21.1,21.1,0,0,1-4.29,1.21c-1.42.27-2.82.46-4.21.62-2.78.32-5.5.5-8.15.64-5.29.27-10.29.34-14.91.37-9.23,0-16.9-.19-22.28-.29l-8.44-.14a.3.3,0,0,1,0-.61l8.45,0c5.38,0,13.05,0,22.26-.22,4.6-.09,9.58-.22,14.83-.56,2.62-.17,5.32-.39,8-.74,1.36-.18,2.73-.38,4.09-.66a19.6,19.6,0,0,0,3.92-1.15,3.58,3.58,0,0,0,1.39-1c.05-.08.09-.18.09-.16s0-.11,0-.19v-.07c0-.11,0,.07,0,0V892a1.06,1.06,0,0,0-.2-.58,2.76,2.76,0,0,0-1.36-.84,11.47,11.47,0,0,0-2-.4,69.06,69.06,0,0,0-8.85-.05c-1.52,0-3,.08-4.61,0a21.74,21.74,0,0,1-2.38-.2,7.49,7.49,0,0,1-2.5-.74,6.53,6.53,0,0,1-.64-.45,3,3,0,0,1-.56-.71,4.16,4.16,0,0,1-.21-.5,1.4,1.4,0,0,1-.07-.33l0-.14V887a1.47,1.47,0,0,1,0-.23,2,2,0,0,1,.12-.59,2.57,2.57,0,0,1,1.24-1.27,7.07,7.07,0,0,1,1.23-.51,26.65,26.65,0,0,1,4.7-.89c6.2-.66,12.34-.74,18.39-.94s12-.29,17.68-.76a48.42,48.42,0,0,0,8.2-1.25,11.29,11.29,0,0,0,1.78-.65A2.65,2.65,0,0,0,1128,879a2,2,0,0,0-.1-1.21,2.71,2.71,0,0,0-.94-1.13,9,9,0,0,0-3.27-1.27,35.28,35.28,0,0,0-3.65-.56c-2.45-.28-4.85-.41-7.2-.86a8.52,8.52,0,0,1-3.46-1.32,3.18,3.18,0,0,1-.72-.78,2.58,2.58,0,0,1-.4-1.06,3,3,0,0,1,.39-2,5.28,5.28,0,0,1,2.79-2.06,15.75,15.75,0,0,1,2.92-.76,51.79,51.79,0,0,1,9.79-.44c2.7.09,4.81.29,6.25.44s2.2.26,2.2.26h0a.33.33,0,0,1-.08.65Z"/><path class="cls-21" d="M338.4,239c-4.81-39.84-11.91-119.79-11.91-119.79,15.12-4.9,66.72-25.47,78.68-26.36,6.55,24.73,13.6,52.19,24.67,75.25-34.31,19.84-64.7,43.68-91.41,73Z"/><path class="cls-22" d="M402.85,95.05a1283,1283,0,0,0-63.31,142.75"/><path class="cls-22" d="M326.42,119.57c2.92-1.32,6.3-.81,9.46-.28l27.29,4.58c8.09,1.36,16.26,2.74,23.87,5.82,18,7.3,30.8,23.19,42.8,38.44"/><path class="cls-22" d="M339.66,236.91c-6.16,9.33-16,15.4-24.86,22.25s-17.36,15.65-18.71,26.75,4.78,21.78,5.17,32.95c.49,14-8.29,27-19.59,35.31s-24.91,12.66-38.26,16.91"/><path class="cls-22" d="M229.75,361.67c11.68-4.4,24.38-5.38,36.3-9.1s23.83-11.3,27.45-23.24c1.61-5.3,1.42-11,1.85-16.47,2.31-29.7,22.44-55.16,45.36-74.19"/><path class="cls-22" d="M250.82,375.78c8.5-2,17.14-4,24.72-8.34A59.79,59.79,0,0,0,288,357.58c11-11.08,19.37-26.67,16.28-42-1.78-8.84-7.17-16.72-8.36-25.66"/><path class="cls-7" d="M386.85,131.05c57.27,178.72,177.56,508.67,531.73,549.49"/><path class="cls-23" d="M991.72,401.48c.4-31.73.79-154.83,1.19-186.56,0,0,0-1.61,3.49-1.61s3.52.73,3.52.73c.13,32.31-.29,156-1.27,188.31"/><path class="cls-24" d="M784,334.41h434.14s1.61-.44,1.61-3.51-1.61-3.51-1.61-3.51H784a1.66,1.66,0,0,0-1.66,1.66v3.72A1.66,1.66,0,0,0,784,334.41Z"/><path class="cls-22" d="M964.64,440.37l-4,.43a12.92,12.92,0,0,1-4.87-.09,4,4,0,0,1-2.31-1.55,2.25,2.25,0,0,1,.09-2.65,3.15,3.15,0,0,1,.76-.57c2.51-1.48,5.59-2.16,7.52-4.34a13.43,13.43,0,0,0,1.71-2.68c.64-1.2,1-4.68,1.63-5.88"/><path class="cls-22" d="M1025.93,422.52a11.93,11.93,0,0,0,2.83,3.2,12.15,12.15,0,0,0,3.16,1.51,11.2,11.2,0,0,1,4.46,2.24c1.19,1.19,1.6,3.35.38,4.5a4.37,4.37,0,0,1-2.14.92,32.39,32.39,0,0,1-7.45.72"/><path class="cls-22" d="M1012.88,405.86c1.4-1.15,4.56-4.77,2.86-6.19s-4.25,2.78-5.14,4.76"/><path class="cls-22" d="M976.61,408.74c-1.7-.94-4.74-4-2.88-5.51s4.75,2.4,5.49,3.4"/><path class="cls-23" d="M1002.26,257.38c.4-31.73.79-103.28,1.19-135,0,0,0-1.61,3.49-1.61s3.52.73,3.52.73c.13,32.31-.29,104.46-1.27,136.76Z"/><path class="cls-25" d="M989.39,322.37a56.67,56.67,0,0,0,11.43.18"/><path class="cls-25" d="M990,320a94,94,0,0,0,11.43-.2"/><path class="cls-25" d="M990,322.38a94,94,0,0,0,11.43-.2"/><path class="cls-25" d="M990.14,323.86a73.56,73.56,0,0,0,.13,13.19"/><path class="cls-25" d="M986.5,324.75a30.54,30.54,0,0,0,1.21,11.69"/><path class="cls-25" d="M1003.45,324.46a33.82,33.82,0,0,0,1.26,11.1"/><path class="cls-25" d="M1006.12,325.33a76.76,76.76,0,0,1,1.77,10"/><path class="cls-25" d="M1008.57,326l2.49,9.33"/><path class="cls-25" d="M990.57,340.08a81,81,0,0,1,10.54-.26"/><line class="cls-25" x1="990.85" y1="338.5" x2="1001.85" y2="338.5"/><path class="cls-25" d="M983.27,325.63q-.17,5.27.09,10.55"/><path class="cls-22" d="M934.7,156.29a177.42,177.42,0,0,0,39.06-15.83c9.52-5.25,18.54-11.38,28.14-16.49,13.77-7.33,28.56-12.51,42.87-18.7,16-6.92,31.41-15.12,46.8-23.3"/><path class="cls-22" d="M1080.42,73.87a4.39,4.39,0,0,0-2.43-.07,1.52,1.52,0,0,0-1,1.94c.31.6,1.07.78,1.73.93a13,13,0,0,1,5.86,3c1.53,1.39,2.68,3.21,4.45,4.28a13.2,13.2,0,0,0,5.24,1.43,2.35,2.35,0,0,0,2-.38,1.58,1.58,0,0,0,0-1.92,4.62,4.62,0,0,0-1.61-1.28l-14.14-8.14"/><path class="cls-22" d="M1043.77,100.69l-11.28-3.27a1.17,1.17,0,0,0-.7-.05,1,1,0,0,0-.52.65,3.23,3.23,0,0,0,1.18,3.27,9.49,9.49,0,0,0,3.31,1.58l11.16,3.63c1.15.37,2.72.58,3.27-.49s-.85-2.4-2.07-3l-5.07-2.41"/><path class="cls-22" d="M1022.54,117.5a126.54,126.54,0,0,1-16.46-7.14c-.81-.42-1.85-.84-2.56-.26l5.78,5.75a3.09,3.09,0,0,0,2.17,1.2,3.05,3.05,0,0,0,1.34-.54l4-2.44"/><path class="cls-22" d="M963.79,136.8l18.6,6.9a4.2,4.2,0,0,0,2.5.38c.83-.22,1.49-1.22,1-2a2.13,2.13,0,0,0-1.32-.76,100.34,100.34,0,0,1-14.85-5.55c-2.2-1-5.11-2-6.76-.25"/><path class="cls-22" d="M937.55,150c-4.75.16-9.28-3.32-13.93-2.36a38.45,38.45,0,0,0,11.6,4.21"/><line class="cls-5" x1="839.15" y1="119.13" x2="1023" y2="177.63"/><line class="cls-5" x1="892.25" y1="102.08" x2="1052.36" y2="160.84"/><path class="cls-5" d="M1060.8,165.43a6.5,6.5,0,0,0-3.62-9L895.36,98.2a6.51,6.51,0,0,0-8,3.21h0a6.51,6.51,0,0,0,3.6,9l161.86,58.22a6.5,6.5,0,0,0,8-3.21Z"/><line class="cls-5" x1="931.07" y1="81.97" x2="1086.77" y2="141.3"/><line class="cls-5" x1="959.28" y1="66.04" x2="1111.71" y2="131.46"/><line class="cls-5" x1="1007.01" y1="41.35" x2="1158.18" y2="111.63"/><path class="cls-5" d="M998.23,125.57c-.84-1.94-1.6-4.43-.14-6a5.11,5.11,0,0,1,2.06-1.13q1.81-.63,3.66-1.11a7.85,7.85,0,0,1,3.64-.3,3,3,0,0,1,2.45,2.43"/><path class="cls-22" d="M990.27,234.7c5.86.25,15.23.5,21.09.76"/><path class="cls-22" d="M990.65,231.3c6.25-.26,13.67-.31,19.92-.14"/><line class="cls-22" x1="989.85" y1="229" x2="1010.85" y2="229"/><path class="cls-24" d="M1198.85,355.5V197.72s-.11-2.34-4.5-2.34-4.5,2.34-4.5,2.34V355.5s.84,1.17,4.5,1.17S1198.85,355.5,1198.85,355.5Z"/><path class="cls-22" d="M1211.09,268.86a24.75,24.75,0,0,1-6-.17l-2.17-36.85c-.15-2.46-.27-5,.83-7.25s3.85-3.79,6.07-2.73c2.41,1.15,2.74,4.39,2.74,7.06l0,38.52A1.66,1.66,0,0,1,1211.09,268.86Z"/><path class="cls-22" d="M1203.48,244.81a11.88,11.88,0,0,0,4.13,1.18c1.44.05,5.3-.53,6-1.79"/><path class="cls-22" d="M1203.78,240.74a15.84,15.84,0,0,0,7.65-.09"/><path class="cls-22" d="M1203.49,236.06a10.92,10.92,0,0,0,8.8-.52"/><path class="cls-22" d="M1204.61,261.34a8.51,8.51,0,0,0,7.68.58"/><path class="cls-22" d="M1205.25,223.2l0-3.39a1.08,1.08,0,0,1,1.34-1.31h2.29a.92.92,0,0,1,1.08,1.18v3.22"/><path class="cls-22" d="M1206.72,217l0-4.08a2.61,2.61,0,0,1,.2-1.28.9.9,0,0,1,1.09-.47c.44.21.5.8.5,1.29v4.84"/><path class="cls-5" d="M1188.25,253.7c8.8-.52,16.33-.73,25.36-.64"/><line class="cls-5" x1="1188.85" y1="258" x2="1213.85" y2="258"/><path class="cls-5" d="M1188.55,261.3a208.86,208.86,0,0,1,25.36,0"/><path class="cls-22" d="M1209.56,44.27s-1.11,86.73-1.11,94.73h0c0,5,3,5,3,3.2s-6.65.46-6.65,3.39v-.2c0,3.12,6.47,4.69,6.47,2.93s-6.47.2-6.47,3.12v-.2c0,3.12,6.47,4.69,6.47,2.93s-6.47.2-6.47,3.12v-.2c0,3.12,6.47,4.69,6.47,2.93s-6.47.2-6.47,3.12V163c0,3.12,6.47,4.69,6.47,2.93s-6.47.2-6.47,3.12v-.2c0,3.12,6.47,4.69,6.47,2.93s-6.47.2-6.47,3.12v-.2c0,3.12,6.65,4.69,6.65,2.93s-7,.2-7,3.12,7.12,6,7.12,3.32-6.45.2-6.45,2.54c0,1.51.24,2.47.83,3a3.39,3.39,0,0,1,.83,2.63V210"/><path class="cls-25" d="M1185.62,325.58a116.3,116.3,0,0,0-.45,11.76"/><path class="cls-25" d="M1188.51,338.66l.25-17.28"/><line class="cls-25" x1="1202.35" y1="325" x2="1202.35" y2="337"/><path class="cls-25" d="M1205.56,325.55c-.08,5-.17,6-.25,10.94"/><path class="cls-25" d="M1188.84,324.36q6.8-.4,13.61-.62"/><path class="cls-25" d="M1190.15,336.2q6.07.23,12.16.1"/><path class="cls-24" d="M804.85,355.5V219.78s.39-2.34-4-2.34-4,2.34-4,2.34V355.5s.34,1.17,4,1.17S804.85,355.5,804.85,355.5Z"/><path class="cls-25" d="M1185,325.58a97.41,97.41,0,0,0-.45,10.76"/><path class="cls-25" d="M1187.89,336.66c.08-5.76.17-5.52.25-11.28"/><line class="cls-25" x1="1200.35" y1="326" x2="1200.35" y2="337"/><path class="cls-25" d="M1203.94,326.55c-.08,5-.17,5-.25,9.94"/><path class="cls-25" d="M1189.22,322.36c4.53-.27,5.21-.39,9.75-.54"/><path class="cls-25" d="M1188.53,339.2c4,.15,6.1.18,10.16.1"/><path class="cls-25" d="M791.62,325.58a116.3,116.3,0,0,0-.45,11.76"/><path class="cls-25" d="M794.51,338.66l.25-17.28"/><line class="cls-25" x1="808.35" y1="325" x2="808.35" y2="337"/><path class="cls-25" d="M811.56,325.55c-.08,5-.17,6-.25,10.94"/><path class="cls-25" d="M794.84,324.36q6.8-.4,13.61-.62"/><path class="cls-25" d="M796.15,336.2q6.07.23,12.16.1"/><path class="cls-25" d="M791,325.58a97.41,97.41,0,0,0-.45,10.76"/><path class="cls-25" d="M793.89,336.66c.08-5.76.17-5.52.25-11.28"/><line class="cls-25" x1="806.35" y1="326" x2="806.35" y2="337"/><path class="cls-25" d="M809.94,326.55c-.08,5-.17,5-.25,9.94"/><path class="cls-25" d="M795.22,322.36c4.53-.27,5.21-.39,9.75-.54"/><path class="cls-25" d="M794.53,339.2c4,.15,6.1.18,10.16.1"/><path class="cls-26" d="M794.16,197.65l1.27,86.45s-.72,1.78-4.52,1.7-3-1.73-3-4.4l.42-83.78a2.05,2.05,0,0,1,2.11-2l1.68,0A2.05,2.05,0,0,1,794.16,197.65Z"/><polygon class="cls-5" points="790.49 195.31 789.18 47.34 789.18 47.34 792.17 195.65 790.49 195.31"/><path class="cls-5" d="M789.2,46.31l.08-4.77c0-.26,0-.57.28-.67a.46.46,0,0,1,.54.26,1.28,1.28,0,0,1,.08.65,24.54,24.54,0,0,1-.65,4.33c-.94-1.37-.85-3.17-.73-4.83a1.47,1.47,0,0,1,.21-.78.51.51,0,0,1,.71-.14"/><path class="cls-27" d="M787.43,40.14a85.85,85.85,0,0,1,1-16.47,14.31,14.31,0,0,1,1.45-4.91,13.38,13.38,0,0,1,2.6-3.06A47.11,47.11,0,0,1,805.69,7a9.25,9.25,0,0,1,3.94-1,6.83,6.83,0,0,1,5.07,3,18.51,18.51,0,0,1,2.46,5.55c.48,1.54.91,3.29.12,4.7a5.47,5.47,0,0,1-2.59,2A31.06,31.06,0,0,1,803.42,24a35.66,35.66,0,0,0-5.93.57,7.69,7.69,0,0,0-4.89,3.15,11,11,0,0,0-1.18,5.22l-.36,6.24a.79.79,0,0,1-.85.93c-.89.12-1.9-.08-2.79,0"/><path class="cls-28" d="M815.16,21.07l-.47.23A30.88,30.88,0,0,1,803.42,24a37.07,37.07,0,0,0-5.93.56,9,9,0,0,0-2.37.89,16.29,16.29,0,0,1-4.05-8.34c.43-.49.91-1,1.41-1.42A47,47,0,0,1,805.69,7c.34-.15.68-.29,1-.42l.32.55c.64,1.07,1.39,2.17,1.63,2.53A129.84,129.84,0,0,1,815.16,21.07Z"/><path class="cls-29" d="M787.38,241.93A77.91,77.91,0,0,1,806,236l-.43,35.3c-6.75-1.16-11.15-2.32-17.9-3.49Z"/><path class="cls-22" d="M788.39,246.41c7.18.34,9.68,1.08,16.78,2.23"/><path class="cls-22" d="M787.38,260.38c6.95-2.45,10.71-3.65,17.79-5.67"/><path class="cls-22" d="M794.64,258.14a61,61,0,0,1,10.52,2.08"/><path class="cls-30" d="M984.67,404.55l6-26.57a1.08,1.08,0,0,1,1.29-1.08l6.23,0a.75.75,0,0,1,.9.73c1.13,4.33,6,21.88,6.46,25.82"/><circle class="cls-31" cx="1209.56" cy="44.27" r="4.06"/><path class="cls-32" d="M998.72,420.52c-8.69.23-18.88,1.44-27.72,6.79l1,17a9,9,0,0,1-8.53-6,12.54,12.54,0,0,1-.49-4.35A40.26,40.26,0,0,1,965.36,423a21.86,21.86,0,0,1,2.09-4.91,23.06,23.06,0,0,1,3.89-4.34l5.07-4.77a11.93,11.93,0,0,1,6.81-3.75l6.88-1.81a15.31,15.31,0,0,1,5.62-.75c3.6-.68,7.62.35,11.05,1.63a47.66,47.66,0,0,1,9.63,5.24,21.57,21.57,0,0,1,2.77,2.09,22.14,22.14,0,0,1,4.23,6.17c2.68,5.13,5.47,12.32,4,17.93a10.48,10.48,0,0,1-5.68,6.35c1.2-8.3-.25-10.16-1.61-15.89C1015.16,423.93,1007.41,420.28,998.72,420.52Z"/><ellipse class="cls-33" cx="978.7" cy="415.94" rx="7.7" ry="3.18" transform="translate(-82.97 476.88) rotate(-26.31)"/><ellipse class="cls-33" cx="997.81" cy="410.32" rx="7.7" ry="3.18" transform="translate(-17.37 45.07) rotate(-2.57)"/><line class="cls-5" x1="1018.97" y1="416.25" x2="1018.97" y2="416.25"/><path class="cls-34" d="M1015.51,415.27c-2.32-.95-3.78-2.29-3.57-3.49.16-.93,1.28-1.59,2.93-1.89"/><line class="cls-5" x1="1016.67" y1="409.71" x2="1016.67" y2="409.71"/><path class="cls-35" d="M1020.15,426.23c2.55,5.73,1.61,15.89,1.61,15.89,6.41,0,6.34-8,6.34-8,1.44-5.61-1.28-11.69-4-16.82-1.16-2.22-7-14.53-28.58-14.53S965.75,421.34,965.19,423a40.26,40.26,0,0,0-2.38,10.89,12.54,12.54,0,0,0,.49,4.35c1.15,3.55,4,6.12,7.7,6,0,0,.15-6.18,0-17"/><path class="cls-22" d="M1028.41,431.66s-9.71-11-32-11-31.87,12.7-33.52,15.59"/><path class="cls-5" d="M1028,435.34s-6.66,46.46-29.91,46.46c-25.58,0-33.7-47.72-33.7-47.72"/><path class="cls-22" d="M992.06,402.72a5.61,5.61,0,0,1-2.2-2.05,41.44,41.44,0,0,1-2.95-4.74c-.33-.61-.79-1.32-1.55-1.26a1.64,1.64,0,0,0-1.31,1.24,3.2,3.2,0,0,0,.17,1.73,18.44,18.44,0,0,0,3.32,6.22"/><line class="cls-7" x1="822.61" y1="375.61" x2="849.04" y2="437.56"/><line class="cls-7" x1="780.93" y1="334.41" x2="807.36" y2="396.35"/><line class="cls-7" x1="922" y1="271.07" x2="948.43" y2="333.02"/><line class="cls-7" x1="929.89" y1="204.01" x2="956.32" y2="265.96"/><line class="cls-7" x1="716.36" y1="145.54" x2="742.79" y2="207.49"/><line class="cls-7" x1="612.93" y1="254.86" x2="639.36" y2="316.81"/><line class="cls-7" x1="564.55" y1="282.59" x2="590.98" y2="344.54"/><line class="cls-7" x1="574.17" y1="375.61" x2="600.6" y2="437.56"/><line class="cls-7" x1="1091.58" y1="520.97" x2="1118.01" y2="582.92"/><line class="cls-7" x1="905.37" y1="548.43" x2="931.8" y2="610.37"/><line class="cls-7" x1="892.16" y1="673.2" x2="918.59" y2="735.15"/><line class="cls-7" x1="835.82" y1="645.91" x2="862.25" y2="707.86"/><line class="cls-7" x1="774.16" y1="698.25" x2="800.59" y2="760.2"/><line class="cls-7" x1="768.35" y1="575.03" x2="794.78" y2="636.97"/><line class="cls-7" x1="668.65" y1="621.39" x2="695.08" y2="683.34"/><line class="cls-7" x1="1111.71" y1="432.63" x2="1138.14" y2="494.57"/><line class="cls-7" x1="1175.63" y1="376.01" x2="1202.06" y2="437.96"/><line class="cls-7" x1="1224.34" y1="536.01" x2="1250.77" y2="597.96"/><line class="cls-7" x1="1339.94" y1="542.53" x2="1366.37" y2="604.48"/><line class="cls-7" x1="1428.34" y1="700.55" x2="1454.77" y2="762.5"/><line class="cls-7" x1="1287.2" y1="710.07" x2="1313.63" y2="772.02"/><line class="cls-7" x1="1219.1" y1="765.48" x2="1245.53" y2="827.43"/><line class="cls-7" x1="1357.44" y1="334.29" x2="1383.87" y2="396.24"/><line class="cls-7" x1="1395.1" y1="217.23" x2="1421.53" y2="279.18"/><line class="cls-7" x1="1357.44" y1="48.68" x2="1383.87" y2="110.63"/><line class="cls-7" x1="1127.74" y1="265.48" x2="1154.17" y2="327.43"/><line class="cls-7" x1="1114.53" y1="137.39" x2="1140.96" y2="199.34"/><line class="cls-7" x1="1260.2" y1="153.95" x2="1286.63" y2="215.9"/><line class="cls-7" x1="1273.41" y1="69.63" x2="1299.84" y2="131.58"/><line class="cls-7" x1="658.56" y1="342.24" x2="712.56" y2="468.81"/><line class="cls-7" x1="904.75" y1="437.88" x2="958.75" y2="564.45"/><line class="cls-7" x1="872.11" y1="274.43" x2="926.11" y2="401"/><line class="cls-7" x1="1029.82" y1="165.92" x2="1083.82" y2="292.49"/><line class="cls-7" x1="1138.14" y1="657.94" x2="1192.14" y2="784.51"/><line class="cls-7" x1="1246.41" y1="430.24" x2="1300.41" y2="556.8"/><line class="cls-7" x1="222.12" y1="540.82" x2="276.12" y2="667.39"/><line class="cls-7" x1="1013.74" y1="317.69" x2="1067.74" y2="444.26"/><line class="cls-7" x1="749.82" y1="395.15" x2="803.82" y2="521.72"/><line class="cls-7" x1="713.5" y1="177.93" x2="767.5" y2="304.49"/><line class="cls-7" x1="550.76" y1="49.95" x2="604.76" y2="176.52"/><line class="cls-7" x1="1062.24" y1="608.08" x2="1116.24" y2="734.65"/><line class="cls-7" x1="796.48" y1="665.94" x2="850.48" y2="792.51"/><line class="cls-7" x1="723.16" y1="748.38" x2="755.67" y2="824.59"/><line class="cls-7" x1="363.08" y1="706.84" x2="389.51" y2="768.79"/><line class="cls-7" x1="123.51" y1="679.47" x2="177.51" y2="806.04"/><line class="cls-7" x1="213.06" y1="696.46" x2="267.06" y2="823.03"/><line class="cls-7" x1="585.81" y1="590.1" x2="639.81" y2="716.67"/><line class="cls-7" x1="784.49" y1="74.11" x2="838.49" y2="200.67"/><line class="cls-7" x1="1196.77" y1="124.79" x2="1250.77" y2="251.35"/><line class="cls-7" x1="281.62" y1="148.19" x2="308.05" y2="210.13"/><line class="cls-7" x1="345.53" y1="143.22" x2="371.96" y2="205.17"/><line class="cls-7" x1="469.75" y1="101.5" x2="496.18" y2="163.45"/><line class="cls-7" x1="311.44" y1="174.96" x2="365.44" y2="301.53"/><line class="cls-7" x1="330.12" y1="59.9" x2="384.12" y2="186.46"/><line class="cls-7" x1="1476.46" y1="133.87" x2="1502.89" y2="195.82"/><line class="cls-7" x1="496.06" y1="210.19" x2="550.06" y2="336.76"/><line class="cls-7" x1="638.1" y1="152.62" x2="692.1" y2="279.18"/><line class="cls-7" x1="204.32" y1="161.15" x2="230.75" y2="223.1"/><line class="cls-7" x1="213.3" y1="401.17" x2="239.73" y2="463.12"/><line class="cls-7" x1="92.04" y1="448.13" x2="118.47" y2="510.08"/><line class="cls-7" x1="81.95" y1="168.98" x2="135.95" y2="295.55"/><line class="cls-7" x1="173.22" y1="221.89" x2="227.22" y2="348.46"/><line class="cls-7" x1="1273.41" y1="608.85" x2="1327.41" y2="735.41"/><line class="cls-7" x1="304.29" y1="356.88" x2="330.72" y2="418.82"/><line class="cls-7" x1="428.5" y1="315.15" x2="454.93" y2="377.1"/><line class="cls-7" x1="353" y1="516.87" x2="379.43" y2="578.82"/><line class="cls-7" x1="468.6" y1="523.39" x2="495.03" y2="585.34"/><line class="cls-7" x1="486.22" y1="631.75" x2="512.65" y2="693.7"/><line class="cls-7" x1="270.2" y1="388.61" x2="324.2" y2="515.18"/><line class="cls-7" x1="1413.23" y1="587.09" x2="1439.66" y2="649.04"/><line class="cls-7" x1="1433.37" y1="498.75" x2="1459.8" y2="560.69"/><line class="cls-7" x1="1433.37" y1="447.1" x2="1459.8" y2="509.04"/><line class="cls-7" x1="454.81" y1="423.85" x2="508.81" y2="550.41"/><line class="cls-7" x1="1449.46" y1="197.45" x2="1503.46" y2="324.01"/><line class="cls-7" x1="1332.92" y1="854.79" x2="1281.1" y2="733.33"/><path class="cls-7" d="M1357.1,828.79a30.64,30.64,0,0,0-19,27.59"/><path class="cls-7" d="M1303.75,838.1s21-.52,25,19.48"/><line class="cls-7" x1="1135.5" y1="827.1" x2="1095.8" y2="734.05"/><path class="cls-7" d="M1159.68,801.1a30.64,30.64,0,0,0-19,27.59"/><path class="cls-7" d="M1106.33,810.42s21-.52,25,19.48"/><path class="cls-7" d="M778.59,798.6a30.64,30.64,0,0,0-19,27.59"/><path class="cls-7" d="M725.24,807.92s21-.52,25,19.48"/><line class="cls-7" x1="24.16" y1="831.4" x2="56.67" y2="907.6"/><path class="cls-7" d="M79.6,881.62a30.64,30.64,0,0,0-19,27.59"/><path class="cls-7" d="M26.24,890.94s21-.52,25,19.48"/><line class="cls-7" x1="877.25" y1="766.07" x2="931.25" y2="892.64"/><path class="cls-7" d="M954.18,866.66a30.64,30.64,0,0,0-19,27.59"/><path class="cls-7" d="M900.82,876s21-.52,25,19.48"/><line class="cls-7" x1="460.89" y1="780.4" x2="501.43" y2="875.41"/><path class="cls-7" d="M527.39,849.67a30.64,30.64,0,0,0-19,27.59"/><path class="cls-7" d="M471,858.75s21-.52,25,19.48"/><path class="cls-7" d="M289.68,802.86a30.64,30.64,0,0,0-19,27.59"/><path class="cls-7" d="M236.32,812.18s21-.52,25,19.48"/></g><g id="headlines-mock"><text class="cls-36" transform="translate(670.85 888)">Gu<tspan class="cls-37" x="47.52" y="0">e</tspan><tspan class="cls-38" x="66.67" y="0">s</tspan><tspan class="cls-39" x="83.95" y="0">s L</tspan><tspan class="cls-37" x="129.17" y="0">e</tspan><tspan class="cls-40" x="148.32" y="0">s</tspan><tspan x="165.6" y="0">s</tspan></text></g></g></g></svg>