<svg xmlns="http://www.w3.org/2000/svg" xmlns:xlink="http://www.w3.org/1999/xlink" viewBox="0 0 1525 920"><defs><style>.cls-1{fill:#e6e6e6;}.cls-10,.cls-2{fill:#fff;}.cls-3,.cls-9{fill:none;stroke-linecap:round;stroke-linejoin:round;}.cls-10,.cls-3{stroke:#e6e6e6;}.cls-10,.cls-3,.cls-9{stroke-width:2px;}.cls-4{fill:#b3d9f5;}.cls-5{fill:#6ebcf5;}.cls-6{fill:#855b33;}.cls-7{fill:#333;}.cls-8{fill:#fff2e6;}.cls-9{stroke:#333;}.cls-10{stroke-miterlimit:10;}</style><symbol id="New_Symbol_3" data-name="New Symbol 3" viewBox="0 0 4 4"><circle class="cls-1" cx="2" cy="2" r="2"/></symbol></defs><title>hero-empathize</title><g id="Layer_2" data-name="Layer 2"><g id="hero-empathize"><rect class="cls-2" width="1525" height="920"/><path class="cls-3" d="M686.78,642.67c-1,.39-1.23.9-2,1.64l-4.38,4.38c-1.22,1.23-2.55,2.29-3.81,3.47-.73.68-1.44,1.35-2.18,2-1,.89-1.75,2-2.73,2.85a75.24,75.24,0,0,1-7.93,6c-1.48,1-2.69,2.35-4.19,3.35A37.18,37.18,0,0,1,654,669.5a54.33,54.33,0,0,0-10.27,6c-1.57,1.15-3.34,2.05-4.95,3.17a46.52,46.52,0,0,0-5.08,3.91A29.68,29.68,0,0,1,630,685c-1.41,1-2.81,2-4.3,2.9-2.85,1.68-5.67,3.39-8.54,5-1.49.85-3,1.78-4.42,2.75a45.41,45.41,0,0,1-5.19,3.1c-2.13,1.09-4.16,2.36-6.31,3.43-2.7,1.35-5.43,2.48-8.05,4-1.35.78-2.87,1.33-4.18,2.18-.82.54-1.56,1.17-2.42,1.66-2.5,1.42-5,2.85-7.55,4.18s-4.89,2.93-7.4,4.27a48.88,48.88,0,0,1-8.44,3.21,12.15,12.15,0,0,0-2.56,1.19,28.17,28.17,0,0,1-4.33,1.75,44,44,0,0,0-6.28,3.41c-3.15,1.84-6.58,3.86-10,1.47a9.55,9.55,0,0,0-3-1.75,13.4,13.4,0,0,0-3.26-.06c-1.33,0-2.49.15-2.67-1.45-.25-2.23,3.38-4.74,4.86-6,2.54-2.2,5.42-3.91,7.64-6.46,1.89-2.17,4.4-3.65,6.73-5.3,2.69-1.91,5.38-3.85,8.23-5.52,1.54-.9,3.18-1.51,4.67-2.51a36.5,36.5,0,0,1,3.39-2c1.68-.89,3.28-1.88,4.89-2.88,1.78-1.11,3.67-2,5.54-2.92,3.23-1.66,6.3-3.6,9.49-5.34a48,48,0,0,0,8.54-5.88c1.21-1.06,2.43-2.12,3.73-3.07.67-.48,2.81-1.5,2.67-2.6A18.32,18.32,0,0,0,593,677a70.51,70.51,0,0,0-10.78,4.71c-3.82,2.13-7.85,3.87-11.77,5.79-4.72,2.3-9.26,4.95-13.94,7.33-4.5,2.29-8.8,4.64-13.16,7.17-2.91,1.69-6.06,2.88-9,4.58-2.41,1.4-4.91,2.65-7.28,4.14-4.67,2.94-9.45,5.67-14.17,8.52-2.23,1.34-4.36,2.62-6.5,4.12-2,1.38-4,2.72-6,4-4.7,3-9.31,6.15-14.16,8.86a63,63,0,0,0-5.51,3.21c-2.41,1.69-4.72,3.59-7,5.44a93.84,93.84,0,0,0-11.3,10.55,51.36,51.36,0,0,0-6.76,9.42c-1.1,2.06-2.41,4.09-2.27,6.5.07,1.2.37,2.31.36,3.53,0,1.06,0,2.12,0,3.19,0,2.31-.11,4.64,0,6.95a7.71,7.71,0,0,0,1.3,3.84c.25.43,1.79,3.85,2.72,3.54"/><path class="cls-3" d="M694.45,643l.31.07c-.36.62-1.18,1.28-1.66,2-1,1.5-2.14,2.84-3.27,4.27-3,3.77-5.34,8.09-8.66,11.61s-6,7.18-9.36,10.43c-.92.89-2,1.66-2.87,2.55s-1.84,2.08-2.76,3.14c-.72.83-1.48,1.6-2.28,2.36-1.55,1.48-3,3.09-4.54,4.56-2,1.93-4.32,3.59-6.42,5.46s-4,3.56-6.1,5.22c-5.48,4.34-10.81,8.82-16.44,13-2.71,2-5.19,4.26-7.85,6.33-3.25,2.53-6.95,4.22-10.39,6.45-3,2-6.1,3.9-9.21,5.75-4.25,2.53-8.72,4.7-12.87,7.37-2.77,1.78-5.48,3.65-8.09,5.65-1.93,1.48-4.64,3.25-5.64,5.62-.61,1.43.21,2,1.64,1.86a11.17,11.17,0,0,0,2.35-.67,59.92,59.92,0,0,0,6.21-2.59c4-2,7.67-4.34,12-5.68,2.08-.65,4.21-.25,6.35-.43a71.72,71.72,0,0,0,10-2c6.54-1.51,12.66-6,18-9.82,3.22-2.33,5.76-5.34,8.62-8.08,3.71-3.57,7.7-6.92,11.54-10.35q8.49-7.58,17.09-15c2.55-2.21,5-4.67,7.32-7.09,2.7-2.78,5.53-5.31,8.37-7.94,1.92-1.78,3.56-3.76,5.4-5.62a23.48,23.48,0,0,1,2.54-2.09,17.37,17.37,0,0,0,3.1-3.59c2.09-2.75,4.31-5.38,6.57-8,.88-1,2-1.86,2.91-2.82s2-2.37,3.12-3.47c1.28-1.26,3.25-2.72,4-4.4l-.22-.33"/><path class="cls-3" d="M731.78,645.33l.44-.39c-4.35,2-9.65,4.38-11.72,9a40.58,40.58,0,0,1-2.92,4.75,24.83,24.83,0,0,0-1.43,3.14c-.89,1.93-2.38,3.64-3.38,5.55-.87,1.66-1.53,3.46-2.43,5.1-2.13,3.86-5.33,7-7.4,10.87-2.62,4.86-6.42,8.69-9.72,13-4,5.22-8.85,9.38-13.58,13.9-2.3,2.19-4.2,4.7-6.4,7s-5,4.1-7.15,6.56c-3.66,4.26-8.34,8.11-12.66,11.74-4.58,3.84-9.56,7.21-14.27,10.88-8.39,6.56-17.21,12.43-26.17,18.2-2.55,1.64-4.89,3.57-7.33,5.37-2.13,1.57-4.69,2.5-6.72,4.15-1.23,1-2.5,1.78-3.82,2.67-1.56,1-2.89,2.55-4.47,3.53-2.22,1.39-4.65,2.28-6.83,3.78a16.38,16.38,0,0,0-3.07,2.5c-.95,1.09-.89,2-1.43,3.28,3.88,1.54,9.49-2.14,12.95-3.3,3.65-1.23,7.35-1.94,11-3.33,2.88-1.1,5.73-2.18,8.56-3.4a62.62,62.62,0,0,0,12-6.25,83.52,83.52,0,0,1,8.06-5,84.69,84.69,0,0,0,11.3-7c3.91-3.07,8.54-5.42,12.22-8.73,3-2.67,5.32-5.84,8.33-8.5,3.28-2.89,6.64-5.82,9.76-8.88a88.57,88.57,0,0,1,10.2-9C686,725,688,723,690.3,721.34c2-1.45,3.94-3,5.83-4.5,2.15-1.74,4.81-4.49,7.57-5.28.58,1.76.28,4.78,0,6.58a17.72,17.72,0,0,1-2.16,5.2c-1.53,2.86-2.73,5.85-4.16,8.75A59.89,59.89,0,0,1,690.79,743c-1.57,2-2.75,4.27-4.34,6.26s-3.59,3.24-5.3,5c-3.58,3.67-6.24,8.24-10,11.77-1.87,1.77-3.93,3.29-5.79,5.06a76.08,76.08,0,0,1-7,6.22c-2.38,1.76-5,2.8-7.63,4.18s-5.1,3.33-7.72,4.87c-6.14,3.63-12.77,6.46-18.86,10.16-2,1.21-3.67,2.79-5.79,3.78-2.55,1.19-5.25,2.06-7.82,3.24-5.37,2.46-11,3.82-16.63,5.49-3.92,1.16-7.93,2-11.9,3a49.42,49.42,0,0,1-5.14.79c-2,.29-3.88,1.14-5.95,1.2-8.32.27-16.54,1.32-24.92,1.32-2.95,0-5.89,0-8.84,0s-5.78.69-8.76.67c-2.4,0-4.89.23-7.28,0-3-.24-5.88-1.32-8.82-.33a44.05,44.05,0,0,0-17.23,10.13c-5.41,5.38-11.62,9.75-17.66,14.41-2.94,2.27-6.26,4.17-9.1,6.52a76.55,76.55,0,0,1-6.86,4.61c-1.79,1.19-3.31,2.73-5.07,4a77.8,77.8,0,0,1-8.19,5.6c-1.83,1-3.92,1.63-5.58,2.9a14,14,0,0,1-4.73,2.83c-3.16,1.09-6.27,2.28-9.49,3.15a19.32,19.32,0,0,1-4.62.84,40.11,40.11,0,0,0-7,1.21,14.06,14.06,0,0,1-5.93-.52,13.83,13.83,0,0,1-5.42-2.21c-3.24-2.06-7.06-4.4-9.68-7.35-1.11-1.25-1.3-2.74-1.76-4.27a42.09,42.09,0,0,0-2.33-5c-1.4-3.21-.76-7.67.38-10.81.34-.94.61-2,1-2.89a13.3,13.3,0,0,1,2-3,30.21,30.21,0,0,0,3.4-6.32A31.28,31.28,0,0,1,400,826c.81-1.43,2.64-2.51,3.7-3.78a45.16,45.16,0,0,1,9.72-8.88c3.69-2.41,6.65-5.46,10.67-7.35,3.22-1.52,6.66-2.52,9.93-3.93a76.8,76.8,0,0,1,11.65-4c1-.26,2-.44,3-.79s1.81-1,2.75-1.21,1.82.14,2.69,0,1.31-.75,2.18-.82l.13-.54"/><use width="4" height="4" transform="translate(119.16 131.83)" xlink:href="#New_Symbol_3"/><use width="4" height="4" transform="translate(140.37 250.98)" xlink:href="#New_Symbol_3"/><use width="4" height="4" transform="translate(239.6 333.97)" xlink:href="#New_Symbol_3"/><use width="4" height="4" transform="translate(355.28 248.22)" xlink:href="#New_Symbol_3"/><use width="4" height="4" transform="translate(295.03 172.74)" xlink:href="#New_Symbol_3"/><use width="4" height="4" transform="translate(373.39 76)" xlink:href="#New_Symbol_3"/><use width="4" height="4" transform="translate(535.11 100.01)" xlink:href="#New_Symbol_3"/><use width="4" height="4" transform="translate(618.32 165.5)" xlink:href="#New_Symbol_3"/><use width="4" height="4" transform="translate(772.46 204.72)" xlink:href="#New_Symbol_3"/><use width="4" height="4" transform="translate(849.39 234.93)" xlink:href="#New_Symbol_3"/><use width="4" height="4" transform="translate(947.14 194.04)" xlink:href="#New_Symbol_3"/><use width="4" height="4" transform="translate(1066.99 120.29)" xlink:href="#New_Symbol_3"/><use width="4" height="4" transform="translate(1208.05 114.16)" xlink:href="#New_Symbol_3"/><use width="4" height="4" transform="translate(1356.47 138.46)" xlink:href="#New_Symbol_3"/><use width="4" height="4" transform="translate(1433.48 100.66)" xlink:href="#New_Symbol_3"/><use width="4" height="4" transform="translate(1374.52 43.12)" xlink:href="#New_Symbol_3"/><use width="4" height="4" transform="translate(1081.99 47.53)" xlink:href="#New_Symbol_3"/><use width="4" height="4" transform="translate(807.24 41.17)" xlink:href="#New_Symbol_3"/><use width="4" height="4" transform="translate(787.52 109.52)" xlink:href="#New_Symbol_3"/><use width="4" height="4" transform="translate(869.14 101.85)" xlink:href="#New_Symbol_3"/><use width="4" height="4" transform="translate(680.91 39.87)" xlink:href="#New_Symbol_3"/><use width="4" height="4" transform="translate(572.71 150.24)" xlink:href="#New_Symbol_3"/><use width="4" height="4" transform="translate(464.93 243.72)" xlink:href="#New_Symbol_3"/><use width="4" height="4" transform="translate(288.98 85)" xlink:href="#New_Symbol_3"/><use width="4" height="4" transform="translate(173.3 56.37)" xlink:href="#New_Symbol_3"/><use width="4" height="4" transform="translate(36.28 171.04)" xlink:href="#New_Symbol_3"/><use width="4" height="4" transform="translate(72.5 303.79)" xlink:href="#New_Symbol_3"/><path class="cls-4" d="M742.28,578.75l.45.89a4.1,4.1,0,0,1-.86.44,10.07,10.07,0,0,1-3.83.46.64.64,0,0,0-.05-.23.52.52,0,0,0-.27.22l-.54,0a56.33,56.33,0,0,0-2.72-12.76c-1-2.83-2.34-5.5-3.62-8.25-.16-.35-.35-.7-.55-1.06l1.55-.53a1.09,1.09,0,0,0,.18.3,6,6,0,0,1,.82,1c.34.59.49,1.21.88,1.77a4.28,4.28,0,0,0,2.05,1.55c2.58,1.06,3.28-3.12,2.51-4.82l.48-.17a45.8,45.8,0,0,1,2.41,9.5A85.84,85.84,0,0,1,742.28,578.75Z"/><path class="cls-5" d="M738,580.54a10.07,10.07,0,0,0,3.83-.46l.19.45a7.35,7.35,0,0,1,0,1.24,6.27,6.27,0,0,0-.24.77,10.39,10.39,0,0,1,0,1.12,11.57,11.57,0,0,0-.41,1.12,3.56,3.56,0,0,1-.15.94,8.55,8.55,0,0,0-.51,1.3,4.1,4.1,0,0,1-.62,1.15c-.21.35-.31.82-.5,1.19a10.92,10.92,0,0,1-1.44,2.13c-.51.58-1.26,1.1-1.47,0a2.36,2.36,0,0,1,.18-1.12,13.08,13.08,0,0,1,.33-1.34c.3-.77.85-1.58.57-2.43-.41.13-1.42,1.41-1.76.66s.35-1.7.48-2.24c.05-.22-.08-.47,0-.69s.18-.2.22-.34a6.31,6.31,0,0,1,.48-1.22c.18-.44.19-1.71.56-2.23Z"/><path class="cls-4" d="M726.45,550.82h0a4.3,4.3,0,0,0-.43.74,5.22,5.22,0,0,1-.95-1c-.48-.57-.64-1.26-1.07-1.83a2.62,2.62,0,0,1-.69-1.62c-.06-.72-.48-1.27-.51-2s0-1.42,0-2.12c0-.86-.39-1.46-.07-2.28.2-.5.29-1,.49-1.49s.69-.83.57-1.24l1.48-.27a27.15,27.15,0,0,1,3.89,2.53c2.45,1.94,3.5,5.18,5.09,7.88a58.31,58.31,0,0,1,4.52,9.43l-.48.17a14.75,14.75,0,0,0-1.31-2.68,8,8,0,0,0-.88-.87,1.41,1.41,0,0,0-.55-.45c-.25-.09-.65,0-.74-.25h0c-.16.78-1.23.38-1.75.48a2.15,2.15,0,0,0-1.31,1.21,2.82,2.82,0,0,0-.2,1.57,4.2,4.2,0,0,0,.32,1.14l-1.55.53C728.89,556,726.73,553.38,726.45,550.82Z"/><path class="cls-4" d="M738.28,557.74c.77,1.7.07,5.88-2.51,4.82a4.28,4.28,0,0,1-2.05-1.55c-.39-.56-.54-1.18-.88-1.77a6,6,0,0,0-.82-1,1.09,1.09,0,0,1-.18-.3,4.2,4.2,0,0,1-.32-1.14,2.82,2.82,0,0,1,.2-1.57A2.15,2.15,0,0,1,733,554c.52-.1,1.59.3,1.75-.48h0c.09.3.49.16.74.25a1.41,1.41,0,0,1,.55.45,8,8,0,0,1,.88.87A14.75,14.75,0,0,1,738.28,557.74Z"/><path class="cls-4" d="M729.47,522.81a11.3,11.3,0,0,1,.29,4.55c-.48,3.26-2.75,8.57-6.47,8.27l-.21,0a1.69,1.69,0,0,0-.07-1.24c-.44-.75-2-1.21-3.4-1.4l.33-.89a9.91,9.91,0,0,0,3.77.19c.5-2.7,2.53-4.68,2.49-7.56a9,9,0,0,0-.21-1.78c-.69-3.3-3.1-6.4-6.45-6.4l.09-2.53C724.48,514.21,728.28,518.23,729.47,522.81Z"/><path class="cls-2" d="M726.67,565.24h.11c.31.17.66.14.95.3.13.07.24.3.35.4s.34,0,.41.09a7,7,0,0,1,.05,2.58,9.48,9.48,0,0,1-.73,2.28c-.16.42-.89,1.89-1.48,1.83,0-.08,0-.15,0-.23l-.31,0a26.69,26.69,0,0,1-.44-2.73l-.59-.43a1,1,0,0,0,.33,0c0-.46.23-.85.26-1.31s-.15-.87.13-1.13l0-.06c-.21-.07-.42-.16-.6-.2a7.43,7.43,0,0,1-1.12-.39c-.22-.09-.46-.34-.67-.41s-.31,0-.46,0c-.32-.1-.64-.23-1-.34a5.33,5.33,0,0,0-1.63-.34,8.25,8.25,0,0,1-1.57-.22,8.55,8.55,0,0,0-1.53-.22c-.46,0-.85-.22-1.32-.23-1.08-.05-2-.23-3.06-.23h-1.4c-.58,0-1.11.21-1.69.23s-.86.18-1.33.23-.92,0-1.39,0-1.08.35-1.62.41c-.36,0-.75-.13-1.06.12l-.17-.13-.08,0a.44.44,0,0,0-.06.16l-.12,0a.42.42,0,0,1-.14.11c0-.36,0-.73,0-1.1a30,30,0,0,0-.41-6.07l.18-.18,0-.22a59.53,59.53,0,0,0,9.33.41c0-.06,0-.13,0-.19h0c1.45-.6,4,.49,5.55.63a17,17,0,0,0,.18-2.59H719a9.17,9.17,0,0,1,3.4,1c.51.21,1.16.31,1.61.52s1,.9,1.49.76l.22,0C726.23,560.65,726.91,563.12,726.67,565.24Z"/><path class="cls-4" d="M692,634.83a2.08,2.08,0,0,0-1.44.44,2,2,0,0,1,.06-.3c.08-.24.15-.48.25-.71.2-.48.26-1,.47-1.46s.36-.71.51-1.1a5.66,5.66,0,0,0,.16-.8c0-.21.19-.33.24-.53s0-.37,0-.56.14-.11.15-.18a3.54,3.54,0,0,0,0-.73,1.75,1.75,0,0,1,.18-.61,4.78,4.78,0,0,0,0-.76c0-.3.19-.47.24-.74a5.21,5.21,0,0,0,0-.79c0-.59.23-1.07.22-1.68s.22-.93.23-1.45,0-.89,0-1.34a27.24,27.24,0,0,1,0-3.13,10.77,10.77,0,0,1,.4-1.45c.09-.38.14-.77.21-1.15,0-.1,0-.2.07-.3.24-1,.42-2,.67-3,1-4,2.18-7.87,3.24-11.83.17-.66.18-1.35.39-2a15.31,15.31,0,0,0,.41-1.78c.11-.62.23-1.23.38-1.83a9,9,0,0,0,.27-1.52c0-.26,0-.53,0-.78s.19-.5.24-.78-.1-.91,0-1.34.21-.5.24-.78a6.94,6.94,0,0,0,0-.79,11.69,11.69,0,0,1,0-1.45c.07-.59.34-1.17.43-1.77s.14-1.1.27-1.67.31-1.19.48-1.8c.12-.4.15-.82.27-1.21a6,6,0,0,0,.33-1A13.33,13.33,0,0,1,702,578c.24-.87.28-1.7.45-2.58a13,13,0,0,1,.5-2.22c.17-.44.43-.95,0-1.34l0-.19.07,0c.25-.11.38-.57.49-.84.28-.67.48-1.32.81-2a1,1,0,0,0,.14-.89l.78-.11H716a13.53,13.53,0,0,1,3.13.17c.41.1.82,0,1.23.1s.9.29,1.36.41a3.75,3.75,0,0,1,.82.27,4.28,4.28,0,0,0,1,.15c.49.12.89.48,1.41.48l.59.43a26.69,26.69,0,0,0,.44,2.73v0c.11,1.36.4,2.68.44,4a8.61,8.61,0,0,0,.35,1.6,10.42,10.42,0,0,1,.1,2.23c0,.65.21,1.26.24,1.91s0,1.27,0,1.9c0,2.58,0,5.16,0,7.74,0,1-.23,2-.22,3.07a6.41,6.41,0,0,1-.23,1.63,9,9,0,0,0-.21,2.14c0,.6-.22,1.17-.24,1.78s0,1,0,1.55c0,1-.23,1.94-.23,3,0,.44,0,.89,0,1.33,0,.62-.21,1.19-.24,1.8,0,1.09-.22,2.11-.21,3.21,0,.93,0,1.89,0,2.82a28.94,28.94,0,0,1-.44,2.94c-.36,2.24-.91,4.44-1.31,6.68-.21,1.23-.27,2.55-.51,3.78s-.46,2.26-.65,3.39c-.12.66-.11,1.38-.21,2-.08.49-.31.95-.41,1.44s0,.8,0,1.21a12.65,12.65,0,0,0-.23,1.52l-.45.67a2,2,0,0,0,.66.73c.18.13.41.15.58.3s.23.33.38.49a13.75,13.75,0,0,0,1.73,1.27c.51.38,1,.71,1.51,1.07s.52,1,.5,1.73v.74l-2.25.14c-.41,0-.73.2-1.13.24s-.84,0-1.27.1a19.23,19.23,0,0,1-2.28.11c-.55,0-1,.24-1.56.23a7.87,7.87,0,0,1-1.68-.11c-.49-.11-1-.21-1.47-.28l.14-.8c.37-.39,0-3.33.1-3.89a10.9,10.9,0,0,0,.23-1.62,14.71,14.71,0,0,1,.18-2.48,55.18,55.18,0,0,0,.27-8.92c0-1.35-.23-2.62-.22-4V608.12a16.84,16.84,0,0,0-.18-3.25,10.6,10.6,0,0,1,0-1.49c0-.45-.2-.85-.24-1.3s.05-1,0-1.45-.22-.86-.24-1.34c0-.91,0-1.84,0-2.76V589c0-.44,0-.89,0-1.33s-.16-.57-.51-.83-.53-.39-.8-.56l-.48.72c0,.48-.3.84-.4,1.29s0,.78-.17,1.18c-.38,1.31-.81,2.58-1.16,3.9-.25,1-.73,1.81-1,2.73a34.59,34.59,0,0,1-1.25,3.63c-.39,1-.77,2.1-1.21,3.09s-.7,2.1-1.12,3.11-.72,2.16-1.2,3.19-.59,2-1.09,2.91c-.35.66-.69,1.33-1,2a17.19,17.19,0,0,1-1.17,2.45c-.37.55-.51,1.11-.84,1.67a0,0,0,0,0,0,0,14.63,14.63,0,0,0-.89,2.16,72,72,0,0,0-2.63,7.56c-.1.39-.17.81-.27,1.14s-.17.72-.27,1.07-.43.86-.58,1.34a10.52,10.52,0,0,1-.26,1.17,19.35,19.35,0,0,0-.73,2.42,24.73,24.73,0,0,1-.9,3.56,3.1,3.1,0,0,0,0-.68c0-.2-.2-.22-.24-.42-.1-.41,0-.72-.26-1.08a8.62,8.62,0,0,0-.76-.72,1.54,1.54,0,0,0-1-.56C692.44,635.05,692.25,635.08,692,634.83Z"/><path class="cls-6" d="M726.2,524.68c0,2.88-2,4.86-2.49,7.56a9.91,9.91,0,0,1-3.77-.19l-.33.89a5.18,5.18,0,0,0-2.38,0,15.42,15.42,0,0,0-4.23-.67l0-.27c1.41-2.53.42-6,.41-9,0-2.4.59-4.58,3.43-5.88a6.44,6.44,0,0,1,2.68-.63c3.35,0,5.76,3.1,6.45,6.4A9,9,0,0,1,726.2,524.68Z"/><path class="cls-2" d="M725.75,558.21l-.22,0c-.48.14-1.09-.56-1.49-.76s-1.1-.31-1.61-.52a9.17,9.17,0,0,0-3.4-1h-.51c0-.82-.05-1.65-.12-2.48l.38,0a4.61,4.61,0,0,1,1.76.24,6.49,6.49,0,0,0,.74.26c.16.06.49.19.65.23a9.64,9.64,0,0,1,1.66.46c.35.15,1,.63,1.35.57h.41A20.78,20.78,0,0,0,725.75,558.21Z"/><path class="cls-7" d="M725.66,566.89c-.28.26-.11.79-.13,1.13s-.21.85-.26,1.31a1,1,0,0,1-.33,0c-.52,0-.92-.36-1.41-.48a4.28,4.28,0,0,1-1-.15,3.75,3.75,0,0,0-.82-.27c-.46-.12-.91-.29-1.36-.41s-.82,0-1.23-.1a13.53,13.53,0,0,0-3.13-.17H705.2l-.78.11a5.37,5.37,0,0,0-.46-1,2.55,2.55,0,0,1,0-1.66.44.44,0,0,1,.06-.16l.08,0,.17.13c.31-.25.7-.09,1.06-.12.54-.06,1.08-.3,1.62-.41s.92,0,1.39,0,.85-.21,1.33-.23,1.11-.21,1.69-.23h1.4c1.09,0,2,.18,3.06.23.47,0,.86.21,1.32.23a8.55,8.55,0,0,1,1.53.22,8.25,8.25,0,0,0,1.57.22,5.33,5.33,0,0,1,1.63.34c.34.11.66.24,1,.34.15,0,.31,0,.46,0s.45.32.67.41a7.43,7.43,0,0,0,1.12.39c.18,0,.39.13.6.2Z"/><path class="cls-2" d="M724.94,555.26c-.36.06-1-.42-1.35-.57a9.64,9.64,0,0,0-1.66-.46c-.16,0-.49-.17-.65-.23a6.49,6.49,0,0,1-.74-.26,4.61,4.61,0,0,0-1.76-.24l-.38,0c-.22-2.87-.64-5.8-.14-8.52.33-1.74,3.13-5.43,4.35-8.1l.24.06a5,5,0,0,1,2.41.76l-1.48.27c.12.41-.42.86-.57,1.24s-.29,1-.49,1.49c-.32.82.08,1.42.07,2.28,0,.7-.05,1.42,0,2.12s.45,1.27.51,2a2.62,2.62,0,0,0,.69,1.62c.43.57.59,1.26,1.07,1.83a5.22,5.22,0,0,0,.95,1,7.16,7.16,0,0,0-.64,3.69Z"/><path class="cls-8" d="M723,534.34a1.69,1.69,0,0,1,.07,1.24,6.91,6.91,0,0,1-.47,1.33c-1.22,2.67-4,6.36-4.35,8.1-.5,2.72-.08,5.65.14,8.52.07.83.12,1.66.12,2.48a17,17,0,0,1-.18,2.59c-1.55-.14-4.1-1.23-5.55-.63h0c.21-4.68-.52-9.27-.44-13.86s3.27-7.56,4.9-11.12a5.18,5.18,0,0,1,2.38,0C721,533.13,722.57,533.59,723,534.34Z"/><path class="cls-4" d="M719.63,514l-.09,2.53a6.44,6.44,0,0,0-2.68.63c-2.84,1.3-3.44,3.48-3.43,5.88,0,3.07,1,6.51-.41,9l0,.27c-.55,0-1.09-.07-1.61-.13-.35-.59-2.24-3.82-2.57-6.11a11.82,11.82,0,0,1,0-3.08,11.94,11.94,0,0,1,1.4-4.29c1.94-3.62,5.11-4.8,9.1-4.75Z"/><path class="cls-8" d="M711.39,532.19c.52.06,1.06.09,1.61.13a15.42,15.42,0,0,1,4.23.67c-1.63,3.56-4.81,6.61-4.9,11.12s.65,9.18.44,13.86c0,.06,0,.13,0,.19a59.53,59.53,0,0,1-9.33-.41l-1.23-.12c-2.36-.22-4.63.8-5.45-.93a3.45,3.45,0,0,1-.28-1.07,43.12,43.12,0,0,1-.18-6.27c0-1.34.11-2.66.19-3.9.35-5.53,4.6-10.06,8.49-13.63v-.22c1.57-.46,3.76.2,5.48.47C710.75,532.13,711.07,532.16,711.39,532.19Z"/><path class="cls-7" d="M704.42,567.91a1,1,0,0,1-.14.89c-.33.65-.53,1.3-.81,2-.11.27-.24.73-.49.84l-.07,0a5.37,5.37,0,0,1-1.06,0c-.29,0-.9.11-1.14,0s-.21-.75-.21-1.08,0-.75,0-1.12a89.42,89.42,0,0,0,.66-4.47c.35-.82,1.75-1,2.46-.67h0c0,.37,0,.74,0,1.1a.42.42,0,0,0,.14-.11l.12,0a2.55,2.55,0,0,0,0,1.66A5.37,5.37,0,0,1,704.42,567.91Z"/><path class="cls-5" d="M688.88,579.69a15.46,15.46,0,0,1-4.67-.72,1.91,1.91,0,0,1-.43-.21c.43-2.31,1.58-4.57,2.31-6.84a87,87,0,0,1,4-9.91l.19.09A1.69,1.69,0,0,0,691,564a4,4,0,0,0,.94.36c.42.12.29.21.72,0a5.86,5.86,0,0,0,1.6-1.65,7.24,7.24,0,0,0,.41-1.13c.2-.4.5-.73.71-1.12.38-.73.79-1.41,1.12-2.14a1.18,1.18,0,0,0-.09-1.38l.31-.16c.82,1.73,3.09.71,5.45.93l1.23.12,0,.22-.18.18c-.49.45-1.85,1.54-2.49,2.18A33.76,33.76,0,0,0,697,565a38.81,38.81,0,0,0-3.68,6.8c-.92,2.12-1.4,5.51-2.75,7.19a.93.93,0,0,0-.38.74Z"/><path class="cls-5" d="M696.75,556.7l-.31.16c0-.05-.06-.11-.09-.17a7.51,7.51,0,0,0-.56-1.05c-.24-.28-.54-.3-.86-.42-.72-.27-1-.09-1.65.28l-.05,0q.86-1.72,1.68-3.42c.44-.91.9-1.8,1.38-2.69a43.12,43.12,0,0,0,.18,6.27A3.45,3.45,0,0,0,696.75,556.7Z"/><path class="cls-5" d="M690.28,562.1l-.19-.09c1-2.21,2.08-4.39,3.14-6.54l.05,0c.7-.37.93-.55,1.65-.28.32.12.62.14.86.42a7.51,7.51,0,0,1,.56,1.05c0,.06.07.12.09.17a1.18,1.18,0,0,1,.09,1.38c-.33.73-.74,1.41-1.12,2.14-.21.39-.51.72-.71,1.12a7.24,7.24,0,0,1-.41,1.13,5.86,5.86,0,0,1-1.6,1.65c-.43.24-.3.15-.72,0A4,4,0,0,1,691,564,1.69,1.69,0,0,1,690.28,562.1Z"/><path class="cls-5" d="M690.56,635.27a2.08,2.08,0,0,1,1.44-.44c.25.25.44.22.91.33a1.54,1.54,0,0,1,1,.56,8.62,8.62,0,0,1,.76.72c.27.36.16.67.26,1.08,0,.2.2.22.24.42a3.1,3.1,0,0,1,0,.68,12.16,12.16,0,0,1,0,1.35,6.42,6.42,0,0,0-.23,1.11,4.94,4.94,0,0,1,0,1.49v.74h-2.09c-1.32,0-2.57.17-3.88.21l0-.43c-.36-.76.2-1.48.5-2.23a7.58,7.58,0,0,0,.61-2.8,4.59,4.59,0,0,1,.25-2.43A1.87,1.87,0,0,1,690.56,635.27Z"/><path class="cls-5" d="M690.22,580.54a7.68,7.68,0,0,1,.23,1.33c0,1,0,2.2-1.34,2-.76-.1-.56-.39-.66-1-.06-.35-.37-1.15-.69-.56,0,0-.16.66-.16.68-.09.36,0,.7-.1,1.06a11.82,11.82,0,0,1-.57,1.45c-.16.45-.13.69-.54,1s-.88.27-1.3.5-.81.17-1.29-.28a2.24,2.24,0,0,1-.67-.89,5.84,5.84,0,0,1,0-1.51,9,9,0,0,1,0-1.56c0-.33.2-.56.23-.89a4.15,4.15,0,0,1,.16-.84c.12-.38.2-.81.34-1.18a5.33,5.33,0,0,0,.37-.81l0-.08a15.46,15.46,0,0,0,4.67.72l1.33.06A4,4,0,0,0,690.22,580.54Z"/><path class="cls-3" d="M701.85,618.29c.31-.42,1.21-.22,1.67-.22a12.51,12.51,0,0,1,2.13.23c.24,0,.47,0,.71,0,.44.08.81.36,1.24.42.66.09,1.42,0,2.06.2s1,.27,1.57.41c.3.08.61,0,.9,0s.24.2.43.24c.49.12,1.09-.14,1.58,0,.2,0,.47.17.66.23s.4,0,.58.24h-.13"/><path class="cls-3" d="M527.57,620.28c2.87-2,7.57-1,10.87-1.09,5.19-.05,10.37-.15,15.56-.22,17.81-.23,35.4-.44,53.2-1.18q27.81-1.15,55.65-1.65,15.55-.28,31.11-.34H694"/><path class="cls-3" d="M724.19,621.87c.25.41.59,0,.93,0a5.2,5.2,0,0,1,.84.22,6.87,6.87,0,0,0,1.2,0c6,0,11.91.51,17.88.81,8.9.44,17.85,1.05,26.77,1,5,0,10.09-.24,15.14-.24h29.16c3.91,0,7.81.25,11.71.23s7.93.13,11.88-.11c3.33-.2,6.66-.36,10-.35,7.27,0,14.55,0,21.82,0,2.79,0,5.58,0,8.37,0,4.54,0,9.11.36,13.64.68"/><path class="cls-3" d="M426.11,511.67l-.47.38c2.37-.92,5.08-.73,7.43-1.68,3.69-1.51,7.58-1.79,11.37-2.83,2.93-.81,6-2.48,9-2.56a28,28,0,0,0,8.68-1.83c3.07-1.07,6.37-1.25,9.45-2.3,3.68-1.25,7.43-1.87,11.21-2.78s7.56-1.17,11.27-2,7-2.87,10.7-3.74c5.7-1.32,11.38-2.93,17-4.63a82.55,82.55,0,0,0,17.91-8.24c2.33-1.37,4.82-2.26,7.16-3.65s4.44-2.64,6.52-4.16c1.59-1.15,3.12-1.87,4.28-3.32.55-.68,1.2-.89,1.74-1.49a8.36,8.36,0,0,0,.68-1.67c-1.61-1.42-.77-1.22.29-2.65a20.79,20.79,0,0,1,2.32-3c1-1,1.54-2,2.47-3,.61-.64,1.24-1.8,2.08-2.15s1.92,0,2.8-.2c1.29-.33,2.48-1.58,3.79-1.87,2.08-.47,4.54.33,6.66.05,1.1-.15,1.94-.65,3.08-.72a32.63,32.63,0,0,1,3.28,0c1.33.07,2.53.61,3.86.72,1.88.15,3.57-.14,5.47.3s3.56.26,5.34.83c2.18.71,4.36,1.29,6.61,1.85a32.87,32.87,0,0,1,6.25,2.32c2.28,1.08,3.77,2.54,5.82,3.85,2.39,1.53,4.35,3.65,6.67,5.33a68,68,0,0,1,6.79,5.67c2.32,2.15,5.06,3.64,7.41,5.67,2,1.77,3.63,3.8,5.62,5.62a14.48,14.48,0,0,0,2.74,2.19,36.6,36.6,0,0,1,3.75,2.39,47,47,0,0,0,8.3,5.53c2.4,1.16,4.56,2.93,6.9,4.28s4.81,2.05,7.14,3.21c3.86,1.93,7.69,3.95,11.66,5.51a50.41,50.41,0,0,1,5,1.91,14.47,14.47,0,0,0,5.86,1.52c1.81,0,3.66,0,5.48,0a20.9,20.9,0,0,1,5.18.82c1.4.33,2.84,1.12,4.48,1.19,3.58.15,7.21,0,10.79,0,4.06,0,8.08,0,12.13.33,5.37.49,10.61,1.71,15.93,2.44a54.35,54.35,0,0,0,8,.57c12.51-.07,25,0,37.55,0,15.12,0,30.25.27,45.36-.15,21.23-.59,42.44-1.12,63.68-1.19,13.2,0,26.25,1.33,39.44,1.34,7,0,13.9-.23,20.81.52,4.29.45,8.7.15,13,.14a89.83,89.83,0,0,0,10.38-.15q9-1,18-1.85c4.5-.4,8.82-.66,13.34-.66,4.68,0,10.2.8,14.76-.15a39.13,39.13,0,0,1,8.26-.52h3.43c2.18,0,4.47.72,6.56.59l-.35-.59"/><path class="cls-3" d="M987.45,519.67a70.58,70.58,0,0,0-12.15.66,55.89,55.89,0,0,1-13.8.52c-12.37-.89-24.68.14-37.08.15-5.87,0-11.73-.17-17.59.33-5.17.44-10.59.93-15.79,1-4.75.1-9.51-.27-14.26.1-5.34.4-10.6,1.12-16,1.23-13.08.26-26.43.51-39.49-.18-11.56-.62-23.17-1.24-34.74-1.19s-23,0-34.55,0c-6.58,0-14.09.27-22.56.48"/><path class="cls-3" d="M708.77,523c-8,0-16,0-24,0-4.38,0-8.87.26-13.24-.15a82.35,82.35,0,0,0-8.75-.52c-4.5,0-8.88-.61-13.36-.7-3.37-.06-6.75,0-10.12,0H615.92c-8,0-16.08-.45-24,.05-6.83.44-13.53,1-20.4.28-6.6-.7-13.29-.28-19.92-.82-5.14-.42-10.27-.84-15.42-1.2-12.15-.86-24.47-.31-36.65-.31-10.6,0-21.11.18-31.69.61-9.41.38-18.85-.16-28.27,0-6.44.13-12.83.93-19.27,1.24-4.93.23-9.87-.11-14.79.43-3.81.42-7.59.92-11.38,1.55-1.78.29-4.13,1.09-6,.81"/><path class="cls-9" d="M689.56,579.64a3.39,3.39,0,0,1-.68.05,15.46,15.46,0,0,1-4.67-.72,1.91,1.91,0,0,1-.43-.21c.43-2.31,1.58-4.57,2.31-6.84a87,87,0,0,1,4-9.91c1-2.21,2.08-4.39,3.14-6.54q.86-1.72,1.68-3.42c.44-.91.9-1.8,1.38-2.69"/><path class="cls-9" d="M705,531.83c-3.89,3.57-8.14,8.1-8.49,13.63-.08,1.24-.15,2.56-.19,3.9a43.12,43.12,0,0,0,.18,6.27,3.45,3.45,0,0,0,.28,1.07c.82,1.73,3.09.71,5.45.93l1.23.12a59.53,59.53,0,0,0,9.33.41c0-.06,0-.13,0-.19.21-4.68-.52-9.27-.44-13.86s3.27-7.56,4.9-11.12a15.42,15.42,0,0,0-4.23-.67c-.55,0-1.09-.07-1.61-.13-.32,0-.64-.06-.94-.11-1.72-.27-3.91-.93-5.48-.47"/><path class="cls-9" d="M712.79,558c1.45-.6,4,.49,5.55.63a17,17,0,0,0,.18-2.59c0-.82-.05-1.65-.12-2.48-.22-2.87-.64-5.8-.14-8.52.33-1.74,3.13-5.43,4.35-8.1a6.91,6.91,0,0,0,.47-1.33,1.69,1.69,0,0,0-.07-1.24c-.44-.75-2-1.21-3.4-1.4a5.18,5.18,0,0,0-2.38,0"/><path class="cls-9" d="M719.61,532.94l.33-.89a9.91,9.91,0,0,0,3.77.19c.5-2.7,2.53-4.68,2.49-7.56a9,9,0,0,0-.21-1.78c-.69-3.3-3.1-6.4-6.45-6.4a6.44,6.44,0,0,0-2.68.63c-2.84,1.3-3.44,3.48-3.43,5.88,0,3.07,1,6.51-.41,9"/><path class="cls-9" d="M711.45,532.28l-.06-.09c-.35-.59-2.24-3.82-2.57-6.11a11.82,11.82,0,0,1,0-3.08,11.94,11.94,0,0,1,1.4-4.29c1.94-3.62,5.11-4.8,9.1-4.75h.36c4.85.24,8.65,4.26,9.84,8.84a11.3,11.3,0,0,1,.29,4.55c-.48,3.26-2.75,8.57-6.47,8.27"/><path class="cls-9" d="M722.85,537a5,5,0,0,1,2.41.76,27.15,27.15,0,0,1,3.89,2.53c2.45,1.94,3.5,5.18,5.09,7.88a58.31,58.31,0,0,1,4.52,9.43,45.8,45.8,0,0,1,2.41,9.5,85.84,85.84,0,0,1,1.11,11.68"/><path class="cls-9" d="M726.42,550.6a.83.83,0,0,0,0,.22c.28,2.56,2.44,5.17,3.84,7.61.2.36.39.71.55,1.06,1.28,2.75,2.58,5.42,3.62,8.25a56.33,56.33,0,0,1,2.72,12.76l.54,0H738a10.07,10.07,0,0,0,3.83-.46,4.1,4.1,0,0,0,.86-.44"/><path class="cls-9" d="M690.45,579.19l.14-.18c1.35-1.68,1.83-5.07,2.75-7.19A38.81,38.81,0,0,1,697,565a33.76,33.76,0,0,1,3.72-4.69c.64-.64,2-1.73,2.49-2.18l.18-.18"/><path class="cls-9" d="M703.19,558a1.16,1.16,0,0,1,0,.18,30,30,0,0,1,.41,6.07c0,.37,0,.74,0,1.1a.42.42,0,0,0,.14-.11c.08-.13,0-.3,0-.54"/><path class="cls-9" d="M726.42,550.82a4.3,4.3,0,0,0-.43.74,7.16,7.16,0,0,0-.64,3.69,20.78,20.78,0,0,0,.4,3c.48,2.44,1.16,4.91.92,7a5.51,5.51,0,0,1-.25,1.22"/><path class="cls-9" d="M704.08,565.12l.17.13c.31-.25.7-.09,1.06-.12.54-.06,1.08-.3,1.62-.41s.92,0,1.39,0,.85-.21,1.33-.23,1.11-.21,1.69-.23h1.4c1.09,0,2,.18,3.06.23.47,0,.86.21,1.32.23a8.55,8.55,0,0,1,1.53.22,8.25,8.25,0,0,0,1.57.22,5.33,5.33,0,0,1,1.63.34c.34.11.66.24,1,.34.15,0,.31,0,.46,0s.45.32.67.41a7.43,7.43,0,0,0,1.12.39c.18,0,.39.13.6.2a1.91,1.91,0,0,0,.47.12c0,.06,0,.12,0,.18"/><path class="cls-9" d="M703.63,564.22c-.71-.33-2.11-.15-2.46.67a89.42,89.42,0,0,1-.66,4.47c0,.37,0,.75,0,1.12s-.13.87.21,1.08.85,0,1.14,0a5.37,5.37,0,0,0,1.06,0l.07,0c.25-.11.38-.57.49-.84.28-.67.48-1.32.81-2a1,1,0,0,0,.14-.89,5.37,5.37,0,0,0-.46-1,2.55,2.55,0,0,1,0-1.66.44.44,0,0,1,.06-.16,1.19,1.19,0,0,1,.08-.2"/><path class="cls-9" d="M705.2,567.8H716a13.53,13.53,0,0,1,3.13.17c.41.1.82,0,1.23.1s.9.29,1.36.41a3.75,3.75,0,0,1,.82.27,4.28,4.28,0,0,0,1,.15c.49.12.89.48,1.41.48a1,1,0,0,0,.33,0c0-.46.23-.85.26-1.31s-.15-.87.13-1.13l-.13,0"/><path class="cls-9" d="M709,584.33a4.41,4.41,0,0,0,.85.27c.23.08.46.34.71.41a23.39,23.39,0,0,1,2.29.83,6,6,0,0,1,.88.45c.27.17.52.35.8.56s.49.37.51.83,0,.89,0,1.33v7.52c0,.92,0,1.85,0,2.76,0,.48.2.88.24,1.34s-.06,1,0,1.45.22.85.24,1.3a10.6,10.6,0,0,0,0,1.49,16.84,16.84,0,0,1,.18,3.25V623c0,1.35.22,2.62.22,4a55.18,55.18,0,0,1-.27,8.92,14.71,14.71,0,0,0-.18,2.48,10.9,10.9,0,0,1-.23,1.62c-.07.56.27,3.5-.1,3.89,0,0,0,0-.06,0,0-.14,0-.28,0-.41"/><path class="cls-9" d="M725.53,569.81a26.69,26.69,0,0,0,.44,2.73v0c.11,1.36.4,2.68.44,4a8.61,8.61,0,0,0,.35,1.6,10.42,10.42,0,0,1,.1,2.23c0,.65.21,1.26.24,1.91s0,1.27,0,1.9c0,2.58,0,5.16,0,7.74,0,1-.23,2-.22,3.07a6.41,6.41,0,0,1-.23,1.63,9,9,0,0,0-.21,2.14c0,.6-.22,1.17-.24,1.78s0,1,0,1.55c0,1-.23,1.94-.23,3,0,.44,0,.89,0,1.33,0,.62-.21,1.19-.24,1.8,0,1.09-.22,2.11-.21,3.21,0,.93,0,1.89,0,2.82a28.94,28.94,0,0,1-.44,2.94c-.36,2.24-.91,4.44-1.31,6.68-.21,1.23-.27,2.55-.51,3.78s-.46,2.26-.65,3.39c-.12.66-.11,1.38-.21,2-.08.49-.31.95-.41,1.44s0,.8,0,1.21a12.65,12.65,0,0,0-.23,1.52"/><path class="cls-9" d="M691.79,634.6a1.22,1.22,0,0,0,.21.23c.25.25.44.22.91.33a1.54,1.54,0,0,1,1,.56,8.62,8.62,0,0,1,.76.72c.27.36.16.67.26,1.08,0,.2.2.22.24.42a3.1,3.1,0,0,1,0,.68,12.16,12.16,0,0,1,0,1.35,6.42,6.42,0,0,0-.23,1.11,4.94,4.94,0,0,1,0,1.49l-.18-.15"/><path class="cls-9" d="M697.21,643.31h-.28"/><path class="cls-9" d="M679.06,643.31c.32-.42.53-.15.89,0a2.88,2.88,0,0,0,.88,0,14.56,14.56,0,0,1,2.48.18,32,32,0,0,0,4.9,0l.7,0c1.31,0,2.56-.21,3.88-.21h4.14"/><path class="cls-9" d="M688.89,643.09c-.36-.76.2-1.48.5-2.23a7.58,7.58,0,0,0,.61-2.8,4.59,4.59,0,0,1,.25-2.43,1.87,1.87,0,0,1,.31-.36,2.08,2.08,0,0,1,1.44-.44h.24"/><path class="cls-9" d="M703,571.82c.43.39.17.9,0,1.34a13,13,0,0,0-.5,2.22c-.17.88-.21,1.71-.45,2.58a13.33,13.33,0,0,0-.4,2.15,6,6,0,0,1-.33,1c-.12.39-.15.81-.27,1.21-.17.61-.34,1.18-.48,1.8s-.18,1.11-.27,1.67-.36,1.18-.43,1.77a11.69,11.69,0,0,0,0,1.45,6.94,6.94,0,0,1,0,.79c0,.28-.19.5-.24.78s.1.91,0,1.34-.21.49-.24.78,0,.52,0,.78a9,9,0,0,1-.27,1.52c-.15.6-.27,1.21-.38,1.83a15.31,15.31,0,0,1-.41,1.78c-.21.68-.22,1.37-.39,2-1.06,4-2.25,7.86-3.24,11.83-.25,1-.43,2.07-.67,3,0,.1-.05.2-.07.3-.07.38-.12.77-.21,1.15a10.77,10.77,0,0,0-.4,1.45,27.24,27.24,0,0,0,0,3.13c0,.45,0,.89,0,1.34s-.24.92-.23,1.45-.21,1.09-.22,1.68a5.21,5.21,0,0,1,0,.79c-.05.27-.22.44-.24.74a4.78,4.78,0,0,1,0,.76,1.75,1.75,0,0,0-.18.61,3.54,3.54,0,0,1,0,.73c0,.07-.13.09-.15.18s0,.38,0,.56-.19.32-.24.53a5.66,5.66,0,0,1-.16.8c-.15.39-.34.73-.51,1.1s-.27,1-.47,1.46c-.1.23-.17.47-.25.71a2,2,0,0,0-.06.3c-.06.34-.11.76-.33.89"/><path class="cls-9" d="M713.24,587c0,.48-.3.84-.4,1.29s0,.78-.17,1.18c-.38,1.31-.81,2.58-1.16,3.9-.25,1-.73,1.81-1,2.73a34.59,34.59,0,0,1-1.25,3.63c-.39,1-.77,2.1-1.21,3.09s-.7,2.1-1.12,3.11-.72,2.16-1.2,3.19-.59,2-1.09,2.91c-.35.66-.69,1.33-1,2a17.19,17.19,0,0,1-1.17,2.45c-.37.55-.51,1.11-.84,1.67a0,0,0,0,0,0,0,14.63,14.63,0,0,0-.89,2.16,72,72,0,0,0-2.63,7.56c-.1.39-.17.81-.27,1.14s-.17.72-.27,1.07-.43.86-.58,1.34a10.52,10.52,0,0,1-.26,1.17,19.35,19.35,0,0,0-.73,2.42,24.73,24.73,0,0,1-.9,3.56"/><path class="cls-9" d="M739.71,643.76h-.33"/><path class="cls-9" d="M710.33,644.43a31.17,31.17,0,0,1,4.67.28c.5.07,1,.17,1.47.28a7.87,7.87,0,0,0,1.68.11c.56,0,1-.19,1.56-.23a19.23,19.23,0,0,0,2.28-.11c.43-.08.84-.06,1.27-.1s.72-.22,1.13-.24l2.25-.14c.75,0,1.5-.07,2.26-.07h3.55c1.32,0,2.67.09,4,0,1.09-.07,2.15-.46,3.25-.46"/><path class="cls-9" d="M726.64,643.68v-.14"/><path class="cls-9" d="M721.28,638a2,2,0,0,0,.66.73c.18.13.41.15.58.3s.23.33.38.49a13.75,13.75,0,0,0,1.73,1.27c.51.38,1,.71,1.51,1.07s.52,1,.5,1.73"/><path class="cls-9" d="M738,581a1.09,1.09,0,0,0,0-.44.64.64,0,0,0-.05-.23.52.52,0,0,0-.27.22c-.37.52-.38,1.79-.56,2.23a6.31,6.31,0,0,0-.48,1.22c0,.14-.18.18-.22.34s.08.47,0,.69c-.13.54-.75,1.64-.48,2.24s1.35-.53,1.76-.66c.28.85-.27,1.66-.57,2.43a13.08,13.08,0,0,0-.33,1.34,2.36,2.36,0,0,0-.18,1.12c.21,1.11,1,.59,1.47,0a10.92,10.92,0,0,0,1.44-2.13c.19-.37.29-.84.5-1.19a4.1,4.1,0,0,0,.62-1.15,8.55,8.55,0,0,1,.51-1.3,3.56,3.56,0,0,0,.15-.94,11.57,11.57,0,0,1,.41-1.12,10.39,10.39,0,0,0,0-1.12,6.27,6.27,0,0,1,.24-.77,7.35,7.35,0,0,0,0-1.24"/><path class="cls-9" d="M684,579.19l.2-.14a5.33,5.33,0,0,1-.37.81c-.14.37-.22.8-.34,1.18a4.15,4.15,0,0,0-.16.84c0,.33-.18.56-.23.89a9,9,0,0,0,0,1.56,5.84,5.84,0,0,0,0,1.51,2.24,2.24,0,0,0,.67.89c.48.45.73.59,1.29.28s.89-.19,1.3-.5.38-.56.54-1a11.82,11.82,0,0,0,.57-1.45c.07-.36,0-.7.1-1.06,0,0,.16-.68.16-.68.32-.59.63.21.69.56.1.63-.1.92.66,1,1.35.18,1.33-1,1.34-2a7.68,7.68,0,0,0-.23-1.33,4,4,0,0,1,0-.79.93.93,0,0,1,.38-.74l.08,0"/><path class="cls-9" d="M718.78,553.5a4.61,4.61,0,0,1,1.76.24,6.49,6.49,0,0,0,.74.26c.16.06.49.19.65.23a9.64,9.64,0,0,1,1.66.46c.35.15,1,.63,1.35.57h-.16"/><path class="cls-9" d="M719,556a9.17,9.17,0,0,1,3.4,1c.51.21,1.16.31,1.61.52s1,.9,1.49.76"/><path class="cls-9" d="M726.28,551.75a1.32,1.32,0,0,1-.29-.19,5.22,5.22,0,0,1-.95-1c-.48-.57-.64-1.26-1.07-1.83a2.62,2.62,0,0,1-.69-1.62c-.06-.72-.48-1.27-.51-2s0-1.42,0-2.12c0-.86-.39-1.46-.07-2.28.2-.5.29-1,.49-1.49s.69-.83.57-1.24"/><path class="cls-9" d="M726.78,565.25c.31.17.66.14.95.3.13.07.24.3.35.4s.34,0,.41.09a7,7,0,0,1,.05,2.58,9.48,9.48,0,0,1-.73,2.28c-.16.42-.89,1.89-1.48,1.83,0-.08,0-.15,0-.23"/><path class="cls-9" d="M690.53,561.75a.91.91,0,0,0-.25.35A1.69,1.69,0,0,0,691,564a4,4,0,0,0,.94.36c.42.12.29.21.72,0a5.86,5.86,0,0,0,1.6-1.65,7.24,7.24,0,0,0,.41-1.13c.2-.4.5-.73.71-1.12.38-.73.79-1.41,1.12-2.14a1.18,1.18,0,0,0-.09-1.38c0-.05-.06-.11-.09-.17a7.51,7.51,0,0,0-.56-1.05c-.24-.28-.54-.3-.86-.42-.72-.27-1-.09-1.65.28"/><path class="cls-9" d="M734.78,553.5c-.16.78-1.23.38-1.75.48a2.15,2.15,0,0,0-1.31,1.21,2.82,2.82,0,0,0-.2,1.57,4.2,4.2,0,0,0,.32,1.14,1.09,1.09,0,0,0,.18.3,6,6,0,0,1,.82,1c.34.59.49,1.21.88,1.77a4.28,4.28,0,0,0,2.05,1.55c2.58,1.06,3.28-3.12,2.51-4.82a14.75,14.75,0,0,0-1.31-2.68,8,8,0,0,0-.88-.87,1.41,1.41,0,0,0-.55-.45c-.25-.09-.65,0-.74-.25a.58.58,0,0,1,0-.24"/><path class="cls-3" d="M110.78,556a42.06,42.06,0,0,0,8.75-2.85c1.33.93,1,1.85,1.35,3.25.14.57.73.6.82,1.18s-.22,2,0,2.49a1.89,1.89,0,0,0,2.88.72c1.68-1,.81-2.36,1.14-3.85a23.07,23.07,0,0,1,1-3,2.72,2.72,0,0,1,2.49-2c1.57-.32,3-.34,4.54-.74,1.76-.45,3.26-.41,5-1,2.52-.82,5-2.08,7.49-2.25a21.67,21.67,0,0,0,4-.91c1.63-.37,3.35.16,5,0,2-.26,2.41-.92,3.74-2a19.56,19.56,0,0,0,1.56-1.24c.13-.14.17-1.46.36-1.58,1.2-.76,3.07.14,4.36-.14,2.17-.46,1.2-1.3,2.54-2.46.55-.48,2.9-1.34,3.77-.42.57.59.18,3,.38,3.85s.76,2.85,1.7,3.12,3.44-1.59,4.1-2.32c1.07-1.18.52-3,1.52-3.76.68-.52,3.35,0,4.24-.26,1.21-.34,1.65-.82,3.22-.78,1.91,0,2.37-.67,3.95-1.05,1.91-.46,6.5-.38,8.09.52a31.3,31.3,0,0,1,3,2.26c1,.9,1.27,2.08,2,3.27a4.39,4.39,0,0,0,2.17,2.28c.74.36,2.22.29,2.94.7s.8.9,1.48,1.4c1.11.83,2.48,1.21,3.33,2.21.64.75.06,1.41,1,2.25a13.38,13.38,0,0,0,2.05.68c2.26.7,2.4-.41,4.53-.46,2.3-.05,1.38,1.28,2.55,2.36,1.92,1.77,4.92,1.78,7.32,2.67,1.22.45,2.35,1.95,3.6,2.45s2.65.21,3.55,1.42.4,3.1.44,4.55c.07,2,.89,3.4,1.18,5.35,5.69.64,5.43,3.35,7.55,7.42.6,1.15,1.94,3.39,3.23,3.77,2.14.64,4.77-.5,7,.13.06,3.52-6.48,3.52-8.65,3.75-2.36.24-4.2,1.84-6.29,2.86-1.38.67-1.31-.12-2.28,1.15-.59.77-.34,1.85-.78,2.62-1,1.82-2.41,1.5-4.42,1.45a16.07,16.07,0,0,0-5,.91c-2.05.52-10.07,1-11.54-.91"/><path class="cls-3" d="M256.78,578.67c2.31,0,5.78.64,7.95-.13-.38-2-4.64-.65-5.73-2.67-.87-1.61.39-3.47.54-5.1,1.67-.42,2.9.44,4.52.6,1.11.11,2.25-.13,3.36-.06a17.94,17.94,0,0,1,2.36.64c2.31.42,5,0,7.33.05.53,0,1.21-.17,1.7.12s.52,1.08,1.26,1.28c1.31.36,2.31-1.06,2.88-2,.94-1.6-.13-1.85-.23-3.38-.07-1,.79-2.39,1.2-3.32a24,24,0,0,0,1.5-7.35c.16-1.65.89-1.64,2.24-2.61a44.84,44.84,0,0,0,5.13-4.19,63.37,63.37,0,0,1,9.52-8.22c2.05-1.37,4.24-1.77,6.35-3a13.25,13.25,0,0,1,4.68-1.94,22,22,0,0,1,.09,2.61c.18,1.35-.06.85,1,1.33a12,12,0,0,0,5,.66c1.54,0,3.38.43,4.53-.65a12.71,12.71,0,0,0,.94-1.33,4.79,4.79,0,0,1,3.5-1.88c1.4-.25,4.89-.74,5.89.48s.47,3.36.47,4.71-.29,3,.49,4.18,3.32.82,3.49,1.67a8.12,8.12,0,0,1-2.65.15"/><path class="cls-3" d="M277.45,582.67c.93-.94,2.2-.86,3.32-1.43a14.85,14.85,0,0,0,3.65-3.26,17.56,17.56,0,0,1,5.42-4.38,26.66,26.66,0,0,1,7-2.24c2.46-.56,4.83-2,7.35-2.55,1.16-.26,2.42-.44,3.6-.64a20,20,0,0,0,5.06-1.35c.94-.39,1.93-.83,2.89-1.16s3-.37,3.83-1.12.38-1.45.95-2.15,1.62-.72,2.31-1.18c1.36-.9.81-1.36,1.28-2.57a9.22,9.22,0,0,1,2.09-2.29c1.75-1.66,3.5-3.73,5.79-4.54.7-.25,1.5-.6,2.15-.81.87-.27,1.73-.24,2.67-.48a44.86,44.86,0,0,1,5-1.21,42,42,0,0,1,5.33,0c1.67,0,3.33,0,5,0,2.44,0,2.49.26,4,2,1.33,1.57,2.86,1.07,4.28,2.41s2.63,2.62,4.11,3.87c3.44,2.9,7.38,4.4,11.66,5.74,1.69.53,3.82.57,5.19,2.13,1.18,1.35,1.72,3.64,4.13,3.19"/><path class="cls-3" d="M314.78,604c1.77-1.57,4.55-2.17,6.69-3s4-1.58,6-2.38,4.5-1,6.41-1.94c2.43-1.23,2.66-3.54,4.59-5,3.31-2.57,7.23-3.77,11-5.44A18.57,18.57,0,0,0,352,585c1.14-.75,1.62-2.24,2.74-3,.8-.57,1.71-.8,2.5-1.39a22.84,22.84,0,0,1,3.13-2.46c4.23-2.2,9-4.26,13.55-2.58,2.08.76,2.14.3,3.82-1.52a21.15,21.15,0,0,1,3.51-3.33,13.77,13.77,0,0,1,4.5-2,21.32,21.32,0,0,0,4.67-1.24c1.45-.74,1.77-1.43,3.64-1.42,1.32,0,3.11,1.06,4.28.62s1.44-1.64,1.87-2.62c.66-1.52,2.21-2,3.85-2a4.54,4.54,0,0,0,2.34-.37c.73-.37,1.3-1.31,2.05-1.56,1.44-.49,3.78-.05,5.3-.05a23.7,23.7,0,0,0,4.83-.15c.18,0,.25-.4.51-.46a9.25,9.25,0,0,1,2.16-.05,9.75,9.75,0,0,1,2.71.1c.3,1.45.39,3.27,1.56,4.43.91.9,2.55,1.43,3.62,2a8.86,8.86,0,0,1,4.25,7.42c0,3.78.36,7.79-.65,11.4-.33,1.16-1.22,2.52-.73,4,.43,1.28,2.57,1.78,3.71,2.28,1.62.7,3.06,1.89,4.67,2.69s3.31,1.64,5,2.33a11.9,11.9,0,0,1,2.26,1.05c.87.61,1.05,1.48,1.69,2.29,1.44,1.84,3.65.62,4.06,3,.17,1-.37,1.3.59,1.71.66.29,1.62-.3,2.33,0,.54.24.69.89,1.18,1.15,1,.53,1.61-.14,2.53-.38,1.52-.4,3.13.07,4.66-.3a6.72,6.72,0,0,0,4.14-3.17c1.68-2.42,3.26-3.25,5.88-2a6.78,6.78,0,0,1,2,1.5c1.32,1.28.95,1.42,1.32,3,.27,1.2,1.13,1.11,1.44,2.1s-.72,1.86-1.09,2.7c-.94,2.14.06,3.05,2.24,3.46,0,3.08,3.95,1.35,5.43,1.19.94-.11,1.86-.15,2.68-.32s2.58-.51,2.61.92a1.12,1.12,0,0,1-1.28-.58"/><path class="cls-3" d="M331.45,663.33c.81.19.93-.28,1.55-.49,1.57-.51,3.19-.63,4.79-1,1.91-.42,3.61-1.38,5.47-1.92,2.14-.62,4.35-.56,6.52-.92,6.26-1,12-4.38,18-6.36a123.78,123.78,0,0,1,14.5-4.18c3-.59,5.92-.9,8.86-1.65,2.4-.61,4.67-.66,7.05-1.16,1.84-.38,3.47-.85,5.3-1.07a20,20,0,0,0,7.32-2.09,27.46,27.46,0,0,1,3.21-2.13,19.09,19.09,0,0,0,3.28-1.39,37.25,37.25,0,0,1,5.47-2.52,32.32,32.32,0,0,1,4.65-1.67c2.15-.57,4.12-1.36,6.29-1.82a35.52,35.52,0,0,1,7.34-.33c1.44,0,2.89.07,4.33,0,1.28,0,2.89-.83,4.11-.59.82.16,1.49,1,2.35,1.18a8.63,8.63,0,0,1,2.72.7c2.6,1.35,4.43,1.82,7.46,1.06,1.22-.31,1.8-1.13,2.91-1.57a33.5,33.5,0,0,1,3.58-.8,23,23,0,0,1,6.27-.67"/><path class="cls-3" d="M403.45,670.67a25.77,25.77,0,0,0,4-2.63,38.14,38.14,0,0,1,6.38-3.13c3.67-1.67,7.43-3.42,11.37-4.2,3.62-.71,7.43-3,10.54-5a23.12,23.12,0,0,0,3.87-2.57,42.87,42.87,0,0,1,3.23-3.13c2.86-2.2,4.88-4.5,8.21-6.06,1.55-.72,3.19-1.19,4.69-2s2.71-1.87,4.19-2.56c2.47-1.15,4.64-3,7.12-4.07a39.36,39.36,0,0,0,3.71-1.37c1.18-.64,2.09-1.64,3.29-2.21.95-.45,1.53-.35,2.19-1.1a11.69,11.69,0,0,1,1.46-1.78c1.94-1.62,3.78-3.32,5.69-5,1.18-1,2.37-1.54,3.35-2.78a25.07,25.07,0,0,1,2.32-2.85c1.75-1.68,2.69-3.82,4.2-5.7,1.05-1.31,1.53-2.75,3.13-3.58a12.34,12.34,0,0,1,5.78-1.72c1.35,0,2.87-.4,3.94.61.64.61,1,1.66,1.63,2.32a3.93,3.93,0,0,1,1.16,1.71c.38,1,.69,1.9,1.15,2.85,1.08,2.21,1.94,2.53,4.36,2.5,2.69,0,4.7-.15,7.14.84,2.2.89,4.07.94,6.29,1.5,1.68.42,3.32.05,5,.3a7.19,7.19,0,0,1,2.55,1.2c.92.52,2,.82,2.88,1.32,1.39.75.75.43,1.12,1.86.43,1.67,2.41,1.93,4,2.46,1.2.41,2.33.83,3.54,1.17,1.39.38,1.57.18,1.85,1.68.17.87-.37,1.26.57,1.72a7.84,7.84,0,0,0,1.53-.09,15,15,0,0,1,2,.54c1,.22,2.29.16,3,1,.17.18,0,.65.17.85a13,13,0,0,0,.94,1.29,5,5,0,0,1,1.16,1.56,22,22,0,0,0,.6,2.21c.77,1.24,3.7.49,5,1,.85.35,1.63,1.06,2.4,1.45s2.14.51,2.75,1.32c1,1.35-.15,3,.49,4.46.51,1.12,2.2,1.76,2.65,3s-.11,1.61,1.3,2.56a10.83,10.83,0,0,0,2.29.88,11.83,11.83,0,0,0,4.36,1.25c5,.15,10.6-.77,15.51.15,2.65.5,4.84,1.19,7.58,1.18,1.11,0,2.21,0,3.32,0,1.86,0,3.43-.58,5.26-.71,5.27-.37,10.27,2.38,15.35,3.31,1.64.3,3.11.35,4.52,1.21a21.67,21.67,0,0,1,1.77,1.46c.64.51,3.31,2.36,3.32,3.14l-.6-.42"/><path class="cls-3" d="M130.78,481.67c2.21-1.2,4.91-1.24,7.41-2,4.52-1.29,9.08-2.14,13.62-3.35,4.06-1.09,7.88-2.8,11.9-4,6.85-2.07,13-5.62,19.9-7.69,3.08-.93,6.17-1.9,9.16-3.11,2.15-.87,4-2.15,6.11-3.19,1.36-.68,3.4-1.07,4.28-2.38.53-.79.43-1.56,1.12-2.32s1.32-1,1.85-1.73c.33-.44.38-1.06.76-1.46a10.2,10.2,0,0,1,1.74-.78,13.8,13.8,0,0,0,2.85-2.7c1.3-1.58,2.13-3,4.15-4a5.29,5.29,0,0,0,2.47-2.15,39,39,0,0,1,2.67-3.18c1.86-1.86,4.63-3.21,5.23-5.85.33-1.48-.16-1.34-.47-2.54a5.76,5.76,0,0,1,.61-3.61,17.14,17.14,0,0,1,2.36-4c1.34-1.8,3.83-2.19,5.63-3.12,1.54-.8,2.22-2.09,3.9-2.86,2.14-1,4.69-1.35,6.66-2.63,1.05-.68,1.66-1.85,2.66-2.61a8.62,8.62,0,0,1,3.35-1.43,43.77,43.77,0,0,0,9.69-3.5c3.26-1.83,7-2.65,10.61-3.51a29.88,29.88,0,0,0,8.63-3.87c2.61-1.56,5.17-1.79,8-2.69,3.09-1,6.22-2.38,9.23-3.59,4.33-1.74,9-2.3,13.48-3.53,3.43-.94,6.92-1.68,10.37-2.52,2-.49,4.1-.57,6-1.46,1.28-.61,2.43-1.39,3.75-1.92a39.68,39.68,0,0,1,9-2.1c.53-.07,1.34.19,1.87-.08.76-.38,1.21-1.31,1.88-1.87,1.39-1.16,4.47-2.07,3-3.86,1.35-.71,3.12-.65,4.39-1.48.4-.27.75-1.07,1-1.24a7.9,7.9,0,0,1,2.48-.43c4.06-.63,8.36-1.93,12.48-1.65a1.57,1.57,0,0,0-1.44-.72c4.43.2,8.87-1.18,13.17-2.18,2.25-.52,4.24-.34,6.54-.62a75.89,75.89,0,0,1,14-.55c1.45.1,2.79.63,4.23.75,2.41.2,4.79-.36,7.17-.63a104.55,104.55,0,0,1,12.66-.75,8.27,8.27,0,0,0,4.82-.95,28.69,28.69,0,0,1,11.2-3.73,7.21,7.21,0,0,0,4.35-1.85c-1.15-.48-3-.13-4.2-.13-2.17,0-4.35-.09-6.52,0a8.24,8.24,0,0,1,1.24-2.71,26,26,0,0,0,2.88-3.33c2.4-3.82-3.94-1.92-3.16-4.95.18-.69,1.06-1.26,1.31-2,.35-1.07.67-2.25,1-3.36.48-1.58.86-1.94,2.49-2.51a25.36,25.36,0,0,1,4.65-1.17c5-.7,9.9-.15,14.88-.61,2.62-.24,5.3-.81,7.88-1.22,2.16-.34,4.26-.1,6.43-.64a44.14,44.14,0,0,1,8.15-1.5c3.17-.18,5.59-1.5,8.58-2.36,3.94-1.12,8.29-1.93,12-3.83-.35-.83-2.3-1-3.14-1.32,1-.85,2.51-1,3.54-1.83s.7-.87,1.07-1.87.66-.6.06-1.63c-.34-.58-1.69-1.05-1.65-1.88.09-2,4.67-1.88,5.94-2.15,2.69-.57,5.39-.48,8.07-1.13a46.53,46.53,0,0,0,5-1.6c3.19-1.17,6.51-1.94,9.7-3.06a59,59,0,0,1,7.91-2c2.92-.59,5.7-1.58,8.66-1.95A26.53,26.53,0,0,0,553.5,306c.68-.3,1.22-.73,1.86-1,.88-.38,3-.12,3.45-1.17-1.24-1-3.94-.23-4.71-1.34a83.2,83.2,0,0,1,10-2.65c1.25-.23,4.68-.74,5.29-2.19.28-.67-.2-1.38,0-2,.24-.85,1.38-1.22,1.94-2,.34-.45.36-1,.74-1.48.76-.95,1.19-.89,1.4-2.19a14.15,14.15,0,0,0,0-2.33c-.05-2.49,1-1.79,2.55-3.5.46-.5.12-.81.72-1.35.76-.69,2.57-1.06,3.53-1.33a17.9,17.9,0,0,1,3.69-.47c1.9-.17,3.69-.87,5.56-1.2.83-.15,2.29.09,2.88-.62.76-.92-.25-1.34-.73-2.23.62-1.08,2.36-.88,3.22-1.77s.39-2,.55-3.2c.24-1.85,1.53-2.33,3.06-3.33a14.67,14.67,0,0,0,2.31-2c.53-.51.35-.66,1-1a17.29,17.29,0,0,1,2-.36c.66-.2,1.22-.69,1.83-.89,1.08-.36,2.39-.37,3.53-.63.91-.21,1.43-.65,2.22-.86,1.62-.45,3.7.27,5.37,0,1.41-.24,2.67-1,4.08-1.23a36.46,36.46,0,0,1,5.31,0c2.46,0,4.83-.75,7.29-.75,2.08,0,3,.91,4.75,1.57s4,.66,6,1.13c1.36.33,2.68.93,4,1.37s2.59,1.15,3.95,1.57c3,.91,6.49.48,9.36,1.9.05.85-.32,1.64.21,2.37s2.83,1.18,3.65,1.67c1.8,1.06,3.61,2.29,5.42,3.4,1.22.75,3.25,1.23,4.12,2.41a19.74,19.74,0,0,1,1.24,2.52.64.64,0,0,1,.63.77,1.27,1.27,0,0,0,1,1.55,14.63,14.63,0,0,0,5.08,1.72,1.92,1.92,0,0,1,2.2.74c-.79,3.21-4.35.76-5.79,2.69.86,1.44,4.09,1.19,5.58,1.48,2.9.58,5.55,1.91,8.42,2.53a57.46,57.46,0,0,1,12,4.34c2.18,1,4.15.94,6.49,1.46s5.21.54,7.26,1.53c1.16.56,1.09,1.57,2.15,2.31s3.11.43,4.41.69a16.8,16.8,0,0,0,3.59.33,39.78,39.78,0,0,0,5.1-.06c2.12-.3,3.68-.92,5.9-.51,3.15.58,6.13,1.87,9.33,2.43a33.51,33.51,0,0,0,7.17.83c1.6-.07,2.91-.33,1.44-1.72-1.94-1.84-5.3-2.12-7.12-4.18a5.06,5.06,0,0,1,3.57-.69,43.54,43.54,0,0,1,8.2,1.2c2.48.63,4.81,1.48,7.36,1.89a21.25,21.25,0,0,1,4,.78c2.91,1.06,4.73,3,7.05,4.85,1.22,1,2.43,2.13,3.7,3.05,1.06.77,2.32,1.11,3.22,2.09.65.71.9,1.81,1.57,2.54.9,1,2.34,1.4,3,2.7.32.64.18,1.27.59,1.83s1.11.68,1.66,1.13a12,12,0,0,1,2.47,3.3c1.53,2.9,2.37,4.48,5.38,6.43.81.53,2,1,2.78,1.54,1,.74,1.39,1.77,2.5,2.45.65.39,1.22.14,1.89.72s1,1.63,1.59,2.24c3.12,3.1,7.36,2.5,11.22,3.78,2.29.76,3.68,2.86,2,4.85s-2.89,2.36-.3,4.12c.81.55,1.15.33,1.78,1.28a13.22,13.22,0,0,1,1.17,4.37c.22,1.59.07,1.75,1.39,2.57,3.53,2.19,8.3,2.09,11.87,4.18,1.41.82,2,2.26,3.6,2.85,2.49.93,5.62.48,7.83,1.8,4.25,2.54,2.21,8,2.07,11.92-.05,1.45-.29,3.92.14,5.29a9.06,9.06,0,0,0,2.1,3c.89,1,.71,1.53,1.28,2.54.11.2,1,.58,1.08.77a4.56,4.56,0,0,1,.11,1.85,7.91,7.91,0,0,0,.15,2,2.31,2.31,0,0,1,.53,1.66,4,4,0,0,0,.11,2.44c.5.6,3.29,1.2,3.5,1.26,3.31.89,6.7,1.24,10,2a25.51,25.51,0,0,1,7.81,3.3,11.13,11.13,0,0,1,3.3,3.37c1.08,1.45,2,1.52,3.9,2a85.12,85.12,0,0,1,9.17,2.68,89.47,89.47,0,0,0,16.26,4c5,.87,9.52,3.16,14.54,4.1,3,.57,6.09.78,9.15,1.09a83.86,83.86,0,0,1,9.9,1.86c4.58,1,11.13,2.1,14.72,5.6,1.54,1.5,2.37,3.84,3.63,5.56,2.59,3.52,5.86,4.79,9.19,7.31a19.11,19.11,0,0,1,3.5,3.8c1.56,1.95,3.8,3.1,5.15,5.25.87,1.38,1.81,2.81,2.65,4.19,1,1.61.81,2.6,2.52,3.61s3.92.93,5.78,1.17c4.79.62,9.49,1.73,14.28,2.37,2.6.35,5,.92,7.53,1.51a35.06,35.06,0,0,0,7.35.61c2.37.08,4.64.66,7,.71a44.08,44.08,0,0,1,7.15.65,115.68,115.68,0,0,0,20.48,2"/><path class="cls-3" d="M251.45,524.33a35.77,35.77,0,0,0,5.76-.52c3.72-.5,7.65-.15,11.39-.15,11.68,0,23.27-.68,34.94-.66,5.26,0,10.57.23,15.82-.12,6.9-.46,13.66-1.31,20.6-1.23a138.78,138.78,0,0,0,16.89-.6c4.93-.55,9.8-1.81,14.76-2,7.47-.27,14.94-1.52,22.39-2.21,3.14-.29,6.1-1.28,9.2-1.72,2.43-.34,4.84-.45,7.26-.95,4-.82,8.08-2,12.12-2.54a11.49,11.49,0,0,0,2.81-.08,34.23,34.23,0,0,0,3.72-1.22q3.47-.78,7-1.29a41.61,41.61,0,0,0,6.69-2"/><path class="cls-3" d="M685.78,497c3.17-.26,5.36-2.25,8.41-2.85,4.59-.91,10-.15,14.62-.15,12,0,24.24.69,36.21-.22,12.58-1,25.15-.18,37.72-1,15.94-1,32-1.77,47.86-3.25,11.57-1.07,23.1-2.6,34.69-3.65a148.93,148.93,0,0,1,15.36-.85c5.69.06,11.24-1.09,16.93-1,6.51.07,12.92-.82,19.37-1.54,5.65-.63,11.24-.39,16.91-.41,5.94,0,11.43-1.36,17.27-2.08,3.59-.44,7.29-.64,10.65-2.12.95-4-8.69-5.06-11-4.88,2.85.06,21.61.83,21.46-1,3.72-2.57,11.13-1,15.49-1h8.51c2.49,0,5.92.56,8.25-.17-1.25-2.48-4.6-2.08-6.8-3.1.6-1.91,12.93-.73,15-.73h13.59c7.33,0,15.17-.71,22.28.78,3.59.75,7.36-.28,11,.44,4.58.91,9,.79,13.8.78,7.08,0,14.06,1.28,21.09,1.07,7.92-.24,15.66-1.08,23.61-1.07,7.43,0,14.66,1.07,22,1,7.12,0,14.42-.72,21.37.71a130.71,130.71,0,0,0,29.22,2.32c4.75-.14,9.44-.95,14.19-1.1,9.12-.3,17.93.17,27-.95,18.44-2.27,38-3.29,56.49-1.24a200.64,200.64,0,0,0,22.27,1.25c5,0,10.05-.14,15.07-.05,6.72.11,13.33,1.15,20.05,1.05"/><path class="cls-3" d="M1086.78,460c5.15.05,9.4-.91,14.41-2,8.07-1.75,15.77-1.63,23.93-2.09,18.22-1,36.53-2.53,54.62-4.94,9.71-1.29,19.28-.35,29-1.13,8.56-.68,17.66-3,25.94-5.32,6.57-1.86,13.63-3.5,20.49-3.55,7.62-.06,14.69-1.78,22.21-2.78s15.33-.89,22.76-3.13c3.85-1.16,7.47-3.08,11.29-4.34,4.55-1.51,9.28-2.35,13.84-3.78,2.21-.69,4.45-1.2,6.69-1.85,3.34-1,6.16-2.87,9.34-4.17,6.21-2.55,13.26-2,19.47-4.55,3.89-1.57,7.9-2.86,11.61-4.89,3.23-1.76,6-4.17,9.33-5.77,4.65-2.23,9.61-3.57,14.24-5.94,5.07-2.59,10.65-4,15.87-6.28a17.29,17.29,0,0,0,3.88-2.48c2-1.54,4.4-1.88,6.59-3,2-1.06,4-2.42,6-2.91s4.19.06,6.2,0c2.68-.1,4.41-1.43,6.84-2,3.54-.87,7.38,0,11-1.24l-1.57-.81"/><path class="cls-3" d="M897.78,398l.17.83c2.59.78,5.53-.38,8.11-.7,5.34-.65,10.47-1.88,15.77-2.88A75.7,75.7,0,0,0,935.08,392a28.89,28.89,0,0,1,5.42-1.83l5.47-.36q3.38-.67,6.69-1.64c4-.69,8.62-.19,12.63-.17,2.68,0,5.59.39,8.24-.17,1.8-.38,3.46-1.32,5.27-1.68,3.7-.74,5.71.62,8.92,1.65,4.86,1.55,9.7-1.47,14.44-1.87,4.07-.34,8.1,1,12.15,1.12,3.35.08,6-1.35,9.27-1.85,5.68-.88,11.36-2.18,17-3.45a59.64,59.64,0,0,0,8.17-2.77c2.49-1,4.64-.8,7.14-1.2a55.1,55.1,0,0,1,9.66-.75c2.07,0,2.58-.39,4.39-.8s3.45-.11,5.24-.17c4.43-.15,8.27-2.13,12.73-2.08,3.82,0,7.37,1,11.13,1.78,7.17,1.42,14.14,2.35,20.34,6.25,1.73,1.09,3.51,1.28,5.34,2a24.38,24.38,0,0,1,2.95,1.74c2.81,1.57,6.3,2.48,9.37,3.52s6.23,1.92,9.29,3c1.89.64,3,2,4.78,2.83,2.38,1.06,5.06.92,7.51,1.67,2.76.84,5.36,2.54,8,3.66,2.9,1.21,6.17,1.6,9,2.84,2.18,1,3.69,2.19,6.07,3a16.71,16.71,0,0,1,3.85,1.8c1.87,1.15,3.36,1.37,5.23,2.2,2.36,1,3.37,2.59,6.34,2.83,2.55.21,5.21-.58,7.56.9.85.53,1.28,1.57,2,2.15,2.58,1.95,6.06.46,9.12,1.12,2.68.58,5.35,2.07,7.91,3.05a149.81,149.81,0,0,0,19.18,5.52c4.47,1.05,9.31-.41,13.83.2,1.92.26,3.48,1.13,5.48,1.52a29.68,29.68,0,0,0,6,.5c2.27,0,4.81.35,7-.09.94-.18,1.64-.78,2.63-1,2.77-.58,6.16.73,8.84,1.28q-3.47-1.16-7-2.2"/><path class="cls-3" d="M1028.78,384c3.92-3.22-1.43-9.4-2.53-12.59-.87-2.52-.89-3.61-2.47-5.64-1-1.29-2.61-3.15-3-4.73s.51-3.86.09-5.59a32.07,32.07,0,0,0-1.23-4.24,37.53,37.53,0,0,0-3.05-5,36.34,36.34,0,0,1-2.22-4.22c-1-2-1.47-2.7-1.52-5a14.66,14.66,0,0,1-.07-3.07c.49-1.06.57-.5,1.53-.94,1.93-.88,4.6-1.15,6.72-1.71A35.06,35.06,0,0,1,1031,330a21,21,0,0,0,6.63-1.12,18.3,18.3,0,0,1,3.59-.88c1.07-.11,2.75.11,3.65-.7,2.55-2.31-1.91-3.08-.82-5.37.88-1.83,6.33-.15,5.62-3.76-3.39-.73-3.33-2.94-2.95-6.19s2.11-3,5-3c3.26,0,5.94-1.06,9.22-1,3.59,0,7.18,0,10.78,0,2.89,0,5.17-1,8-1,2.33,0,4.67,0,7,0,5.72,0,10.29-1,16-1"/><path class="cls-3" d="M1043.78,376c2.54-2.64,4-6.62,5.42-9.9,2.13-4.88,5.33-8.73,8.57-12.8a17.12,17.12,0,0,0,3.05-5.35c.31-1,.07-1.34.65-2.23.73-1.1,1.92-1.37,2.6-2.7.51-1,.47-2,.9-3,.56-1.27,2.13-2.12,2.6-3.44.4-1.12.12-2.24.42-3.36a17.86,17.86,0,0,1,2.7-5.42c1.14-1.4,2.55-2,3.38-3.77.43-.92.59-1.84,1-2.78,1-2.51,1.36-4.13,4.24-4.23a39.92,39.92,0,0,0,7-.49c2.26-.47,4.8,0,7-.46,1.87-.41,3.56-2,5.46-2.55,2.07-.65,4.4.07,6.54-.45a21,21,0,0,1,6-1c2.33,0,4.67,0,7,0,2.54,0,5.44-.39,7.91.09,1.33.25,2.17.86,3.59.94s2.68,0,4,0"/><path class="cls-3" d="M952.78,384c2.23.12,2.52-3.49,3.2-5.12,1.24-3,2.35-6.08,3.77-9,1-2.05,2.26-3.71,3-5.88a15,15,0,0,1,2.95-5c.94-1.08,3.66-2.15,4-3.61.47-1.95-2.78-2.14-2.15-4.12.3-1,3.29-2.24,3.82-3.3s.25-1.74.34-3a7.13,7.13,0,0,1,2.42-5,16.51,16.51,0,0,1,3.61-2.69c1.65-1,2.29-2.29,3.61-3.66C984,331,988.32,332,991.78,332h12c3.4,0,8.67,1,11.83-.17l.17-.83"/><path class="cls-3" d="M1101.78,305h-.66c6.22,0,12.44-.08,18.66,0,3.14,0,6.06-1.12,9-2,1.47-.45,2.5,0,3-1.92.67-2.4-.41-2.46,2-4.05,1.68-1.13,1.76-1.92,3-3.41.92-1.12,1.61-1.14,2.75-1.81s2.4-1.72,3.52-2.53c1.36-1,2-.83,3.51-1.45s2-1.51,3.76-1.8c2.77-.47,5.54-1.35,8.31-1.8a58.6,58.6,0,0,1,10.15-1.2c3,0,5.37-.17,8,1a95.79,95.79,0,0,0,10.72,4c3.16,1,6.33,1.88,9.22,3,3.66,1.42,7.67,1.17,8.13,6,.13,1.32-.32,2.26.68,3.32a10.68,10.68,0,0,0,4.29,1.81,18.08,18.08,0,0,0,4.05-1.08c1.45-.5,2.91-1.54,4.45-2.14,6.05-2.36,11.23-7,18-6.89,4,0,8,0,12.06,0s7.21,1.08,10.94,1.9c1.78.39,3.75.15,5.35,1.35,1.09.82,1.16,1.38,2.57,1.78,3.32.95,7.47-.32,10.57-1.06,1.09-.26,3.95-1.32,5-1s1.67,1.4,2.54,2.07c3.18,2.45,5.26,2.79,9.19,3,2.26.11,2.7.63,4.44,1.78,1.19.78,2.9,1.12,3.85,2.2,1.15,1.29.43,3.75,2.71,2.87,1.49-.58,1.49-2.93,2.41-3.9a13.75,13.75,0,0,1,3.77-2c1.94-.2,1.86.47,2.06,2.05.23,1.85.71,3.21,1,5s-.27,3.33.17,5c.76,2.92.76,5.43,3,7.75,2,2.09,3.49,5.23,2.55,8.25-.47,1.53-2.11,2.79-1.87,4.54.18,1.36.91,2,1.1,3.44.41,3.19,0,6.8,0,10,0,2.6.69,6.1,2.95,7.78,1.29,1,3.19,1.4,4.59,2.11a22.73,22.73,0,0,0,5.19,2.11c3.72.93,9.09,1.43,12.31,3.48,3,1.93,5.3,3.71,8.92,4.5,2.83.62,5.12,1.41,8.1.8,2.72-.56,4-1.46,6.45.3,3.41,2.46,6,6.15,9.45,8.45,4.31,2.89,8.73.79,13.24.48s8.69-1.45,13-2.22a33.24,33.24,0,0,1,6.28-.78c2.18,0,3.49.72,5.5,1.05a57.25,57.25,0,0,0,10,.94"/><path class="cls-3" d="M843.78,363a26.16,26.16,0,0,0,9.55-1.5,24.66,24.66,0,0,1,7.49-1.53,23.72,23.72,0,0,0,3,0c1.94-.27,3.49-1.56,5.38-1.91,1.34-.24,2.74.2,4.08,0s2.28-.93,3.66-1.29a31.94,31.94,0,0,0,11.26-5.24c1.39-1.11,2.54-2.61,3.76-3.74,1.57-1.44,2.92-3,4.52-4.57a28,28,0,0,1,3.48-2.94c1.57-1.07,2.87-1,4.56-1.47a63,63,0,0,1,7.22-1.83c3.35-.59,6.61.1,10-.7,3.62-.86,7.54-.56,11-1.47s5.72-1.26,8.73-3.78c2.06-1.72,5.39-4.39,7.94-4.9.92-.19,1.88.17,2.77-.15,1.09-.39,1-1,1.78-1.69,1.31-1.09,3.18-1.75,4.32-2.93s1.45-2.69,2.38-3.9a37.45,37.45,0,0,1,5.94-5.54c1-.76,2-1.16,3.13-2a38.46,38.46,0,0,0,5.84-5.9,33.47,33.47,0,0,0,2.2-2.9c.94-1.5.6-2.46,1.15-4,.43-1.23,2.1-2.09,2.63-3.23.94-2,.34-2.92,2.18-4.78,3.49-3.53,6.66-6.85,10.5-10.07,2.09-1.76,3.45-4.27,5.5-6,1.55-1.29,3.1-1.5,4.27-3.12,1.49-2.06,1.72-3.23,3.73-4.8,1.3-1,2.68-2.42,4.25-2.81,1.25-.31,3.3.3,4.05-1.06a33.77,33.77,0,0,1,5,2.55c2.19,1.37,2.13,1.45,3.92-.67s3.55-5.1,5.78-6.83c1.68-1.3,4.22-3.56,6.24-4,4.95-1.06,6.31,5.64,9,8.52a18.16,18.16,0,0,0,4.73,4c3,1.54,3.82,3.39,6,5.78,1.85,2,3,4.38,4.91,6.41,1.54,1.64,3.59,2.83,4.15,5.07.42,1.68.08,1.62,1.3,3,3.08,3.5,8,4.43,12.12,6.08,2.78,1.1,4.31,2.81,6.47,4.64,1.86,1.57,3.17,3.37,5.49,4.37,3.49,1.5,10.06,3.15,10.54,7.88"/><path class="cls-3" d="M1043.78,260l.17.9c1.84.44,3.43-3.15,4.26-4.42,2.36-3.61,5-6.86,7.62-10.29a41.13,41.13,0,0,0,4-7c1.3-2.57,3.14-3.81,5-5.9s2.76-4.24,4.22-6.32c.65-.93,1.61-1.51,2.22-2.44.71-1.08.42-2.09.78-3.31.68-2.3,2.6-3.56,2.86-6,.12-1.15-.43-2.16.1-3.27.33-.68,1.82-1.36,2.34-1.9,2.09-2.17.72-2.81,1.41-5.1.33-1.11,1.17-1,1.88-1.92.34-.43.12-1.31.41-1.81,1.78-3.1,5.21-6.13,5.81-9.72.46-2.77.5-2.88,2.78-4.77,1-.79,1.61-2,2.6-2.73,2.45-1.8,6-2.56,8.68-4,3.44-1.84,6.32-4.75,9.67-6.77,2.63-1.59,5.75-2.85,8.24-4.64,2.28-1.64,4-4.25,6-6.31,2.12-2.29,5.4-4,7.15-6.54.86-1.26.8-2,1.8-3a16,16,0,0,1,4.35-2.56c2.49-1.12,4.69-1.08,7.31-1.15,3.18-.08,5.85-1.89,8.27-3.82,3.7-3,9.18-6.41,14.19-7.27,1.6-.27,3.38.38,5,.1a46.22,46.22,0,0,0,4.78-1.27c3.36-1,6.63-3.05,10.23-3.83,4.19-.91,9.7.07,14,0a10.17,10.17,0,0,1,5,.75,13.13,13.13,0,0,0,3.13,1.19,73.34,73.34,0,0,0,10.94,1.06c2.73,0,5.11,1.06,7.88,1,2.43,0,4.86,0,7.3,0,4.06,0,8.4-.45,12.43-.05,5,.48,8,2.54,12,4.83,2,1.1,3.66,1.54,5.3,3.2,1.41,1.42,2.49,2.91,4,4.23,2.91,2.62,5.62,6,8.45,8.84,2.16,2.2,4.63,6.87,4.57,10-.05,2.85-1,8.49.15,11,.48,1.07,2.72,2.57,3.8,3.2a19.81,19.81,0,0,1,2.78,1.72c1,.78,2.5,1.49,3.35,2.25,1.47,1.3,1.53,3.42,2.9,4.83,1,1.07,2.22,1.8,3.22,2.92,1.36,1.53,2.7,2,4.3,3a22.17,22.17,0,0,1,3.5,3.52,12.91,12.91,0,0,1,1.28,1.22c.48.66.48,1.72.92,2.3,1,1.24,2.53,1.95,3.83,2.72a21.81,21.81,0,0,0,7.94,3.27c2.26.34,2.3-.41,4-1.29s3.2-.49,5.05-.95a27.23,27.23,0,0,0,4.25-1.53c1.48-.64,3.44-1.06,4.81-1.95,1.63-1.07,4.12-5.06,4.95-6.8.29-.61.81-.66,1-1.45s-.34-2.12-.12-3.07c.51-2.21,2.32-2.4,4.05-3.2,4.17-1.92,8.23-4.09,13.1-2.83.4.1.95.79,1.15.83a16.83,16.83,0,0,0,3.78.22c2,0,4,0,6,0,3.81,0,9.16.94,12.83.05,1.75-.42,3.31-1.39,5.17-1.83,2.23-.53,4-.75,6.05-2,3.29-1.91,6.49-2.23,10.45-2.25,4.41,0,8.22,1.54,12.5,2s8.1,1.82,12.5,2c2.14.08,3.88.82,6,1,1.82.16,5.26.4,6.5,2"/><path class="cls-3" d="M70.78,387a84.89,84.89,0,0,1,23,3.62c8.83,2.59,18.68,1.4,27.37,5,2,.83,3.62,1.9,5.84,2.25,2.82.44,5.64.4,8.46.93,4.78.89,9.24,2.87,14,4,7.52,1.8,14.32,5.25,21.7,7.5,6.07,1.85,11.73,4.32,17.93,5.73,4.12.93,8.59,2.85,12.72,3a12.81,12.81,0,0,1,5,1.22c2.15.87,3.8.61,6.07.73a13.36,13.36,0,0,1,3,.8c1.13.29,1.9,0,3,.17,1.29.21,5.23,1,6,2.06"/><path class="cls-3" d="M749.78,755c5.76,0,11-1.35,16.74-2.25s11.78-1.48,17.56-2.83c8.66-2,17.24-2.9,26-4.09,6.63-.91,13.13-2.45,19.81-3.13,6.11-.62,12.31-1.15,18.43-1.62,11.9-.9,24.48-.53,36.39.06,13.41.67,26.87,2.44,40.26,3.58,8.68.74,17.22,1.76,25.79,3.3,6.78,1.22,13.61,2,20.36,3.4a49.42,49.42,0,0,0,8.52.54c2.78.09,5.4,1,8.18,1.08,8.41.39,16.74.52,25.12,1.45,4.48.5,8.79.3,13.26.45a116.51,116.51,0,0,1,17.15,2.32c10.44,2,21.17,1.51,31.62,3.7a135.87,135.87,0,0,0,17.75,2.95c5.73.42,11.11-.16,16.71,1.08,3.37.74,7,.43,10.34,1.25,2,.49,4,1.2,6,1.74a115.58,115.58,0,0,0,19.71,4c8,.72,15.92,1.83,23.33,4.95,5.82,2.45,11.56,5.08,17.61,7.06,3.18,1,6.17,2.4,9.34,3.49,3.4,1.18,6.67,2.06,10.11,3.09,6.67,2,14.26,3.76,20.19,7.44,5.07,3.15,11,4.86,16.11,8,2.08,1.26,3.38,2.7,5.7,3.63a51.86,51.86,0,0,1,8.19,4.13c5.32,3.3,11.27,4.88,16.47,8.28,6.07,4,14.23,5.69,19.35,10.75l-1.1,1.22"/><path class="cls-3" d="M709.78,747c1.78-1.56,4-1.88,6-2.49a20.46,20.46,0,0,0,6.54-3.51c1.2-1,2.29-3.08,3.66-3.8,2.06-1.08,5.32-.92,7.58-1.41,2.89-.64,5.77-1.49,8.68-2.32,3.77-1.07,7.68.15,11.42-1.46,3.18-1.37,6.39-.67,9.69-1.88,2.35-.86,6.45-1,8-3.09,1-1.4,1.18-3.76,2.43-5.06,1.58-1.63,3.68-1.59,6-2.19,1.35-.35,1.53-.9,3-.59s2.26.83,4,.81c3.48,0,7,0,10.45,0,2.93,0,5.86.06,8.78,0,3.43,0,6.52-1,10-1a106,106,0,0,1,17.41,1.22,40,40,0,0,0,7.77.79,13.8,13.8,0,0,1,3.09.08,27.17,27.17,0,0,1,6,2.5c2.23,1.12,3.79,2.79,5.71,4.19s4.7,1.28,6.75,2.23a17.06,17.06,0,0,0,9.5.92c1.4-.23,2.68-1.09,4.08-.87,1.71.27,2.58,1,4.46,1,2.71,0,4.22,1,6.76,1a38.46,38.46,0,0,1,7.12,1.19c3,.58,6.33.48,9.17,1.28,2.5.71,5.26,0,7.73.73,2.1.62,4.18,2,6.69,1.82,1.6-.09,3-.91,4.53-1.1s3,.21,4.49.09c9.94-.81,21.78-6.67,31-.66,2,1.32,3.77,2.86,5.71,4.35,1.61,1.24,2.63,3.14,4.33,4.28,4.23,2.84,10.38,0,14.93,0,7.76,0,15.35.1,23-.91a54.56,54.56,0,0,1,9.27-.11c3.6.17,7.08,1.85,10.83,2.07.57-1.43,8.13-1.91,10.14-3a9.23,9.23,0,0,0,2.88-2.07c.38-.58.23-1.55.58-2.05.5-.7,1.38-.81,1.73-1.54a9.31,9.31,0,0,0,.18-2.26c5.78-2,12.19,2.71,17.94,2.87,2.12.06,4.39-.31,6.49-.07,1.75.2,3.7,1.68,5.5,1.1,2.58-.84,4.68-4.2,7.45-5,3.7-1.06,8.66.87,12,1.95,4.26,1.35,9.2,1,14,1,3,0,3.74.56,6.3,1.73,2.85,1.3,6.78,1.89,9,4.3s3.15,3.24,6.47,4.25c2.88.88,3.29,1.62,4.43,4a44.47,44.47,0,0,0,2.24,4.29c1,1.65,2.35,2.2,3.68,3.52-.89-.09-3.05.27-3.52,1.2-.68,1.36.54,1.32.78,2.36.49,2.16,1.66,4.86.92,7.07l-.83-.66"/><path class="cls-3" d="M1135.78,768c2.42,2.74,9.53.47,12.36.09,3.38-.46,7-.09,10.44-.09,3,0,6.2-.3,9.21.23,1.92.34,3.65,1.24,5.49,1.68,1.26.3,2.94-.07,4,1.05s-.23,2.95.69,3.89c.73.75,4.56.15,5.35.15,4.62,0,8.14-1.66,12.49-2.77,1.45-.37,2.74,0,4.2-.17,2.43-.23,4.93-1.09,7.34-1.56,4.41-.87,9-.49,13.48-.49h5.45c1.79,0,5.93.8,7.27-.78-2.53-.74-5,.66-6.83-1.68-1.63-2.05-.29-3.28,0-5.32-1.24-.68-2.29-1.82-3.62-2.3,2.64.46,5-.81,7.57-1s4.57-.53,7.06-.86a43.72,43.72,0,0,1,5.59-.09,19.42,19.42,0,0,1,2.52,0c1.23.16,1.29.57,2.2.8,1.68.43,3.35.63,5,1.2,2.92,1,2.3,1.59,3.9,4,2.53,3.79,7.7,5.54,10.9,8.43,2.38,2.14,3.55,5.38,6.42,7.1,2.71,1.62,6.75,2.74,8.83,5.23,1.38,1.64.42,1.84,2.69,2.27,2.05.39,4.57.48,6.56,1.17,2.26.79,3.07,2.69,5,3.84s4.18.39,6.14,1.16c-1.21,2.48-6.85,3-9.42,3.63-4.37,1-8.08-.65-12.27-.82-3.59-.15-6.93,0-10.29-.75a20.22,20.22,0,0,0-7.29-.14c-3.47.61-6.94,1.51-10.44,2-2.86.37-6.1-.05-9-.05-2.32,0-4.64,0-7,0-3.75,0-7.21,1.08-11,1"/><path class="cls-3" d="M1302.78,794a28.87,28.87,0,0,1,5.48-4c1.17-.58,2.35-1,3.56-1.5s1.84-1.42,2.93-2c1.88-1,4-1.2,6-1.69s3.9-1.53,6-1.8c4.63-.62,8.89,1,13.49,1,2.64,0,5-.29,7.46.7,1.57.64,3.26,1.77,4.9,2.13,1.83.4,2.5.17,4.17,1.15,2.69,1.58,3.89,2.37,7.17,1.8a59.26,59.26,0,0,1,9.81-.77c3.1,0,5.8.87,8.9,1a19.68,19.68,0,0,1,9.7,3.49,31.31,31.31,0,0,0,17.18,5.54c5.1,0,9.91,0,14.75,1.07,2.24.5,4.41,2.18,6.47,3a17.36,17.36,0,0,0,6.53,1c2.78,0,3.93,1.18,6.51,1.78a18.36,18.36,0,0,1,4,.95c1.38.62,2.38,1.53,4,1.27"/><path class="cls-3" d="M1302.78,793c-.37,2.47-1.5,3.47,1,5.27,2,1.48,2.43,1.81,2.05,4.75-.42,3.24-3.73,5.07-6.52,6.48-1.64.82-3.5,1.31-4.72,2.43a24.32,24.32,0,0,0-4.55,5.3,24,24,0,0,0-2.27,5.78c-.32,1.92.43,3.93-.12,5.83l-.83.17"/><path class="cls-3" d="M706.78,698c2.77.3,4.9-1.41,7.93-.77a43.41,43.41,0,0,0,14.22.57C734,697.18,739,696,744,695.2c6.16-.94,12.53-.56,18.71-1.37,4.95-.65,9.5-2.44,14.5-2.8,3.31-.24,6.13-1.35,9.38-1.86,2.55-.4,5,0,7.55-.34,4.57-.65,8.9-2.39,13.51-2.8,3.05-.27,5.72-1.3,8.69-1.86,3.35-.63,6.37-.08,9.72-1.14,15.33-4.89,31.54-6,47.48-6,3.48,0,7-.17,10.49,0,2.74.12,5,1.08,7.78,1,7-.08,13.82,1,20.9,1,3.86,0,7-.08,10.65,1s7.62.61,11.29,1.23c6.94,1.16,14,2.41,20.91,4,2.54.59,5.08,1.35,7.62,2a30,30,0,0,0,7.35.67c2.6.07,4.34,1,6.73,1.83,4.56,1.57,9.63,1.84,14.4,2.2a17.26,17.26,0,0,1,6.55,2c4.76,2.12,10,2.46,15,3.82,4.82,1.32,9.61,2.88,14.4,4.26,1.48.43,2.78,1.33,4.15,1.77,1.7.54,3.3.46,5.05,1.09,4.4,1.58,9.86,2.5,13.73,5,5.25,3.39,11.39,4.47,17.27,6.37,7.13,2.31,14.28,4,21.38,6.2,4.11,1.26,7.64,2.18,11.41,4.2a42.8,42.8,0,0,0,9.2,3.91c2.81.74,6.42.64,8.91,2.39,1.49,1,1.92,2.12,3.62,3a79.28,79.28,0,0,0,9.51,3.8c4.78,1.76,9.72,3.86,14.71,5a258.68,258.68,0,0,1,27.49,8.09,37,37,0,0,1,5.8,2.84,41.35,41.35,0,0,0,11.21,4c4.35,1,6.45,1.31,9.9,3.29a13.63,13.63,0,0,0,3.79,1.39c2.6.7,5,2.2,7.28,3.29,1.72.81,3.7,2.64,5.75,2.25"/><circle class="cls-10" cx="1001.61" cy="218.17" r="14.17"/><circle class="cls-10" cx="976.4" cy="193.66" r="10.55"/><path class="cls-3" d="M245,298.29a14.17,14.17,0,1,1-18.2-18.19A14.18,14.18,0,0,0,245,298.29Z"/></g></g></svg>