<svg xmlns="http://www.w3.org/2000/svg" viewBox="0 0 1525 920"><defs><style>.cls-1,.cls-3{fill:#fff;}.cls-2{opacity:0.2;}.cls-10,.cls-11,.cls-12,.cls-13,.cls-17,.cls-18,.cls-19,.cls-20,.cls-21,.cls-22,.cls-23,.cls-24,.cls-26,.cls-27,.cls-3,.cls-4,.cls-5,.cls-7,.cls-8,.cls-9{stroke:#000;}.cls-10,.cls-11,.cls-13,.cls-14,.cls-18,.cls-19,.cls-20,.cls-21,.cls-24,.cls-27,.cls-3,.cls-4,.cls-5,.cls-7,.cls-8,.cls-9{stroke-linecap:round;}.cls-10,.cls-11,.cls-12,.cls-13,.cls-14,.cls-18,.cls-19,.cls-20,.cls-21,.cls-3,.cls-4,.cls-5{stroke-linejoin:round;}.cls-10,.cls-11,.cls-12,.cls-13,.cls-14,.cls-17,.cls-18,.cls-19,.cls-20,.cls-21,.cls-23,.cls-24,.cls-26,.cls-27,.cls-3,.cls-4,.cls-5,.cls-7,.cls-8,.cls-9{stroke-width:2px;}.cls-4{fill:#333;}.cls-14,.cls-22,.cls-5,.cls-9{fill:none;}.cls-13,.cls-6,.cls-7{fill:#f8c5a4;}.cls-17,.cls-22,.cls-23,.cls-24,.cls-26,.cls-27,.cls-7,.cls-8,.cls-9{stroke-miterlimit:10;}.cls-8{fill:#cf702c;}.cls-10{fill:#b3b3b3;}.cls-11{fill:#999;}.cls-12{fill:#588191;}.cls-14{stroke:red;}.cls-15,.cls-26{fill:#603813;}.cls-16,.cls-17,.cls-27{fill:#c4a166;}.cls-18{fill:#91891e;}.cls-20{fill:#ccc;}.cls-21{fill:#f15a24;}.cls-22{stroke-width:12px;stroke-dasharray:2 3;}.cls-23,.cls-24,.cls-25{fill:#d1ab6d;}</style></defs><title>hero-lateral</title><g id="Layer_2" data-name="Layer 2"><g id="hero-frames"><rect class="cls-1" width="1525" height="920"/></g><g id="heros"><path class="cls-2" d="M1473.57,730.74c-92.75-7.36-185.34-16.62-278.07-24.15s-185.69-12.45-278.68-16q-278.18-10.68-556.42-.4Q282.48,693,204.61,696.9c-26.4,1.28-52.81,2.55-79.18,4.29q-19.78,1.3-39.55,2.79c-11.46.85-23.18,1.05-34.48,3.32-1.26.25-.68,2.17.58,1.92,11.1-2.22,22.68-2.4,33.95-3.23q18.36-1.36,36.72-2.61c23.55-1.57,47.12-2.77,70.69-3.93q69.37-3.41,138.78-6.2c92.45-3.62,184.95-6,277.47-6.31,184.09-.58,368.66,5.08,552.24,19,104,7.89,207.81,18.54,311.8,26.8C1474.9,732.84,1474.84,730.84,1473.57,730.74Z"/><path class="cls-2" d="M392.49,911c-25.57-8.9-51.12-19.7-76.69-28.75a552.81,552.81,0,0,0-76.72-20.64A566,566,0,0,0,86.43,852C72.21,853,58,854.44,43.8,856.1c-7.22.84-14.44,1.68-21.65,3-3.6.65-7.2,1.38-10.8,2.14-3.13.66-6.34.67-9.4,2.74-.34.23-.15,2.16.19,1.92,3-2,6.18-2,9.26-2.67,3.34-.7,6.69-1.38,10-2,6.43-1.18,12.88-2,19.33-2.75,12.65-1.51,25.31-2.85,38-3.89a578.27,578.27,0,0,1,76-1.7C205.23,855.35,256,864.06,306.55,881c28.67,9.62,57.32,22,86,32C392.89,913.12,392.84,911.12,392.49,911Z"/><path class="cls-2" d="M1524.71,871.23c-25.57-8.9-51.12-19.7-76.69-28.75a552.81,552.81,0,0,0-76.72-20.64,566,566,0,0,0-152.65-9.63c-14.22,1-28.43,2.47-42.63,4.13-7.22.84-14.44,1.68-21.65,3-3.6.65-7.2,1.38-10.8,2.14-3.13.66-6.34.67-9.4,2.74-.34.23-.15,2.16.19,1.92,3-2,6.18-2,9.26-2.67,3.34-.7,6.69-1.38,10-2,6.43-1.18,12.88-2,19.33-2.75,12.65-1.51,25.31-2.85,38-3.89a578.27,578.27,0,0,1,76-1.7c50.49,2.48,101.22,11.19,151.82,28.16,28.67,9.62,57.32,22,86,32C1525.11,873.35,1525.06,871.35,1524.71,871.23Z"/><path class="cls-3" d="M210.86,754.64s-1.53-2-4.69,1.36c-4.48,4.84-1.43,8.76,4.69,16.91,3.59,4.78,13.55,15.89,32.49,21.8s30.26,10.59,35.76,11.41,15.27,3.46,17-10.59Z"/><polygon class="cls-3" points="275.64 752.9 279.42 744.59 308.11 752.9 303.03 768.93 297.64 783.3 267.91 773.93 275.64 752.9"/><path class="cls-4" d="M271.36,748.93s2.42-1.48,3.46.37c2.24,4-.64,6-.2,7,3.9,8.46,10.83,21.86,16.84,23.17,8.42,1.83,13.31-15.25,13.31-15.25s2,16.68-8.66,31.34c0,0-27-.81-49.2-7.54s-34.63-22.82-36.06-25.26c0,0,4.69-1.89,0-8.08,0,0,5.5-3.19,13,0s24.24,2,26.69,1.15Z"/><path class="cls-5" d="M274.62,756.26c-13.59,11.27-40.13,9.32-40.13,9.32s-6.17-.88-5.74-9.61"/><path class="cls-5" d="M235.51,756.65s2.85,3.23,3.06,11.17"/><path class="cls-5" d="M241.82,756.68s3.06,2.59,3.06,11.14"/><path class="cls-5" d="M247.94,756.26a16.22,16.22,0,0,1,2.69,10.54"/><path class="cls-5" d="M254.07,754.64s3,3.81,3,10.93"/><path class="cls-5" d="M259.33,752.9s3.48,5.95,2.87,11.25"/><path class="cls-5" d="M264.23,751.28s3.87,5,3.67,11"/><path class="cls-6" d="M683.34,401.49a3.76,3.76,0,0,1-.29.57h0c-.39-.2-.61-.34-.61-.34Z"/><path class="cls-6" d="M683.34,401.49a3.76,3.76,0,0,1-.29.57h0c-.39-.2-.61-.34-.61-.34Z"/><path class="cls-6" d="M707.18,399.76c-.46,4.38-7.33,1.49-10.76-1.29-.57-.47-1.47-1.14-2.55-1.91.89,1.57.82,3.27-.61,5.1-2.94,3.77-8.4,1.37-10.23.4a3.76,3.76,0,0,0,.29-.57l-.92.23s.22.14.61.34a4,4,0,0,1-3.89,2c-3.06-.12-6.47-2.91-8-4.27-1.22,1.41-3.55,2.23-7.84,1.21-11.29-2.7-23.32-19-23.32-19s-24.62-7.59-46.18-13.65C576.73,363.46,550,348.75,550,348.75c-14.71-1.7-64.71-24.11-69-22.39-6.82,12.52-8.78,35.82-8.78,35.82l-3.82,5.44L439.2,371l-48.66-29-11.39-21.6,10.16-20.32V278.54H436.5v5h12.58s15.21,1.25,25.26,3.69,16.4,6.6,27,11.55,42.34,17.42,57,24c0,0,14.32,2.26,34.29,11.19s32.37,21.89,53.48,27.75l5.92,1.09s12-5,16.84-4S689.16,360,692,360.64s1.68,4.07.12,4.95a27.3,27.3,0,0,1-15,1.67,2.91,2.91,0,0,0-3.39,2.08l.17-.12a55.08,55.08,0,0,0,11.87,12C694,387,707.51,396.67,707.18,399.76Z"/><path class="cls-5" d="M673.7,369.28a2.91,2.91,0,0,1,3.39-2.09,27.24,27.24,0,0,0,15-1.67c1.57-.87,2.71-4.33-.12-4.95s-18.32-1-23.18-1.87-16.84,4-16.84,4l-5.92-1.09c-21.11-5.86-33.51-18.81-53.48-27.75s-34.29-11.19-34.29-11.19c-14.63-6.59-44.53-20.38-57-24-10.59-4.94-16.94-9.16-27-11.6s-25.27-3.69-25.27-3.69H436.5v-5H389.32V300l-10.16,20.32,11.38,21.6,48.66,29,29.15-3.41,3.82-5.43s2.25-25.47,8.77-35.77"/><path class="cls-6" d="M452.05,238.25c-.55,5.69-2.73,22.29-10.2,35.63-5.76,10.26-14.64,18.6-28.31,18.6-12.45,0-23.08-9.89-29.73-21.93,3.34-4.31,4.17-16,4.17-16l3.26-25.86c1.54-.73,12.79-9.38,10.79-23.31a67.26,67.26,0,0,0,33.6-1.05c3.2-.94,6.72-2.08,10-2.06l.18.3C452.28,212.88,452.6,232.62,452.05,238.25Z"/><path class="cls-7" d="M441.86,273.88c-3.76,7.09-11.83,13.82-20.11,15.45-13.25,2.6-25-4.32-28.21-18.77"/><path class="cls-8" d="M574.71,253.75c0,7.43-1.61,15.88-8,19.71-3.59,2.16-8,2.36-12.2,2.13-13.8-.77-27.13-5.64-40.93-6.3-24.09-1.19-48.39,10.42-71.76,4.6,7.47-13.35,9.64-29.95,10.2-35.63s.22-25.37-6.26-35.7c-.05-.19-.11-.3-.18-.3-3.25,0-6.77,1.11-10,2.06a67.26,67.26,0,0,1-33.6,1.05c2,13.93-9.25,22.58-10.79,23.31L388,254.52s-.83,11.73-4.17,16C373.28,271.8,362,253.94,362,234.76c0-12.72,4.66-21.62,10.3-27.78-1.91-4.12,4.57-20.51,10.72-24.6,5.37-3.57,11.64-5.54,18-4.53s12.41,3.53,18.78,4.5c16.82,2.58,33.58-10,50.59-9.24,14,.63,27,7.49,41,9.33,6,.8,12.09.64,18.14.71a27.88,27.88,0,0,1,9.26,1.17c2.95,1.05,5.65,3.23,6.56,6.23,15.93-.5,16.62,9.51,17.21,11.55,2.85,9.87-2.59,18.09,2.34,27.1C566.85,232.78,574.68,248.78,574.71,253.75Z"/><path d="M392.53,202l.69.19c.45.12,1.11.31,1.94.56s1.84.48,3,.75,2.48.57,3.94.81c.72.14,1.47.28,2.26.39s1.59.26,2.43.34c1.66.22,3.43.39,5.26.48s3.72.17,5.64.13c1,0,1.93,0,2.9-.09s1.94-.11,2.91-.21,1.94-.21,2.9-.33,1.92-.28,2.87-.44c1.89-.33,3.74-.75,5.52-1.19s3.49-1,5.16-1.43,3.26-.83,4.75-1.09a19.19,19.19,0,0,1,7.39-.12,7.15,7.15,0,0,1,2,.78,4.51,4.51,0,0,1,.47.31l.16.11a.33.33,0,0,1-.37.54h0a4.71,4.71,0,0,0-.59-.31,6.39,6.39,0,0,0-1.83-.51,18.08,18.08,0,0,0-6.9.66c-1.42.36-2.95.8-4.56,1.33s-3.3,1.13-5.11,1.67a56.44,56.44,0,0,1-5.65,1.45,55.74,55.74,0,0,1-6,.93q-1.51.18-3,.25c-1,.08-2,.11-3,.11-2,0-3.95-.06-5.84-.21s-3.7-.41-5.41-.71c-.86-.14-1.68-.33-2.47-.5s-1.56-.34-2.29-.56c-1.46-.39-2.78-.81-3.94-1.21s-2.15-.82-3-1.14-1.42-.63-1.84-.83l-.65-.3a.33.33,0,0,1,.23-.61Z"/><path class="cls-6" d="M366.5,358.87s-26.08,28.79-29.88,32.05-8.15,8.69-13,9.24-4.35,1.09-17.38-8.69-39-43.51-39-43.51l18.28-11.2c11.41,17.93,37,30.8,37,30.8S342.06,342,354,318.67a38.66,38.66,0,0,1,35.31-21.76Z"/><path class="cls-6" d="M267.41,348c-1.62-1-5.85-9.55-6.84-11.16a60,60,0,0,1-5.71-12,40.91,40.91,0,0,1-2.54-12.55c-.06-.84.06-3.73,2.17-5.18s4.3,0,5.31,1.36c-.9-3.19.78-4.92,2.46-5.69s4.23-.37,5.09,1.68c-.69-3,.77-4.13,2.49-4.84s4.24.44,5.31,1.95c.5-2.73,3.43-3.15,5-2.44s2,2.24,2.47,3.69c.33,1,.82,3.89,1.15,4.89h0a5.88,5.88,0,0,1,3-.14c2.37,1.18,6.51,12.65,6.53,13.43s-4.19,12.1-7.76,15.77Z"/><path class="cls-9" d="M277.79,331.16c-4.85-8.53-.82-11.68,1-13.48"/><path class="cls-5" d="M282,316.09c-3.5,1.54-4.92,2.82-8.92,3.47-6,1-6.58-4.55-6-5.59s17.4-7.65,19.78-6.48,6.51,12.65,6.53,13.43-4.19,12.1-7.76,15.77l-.15.06c11.41,17.93,37,30.8,37,30.8S342.06,342,354,318.67a38.66,38.66,0,0,1,35.31-21.76"/><path class="cls-9" d="M283.86,307.65c-.33-1-.82-3.89-1.15-4.89-.48-1.45-1.09-3-2.47-3.69s-4.46-.29-5,2.44"/><path class="cls-9" d="M267.48,304.39c-.69-3,.77-4.13,2.49-4.84s4.24.44,5.31,1.95l2,7.33"/><path class="cls-9" d="M259.94,308.39c-.9-3.19.78-4.92,2.46-5.69s4.23-.37,5.09,1.68l1.78,7.79"/><path class="cls-9" d="M259.94,308.39c-1-1.31-3.25-2.77-5.31-1.36s-2.22,4.34-2.17,5.18A40.91,40.91,0,0,0,255,324.77"/><path class="cls-9" d="M259.94,308.39c1.46,5.58,2,8.18,3.74,13.17.32.91,2,5.83,5.44,4.6,2.28-.82,2.79-3.92,2.35-6.49"/><path class="cls-9" d="M263.12,320.31c.35,1.6,1.24,6.46-1,7.41-2.93,1.23-4.61-9.62-4.83-11.45"/><path class="cls-9" d="M254.92,324.64c2.35,10.37,13.21,29.73,51.28,66.83,11.67,11.38,12.5,9.24,17.38,8.69s9.24-6,13-9.24,29.88-32.05,29.88-32.05"/><path class="cls-10" d="M284.11,732.1l-5.86,11.27s9.21,11.27,29,11.27l5.16-10.87Z"/><path class="cls-5" d="M688,600.35l20.89,4.41H714l4.41-19.86-3.71-18.46L697,568.76s-4.52,4.84-13.29,5.32-11.33,0-11.33,0l3.25,27,12.32-.72"/><path class="cls-10" d="M676.81,574.08h8.33s4.48,8.34,2.85,26.27h-8.39Z"/><line class="cls-5" x1="679.14" y1="596.04" x2="688.34" y2="596.04"/><line class="cls-5" x1="679.14" y1="589.77" x2="688.34" y2="589.77"/><line class="cls-5" x1="679.14" y1="585.14" x2="686.71" y2="585.14"/><line class="cls-5" x1="679.14" y1="578.87" x2="686.71" y2="578.87"/><path class="cls-4" d="M697,568.76s13.17-9.76,22.76-10c0,0,5.57,3.08,12.08,24.88s13.85,32.29,14.63,39c.84,7.2,1.63,15.33,0,21.83,0,0-3.95-2.09-5.57,0a82.3,82.3,0,0,1-9.29-17.65S713.75,615,707.72,611.26s-.7-9.64,2.48-8.48c0,0,8-10.35,5-23S699.51,574.72,697,568.76Z"/><path class="cls-5" d="M719.79,558.77s2.56-7.2,8.83-4.41,13.7,16.26,13.7,30.78,9.09,28.07,10.39,38.21c1.16,9.06-.4,23.46-6.67,24.85s-5.11-3.72-5.11-3.72"/><path class="cls-11" d="M461.38,556.28s44.88,64.84,86.44,74.62c9.24,2.17,19.83.68,28-1.49s84.18-19.53,99.86-23.49c4.33-1.09,4.59-8.44,4.17-12.89l-1.39-15a7.1,7.1,0,0,0-7.2-6.45c-10.7.21-65.29,1.36-102.91,14.13,0,0-16.64-25.45-22.75-36.45-5.86-10.54-24.24-47.8-36.46-63-7-8.71-12.67-11.46-12.67-11.46Z"/><path class="cls-5" d="M568.33,585.67s-5.84,1.23-9.51,12.24"/><path class="cls-5" d="M574.71,597.91a14.14,14.14,0,0,1-4-13"/><path class="cls-5" d="M515.5,500.77s25.61,59.4,7.3,61.67c-4.05.5.93-11.09-2.31-18.27"/><path class="cls-11" d="M501.28,474.2c1.3,4.19.45,11.1,1.34,16.68,2,12.53-6.09,35.44-19.69,49.27C456.66,566.86,371,621.54,371,621.54c-7.27,5.3-11,11-15.08,19.15-4.89,9.78-7.68,35.47-16.57,60.07-17.52,48.49-24.44,43-26.89,43a33.94,33.94,0,0,1-17.1-3.12c-9.25-4.21-11.24-8.56-11.24-8.56s-3.17-5,.09-14.8,23.51-100.72,28.25-111.78c5.7-13.31,77.69-95.27,94.8-111.33l19-20Z"/><path class="cls-5" d="M293.19,739.67s-5.46-7.54-2.2-15.15"/><path class="cls-5" d="M315.47,721.91s-.72,15.21-12.45,20.37"/><path class="cls-5" d="M358.34,635.29s-12.48.11-17.09-13.47"/><path class="cls-5" d="M337.49,639.2s8.63,4.26,20.78-2.22"/><path class="cls-5" d="M411.44,497.58s21.61-8.85,44.43,0"/><line class="cls-5" x1="282.73" y1="747.31" x2="288.43" y2="736.64"/><line class="cls-5" x1="287.1" y1="749.3" x2="292.81" y2="738.63"/><line class="cls-5" x1="291.47" y1="751.28" x2="296.11" y2="742.6"/><line class="cls-5" x1="295.84" y1="753.27" x2="301.55" y2="742.6"/><line class="cls-5" x1="301.27" y1="753.27" x2="305.92" y2="744.59"/><path class="cls-5" d="M424.4,500.77c10.83,1.32,35.88,4.83,34.95,8.83-1,4.17-15.76.48-20.79-.45"/><path class="cls-12" d="M366.5,342.52c-7.59,37.09,12.39,52,22.07,75.52,16.18,39.33,14.66,73.9,15.87,76.88,1.3,3.23,8.06-5.83,24.22-5.83,14.43,0,42.82,5.74,61-2.84,6.9-3.25,16-8.31,13.25-14.82-2.37-5.53-26.68-76.47-27.22-81.91s-3-22-3.53-27.4c0,0-15.5,3.36-22.27,2.36-5.81-.86-21.46-6.17-22.55-23.55s13.31-50.5,16-53.78c4.39-5.38,19.22-2.55,19.22-2.55-7-3.8-21.34-4.1-25.54,1.47-2.78,3.69-30,38.3-42,38.3s-10.59-8.42-5.7-21.73v-5.73S370.56,322.72,366.5,342.52Z"/><path class="cls-5" d="M454.51,325.73s11.74-3.7,35.4,2.44c21.31,8.51,49.87,18.85,60.06,20.58a312.26,312.26,0,0,0,41.7,18.76C612.78,375,640,381.92,640,381.92"/><path class="cls-5" d="M475.7,389.53s-1.9,27.2-19.56,44"/><path class="cls-5" d="M482.93,414.63s-2.33,23.83-20.26,40.4"/><path class="cls-5" d="M671.31,365.47s6.18,10,14.42,15.71,21.77,15.43,21.44,18.52c-.47,4.38-7.33,1.49-10.76-1.29s-17.25-11.92-17.25-11.92"/><path class="cls-13" d="M683.45,401.4s6.25,4.79,9.82.21c2.43-3.12.94-5.88-2.59-8.17-3.85-2.49-5.83-1.75-6.46,0-1.27,3.43,5.15,6.49,5.15,6.49"/><path class="cls-5" d="M671.42,399.2s3.66,4.6,7.72,4.75,4.6-3.64,4.69-4.35c.48-4.11-5-11.54-7.91-9.59-3.51,2.36.68,8.81,3.28,10.25"/><path class="cls-5" d="M671.71,371.18s-4.45,5-15.15,2.93"/><path class="cls-5" d="M676.81,387.27s3.52-1.91,4.37-3.08"/><path class="cls-5" d="M666.28,394.45a4.64,4.64,0,0,0-3.52,1.5"/><path class="cls-5" d="M653.16,379.55s6.57,1,8.86,6"/><path class="cls-5" d="M643.21,375.21s-4.52,2.48-2.72,8.53c0,0,11.56,14.45,22.85,17.15s8.94-7.36,8.94-7.36-1.05-6.9-4.87-5.81c-2.79.79-.9,7.89-.27,10.72"/><path class="cls-7" d="M442,239.7c10.2,1.75,12.44,3.93,11.73,7.11-1,4.65-7.92,3.88-13.27,2.69"/><ellipse cx="424.23" cy="228.18" rx="1.56" ry="3.81"/><ellipse cx="444.12" cy="228.18" rx="1.56" ry="3.81"/><path class="cls-7" d="M392.11,230.36c-.81-4.22-8.44-4.35-8.41,3.11,0,3.46,3.59,6.32,3.14,9.75-.32,2.45-1.74,4.55-1.92,7-.15,2,2.26,6.44,7.37,3.36"/><path class="cls-9" d="M388.69,234.29a6.59,6.59,0,0,0,3.06,2.82"/><path class="cls-9" d="M393.54,244.25a8.69,8.69,0,0,0-3.06,2.31"/><path d="M469,218.69l.72.38c.47.24,1.16.64,2,1,.44.19.92.43,1.46.65l1.78.68,2.06.66,2.32.62a50.58,50.58,0,0,0,5.31.95c1.9.26,3.93.37,6,.47a91.7,91.7,0,0,0,13.15-.6c4.5-.47,9-1.13,13.19-1.72s8.19-1,11.6-1.28c1.71-.12,3.28-.19,4.67-.22s2.61,0,3.61,0,1.79.09,2.32.11l.82.05a.58.58,0,0,1,0,1.16h-.83c-.53,0-1.3,0-2.28,0s-2.18.06-3.55.13-2.91.21-4.59.37-3.5.38-5.42.65l-6.05.88c-4.19.62-8.71,1.33-13.23,1.84a93.58,93.58,0,0,1-13.45.5A55.49,55.49,0,0,1,479,224.26c-.83-.24-1.63-.47-2.38-.71l-2.11-.77-1.81-.78c-.56-.25-1.06-.52-1.51-.74-.93-.44-1.56-.87-2-1.14l-.7-.42a.58.58,0,0,1,.57-1Z"/><path class="cls-9" d="M427.39,262.18c4.67,2.24,7.61,2.24,12.17,2.24"/><path class="cls-9" d="M418.94,222.15c0-2.3.94-5.6,4.13-5.6"/><path class="cls-9" d="M438.43,222.15c0-2.3.94-5.6,4.13-5.6"/><path class="cls-9" d="M425.22,273a2.59,2.59,0,0,1,4.34,1.84"/><polyline class="cls-5" points="383.81 270.56 389.32 278.54 389.11 283.67"/><path d="M1388.37,739.21l.91.14c.6.08,1.49.19,2.66.27a49.53,49.53,0,0,0,10.08-.43,56.47,56.47,0,0,0,15-4.31,60.66,60.66,0,0,0,8.34-4.6,39,39,0,0,0,8-6.8,32.7,32.7,0,0,0,6-9.59,32.28,32.28,0,0,0,2.27-11.87,41.09,41.09,0,0,0-2-12.69,24.66,24.66,0,0,0-7-11.08,22.77,22.77,0,0,0-12.41-5.29,35.23,35.23,0,0,0-14.07,1.32,34.83,34.83,0,0,0-6.67,2.7,17.43,17.43,0,0,0-5.5,4.29,3.49,3.49,0,0,0-.91,2.65,1.16,1.16,0,0,1,.07.24c.06.13.13.3.19.41a3.79,3.79,0,0,0,.38.51,4.32,4.32,0,0,0,1.23.89,13.53,13.53,0,0,0,6.81.93,27.78,27.78,0,0,0,13.43-4.9,21.2,21.2,0,0,0,8.31-11.19,25.28,25.28,0,0,0-.19-13.9c-.3-1.13-.68-2.27-1.07-3.33a21.9,21.9,0,0,0-1.45-3.12,16.56,16.56,0,0,0-4.33-5,18.86,18.86,0,0,0-12.38-3.49,32.58,32.58,0,0,0-12.36,3.12,28.15,28.15,0,0,0-5.25,3.16,12.27,12.27,0,0,0-3.71,4.22,3.13,3.13,0,0,0-.23,2.22l0,.12.05.12a2.41,2.41,0,0,0,.15.3,4.1,4.1,0,0,0,.29.45,4.32,4.32,0,0,0,.86.81,8.62,8.62,0,0,0,4.89,1.27,22.72,22.72,0,0,0,9.83-2.68,30.31,30.31,0,0,0,7.62-5.51,37.24,37.24,0,0,0,8.37-13,50.38,50.38,0,0,0,2.69-9.74c.2-1.15.33-2,.4-2.65l.11-.91-.06.92c0,.61-.11,1.5-.25,2.67a48.14,48.14,0,0,1-2.19,10,38.33,38.33,0,0,1-8,13.76,32,32,0,0,1-7.78,6.2,22.43,22.43,0,0,1-10.74,3,10.52,10.52,0,0,1-6-1.65,6.31,6.31,0,0,1-1.27-1.21,5.69,5.69,0,0,1-.51-.79,3.72,3.72,0,0,1-.18-.37l-.1-.22-.07-.23a5.12,5.12,0,0,1,.31-3.64,14.1,14.1,0,0,1,4.31-5,30.12,30.12,0,0,1,5.63-3.39,34.56,34.56,0,0,1,13.13-3.3,24.45,24.45,0,0,1,7.08.72,18.38,18.38,0,0,1,6.6,3.18,18.56,18.56,0,0,1,4.85,5.64,24.13,24.13,0,0,1,1.57,3.38c.44,1.19.81,2.33,1.14,3.54a27.27,27.27,0,0,1,.18,15,23.21,23.21,0,0,1-9.08,12.25,29.75,29.75,0,0,1-14.42,5.26,15.36,15.36,0,0,1-7.87-1.15,6.31,6.31,0,0,1-1.78-1.31,5.11,5.11,0,0,1-.72-1c-.09-.16-.14-.29-.21-.44a6.9,6.9,0,0,1-.21-.66,4.38,4.38,0,0,1,.21-2.39,7.33,7.33,0,0,1,1.06-1.88,19.25,19.25,0,0,1,6.15-4.85,36.82,36.82,0,0,1,7-2.86,37.21,37.21,0,0,1,14.88-1.38,24.78,24.78,0,0,1,13.48,5.77,26.65,26.65,0,0,1,7.61,12,43,43,0,0,1,2.09,13.34,34.29,34.29,0,0,1-2.42,12.6,34.7,34.7,0,0,1-6.35,10.17,43.2,43.2,0,0,1-17.16,11.63,57.71,57.71,0,0,1-15.51,3.59,46.24,46.24,0,0,1-10.2-.17c-1.17-.15-2.05-.32-2.65-.44Z"/><path d="M1233.06,394.43s.38,0,1.12.11a16.16,16.16,0,0,1,3.22.73,14.53,14.53,0,0,1,4.66,2.61,13.34,13.34,0,0,1,4.12,6,9.51,9.51,0,0,1,.44,4.39,5.91,5.91,0,0,1-.87,2.32,4.75,4.75,0,0,1-2,1.72,6.07,6.07,0,0,1-2.69.47,8.2,8.2,0,0,1-1.39-.16l-.32-.07-.41-.14a2.83,2.83,0,0,1-.74-.46,2.22,2.22,0,0,1-.72-1.68,4.32,4.32,0,0,1,.34-1.58,11.3,11.3,0,0,1,1.53-2.54,39.79,39.79,0,0,1,9.14-8,50.1,50.1,0,0,1,12.13-5.83,36,36,0,0,1,7.08-1.57,23.92,23.92,0,0,1,7.61.29,17.51,17.51,0,0,1,3.76,1.24,20,20,0,0,1,1.79.91,18,18,0,0,1,1.69,1.14,16.15,16.15,0,0,1,5.11,6.45c2.26,5.2,1.79,11.36-.6,16.6a25.92,25.92,0,0,1-4.88,7.21,23.75,23.75,0,0,1-7.18,5.26,14.4,14.4,0,0,1-4.47,1.26,8.28,8.28,0,0,1-4.83-.85,5.32,5.32,0,0,1-1.95-1.83,5.24,5.24,0,0,1-.77-2.58,8.56,8.56,0,0,1,1.46-4.74,23.21,23.21,0,0,1,6.68-6.46,60.67,60.67,0,0,1,8-4.49,77.4,77.4,0,0,1,17.52-5.88c6.08-1.2,12.5-1.65,18.71-.11a24.26,24.26,0,0,1,8.66,4,22.75,22.75,0,0,1,6.23,7.24,27,27,0,0,1,1.93,4.34,24,24,0,0,1,1.09,4.65,25.53,25.53,0,0,1-.56,9.41,40.83,40.83,0,0,1-8.58,16.15,58.08,58.08,0,0,1-13.36,11.77,37.36,37.36,0,0,1-7.89,3.88,16.73,16.73,0,0,1-4.39.9,8.28,8.28,0,0,1-2.37-.19,5.1,5.1,0,0,1-2.28-1.18,4.76,4.76,0,0,1-1.31-2.19,5.21,5.21,0,0,1-.1-2.55,7.94,7.94,0,0,1,2.39-3.95,22.44,22.44,0,0,1,7.17-4.32,42,42,0,0,1,15.42-2.9,30.4,30.4,0,0,1,7.5.93,18.48,18.48,0,0,1,6.71,3.17,12.77,12.77,0,0,1,4.21,5.85,14.53,14.53,0,0,1,.76,3.39c.07.57.1,1.12.13,1.65s0,1.12,0,1.66a19.31,19.31,0,0,1-4,11.5,25.53,25.53,0,0,1-8.25,6.72,43.89,43.89,0,0,1-8.33,3.34,67.82,67.82,0,0,1-12.3,2.3c-2.87.27-4.41.3-4.41.3s1.54-.08,4.39-.46a68.47,68.47,0,0,0,12.13-2.74,43.14,43.14,0,0,0,8.08-3.53,24.47,24.47,0,0,0,7.7-6.67,17.87,17.87,0,0,0,3.38-10.78c0-.51,0-1-.05-1.51s-.08-1.06-.17-1.55a12.74,12.74,0,0,0-.79-3,11.77,11.77,0,0,0-3.73-4.9c-3.39-2.66-8.17-3.66-13-3.7a40.06,40.06,0,0,0-14.66,2.75,20.56,20.56,0,0,0-6.52,3.9,6,6,0,0,0-1.83,2.92,3.22,3.22,0,0,0,0,1.53,2.76,2.76,0,0,0,.77,1.34,4.32,4.32,0,0,0,3.19.84,14.8,14.8,0,0,0,3.86-.8,35.43,35.43,0,0,0,7.45-3.67,56.1,56.1,0,0,0,12.89-11.35,38.87,38.87,0,0,0,8.18-15.34,23.52,23.52,0,0,0,.53-8.68,22,22,0,0,0-1-4.24,25,25,0,0,0-1.79-4,20.74,20.74,0,0,0-5.68-6.61,22.26,22.26,0,0,0-7.95-3.69c-5.78-1.44-11.95-1-17.83.13A75.42,75.42,0,0,0,1280,411.9a58.82,58.82,0,0,0-7.74,4.33,21.34,21.34,0,0,0-6.12,5.88,6.62,6.62,0,0,0-1.16,3.61,3.17,3.17,0,0,0,1.7,2.75,6.32,6.32,0,0,0,3.66.61,12.43,12.43,0,0,0,3.84-1.09,21.79,21.79,0,0,0,6.56-4.82,23.93,23.93,0,0,0,4.5-6.65c2.2-4.82,2.58-10.41.59-15a14.14,14.14,0,0,0-4.49-5.66,16,16,0,0,0-1.49-1,17.44,17.44,0,0,0-1.6-.82,15.5,15.5,0,0,0-3.36-1.11c-4.63-1-9.4-.14-13.66,1.22a54.17,54.17,0,0,0-11.68,5.58,38.19,38.19,0,0,0-9,7.34,9.92,9.92,0,0,0-1.4,2.13c-.32.74-.39,1.42,0,1.72a1.53,1.53,0,0,0,.36.24l.2.09.31.08a7.23,7.23,0,0,0,1.14.18,4.89,4.89,0,0,0,2.18-.28,4.07,4.07,0,0,0,2.4-3.15,8.65,8.65,0,0,0-.25-4,13,13,0,0,0-3.68-5.86,14.2,14.2,0,0,0-4.42-2.76,16,16,0,0,0-3.15-.88C1233.45,394.46,1233.06,394.43,1233.06,394.43Z"/><path d="M1434.39,576.53l-.26-.48c-.17-.32-.43-.79-.8-1.39a28.08,28.08,0,0,0-3.64-4.8,18.36,18.36,0,0,0-7.62-5,14.82,14.82,0,0,0-5.46-.71,17.65,17.65,0,0,0-5.9,1.45,23.33,23.33,0,0,0-5.79,3.35,27.69,27.69,0,0,0-5.13,5,12.36,12.36,0,0,0-1.77,3.13,4.15,4.15,0,0,0-.11,3.12,2.62,2.62,0,0,0,2.51,1.29,8.15,8.15,0,0,0,3.54-.95,16.91,16.91,0,0,0,6-5.23,19.49,19.49,0,0,0,3.18-7.62A22.53,22.53,0,0,0,1410,551.4a17.82,17.82,0,0,0-6.12-5.76,18.45,18.45,0,0,0-8-2.27,26.81,26.81,0,0,0-8.35.94,33.59,33.59,0,0,0-7.69,3c-2.31,1.31-4.41,3.05-5.32,5.23a5.22,5.22,0,0,0-.29,3.29,4.68,4.68,0,0,0,1.75,2.62,3.22,3.22,0,0,0,2.73.62,2.91,2.91,0,0,0,1.8-2,8.42,8.42,0,0,0-.17-6.08,8,8,0,0,0-1.59-2.43,9,9,0,0,0-2.26-1.64,13,13,0,0,0-5.17-1.47,29.12,29.12,0,0,0-9.16.92c-2.52.63-4.47,1.28-5.79,1.75s-2,.75-2,.75.66-.34,1.94-.94a52.07,52.07,0,0,1,5.66-2.3,30.22,30.22,0,0,1,9.45-1.75,14.18,14.18,0,0,1,6,1.23,10.13,10.13,0,0,1,4.77,5.12,10.38,10.38,0,0,1,.19,7.58,6.34,6.34,0,0,1-1.1,1.86,4,4,0,0,1-2,1.29,5.22,5.22,0,0,1-4.44-.94,6.67,6.67,0,0,1-2.5-3.75,7.23,7.23,0,0,1,.38-4.55,13.75,13.75,0,0,1,6.18-6.21,35.54,35.54,0,0,1,8.16-3.21,28.8,28.8,0,0,1,9-1,20.45,20.45,0,0,1,8.91,2.53,19.83,19.83,0,0,1,6.81,6.4,24.52,24.52,0,0,1,3.43,17.85,21.49,21.49,0,0,1-3.51,8.4,18.87,18.87,0,0,1-6.75,5.87,10.09,10.09,0,0,1-4.45,1.16A5.52,5.52,0,0,1,1398,583a4.11,4.11,0,0,1-1.86-1.87,6.06,6.06,0,0,1,0-4.68,14.31,14.31,0,0,1,2.05-3.65,29.62,29.62,0,0,1,5.51-5.43,26.46,26.46,0,0,1,6.26-3.67,17.2,17.2,0,0,1,12.55,0,19.3,19.3,0,0,1,7.67,5.75,27.38,27.38,0,0,1,3.3,5.15c.32.63.53,1.12.68,1.45Z"/><line class="cls-9" x1="589.84" y1="518.35" x2="667.99" y2="518.35"/><line class="cls-9" x1="569.28" y1="479.27" x2="668.23" y2="479.27"/><line class="cls-9" x1="551.83" y1="458.66" x2="618.75" y2="458.66"/><line class="cls-9" x1="1203.13" y1="573.67" x2="1321.6" y2="573.67"/><line class="cls-9" x1="1224.97" y1="614.44" x2="1284.48" y2="614.44"/><line class="cls-9" x1="1153.65" y1="552.26" x2="1224.97" y2="552.26"/><line class="cls-9" x1="1194.68" y1="529.14" x2="1293.63" y2="529.14"/><line class="cls-9" x1="1133.97" y1="272.29" x2="1232.92" y2="272.29"/><line class="cls-9" x1="1175.49" y1="300.44" x2="1274.44" y2="300.44"/><line class="cls-9" x1="1145.21" y1="444.59" x2="1244.16" y2="444.59"/><path d="M465.9,190.73l.69-.09c.46,0,1.1-.18,2-.21s1.92-.08,3.12-.06l1.91.11,2.11.22c1.46.22,3,.49,4.67.85s3.36.79,5.13,1.24c3.53.92,7.24,2,11,2.76,1.89.37,3.76.67,5.63.89s3.72.39,5.52.48c3.6.22,7,.27,9.87.28l7,0c1.7,0,2.67,0,2.67,0h0a.31.31,0,0,1,0,.61l-.69.08c-.45.06-1.12.13-2,.21-1.69.17-4.11.41-7,.58s-6.34.26-10,.1c-1.84-.08-3.73-.23-5.66-.45s-3.88-.56-5.8-1c-3.85-.83-7.58-2-11.06-3-1.74-.52-3.41-1-5-1.43s-3.12-.75-4.53-1l-2-.35-1.84-.22c-1.16-.09-2.18-.15-3-.14s-1.51,0-2,0l-.7,0a.31.31,0,0,1-.05-.61Z"/><path d="M522.28,253.77l1.25-.08,1.44-.08.89,0,.48,0,.55,0,1.06.06,1.19.15c.82.11,1.64.26,2.5.47a50.09,50.09,0,0,1,5.19,1.58l5,1.78c.8.26,1.57.51,2.3.73s1.43.38,2.08.55,1.24.27,1.78.33,1,.17,1.38.18l1.22.1h0a.5.5,0,0,1,0,1l-1.29.09c-.41,0-.91,0-1.48,0a17.33,17.33,0,0,1-1.92-.18c-.69-.12-1.45-.23-2.23-.42s-1.6-.39-2.43-.63c-1.66-.49-3.39-1.12-5.09-1.73s-3.4-1.21-5-1.64c-.8-.22-1.59-.43-2.31-.58l-1.06-.21-1.06-.13c-.58-.1-1.28-.08-1.81-.13l-1.44-.08-1.25-.08a.5.5,0,0,1,0-1Z"/><path class="cls-3" d="M928.61,688.6,946.31,722l5.2,9.3-7.58,14.77-28.48.87.59-8.4L898.89,699.9a2.17,2.17,0,0,1,1.47-2.58Z"/><line class="cls-14" x1="902.4" y1="706.79" x2="932.9" y2="697.16"/><path class="cls-15" d="M1029.18,274.48c-2,3.88-7.32,3.33-9.53,7.27-2.77,4.92,1.59,12.69-4.29,18.4s-20.36-5.91-25.84-5.47c1.11-1,2-1.92,2.66-2.64.44-.49.88-1,1.31-1.5s.68-.81,1-1.23l.43-.54c.29-.36.58-.73.86-1.11q1.38-1.83,2.67-3.77c.36-.53.72-1.08,1.07-1.62.76-1.2,1.5-2.41,2.22-3.64.34-.58.67-1.16,1-1.74,1-1.84,2-3.7,2.93-5.54.31-.6.61-1.2.89-1.8s.57-1.18.85-1.77l.76-1.62c1.1-2.41,2.08-4.72,2.94-6.81-5.74-2.59-15-4.81-16.8-10-1.45-4.31.74-6.87,1.54-8.35l19.34,7.31,11.19,4.23C1030.64,258.16,1033.38,266.32,1029.18,274.48Z"/><path class="cls-5" d="M989.52,294.68c5.48-.45,20,11.17,25.85,5.46s1.52-13.48,4.28-18.4c2.21-3.93,7.53-3.38,9.53-7.27,4.26-8.28,1.58-16.31-2.79-21.94"/><path class="cls-5" d="M1047.74,206.57l10.61-.82c2.33-.18,5.46-1.32,5-3.61-.36-1.81-2.74-2.28-4.57-2.06a17.19,17.19,0,0,0-10.88,5.84"/><path class="cls-5" d="M1071,231.14a36.53,36.53,0,0,0,7.55,2.61c2.22.5,4.82.7,6.49-.85a2.11,2.11,0,0,0,.61-2.55,2.51,2.51,0,0,0-.94-.76,13.07,13.07,0,0,0-14.93,2"/><path class="cls-5" d="M932.57,207.56,922.25,205c-2.27-.57-5.16-2.21-4.33-4.39.66-1.72,3.08-1.8,4.85-1.27a17.19,17.19,0,0,1,9.75,7.57"/><path class="cls-5" d="M916.69,232.32a36.53,36.53,0,0,1-7.88,1.32c-2.27.13-4.87-.11-6.25-1.92a2.11,2.11,0,0,1-.17-2.62,2.51,2.51,0,0,1,1.06-.59A13.07,13.07,0,0,1,917.82,233"/><path class="cls-3" d="M961.4,739.07s3.43,1.31,6.7,8S953.71,764,941.55,769.7,920,792.35,897.9,795.1s-29.46-.49-30.41-6.24"/><path class="cls-16" d="M1074.91,464l-.77,2.79c-.46,6.5,8.13,4.41,8.13,4.41,2.09,6.27,7.9,3,7.9,3,3,4.65,7.22.46,7.22.46,1.41.93,4.16,1.63,5.79,0s7.2-15.64,7.2-19.28c0-3.95,0-3.72-2.32-7.09,13.7-16.09,30.66-44.94,34.84-51.9s5.11-14.87,0-21.83-35.31-26-41.81-30.2-21.83-13.94-26-18.12c-24.94-24.88-65-19-65-19l-1.16.33-11.45-26.67-38,24.24s1.18,15.27,4.53,23.45l-7.32,8.38L948.4,358.3l4.8,16.88,54.35,28.18,33.14-5.88,12.08-20,2.38-20h0a148.35,148.35,0,0,0,17.45,6.49c11.29,3.09,31.73,16.57,37.76,18.42h.52c.09,6.27-.94,17.08-7,30.34,0,0-13.94,21.43-19.51,27.17,0,0-12.54,7.69-13.7,14C1070,457.42,1071.05,462,1074.91,464Z"/><path class="cls-16" d="M962.06,324.39c-18.58,4.31-17.59,15.86-30.2,22.71-16.26,8.83-31.77,12.21-56.67,24.26-22.67,11-59.33,30-86,41.44,0,0-16.21,5.67-18.18,5.67,0,0-15.14-6.28-16.84-7-2.67-1.2-7.67-1.75-16.84-1.75-3,0-5.69,3.3-6.62,4.5s-4.53,2.79-4.53,4.88,2.32,5,9.29,2.09a25.29,25.29,0,0,0,3.37-1.63,24.8,24.8,0,0,0,5.34.93s-6.27,5.05-8.71,6S714.68,443,714.68,443s-.82.6-2.44,1.86c-2,1.57-3.18,4.35-1,5.81s7.08-1.63,7.78-2.21a20.14,20.14,0,0,1,2.09-1.39s-2.33,3.86,1.51,6.05c2.44,1.39,4.65-1.18,4.65-1.18s2.56,7.32,8.25,4.65c0,0,1.63,3.83,5.46,3.25s4.53-2.56,7.43-3.37,18.12-5.46,22.41-8.94a38.59,38.59,0,0,1,12.66-7.32c5.81-2.21,16-5.32,16-5.32s55-16.36,70.95-22.07,22-10.91,28-13.42,41.86-17.27,53.45-22.85Z"/><path class="cls-17" d="M1076.34,560.95c44.07,39.63,67.91,89.24,81.76,93.46,55.75,17,68.66,43.42,83.53,55.78,0,0-4.81,18.87-16.89,26.77,0,0-52.7-30.72-66.17-37.22s-24.62-8.36-38.09-12.54-14-10.63-20-15.33c-29.73-23.27-42.27-37.28-82.23-84.55Z"/><path class="cls-18" d="M1113.35,667.1c6.81.9,14.32,9.19,14.32,9.19"/><path class="cls-17" d="M952.3,515.32s-66.22,13.6-113.35,66c-4.18,4.65-3.72,14.87,0,20.44s19.51,29.61,26.48,38.27,29.27,51.43,33,57.93l30.2-9.33c-13.47-32.52-3.72-52.49-30.2-86.41,0,0,72.47-7.93,108.71-23.6Z"/><path class="cls-5" d="M928.61,688.6,946.31,722l5.2,9.3-7.58,14.77-28.48.87.59-8.4L898.89,699.9a2.17,2.17,0,0,1,1.47-2.58Z"/><path class="cls-5" d="M1049.86,605.89"/><path class="cls-5" d="M898.41,602.19a96.94,96.94,0,0,1-18.12,0"/><path class="cls-5" d="M721.07,447s-2.33,3.86,1.51,6.05c2.44,1.39,4.65-1.18,4.65-1.18s2.56,7.32,8.25,4.65c0,0,1.63,3.83,5.46,3.25s4.53-2.56,7.43-3.37,18.12-5.46,22.41-8.94a38.59,38.59,0,0,1,12.66-7.32c5.81-2.21,16-5.32,16-5.32s55-16.36,70.95-22.07,22-10.91,28-13.42,41.86-17.27,53.45-22.85"/><path class="cls-5" d="M723.51,444.43s-3.83,3.41-4.53,4-5.57,3.72-7.78,2.21-1-4.24,1-5.81c1.62-1.26,2.44-1.86,2.44-1.86S733,427.4,735.47,426.44s8.71-6,8.71-6a24.8,24.8,0,0,1-5.34-.93,25.29,25.29,0,0,1-3.37,1.63c-7,2.9-9.29,0-9.29-2.09s3.6-3.68,4.53-4.88,3.6-4.5,6.62-4.5c9.17,0,14.17.55,16.84,1.75,1.7.76,16.84,7,16.84,7,2,0,18.18-5.67,18.18-5.67,26.67-11.45,63.33-30.47,86-41.44,24.9-12,40.41-15.43,56.67-24.26,12.61-6.85,11.61-18.4,30.2-22.71"/><path class="cls-5" d="M737.46,450.17s2.31-3.55,5.33-2.24,2,5.72,0,7.11"/><rect class="cls-19" x="702.99" y="420.15" width="52.03" height="24.04" rx="4.13" ry="4.13" transform="translate(120.89 -158.1) rotate(13.49)"/><polygon class="cls-3" points="743.57 447.95 749.16 424.72 713.53 416.1 707.95 439.33 743.57 447.95"/><circle class="cls-1" cx="750.12" cy="437.5" r="1.79" transform="translate(265.36 1157.98) rotate(-86.32)"/><path class="cls-9" d="M1042.43,351.79s18.77,9.14,30.06,12.24,31.73,16.57,37.76,18.42"/><path class="cls-9" d="M1110.25,376.52s3.25,15-6.5,36.27c0,0-13.94,21.43-19.51,27.17,0,0-12.54,7.69-13.7,14-.63,3.43.4,8,4.25,10"/><line class="cls-9" x1="1082.15" y1="471.19" x2="1086.56" y2="455.85"/><line class="cls-9" x1="1090.04" y1="474.2" x2="1094.92" y2="459.86"/><line class="cls-9" x1="1097.26" y1="474.67" x2="1101.42" y2="462.36"/><path class="cls-9" d="M1107.93,448.3s-7.37-7.31-17.36-7.08"/><path class="cls-9" d="M1074.25,452.6s1.39-.23,3,3.25"/><path class="cls-9" d="M1105.83,453.31a4.21,4.21,0,0,0-3.76-1.17,3.58,3.58,0,0,1-1.95.17,3.52,3.52,0,0,1-1-.73,4.24,4.24,0,0,0-2.42-1,8.94,8.94,0,0,1-2.17-.17,6.38,6.38,0,0,1-1.31-.76,6.81,6.81,0,0,0-5.06-.9"/><path class="cls-5" d="M776.88,433.05s3.54,5.06,0,10.11"/><line class="cls-5" x1="778.62" y1="425.06" x2="797.14" y2="420.25"/><path class="cls-5" d="M770.51,427.83a11.74,11.74,0,0,1-9.6,7.67"/><path class="cls-20" d="M907.6,726.1S926.3,743,939,736.89s7-14.34,10.67-17.32c0,0,9.52,8.72,11.7,19.5S946,753,936.79,760.46s-20.08,19.84-34.53,25-34.13,8.77-37.8.05,16.48-14.79,16.48-14.79,15.35-25.59,23.34-33.26C904.27,737.46,902.21,724.26,907.6,726.1Z"/><path class="cls-5" d="M866.73,778.16s.37,4.61,9,3.35,21.29.89,20,6.07"/><path class="cls-5" d="M916,738.57s10.78,12.27,26.05,3.11"/><line class="cls-5" x1="883.37" y1="766.75" x2="895.64" y2="769.55"/><line class="cls-5" x1="887.18" y1="760.71" x2="900.02" y2="763.7"/><line class="cls-5" x1="891.37" y1="754.32" x2="904.5" y2="757.5"/><line class="cls-5" x1="894.84" y1="749.26" x2="907.75" y2="752.13"/><line class="cls-5" x1="898.89" y1="743.72" x2="912.3" y2="745.64"/><line class="cls-5" x1="904.27" y1="737.46" x2="915.54" y2="739.82"/><path class="cls-5" d="M880.94,770.72s1,6.48,8.82,2.35c0,0,28.51-39.35,30.44-38.43"/><path class="cls-1" d="M1224.09,733.17a2.85,2.85,0,0,0,.65,3.8c7.53,5.83,39,23.64,44,30.62,5.91,8.19,5.83,3.61,5.83,3.61l11.12-32.63-9.41-3.94-34.66-24.43a2.86,2.86,0,0,0-3.54,1.09Z"/><line class="cls-14" x1="1246.4" y1="714.41" x2="1229.35" y2="740.56"/><path class="cls-9" d="M1018.27,366.2s-6.49,9.76-15.09,16.26"/><path class="cls-12" d="M1055,357.54s-.06,37-2.85,50.7,3.72,53.19,0,63.88c0,0-25.09,2.16-42.27,2.09-22.3-.1-49.71,6.27-49.71,6.27s-8.83-21.75-10.68-37.12-13-48.8-12.08-64.37,7.43-28.58,10.68-34.16,13.94-20.44,13.94-20.44.46,3.51,1.39,4.31-19,31.46-5.11,31.46,50.4-52.63,50.4-52.63l10.68-.93s-8.13,5.71-16.49,26.61-13.47,36.7-6.73,49.24,27.64,12.74,32.28,11.48S1055.09,382.79,1055,357.54Z"/><path class="cls-21" d="M1062.38,511.07s5.33,23.52,8,32.81,15.85,14.54,6.87,20.55c-19.93,13.36-59,22.88-59,22.88s-4.18,0-8.36-9Z"/><path class="cls-5" d="M1080,558.39s-13.83,12.09-65.18,27.13"/><path class="cls-5" d="M1066.82,556.43s3.37-3,3.55-12.54"/><path class="cls-21" d="M1054.1,473.45s-27.21-4.62-52.6-3.81-41.3,10.84-41.3,10.84,4.2,11.52,7.16,18.83c0,0-2.52,2.39-1.12,7.73l-4.18,2.59a37.74,37.74,0,0,1-9.76,5.69c-1.86.93-3.1,33.88,29.11,38.71,0,0-1.24,27,25.71,24.56s40-16.35,42.74-18.67,13.47-16.64,13.47-37.12c0-11.71-3.72-27-8.3-37.45C1054.27,477.38,1054.1,473.45,1054.1,473.45Z"/><path class="cls-9" d="M1055,485.34s-26.23-4.4-50.7-3.63S964.52,492,964.52,492l2.84,7.27"/><path class="cls-5" d="M981.41,554s28.49-2.92,38-28.6c4.18-11.27,6.77-29.67,4.89-43.35"/><path class="cls-5" d="M966.24,507a10.27,10.27,0,0,1,2.57-9.69"/><path class="cls-9" d="M954.46,514.36s-2.81,31.57,26,35.65c9.21,1.3,26.35-5.44,36.16-27,2.32-5.11,5.36-22.29,3.73-41.11"/><path class="cls-5" d="M984.34,553.55s.25,20.1,19.76,25.2"/><path class="cls-5" d="M981.41,503.86c-9.29-1.86-19.36,5.77-19.36,5.77"/><path class="cls-22" d="M1054.1,478.84s-26.23-4.4-50.7-3.63-39.81,10.32-39.81,10.32"/><path class="cls-23" d="M730.17,447.36s3.09-4,6.46-2.3.23,6.85.23,6.85-2.21,2.09-1.39,4.65"/><path class="cls-24" d="M721.07,447s4.5-5,7.43-3.77c4.76,2,1,6.68-1.28,8.65"/><path class="cls-23" d="M730.71,414.16c-.93,1.2-4.53,2.79-4.53,4.88s2.32,5,9.29,2.09a25.29,25.29,0,0,0,3.37-1.63"/><path class="cls-5" d="M1055,357.54"/><path class="cls-5" d="M959.28,305.1s1.18,15.27,4.53,23.45"/><path class="cls-5" d="M1078.09,451c-.34,2.38-4.07,15.74-4.07,15.74-.46,6.5,8.13,4.41,8.13,4.41,2.09,6.27,7.9,3,7.9,3,3,4.65,7.22.46,7.22.46,1.41.93,4.16,1.63,5.79,0s7.2-15.64,7.2-19.28c0-3.95,0-3.72-2.32-7.09,13.7-16.09,30.66-44.94,34.84-51.9s5.11-14.87,0-21.83-35.31-26-41.81-30.2-21.83-13.94-26-18.12c-24.94-24.88-65-19-65-19l-1.16.33-10.29-23.65"/><path class="cls-5" d="M965.92,332.25c-5-5.61-6.64-27.15-6.64-27.15"/><path class="cls-16" d="M1011.12,259.35c-.86,2.09-1.84,4.4-2.94,6.81l-.76,1.62c-.28.59-.56,1.18-.85,1.77s-.58,1.2-.89,1.8c-.92,1.84-1.9,3.7-2.93,5.54-.33.58-.66,1.16-1,1.74-.72,1.23-1.46,2.44-2.22,3.64-.35.54-.7,1.08-1.07,1.62q-1.29,1.94-2.67,3.77c-.28.38-.57.75-.86,1.11l-.43.54c-.33.42-.67.83-1,1.23s-.87,1-1.31,1.5c-.65.72-1.55,1.63-2.66,2.64-6.38,5.78-19.94,14.76-36.19,8.61-35.4-13.38-10.31-63.5-2.64-79.37L995.86,241c-.8,1.48-3,4-1.54,8.35C996.08,254.54,1005.38,256.76,1011.12,259.35Z"/><path class="cls-15" d="M1041.62,230.75c-1.75,5-7.12,5.91-9.87,6.9l-76.61-29c-2.17-5.12,1.61-11.49,6.26-14.82s12-4.45,17.55-3.77c16.09,2,24.82,16.46,34.28,17.7C1030.85,210.13,1045.33,220.17,1041.62,230.75Z"/><path class="cls-25" d="M1001.53,226.23l-43.88-16.59c2.82-1.48,6.26-.86,9.35-.08C978.27,212.44,990.9,221.52,1001.53,226.23Z"/><path class="cls-26" d="M950.69,223.92c-2.15,4.45-5.67,11.6-8.85,19.88-1.92-2.68-2.06-5.86-1.52-9.12a12.77,12.77,0,0,1,5.49-8.5c1.28-.85,2.76-1.5,3.7-2.71Z"/><path class="cls-5" d="M950.69,223.92c-7.67,15.86-32.77,66,2.63,79.37,19.1,7.22,34.47-6.42,38.86-11.25,8.45-9.31,15-23.1,18.94-32.69"/><path class="cls-27" d="M941.56,251.68c-5.26-1.46-13.53-5.21-15.18,0-2.18,6.9,8.94,8.4,14,9.35"/><path class="cls-3" d="M950.63,277.22c-.55,2.93.75,3.72,2,4.18,1.52.53,16.33,4.93,16.89,5a3.24,3.24,0,0,0,3.79-2.36C976.22,276.32,951.67,271.68,950.63,277.22Z"/><ellipse cx="953.45" cy="242.8" rx="3.6" ry="1.98" transform="matrix(0.35, -0.94, 0.94, 0.35, 389.23, 1048.81)"/><ellipse cx="971.99" cy="249.81" rx="3.6" ry="1.88" transform="translate(394.66 1070.69) rotate(-69.29)"/><path class="cls-5" d="M957.59,209.67c2.84-1.51,6.3-.9,9.41-.1,11.27,2.88,23.89,12,34.53,16.66,6.7,3,16,2.24,21.81,1"/><path class="cls-5" d="M955.15,208.75c-2.22-5.13,1.57-11.54,6.24-14.87s12-4.45,17.55-3.77c16.1,2,24.83,16.46,34.28,17.7,17.62,2.32,32.1,12.36,28.39,22.94-1.75,5-7.12,5.91-9.87,6.9"/><path class="cls-9" d="M995.86,241c-.8,1.49-3,4-1.54,8.35,1.78,5.28,11.39,7.49,17.09,10.14"/><rect class="cls-3" x="949.63" y="222.86" width="83.06" height="15.81" transform="translate(145.61 -335.54) rotate(20.71)"/><path class="cls-27" d="M1007.07,258.86c7.13-3.17,10.14,2.55,10.58,4.36,1.38,5.73-6.62,8.55-7.6,9.45-1.85,1.69-1,4.77-1.88,7.13a5.06,5.06,0,0,1-9.24.61"/><path class="cls-5" d="M1005.1,274.61a4.28,4.28,0,0,0-5.48,1.72"/><path class="cls-5" d="M1008,262.47c1.47-1.08,6.07-1,6.28,1.91.3,4-7.11,4.17-8.54,4.32"/><path class="cls-9" d="M979.28,242.8s4.12.37,2.31,7.44"/><path class="cls-9" d="M959.89,236.36s4.12.37,2.31,7.44"/><path class="cls-9" d="M965.92,252s6.36,0,11.36,3"/><path class="cls-9" d="M946,245s6.36,0,11.36,3"/><path class="cls-1" d="M1038.5,318.78s.9.08,2.47.25l2.85.42c1.09.2,2.33.38,3.66.7s2.77.64,4.28,1.07,3.09.91,4.71,1.48l2.45.9,2.48,1,2.48,1.12,2.46,1.2c1.63.84,3.22,1.73,4.77,2.65s3,1.9,4.43,2.87,2.73,2,4,2.92,2.38,1.84,3.45,2.63a34.77,34.77,0,0,0,5.42,3.4,23.37,23.37,0,0,0,2.23,1h0a.33.33,0,0,1-.18.64l-.65-.14a14.61,14.61,0,0,1-1.8-.51,30.19,30.19,0,0,1-6-2.92c-1.17-.71-2.41-1.53-3.68-2.41s-2.63-1.77-4-2.68-2.89-1.78-4.4-2.67-3.09-1.71-4.67-2.53l-2.38-1.19-2.4-1.11-2.38-1-2.35-1-2.3-.88-2.22-.8c-1.45-.48-2.83-1-4.11-1.34s-2.47-.73-3.51-1l-2.73-.72c-1.54-.36-2.41-.6-2.41-.6a.33.33,0,0,1,.11-.65Z"/><path class="cls-1" d="M1094,591.71s1.39,1.1,3.29,2.94c.94.92,2,2,3.14,3.24s2.27,2.54,3.41,3.88c2.27,2.68,4.46,5.43,6,7.56l1.85,2.6.67,1a.41.41,0,0,1-.65.51l-3-3.22-3-3.33-3.41-3.84-3.39-3.87c-1.07-1.25-2-2.42-2.87-3.44-1.64-2-2.69-3.47-2.69-3.47a.42.42,0,0,1,.59-.57Z"/><path class="cls-1" d="M912.4,538.49l-1.8.89c-1.15.56-2.76,1.38-4.71,2.36s-4.19,2.19-6.59,3.46-4.91,2.74-7.43,4.19-5,3-7.28,4.45-4.43,2.85-6.23,4.08c-3.62,2.43-6,4.14-6,4.14a.5.5,0,0,1-.61-.8l1.58-1.25c1-.79,2.45-1.92,4.22-3.21s3.88-2.76,6.15-4.29,4.78-3.06,7.29-4.56c1.27-.73,2.52-1.5,3.79-2.18s2.51-1.36,3.72-2,2.39-1.26,3.53-1.79,2.21-1.06,3.2-1.52c2-.93,3.69-1.64,4.86-2.13l1.86-.75a.5.5,0,0,1,.41.91Z"/><path class="cls-5" d="M1224.09,733.17a2.85,2.85,0,0,0,.65,3.8c7.53,5.83,39,23.64,44,30.62,5.91,8.19,5.83,3.61,5.83,3.61l11.12-32.63-9.41-3.94-34.66-24.43a2.86,2.86,0,0,0-3.54,1.09Z"/><path class="cls-3" d="M1300.35,731s6.5-1.47,10.56-.25-2.19,38-2.53,44.55-6.56,38-12.79,48.63c-5.89,10-8.83,20.93-17.89,13.72Z"/><path class="cls-20" d="M1300.35,731s-15.35-6-21.77-2.24,0,10.34.41,15.18-1.84,14-11.07,21.51-2.34,15.84-1.46,18.3,10.71,23.76,10.36,28.46-6.44,21.35.88,25.45c0,0,2.53-.37,5.62-7.54s8.83-20.93,8.59-27.87.67-32,2.43-40.57S1300.35,731,1300.35,731Z"/><path class="cls-5" d="M1274.22,831.21s6.72-11.18,12.44-9.17"/><path class="cls-5" d="M1269.36,778.82s9.33,17.43,12,28.87c0,0,1.33,4.26-4.5,4.53"/><line class="cls-5" x1="1271.97" y1="780.76" x2="1266.46" y2="783.76"/><line class="cls-5" x1="1268.37" y1="788.28" x2="1274.42" y2="784.28"/><line class="cls-5" x1="1270.14" y1="792.42" x2="1276.79" y2="787.91"/><line class="cls-5" x1="1272.1" y1="797.15" x2="1278.78" y2="792.94"/><line class="cls-5" x1="1273.87" y1="801.65" x2="1280.56" y2="797.36"/><line class="cls-5" x1="1275.46" y1="806.1" x2="1282.24" y2="801.89"/><path class="cls-5" d="M1278.58,728.77s11.09,8.71,5.34,26.41"/><path class="cls-5" d="M710.2,602.79s23.53,15.45,27.25,18.93c0,0,.94,7.67-5.22,6.62"/><path class="cls-5" d="M717.55,605.47s-6.15,3.38-5.32,8.65"/><path class="cls-5" d="M721.46,608.18s-6,3.9-5.12,8.6"/><path class="cls-5" d="M725.26,610.85a9.61,9.61,0,0,0-5.47,8.18"/><path class="cls-5" d="M729.94,614.18s-5.88,2.42-5,8.23"/><path class="cls-5" d="M732.55,616.09s-5.39,4.23-4.08,8.65"/><path class="cls-5" d="M735.59,618.39s-5.83,3.89-3.95,8.44"/></g></g></svg>