<svg xmlns="http://www.w3.org/2000/svg" viewBox="0 0 1525 935.81"><defs><style>.cls-1,.cls-16,.cls-28,.cls-7{fill:#fff;}.cls-2{opacity:0.2;}.cls-12,.cls-13,.cls-14,.cls-15,.cls-19,.cls-27,.cls-3,.cls-6{fill:none;}.cls-10,.cls-11,.cls-13,.cls-14,.cls-15,.cls-16,.cls-19,.cls-20,.cls-21,.cls-22,.cls-23,.cls-24,.cls-25,.cls-26,.cls-27,.cls-28,.cls-3,.cls-4,.cls-6,.cls-7{stroke:#000;}.cls-14,.cls-19,.cls-20,.cls-21,.cls-22,.cls-23,.cls-24,.cls-25,.cls-26,.cls-27,.cls-3,.cls-6{stroke-linecap:round;}.cls-24,.cls-25,.cls-26,.cls-27,.cls-3{stroke-linejoin:round;}.cls-3{stroke-width:2px;}.cls-4{fill:#0071bc;}.cls-10,.cls-11,.cls-12,.cls-13,.cls-14,.cls-15,.cls-16,.cls-19,.cls-20,.cls-21,.cls-22,.cls-23,.cls-28,.cls-4,.cls-6,.cls-7{stroke-miterlimit:10;}.cls-10,.cls-11,.cls-12,.cls-15,.cls-21,.cls-22,.cls-23,.cls-24,.cls-25,.cls-27,.cls-4,.cls-6,.cls-7{stroke-width:1.99px;}.cls-5{fill:#c69c6d;}.cls-8{fill:#333;}.cls-10,.cls-9{fill:#e6e6e6;}.cls-11{fill:#666;}.cls-12{stroke:red;}.cls-13{stroke-width:1.97px;}.cls-14{stroke-width:3.32px;stroke-dasharray:0 3.99;}.cls-16{stroke-width:2.66px;}.cls-17{fill:#ff7bac;}.cls-18{fill:#ffb8bb;}.cls-19,.cls-20{stroke-width:2.27px;}.cls-21{fill:#22a48e;}.cls-23,.cls-25,.cls-26{fill:#ccc;}.cls-26{stroke-width:2px;}.cls-28{stroke-width:2.06px;}.cls-29{font-size:36px;font-family:FaktPro-Normal, Fakt Pro;}.cls-30{letter-spacing:-0.02em;}.cls-31{letter-spacing:0.01em;}.cls-32{letter-spacing:-0.01em;}.cls-33{letter-spacing:0em;}.cls-34{letter-spacing:-0.02em;}.cls-35{letter-spacing:-0.02em;}</style></defs><title>hero-pencils</title><g id="Layer_2" data-name="Layer 2"><g id="hero-frames"><rect class="cls-1" width="1525" height="920"/></g><g id="heros"><g class="cls-2"><path class="cls-3" d="M1181.78,780.6C1021.72,723.91-51.34,459.11,6.8,382.91c21.5-28.18,219.6-34.34,250-36"/></g><rect class="cls-4" x="348.74" y="543.3" width="11.96" height="224.85" transform="matrix(0.99, -0.14, 0.14, 0.99, -86.29, 54.63)"/><path class="cls-1" d="M356.23,648.91s-.15-.63-.38-1.73-.57-2.67-.89-4.57-.75-4.11-1.08-6.49l-1.06-7.46-.85-7.49c-.28-2.39-.41-4.63-.59-6.55s-.22-3.53-.3-4.65-.07-1.77-.07-1.77h.09l2.66,20.35,2.56,20.36Z"/><path class="cls-5" d="M572.32,474.57l13.29,1c1.46-2.54.31-5.94-1.85-7.92s-5.07-2.89-7.88-3.72c-9.11-2.7-18.72-5.53-25.3-12.39-3.43-3.58-5.8-8-8.46-12.19a92.23,92.23,0,0,0-30.9-29.79c-4.15-17.81-20.34-32.09-26.76-49.21-3.09-8.25-4-17.13-6.14-25.68s-5.74-17.23-12.74-22.59H449.89l-5.65,42.67,23.69,38.41s3.36,11.32,9.17,17.73,7.64,13.74,9.47,16.79,7.64,15.27,28.11,24.75,22.3,14.7,30.24,18.51c0,0,1.85,7.8,9.17,10.42,10.2,3.65,9.07,10.26,13.55,11.9l5.36-4.81a71.65,71.65,0,0,1-6.2-9.82C567.29,473.81,572.32,474.57,572.32,474.57Z"/><path class="cls-6" d="M465.57,312.07c7,5.36,10.62,14,12.74,22.58s3,17.44,6.14,25.69c6.42,17.12,22.61,31.4,26.76,49.2"/><path class="cls-6" d="M511.22,409.55a92.31,92.31,0,0,1,30.9,29.79c2.67,4.18,5,8.62,8.46,12.2,6.58,6.86,16.19,9.69,25.3,12.39,2.81.83,5.72,1.74,7.88,3.72s3.31,5.39,1.85,7.93"/><path class="cls-6" d="M467.94,393.15s3.36,11.32,9.17,17.73,7.64,13.74,9.47,16.79,7.64,15.28,28.11,24.75,22.3,14.7,30.25,18.5"/><path class="cls-6" d="M544.92,464s-.61,12.63,9.17,17.31,9.07,10.26,13.55,11.9l5.36-4.81s-7.67-11.21-9.65-18.88"/><path class="cls-6" d="M572.32,474.57s-5-1.62-4.14,5.42"/><path class="cls-4" d="M526.33,768.83c-9.57-20.17-18.87-53.1-27.63-97.88-6.5-33.21-10.27-60.94-10.3-61.21l8.56-.55c.15,1.09,15,109.24,37.18,155.94Z"/><path class="cls-7" d="M532,768.21l-.29-2.09a2.93,2.93,0,0,1,2.49-3.31l5-.7a4,4,0,1,1,1.11,7.9l-5,.7A2.93,2.93,0,0,1,532,768.21Z"/><circle class="cls-7" cx="534.75" cy="767.23" r="6.23"/><path class="cls-5" d="M405.65,494.11C429.5,522.66,440.07,543,442,553.56c1.33,7.15,2.23,11.39,2.3,18.66.12,13.33-.58,13.71-4.39,26.48h0c4.09,20.44,1.5,45.27-2,65.81s-8.59,40.85-10.59,61.6L405,724c2-12.28,2.53-30.2.19-42.42-1.23-6.41-3-12.71-4.06-19.16-2.11-13.32-.78-27,1.48-40.25,1-6,2.23-12.2.82-18.13-.6-2.55-1.68-5-2.38-7.48a55.08,55.08,0,0,1-1.57-18l-14-19.73c-5.63-8-36.93-34.36-40-43.62Z"/><path d="M344.67,515.78c8.23,11.49,18,21.61,28.14,31.37,3.44,3.3,7,6.52,10.14,10.13,4.8,5.56,8.74,12.06,13,18.05,2.8,4,2.23,7.74,2.6,12.35a48.56,48.56,0,0,0,2,10.67c1.27,4,2.55,7.7,2.51,12-.05,5.17-1.25,10.28-2,15.37-2.48,16.13-2.37,31.52,1.29,47.43A132.84,132.84,0,0,1,404,723.76c-.19,1.26,1.73,1.8,1.92.53,2-13.18,2.64-27,.65-40.25-1.34-8.87-4.19-17.41-5.09-26.36a118.75,118.75,0,0,1,.91-27.72c1.07-7.89,3.57-16.25,2.33-24.24-.55-3.55-2.07-6.81-3-10.27a51.82,51.82,0,0,1-1.43-14.12c.09-3.94-1.44-5.2-3.79-8.51l-8.06-11.38a75.37,75.37,0,0,0-8.77-10.35c-11.78-11.6-23.68-22.79-33.36-36.3-.74-1-2.47,0-1.72,1Z"/><path d="M436.9,612c4-13.23,8.67-26.61,8.42-40.61a75.94,75.94,0,0,0-4.51-25.41c-7.47-19.45-21.29-36.69-34.46-52.53-.82-1-2.23.43-1.41,1.41,12.91,15.53,26.62,32.56,34,51.65a74,74,0,0,1,4.42,24c.41,14.14-4.33,27.6-8.34,41a1,1,0,0,0,1.92.53Z"/><path d="M439,599c8.14,42.67-8.43,85-12.66,127.14-.13,1.28,1.87,1.27,2,0,4.25-42.34,20.78-84.74,12.59-127.67-.24-1.26-2.16-.73-1.92.53Z"/><path d="M412.87,616.78a19.55,19.55,0,0,0,6.23,5.8,1,1,0,0,0,1-1.72,17.25,17.25,0,0,1-5.51-5.08c-.73-1-2.46-.05-1.72,1Z"/><path d="M413.47,628.64a226.52,226.52,0,0,1-2.39,47.87c-.2,1.26,1.72,1.8,1.92.53a229.35,229.35,0,0,0,2.46-48.4c-.07-1.28-2.06-1.28-2,0Z"/><path class="cls-1" d="M432.62,738.73c-1.68-1.6-2.68-5.19-3.57-6.71-.49-.84-.25-1.4-.2-2.36a15.39,15.39,0,0,0-.41-1.91c-.2-1.13-2-.87-3.1-.87a77.83,77.83,0,0,1-21-2.85,165.59,165.59,0,0,1-4.71,16.86l1.73,4.53,10.87,1Z"/><path d="M433.32,738c-2.48-3-2.55-6.14-3.68-9.59-.5-1.5-.62-2-2.13-2.51-2.66-.85-6.42-.11-9.2-.36a78.31,78.31,0,0,1-13.71-2.51,1,1,0,0,0-1.23.7c-.65,3.29-1.59,6.53-2.53,9.75-.66,2.28-2.34,5.41-2.14,7.74.12,1.4,1.19,3.11,1.69,4.44a1.05,1.05,0,0,0,1,.73c4.76.44,9.32,1.65,13.82,0l17.7-6.67c1.19-.45.67-2.38-.53-1.92L415,744.32c-2.24.84-2.8,1.1-5,.89l-5.5-.51a21.07,21.07,0,0,0-2.21-.2c-1.46,0,0,.39-.11.2a9.2,9.2,0,0,1-1.24-4.6c.23-2.86,2-6.37,2.75-9.18.45-1.62.69-3.42,1.28-5,.89-2.39-.42-.62.8-.49,3,.34,6,1.33,9,1.72,3.34.44,7.4-.08,10.6.71,3,.74,2.06,2.19,2.85,4.65a21.62,21.62,0,0,0,3.72,6.91C432.74,740.43,434.14,739,433.32,738Z"/><path class="cls-8" d="M399.63,740.88c-.92,2.86-6.14,6.11-7.19,16.5S394,770.1,396.49,772l21,1.25a40.46,40.46,0,0,1,8.44,1.1c2.08.58,4.05,1.48,6.12,2.11,6.9,2.1,14.31,1,21.43-.13l8.37-1.32a25.91,25.91,0,0,0,7.75-2.07,8.76,8.76,0,0,0,4.93-6c.54-3.23-1.49-6.46-4.2-8.32s-6-2.64-9.16-3.43c-7.21-1.79-14.66-4-20.11-9-2.08-1.93-4.2-3.77-6.34-5.63s-3-3.39-8.74-3.09c-1.85.1-3.74,1.15-5.53,1.64-2.27.61-4.21,2.08-6.36,3A15.1,15.1,0,0,1,400,741Z"/><path d="M398.67,740.62c-.75,1.9-2.37,3.46-3.44,5.18a25.24,25.24,0,0,0-3.25,8.1c-1,4.88-1.77,11.65,1.16,16.09,3.22,4.87,9.65,3.38,14.81,3.69,4.82.29,9.73.33,14.51,1,4.52.66,8.57,2.86,13.08,3.55,8.74,1.33,18-.86,26.57-2.29,5.29-.88,12.5-2.64,13.41-9,.93-6.56-5.6-10.29-10.9-11.88-3.88-1.16-7.84-1.91-11.66-3.27-5.43-1.93-9.43-4.79-13.71-8.61-4.48-4-7.75-7.74-14.24-6.58-4.15.74-7.57,3-11.37,4.56-5.26,2.2-8.81.46-13.74-1.24-1.22-.42-1.74,1.51-.53,1.92,4.52,1.56,7.89,3.3,12.89,1.95,6-1.61,12.43-7.8,18.95-4.71,5,2.36,8.43,7.83,13.1,10.82,5.27,3.37,11.41,4.92,17.39,6.45,4.18,1.07,9.54,2.48,11.24,7,2.53,6.69-4.63,9.52-9.76,10.48-7.77,1.44-16.17,3.25-24.09,2.83-7.16-.38-13.54-3.82-20.75-4.3-3.78-.25-7.57-.45-11.35-.68-3-.18-8.15.49-10.66-1-5.1-3.09-3.23-13.87-1.9-18.24s4.56-7.18,6.16-11.21C401.06,740,399.14,739.43,398.67,740.62Z"/><path d="M422.17,739.83c3.37.18,5.29,3.87,7.31,6a26.53,26.53,0,0,0,5.47,4.54c4.58,2.78,9.71,2.93,14.93,2.84a1,1,0,0,0,0-2c-7.93.13-14-1.3-19.5-7.37-2.46-2.73-4.25-5.81-8.21-6-1.28-.07-1.28,1.93,0,2Z"/><path d="M432.81,771.23c-1.7-10.84,12.42-10.21,19.07-9.35,3.83.49,7.71,1.28,11.56.6,1.26-.22.73-2.15-.53-1.92-7.55,1.34-15.16-2.49-22.79-.81-5.76,1.27-10.19,5.94-9.24,12,.2,1.26,2.12.73,1.92-.53Z"/><path d="M395.78,745.68c.55,2.92,6,4.21,8.42,4.61a18.53,18.53,0,0,0,11.56-1.94c1.14-.58.14-2.31-1-1.72a16.38,16.38,0,0,1-8.62,1.87c-1.72-.11-8-1.06-8.43-3.35-.24-1.26-2.16-.73-1.92.53Z"/><path class="cls-9" d="M423.7,775.31a36.39,36.39,0,0,0,0,7.17,1.89,1.89,0,0,0,.51,1.22c.34.28.83.22,1.28.28,4.79.64,14.74,1.08,14.74,1.08s11.12-.85,19.66-1.24a1.17,1.17,0,0,0,1.33-1.34,49.29,49.29,0,0,0,.28-7.48Z"/><path d="M422.7,775.31c-.22,4.68-1.48,9.09,3.8,9.79a96.49,96.49,0,0,0,13.77,1c5.49-.09,11-.79,16.5-1.08,1.46-.08,3.68.29,4.83-.86,1.8-1.79.92-6.91.88-9.11a1,1,0,0,0-1-1l-37.78.31a1,1,0,0,0,0,2L459,776c.35,0,1.95-.26,2.23,0,.78.69-.81-3.79-.66.87.07,2.25.37,4.79-2.18,6-2.13,1-6.94.39-9.37.55s-4.72.36-7.08.49a60.13,60.13,0,0,1-7.25-.18c-2.22-.14-5.46.14-7.57-.59-1.72-.6-2.21-.43-2.54-2.74a28.55,28.55,0,0,1,.17-5.11C424.76,774,422.76,774,422.7,775.31Z"/><path d="M439.91,777.65a37.11,37.11,0,0,1-.65,7.14,1,1,0,0,0,1.92.53,39.86,39.86,0,0,0,.72-7.67c.07-1.28-1.92-1.28-2,0Z"/><path d="M437.94,750.53c.53-2.42,3.57-1.72,5.25-1.23a1,1,0,0,0,.53-1.92c-2.78-.8-6.92-1-7.71,2.63-.27,1.25,1.65,1.79,1.92.53Z"/><path d="M434,748.27a4.84,4.84,0,0,1,5.16-2.07c1.25.29,1.78-1.63.53-1.92a6.9,6.9,0,0,0-7.41,3c-.7,1.08,1,2.08,1.72,1Z"/><path d="M430.2,744.29c.12-1.82,4.85-1.5,5.94-1.43,1.28.08,1.28-1.91,0-2-2.59-.17-7.7-.14-7.94,3.42-.08,1.28,1.91,1.28,2,0Z"/><path d="M427.4,741.19c1-1.35,3.12-2.41,4.72-1.6,1.14.58,2.15-1.14,1-1.72-2.63-1.34-5.84,0-7.45,2.31-.74,1.05,1,2,1.72,1Z"/><path d="M405.38,732.36c3.06,1,6.5.85,9.69,1,1.28.07,1.28-1.93,0-2-3-.16-6.27,0-9.16-1-1.22-.4-1.75,1.52-.53,1.92Z"/><path d="M404.66,737a28.41,28.41,0,0,0,7.16.49c1.28-.08,1.28-2.07,0-2a26.28,26.28,0,0,1-6.63-.42c-1.25-.24-1.79,1.68-.53,1.92Z"/><path class="cls-7" d="M428.43,781.6l-50.77-17.11-1-5.65,53.51,17a3,3,0,0,1,2.2,3.05h0A3,3,0,0,1,428.43,781.6Z"/><path d="M414.26,707a6.55,6.55,0,0,1,.66,3.86,3.86,3.86,0,0,1-1.7,2.46c-1,.82.43,2.23,1.41,1.41a5.49,5.49,0,0,0,2.26-3.56A9,9,0,0,0,416,706c-.58-1.15-2.3-.14-1.72,1Z"/><path d="M420.33,757.15a12,12,0,0,0-2.64,11,1,1,0,0,0,1.92-.53,9.93,9.93,0,0,1,2.13-9c.84-1-.57-2.38-1.41-1.41Z"/><path d="M415.92,742.39c3.71,4.64,7.41,10.56,13.09,13,3.84,1.63,9,1.25,9.51-3.65.14-1.27-1.86-1.26-2,0-.54,4.93-7.07,1.84-8.85.66a21.78,21.78,0,0,1-3.93-3.54c-2.28-2.49-4.31-5.21-6.42-7.85-.8-1-2.2.42-1.41,1.41Z"/><path d="M420.84,570.07a40.37,40.37,0,0,1,6-8.71c.86-1-.55-2.36-1.41-1.41a42.37,42.37,0,0,0-6.3,9.11c-.58,1.14,1.14,2.15,1.72,1Z"/><path class="cls-10" d="M298.42,591.3a30.67,30.67,0,0,0-6.4-1.62c-27.59-3.85-50.27,31-54.78,91.48-3.84,51.5,8.67,98.14,31.65,113.94-27.78-9.93-43.53-60.93-39.29-117.89,4.51-60.47,27.19-95.33,54.78-91.48A33.14,33.14,0,0,1,298.42,591.3Z"/><path class="cls-11" d="M285.82,572.87c-45.77-6.39-66.42,57.89-68.58,115.19-2,53.79,13.27,117.78,58.63,124.11C310.7,817,339.28,773,343.62,712.07,347.51,657.45,336.21,579.9,285.82,572.87Zm43.54,141.92c-2.92,41.68-22.65,86.15-54.49,81.78a29.81,29.81,0,0,1-6-1.46h0c-27.78-9.93-43.53-60.93-39.29-117.89,4.51-60.47,27.19-95.33,54.78-91.48a33.14,33.14,0,0,1,14,5.57C317.89,604.48,334.51,641.27,329.36,714.78Z"/><path class="cls-10" d="M521.62,900.27a38.32,38.32,0,0,1-5.6.11c-39.87-2.12-68.41-69.49-69-148.08-.58-78,24.27-125.14,59.22-123.2a37.34,37.34,0,0,1,5.56.74c-32,3.13-54.18,49.31-53.64,123.08C458.73,827.81,484.68,892.52,521.62,900.27Z"/><rect class="cls-4" x="313.17" y="669.68" width="5.98" height="106.41" transform="translate(-469.9 790.85) rotate(-71.32)"/><polygon class="cls-4" points="268.49 707.08 263.04 704.6 339.48 537.6 344.92 540.08 268.49 707.08"/><polygon class="cls-4" points="471.86 569.66 334.07 546.15 336.37 533.06 474.16 556.57 471.86 569.66"/><rect class="cls-4" x="315.91" y="664.78" width="213.22" height="13.29" transform="translate(-369.89 709.03) rotate(-60.53)"/><rect class="cls-4" x="466.27" y="535.94" width="13.29" height="62.52" transform="matrix(0.99, -0.14, 0.14, 0.99, -75.84, 73.01)"/><path class="cls-12" d="M366.57,739.92"/><line class="cls-12" x1="513.69" y1="934.81" x2="513.68" y2="934.81"/><path class="cls-7" d="M532.55,772.69l-36.09,5.14L495,767.74l36.09-5.14a5.1,5.1,0,0,1,5.78,4.31h0A5.1,5.1,0,0,1,532.55,772.69Z"/><ellipse class="cls-12" cx="357.85" cy="765.65" rx="2.01" ry="2.66"/><path class="cls-13" d="M366.77,801.77C344.92,800.21,258,730.2,255.71,707.49c-1.22-12.11,2.86-24,12-24,8.46,0,104.64,36.29,104.64,36.29"/><path class="cls-12" d="M277.54,798.15l.64,0"/><path class="cls-14" d="M395.61,760.56c0,22.76-12.2,41.21-27.25,41.21-.53,0-1.05,0-1.57-.07v.07c-18-1.28-80.09-49-102.74-78.45a49.4,49.4,0,0,1-8.32-15.83c-2.17-7.11.33-13.77,3.06-18.37h0a13,13,0,0,1,6.69-5.34l.09,0a9.64,9.64,0,0,1,2.17-.24,24.79,24.79,0,0,1,5,1c21.58,5.83,98.29,34.76,99.62,35.26h0C385.52,722.73,395.61,739.86,395.61,760.56Z"/><path class="cls-9" d="M396.27,760.55c0,1.31-1.37,2.56-1.45,3.84s1.12,2.72,1,4-1.68,2.37-1.92,3.63.76,2.85.43,4.08-2,2.12-2.4,3.33.34,2.93-.17,4.1-2.29,1.79-2.9,2.9-.17,3-.88,4-2.58,1.32-3.4,2.29-.81,2.86-1.74,3.71-2.81.64-3.87,1.34-1.6,2.51-2.77,3-2.83-.34-4.09-.07-2.4,1.72-3.71,1.72-2.45-1.45-3.71-1.72-2.89.59-4.09.07-1.67-2.29-2.77-3-2.89-.45-3.87-1.34-.88-2.7-1.74-3.71-2.66-1.19-3.4-2.29-.25-2.85-.88-4-2.37-1.69-2.9-2.9.26-2.85-.17-4.1-2.07-2.05-2.4-3.32.68-2.79.43-4.08-1.76-2.32-1.92-3.62,1-2.68,1-4-1.45-2.53-1.45-3.84,1.37-2.56,1.45-3.84-1.12-2.72-1-4,1.68-2.37,1.92-3.63-.76-2.85-.43-4.08,2-2.12,2.4-3.33-.34-2.93.17-4.1,2.29-1.79,2.9-2.9.17-3,.88-4,2.58-1.32,3.4-2.29.81-2.86,1.74-3.71,2.81-.64,3.87-1.34,1.6-2.51,2.77-3,2.83.34,4.09.07,2.4-1.72,3.71-1.72,2.45,1.45,3.71,1.72,2.89-.59,4.09-.07,1.67,2.29,2.77,3,2.89.45,3.87,1.34.88,2.7,1.74,3.71,2.66,1.19,3.4,2.29.25,2.85.88,4,2.37,1.69,2.9,2.9-.26,2.85.17,4.1,2.07,2.05,2.4,3.32-.68,2.79-.43,4.08,1.76,2.32,1.92,3.62-1,2.68-1,4S396.27,759.24,396.27,760.55Z"/><path class="cls-15" d="M396.27,760.55c0,1.31-1.37,2.56-1.45,3.84s1.12,2.72,1,4-1.68,2.37-1.92,3.63.76,2.85.43,4.08-2,2.12-2.4,3.33.34,2.93-.17,4.1-2.29,1.79-2.9,2.9-.17,3-.88,4-2.58,1.32-3.4,2.29-.81,2.86-1.74,3.71-2.81.64-3.87,1.34-1.6,2.51-2.77,3-2.83-.34-4.09-.07-2.4,1.72-3.71,1.72-2.45-1.45-3.71-1.72-2.89.59-4.09.07-1.67-2.29-2.77-3-2.89-.45-3.87-1.34-.88-2.7-1.74-3.71-2.66-1.19-3.4-2.29-.25-2.85-.88-4-2.37-1.69-2.9-2.9.26-2.85-.17-4.1-2.07-2.05-2.4-3.32.68-2.79.43-4.08-1.76-2.32-1.92-3.62,1-2.68,1-4-1.45-2.53-1.45-3.84,1.37-2.56,1.45-3.84-1.12-2.72-1-4,1.68-2.37,1.92-3.63-.76-2.85-.43-4.08,2-2.12,2.4-3.33-.34-2.93.17-4.1,2.29-1.79,2.9-2.9.17-3,.88-4,2.58-1.32,3.4-2.29.81-2.86,1.74-3.71,2.81-.64,3.87-1.34,1.6-2.51,2.77-3,2.83.34,4.09.07,2.4-1.72,3.71-1.72,2.45,1.45,3.71,1.72,2.89-.59,4.09-.07,1.67,2.29,2.77,3,2.89.45,3.87,1.34.88,2.7,1.74,3.71,2.66,1.19,3.4,2.29.25,2.85.88,4,2.37,1.69,2.9,2.9-.26,2.85.17,4.1,2.07,2.05,2.4,3.32-.68,2.79-.43,4.08,1.76,2.32,1.92,3.62-1,2.68-1,4S396.27,759.24,396.27,760.55Z"/><circle class="cls-16" cx="264.77" cy="704.5" r="6.23"/><path class="cls-9" d="M282.08,703.83c0,.65-.68,1.27-.72,1.91s.56,1.35.48,2-.83,1.18-1,1.8.38,1.42.21,2-1,1.05-1.19,1.65.17,1.46-.09,2-1.14.89-1.44,1.44-.08,1.47-.44,2-1.28.66-1.69,1.14-.4,1.42-.87,1.84-1.4.32-1.92.67-.8,1.25-1.38,1.5-1.41-.17-2,0-1.19.86-1.84.86-1.22-.72-1.85-.86-1.44.29-2,0-.83-1.14-1.38-1.5-1.44-.22-1.92-.67-.44-1.34-.87-1.84-1.32-.59-1.69-1.14-.12-1.41-.44-2-1.18-.84-1.44-1.44.13-1.42-.09-2-1-1-1.19-1.65.34-1.39.21-2-.87-1.16-1-1.8.52-1.33.48-2-.72-1.26-.72-1.91.68-1.27.72-1.91-.56-1.35-.48-2,.83-1.18,1-1.8-.38-1.42-.21-2,1-1.05,1.19-1.65-.17-1.46.09-2,1.14-.89,1.44-1.44.08-1.47.44-2,1.28-.66,1.69-1.14.4-1.42.87-1.84,1.4-.32,1.92-.67.8-1.25,1.38-1.5,1.41.17,2,0,1.19-.86,1.84-.86,1.22.72,1.85.86,1.44-.29,2,0,.83,1.14,1.38,1.5,1.44.22,1.92.67.44,1.34.87,1.84,1.32.59,1.69,1.14.12,1.41.44,2,1.18.84,1.44,1.44-.13,1.42.09,2,1,1,1.19,1.65-.34,1.39-.21,2,.87,1.16,1,1.8-.52,1.33-.48,2S282.08,703.18,282.08,703.83Z"/><path class="cls-15" d="M282.08,703.83c0,.65-.68,1.27-.72,1.91s.56,1.35.48,2-.83,1.18-1,1.8.38,1.42.21,2-1,1.05-1.19,1.65.17,1.46-.09,2-1.14.89-1.44,1.44-.08,1.47-.44,2-1.28.66-1.69,1.14-.4,1.42-.87,1.84-1.4.32-1.92.67-.8,1.25-1.38,1.5-1.41-.17-2,0-1.19.86-1.84.86-1.22-.72-1.85-.86-1.44.29-2,0-.83-1.14-1.38-1.5-1.44-.22-1.92-.67-.44-1.34-.87-1.84-1.32-.59-1.69-1.14-.12-1.41-.44-2-1.18-.84-1.44-1.44.13-1.42-.09-2-1-1-1.19-1.65.34-1.39.21-2-.87-1.16-1-1.8.52-1.33.48-2-.72-1.26-.72-1.91.68-1.27.72-1.91-.56-1.35-.48-2,.83-1.18,1-1.8-.38-1.42-.21-2,1-1.05,1.19-1.65-.17-1.46.09-2,1.14-.89,1.44-1.44.08-1.47.44-2,1.28-.66,1.69-1.14.4-1.42.87-1.84,1.4-.32,1.92-.67.8-1.25,1.38-1.5,1.41.17,2,0,1.19-.86,1.84-.86,1.22.72,1.85.86,1.44-.29,2,0,.83,1.14,1.38,1.5,1.44.22,1.92.67.44,1.34.87,1.84,1.32.59,1.69,1.14.12,1.41.44,2,1.18.84,1.44,1.44-.13,1.42.09,2,1,1,1.19,1.65-.34,1.39-.21,2,.87,1.16,1,1.8-.52,1.33-.48,2S282.08,703.18,282.08,703.83Z"/><path class="cls-16" d="M256.25,706.68l-.29-2.09a2.93,2.93,0,0,1,2.49-3.31l5-.7a4,4,0,1,1,1.11,7.9l-5,.7A2.93,2.93,0,0,1,256.25,706.68Z"/><path class="cls-16" d="M262.19,709.21a3.32,3.32,0,0,1-3.32,3.32h-5.49c-4,0-4.15,6-.16,6.14h.67C263,718.68,262.19,709.21,262.19,709.21Z"/><path class="cls-16" d="M259.53,700.92a6.52,6.52,0,0,1,1.11,7.9"/><path class="cls-17" d="M355.52,502.15c-26.79,13.36-34.59,6.19-42.43,4-7-2-16-12.17-18.89-14L344.32,494l10.4,2.46Z"/><path d="M355,501.29c-11.11,5.44-23.38,10.18-35.64,6-3.71-1.26-7.72-2.47-11-4.6-5-3.27-8.77-8.05-13.68-11.4-1.06-.72-2.06,1-1,1.72,5.43,3.7,9.47,9.11,15.28,12.37a58.55,58.55,0,0,0,11.09,4.23c12.32,3.81,24.93-1.23,36-6.63,1.15-.56.14-2.28-1-1.72Z"/><path class="cls-11" d="M594.78,781.43c-.73-69.3-22.51-165.91-85.34-169.41a53.42,53.42,0,0,0-9.28.27h-.05a48.6,48.6,0,0,0-7.86,1.6l-.58.17h0c-43.27,13.31-57.9,86.18-55.12,150.56,2.94,68.07,28.28,147.14,84.85,150.28C564.81,917.35,595.59,858.7,594.78,781.43Zm-73.16,118a38.12,38.12,0,0,1-5.6.11c-39.87-2.11-68.41-69.49-69-148.08-.58-78,24.26-125.14,59.22-123.2a36.69,36.69,0,0,1,5.56.73c29.71,6.19,62.77,49.54,64.07,159.8C576.48,840,558.23,896.09,521.62,899.44Z"/><path class="cls-4" d="M489.61,773.66c-24-52-29.29-152.44-29.5-156.69l8.63-.43c0,.26,1.34,26.06,5.56,57.82,5.55,41.8,13.56,74.88,23.16,95.68Z"/><path class="cls-4" d="M498.11,612.3a48.6,48.6,0,0,0-7.86,1.6l-.58.17a7.15,7.15,0,0,0-5.7-2c-6.61.43-11,3.34-14.8,6.95-1.6,1.49-4.43.66-6.93.78-1.22.06-2.37,0-2.37-1.21l-.45-6.89c0-3.76,0-6.23,3.16-8.27a40,40,0,0,1,16.35-5.25,32.85,32.85,0,0,1,10.3.81c4.89,1.24,8.55,2.65,8.55,7.7Z"/><path class="cls-7" d="M486.64,598.46l-16.34,2.45c-1,.16-1.36-.64-1.55-1.77a2,2,0,0,1,1.46-2.34l14.58-2.39a2,2,0,0,1,2.13,1.75C487.12,597.29,487.63,598.3,486.64,598.46Z"/><path d="M469,619.36c0-3-.62-5.86-.66-8.81a1,1,0,0,0-2,0c0,3,.62,5.86.66,8.81a1,1,0,0,0,2,0Z"/><path d="M468.24,607.55c.16-3,4-5.54,6.68-6,1.26-.22.73-2.14-.53-1.92-3.62.63-7.95,4-8.15,7.93-.07,1.28,1.93,1.28,2,0Z"/><path class="cls-18" d="M373.54,232.07s-30-4.77-39.83,32.27c0,0-23.57-6.73-32,6.17a40.38,40.38,0,0,0-28.9,31.15s-22.45,15.43-21,45.46c0,0-16.28,18.8-6.73,49.11,0,0-14,37.6,4.21,62.29,0,0-1.12,25,29.18,34.23,0,0,13.19,17.4,34,15.71,0,0,32.27,17.12,55,6.45,0,0,28.06,3.37,37-10.1,0,0,7,2,16.9-2.18,8.52-3.56,16.61-16.34,19.3-25.88,0,0,9.26-6.73,13.47-12.07,0,0,24.69-1.58,32.27-35.92,0,0,19.36-16,18.8-34,0,0,23.85-26.38,13.75-60.89,0,0,8.42-27.5-9.82-52.19,0,0-1.12-30.59-24.13-39.28a26.24,26.24,0,0,0-22.73-19.92s-28.06-29.18-56.12-5.05c0,0-9.54,3.37-7.58,11.22C398.53,228.71,384.75,224.78,373.54,232.07Z"/><path class="cls-19" d="M373.54,232.07s-30-4.77-39.83,32.27c0,0-23.57-6.73-32,6.17a40.38,40.38,0,0,0-28.9,31.15s-22.45,15.43-21,45.46c0,0-16.28,18.8-6.73,49.11,0,0-14,37.6,4.21,62.29,0,0-1.12,25,29.18,34.23,0,0,13.19,17.4,34,15.71,0,0,32.27,17.12,55,6.45,0,0,28.06,3.37,37-10.1a27.81,27.81,0,0,0,16.9-2.18c12.89-6.35,16.45-15.78,19.3-25.88,0,0,9.26-6.73,13.47-12.07,0,0,24.83-1.39,32.27-35.92,0,0,19.36-16,18.8-34,0,0,23.85-26.38,13.75-60.89,0,0,8.42-27.5-9.82-52.19,0,0-1.12-30.59-24.13-39.28a26.24,26.24,0,0,0-22.73-19.92s-28.06-29.18-56.12-5.05c0,0-9.54,3.37-7.58,11.22C398.53,228.71,384.75,224.78,373.54,232.07Z"/><path class="cls-19" d="M256.09,412.37s10.29,21.44.65,39.28"/><path class="cls-19" d="M373.54,232.07a49.35,49.35,0,0,0-7,5.61c-8.38,8.83-7.52,23.44,4.74,32.41"/><path class="cls-19" d="M322.78,285.47c5,36.16-38.23,22.61-40.81,49.28-2.89,29.87,37.18,15.46,66.2,38.35"/><path class="cls-19" d="M310.7,377.15s4.93,13.47-6.24,13.33"/><path class="cls-19" d="M288.38,435.28c-22.12,31,14.16,54,38.77,45.26"/><path class="cls-19" d="M301.72,270.52c11.22-1.82,18.07,8.14,18.07,8.14"/><path class="cls-19" d="M348.17,270.1s-32,29.53-11.08,55.7"/><path class="cls-19" d="M398.53,228.71s11.5,2,22.73,13.75c0,0,27.78,13.75,34.51,43.21,0,0,17.4,14.31,16,41.53,0,0,10.38,14,7.3,30.13A44,44,0,0,1,478.5,390s2,17.21-6.73,26.47c0,0,.56,14.59-7.58,22.17,0,0,4.81,10.65-10.1,26.1"/><path class="cls-19" d="M424.62,264.34s23.42,18.89,23.29,37.32c-.15,19.76-5.89,24.13-10.66,29.18-15.72,16.65-47.39,3.9-60.18-6.73"/><path class="cls-19" d="M408.76,245c-19.91,24.51,27.33,43.57,18.62,63.38"/><path class="cls-19" d="M405.54,356c-7.22-4.21-20.63-9.95-28-8.86-15,2.22-14.07,18.18-14.07,18.18"/><path class="cls-19" d="M394.34,388.17s-19.22-.72-28.93-14.25"/><path class="cls-19" d="M389.54,410c-25.25-3.71-32.65-19.43-32.65-19.43"/><path class="cls-19" d="M310.7,387.53s45,21.35,53.31-9.82c2.74-10.27-2.59-22.5-15.39-30.94-21.26-14-42.31-12-42.31-12"/><path class="cls-19" d="M416.49,338.87s15.22,22.7-.57,32.59c-11.78,7.38-31.39-6.61-31.39-6.61"/><path class="cls-19" d="M406.3,422.3c-18.52,15.36-49.86,3.78-68.53-18.43"/><path class="cls-19" d="M458.16,426.24c-9.8,4.74-46.15,14.53-50.94-3.32-4.23-15.74,7-27,11-30.06,7.14-5.45,27-14,43.65-18.34"/><path class="cls-19" d="M379.76,481.07c-24.22,3.26-33.58-17-33.58-17"/><path class="cls-19" d="M356.44,505.38s-17.18,5.44-21.75-5.7"/><path class="cls-19" d="M429.53,415.31s13-3.89,27-6.74c12.45-2.52,15.22,7.86,15.22,7.86"/><path class="cls-19" d="M478.5,390s-5.61,9.67-30.14,8"/><path class="cls-19" d="M251.77,347.12c3.36,19.93,29.54,13.94,30.06-8.25"/><path class="cls-19" d="M406.1,217.48s11.5.28,13.75,9.82"/><path class="cls-19" d="M428.07,217.48s10,10.66,34.15,5.05"/><path class="cls-19" d="M438.21,232.07S433,244,418.45,239.71"/><path class="cls-19" d="M487.2,253.12A12.83,12.83,0,0,1,485,242.46"/><path class="cls-19" d="M438.21,255.14s-3.49-11.57,8.58-17.46,24.41,4.77,28.62,12.91,14.88,38.29,23,30.87c6.45-5.89-6.17-13.68-6.17-13.68"/><path class="cls-19" d="M509.08,281.74c-.28,5.89,3.65,21-1.68,22.73s-5.61-9.54-12.07-11.36"/><path class="cls-19" d="M456.55,255.92s11.09,6.31,12.45,11.85-3.69,13.94,6.41,19.84,16.28,2.28,18.24,21.35-6.45,28.61-6.45,28.61"/><path class="cls-19" d="M493.95,312.33c9.28,18.52,16.27,13.47,16.27,13.47,3.78-3.78,1.67-13.47,1.67-13.47"/><path class="cls-19" d="M498.42,334.74s8.44.6,11.8-8.94"/><path class="cls-19" d="M476.72,336.59s9.22-2.27,14.13,5c8.7,12.85,1.4,26.69,7.58,33"/><path class="cls-19" d="M469,306.47s11-4.24,12.89,8.66"/><path class="cls-19" d="M458.16,247s3.22,10-7.45,12.27"/><path class="cls-19" d="M518.91,333.93c-2.81,10.94-9.26,9.82-11.5,14.59s-.23,8.18,5.08,8.16"/><path class="cls-19" d="M504.32,363.17c5,11.35-1.13,14.81.84,31.65"/><path class="cls-19" d="M490,405.21s7.84-1.58,15.15-10.38"/><path class="cls-19" d="M488.6,382s3.21,18.12-11.16,23.17"/><path class="cls-19" d="M485.91,353.57s3.3,9-4,14.87"/><path class="cls-19" d="M484.63,415.31s-9.78,9-6.13,13.5,7.86,0,7.86,0"/><path class="cls-19" d="M471.34,437.48a14.11,14.11,0,0,0,7.16-8.67"/><path class="cls-20" d="M353.52,504.63l33.51,7.5s4.21,1.7,2.75,8.6c-.57,2.71-12.43.74-20.39,1.22s-11.47.81-11.47.81l-2.74-6.09-2.82-5-1-4.93A1.8,1.8,0,0,1,353.52,504.63Z"/><path class="cls-19" d="M348.09,364.86"/><path class="cls-19" d="M479.06,357.33c-5.31-9.86-25.6-5.67-39.26,5.84"/><path class="cls-19" d="M471.76,327.2c-4.06-4.67-20.26-1.28-23.4,3.07"/><path class="cls-19" d="M447.68,307.42c5.66,4.53,10.94,0,10.94,0"/><path class="cls-19" d="M275.12,415.31"/><path class="cls-19" d="M278.43,390"/><path class="cls-19" d="M294.09,397.38s.54,16.5-6.34,24.79c0,0-9.13,10.34-19.23,3.61"/><path class="cls-19" d="M464.19,438.6c-8.2,5.62-25,9.34-36.8,7.86"/><path class="cls-19" d="M450.26,454.85c-8.44,2.81-23.24,3.77-31.82,4.12-20.2-.84-18.16-13.47-18.16-13.47"/><path class="cls-19" d="M423.08,485.17s-43.41-1.6-48.11-44.94"/><path class="cls-19" d="M440.62,476.76c2.52-10.52-6.64-16.37-15.38-18.22"/><path class="cls-19" d="M261.25,437.48s1.43,13,20.91,10"/><path class="cls-19" d="M412.49,315.78c-11.9-2-41.21-28.94-53.79-7.36-15.32,26.28,25.64,38.94,25.64,38.94"/><path class="cls-19" d="M409.33,296.75c-32.16-29.39-58.73-11.75-62.26.47"/><path class="cls-19" d="M256.21,377.15s30.5-4.65,45.51,3.9"/><path class="cls-19" d="M252.47,394.82s30.39-5.53,45.4,3"/><path class="cls-6" d="M338.74,473.41s4.55,8.36,17,1.85"/><path class="cls-6" d="M404.42,504.82s-5.93-.85-9.37-3"/><path class="cls-21" d="M418.7,195.43c8.36-1,46.07,1.4,56.71,38.11,1.33,4.58,2.68,19.16-3.36,25.9s-21.95,8-32.49,7.27-24-3.17-30.66-10.32-11-10.39-13.11-10.7-6.06-1.5-7.42-8.05-5.3-14.46.59-26.35S411.65,196.25,418.7,195.43Z"/><path class="cls-22" d="M443.5,235.91s7.33,9.16,8.41,18.61c.1.87-.85,1.24-1.21.61s-6.58-11.39-11.44-17.23C439.26,237.89,438.74,234.69,443.5,235.91Z"/><path class="cls-22" d="M418.53,213s13.88,8.81,17.14,13.17c0,0-3.67,1.08-5.2.6s-12.08-10-14.86-12C415.6,214.78,415.86,212.77,418.53,213Z"/><path class="cls-22" d="M405.7,227.62s6.85,1.26,9.46,5.76c0,0-.9,1.19-3.77.71s-7.15-5-7.15-5A2.18,2.18,0,0,1,405.7,227.62Z"/><path class="cls-22" d="M425.43,244.26s4.5,2.68,11.2,10.26c.62.7-.27,1.46-1.62,1.29a23.54,23.54,0,0,1-4-1.26l-7.37-7.45S422,243.67,425.43,244.26Z"/><path class="cls-22" d="M458.53,233.36s4.53,11.53,3.37,18.36c0,0-3-13.21-5.63-17.24A1.86,1.86,0,0,1,458.53,233.36Z"/><path class="cls-22" d="M441.79,213.28s7.15,4.84,9.39,9.09a2.82,2.82,0,0,1-2.44-1.07C447.82,220.06,441.79,213.28,441.79,213.28Z"/><path class="cls-6" d="M399.3,201.15s47.58,6,58.7,61.35"/><path class="cls-6" d="M463.35,263.09c-.32-18-14.92-68.36-62.42-62.78"/><path class="cls-6" d="M467.77,261.37s4.31-36.81-19.27-52.66c-22.77-15.3-36-11.76-41.76-10.73"/><path class="cls-6" d="M472,254.73s6.27-44.06-42.13-59.32"/><path class="cls-6" d="M397.48,204s34.21,13.43,55.7,55.71"/><path class="cls-6" d="M447,262.66a120,120,0,0,0-29.32-34.89c-19.25-15.27-24.44-20.28-24.44-20.28"/><path class="cls-6" d="M389.85,214.16c.63,3.56,18.69,20,23.48,23.36S439,262.82,439,262.82"/><path class="cls-6" d="M433,261.31s-40-25.56-46.14-44.68"/><path class="cls-6" d="M436.61,209.47c1.48,0,3-.6,4.4-.25a6.49,6.49,0,0,1,3,2,43.28,43.28,0,0,1,7.57,10.57"/><path class="cls-6" d="M466.26,252.52c-.42,1.14-1,2.43-2.19,2.7"/><path class="cls-6" d="M426.82,243.81a6.84,6.84,0,0,1,4.35.28"/><path class="cls-6" d="M400.4,223.56a6.63,6.63,0,0,1,3-1.11c1.67,0,3.08,1.15,4.32,2.27a33.45,33.45,0,0,1,6.45,7.08"/><path class="cls-6" d="M392.24,209.93a14.66,14.66,0,0,0,2.32,7.57"/><path class="cls-6" d="M410.65,205.71a6,6,0,0,1-3.51.93"/><path class="cls-6" d="M425.2,200a25.59,25.59,0,0,0-5.75-.85"/><path class="cls-6" d="M460.83,215.63a2.39,2.39,0,0,0,.32-1.79,2.12,2.12,0,0,0-.61-.8,10.2,10.2,0,0,0-1.55-1.16"/><path class="cls-6" d="M469.23,227.09a1.56,1.56,0,0,0-.86-.2.56.56,0,0,0-.51.61"/><path d="M502.64,825.17a9.66,9.66,0,0,1-1,.1,15.78,15.78,0,0,1-2.81-.08,14.7,14.7,0,0,1-4.24-1.14,13.36,13.36,0,0,1-4.62-3.39l-.27-.3c-.11-.1,0,0,.08,0a.16.16,0,0,0,.15-.09.22.22,0,0,0,0-.11l0,.16c.11.53.24,1,.38,1.56a33.52,33.52,0,0,0,1,3.19,32.8,32.8,0,0,0,3.27,6.42c.35.52.71,1,1.09,1.53l.29.37.15.19.07.09.08.11.05.09a1.24,1.24,0,0,1-1.21,1.84,1.25,1.25,0,0,1-.41-.12l-.17-.09c-1.15-.64-2.35-1.35-3.48-2.1a54.9,54.9,0,0,1-6.59-5.07,45.68,45.68,0,0,1-5.7-6.14,33.16,33.16,0,0,1-2.33-3.44l-.5-.9-.25-.45-.06-.11c.15.26-.11-.16.1.16a1.13,1.13,0,0,0,.36.3,1.16,1.16,0,0,0,.38.12,1.09,1.09,0,0,0,.71-.15,1.14,1.14,0,0,0,.5-.65,1.12,1.12,0,0,0,0-.37v0l0,.24.15.94c.36,2.45.88,4.83,1.41,7.06s1.19,4.32,1.83,6.23,1.31,3.64,2,5.14c.31.76.64,1.46.94,2.11s.57,1.25.84,1.78c.51,1.08,1,1.88,1.28,2.45l.46.87h0a.14.14,0,0,1-.24.16l-.64-.76c-.42-.49-1-1.23-1.73-2.21a37.75,37.75,0,0,1-2.42-3.65,50.3,50.3,0,0,1-2.62-5.05,55,55,0,0,1-2.36-6.33,49.35,49.35,0,0,1-1.69-7.38l-.12-1,0-.24,0-.23a1.82,1.82,0,0,1,.07-.61,1.79,1.79,0,0,1,.79-1,1.82,1.82,0,0,1,1.17-.25,1.76,1.76,0,0,1,.61.19,1.84,1.84,0,0,1,.79.81l.05.1.22.42.44.84c.62,1.1,1.27,2.21,2,3.28a40.6,40.6,0,0,0,5.1,6,52.8,52.8,0,0,0,6.13,5.11c1.08.78,2.15,1.47,3.29,2.16l.05,0s0,0,0,0a.56.56,0,0,0-.18,0,.57.57,0,0,0-.39.1.54.54,0,0,0-.13.73s0,0,0,0l0,0,0,0-.07-.1-.15-.21-.29-.41c-.39-.55-.75-1.1-1.09-1.67a32.41,32.41,0,0,1-3.15-6.86,34.74,34.74,0,0,1-.9-3.37c-.11-.54-.23-1.11-.31-1.63l0-.23a.86.86,0,0,1,.08-.49.88.88,0,0,1,.78-.49.85.85,0,0,1,.48.14l.12.1,0,0,.09.11.24.29a12.51,12.51,0,0,0,4.16,3.39,14.11,14.11,0,0,0,4,1.3,15.39,15.39,0,0,0,2.73.22,9.4,9.4,0,0,0,1-.05.14.14,0,0,1,.16.12A.15.15,0,0,1,502.64,825.17Z"/><path class="cls-23" d="M590,482.75c0,8.15-10.08,14.83-22,23.48-9.15,6.63-26.57,17.08-45.66,21.56h0a80.51,80.51,0,0,1-12.56,2,8.09,8.09,0,0,0,.35-10.18h.13a59.74,59.74,0,0,0,9.91-1.31c28.85-6.18,59.94-31.61,60.36-37.6L575,487.51l-4.85-7.09-1.33-2.48,1.65-3.28h10.08C586.33,474.67,590,474.61,590,482.75Z"/><path class="cls-24" d="M578.84,474.67v-1.77H568.76s-2.57.71,0,5,4.58,7.23,4.58,7.23h4.1S573.08,474.67,578.84,474.67Z"/><path class="cls-23" d="M503.13,529.93"/><path class="cls-23" d="M509.77,529.77"/><path class="cls-25" d="M510.11,519.59"/><path class="cls-26" d="M504.5,516.6h0l11.24,1.17a8.1,8.1,0,0,1-1.67,16.11l-13.52-1.41-25.9-2.69,1,10c-9.16,2.83-13.8,1.54-13.8,1.54l-3.6-17.21c-1.72-7.72.44-12.24,6.26-11.64Z"/><path class="cls-6" d="M503.65,532.56a8.1,8.1,0,0,0,0-16.19"/><line class="cls-23" x1="474.65" y1="529.93" x2="465.57" y2="528.93"/><path class="cls-23" d="M502.55,528.93a5.22,5.22,0,0,0,0-10.44h-.12a36.94,36.94,0,0,1-13.06-3.12c-12.67-5.84-17.25-18.67-34.49-31.75-22.73-17.25-53.33-10.37-53.33-10.37s-25,5.45-41.37,15.4a4.63,4.63,0,0,0-2.23,4,4.7,4.7,0,0,0,7,4.09c21.7-12.3,40.44-15.1,40.44-15.1s29.53-4.65,47.75,11.17c8.3,7.2,14.6,15.66,21.62,22.58,7.38,7.3,15.55,12.9,27.65,13.53"/><path class="cls-22" d="M414.88,483a62.82,62.82,0,0,0-9.15.6c-.2,0-18.68,2.91-39.77,14.87a6.64,6.64,0,0,1-3.28.86,6.68,6.68,0,0,1-6.57-8.1,6.57,6.57,0,0,1,3-4.27c16.5-10,40.95-15.42,42-15.65a57,57,0,0,1,12.43-1.4C422.19,469.82,420,483,414.88,483Z"/><path class="cls-5" d="M404.08,480.42c1.22,3.64,2.19,6,1.46,7.46s-4.94,4.43-8.38,4.37c0,0-5.38,7.63-10.27,2.23-.54,2.46-3.78,4.32-6.52,4.32H380a3.86,3.86,0,0,1-3.34-1.69c-4.36,2.21-7-2.17-11.06-5.3s-5.92-4.12-5.68-10.18a22.51,22.51,0,0,0-1.22-7,66.9,66.9,0,0,0-13.81-8.16c-4.71-2.1-9.62-3.79-15.07-5.68a272.51,272.51,0,0,1-58.35-28.48,13.05,13.05,0,0,1-3.84-3.28,11.45,11.45,0,0,1-1.65-5c-1.44-10.4,3.08-20.41,8.66-29.3,4.95-7.88,19.31-25.83,31.64-37.52,8,.26,24.74,6.65,38.34,12.56.09,0,0-.66,0-.66s-20.31,35.48-30.47,41.24c1.36,1.75,2.73,3.52,4.23,5.4s3.18,3.86,5.13,6c3.5,3.89,16.3,15,20.21,18.44,7.78,4.13,17.1,8.8,26.28,13.08s18.21,8.17,25.43,10.74a95,95,0,0,1,16.21,7.51l-11.09,1.77A33.4,33.4,0,0,1,404.08,480.42Z"/><path class="cls-6" d="M356.79,469.49s3.34,7.32,3.15,12.12c-.24,6.06,1.67,7.07,5.69,10.19s6.7,7.51,11.06,5.29"/><path class="cls-6" d="M371.94,489.29s5.26,9.33,8.08,9.5,6.31-1.74,6.87-4.3"/><path class="cls-6" d="M380,484.23s5.25,10,8.18,10.46,5.15-2.44,5.15-2.44"/><path class="cls-15" d="M397.16,492.25s-5.69,7.61-10.58,2.22"/><path class="cls-6" d="M387.2,475.74s3.25,5.85,4.28,7.77,3.57,8.35,7,8.41a8.72,8.72,0,0,0,7.06-4c.73-1.42-.23-3.82-1.45-7.46s-2.12-6.33-7.62-11.5"/><path class="cls-6" d="M394.62,483.82a38.93,38.93,0,0,0,6-2.4"/><path class="cls-6" d="M306.31,357.23c-12.7,11.79-26.54,29.4-31.64,37.51-5.59,8.89-10.1,18.9-8.66,29.3a11.39,11.39,0,0,0,1.65,5,13.11,13.11,0,0,0,3.84,3.28,272.34,272.34,0,0,0,58.35,28.47c10.89,3.78,19.67,6.77,28.88,13.84"/><path class="cls-6" d="M303.23,397.7c8.87,8.89,11.91,14.76,20.31,24.09,3.5,3.89,16.3,15,20.21,18.44"/><path class="cls-27" d="M327.8,431.13c10.75,7,46.8,25.49,67.67,32.92a95.1,95.1,0,0,1,16.21,7.51s-8.21.58-11.09,1.77"/><path class="cls-6" d="M343.75,370.68s-19.42,33.93-29.57,39.69"/><path d="M367,480a4.34,4.34,0,0,0,1.05,5.28c1,.8,2.41-.6,1.41-1.41a2.35,2.35,0,0,1-.74-2.87c.56-1.15-1.15-2.16-1.72-1Z"/><path d="M375.94,477a2.6,2.6,0,0,1,2.95-2.17,1,1,0,0,0,1-1,1,1,0,0,0-1-1,4.53,4.53,0,0,0-4.87,3.64c-.22,1.26,1.71,1.79,1.92.53Z"/><path d="M386.62,471.64a5,5,0,0,1,.94-3.44c.74-1.05-1-2-1.72-1a6.78,6.78,0,0,0-1.22,4.45c.1,1.27,2.1,1.28,2,0Z"/><path class="cls-19" d="M282,334.75c-2.89,29.87,37.18,15.46,66.2,38.35"/><path d="M554.38,766.07c.81,1.87,1.51,3.79,2.17,5.72s1.25,3.88,1.8,5.85,1,4,1.49,5.94l.61,3c.22,1,.35,2,.53,3s.33,2,.45,3l.37,3,.26,3.06c.1,1,.13,2,.17,3.07s.1,2,.1,3.08l0,3.08c0,1-.05,2.05-.12,3.08l-.18,3.08-2.15-.49c.15-.48.29-1.1.42-1.67s.23-1.17.32-1.77c.19-1.19.31-2.39.42-3.59s.15-2.42.17-3.63c0-.61,0-1.21,0-1.82s0-1.21,0-1.82c0-1.22-.07-2.43-.14-3.65s-.19-2.43-.25-3.64c0-.61-.12-1.21-.17-1.82l-.16-1.82-.41-3.64v-.11a1.35,1.35,0,0,1,2.55-.75,15.71,15.71,0,0,1,.62,1.46c.17.47.34.94.48,1.42.3.95.52,1.9.72,2.86s.37,1.92.49,2.88c.07.48.12,1,.16,1.45s.1,1,.12,1.45c.06,1,.1,1.93.09,2.9s0,1.93-.08,2.88-.17,1.91-.25,2.86-.27,1.9-.41,2.84a.14.14,0,0,1-.28,0h0l-.08-2.84c-.06-.95-.08-1.89-.18-2.83s-.15-1.87-.28-2.8-.25-1.85-.39-2.78c-.06-.46-.17-.92-.25-1.37s-.17-.91-.28-1.36c-.19-.91-.42-1.8-.67-2.69s-.54-1.76-.86-2.6c-.15-.43-.32-.84-.5-1.26s-.38-.84-.55-1.14l2.54-.85c.19,1.23.4,2.47.58,3.71s.31,2.49.41,3.74.21,2.5.22,3.76.07,2.51.05,3.77c0,.63,0,1.26-.05,1.89s0,1.26-.1,1.89c-.08,1.26-.21,2.51-.34,3.77s-.34,2.51-.59,3.75c-.12.62-.26,1.25-.41,1.87s-.31,1.22-.56,1.91a1.11,1.11,0,0,1-2.15-.47v0l.28-3c.1-1,.19-2,.22-3l.13-3c0-1,0-2,0-3s0-2-.07-3l-.15-3-.26-3c-.08-1-.2-2-.33-3s-.22-2-.39-3l-.47-3c-.37-2-.75-4-1.21-6s-1-3.94-1.52-5.89-1.18-3.88-1.9-5.78a.14.14,0,0,1,.08-.19A.14.14,0,0,1,554.38,766.07Z"/><path d="M267.67,756.44l-5.9-5.19c-2-1.74-3.92-3.48-5.84-5.28l.79-.31a37.54,37.54,0,0,0,.37,4.71,33.76,33.76,0,0,0,1,4.62,22.35,22.35,0,0,0,1.7,4.32,12.35,12.35,0,0,0,2.74,3.55L261.34,764c-2.74-3.14-5.41-6.33-8-9.59-1.3-1.63-2.57-3.29-3.8-5-.61-.85-1.21-1.72-1.79-2.62a19.45,19.45,0,0,1-1.59-2.91l2.15-.64c.17.7.38,1.44.59,2.16s.44,1.45.67,2.16q.71,2.16,1.53,4.27a81,81,0,0,0,3.79,8.21,64.8,64.8,0,0,0,4.76,7.59c.45.59.89,1.19,1.37,1.76s1,1.13,1.44,1.69,1,1.09,1.54,1.59,1.08,1,1.63,1.49l.06.06a1.3,1.3,0,0,1-1.69,2c-.62-.51-1.26-1-1.84-1.54s-1.17-1.09-1.74-1.64-1.11-1.15-1.61-1.76-1-1.22-1.51-1.84-1-1.26-1.39-1.92-.88-1.31-1.3-2c-.81-1.35-1.58-2.72-2.28-4.13a70.18,70.18,0,0,1-3.63-8.64q-.78-2.21-1.43-4.45c-.22-.75-.43-1.5-.62-2.26s-.38-1.5-.55-2.3a1.13,1.13,0,0,1,2.15-.64,17.64,17.64,0,0,0,1.34,2.57c.52.86,1.09,1.72,1.66,2.56,1.16,1.69,2.38,3.36,3.62,5,2.49,3.29,5.07,6.54,7.71,9.72l0,0a.81.81,0,0,1-1.18,1.11,13.89,13.89,0,0,1-3-4.09,22.23,22.23,0,0,1-1.65-4.66,34.94,34.94,0,0,1-.8-4.82,38.42,38.42,0,0,1-.18-4.87h0a.46.46,0,0,1,.79-.31c1.82,1.86,3.71,3.68,5.6,5.49l5.68,5.43a.14.14,0,0,1-.19.21Z"/><path d="M531.66,303.88c2.64-.2,21.16.46,17.46-6.81-1.24-2.44-4.59-2.39-6.89-2a19.85,19.85,0,0,0-11.11,6.39c-.86.95.55,2.36,1.41,1.41a18.41,18.41,0,0,1,6.37-4.68c1.41-.61,6.54-2.6,7.84-.85,2.63,3.52-5,3.76-6.21,3.85l-8.88.68c-1.27.1-1.28,2.09,0,2Z"/><path d="M556.21,330.18c3.86,1.76,8.88,4,13.24,3.2,2.22-.42,5.24-2.54,4-5.17s-6-3.15-8.43-3.14a15.42,15.42,0,0,0-10.31,4.06c-1,.86.46,2.26,1.41,1.41a13.27,13.27,0,0,1,13.35-2.71c2.54.93,1.87,3.32-.89,3.68a10.8,10.8,0,0,1-3.45-.34,36.77,36.77,0,0,1-7.89-2.71c-1.16-.53-2.17,1.19-1,1.72Z"/><path d="M319.28,247.82l-7.78-1.94c-1.1-.27-2.25-.5-3.33-.83a9.53,9.53,0,0,1-2-.74q-1.52-.43-.34-2.05-.35-2.34,1.65-1.56a11,11,0,0,1,1.66.48,16.79,16.79,0,0,1,3.25,1.59,18.16,18.16,0,0,1,5.73,5.8c.69,1.08,2.41.08,1.72-1a20,20,0,0,0-9-7.86c-2.3-1-6.1-2.05-8,.36-5.1,6.5,13.36,9,15.94,9.68a1,1,0,0,0,.53-1.92Z"/><path d="M270.7,270.81a37.48,37.48,0,0,1-8.68,1.4c-1.16,0-3.62.2-4.43-.78l-.62-2.79a12.58,12.58,0,0,1,1.76-.47,13.32,13.32,0,0,1,12.75,5c.8,1,2.2-.42,1.41-1.41a15.19,15.19,0,0,0-9.64-5.63c-2.37-.36-6.88-.52-8.55,1.64-1.79,2.32.84,5,2.92,5.83,4.1,1.55,9.57.17,13.6-.9a1,1,0,0,0-.53-1.92Z"/><line class="cls-6" x1="201.95" y1="650.06" x2="159.24" y2="634.83"/><line class="cls-6" x1="169.9" y1="402.44" x2="127.19" y2="387.21"/><line class="cls-6" x1="164.06" y1="627.51" x2="111.55" y2="607.7"/><line class="cls-6" x1="240.09" y1="553.44" x2="187.58" y2="533.63"/><line class="cls-6" x1="205.89" y1="434.75" x2="153.38" y2="414.94"/><line class="cls-6" x1="141.46" y1="673.49" x2="210.59" y2="700.54"/><line class="cls-6" x1="160.66" y1="280.81" x2="229.79" y2="307.86"/><line class="cls-6" x1="132.01" y1="492.55" x2="201.14" y2="519.6"/><line class="cls-6" x1="169.95" y1="670.91" x2="105.66" y2="646.93"/><line class="cls-6" x1="190.66" y1="739.69" x2="207.27" y2="746.82"/><line class="cls-6" x1="222.56" y1="764.74" x2="183.56" y2="746.82"/><line class="cls-6" x1="350.62" y1="820.6" x2="436.39" y2="858.49"/><line class="cls-6" x1="422.6" y1="843.64" x2="453.91" y2="857.64"/><line class="cls-6" x1="130.16" y1="697.33" x2="92.94" y2="683.21"/><line class="cls-6" x1="122.15" y1="555.29" x2="84.92" y2="541.16"/><line class="cls-6" x1="213.84" y1="349.74" x2="176.61" y2="335.61"/><path d="M278.21,613.09a8.7,8.7,0,0,0-1,.39c-.32.16-.71.33-1.13.58a15.92,15.92,0,0,0-1.38.88,16.62,16.62,0,0,0-1.48,1.24,19.36,19.36,0,0,0-1.49,1.53c-.47.57-.94,1.18-1.39,1.8a20.72,20.72,0,0,0-1.22,2,16,16,0,0,0-1,2.14c-.26.73-.57,1.42-.8,2.12s-.57,1.33-.85,2-.51,1.23-.77,1.78l-.38.79c-.11.26-.2.5-.31.73-.21.46-.4.86-.58,1.18-.35.66-.6,1-.6,1h0a.15.15,0,0,1-.28-.06,11.1,11.1,0,0,1-.13-1.18,14.91,14.91,0,0,1,.08-3.11c.08-.64.2-1.32.35-2a15.48,15.48,0,0,1,.71-2.21,13.1,13.1,0,0,1,1.17-2.21,24.39,24.39,0,0,1,1.43-2.15,22.91,22.91,0,0,1,1.59-2,22.21,22.21,0,0,1,1.77-1.75,17.31,17.31,0,0,1,1.85-1.41,17.83,17.83,0,0,1,1.79-1,16.76,16.76,0,0,1,1.6-.68A11,11,0,0,1,277,613a9,9,0,0,1,1.15-.2.14.14,0,0,1,.15.13A.14.14,0,0,1,278.21,613.09Z"/><path class="cls-9" d="M283.64,732.89l-.61,2.3h-2v-1.88a12,12,0,0,0-4,.51,2.36,2.36,0,0,0-1.46,1,48.34,48.34,0,0,0-.9,7.43c3.32,7.53,4.52,9.51,9.44,16.51a15.9,15.9,0,0,0,2,2.71c.82.63,1,1.49,5.16,1.27l1.33-2.32h2.2l-.66,2.12h3.44l1.07-1.9h3l-.66,1.9h2.44L304.7,761Z"/><path d="M282.68,732.63c-.29,1.08-.69,2.21-.32,1.57-.45.8-.81-.85-.72.25.08.91.34-1,.34-1.14a1,1,0,0,0-1-1c-5.24.16-6.47,1.33-7.09,6.25-.68,5.35,2.07,9.65,4.85,14.17,2,3.31,4.71,9.38,8.7,10.79,1.41.5,3.49.66,4.66-.25.58-.45.6-1.66,1.19-2.08-.89.62,1,.25,1.47.25l-1-1.26-.66,2.12a1,1,0,0,0,1,1.26h3.44a1,1,0,0,0,.86-.49c.2-.36,1.45-1.89.52-1.41.57-.29,2,0,2.69,0l-1-1.26-.66,1.9a1,1,0,0,0,1,1.26c2.58,0,2.84.07,4.48-1.88a1,1,0,0,0,.16-1.21L284.5,732.39c-.76-1-2.49,0-1.72,1l12.31,16.42,7.14,9.52a9.82,9.82,0,0,1,1.53,2c-.67-1.91.45.18-.88.25,0,0-1.45,0-1.94,0l1,1.26.66-1.9a1,1,0,0,0-1-1.26h-3a1,1,0,0,0-.86.49c-1.12,2-.81,1.41-3.65,1.41l1,1.26.66-2.12a1,1,0,0,0-1-1.26h-2.2a1,1,0,0,0-.86.49c-.52.9-.81,1.72-1.61,2-1.58.49-3.05-.91-4-1.93a59.86,59.86,0,0,1-6.84-10.25c-1.54-2.74-3.66-6-3.63-9.17,0-1.15,0-3.62.61-4.56.32-.5,2.7-2.12,3.45-1.93.39.09.28.15.28,1.12a1,1,0,0,0,1,1h2a1,1,0,0,0,1-.73l.61-2.3A1,1,0,0,0,282.68,732.63Z"/><path class="cls-5" d="M375.4,570.33c-.31,7.27-3.76,14.11-8.35,19.76-3.95,4.85-8.74,9-12.77,13.73-4.47,5.31-7.94,11.38-11.39,17.42L329.33,645,319,663c-3.09,5.4-6.29,11.51-4.79,17.55H292.16V670.24c3.71-11.25,4.29-23.25,5.6-35s3.52-23.84,10-33.78c3.82-5.88,9-10.76,14-15.58l7.17-6.8-4.5-16.18c-16.19-21.9-32-43.86-36-70.78,5.53,2.59,18.21,7.95,26.79,8,18.86.22,26.28-9.44,26.47-18h0c8.87,19.37,19.88,47.29,28.25,66.88C372.83,555.85,375.72,562.95,375.4,570.33Z"/><path class="cls-1" d="M315.85,709.75c1.48-1.65.62-4.47.42-6.68l-.61-6.62a15.31,15.31,0,0,1-.1-1.92,11,11,0,0,0,0-2.35c-.1-.55-.34-1.07-.46-1.61-.33-1.51.32-3.08.11-4.6-.26-1.92-1.86-3.74-1.25-5.58l-.28,0a30.76,30.76,0,0,1-11-1.86,17.34,17.34,0,0,1-5.61-2.92,21.61,21.61,0,0,1-2.13-2.16l-3.24-3.62-.07.14c-.12,1.2-1.1,2.12-1.59,3.22a13.08,13.08,0,0,0-.66,2.89c-.75,3.88-3.43,7.07-6,10.06l-.89,24.48,17.79,5.65Z"/><path d="M316.71,710.25c2.22-3.94.18-9.51-.05-13.8-.13-2.46-.5-5-.6-7.41a29.29,29.29,0,0,0,.14-3.34c-.29-1.91-1.37-3.22-1.22-5.32a1,1,0,0,0-1-1c-4.34-.31-8.34-.67-12.41-2.4s-6.38-4.76-9.18-7.89a1,1,0,0,0-1.57.2,32.13,32.13,0,0,0-2.42,6.5,19.33,19.33,0,0,1-2.22,5.13c-.83,1.33-2.93,3-3.54,4.49s-.4,3.76-.47,5.51l-.71,19.68a1,1,0,0,0,.73,1l8.44,2.68c2.66.84,6.5,2.9,9.33,3,2.19,0,5-1.86,7-2.68l9.13-3.81c1.17-.49.65-2.42-.53-1.92L307.79,712l-5.68,2.37c-.41.17-2.57.85-1.64.86-2.55,0-6-1.89-8.37-2.66-3-1-6.22-1.67-9.11-2.89.74.31.1,1.23.53-.34.38-1.39.12-3.41.18-4.83l.45-12.37a30.23,30.23,0,0,1,.16-4.33c.35-1.9.13-1.52,1.7-3.31,3.73-4.24,4.1-9.41,6.57-14.23l-1.57.2c3,3.34,5.47,6.51,9.68,8.3a33.31,33.31,0,0,0,6.26,1.9c.91.19,6.45.32,6.78.65-1.1-1.09.2,3.54.18,3.45.56,2.25.28,4.94.52,7.29.25,2.53.32,5.11.56,7.67s1.4,7,0,9.48A1,1,0,0,0,316.71,710.25Z"/><path d="M293.12,670.51c5.3-16.85,4.1-34.77,8.44-51.8a54.94,54.94,0,0,1,12.22-23.48c6-6.71,12.91-12.69,19.44-18.88.93-.88-.48-2.29-1.41-1.41-12.6,11.94-26,22.8-31.27,40-5.45,17.94-3.72,37.15-9.35,55.06-.39,1.23,1.54,1.75,1.92.53Z"/><path d="M340.81,482.67c5.68,12.45,10.91,25.1,16.13,37.75,5.12,12.4,11.22,24.79,15.41,37.54,2.87,8.73,2.62,17.23-1.89,25.35-3.87,7-9.91,12.05-15.19,17.88C345.47,612,339.05,626,331.86,638.54q-6.61,11.58-13.22,23.16c-3.42,6-6.62,12.05-5.36,19.14.22,1.26,2.15.73,1.92-.53-1.6-9,5.15-17.58,9.37-25l11.91-20.87c3.86-6.75,7.58-13.6,11.66-20.23,4.25-6.91,9.46-12.57,15.05-18.38,9-9.39,15.36-20.61,12.33-34-1.55-6.86-4.75-13.3-7.46-19.76s-5.3-12.76-7.94-19.15c-5.71-13.83-11.39-27.69-17.6-41.31-.53-1.17-2.25-.15-1.72,1Z"/><path d="M326.19,563.58c-16-21.72-32.48-44.47-36.83-71.76-.2-1.26-2.12-.73-1.92.53,4.37,27.46,20.89,50.39,37,72.24.75,1,2.49,0,1.72-1Z"/><polygon class="cls-28" points="350.97 762.58 326.43 754.58 325.46 748.93 351.27 756.22 350.97 762.58"/><ellipse class="cls-15" cx="363.29" cy="760.67" rx="3.6" ry="9.86"/><path class="cls-7" d="M360.24,767.43c1.59,0,2.88-3.08,2.88-6.87s-1.29-6.87-2.88-6.87l-6.65,1.55v10.41Z"/><path class="cls-8" d="M283.39,686.12a44,44,0,0,0,.19,8.09c.9,6.42,5.58,13.34,10.79,17.21.84-2.31,1.73-4.7,3.46-6.43.94-.94,4.9-5.09,9.56-4.51s6.08,3,7.28,5.67a48.83,48.83,0,0,1,1.63,6.08,397.4,397.4,0,0,1,10.41,41.52,13.83,13.83,0,0,1,.35,4.71,4.8,4.8,0,0,1-2.57,3.75,16,16,0,0,1-4.91,1.22c-8.74-.7-14.46-1.79-22.49-5.32-3.57-1.57-8.52-5.65-10.19-9.17a18.29,18.29,0,0,1-1.27-4.72l-3.44-19.55a16.55,16.55,0,0,0-.79-3.22,26.54,26.54,0,0,0-2.19-3.83,22.67,22.67,0,0,1-2.95-14.84c.88-6,3.69-11.62,7.09-16.69"/><path d="M282.39,686.12c-.41,10.51,2.85,19.32,11.27,26a1,1,0,0,0,1.67-.44c2.36-6.36,11.72-15.72,17.61-6.77,1.47,2.24,1.73,5,2.4,7.58,1,3.76,2.24,7.46,3.28,11.21q3.38,12.19,6,24.59c1,4.62,3.15,11-2.21,13.6-3,1.45-8.2.07-11.19-.46-6.71-1.17-14-3.3-19.2-7.88-6.27-5.52-6.27-14.56-7.63-22.3-.58-3.32-.81-7.16-2.1-10.3-1.41-3.45-3.74-6.19-4.66-9.92-2.14-8.73,1.94-17.3,6.61-24.43.7-1.08-1-2.08-1.72-1-4,6.12-7.52,13.11-7.46,20.61.06,8,5.36,14,6.71,21.67l2.41,13.68c.63,3.57,1,7.07,3.25,10,3.8,5.1,9.58,7.87,15.46,9.81,7.43,2.45,26.6,7.46,25.12-6.1-1-8.86-3.68-17.9-5.93-26.5q-1.72-6.59-3.67-13.12c-1-3.21-1.52-6.83-2.81-9.92-1.88-4.49-6.21-7.21-11.15-6.1-5.72,1.29-9.13,6.38-11,11.48l1.67-.44c-8.05-6.4-11.07-14.54-10.68-24.6,0-1.28-1.94-1.28-2,0Z"/><path d="M293.23,737.86a27.37,27.37,0,0,0,15.6,12,1,1,0,0,0,.53-1.92,25.25,25.25,0,0,1-14.41-11.12c-.67-1.09-2.39-.09-1.72,1Z"/><path d="M311.31,741.11a17.7,17.7,0,0,1,9.07.26,1,1,0,0,0,.53-1.92,19.87,19.87,0,0,0-10.13-.26c-1.25.29-.72,2.21.53,1.92Z"/><path d="M278.88,692.38a23,23,0,0,0,14.94,24.83c1.21.43,1.73-1.5.53-1.92a21,21,0,0,1-13.55-22.38c.18-1.26-1.74-1.8-1.92-.53Z"/><path d="M294.75,712.76A128.41,128.41,0,0,0,299,728.64c.93,2.92,1,5.73,3.8,7.38a1,1,0,0,0,1-1.72c-2.57-1.51-3.55-8.17-4.39-10.9a99.72,99.72,0,0,1-2.78-11.17c-.23-1.26-2.15-.73-1.92.53Z"/><path d="M302.66,732.53a21.51,21.51,0,0,1,18.13.45c1.15.56,2.16-1.16,1-1.72a23.71,23.71,0,0,0-20.14-.45c-1.18.5-.16,2.22,1,1.72Z"/><path d="M300.77,730.27a16.79,16.79,0,0,1,19.39-.71c1.08.7,2.08-1,1-1.72a18.66,18.66,0,0,0-21.41.71c-1,.75,0,2.49,1,1.72Z"/><path d="M299.17,725.11c6.16-4.54,13.39-5.65,19.84-1,1,.75,2-1,1-1.72-7-5-15.16-3.92-21.86,1-1,.75,0,2.49,1,1.72Z"/><path d="M297.77,720.31c6.12-3.88,12.58-5.2,19.44-2.5,1.19.47,1.71-1.46.53-1.92-7.34-2.89-14.44-1.44-21,2.7-1.08.69-.08,2.41,1,1.72Z"/><path d="M297.36,715.84c5.67-4.26,13.06-6.16,18.86-1,1,.85,2.37-.55,1.41-1.41-6.43-5.73-14.8-4.18-21.27.68-1,.76,0,2.49,1,1.72Z"/><path d="M295.54,712.47c4.15-4.13,15.22-7.53,19.12-1.75.71,1.06,2.44.06,1.72-1-4.75-7-17.1-3.79-22.26,1.34a1,1,0,0,0,1.41,1.41Z"/><path d="M303.07,736.12c5.47,1.35,16.28,4.14,19.89-1.88a1,1,0,0,0-1.72-1c-2.8,4.68-13.48,2-17.64,1-1.25-.31-1.78,1.62-.53,1.92Z"/><ellipse class="cls-7" cx="353.6" cy="760.45" rx="2.44" ry="5.21"/><path d="M291.2,716.48c1,5.2,2.38,10.3,3.7,15.43a1,1,0,0,0,1.92-.53c-1.32-5.13-2.67-10.24-3.7-15.43-.25-1.26-2.17-.73-1.92.53Z"/><path d="M288.46,762.37c.41-2.48,2.08-6,1.72-8.49-.23-1.58-1.63-2.92-2.53-4.25-3.48-5.14-6.66-10.47-9.94-15.73-.68-1.09-2.4-.09-1.72,1,2.67,4.3,5.29,8.63,8,12.88,1.24,1.9,3.12,3.91,3.63,6.12.57,2.46-.72,5.45-1.13,7.94-.21,1.26,1.71,1.8,1.92.53Z"/><ellipse cx="280.98" cy="748.32" rx="1.49" ry="2.49"/><path d="M323.47,558.9c1.58,5.84,6.16,14.92,3.14,20.81-.59,1.14,1.13,2.15,1.72,1,3.42-6.65-1.16-15.8-2.94-22.35a1,1,0,0,0-1.92.53Z"/><path d="M340,580.5c1.25,3.48,2.31,7.13,3.83,10.5.94,2.09,2.25,3.89,4.61,4.38,1.25.26,1.79-1.66.53-1.92-2.75-.57-3.53-3.69-4.35-6L342,580c-.43-1.2-2.36-.68-1.92.53Z"/><path d="M333.34,601.14l2.73,4c.71,1.06,2.44.06,1.72-1l-2.73-4c-.71-1.06-2.44-.06-1.72,1Z"/><path d="M336.23,619.09A420,420,0,0,1,313.4,659c-.7,1.08,1,2.08,1.72,1A420,420,0,0,0,338,620.09c.57-1.14-1.15-2.15-1.72-1Z"/><path d="M291.66,692c5.13,3,10.25,3.59,16.1,2.61,1.26-.21.73-2.13-.53-1.92a20.56,20.56,0,0,1-14.57-2.41,1,1,0,0,0-1,1.72Z"/><path d="M305.85,690.18a60.26,60.26,0,0,0,8.65-.17c1.27-.12,1.28-2.11,0-2a60.26,60.26,0,0,1-8.65.17c-1.28-.07-1.28,1.93,0,2Z"/><path class="cls-6" d="M265.74,459.75s7,36.47,49.46,40.38c27.12,2.49,30.61-20,22.83-27.66,0,0-8.27-9.3-36.17-10.06"/><path d="M313.35,513.92c3.83,8.14,7.82,16.19,14.32,22.56.92.9,2.33-.51,1.41-1.41-6.38-6.25-10.25-14.18-14-22.15-.55-1.16-2.27-.15-1.72,1Z"/><path class="cls-6" d="M398.48,491.27"/><path class="cls-6" d="M391.9,512.3"/><path class="cls-7" d="M460.68,541.42l16.44-1.65c1-.11,1.33.71,1.46,1.84a2,2,0,0,1-1.58,2.27l-14.68,1.68a2,2,0,0,1-2-1.85C460.15,542.57,459.68,541.53,460.68,541.42Z"/><path class="cls-19" d="M303.23,291.84s-32.66,10.51-37.49,50.84"/><path class="cls-19" d="M348.17,325.79s0,15.84-21.7,11.15"/><path class="cls-1" d="M397.69,548.13l8.65,1.23c5.2.72,12.11,1.77,19,2.79,3.46.52,6.93,1,10.16,1.49,1.61.3,3.17.55,4.65.86s2.86.58,4.15.86,2.45.57,3.49.81,1.94.46,2.68.67c1.49.38,2.33.64,2.33.64l0,.19s-.88,0-2.41-.17c-.77-.05-1.69-.14-2.75-.25s-2.26-.22-3.56-.38-2.71-.34-4.2-.55-3-.47-4.67-.72c-3.23-.57-6.65-1.29-10.08-1.94-6.87-1.31-13.74-2.6-18.88-3.63l-8.57-1.69Z"/><path class="cls-1" d="M449.92,617.51s-.35.75-1,2c-.32.65-.74,1.42-1.2,2.32s-1,1.89-1.62,3-1.24,2.26-2,3.48-1.54,2.48-2.37,3.79-1.67,2.67-2.48,4.09-1.6,2.87-2.36,4.33-1.54,2.93-2.32,4.36l-2.32,4.18c-1.51,2.71-3,5.2-4.29,7.31s-2.4,3.86-3.18,5.08l-1.26,1.9-.08,0,1-2c.66-1.29,1.6-3.13,2.79-5.31s2.58-4.72,4.15-7.38l2.45-4.11c.84-1.39,1.71-2.8,2.6-4.2s1.74-2.81,2.56-4.22,1.58-2.82,2.29-4.2,1.4-2.71,2.09-4,1.38-2.39,2-3.46,1.21-2,1.76-2.89,1-1.6,1.4-2.21c.79-1.21,1.26-1.9,1.26-1.9Z"/><path class="cls-1" d="M474.21,551.36a3.62,3.62,0,0,1,.2.38c.1.25.29.59.43,1a11.77,11.77,0,0,1,.42,1.46c.05.27.13.55.17.83l.13.86c.05.58.11,1.16.1,1.72a12,12,0,0,1-.07,1.52c0,.45-.14.83-.18,1.09a3.7,3.7,0,0,1-.11.42h-.09l-.59-4.64-.5-4.65Z"/><path class="cls-1" d="M476.28,570.81s.1.23.23.64.34,1,.5,1.69.39,1.52.54,2.41c.07.44.17.9.23,1.37l.19,1.41c.09,1,.19,1.9.23,2.8s0,1.74,0,2.46-.08,1.33-.09,1.76-.08.67-.08.67H478l-.94-7.6-.84-7.61Z"/><path d="M120.6,279.41l-.86-.49c-.57-.32-1.42-.78-2.56-1.32A53.09,53.09,0,0,0,106.91,274a60.86,60.86,0,0,0-16.71-1.58A63.74,63.74,0,0,0,80,273.81a42.27,42.27,0,0,0-10.68,3.72,35.32,35.32,0,0,0-9.78,7.3,34.87,34.87,0,0,0-6.94,11.05,45,45,0,0,0-3,13.55,26.77,26.77,0,0,0,2.74,13.93,24.67,24.67,0,0,0,10.43,10.2,39.55,39.55,0,0,0,22.45,4.08,18.94,18.94,0,0,0,7.25-2.17,3.88,3.88,0,0,0,2-2.39c0-.09,0-.28,0-.29,0-.16,0-.35,0-.49a4.11,4.11,0,0,0-.2-.69,4.77,4.77,0,0,0-.9-1.41,14.67,14.67,0,0,0-6.52-3.63,30,30,0,0,0-15.45-.33,23,23,0,0,0-12.78,8,27.33,27.33,0,0,0-5.26,14.08c-.14,1.25-.21,2.55-.23,3.77a23.72,23.72,0,0,0,.23,3.71,18,18,0,0,0,2.39,6.79c2.48,4.13,6.7,6.87,11.12,8.39a35.19,35.19,0,0,0,13.66,1.71,30.42,30.42,0,0,0,6.53-1.12,13.32,13.32,0,0,0,5.42-2.82,3.5,3.5,0,0,0,1.14-2.22v-.15s0-.1,0-.15a2.7,2.7,0,0,0,0-.37,4.48,4.48,0,0,0-.12-.59,4.77,4.77,0,0,0-.56-1.18,9.39,9.39,0,0,0-4.46-3.23,19.1,19.1,0,0,0-5.5-1.21,30.92,30.92,0,0,0-5.46.06,32.73,32.73,0,0,0-9.82,2.59,40.15,40.15,0,0,0-13.46,9.81,54.08,54.08,0,0,0-6.47,8.74c-.64,1.08-1.12,1.93-1.42,2.5l-.47.87.42-.89c.27-.59.71-1.46,1.3-2.58a52,52,0,0,1,6.11-9.11A41.18,41.18,0,0,1,67.11,361a34.35,34.35,0,0,1,10.2-3.14,24.23,24.23,0,0,1,11.87,1.21,11.2,11.2,0,0,1,5.36,4,6.66,6.66,0,0,1,.79,1.68,6,6,0,0,1,.2,1,3.92,3.92,0,0,1,0,.43v.25l0,.25a5.38,5.38,0,0,1-1.69,3.44,15.06,15.06,0,0,1-6.22,3.3,32.3,32.3,0,0,1-6.94,1.2,37.07,37.07,0,0,1-14.41-1.81,26.19,26.19,0,0,1-6.78-3.46,19.65,19.65,0,0,1-5.34-5.73,19.86,19.86,0,0,1-2.65-7.51,25.84,25.84,0,0,1-.25-4c0-1.36.1-2.65.24-4a29.21,29.21,0,0,1,5.65-15A24.86,24.86,0,0,1,71,324.38a31.89,31.89,0,0,1,16.45.36,16.41,16.41,0,0,1,7.39,4.19,6.65,6.65,0,0,1,1.25,2,5.39,5.39,0,0,1,.32,1.25c0,.19,0,.34,0,.52a4,4,0,0,1,0,.71,4.56,4.56,0,0,1-1.11,2.25,7.78,7.78,0,0,1-1.77,1.45,20.67,20.67,0,0,1-8,2.44,41.45,41.45,0,0,1-23.58-4.29,26.58,26.58,0,0,1-11.21-11,28.67,28.67,0,0,1-3-14.91,46.86,46.86,0,0,1,3.11-14.15,36.78,36.78,0,0,1,7.32-11.65,37.22,37.22,0,0,1,10.31-7.7,46.79,46.79,0,0,1,21.69-5,62,62,0,0,1,16.94,2.4,50,50,0,0,1,10.17,4.12c1.11.6,1.94,1.12,2.49,1.47Z"/><path d="M219.84,391.16a17.78,17.78,0,0,1-5.77,6.35c-1.86,1.22-5.74,3.29-8.1,2.4s-1.86-3.66.14-4.8a12.86,12.86,0,0,1,6.4-1.34c2.59,0,4.93.55,7.48-.12a1,1,0,0,0-.53-1.92c-5.13,1.35-10.44-1.3-15.19,2.19-2.18,1.6-3.5,4.62-1.22,6.77,2.44,2.29,6.55,1.19,9.2.05a19.51,19.51,0,0,0,9.29-8.57c.63-1.12-1.1-2.13-1.72-1Z"/><path d="M553.5,420.43a18,18,0,0,1,8.81-1.33,14.72,14.72,0,0,1,5.27,1.43c1.52.81,5.9,4.35.63,5.45s-8.85-5.78-13.08-7.58c-1.17-.5-2.18,1.22-1,1.72,4.54,1.94,6.9,6.73,12.12,7.7,2.46.46,5.61-.08,6.3-2.89.81-3.31-2.63-5.64-5.27-6.69a19.3,19.3,0,0,0-14.3.26c-1.18.47-.66,2.4.53,1.92Z"/><path d="M189.76,366c-4.09-2.5-19.14-8.52-19.63.91-.47,8.89,15.42,2.5,18.73,1.07,1.17-.51.16-2.23-1-1.72a48.07,48.07,0,0,1-7.36,2.54,20.41,20.41,0,0,1-4.14.75c-2.54.09-2.45.2-2-2.85s.69-3,3.49-2.84a19,19,0,0,1,3.87.74,27.19,27.19,0,0,1,7,3.13c1.1.67,2.1-1.05,1-1.72Z"/><path d="M104.68,667s-.31-.13-.88-.44a14.07,14.07,0,0,1-2.38-1.61,12.67,12.67,0,0,1-3-3.59A11.63,11.63,0,0,1,97,655.16a8.31,8.31,0,0,1,1-3.72,5.18,5.18,0,0,1,1.44-1.62,4.18,4.18,0,0,1,2.21-.76,5.33,5.33,0,0,1,2.35.47,7.18,7.18,0,0,1,1.09.57l.23.16.29.25a2.51,2.51,0,0,1,.47.62,2,2,0,0,1,.05,1.64,3.82,3.82,0,0,1-.78,1.19,9.9,9.9,0,0,1-2,1.59,34.71,34.71,0,0,1-10,3.66,43.07,43.07,0,0,1-11.7.9,25.32,25.32,0,0,1-12.36-3.62,15.33,15.33,0,0,1-2.67-2.21A17.52,17.52,0,0,1,65.46,653a15.78,15.78,0,0,1-1-1.46,14.14,14.14,0,0,1-2.12-6.89,18.08,18.08,0,0,1,5.75-13.34A22.65,22.65,0,0,1,74.33,627a20.75,20.75,0,0,1,7.52-2,12.62,12.62,0,0,1,4.05.4,7.28,7.28,0,0,1,3.69,2.24,4.71,4.71,0,0,1,1,2.14,4.64,4.64,0,0,1-.19,2.38,7.53,7.53,0,0,1-2.71,3.42,20.29,20.29,0,0,1-7.49,3.15,52.89,52.89,0,0,1-7.94,1.11A67.45,67.45,0,0,1,56.19,639a37.67,37.67,0,0,1-15.25-5.83,21.2,21.2,0,0,1-5.77-6,19.88,19.88,0,0,1-2.77-7.87,23.54,23.54,0,0,1-.2-4.14,21,21,0,0,1,.58-4.14,22.3,22.3,0,0,1,3.44-7.48,35.63,35.63,0,0,1,12.09-10.42,50.64,50.64,0,0,1,14.57-5.34,32.61,32.61,0,0,1,7.65-.66,14.64,14.64,0,0,1,3.87.66,7.29,7.29,0,0,1,1.88.91,4.52,4.52,0,0,1,1.5,1.71,4.22,4.22,0,0,1,.38,2.23,4.62,4.62,0,0,1-.74,2.14,7,7,0,0,1-3.22,2.48A19.61,19.61,0,0,1,67,598.5,36.66,36.66,0,0,1,53.54,596a26.54,26.54,0,0,1-5.81-3.13,16.17,16.17,0,0,1-4.46-4.71A11.16,11.16,0,0,1,41.69,582a12.71,12.71,0,0,1,.46-3c.12-.49.28-.94.42-1.38s.33-.92.52-1.35A16.87,16.87,0,0,1,50,568.2a22.26,22.26,0,0,1,8.84-2.84,38.23,38.23,0,0,1,7.82-.07,59,59,0,0,1,10.7,2c2.42.69,3.67,1.16,3.67,1.16s-1.27-.42-3.71-1a59.64,59.64,0,0,0-10.71-1.59,37.52,37.52,0,0,0-7.66.33,21.26,21.26,0,0,0-8.34,3,15.5,15.5,0,0,0-6.11,7.66c-.16.41-.3.83-.43,1.24s-.27.88-.35,1.31a11,11,0,0,0-.29,2.63,10.21,10.21,0,0,0,1.48,5.11c1.9,3.21,5.44,5.52,9.31,7.06A34.8,34.8,0,0,0,67,596.6a17.83,17.83,0,0,0,6.49-1.1,5.16,5.16,0,0,0,2.37-1.76,2.73,2.73,0,0,0,.43-1.22,2.32,2.32,0,0,0-.2-1.29,3.69,3.69,0,0,0-2.28-1.65,12.81,12.81,0,0,0-3.36-.56,30.77,30.77,0,0,0-7.19.63,48.76,48.76,0,0,0-14,5.13,33.76,33.76,0,0,0-11.45,9.84,20.4,20.4,0,0,0-3.16,6.85,19.06,19.06,0,0,0-.53,3.74,21.66,21.66,0,0,0,.18,3.83,18,18,0,0,0,2.51,7.13A19.3,19.3,0,0,0,42,631.65a35.83,35.83,0,0,0,14.48,5.51,65.58,65.58,0,0,0,15.63.73,51.13,51.13,0,0,0,7.63-1.07A18.51,18.51,0,0,0,86.56,634a5.69,5.69,0,0,0,2.05-2.52,2.68,2.68,0,0,0-.5-2.69,5.43,5.43,0,0,0-2.74-1.62,10.74,10.74,0,0,0-3.44-.33,18.89,18.89,0,0,0-6.81,1.83,20.75,20.75,0,0,0-5.73,4,16.19,16.19,0,0,0-5.18,11.9,12.23,12.23,0,0,0,1.84,6,13.9,13.9,0,0,0,.89,1.28,15.1,15.1,0,0,0,1,1.16,13.41,13.41,0,0,0,2.36,2,23.48,23.48,0,0,0,11.42,3.31A47.89,47.89,0,0,0,93,657.37a33.19,33.19,0,0,0,9.6-3.09,8.58,8.58,0,0,0,1.8-1.28c.49-.49.74-1,.56-1.33a1.28,1.28,0,0,0-.2-.29l-.13-.13-.22-.17a6.23,6.23,0,0,0-.86-.5,4.21,4.21,0,0,0-1.83-.46,3.5,3.5,0,0,0-2.91,1.77,7.5,7.5,0,0,0-1.06,3.3,11.3,11.3,0,0,0,1.12,5.91,12.34,12.34,0,0,0,2.7,3.64,14,14,0,0,0,2.27,1.71C104.38,666.81,104.68,667,104.68,667Z"/><path d="M27.44,455.5l.07.59c0,.39.11,1,.25,1.7A30.18,30.18,0,0,0,29.51,464a19.82,19.82,0,0,0,5.68,8,16,16,0,0,0,5.22,2.88,19,19,0,0,0,6.52.88,25.3,25.3,0,0,0,7.15-1.11,29.93,29.93,0,0,0,7.15-3.08,13.42,13.42,0,0,0,3-2.47A4.58,4.58,0,0,0,65.62,466a3,3,0,0,0-2.09-2.39,8.9,8.9,0,0,0-4-.44,18.32,18.32,0,0,0-8.13,2.92,21.11,21.11,0,0,0-6.2,6.44,24.38,24.38,0,0,0-3.27,17.74,19.31,19.31,0,0,0,3.92,8.22,20,20,0,0,0,7.23,5.46,29,29,0,0,0,8.78,2.33,36.28,36.28,0,0,0,8.92,0c2.85-.41,5.65-1.35,7.45-3.21a5.75,5.75,0,0,0,1.61-3.26,5.16,5.16,0,0,0-.75-3.4,3.59,3.59,0,0,0-2.59-1.75,3.25,3.25,0,0,0-2.67,1.3,9.19,9.19,0,0,0-2.23,6.26,8.76,8.76,0,0,0,.65,3.11,9.68,9.68,0,0,0,1.65,2.57,14.09,14.09,0,0,0,4.67,3.5,31.44,31.44,0,0,0,9.58,2.61c2.78.33,5,.43,6.5.47s2.31,0,2.31,0-.8.08-2.31.18a56.64,56.64,0,0,1-6.57.07,32.48,32.48,0,0,1-10.12-2,15.2,15.2,0,0,1-5.51-3.58,10.76,10.76,0,0,1-2.76-6.91,11.05,11.05,0,0,1,2.74-7.59,6.7,6.7,0,0,1,1.8-1.41,4.21,4.21,0,0,1,2.47-.48,5.49,5.49,0,0,1,4,2.62,7.06,7.06,0,0,1,1,4.65,7.65,7.65,0,0,1-2.12,4.34c-2.31,2.35-5.49,3.32-8.55,3.78a38.13,38.13,0,0,1-9.41,0,30.87,30.87,0,0,1-9.35-2.49,21.88,21.88,0,0,1-7.91-6,21.21,21.21,0,0,1-4.31-9A26.26,26.26,0,0,1,43.6,471.5a23,23,0,0,1,6.77-7,20.19,20.19,0,0,1,9-3.23,10.74,10.74,0,0,1,4.85.57,5.82,5.82,0,0,1,2.18,1.47,4.29,4.29,0,0,1,1.1,2.52,6.4,6.4,0,0,1-1.81,4.59,15.27,15.27,0,0,1-3.46,2.84,31.75,31.75,0,0,1-7.61,3.29A28.28,28.28,0,0,1,47,477.75,18.42,18.42,0,0,1,34.4,473a20.72,20.72,0,0,1-5.46-8.72,29.51,29.51,0,0,1-1.33-6.44c-.08-.75-.11-1.33-.13-1.72Z"/><circle class="cls-7" cx="492.88" cy="773.21" r="6.23"/><path class="cls-7" d="M482.36,776.05l-.29-2.09a2.93,2.93,0,0,1,2.49-3.31l5-.7a4,4,0,0,1,1.11,7.9l-5,.7A2.93,2.93,0,0,1,482.36,776.05Z"/><path class="cls-16" d="M488.3,778.58A3.32,3.32,0,0,1,485,781.9h-5.49c-4,0-4.15,6-.16,6.14H480C489.14,788,488.3,778.58,488.3,778.58Z"/><path class="cls-7" d="M485.64,770.29a6.52,6.52,0,0,1,1.11,7.9"/><path class="cls-9" d="M1053.23,238.35c26-7.86,52.11-15.78,76.33-28,8.94-4.53,17.69-9.67,27.32-12.44,11.85-3.4,24.43-3,36.72-2.23q18.8,1.24,37.43,4.08c5,.76,10,1.69,14.62,3.8,4.75,2.18,8.84,5.55,13.3,8.27,10.61,6.47,23,9.15,34.9,12.81a208.18,208.18,0,0,1,42.48,18.47c12.36,7.11,24,15.5,37,21.39,18,8.19,109.83,97.64,145,129.87a6,6,0,0,1-3.94,10.43l-78.51,1.68H1050.78Z"/><path d="M1053.57,239.58c15.66-4.74,31.33-9.48,46.66-15.2,14.45-5.39,28-12.18,41.8-19.06,8.19-4.08,16.56-7.21,25.69-8.3a133.73,133.73,0,0,1,24-.21q12.2.74,24.35,2.18c8.33,1,17.28,1.63,25.29,4.27,7.69,2.54,13.65,8.14,20.78,11.79a114.74,114.74,0,0,0,20.23,7.53c15.68,4.6,30.9,9.76,45.45,17.32,14,7.26,26.72,16.7,40.82,23.75a83,83,0,0,1,13.65,8.28c13.66,10.39,26.38,22.11,39.07,33.65,16.17,14.7,32.11,29.64,48,44.62,13.92,13.1,27.77,26.28,41.77,39.29,3,2.76,11.07,8.3,6.35,12.67-1.53,1.42-3.57,1.32-5.43,1.36l-17.35.37c-20.35.43-40.72,1.26-61.07,1.26H1050.78l1.28,1.28,2.14-147,.31-21.06a1.28,1.28,0,0,0-2.57,0l-2.14,147-.31,21.06a1.3,1.3,0,0,0,1.28,1.28H1431c18,0,36-.66,54-1l22.2-.47c3.3-.07,8.15.59,11.06-1.34,8.25-5.46-.6-12.85-4.94-16.89q-9.86-9.16-19.64-18.42c-31.09-29.31-61.86-59.11-94.3-86.94-5.4-4.63-10.86-9.22-16.55-13.5-5.35-4-10.92-6.55-16.81-9.74-14.14-7.64-27.18-17.06-41.66-24.11-14.13-6.88-28.85-11.39-43.85-15.93-7.81-2.37-15.48-5.17-22.39-9.59-6.27-4-11.94-8.09-19.29-9.87-15.48-3.76-32.16-4.77-48-5.7s-30.77,0-45.32,6.63c-15.43,7-30,15.14-46,21.09-15.33,5.72-31,10.47-46.66,15.2A1.29,1.29,0,0,0,1053.57,239.58Z"/><path class="cls-9" d="M1156.28,359.9c4.92-6.33,6.52-2,14-10.6,4-4.64,6.67-10.29,9.27-15.85l32.34-69.19c4.27-9.14,9.9-19.39,19.8-21.31,5.64-1.1,11.54.87,17.19-.17,7.8-1.44,13.67-8.28,21.37-10.16,8.74-2.13,17.56,2.52,25.36,7l24.17,13.9c5.66,3.25,11.61,6.81,14.61,12.6,2.82,5.45,2.54,12,4.8,17.71,6.52,16.51,29.68,18.67,41.31,32.08,4.32,5,6.79,11.26,9.1,17.44,4.36,11.71,74.41,65.37,64.22,72.6-3.91,2.78-107.31.18-121.58,0-42.69-.61-162.12.8-178.49-.78-3.39-.33-7-.77-9.54-3.09-4.37-4.07-2.72-23.52.84-28.31S1153.69,365.28,1156.28,359.9Z"/><path d="M1157.34,361a15.48,15.48,0,0,1,6.22-4.39,23.17,23.17,0,0,0,7.78-6.2c6.2-7.2,9.67-16.51,13.65-25,9.59-20.52,19-41.16,28.78-61.57,3.78-7.87,8.88-17.58,18.31-19.37,5-.95,10.07.55,15.09.11,4.11-.36,7.76-2.08,11.26-4.17,3.92-2.33,7.71-5.17,12.21-6.27,6.71-1.64,13.56,1.15,19.41,4.2,10.06,5.23,19.81,11.23,29.62,16.93,4,2.32,8.12,4.75,11.14,8.31,3.88,4.57,4.28,10.32,5.53,15.91A28.06,28.06,0,0,0,1347,296c12.68,9.81,29.3,12.81,37.12,28.17,2.29,4.5,3.35,9.49,6.43,13.52a90.26,90.26,0,0,0,8.09,8.83c8,8,16.49,15.59,24.78,23.34,8,7.5,16.19,15,23.35,23.37,2.2,2.56,4.95,5.53,6.09,8.78.7,2,.6,2.28-.83,2.84-2.19.85-5.62.46-7.92.55-4.38.16-8.76.22-13.14.25-11.72.1-23.45,0-35.17-.15-43.19-.52-86.33-1.34-129.53-1.23-27.44.07-54.89.22-82.33,0-8.62-.06-17.25-.07-25.87-.45-4.61-.2-11.76.09-13.89-4.63-2.59-5.76-1.28-14.92.4-20.74,2.07-7.18,9.5-11.37,13-17.9.91-1.7-1.68-3.22-2.59-1.51-3.65,6.85-11.1,11-13.28,18.61a44.64,44.64,0,0,0-1.17,19.24c1.79,10.23,12.64,9.8,21,10.05,24.87.74,49.79.41,74.66.36q71.74-.16,143.41.92c22.72.36,45.71,1.35,68.41-.06,3.74-.23,8.9-.2,8.18-5.4-1-6.91-9-13.81-13.53-18.47-8.66-8.95-17.9-17.32-27-25.79-7.61-7.06-15.86-14-22.34-22.17-3.37-4.25-4.45-9.71-7-14.47-3.9-7.33-9.81-12.4-16.91-16.5s-15-7.17-21.39-12.41a25.17,25.17,0,0,1-6.82-8.31c-2.45-5-2.4-10.72-4.13-16-2.89-8.74-10.75-13.23-18.29-17.56-10.53-6.06-21-13.22-32.22-17.92-8.27-3.46-16.05-3.51-23.9.91-4.17,2.35-8.07,5.53-12.77,6.78-5.58,1.48-11.29-.4-16.93.26-7.83.91-13.41,6.5-17.44,12.89-5.67,9-9.59,19.26-14.08,28.87l-15.75,33.71c-4.7,10.06-8.66,21.56-15.58,30.35a23,23,0,0,1-9.17,7.32,14.73,14.73,0,0,0-5.75,4.44C1154,360.32,1156.11,362.46,1157.34,361Z"/><path d="M1230.22,265.5a1.5,1.5,0,0,0,0-3,1.5,1.5,0,0,0,0,3Z"/><path d="M1240.22,265.5h3a1.5,1.5,0,0,0,0-3h-3a1.5,1.5,0,0,0,0,3Z"/><path d="M1244.16,266.06l1,1a1.5,1.5,0,1,0,2.12-2.12l-1-1a1.5,1.5,0,0,0-2.12,2.12Z"/><path d="M1248.16,269.06l2,2a1.5,1.5,0,1,0,2.12-2.12l-2-2a1.5,1.5,0,0,0-2.12,2.12Z"/><path d="M1254.22,274.5a1.5,1.5,0,0,0,0-3,1.5,1.5,0,0,0,0,3Z"/><path d="M1258.22,284.5a1.5,1.5,0,0,0,0-3,1.5,1.5,0,0,0,0,3Z"/><path d="M1261.22,291.5a1.5,1.5,0,0,0,0-3,1.5,1.5,0,0,0,0,3Z"/><path d="M1262.72,295v3a1.5,1.5,0,0,0,3,0v-3a1.5,1.5,0,0,0-3,0Z"/><path d="M1264.83,304.38l1,3a1.54,1.54,0,0,0,1.85,1,1.51,1.51,0,0,0,1-1.85l-1-3a1.54,1.54,0,0,0-1.85-1,1.51,1.51,0,0,0-1,1.85Z"/><path d="M1268.16,311.06l1,1a1.5,1.5,0,1,0,2.12-2.12l-1-1a1.5,1.5,0,0,0-2.12,2.12Z"/><path d="M1272.46,316.3l2,1a1.54,1.54,0,0,0,2.05-.54,1.51,1.51,0,0,0-.54-2.05l-2-1a1.54,1.54,0,0,0-2.05.54,1.51,1.51,0,0,0,.54,2.05Z"/><path d="M1278.16,318.06l1,1a1.5,1.5,0,1,0,2.12-2.12l-1-1a1.5,1.5,0,0,0-2.12,2.12Z"/><path d="M1285.85,322.37l3,1a1.5,1.5,0,0,0,.8-2.89l-3-1a1.5,1.5,0,0,0-.8,2.89Z"/><path d="M1293.52,324.19l2,1a1.54,1.54,0,0,0,2.05-.54,1.52,1.52,0,0,0-.54-2.05l-2-1a1.54,1.54,0,0,0-2.05.54,1.52,1.52,0,0,0,.54,2.05Z"/><path d="M1301.16,327.06l1,1a1.5,1.5,0,1,0,2.12-2.12l-1-1a1.5,1.5,0,0,0-2.12,2.12Z"/><path d="M1327.22,294.5a1.5,1.5,0,0,0,0-3,1.5,1.5,0,0,0,0,3Z"/><path d="M1326.83,295.38l1,3a1.54,1.54,0,0,0,1.85,1,1.51,1.51,0,0,0,1-1.85l-1-3a1.54,1.54,0,0,0-1.85-1,1.51,1.51,0,0,0-1,1.85Z"/><path d="M1328.72,302v1a1.5,1.5,0,0,0,3,0v-1a1.5,1.5,0,0,0-3,0Z"/><path d="M1330.22,312.5a1.5,1.5,0,0,0,0-3,1.5,1.5,0,0,0,0,3Z"/><path d="M1327.72,315v3a1.5,1.5,0,0,0,3,0v-3a1.5,1.5,0,0,0-3,0Z"/><path d="M1327.72,326v1a1.5,1.5,0,0,0,3,0v-1a1.5,1.5,0,0,0-3,0Z"/><path d="M1327.72,331v3a1.5,1.5,0,0,0,3,0v-3a1.5,1.5,0,0,0-3,0Z"/><path d="M1328.72,338.41l1,4c.47,1.87,3.36,1.08,2.89-.8l-1-4c-.47-1.87-3.36-1.08-2.89.8Z"/><path d="M1331.16,346.06l2,2a1.5,1.5,0,1,0,2.12-2.12l-2-2a1.5,1.5,0,0,0-2.12,2.12Z"/><path d="M1334.89,349.78l2,3a1.53,1.53,0,0,0,2.05.54,1.52,1.52,0,0,0,.54-2.05l-2-3a1.53,1.53,0,0,0-2.05-.54,1.52,1.52,0,0,0-.54,2.05Z"/><path d="M1340.16,355.06l2,2a1.5,1.5,0,1,0,2.12-2.12l-2-2a1.5,1.5,0,0,0-2.12,2.12Z"/><path d="M1344.93,360.76l1,2a1.5,1.5,0,1,0,2.59-1.51l-1-2a1.5,1.5,0,1,0-2.59,1.51Z"/><path d="M1345.72,366v4a1.5,1.5,0,0,0,3,0v-4a1.5,1.5,0,0,0-3,0Z"/><path d="M1342.22,382.5a1.5,1.5,0,0,0,0-3,1.5,1.5,0,0,0,0,3Z"/><path d="M1336.93,383.24l-1,2a1.54,1.54,0,0,0,.54,2.05,1.51,1.51,0,0,0,2.05-.54l1-2a1.54,1.54,0,0,0-.54-2.05,1.51,1.51,0,0,0-2.05.54Z"/><path d="M1328.22,393.5a1.5,1.5,0,0,0,0-3,1.5,1.5,0,0,0,0,3Z"/><path d="M1322.16,391.94l-1,1a1.5,1.5,0,0,0,2.12,2.12l1-1a1.5,1.5,0,0,0-2.12-2.12Z"/><path d="M1317.22,392.5h-1a1.5,1.5,0,0,0,0,3h1a1.5,1.5,0,0,0,0-3Z"/><path d="M1312.22,396.5a1.5,1.5,0,0,0,0-3,1.5,1.5,0,0,0,0,3Z"/><path class="cls-9" d="M1214.84,405.95c3.64-32.79-32.28-77.87-52-104.33-8-10.71-17-22.14-30-25.3-5-1.23-32.4-3.1-37.3-4.8-9.33-3.24-15.11-10.26-21.94-17.39-16.31-17-40.1-24.2-62.77-30.71-7-2-14.57-4-21.46-1.63-5.85,2-10.18,6.87-14.74,11.07-26.79,24.7-65.85,29.68-98.47,45.92-28.57,14.23-51.85,37-74.61,59.34-8,7.89-16.25,16-20.86,26.31S718.11,398,719.45,410c0,0,81.82.4,94.66.74,110.84,3,248.26-.35,359-4.84,10.55-.43,41.69,0,41.69,0"/><path d="M1216.12,405.95c2-20.71-8.93-41.29-19.33-58.4a485,485,0,0,0-38.74-54.26c-6.66-8.15-15-16.24-25.67-18.39-7.44-1.49-15.22-1.75-22.76-2.57a117.62,117.62,0,0,1-11.71-1.56c-5.54-1.18-10.37-4.66-14.46-8.43-4.69-4.32-8.7-9.33-13.52-13.52a85.84,85.84,0,0,0-14.58-10.14c-10.93-6.1-22.87-10.17-34.81-13.77-11.32-3.41-24.78-9-35.9-2.23-5,3-8.81,7.59-13.19,11.35a101.44,101.44,0,0,1-16.14,11.2c-11.21,6.35-23.31,10.92-35.42,15.21-24.51,8.68-48.16,17.22-69.44,32.62a320.67,320.67,0,0,0-30.92,26c-10,9.38-20.41,18.83-29.45,29.18-6.28,7.21-9.18,16.28-17.07,21.84-7.29,5.13-15.23,9.36-22.95,13.79-7.92,4.54-16,9-23.26,14.6-3.44,2.64-9,6.64-8.67,11.58a1.31,1.31,0,0,0,1.28,1.28c44.75.22,89.46.92,134.2,1.53,86.52,1.18,173.09-.55,259.56-3.42,33.91-1.12,67.7-2.67,101.63-2.17a1.28,1.28,0,0,0,0-2.57c-28.82-.43-57.48.64-86.28,1.64q-64.29,2.25-128.61,3.43c-43.67.76-87.34,1.1-131,.69-28-.26-56-1.08-84-1.3q-32.72-.26-65.44-.41l1.28,1.28c-.28-4.77,7-9.15,10.24-11.44,6.53-4.6,13.5-8.55,20.42-12.52s13.65-7.66,20.19-11.93c3.75-2.45,8-5.07,10.3-9,3.41-5.84,6.59-11.24,11.18-16.34,4.19-4.66,8.74-9,13.21-13.38,9.56-9.37,19.21-18.68,29.4-27.37a218.2,218.2,0,0,1,33.55-24c11.11-6.31,23-11,35-15.31,21.73-7.77,44.58-14.43,63.4-28.3A128.24,128.24,0,0,0,979,230.55c6.66-6.23,13.3-9.61,22.59-8.09,12.35,2,25.11,6.63,36.75,11.15,12.18,4.73,23.94,11,33.28,20.28,7.28,7.23,14.08,16.29,24.48,19.11,14.35,3.89,31.28.27,44.53,7.83,11.57,6.6,19.11,18.78,26.91,29.19,7.06,9.42,14.06,18.9,20.57,28.71,12.75,19.22,27.76,43.12,25.43,67.22-.16,1.64,2.41,1.63,2.57,0Z"/><path d="M1134.42,393.11a1.28,1.28,0,0,0,0-2.57,1.28,1.28,0,0,0,0,2.57Z"/><path d="M1148.86,393.11a1.28,1.28,0,0,0,0-2.57,1.28,1.28,0,0,0,0,2.57Z"/><path d="M1154.27,382.29a1.28,1.28,0,0,0,0-2.57,1.28,1.28,0,0,0,0,2.57Z"/><path d="M1158.79,380.11l1.8-1.8a1.28,1.28,0,0,0-1.82-1.82l-1.8,1.8a1.28,1.28,0,0,0,1.82,1.82Z"/><path d="M1167.55,374.9l3.61-1.8c1.48-.74.18-3-1.3-2.22l-3.61,1.8c-1.48.74-.18,3,1.3,2.22Z"/><path d="M1174.12,364.24a1.28,1.28,0,0,0,0-2.57,1.28,1.28,0,0,0,0,2.57Z"/><path d="M1175.92,351.61a1.28,1.28,0,0,0,0-2.57,1.28,1.28,0,0,0,0,2.57Z"/><path d="M784.11,384.5a1.5,1.5,0,0,0,0-3,1.5,1.5,0,0,0,0,3Z"/><path d="M786.69,384.3l2.67,2a1.51,1.51,0,0,0,2.05-.54,1.54,1.54,0,0,0-.54-2.05l-2.67-2a1.51,1.51,0,0,0-2.05.54,1.54,1.54,0,0,0,.54,2.05Z"/><path d="M791.35,386.3l1.33.67a1.54,1.54,0,0,0,2.05-.54,1.51,1.51,0,0,0-.54-2.05l-1.33-.67a1.54,1.54,0,0,0-2.05.54,1.51,1.51,0,0,0,.54,2.05Z"/><path d="M796,388.3l1.33.67a1.54,1.54,0,0,0,2.05-.54,1.51,1.51,0,0,0-.54-2.05l-1.33-.67a1.54,1.54,0,0,0-2.05.54,1.51,1.51,0,0,0,.54,2.05Z"/><path d="M800.69,390.3,802,391a1.54,1.54,0,0,0,2.05-.54,1.51,1.51,0,0,0-.54-2.05l-1.33-.67a1.54,1.54,0,0,0-2.05.54,1.51,1.51,0,0,0,.54,2.05Z"/><path d="M806,393l1.33.67a1.54,1.54,0,0,0,2.05-.54,1.51,1.51,0,0,0-.54-2.05l-1.33-.67a1.54,1.54,0,0,0-2.05.54A1.51,1.51,0,0,0,806,393Z"/><path d="M811.35,394.31a8.41,8.41,0,0,0,5.16.79,1.51,1.51,0,0,0,1-1.85,1.54,1.54,0,0,0-1.85-1,4.88,4.88,0,0,1-2.85-.49c-1.72-.86-3.24,1.73-1.51,2.59Z"/><path d="M820.76,396l9.35,1.19c1.91.24,1.89-2.76,0-3L820.76,393c-1.91-.24-1.89,2.76,0,3Z"/><path d="M836.06,398.22l1.33.68a1.54,1.54,0,0,0,2.05-.54,1.52,1.52,0,0,0-.54-2.05l-1.33-.68a1.54,1.54,0,0,0-2.05.54,1.52,1.52,0,0,0,.54,2.05Z"/><path d="M851.45,399.83h1.33a1.5,1.5,0,0,0,0-3h-1.33a1.5,1.5,0,0,0,0,3Z"/><path d="M856.11,399.83h2a1.5,1.5,0,0,0,0-3h-2a1.5,1.5,0,0,0,0,3Z"/><path d="M862.34,399.89l2,.65a1.51,1.51,0,0,0,1.85-1,1.53,1.53,0,0,0-1-1.85l-2-.65a1.51,1.51,0,0,0-1.85,1,1.53,1.53,0,0,0,1,1.85Z"/><path d="M869.45,400.5h2a1.5,1.5,0,0,0,0-3h-2a1.5,1.5,0,0,0,0,3Z"/><path d="M877.45,401.17h2a1.5,1.5,0,0,0,0-3h-2a1.5,1.5,0,0,0,0,3Z"/><path d="M881.68,401.89l2,.65a1.51,1.51,0,0,0,1.85-1,1.53,1.53,0,0,0-1-1.85l-2-.65a1.51,1.51,0,0,0-1.85,1,1.53,1.53,0,0,0,1,1.85Z"/><path d="M894.78,402.5h1.33a1.5,1.5,0,0,0,0-3h-1.33a1.5,1.5,0,1,0,0,3Z"/><path d="M900,402.94l2,1.32a1.5,1.5,0,1,0,1.51-2.59l-2-1.32a1.5,1.5,0,1,0-1.51,2.59Z"/><path d="M905.72,404.06l.67.67a1.5,1.5,0,0,0,2.12-2.12l-.67-.67a1.5,1.5,0,0,0-2.12,2.12Z"/><path d="M912.78,404.5h2a1.5,1.5,0,0,0,0-3h-2a1.5,1.5,0,1,0,0,3Z"/><path d="M922.78,403.83h.67a1.5,1.5,0,0,0,0-3h-.67a1.5,1.5,0,0,0,0,3Z"/><path d="M950.11,405.83a1.5,1.5,0,0,0,0-3,1.5,1.5,0,0,0,0,3Z"/><path d="M824.78,343h.67a1.28,1.28,0,0,0,0-2.57h-.67a1.28,1.28,0,0,0,0,2.57Z"/><path d="M829.43,340.78l2-1.33a1.31,1.31,0,0,0,.46-1.76,1.3,1.3,0,0,0-1.76-.46l-2,1.33a1.31,1.31,0,0,0-.46,1.76,1.3,1.3,0,0,0,1.76.46Z"/><path d="M833.45,337.62a1.28,1.28,0,0,0,0-2.57,1.28,1.28,0,0,0,0,2.57Z"/><path d="M836.09,336.11l1.33-.67a1.28,1.28,0,1,0-1.3-2.22l-1.33.67a1.28,1.28,0,0,0,1.3,2.22Z"/><path d="M838.76,334.11l1.33-.67a1.28,1.28,0,0,0-1.3-2.22l-1.33.67a1.28,1.28,0,1,0,1.3,2.22Z"/><path d="M845.11,332.19l3.33-.67a1.28,1.28,0,1,0-.68-2.48l-3.33.67a1.28,1.28,0,1,0,.68,2.48Z"/><path d="M851.45,331h1.33a1.28,1.28,0,0,0,0-2.57h-1.33a1.28,1.28,0,0,0,0,2.57Z"/><path d="M854.78,331h.67a1.28,1.28,0,0,0,0-2.57h-.67a1.28,1.28,0,0,0,0,2.57Z"/><path d="M857.46,330.18l1.33-.68a1.28,1.28,0,1,0-1.3-2.22l-1.33.68a1.28,1.28,0,0,0,1.3,2.22Z"/><path d="M863,326.57l.67-.67a1.28,1.28,0,0,0-1.82-1.82l-.67.67a1.28,1.28,0,0,0,1.82,1.82Z"/><path d="M867.89,321.65l.67-1.33a1.32,1.32,0,0,0-.46-1.76,1.3,1.3,0,0,0-1.76.46l-.67,1.33a1.32,1.32,0,0,0,.46,1.76,1.3,1.3,0,0,0,1.76-.46Z"/><path d="M871.28,317.68l.67-1.33a1.32,1.32,0,0,0-.46-1.76,1.3,1.3,0,0,0-1.76.46l-.67,1.33a1.32,1.32,0,0,0,.46,1.76,1.3,1.3,0,0,0,1.76-.46Z"/><path d="M875.22,312.31l.67-1.33a1.32,1.32,0,0,0-.46-1.76,1.3,1.3,0,0,0-1.76.46L873,311a1.32,1.32,0,0,0,.46,1.76,1.3,1.3,0,0,0,1.76-.46Z"/><path d="M877,303.24l.67-.67a1.28,1.28,0,0,0-1.82-1.82l-.67.67a1.28,1.28,0,0,0,1.82,1.82Z"/><path d="M879.22,299l.67-1.33a1.32,1.32,0,0,0-.46-1.76,1.3,1.3,0,0,0-1.76.46l-.67,1.33a1.32,1.32,0,0,0,.46,1.76,1.3,1.3,0,0,0,1.76-.46Z"/><path d="M881,295.91l.67-.67a1.28,1.28,0,0,0-1.82-1.82l-.67.67a1.28,1.28,0,0,0,1.82,1.82Z"/><path d="M884.76,291.44l1.33-.67a1.28,1.28,0,0,0-1.3-2.22l-1.33.67a1.28,1.28,0,1,0,1.3,2.22Z"/><path d="M887.45,289a1.28,1.28,0,0,0,0-2.57,1.28,1.28,0,0,0,0,2.57Z"/><path d="M890.09,285.44l1.33-.67a1.28,1.28,0,1,0-1.3-2.22l-1.33.67a1.28,1.28,0,0,0,1.3,2.22Z"/><path d="M892.11,283a1.28,1.28,0,0,0,0-2.57,1.28,1.28,0,0,0,0,2.57Z"/><path d="M894.43,282.15l2.66-.68a1.29,1.29,0,0,0-.68-2.48l-2.66.68a1.29,1.29,0,0,0,.68,2.48Z"/><path d="M898.78,281.62a1.28,1.28,0,0,0,0-2.57,1.28,1.28,0,0,0,0,2.57Z"/><path d="M900.11,281.62a1.28,1.28,0,0,0,0-2.57,1.28,1.28,0,0,0,0,2.57Z"/><path d="M1090.78,271a1.28,1.28,0,0,0,0-2.57,1.28,1.28,0,0,0,0,2.57Z"/><path d="M1090.11,267.72h-.67a1.28,1.28,0,0,0,0,2.57h.67a1.28,1.28,0,0,0,0-2.57Z"/><path d="M1086.11,267.72h-.67a1.28,1.28,0,0,0,0,2.57h.67a1.28,1.28,0,0,0,0-2.57Z"/><path d="M1078.11,269.72h-.67a1.28,1.28,0,0,0,0,2.57h.67a1.28,1.28,0,0,0,0-2.57Z"/><path d="M1068.8,270.56l-1.33.67a1.28,1.28,0,0,0,1.3,2.22l1.33-.67a1.28,1.28,0,0,0-1.3-2.22Z"/><path d="M1058.11,276.28a1.28,1.28,0,0,0,0-2.57,1.28,1.28,0,0,0,0,2.57Z"/><path d="M1054.11,277a1.28,1.28,0,0,0,0-2.57,1.28,1.28,0,0,0,0,2.57Z"/><path d="M1051.45,277a1.28,1.28,0,0,0,0-2.57,1.28,1.28,0,0,0,0,2.57Z"/><path d="M1050.78,276.28a1.28,1.28,0,0,0,0-2.57,1.28,1.28,0,0,0,0,2.57Z"/><path d="M1134.11,307.62a1.28,1.28,0,0,0,0-2.57,1.28,1.28,0,0,0,0,2.57Z"/><path d="M1137.45,311.47l2,1.33a1.28,1.28,0,0,0,1.3-2.22l-2-1.33a1.28,1.28,0,0,0-1.3,2.22Z"/><path d="M1143.45,315.47l2,1.33a1.28,1.28,0,0,0,1.3-2.22l-2-1.33a1.28,1.28,0,0,0-1.3,2.22Z"/><path d="M1150.77,320.84l1.33.67a1.32,1.32,0,0,0,1.76-.46,1.3,1.3,0,0,0-.46-1.76l-1.33-.67a1.32,1.32,0,0,0-1.76.46,1.3,1.3,0,0,0,.46,1.76Z"/><path d="M1155.46,324.11l1.33.67a1.32,1.32,0,0,0,1.76-.46,1.3,1.3,0,0,0-.46-1.76l-1.33-.67a1.32,1.32,0,0,0-1.76.46,1.3,1.3,0,0,0,.46,1.76Z"/><path d="M1160.78,327.62a1.28,1.28,0,0,0,0-2.57,1.28,1.28,0,0,0,0,2.57Z"/><path d="M1163,330.31l.67,1.33a1.28,1.28,0,1,0,2.22-1.3l-.67-1.33a1.28,1.28,0,1,0-2.22,1.3Z"/><path d="M1166.54,334.57l1.33,1.33a1.28,1.28,0,0,0,1.82-1.82l-1.33-1.33a1.28,1.28,0,0,0-1.82,1.82Z"/><path d="M1169.67,338.31l.67,1.33a1.28,1.28,0,1,0,2.22-1.3l-.67-1.33a1.28,1.28,0,1,0-2.22,1.3Z"/><path d="M1171.73,340.95l.67,1.33a1.28,1.28,0,1,0,2.22-1.3l-.67-1.33a1.28,1.28,0,1,0-2.22,1.3Z"/><path d="M942.11,370.28a1.28,1.28,0,0,0,0-2.57,1.28,1.28,0,0,0,0,2.57Z"/><path d="M949.77,370.24l3.33.67a1.32,1.32,0,0,0,1.58-.9,1.3,1.3,0,0,0-.9-1.58l-3.33-.67a1.32,1.32,0,0,0-1.58.9,1.3,1.3,0,0,0,.9,1.58Z"/><path d="M958.81,371.42l2,1.32a1.28,1.28,0,1,0,1.3-2.22l-2-1.32a1.28,1.28,0,0,0-1.3,2.22Z"/><path d="M974.8,378.78l3.33,2a1.29,1.29,0,0,0,1.3-2.22l-3.33-2a1.29,1.29,0,0,0-1.3,2.22Z"/><path d="M985.87,382.57l.67.67a1.28,1.28,0,0,0,1.82-1.82l-.67-.67a1.28,1.28,0,0,0-1.82,1.82Z"/><path d="M992.78,385h1.33a1.28,1.28,0,0,0,0-2.57h-1.33a1.28,1.28,0,0,0,0,2.57Z"/><path d="M1008.78,386.14l2,1.33a1.28,1.28,0,1,0,1.3-2.22l-2-1.33a1.28,1.28,0,0,0-1.3,2.22Z"/><path d="M1014.34,387.65,1015,389a1.28,1.28,0,1,0,2.22-1.3l-.67-1.33a1.28,1.28,0,0,0-2.22,1.3Z"/><path d="M1020.45,390.85l2,.68a1.28,1.28,0,1,0,.68-2.48l-2-.68a1.28,1.28,0,0,0-.68,2.48Z"/><path d="M1025.77,392.24l3.33,1.33a1.29,1.29,0,0,0,1.58-.9,1.32,1.32,0,0,0-.9-1.58l-3.33-1.33a1.29,1.29,0,0,0-1.58.9,1.32,1.32,0,0,0,.9,1.58Z"/><path d="M1036.77,396.16l2.67,1.33a1.32,1.32,0,0,0,1.76-.46,1.3,1.3,0,0,0-.46-1.76l-2.67-1.33a1.32,1.32,0,0,0-1.76.46,1.3,1.3,0,0,0,.46,1.76Z"/><path d="M1044.78,398.28h2a1.28,1.28,0,0,0,0-2.57h-2a1.28,1.28,0,0,0,0,2.57Z"/><path d="M1053.75,398.35l4,.67a1.32,1.32,0,0,0,1.58-.9,1.29,1.29,0,0,0-.9-1.58l-4-.67a1.32,1.32,0,0,0-1.58.9,1.29,1.29,0,0,0,.9,1.58Z"/><path d="M1062.11,399h.67a1.28,1.28,0,0,0,0-2.57h-.67a1.28,1.28,0,0,0,0,2.57Z"/><path d="M1066.11,399h1.33a1.28,1.28,0,0,0,0-2.57h-1.33a1.28,1.28,0,0,0,0,2.57Z"/><path d="M1069.79,398.85l2,.68a1.28,1.28,0,0,0,.68-2.48l-2-.68a1.28,1.28,0,1,0-.68,2.48Z"/><path d="M1076.54,401.24l1.33,1.33a1.28,1.28,0,0,0,1.82-1.82l-1.33-1.33a1.28,1.28,0,0,0-1.82,1.82Z"/><path d="M1081.45,405a1.28,1.28,0,0,0,0-2.57,1.28,1.28,0,0,0,0,2.57Z"/><path d="M860.83,357v1.33a1.28,1.28,0,0,0,2.57,0V357a1.28,1.28,0,0,0-2.57,0Z"/><path d="M862.17,362.33a4.25,4.25,0,0,0,2,3.77,1.28,1.28,0,0,0,1.3-2.22,1.65,1.65,0,0,1-.69-1.55,1.28,1.28,0,0,0-2.57,0Z"/><path d="M865.87,368.57l.67.67a1.28,1.28,0,0,0,1.82-1.82l-.67-.67a1.28,1.28,0,0,0-1.82,1.82Z"/><path d="M806.78,351a1.28,1.28,0,0,0,0-2.57,1.28,1.28,0,0,0,0,2.57Z"/><path d="M814.11,350.28a1.28,1.28,0,0,0,0-2.57,1.28,1.28,0,0,0,0,2.57Z"/><path d="M818.11,348.28a1.28,1.28,0,0,0,0-2.57,1.28,1.28,0,0,0,0,2.57Z"/><path d="M1151.45,387a1.28,1.28,0,0,0,0-2.57,1.28,1.28,0,0,0,0,2.57Z"/><path d="M1134.78,293.62a1.28,1.28,0,0,0,0-2.57,1.28,1.28,0,0,0,0,2.57Z"/><path d="M1092.78,275.62a1.28,1.28,0,0,0,0-2.57,1.28,1.28,0,0,0,0,2.57Z"/><path d="M1089.45,273.62a1.28,1.28,0,0,0,0-2.57,1.28,1.28,0,0,0,0,2.57Z"/><path d="M1086.11,273a1.28,1.28,0,0,0,0-2.57,1.28,1.28,0,0,0,0,2.57Z"/><path d="M1081.45,273.62a1.28,1.28,0,0,0,0-2.57,1.28,1.28,0,0,0,0,2.57Z"/><path d="M1073.45,277.62a1.28,1.28,0,0,0,0-2.57,1.28,1.28,0,0,0,0,2.57Z"/><path d="M1395.45,360.83a1.5,1.5,0,0,0,0-3,1.5,1.5,0,0,0,0,3Z"/><path d="M1397.05,366.39l.67.67a1.5,1.5,0,1,0,2.12-2.12l-.67-.67a1.5,1.5,0,1,0-2.12,2.12Z"/><path d="M1401.45,372.17a1.5,1.5,0,0,0,0-3,1.5,1.5,0,0,0,0,3Z"/><path d="M1406.11,376.83a1.5,1.5,0,0,0,0-3,1.5,1.5,0,0,0,0,3Z"/><path d="M1407.48,381.42l.67,1.33a1.5,1.5,0,0,0,2.59-1.51l-.67-1.33a1.5,1.5,0,1,0-2.59,1.51Z"/><path d="M1412.11,388.83a1.5,1.5,0,0,0,0-3,1.5,1.5,0,0,0,0,3Z"/><path d="M1418.78,394.17a1.5,1.5,0,0,0,0-3,1.5,1.5,0,0,0,0,3Z"/><path d="M1275.78,226.83a1.5,1.5,0,0,0,0-3,1.5,1.5,0,0,0,0,3Z"/><path d="M1269.78,230.83a1.5,1.5,0,0,0,0-3,1.5,1.5,0,0,0,0,3Z"/><path d="M1252.45,229.83h-.67a1.5,1.5,0,0,0,0,3h.67a1.5,1.5,0,0,0,0-3Z"/><path d="M1227.78,232.83a1.5,1.5,0,0,0,0-3,1.5,1.5,0,0,0,0,3Z"/><path d="M1205.78,232.83a1.5,1.5,0,0,0,0-3,1.5,1.5,0,0,0,0,3Z"/><path d="M1201.78,232.83a1.5,1.5,0,0,0,0-3,1.5,1.5,0,0,0,0,3Z"/><path d="M1216.45,233.5a1.5,1.5,0,0,0,0-3,1.5,1.5,0,0,0,0,3Z"/><path d="M1221.11,233.53a74,74,0,0,1,18.94,1.23c1.89.37,2.69-2.52.8-2.89a77.17,77.17,0,0,0-19.73-1.34c-1.92.12-1.93,3.12,0,3Z"/><path d="M1243.11,235.5a1.5,1.5,0,0,0,0-3,1.5,1.5,0,0,0,0,3Z"/><path d="M1249.78,235.5a1.5,1.5,0,0,0,0-3,1.5,1.5,0,0,0,0,3Z"/><path d="M1253.11,235.5a1.5,1.5,0,0,0,0-3,1.5,1.5,0,0,0,0,3Z"/><path d="M1257.11,235.5a1.5,1.5,0,0,0,0-3,1.5,1.5,0,0,0,0,3Z"/><path d="M1262.45,234.83a1.5,1.5,0,0,0,0-3,1.5,1.5,0,0,0,0,3Z"/><path d="M1180.15,253.24l-.67,1.33a1.54,1.54,0,0,0,.54,2.05,1.51,1.51,0,0,0,2.05-.54l.67-1.33a1.54,1.54,0,0,0-.54-2.05,1.51,1.51,0,0,0-2.05.54Z"/><path d="M1175.72,257.61l-.67.67a1.5,1.5,0,1,0,2.12,2.12l.67-.67a1.5,1.5,0,0,0-2.12-2.12Z"/><path d="M1171.05,262.94l-.67.67a1.5,1.5,0,1,0,2.12,2.12l.67-.67a1.5,1.5,0,0,0-2.12-2.12Z"/><path d="M1167.42,267.21l-.67,1.33a1.54,1.54,0,0,0,.54,2.05,1.51,1.51,0,0,0,2.05-.54l.67-1.33a1.54,1.54,0,0,0-.54-2.05,1.51,1.51,0,0,0-2.05.54Z"/><path d="M1165.28,274v.67a1.5,1.5,0,0,0,3,0V274a1.5,1.5,0,0,0-3,0Z"/><path d="M1165.95,278v.67a1.5,1.5,0,0,0,3,0V278a1.5,1.5,0,0,0-3,0Z"/><path d="M1158.78,283.5a1.5,1.5,0,0,0,0-3,1.5,1.5,0,0,0,0,3Z"/><path d="M1155.45,284.83a1.5,1.5,0,0,0,0-3,1.5,1.5,0,0,0,0,3Z"/><path d="M1150.38,283.61l-.67.67a1.5,1.5,0,0,0,2.12,2.12l.67-.67a1.5,1.5,0,0,0-2.12-2.12Z"/><path d="M1377.45,279.5a1.5,1.5,0,0,0,0-3,1.5,1.5,0,0,0,0,3Z"/><path d="M1380.11,283.5h.67a1.5,1.5,0,0,0,0-3h-.67a1.5,1.5,0,0,0,0,3Z"/><path d="M1383.42,286.8l2,2.66a1.55,1.55,0,0,0,2.05.54,1.51,1.51,0,0,0,.54-2.05l-2-2.66a1.55,1.55,0,0,0-2.05-.54,1.51,1.51,0,0,0-.54,2.05Z"/><path d="M1392.38,294.11l10,4c1.79.72,2.57-2.18.8-2.89l-10-4c-1.79-.72-2.57,2.18-.8,2.89Z"/><path d="M1409.45,300.17a1.5,1.5,0,0,0,0-3,1.5,1.5,0,0,0,0,3Z"/><path d="M1414.78,302.83a1.5,1.5,0,0,0,0-3,1.5,1.5,0,0,0,0,3Z"/><path d="M1416.78,306.17a1.5,1.5,0,0,0,0-3,1.5,1.5,0,0,0,0,3Z"/><path d="M1420.78,310.17a1.5,1.5,0,0,0,0-3,1.5,1.5,0,0,0,0,3Z"/><path d="M1008.78,282.83a1.5,1.5,0,0,0,0-3,1.5,1.5,0,0,0,0,3Z"/><path d="M1006.78,280.5h-.67a1.5,1.5,0,0,0,0,3h.67a1.5,1.5,0,0,0,0-3Z"/><path d="M1000,283.33l-2.66,1.34a1.5,1.5,0,0,0,1.51,2.59l2.66-1.34a1.5,1.5,0,0,0-1.51-2.59Z"/><path d="M991.28,288v.67a1.5,1.5,0,1,0,3,0V288a1.5,1.5,0,1,0-3,0Z"/><path d="M990.78,290.5h-.67a1.5,1.5,0,0,0,0,3h.67a1.5,1.5,0,0,0,0-3Z"/><path d="M982.38,292.94l-.67.67a1.5,1.5,0,1,0,2.12,2.12l.67-.67a1.5,1.5,0,0,0-2.12-2.12Z"/><path d="M968.69,294.7l-1.33.67a1.5,1.5,0,0,0,1.51,2.59l1.33-.67a1.5,1.5,0,1,0-1.51-2.59Z"/><path d="M959.45,298.17a1.5,1.5,0,0,0,0-3,1.5,1.5,0,0,0,0,3Z"/><path d="M947.45,294.5h-1.33a1.5,1.5,0,0,0,0,3h1.33a1.5,1.5,0,0,0,0-3Z"/><path d="M941.45,297.5a1.5,1.5,0,0,0,0-3,1.5,1.5,0,0,0,0,3Z"/><path d="M936.78,296.83a1.5,1.5,0,0,0,0-3,1.5,1.5,0,0,0,0,3Z"/><path d="M934.11,296.83a1.5,1.5,0,0,0,0-3,1.5,1.5,0,0,0,0,3Z"/><path d="M931.45,296.83a1.5,1.5,0,0,0,0-3,1.5,1.5,0,0,0,0,3Z"/><path d="M927.45,293.83h-.67a1.5,1.5,0,0,0,0,3h.67a1.5,1.5,0,0,0,0-3Z"/><path d="M921.45,297.5a1.5,1.5,0,0,0,0-3,1.5,1.5,0,0,0,0,3Z"/><path d="M1403.45,364.17a1.5,1.5,0,0,0,0-3,1.5,1.5,0,0,0,0,3Z"/><path d="M1405.24,367.76l.65,2a1.53,1.53,0,0,0,1.85,1,1.52,1.52,0,0,0,1-1.85l-.65-2a1.53,1.53,0,0,0-1.85-1,1.52,1.52,0,0,0-1,1.85Z"/><path d="M1409.45,375.5a1.5,1.5,0,0,0,0-3,1.5,1.5,0,0,0,0,3Z"/><path d="M1418.11,378.83h1.33a1.5,1.5,0,0,0,0-3h-1.33a1.5,1.5,0,0,0,0,3Z"/><path d="M1422.34,379.56l2,.65a1.51,1.51,0,0,0,1.85-1,1.53,1.53,0,0,0-1-1.85l-2-.65a1.51,1.51,0,0,0-1.85,1,1.53,1.53,0,0,0,1,1.85Z"/></g><g id="headlines-mock"><text class="cls-29" transform="translate(598.2 888)"><tspan class="cls-30">P</tspan><tspan x="22.18" y="0">encils B</tspan><tspan class="cls-31" x="146.73" y="0">e</tspan><tspan class="cls-32" x="165.88" y="0">f</tspan><tspan class="cls-33" x="176.68" y="0">o</tspan><tspan class="cls-34" x="196.84" y="0">r</tspan><tspan x="209.23" y="0">e </tspan><tspan class="cls-32" x="236.01" y="0">P</tspan><tspan x="258.62" y="0">i</tspan><tspan class="cls-35" x="267.26" y="0">x</tspan><tspan x="283.39" y="0">els</tspan></text></g></g></svg>