<?xml version="1.0" encoding="UTF-8" standalone="no"?>
<svg width="15px" height="24px" viewBox="0 0 15 24" version="1.1" xmlns="http://www.w3.org/2000/svg" xmlns:xlink="http://www.w3.org/1999/xlink">
    <!-- Generator: Sketch 40.3 (33839) - http://www.bohemiancoding.com/sketch -->
    <title>Rocket Up</title>
    <desc>Created with Sketch.</desc>
    <defs></defs>
    <g id="Symbols" stroke="none" stroke-width="1" fill="none" fill-rule="evenodd">
        <g id="Footer-Dark" transform="translate(-523.000000, -45.000000)" fill="#FFFFFF">
            <g id="Rocket-Up" transform="translate(523.000000, 45.000000)">
                <rect id="Rectangle" x="0" y="18" width="3" height="3"></rect>
                <rect id="Rectangle-Copy-29" x="0" y="21" width="3" height="3"></rect>
                <rect id="Rectangle-Copy-2" x="3" y="15" width="3" height="3"></rect>
                <rect id="Rectangle-Copy-17" x="6" y="15" width="3" height="3"></rect>
                <rect id="Rectangle-Copy-18" x="6" y="18" width="3" height="3"></rect>
                <rect id="Rectangle-Copy-21" x="3" y="12" width="3" height="3"></rect>
                <rect id="Rectangle-Copy-23" x="3" y="9" width="3" height="3"></rect>
                <rect id="Rectangle-Copy-25" x="3" y="6" width="3" height="3"></rect>
                <rect id="Rectangle-Copy-19" x="9" y="15" width="3" height="3"></rect>
                <rect id="Rectangle-Copy-22" x="9" y="12" width="3" height="3"></rect>
                <rect id="Rectangle-Copy-24" x="9" y="9" width="3" height="3"></rect>
                <rect id="Rectangle-Copy-26" x="9" y="6" width="3" height="3"></rect>
                <rect id="Rectangle-Copy-27" x="6" y="3" width="3" height="3"></rect>
                <rect id="Rectangle-Copy-28" x="6" y="0" width="3" height="3"></rect>
                <rect id="Rectangle-Copy-20" x="12" y="18" width="3" height="3"></rect>
                <rect id="Rectangle-Copy-30" x="12" y="21" width="3" height="3"></rect>
            </g>
        </g>
    </g>
</svg>