<?xml version="1.0" encoding="utf-8"?>
<!-- Generator: Adobe Illustrator 20.0.0, SVG Export Plug-In . SVG Version: 6.00 Build 0)  -->
<svg version="1.1" id="Layer_1" xmlns="http://www.w3.org/2000/svg" xmlns:xlink="http://www.w3.org/1999/xlink" x="0px" y="0px"
	 viewBox="0 0 200 200" style="enable-background:new 0 0 200 200;" xml:space="preserve">
<g>
	<path d="M104.2,97.8c0,0.1,0,0.2,0,0.3c0,2.9-2.2,6.2-6.2,6.2c-1.2,0-2.4-0.4-3.3-1c0.2,0,0.3,0,0.5,0c1,0,1.9-0.3,2.7-0.9
		c-1,0-1.7-0.6-2-1.5c0.1,0,0.3,0,0.4,0c0.2,0,0.4,0,0.6-0.1c-1-0.2-1.7-1.1-1.7-2.1c0,0,0,0,0,0c0.3,0.2,0.6,0.3,1,0.3
		c-0.6-0.4-1-1.1-1-1.8c0-0.4,0.1-0.8,0.3-1.1c1.1,1.3,2.7,2.2,4.5,2.3c0-0.2-0.1-0.3-0.1-0.5c0-1.2,1-2.2,2.2-2.2
		c0.6,0,1.2,0.3,1.6,0.7c0.5-0.1,1-0.3,1.4-0.5c-0.2,0.5-0.5,0.9-1,1.2c0.4,0,0.9-0.2,1.2-0.3C105,97.2,104.6,97.5,104.2,97.8z"/>
</g>
</svg>
